<?xml version="1.0" encoding="UTF-8" standalone="no"?>
<svg
   xmlns:dc="http://purl.org/dc/elements/1.1/"
   xmlns:cc="http://creativecommons.org/ns#"
   xmlns:rdf="http://www.w3.org/1999/02/22-rdf-syntax-ns#"
   xmlns:svg="http://www.w3.org/2000/svg"
   xmlns="http://www.w3.org/2000/svg"
   xmlns:sodipodi="http://sodipodi.sourceforge.net/DTD/sodipodi-0.dtd"
   xmlns:inkscape="http://www.inkscape.org/namespaces/inkscape"
   version="1.1"
   id="Layer_1"
   x="0px"
   y="0px"
   width="1024"
   height="1024"
   viewBox="0 0 1024 1024"
   enable-background="new 0 0 512 512"
   xml:space="preserve"
   inkscape:version="0.48.0 r9654"
   sodipodi:docname="uni-shan-MOUNTAIN-x2f2d.svg"><metadata
   id="metadata72"><rdf:RDF><cc:Work
       rdf:about=""><dc:format>image/svg+xml</dc:format><dc:type
         rdf:resource="http://purl.org/dc/dcmitype/StillImage" /></cc:Work></rdf:RDF></metadata><defs
   id="defs70" /><sodipodi:namedview
   pagecolor="#ffffff"
   bordercolor="#666666"
   borderopacity="1"
   objecttolerance="10"
   gridtolerance="10"
   guidetolerance="10"
   inkscape:pageopacity="0"
   inkscape:pageshadow="2"
   inkscape:window-width="1136"
   inkscape:window-height="800"
   id="namedview68"
   showgrid="false"
   inkscape:zoom="0.36045873"
   inkscape:cx="-71.583279"
   inkscape:cy="363.904"
   inkscape:window-x="0"
   inkscape:window-y="0"
   inkscape:window-maximized="0"
   inkscape:current-layer="Layer_1" />
	<g
   id="Grid"
   transform="matrix(1.9896421,0,0,1.99505,-0.05002412,5.2294)">
		<rect
   x="0"
   stroke-miterlimit="10"
   width="512"
   height="512"
   id="rect4"
   y="0"
   style="fill:none;stroke:#a9ccdb;stroke-miterlimit:10" />
		<line
   stroke-miterlimit="10"
   x1="0"
   y1="32"
   x2="512"
   y2="32"
   id="line6"
   style="fill:none;stroke:#a9ccdb;stroke-miterlimit:10" />
		<line
   stroke-miterlimit="10"
   x1="0"
   y1="64"
   x2="512"
   y2="64"
   id="line8"
   style="fill:none;stroke:#a9ccdb;stroke-miterlimit:10" />
		<line
   stroke-miterlimit="10"
   x1="0"
   y1="96"
   x2="512"
   y2="96"
   id="line10"
   style="fill:none;stroke:#a9ccdb;stroke-miterlimit:10" />
		<line
   stroke-miterlimit="10"
   x1="0"
   y1="128"
   x2="512"
   y2="128"
   id="line12"
   style="fill:none;stroke:#a9ccdb;stroke-miterlimit:10" />
		<line
   stroke-miterlimit="10"
   x1="0"
   y1="160"
   x2="512"
   y2="160"
   id="line14"
   style="fill:none;stroke:#a9ccdb;stroke-miterlimit:10" />
		<line
   stroke-miterlimit="10"
   x1="0"
   y1="192"
   x2="512"
   y2="192"
   id="line16"
   style="fill:none;stroke:#a9ccdb;stroke-miterlimit:10" />
		<line
   stroke-miterlimit="10"
   x1="0"
   y1="224"
   x2="512"
   y2="224"
   id="line18"
   style="fill:none;stroke:#a9ccdb;stroke-miterlimit:10" />
		<line
   stroke-miterlimit="10"
   x1="0"
   y1="256"
   x2="512"
   y2="256"
   id="line20"
   style="fill:none;stroke:#a9ccdb;stroke-miterlimit:10" />
		<line
   stroke-miterlimit="10"
   x1="0"
   y1="288"
   x2="512"
   y2="288"
   id="line22"
   style="fill:none;stroke:#a9ccdb;stroke-miterlimit:10" />
		<line
   stroke-miterlimit="10"
   x1="0"
   y1="320"
   x2="512"
   y2="320"
   id="line24"
   style="fill:none;stroke:#a9ccdb;stroke-miterlimit:10" />
		<line
   stroke-miterlimit="10"
   x1="0"
   y1="352"
   x2="512"
   y2="352"
   id="line26"
   style="fill:none;stroke:#a9ccdb;stroke-miterlimit:10" />
		<line
   stroke-miterlimit="10"
   x1="0"
   y1="384"
   x2="512"
   y2="384"
   id="line28"
   style="fill:none;stroke:#a9ccdb;stroke-miterlimit:10" />
		<line
   stroke-miterlimit="10"
   x1="0"
   y1="416"
   x2="512"
   y2="416"
   id="line30"
   style="fill:none;stroke:#a9ccdb;stroke-miterlimit:10" />
		<line
   stroke-miterlimit="10"
   x1="0"
   y1="448"
   x2="512"
   y2="448"
   id="line32"
   style="fill:none;stroke:#ff0000;stroke-miterlimit:10" />
		<line
   stroke-miterlimit="10"
   x1="0"
   y1="480"
   x2="512"
   y2="480"
   id="line34"
   style="fill:none;stroke:#a9ccdb;stroke-miterlimit:10" />
		<line
   stroke-miterlimit="10"
   x1="32"
   y1="0"
   x2="32"
   y2="512"
   id="line36"
   style="fill:none;stroke:#a9ccdb;stroke-miterlimit:10" />
		<line
   stroke-miterlimit="10"
   x1="64"
   y1="0"
   x2="64"
   y2="512"
   id="line38"
   style="fill:none;stroke:#a9ccdb;stroke-miterlimit:10" />
		<line
   stroke-miterlimit="10"
   x1="96"
   y1="0"
   x2="96"
   y2="512"
   id="line40"
   style="fill:none;stroke:#a9ccdb;stroke-miterlimit:10" />
		<line
   stroke-miterlimit="10"
   x1="128"
   y1="0"
   x2="128"
   y2="512"
   id="line42"
   style="fill:none;stroke:#a9ccdb;stroke-miterlimit:10" />
		<line
   stroke-miterlimit="10"
   x1="160"
   y1="0"
   x2="160"
   y2="512"
   id="line44"
   style="fill:none;stroke:#a9ccdb;stroke-miterlimit:10" />
		<line
   stroke-miterlimit="10"
   x1="192"
   y1="0"
   x2="192"
   y2="512"
   id="line46"
   style="fill:none;stroke:#a9ccdb;stroke-miterlimit:10" />
		<line
   stroke-miterlimit="10"
   x1="224"
   y1="0"
   x2="224"
   y2="512"
   id="line48"
   style="fill:none;stroke:#a9ccdb;stroke-miterlimit:10" />
		<line
   stroke-miterlimit="10"
   x1="256"
   y1="0"
   x2="256"
   y2="512"
   id="line50"
   style="fill:none;stroke:#a9ccdb;stroke-miterlimit:10" />
		<line
   stroke-miterlimit="10"
   x1="288"
   y1="0"
   x2="288"
   y2="512"
   id="line52"
   style="fill:none;stroke:#a9ccdb;stroke-miterlimit:10" />
		<line
   stroke-miterlimit="10"
   x1="320"
   y1="0"
   x2="320"
   y2="512"
   id="line54"
   style="fill:none;stroke:#a9ccdb;stroke-miterlimit:10" />
		<line
   stroke-miterlimit="10"
   x1="352"
   y1="0"
   x2="352"
   y2="512"
   id="line56"
   style="fill:none;stroke:#a9ccdb;stroke-miterlimit:10" />
		<line
   stroke-miterlimit="10"
   x1="384"
   y1="0"
   x2="384"
   y2="512"
   id="line58"
   style="fill:none;stroke:#a9ccdb;stroke-miterlimit:10" />
		<line
   stroke-miterlimit="10"
   x1="416"
   y1="0"
   x2="416"
   y2="512"
   id="line60"
   style="fill:none;stroke:#a9ccdb;stroke-miterlimit:10" />
		<line
   stroke-miterlimit="10"
   x1="448"
   y1="0"
   x2="448"
   y2="512"
   id="line62"
   style="fill:none;stroke:#a9ccdb;stroke-miterlimit:10" />
		<line
   stroke-miterlimit="10"
   x1="480"
   y1="0"
   x2="480"
   y2="512"
   id="line64"
   style="fill:none;stroke:#a9ccdb;stroke-miterlimit:10" />
	</g>
	
<path
   style="fill:#090909"
   d="m 60.585888,333.43993 c 40.486092,179.762 96.650852,411.50905 118.729512,411.92131 17.62163,0.32901 70.14688,-159.74585 92.99234,-283.40072 11.78921,-63.80985 27.82833,-129.83052 35.64267,-146.71259 9.76106,-21.0875 17.97933,-100.82405 30.93627,-91.14365 38.49842,144.11674 53.46447,266.42266 87.8634,395.17412 34.87791,129.46098 75.21653,280.97192 91.20294,280.97192 68.63002,-157.54417 79.98194,-353.50062 119.49353,-484.85739 8.53784,-28.24538 36.66959,-188.12329 47.60452,-190.40254 11.24735,-2.34439 23.54053,49.86799 28.87553,76.46447 8.6834,43.28917 21.41177,103.0506 51.42731,192.0913 40.02192,118.72448 82.26376,240.79748 88.54925,240.79748 20.10548,0 47.70499,-69.04822 84.93809,-268.79532 19.82391,-106.34972 48.14103,-197.81913 56.14568,-230.39127 11.84997,-60.97635 14.02277,-118.83703 22.94847,-179.78301 l -507.17502,-5.92157 -501.6264577,0 C 3.7675667,146.30949 39.322797,240.59612 60.585888,333.43993 z M 312.01584,109.55684 c -0.0203,10.62967 -8.61341,46.18328 -15.23806,81.2778 -13.87856,92.43178 -53.49129,180.32284 -73.69129,271.12588 -13.93233,63.80984 -32.59736,154.50817 -44.63781,154.50817 C 134.5663,505.20477 124.04514,365.38728 97.890444,277.96622 82.808248,227.36129 67.707805,143.50819 78.217389,112.89976 c 9.089369,-9.60056 26.671201,-9.62838 49.610711,-7.85124 17.12384,1.32659 37.23312,-0.50241 59.02392,-0.39535 25.83681,0.12692 51.39569,3.37964 72.61498,2.69138 30.73283,-0.99683 52.36249,-1.53136 52.54884,2.21229 z m 344.92404,13.80625 c -28.57248,72.0412 -49.33435,195.06189 -65.73212,270.43669 -20.54913,94.45705 -34.24479,141.11237 -47.86961,227.07525 -10.30565,65.27301 -20.77389,161.93942 -33.80246,155.9517 -11.11318,-5.10744 -24.08928,-102.64882 -40.41637,-164.69081 -29.23604,-179.4057 -89.50385,-310.09258 -101.5553,-497.5401 0,-1.85543 3.87845,-3.0789 10.98288,-3.86989 21.49402,-2.3931 72.5163,-0.82759 134.99761,-0.82759 62.37204,0 95.76964,-1.55029 116.17921,-1.66751 19.18404,-0.11018 27.21616,0.72262 27.21616,15.13226 z m 305.23832,-5.22936 c -6.56293,86.19077 -32.93118,179.10169 -54.14888,265.94015 -10.75831,36.92649 -42.90569,233.2052 -54.57421,230.42819 -6.19175,-3.26693 -20.09131,-52.74049 -42.96782,-125.80873 -43.3516,-138.46629 -85.14405,-325.09327 -86.23857,-363.77291 -0.38263,-13.52202 24.19527,-14.39104 58.10276,-13.70348 17.81757,0.3613 38.21126,1.15241 58.91307,0.76328 17.87935,-0.33608 34.53761,-0.53619 49.34751,-0.12347 35.53919,0.99042 65.98299,-8.36132 71.56614,6.27697 z"
   id="path3801"
   inkscape:connector-curvature="0"
   sodipodi:nodetypes="csssccccssssscccccccccccsssccscsccsssccccsssssc" />
	 
</svg>