<?xml version="1.0" encoding="UTF-8" standalone="no"?>
<svg
   xmlns:dc="http://purl.org/dc/elements/1.1/"
   xmlns:cc="http://creativecommons.org/ns#"
   xmlns:rdf="http://www.w3.org/1999/02/22-rdf-syntax-ns#"
   xmlns:svg="http://www.w3.org/2000/svg"
   xmlns="http://www.w3.org/2000/svg"
   xmlns:sodipodi="http://sodipodi.sourceforge.net/DTD/sodipodi-0.dtd"
   xmlns:inkscape="http://www.inkscape.org/namespaces/inkscape"
   version="1.1"
   id="Layer_1"
   x="0px"
   y="0px"
   width="1000"
   height="1000"
   viewBox="0 0 1000 1000"
   enable-background="new 0 0 512 512"
   xml:space="preserve"
   inkscape:version="0.48.0 r9654"
   sodipodi:docname="uni-ren-fellow-x2e85.svg"><metadata
   id="metadata72"><rdf:RDF><cc:Work
       rdf:about=""><dc:format>image/svg+xml</dc:format><dc:type
         rdf:resource="http://purl.org/dc/dcmitype/StillImage" /></cc:Work></rdf:RDF></metadata><defs
   id="defs70" /><sodipodi:namedview
   pagecolor="#ffffff"
   bordercolor="#666666"
   borderopacity="1"
   objecttolerance="10"
   gridtolerance="10"
   guidetolerance="10"
   inkscape:pageopacity="0"
   inkscape:pageshadow="2"
   inkscape:window-width="1152"
   inkscape:window-height="814"
   id="namedview68"
   showgrid="false"
   inkscape:zoom="0.25"
   inkscape:cx="-13.438578"
   inkscape:cy="560.25186"
   inkscape:window-x="-8"
   inkscape:window-y="-8"
   inkscape:window-maximized="1"
   inkscape:current-layer="Layer_1"
   showguides="true"
   inkscape:guide-bbox="true" />
	<g
   id="Grid"
   transform="matrix(1.9559636,0,0,1.952167,0.4840368,0.015356)">
		<rect
   x="0"
   stroke-miterlimit="10"
   width="512"
   height="512"
   id="rect4"
   y="0"
   style="fill:none;stroke:#a9ccdb;stroke-miterlimit:10" />
		<line
   stroke-miterlimit="10"
   x1="0"
   y1="32"
   x2="512"
   y2="32"
   id="line6"
   style="fill:none;stroke:#a9ccdb;stroke-miterlimit:10" />
		<line
   stroke-miterlimit="10"
   x1="0"
   y1="64"
   x2="512"
   y2="64"
   id="line8"
   style="fill:none;stroke:#a9ccdb;stroke-miterlimit:10" />
		<line
   stroke-miterlimit="10"
   x1="0"
   y1="96"
   x2="512"
   y2="96"
   id="line10"
   style="fill:none;stroke:#a9ccdb;stroke-miterlimit:10" />
		<line
   stroke-miterlimit="10"
   x1="0"
   y1="128"
   x2="512"
   y2="128"
   id="line12"
   style="fill:none;stroke:#a9ccdb;stroke-miterlimit:10" />
		<line
   stroke-miterlimit="10"
   x1="0"
   y1="160"
   x2="512"
   y2="160"
   id="line14"
   style="fill:none;stroke:#a9ccdb;stroke-miterlimit:10" />
		<line
   stroke-miterlimit="10"
   x1="0"
   y1="192"
   x2="512"
   y2="192"
   id="line16"
   style="fill:none;stroke:#a9ccdb;stroke-miterlimit:10" />
		<line
   stroke-miterlimit="10"
   x1="0"
   y1="224"
   x2="512"
   y2="224"
   id="line18"
   style="fill:none;stroke:#a9ccdb;stroke-miterlimit:10" />
		<line
   stroke-miterlimit="10"
   x1="0"
   y1="256"
   x2="512"
   y2="256"
   id="line20"
   style="fill:none;stroke:#a9ccdb;stroke-miterlimit:10" />
		<line
   stroke-miterlimit="10"
   x1="0"
   y1="288"
   x2="512"
   y2="288"
   id="line22"
   style="fill:none;stroke:#a9ccdb;stroke-miterlimit:10" />
		<line
   stroke-miterlimit="10"
   x1="0"
   y1="320"
   x2="512"
   y2="320"
   id="line24"
   style="fill:none;stroke:#a9ccdb;stroke-miterlimit:10" />
		<line
   stroke-miterlimit="10"
   x1="0"
   y1="352"
   x2="512"
   y2="352"
   id="line26"
   style="fill:none;stroke:#a9ccdb;stroke-miterlimit:10" />
		<line
   stroke-miterlimit="10"
   x1="0"
   y1="384"
   x2="512"
   y2="384"
   id="line28"
   style="fill:none;stroke:#a9ccdb;stroke-miterlimit:10" />
		<line
   stroke-miterlimit="10"
   x1="0"
   y1="416"
   x2="512"
   y2="416"
   id="line30"
   style="fill:none;stroke:#a9ccdb;stroke-miterlimit:10" />
		<line
   stroke-miterlimit="10"
   x1="0"
   y1="448"
   x2="512"
   y2="448"
   id="line32"
   style="fill:none;stroke:#ff0000;stroke-miterlimit:10" />
		<line
   stroke-miterlimit="10"
   x1="0"
   y1="480"
   x2="512"
   y2="480"
   id="line34"
   style="fill:none;stroke:#a9ccdb;stroke-miterlimit:10" />
		<line
   stroke-miterlimit="10"
   x1="32"
   y1="0"
   x2="32"
   y2="512"
   id="line36"
   style="fill:none;stroke:#a9ccdb;stroke-miterlimit:10" />
		<line
   stroke-miterlimit="10"
   x1="64"
   y1="0"
   x2="64"
   y2="512"
   id="line38"
   style="fill:none;stroke:#a9ccdb;stroke-miterlimit:10" />
		<line
   stroke-miterlimit="10"
   x1="96"
   y1="0"
   x2="96"
   y2="512"
   id="line40"
   style="fill:none;stroke:#a9ccdb;stroke-miterlimit:10" />
		<line
   stroke-miterlimit="10"
   x1="128"
   y1="0"
   x2="128"
   y2="512"
   id="line42"
   style="fill:none;stroke:#a9ccdb;stroke-miterlimit:10" />
		<line
   stroke-miterlimit="10"
   x1="160"
   y1="0"
   x2="160"
   y2="512"
   id="line44"
   style="fill:none;stroke:#a9ccdb;stroke-miterlimit:10" />
		<line
   stroke-miterlimit="10"
   x1="192"
   y1="0"
   x2="192"
   y2="512"
   id="line46"
   style="fill:none;stroke:#a9ccdb;stroke-miterlimit:10" />
		<line
   stroke-miterlimit="10"
   x1="224"
   y1="0"
   x2="224"
   y2="512"
   id="line48"
   style="fill:none;stroke:#a9ccdb;stroke-miterlimit:10" />
		<line
   stroke-miterlimit="10"
   x1="256"
   y1="0"
   x2="256"
   y2="512"
   id="line50"
   style="fill:none;stroke:#a9ccdb;stroke-miterlimit:10" />
		<line
   stroke-miterlimit="10"
   x1="288"
   y1="0"
   x2="288"
   y2="512"
   id="line52"
   style="fill:none;stroke:#a9ccdb;stroke-miterlimit:10" />
		<line
   stroke-miterlimit="10"
   x1="320"
   y1="0"
   x2="320"
   y2="512"
   id="line54"
   style="fill:none;stroke:#a9ccdb;stroke-miterlimit:10" />
		<line
   stroke-miterlimit="10"
   x1="352"
   y1="0"
   x2="352"
   y2="512"
   id="line56"
   style="fill:none;stroke:#a9ccdb;stroke-miterlimit:10" />
		<line
   stroke-miterlimit="10"
   x1="384"
   y1="0"
   x2="384"
   y2="512"
   id="line58"
   style="fill:none;stroke:#a9ccdb;stroke-miterlimit:10" />
		<line
   stroke-miterlimit="10"
   x1="416"
   y1="0"
   x2="416"
   y2="512"
   id="line60"
   style="fill:none;stroke:#a9ccdb;stroke-miterlimit:10" />
		<line
   stroke-miterlimit="10"
   x1="448"
   y1="0"
   x2="448"
   y2="512"
   id="line62"
   style="fill:none;stroke:#a9ccdb;stroke-miterlimit:10" />
		<line
   stroke-miterlimit="10"
   x1="480"
   y1="0"
   x2="480"
   y2="512"
   id="line64"
   style="fill:none;stroke:#a9ccdb;stroke-miterlimit:10" />
	</g>
	

	 
<g
   id="g3764"
   transform="matrix(1,0,0,-1,2295.454,1111.0793)"><path
     style="fill:#cb837c;fill-opacity:0.73333333"
     d="m -2174.9032,679.73007 c 5.4229,-7.41203 12.515,-24.56217 18.4256,-31.59331 13.9514,-17.28188 46.3454,-23.10097 46.9802,-33.07714 12.8353,2.47292 24.361,-12.26759 32.7752,-26.18331 7.044,-11.6495 25.309,-24.12261 32.0847,-29.18331 0.8368,-5.88061 13.6443,-29.85644 20.3568,-47.81242 2.667,-7.13429 -2.2034,-31.09028 -0.9369,-40.29 0.9974,-7.24581 4.4139,-2.08982 7.1601,-6.96447 5.6207,-9.97698 22.7047,-8.17458 19.7513,-9.55094 -5.3241,5.91263 -20.5536,10.12313 -27.0353,14.3457 -3.0076,1.9593 -10.2289,-6.82807 -13.1809,-5.12116 -2.3431,1.3548 -0.4267,13.24543 -2.7372,14.47256 -19.7841,10.50733 -42.1664,26.34325 -60.3342,37.2141 -4.1025,3.10703 -11.0278,4.26596 -13.1036,8.05778 -1.0787,2.15412 -0.827,-0.50409 -1.3888,2.82569 -0.6343,3.64755 -2.3915,7.69842 -4.1564,11.16368 -4.5669,8.96652 -12.7409,10.52819 -22.1163,6.88378 -5.6676,-2.53247 -14.5084,-2.12242 -17.3729,-2.0048 -11.0892,2.22306 -6.7146,1.20892 -11.3619,3.55194 -5.2969,1.42143 -35.8549,15.21724 -49.6825,14.96748 -8.9047,-0.16083 -0.9384,-15.2515 -7.8924,-12.90606 -15.4667,5.21659 -33.6896,15.18322 -38.575,16.1419 -3.6602,0.97538 -6.2302,0.99045 -7.9878,0.40283 -2.0371,-0.68109 -2.9827,-4.17181 -3.269,-5.9154 -0.5782,-3.52118 1.5327,-6.07359 2.773,-7.07132 9.1109,-7.36055 26.4278,-12.97283 40.9026,-20.22314 2.2859,-1.15773 -1.4936,-3.3137 -1.2862,-7.19998 0.5441,-10.19377 28.8908,-15.68408 35.7364,-19.71317 2.7995,-1.64769 11.1061,0.74468 13.9059,-0.82179 8.8388,-4.94525 18.2205,-5.76354 25.9151,-10.27024 1.6878,-0.98854 32.8565,-13.24132 33.8598,-15.1941 0.7062,-1.37439 -15.3058,8.44986 -20.6621,9.18176 -7.5886,1.03695 -5.372,-6.60784 -3.9114,-7.60565 6.847,-4.67766 12.0343,-5.99535 17.6741,-8.5105 6.2727,-2.79741 12.7498,-6.60202 15.2096,-8.18069 10.3213,-6.6965 19.4714,-13.09393 24.8927,-17.30918 12.0764,-8.00494 28.5254,-22.40094 38.2901,-25.68565 3.5059,-1.1599 6.7343,-2.11129 7.8735,-1.77446 8.5882,3.70507 13.984,-5.36213 19.686,-12.42221 2.4042,-2.97682 5.3421,-10.41806 7.0397,-12.78465 3.0169,-4.20593 3.6425,-3.06764 1.2709,-8.50783 -1.2891,-2.58815 4.4911,-16.93919 9.2094,-20.8086 4.5714,-6.03949 2.5566,-12.41811 3.5468,-16.76059 2.5283,-11.08782 2.6377,-26.70054 -4.4895,-27.6267 -10.4102,2.21032 -13.6126,3.51257 -21.5813,3.35656 -5.5169,-0.10801 -1.5275,-0.95994 -8.7042,-1.50131 -4.3597,-0.32263 -9.3567,-4.37109 -9.7666,-7.78413 -0.4932,-3.88291 2.3611,-11.79321 -1.6133,-15.63495 -4.8892,-1.64228 -8.4651,-3.50589 -10.785,-5.35862 -6.7899,-5.42249 -2.8209,-10.7517 10.4693,-10.16571 8.7271,0.16603 4.7244,-10.71372 4.8565,-13.93297 -1.3828,-7.32675 -0.6829,-15.29659 1.6278,-21.40071 1.6962,-4.48083 4.5866,-7.63024 6.5108,-10.42944 5.6125,-7.90206 -2.0426,-4.7099 6.4464,-8.64557 7.8894,-2.79002 17.2485,-5.55835 26.2468,-6.19261 8.5539,-0.60294 16.7818,0.7226 23.1111,5.79123 8.7675,7.285 10.3223,7.49602 21.7277,10.66721 13.1946,3.66863 33.8207,-9.99615 16.7804,68.58166 -2.2323,10.29339 -10.3027,23.2267 -8.1893,26.26949 1.8539,2.66909 1.3709,16.00017 1.3709,19.84684 1.2324,2.93011 -1.3054,9.69334 0.1313,12.33999 12.0431,-9.86352 12.8495,-9.563 27.2727,-5.00214 12.5483,3.67597 22.0245,28.2971 20.3848,38.05592 -3.3682,6.51409 -5.4083,8.67067 -13.5141,14.74336 -7.2476,5.42979 -17.227,4.94166 -18.0431,9.698 0.063,4.25145 23.4621,29.29132 27.1146,29.42184 l 25.2808,21.98715 c 2.3883,2.28761 14.1355,11.19008 24.2143,10.40478 6.495,-2.62045 6.4435,3.28831 9.4039,6.09761 6.098,5.78684 20.4086,12.35364 25.4408,18.72897 20.2028,10.9621 5.811,7.26484 26.2109,6.96252 3.6998,-0.0548 13.8802,4.27933 23.9636,2.74241 18.6575,-3.61002 29.3771,1.71026 44.6179,8.42696 7.228,3.20159 14.7526,7.05941 17.6601,9.83754 5.1238,11.40516 -0.7689,23.05299 -9.6686,31.49541 -4.2023,3.98643 -7.0474,2.88819 -17.761,8.62933 -6.735,23.21306 -11.6543,12.28945 -40.811,23.23298 -18.0372,8.95316 -38.8082,16.66734 -47.1705,-0.0329 -3.0177,-6.0267 4.0617,-19.41803 -0.3864,-23.9253 -5.9781,-6.05764 -23.656,-2.90973 -27.9721,-9.27934 -3.097,-5.20369 -11.1305,-13.54674 -13.1431,-18.96346 -13.5181,-15.16687 -10.8922,-7.98929 -22.9084,-20.59362 -6.2411,-6.46073 -8.7338,-5.76617 -12.5293,-7.06468 -10.2451,-3.50498 -15.4106,-2.38744 -36.1706,0.76821 -5.5424,2.44025 -7.0714,19.14402 -15.0661,25.27062 -20.1531,15.444 -29.4666,25.10097 -31.1778,45.16158 -6.8613,10.41318 5.1768,34.18017 32.7841,56.91546 13.5402,11.15066 36.1154,12.93857 47.2275,28.4511 8.8049,12.29174 3.8777,45.86817 9.3705,57.77964 9.1594,19.86297 11.2777,21.62618 11.1145,44.1748 -0.3414,47.1797 -18.9835,93.02106 -33.992,142.3084 -8.8983,29.22198 -4.9913,72.16522 -19.8574,98.27209 -7.185,12.6179 -16.6081,18.5728 -29.7586,30.6553 -27.9808,-2.8964 -11.97,-31.9304 -15.1414,-45.7206 -3.0424,-13.22924 9.6102,-20.4103 14.1913,-31.06674 6.8591,-17.10229 13.4703,-33.59823 13.6079,-50.92114 0.022,-2.78866 1.9979,-5.59874 1.6585,-8.43623 -1.2944,-1.2649 0.213,-5.56028 1.0401,-10.31318 0.6676,-3.8361 -2.2657,-9.79049 -0.7493,-14.45584 3.9409,-12.12495 7.8658,-23.6812 6.9702,-27.335 -3.569,-14.56128 -13.1043,-23.083 -11.8792,-30.29027 1.9206,-11.29863 1.8256,-8.39389 11.0733,-21.73809 6.305,-9.09792 11.3154,-21.6749 13.3224,-32.31299 -3.1408,-1.79178 -3.272,-5.52053 -3.8191,-8.00061 -0.7943,-3.60093 -0.8981,-6.13663 0.6898,-9.34211 3.3428,-6.6796 -3.0155,-15.07442 -3.4745,-23.59184 -0.8289,-15.38127 -16.755,-35.92308 -34.7896,-49.20924 -29.9145,-25.23794 -32.5149,-32.63243 -68.9461,-34.02487 -33.3144,-4.18359 -34.4734,2.83002 -49.5219,17.6032 -7.5767,2.38141 -9.3589,22.39747 -17.9526,25.3974 -6.5306,2.27974 -19.9823,7.06283 -25.539,10.41582 -6.3065,3.80545 -15.087,7.79417 -18.2851,13.8324 -2.4632,4.65079 -0.1765,10.80505 0.2393,17.25513 0.1759,1.74376 -8.2468,6.11165 -9.7795,9.45755 -1.9676,4.29533 0.01,8.92532 0.2921,13.61185 0.1709,2.82005 -2.9773,6.56272 -0.3381,7.72274 4.2248,9.04456 8.6745,1.3345 8.9889,12.80631 0.079,3.77621 1.6067,12.36585 -0.2758,13.62736 -3.8655,16.00703 1.4012,24.3143 0.7898,36.64901 -1.4965,30.17659 8.6078,61.83294 8.6569,107.73157 1.5046,7.16691 0.3661,17.82706 2.4222,29.1221 0.7612,4.18178 2.5992,9.76788 2.4076,13.71303 -0.1822,3.75003 -5.9243,6.58809 -5.8158,9.7422 0.1859,5.40288 2.1084,8.40338 1.3441,12.91458 -1.6172,9.5451 -8.0179,11.4076 -5.8664,12.3666 -14.6947,15.6305 -18.9502,17.9834 -24.5468,18.2861 -14.7897,-4.8108 -14.3846,-14.1271 -20.2295,-24.1974 -1.4965,-9.4419 -1.0831,-24.88962 1.8411,-54.10749 0.4267,-4.26355 6.5552,-3.83936 7.0509,-8.56737 0.2608,-2.48772 1.8811,-1.23348 0.9816,-6.82316 -0.528,-3.28088 -3.778,-11.18964 -3.7339,-12.8217 0.8255,-30.50149 -3.3919,-67.62722 -3.9793,-95.35285 -0.7038,-33.21975 -13.8775,-63.57411 -17.4371,-83.92859 -0.1312,-8.44457 6.8484,-10.6336 10.1422,-17.97095 4.0001,-8.91051 2.196,-18.75618 6.9609,-27.34506 2.3826,-4.2946 8.4457,-0.8244 12.5097,-4.90923 4.7362,-4.76058 7.5169,-16.99626 10.31,-20.77631 z"
     id="path3768"
     inkscape:connector-curvature="0"
     sodipodi:nodetypes="cccscssscssscccscccsscssccssssssssccccssccscscccsccsccscsscccccsccccscscccsccsscccscscsssssscscscssssscscscccssscsscccscsssscccssssscssscc" /></g></svg>