<?xml version="1.0" encoding="UTF-8" standalone="no"?>
<svg
   xmlns:dc="http://purl.org/dc/elements/1.1/"
   xmlns:cc="http://creativecommons.org/ns#"
   xmlns:rdf="http://www.w3.org/1999/02/22-rdf-syntax-ns#"
   xmlns:svg="http://www.w3.org/2000/svg"
   xmlns="http://www.w3.org/2000/svg"
   xmlns:sodipodi="http://sodipodi.sourceforge.net/DTD/sodipodi-0.dtd"
   xmlns:inkscape="http://www.inkscape.org/namespaces/inkscape"
   version="1.1"
   id="Layer_1"
   x="0px"
   y="0px"
   width="960"
   height="1024"
   viewBox="0 0 960 1024"
   enable-background="new 0 0 512 512"
   xml:space="preserve"
   inkscape:version="0.48.0 r9654"
   sodipodi:docname="uni2F73-x2f73.svg"><metadata
   id="metadata72"><rdf:RDF><cc:Work
       rdf:about=""><dc:format>image/svg+xml</dc:format><dc:type
         rdf:resource="http://purl.org/dc/dcmitype/StillImage" /><dc:title /></cc:Work></rdf:RDF></metadata><defs
   id="defs70" /><sodipodi:namedview
   pagecolor="#ffffff"
   bordercolor="#666666"
   borderopacity="1"
   objecttolerance="10"
   gridtolerance="10"
   guidetolerance="10"
   inkscape:pageopacity="0"
   inkscape:pageshadow="2"
   inkscape:window-width="1152"
   inkscape:window-height="814"
   id="namedview68"
   showgrid="false"
   inkscape:zoom="0.72091746"
   inkscape:cx="587.06365"
   inkscape:cy="828.23618"
   inkscape:window-x="-8"
   inkscape:window-y="-8"
   inkscape:window-maximized="1"
   inkscape:current-layer="Layer_1" />
	<g
   id="Grid"
   transform="matrix(2.0056986,0,0,1.9980507,0.50284929,0.4990416)">
		<rect
   x="0"
   stroke-miterlimit="10"
   width="512"
   height="512"
   id="rect4"
   y="0"
   style="fill:none;stroke:#a9ccdb;stroke-miterlimit:10" />
		<line
   stroke-miterlimit="10"
   x1="0"
   y1="32"
   x2="512"
   y2="32"
   id="line6"
   style="fill:none;stroke:#a9ccdb;stroke-miterlimit:10" />
		<line
   stroke-miterlimit="10"
   x1="0"
   y1="64"
   x2="512"
   y2="64"
   id="line8"
   style="fill:none;stroke:#a9ccdb;stroke-miterlimit:10" />
		<line
   stroke-miterlimit="10"
   x1="0"
   y1="96"
   x2="512"
   y2="96"
   id="line10"
   style="fill:none;stroke:#a9ccdb;stroke-miterlimit:10" />
		<line
   stroke-miterlimit="10"
   x1="0"
   y1="128"
   x2="512"
   y2="128"
   id="line12"
   style="fill:none;stroke:#a9ccdb;stroke-miterlimit:10" />
		<line
   stroke-miterlimit="10"
   x1="0"
   y1="160"
   x2="512"
   y2="160"
   id="line14"
   style="fill:none;stroke:#a9ccdb;stroke-miterlimit:10" />
		<line
   stroke-miterlimit="10"
   x1="0"
   y1="192"
   x2="512"
   y2="192"
   id="line16"
   style="fill:none;stroke:#a9ccdb;stroke-miterlimit:10" />
		<line
   stroke-miterlimit="10"
   x1="0"
   y1="224"
   x2="512"
   y2="224"
   id="line18"
   style="fill:none;stroke:#a9ccdb;stroke-miterlimit:10" />
		<line
   stroke-miterlimit="10"
   x1="0"
   y1="256"
   x2="512"
   y2="256"
   id="line20"
   style="fill:none;stroke:#a9ccdb;stroke-miterlimit:10" />
		<line
   stroke-miterlimit="10"
   x1="0"
   y1="288"
   x2="512"
   y2="288"
   id="line22"
   style="fill:none;stroke:#a9ccdb;stroke-miterlimit:10" />
		<line
   stroke-miterlimit="10"
   x1="0"
   y1="320"
   x2="512"
   y2="320"
   id="line24"
   style="fill:none;stroke:#a9ccdb;stroke-miterlimit:10" />
		<line
   stroke-miterlimit="10"
   x1="0"
   y1="352"
   x2="512"
   y2="352"
   id="line26"
   style="fill:none;stroke:#a9ccdb;stroke-miterlimit:10" />
		<line
   stroke-miterlimit="10"
   x1="0"
   y1="384"
   x2="512"
   y2="384"
   id="line28"
   style="fill:none;stroke:#a9ccdb;stroke-miterlimit:10" />
		<line
   stroke-miterlimit="10"
   x1="0"
   y1="416"
   x2="512"
   y2="416"
   id="line30"
   style="fill:none;stroke:#a9ccdb;stroke-miterlimit:10" />
		<line
   stroke-miterlimit="10"
   x1="0"
   y1="448"
   x2="512"
   y2="448"
   id="line32"
   style="fill:none;stroke:#ff0000;stroke-miterlimit:10" />
		<line
   stroke-miterlimit="10"
   x1="0"
   y1="480"
   x2="512"
   y2="480"
   id="line34"
   style="fill:none;stroke:#a9ccdb;stroke-miterlimit:10" />
		<line
   stroke-miterlimit="10"
   x1="32"
   y1="0"
   x2="32"
   y2="512"
   id="line36"
   style="fill:none;stroke:#a9ccdb;stroke-miterlimit:10" />
		<line
   stroke-miterlimit="10"
   x1="64"
   y1="0"
   x2="64"
   y2="512"
   id="line38"
   style="fill:none;stroke:#a9ccdb;stroke-miterlimit:10" />
		<line
   stroke-miterlimit="10"
   x1="96"
   y1="0"
   x2="96"
   y2="512"
   id="line40"
   style="fill:none;stroke:#a9ccdb;stroke-miterlimit:10" />
		<line
   stroke-miterlimit="10"
   x1="128"
   y1="0"
   x2="128"
   y2="512"
   id="line42"
   style="fill:none;stroke:#a9ccdb;stroke-miterlimit:10" />
		<line
   stroke-miterlimit="10"
   x1="160"
   y1="0"
   x2="160"
   y2="512"
   id="line44"
   style="fill:none;stroke:#a9ccdb;stroke-miterlimit:10" />
		<line
   stroke-miterlimit="10"
   x1="192"
   y1="0"
   x2="192"
   y2="512"
   id="line46"
   style="fill:none;stroke:#a9ccdb;stroke-miterlimit:10" />
		<line
   stroke-miterlimit="10"
   x1="224"
   y1="0"
   x2="224"
   y2="512"
   id="line48"
   style="fill:none;stroke:#a9ccdb;stroke-miterlimit:10" />
		<line
   stroke-miterlimit="10"
   x1="256"
   y1="0"
   x2="256"
   y2="512"
   id="line50"
   style="fill:none;stroke:#a9ccdb;stroke-miterlimit:10" />
		<line
   stroke-miterlimit="10"
   x1="288"
   y1="0"
   x2="288"
   y2="512"
   id="line52"
   style="fill:none;stroke:#a9ccdb;stroke-miterlimit:10" />
		<line
   stroke-miterlimit="10"
   x1="320"
   y1="0"
   x2="320"
   y2="512"
   id="line54"
   style="fill:none;stroke:#a9ccdb;stroke-miterlimit:10" />
		<line
   stroke-miterlimit="10"
   x1="352"
   y1="0"
   x2="352"
   y2="512"
   id="line56"
   style="fill:none;stroke:#a9ccdb;stroke-miterlimit:10" />
		<line
   stroke-miterlimit="10"
   x1="384"
   y1="0"
   x2="384"
   y2="512"
   id="line58"
   style="fill:none;stroke:#a9ccdb;stroke-miterlimit:10" />
		<line
   stroke-miterlimit="10"
   x1="416"
   y1="0"
   x2="416"
   y2="512"
   id="line60"
   style="fill:none;stroke:#a9ccdb;stroke-miterlimit:10" />
		<line
   stroke-miterlimit="10"
   x1="448"
   y1="0"
   x2="448"
   y2="512"
   id="line62"
   style="fill:none;stroke:#a9ccdb;stroke-miterlimit:10" />
		<line
   stroke-miterlimit="10"
   x1="480"
   y1="0"
   x2="480"
   y2="512"
   id="line64"
   style="fill:none;stroke:#a9ccdb;stroke-miterlimit:10" />
	</g>
	
<path
   style="fill:#030303"
   d="m 835.29573,122.2802 c -13.03363,6.60737 -31.27326,22.29824 -39.41419,33.90642 -15.74794,22.45531 -22.64433,51.64315 -25.55239,108.14548 -3.07233,59.69214 -12.27227,105.42322 -22.68626,112.7682 -2.46139,1.73602 -13.50096,5.95107 -24.5323,9.3668 -26.01893,8.05644 -67.43621,24.6366 -90.25645,36.13147 -68.20498,34.35578 -106.62875,87.54213 -124.26346,172.00635 -6.77505,32.45031 -8.08096,36.48925 -18.19289,56.27157 -13.77393,26.94677 -12.89925,26.85165 -24.85121,2.70247 -5.63841,-11.39231 -11.64568,-27.00713 -13.34992,-34.69963 -18.11106,-81.75737 -31.89382,-111.73127 -68.04915,-147.98907 -19.68733,-19.74302 -37.93317,-33.13566 -60.83022,-44.65002 -19.73894,-9.9262 -58.38505,-25.40841 -85.45899,-34.23618 -15.34794,-5.00436 -27.77824,-10.28439 -30.42955,-12.92559 -10.37249,-10.33294 -17.72428,-48.07506 -21.86717,-112.2601 -3.4201,-52.98661 -6.46429,-69.40274 -17.06182,-92.00712 -9.08736,-19.38325 -22.39896,-33.61527 -42.04744,-44.9548 -19.20846,-11.08561 -33.140615,-10.45377 -46.669595,2.11649 -9.60704,8.92623 -7.76125,18.93007 15.5141,84.08377 26.535145,74.27878 33.395135,108.25167 33.328645,165.0546 -0.0233,19.82254 -1.76678,50.60724 -4.18714,73.92787 -5.69662,54.88823 -7.20188,102.7305 -4.0548,128.87427 1.38899,11.53874 2.70461,22.77778 2.92357,24.97563 0.54665,5.48699 8.00187,24.89821 14.37298,37.42303 12.34403,24.26686 37.15045,50.97644 58.27322,62.74392 26.83645,14.95058 55.17432,21.01682 143.49863,30.71853 31.6774,3.47951 59.00597,2.72316 70.90256,5.10081 l 21.62986,4.32293 0.81449,41.14019 c 0.94625,47.79504 -1.03275,89.83736 -1.59513,93.40887 l -1.02251,6.49367 40.90281,0 40.90302,0 1.30751,-21.29035 c 0.71913,-11.70971 1.42284,-38.4586 1.56364,-59.44201 0.1404,-20.98341 0.81793,-4.84075 1.50428,-25.16075 l 1.24834,-36.94545 18.05129,-3.40358 c 9.92821,-1.87197 46.64845,-4.33538 73.12367,-7.16963 114.77651,-12.28718 143.79055,-20.40276 173.87241,-48.63411 52.92758,-49.67172 63.76176,-101.05159 49.36967,-234.1265 -5.82635,-53.8732 -5.82916,-110.25416 0,-141.8901 5.48639,-29.81089 13.72179,-58.0507 30.59072,-104.89766 22.7747,-63.24804 23.92999,-72.17499 10.64644,-82.26814 -9.75511,-7.41229 -26.37192,-8.60836 -37.96245,-2.73255 z m -83.9443,327.91465 c 10.69779,10.01177 16.14647,50.07968 14.24387,104.74686 -1.87273,53.80597 -8.04025,78.85537 -22.02739,89.46356 -26.64952,20.2119 -81.8642,31.38897 -155.15363,31.40768 l -42.43396,0.01 11.77565,-29.93438 c 6.4766,-16.4639 13.21736,-37.59881 14.97936,-46.96649 5.07602,-26.98606 14.69275,-52.05608 26.75662,-69.75279 7.95019,-11.66222 29.78463,-31.86901 46.39923,-42.94045 18.39848,-12.26014 56.78896,-32.47963 73.12738,-38.5147 12.90366,-4.76637 25.63323,-3.79005 32.33287,2.47988 z m -513.60422,1.85265 c 13.92759,4.77352 51.9165,24.40323 70.89077,36.63082 16.44934,10.60048 38.51503,30.83132 46.953,43.0486 13.55732,19.62983 23.37702,45.02092 28.52705,73.76394 1.51631,8.46258 7.63549,27.61507 13.59824,42.56107 l 10.8414,27.17455 -46.30195,1.1494 c -51.57369,1.28027 -70.56922,-0.17963 -101.4587,-7.79782 -32.15769,-7.93092 -50.87525,-18.48017 -58.21334,-32.80917 -7.02203,-13.71186 -10.27124,-36.47187 -11.42133,-80.0039 -1.08001,-40.88032 0.99444,-72.08373 5.87262,-88.33394 3.03862,-10.12224 13.74255,-19.38505 22.40103,-19.38505 3.64989,0 11.88992,1.80067 18.31121,4.0015 z"
   id="path3816"
   inkscape:connector-curvature="0"
   sodipodi:nodetypes="csssssssscssssssssssssssssscsscccscccsssscsscccssccsssssccssssscsssssss" />
	 
</svg>