<?xml version="1.0" encoding="UTF-8" standalone="no"?>
<svg
   xmlns:dc="http://purl.org/dc/elements/1.1/"
   xmlns:cc="http://creativecommons.org/ns#"
   xmlns:rdf="http://www.w3.org/1999/02/22-rdf-syntax-ns#"
   xmlns:svg="http://www.w3.org/2000/svg"
   xmlns="http://www.w3.org/2000/svg"
   xmlns:sodipodi="http://sodipodi.sourceforge.net/DTD/sodipodi-0.dtd"
   xmlns:inkscape="http://www.inkscape.org/namespaces/inkscape"
   version="1.1"
   id="Layer_1"
   x="0px"
   y="0px"
   width="1024"
   height="1024"
   viewBox="0 0 1024 1024"
   enable-background="new 0 0 512 512"
   xml:space="preserve"
   inkscape:version="0.48.0 r9654"
   sodipodi:docname="uni2F3C-x2f3c.svg"><metadata
   id="metadata72"><rdf:RDF><cc:Work
       rdf:about=""><dc:format>image/svg+xml</dc:format><dc:type
         rdf:resource="http://purl.org/dc/dcmitype/StillImage" /><dc:title></dc:title></cc:Work></rdf:RDF></metadata><defs
   id="defs70" /><sodipodi:namedview
   pagecolor="#ffffff"
   bordercolor="#666666"
   borderopacity="1"
   objecttolerance="10"
   gridtolerance="10"
   guidetolerance="10"
   inkscape:pageopacity="0"
   inkscape:pageshadow="2"
   inkscape:window-width="1109"
   inkscape:window-height="803"
   id="namedview68"
   showgrid="false"
   inkscape:zoom="0.72091746"
   inkscape:cx="363.19058"
   inkscape:cy="419.99373"
   inkscape:window-x="0"
   inkscape:window-y="0"
   inkscape:window-maximized="0"
   inkscape:current-layer="Layer_1" />
	<g
   id="Grid"
   transform="matrix(1.99505,0,0,-1.99505,0.49752501,1023.5025)">
		<rect
   x="0"
   stroke-miterlimit="10"
   width="512"
   height="512"
   id="rect4"
   y="0"
   style="fill:none;stroke:#a9ccdb;stroke-miterlimit:10" />
		<line
   stroke-miterlimit="10"
   x1="0"
   y1="32"
   x2="512"
   y2="32"
   id="line6"
   style="fill:none;stroke:#a9ccdb;stroke-miterlimit:10" />
		<line
   stroke-miterlimit="10"
   x1="0"
   y1="64"
   x2="512"
   y2="64"
   id="line8"
   style="fill:none;stroke:#a9ccdb;stroke-miterlimit:10" />
		<line
   stroke-miterlimit="10"
   x1="0"
   y1="96"
   x2="512"
   y2="96"
   id="line10"
   style="fill:none;stroke:#a9ccdb;stroke-miterlimit:10" />
		<line
   stroke-miterlimit="10"
   x1="0"
   y1="128"
   x2="512"
   y2="128"
   id="line12"
   style="fill:none;stroke:#a9ccdb;stroke-miterlimit:10" />
		<line
   stroke-miterlimit="10"
   x1="0"
   y1="160"
   x2="512"
   y2="160"
   id="line14"
   style="fill:none;stroke:#a9ccdb;stroke-miterlimit:10" />
		<line
   stroke-miterlimit="10"
   x1="0"
   y1="192"
   x2="512"
   y2="192"
   id="line16"
   style="fill:none;stroke:#a9ccdb;stroke-miterlimit:10" />
		<line
   stroke-miterlimit="10"
   x1="0"
   y1="224"
   x2="512"
   y2="224"
   id="line18"
   style="fill:none;stroke:#a9ccdb;stroke-miterlimit:10" />
		<line
   stroke-miterlimit="10"
   x1="0"
   y1="256"
   x2="512"
   y2="256"
   id="line20"
   style="fill:none;stroke:#a9ccdb;stroke-miterlimit:10" />
		<line
   stroke-miterlimit="10"
   x1="0"
   y1="288"
   x2="512"
   y2="288"
   id="line22"
   style="fill:none;stroke:#a9ccdb;stroke-miterlimit:10" />
		<line
   stroke-miterlimit="10"
   x1="0"
   y1="320"
   x2="512"
   y2="320"
   id="line24"
   style="fill:none;stroke:#a9ccdb;stroke-miterlimit:10" />
		<line
   stroke-miterlimit="10"
   x1="0"
   y1="352"
   x2="512"
   y2="352"
   id="line26"
   style="fill:none;stroke:#a9ccdb;stroke-miterlimit:10" />
		<line
   stroke-miterlimit="10"
   x1="0"
   y1="384"
   x2="512"
   y2="384"
   id="line28"
   style="fill:none;stroke:#a9ccdb;stroke-miterlimit:10" />
		<line
   stroke-miterlimit="10"
   x1="0"
   y1="416"
   x2="512"
   y2="416"
   id="line30"
   style="fill:none;stroke:#a9ccdb;stroke-miterlimit:10" />
		<line
   stroke-miterlimit="10"
   x1="0"
   y1="448"
   x2="512"
   y2="448"
   id="line32"
   style="fill:none;stroke:#ff0000;stroke-miterlimit:10" />
		<line
   stroke-miterlimit="10"
   x1="0"
   y1="480"
   x2="512"
   y2="480"
   id="line34"
   style="fill:none;stroke:#a9ccdb;stroke-miterlimit:10" />
		<line
   stroke-miterlimit="10"
   x1="32"
   y1="0"
   x2="32"
   y2="512"
   id="line36"
   style="fill:none;stroke:#a9ccdb;stroke-miterlimit:10" />
		<line
   stroke-miterlimit="10"
   x1="64"
   y1="0"
   x2="64"
   y2="512"
   id="line38"
   style="fill:none;stroke:#a9ccdb;stroke-miterlimit:10" />
		<line
   stroke-miterlimit="10"
   x1="96"
   y1="0"
   x2="96"
   y2="512"
   id="line40"
   style="fill:none;stroke:#a9ccdb;stroke-miterlimit:10" />
		<line
   stroke-miterlimit="10"
   x1="128"
   y1="0"
   x2="128"
   y2="512"
   id="line42"
   style="fill:none;stroke:#a9ccdb;stroke-miterlimit:10" />
		<line
   stroke-miterlimit="10"
   x1="160"
   y1="0"
   x2="160"
   y2="512"
   id="line44"
   style="fill:none;stroke:#a9ccdb;stroke-miterlimit:10" />
		<line
   stroke-miterlimit="10"
   x1="192"
   y1="0"
   x2="192"
   y2="512"
   id="line46"
   style="fill:none;stroke:#a9ccdb;stroke-miterlimit:10" />
		<line
   stroke-miterlimit="10"
   x1="224"
   y1="0"
   x2="224"
   y2="512"
   id="line48"
   style="fill:none;stroke:#a9ccdb;stroke-miterlimit:10" />
		<line
   stroke-miterlimit="10"
   x1="256"
   y1="0"
   x2="256"
   y2="512"
   id="line50"
   style="fill:none;stroke:#a9ccdb;stroke-miterlimit:10" />
		<line
   stroke-miterlimit="10"
   x1="288"
   y1="0"
   x2="288"
   y2="512"
   id="line52"
   style="fill:none;stroke:#a9ccdb;stroke-miterlimit:10" />
		<line
   stroke-miterlimit="10"
   x1="320"
   y1="0"
   x2="320"
   y2="512"
   id="line54"
   style="fill:none;stroke:#a9ccdb;stroke-miterlimit:10" />
		<line
   stroke-miterlimit="10"
   x1="352"
   y1="0"
   x2="352"
   y2="512"
   id="line56"
   style="fill:none;stroke:#a9ccdb;stroke-miterlimit:10" />
		<line
   stroke-miterlimit="10"
   x1="384"
   y1="0"
   x2="384"
   y2="512"
   id="line58"
   style="fill:none;stroke:#a9ccdb;stroke-miterlimit:10" />
		<line
   stroke-miterlimit="10"
   x1="416"
   y1="0"
   x2="416"
   y2="512"
   id="line60"
   style="fill:none;stroke:#a9ccdb;stroke-miterlimit:10" />
		<line
   stroke-miterlimit="10"
   x1="448"
   y1="0"
   x2="448"
   y2="512"
   id="line62"
   style="fill:none;stroke:#a9ccdb;stroke-miterlimit:10" />
		<line
   stroke-miterlimit="10"
   x1="480"
   y1="0"
   x2="480"
   y2="512"
   id="line64"
   style="fill:none;stroke:#a9ccdb;stroke-miterlimit:10" />
	</g>
	
<g
   id="g3799"
   transform="matrix(1.8105271,0,0,1.5044078,1107.2416,80.207159)"><path
     style="fill:#923932"
     d="m -258.51529,583.318 c -0.36667,-0.36666 -0.66667,-2.84166 -0.66667,-5.5 0,-4.16666 0.27586,-4.83333 2,-4.83333 1.30845,0 2,-0.66667 2,-1.92804 0,-1.58707 0.9727,-2.04958 5.5,-2.61523 4.36352,-0.54518 5.5,-1.05724 5.5,-2.47812 0,-1.39077 1.1172,-1.94459 5,-2.47861 4.42414,-0.60847 5,-0.9648 5,-3.09384 0,-1.8999 0.526,-2.40616 2.5,-2.40616 2.42629,0 2.5,-0.20443 2.5,-6.93358 0,-6.82053 0.0448,-6.93873 2.75,-7.25 2.51232,-0.28907 2.77612,-0.72154 3.05223,-5.00371 0.25492,-3.95363 0.64623,-4.73624 2.5,-5 1.55588,-0.22138 2.29019,-1.11588 2.51419,-3.06271 0.24853,-2.15997 0.83857,-2.75 2.75,-2.75 1.92915,0 2.43358,-0.5182 2.43358,-2.5 0,-2.33333 0.33333,-2.5 5,-2.5 l 4.42539,-2.99662 0.57461,-4.50338 c 0.29379,-2.3025 -0.55114,-1.82439 -0.45571,-2.93107 0.205,-2.37719 1.28779,-4.56893 2.95571,-4.56893 2,0 2.5,-0.5 2.5,-2.5 0,-2 0.5,-2.5 2.5,-2.5 l 2.5,0 0,-10.5 0,-10.5 c 0.72104,-1.13009 -1.34724,-2.00831 -0.58244,-3.09594 0.72462,-0.97145 0.56907,-0.53027 0.58244,-3.40406 0,-3.06667 0.30952,-3.5 2.5,-3.5 1.78511,0 2.5,-0.54063 2.5,-1.89059 0,-2.39796 2.61445,-2.71527 18.75,-2.27566 l 12.25,0.33375 0,10.03283 0,10.03282 -2.5,-0.4779 c -2.49655,-0.47725 -2.5,-0.46696 -2.5,7.44628 0,7.64371 -0.0796,7.91311 -2.25,7.61133 -2.19193,-0.30479 -2.25736,-0.0483 -2.53498,9.93714 l -0.28499,10.25 c 1.1873,0.85839 1.45495,4.98122 0.07,5 -4.61467,0 -5,0.18543 -5,2.40616 0,2.12904 -0.57586,2.48537 -5,3.09384 -3.93896,0.54174 -5,1.07808 -5,2.52742 0,1.26361 -0.86118,1.93882 -2.75,2.15616 -1.932,0.2223 -2.84171,0.96017 -3.0583,2.4806 -0.25242,1.77184 -1.20418,2.2874 -5.25,2.84384 -4.36478,0.60031 -4.9417,0.96057 -4.9417,3.08582 0,1.8999 -0.526,2.40616 -2.5,2.40616 -1.83333,0 -2.5,0.53333 -2.5,2 0,1.46667 -0.66667,2 -2.5,2 -1.9818,0 -2.5,0.50443 -2.5,2.43358 0,1.91143 -0.59003,2.50147 -2.75,2.75 -1.94278,0.22354 -2.84143,0.95882 -3.06149,2.50493 -0.19406,1.36341 -1.13659,2.30594 -2.5,2.5 -1.3761,0.19586 -2.30588,1.1372 -2.5047,2.53583 -0.26245,1.84629 -1.15474,2.33557 -5.25,2.87883 -4.34057,0.57579 -4.93381,0.9396 -4.93381,3.02566 0,1.86258 -0.53622,2.37117 -2.5,2.37117 -1.83333,0 -2.5,0.53333 -2.5,2 0,1.64249 -0.67034,2.00197 -3.75,2.01101 -2.0625,0.006 -5.4375,0.28993 -7.5,0.63084 -3.10369,0.51301 -3.75,1.02816 -3.75,2.98899 0,2.12773 -0.4416,2.36916 -4.33333,2.36916 -2.38334,0 -4.63334,-0.3 -5,-0.66667 z m -47.66667,-47.83333 c 0,-2 -0.5,-2.5 -2.5,-2.5 -2.32964,0 -2.5,-0.33699 -2.5,-4.94521 l 0,-4.94521 -4.74506,-0.30479 -4.74505,-0.30479 -0.86312,-4.75 c -0.67027,-3.68863 -1.28585,-4.75 -2.75495,-4.75 -1.60352,0 -1.89182,-0.76197 -1.89182,-5 0,-4.33333 0.26667,-5 2,-5 1.46667,0 2,-0.66667 2,-2.5 0,-1.79231 -0.53959,-2.5 -1.90616,-2.5 -1.52904,0 -2.04222,-0.98922 -2.59384,-5 -0.55162,-4.01078 -1.0648,-5 -2.59384,-5 -1.42637,0 -1.90616,-0.71316 -1.90616,-2.83333 0,-1.55834 -0.31464,-3.14798 -0.6992,-3.53253 -0.38456,-0.38456 -0.57557,-2.70956 -0.42447,-5.16667 0.24249,-3.94324 0.0312,-4.46747 -1.8008,-4.46747 -1.54723,0 -2.07553,-0.63634 -2.07553,-2.5 0,-1.70845 -0.55408,-2.50483 -1.75,-2.51531 -0.67852,-0.22497 -0.75636,-0.64814 -0.25,-0.98469 1.25052,-0.80815 1.16735,-0.99122 -0.5,-1.10069 -0.38021,0.0961 -0.74383,-0.44191 -0.25,-0.58864 2.63032,-0.68738 2.10343,-2.31067 -0.75,-2.31067 -1.93193,0 -2.5,-0.51544 -2.5,-2.26838 -0.89159,-1.29664 -1.22295,-2.0669 -1.27257,-2.70006 -0.0694,-0.88608 0.41295,-1.50366 0.68391,-2.9197 0.18464,-1.06149 0.316,-2.58937 0.40598,-4.61186 0.28376,-6.37832 0.24139,-6.5 -2.26407,-6.5 -2.0192,0 -2.55325,-0.49555 -2.55325,-2.36916 0,-1.96083 -0.64631,-2.47598 -3.75,-2.98899 -2.0625,-0.34091 -5.37862,-0.62479 -7.36916,-0.63084 -3.40148,-0.0104 -3.65558,-0.23546 -4.22475,-3.74283 -0.91923,-5.66459 0.24487,-11.26818 2.34088,-11.26818 2.10021,0 3.25978,-5.54221 2.34997,-11.23182 -0.42845,-2.67936 -1.10425,-3.76818 -2.33882,-3.76818 -1.8271,0 -2.97045,-4.69358 -2.57981,-7.79919 0.29277,-0.87162 0.57797,-1.76739 0.93469,-2.58492 0.36822,-0.84389 0.81264,-1.60443 1.42026,-2.16898 1.07117,-1.1226 1.18748,-1.69427 1.41746,-1.99417 0.25105,-0.32738 0.63753,-0.33094 2.54928,-0.37379 l 4.25,-0.079 0,-10.91821 c 0,-6.00502 0.1377,-12.282 0.47155,-13.15198 0.42603,-1.11023 2.05208,-0.92981 5.13544,-0.92981 l 4.39301,0 0,10 c 0,9.85511 0.0343,10 2.37117,10 2.08653,0 2.44985,0.59314 3.02662,4.94106 0.49592,3.73838 1.14596,5.09675 2.67062,5.58065 1.43575,0.45569 1.84001,1.19146 1.40599,2.55894 -0.34092,1.07416 -0.13915,1.91935 0.45821,1.91935 0.58707,0 1.06739,1.125 1.06739,2.5 0,2.44444 0.16667,2.5 7.5,2.5 7.33333,0 7.5,0.0556 7.5,2.5 0,2 0.5,2.5 2.5,2.5 2,0 2.5,0.5 2.5,2.5 0,2 0.5,2.5 2.5,2.5 2.44444,0 2.5,0.16667 2.5,7.5 0,7.33333 -0.0556,7.5 -2.5,7.5 -2.36364,0 -2.5,0.3 -2.5,5.5 0,5.2 0.13636,5.5 2.5,5.5 1.97641,0 2.5,0.5057 2.5,2.41455 0,2.33099 0.24197,2.41148 6.9924,2.32573 3.84582,-0.0488 7.197,0.11578 7.44706,0.36585 0.25007,0.25006 0.66884,4.41884 0.93061,9.26394 0.26178,4.84511 0.65866,8.99199 0.88197,9.2153 0.22331,0.22331 2.50796,0.69413 5.07699,1.04625 4.54186,0.62253 4.67097,0.56737 4.67097,-1.9957 0,-2.88201 1.57055,-3.27351 10.87432,-2.71072 6.31559,0.38203 13.83359,-0.86414 12.04457,-1.99649 -1.20687,-0.76388 -1.19475,-0.91807 0.0811,-1.03182 0.825,-0.0736 1.8375,-0.0804 2.25,-0.0153 0.4125,0.0651 0.75,-0.33158 0.75,-0.88158 0,-1.25796 1.0687,-1.25251 3,0.0153 1.33333,0.87528 1.33333,1.0941 0,1.96938 -1.11087,0.72924 -0.41552,0.98866 2.68045,1 3.57951,0.0131 4.22638,-0.30813 4.5,-2.23469 0.20974,-1.47682 1.00682,-2.25 2.31955,-2.25 1.62963,0 2.09259,-0.83333 2.5,-4.5 0.40874,-3.67863 0.89946,-4.55686 2.68851,-4.81149 1.36341,-0.19406 2.30594,-1.13659 2.5,-2.5 0.19712,-1.38493 1.13765,-2.30584 2.56149,-2.50806 1.74877,-0.24837 2.25,-0.97237 2.25,-3.25 0,-2.41599 0.41592,-2.93045 2.36916,-2.93045 1.96083,0 2.47598,-0.64631 2.98899,-3.75 0.34091,-2.0625 0.62479,-5.4375 0.63084,-7.5 0.01,-3.27761 0.31019,-3.75 2.38601,-3.75 2.3829,0 2.61372,-0.61463 2.72144,-7.24661 0.0157,-0.96456 1.03815,-2.00005 2.28358,-2.31263 1.8331,-0.46008 2.17551,-1.10907 1.82939,-3.46732 -0.2342,-1.59572 -0.71463,-2.86424 -1.06762,-2.81895 -1.86862,0.23977 -2.72908,-0.33114 -2.87033,-1.90449 -1.51326,-6.42198 -2.20068,-9.91854 -4.94847,-11.50199 -0.81693,-0.47076 -1.81598,-0.77243 -3.07299,-0.93159 -1.91129,-0.21992 -2.84222,-0.96267 -3.05238,-2.43539 -0.22707,-1.59125 -1.34777,-2.34573 -4.5,-3.02952 -3.04923,-0.66144 -4.15962,-1.38123 -4.05873,-2.63103 0.10866,-1.34608 -0.677,-1.72048 -3.61043,-1.72048 -2.06212,0 -5.81342,-0.28292 -8.3362,-0.6287 -3.66705,-0.50263 -4.64759,-1.0541 -4.88957,-2.75 -0.19329,-1.35459 -1.15777,-2.24228 -2.66847,-2.45602 -1.30117,-0.1841 -2.58884,-1.18776 -2.86149,-2.23035 -0.36714,-1.40395 -1.75076,-2.06211 -5.33442,-2.5375 l -4.83871,-0.64188 -0.2998,-4.62777 c -0.25013,-3.86118 -0.63109,-4.62778 -2.29979,-4.62778 -1.28894,0 -2.10961,-0.76943 -2.3083,-2.16418 -0.25242,-1.77184 -1.20418,-2.2874 -5.25,-2.84384 -3.81826,-0.52514 -4.9417,-1.08458 -4.9417,-2.46082 0,-1.17907 -1.0141,-1.98398 -3,-2.38116 -2.07775,-0.41555 -3,-1.18762 -3,-2.51146 0,-1.49478 -0.96726,-2.0565 -4.43725,-2.57686 -3.55689,-0.53339 -4.49929,-1.10151 -4.75,-2.86354 -0.22142,-1.55627 -1.11576,-2.29054 -3.06275,-2.51456 -2.15997,-0.24853 -2.75,-0.83857 -2.75,-2.75 0,-1.92915 -0.5182,-2.43358 -2.5,-2.43358 -2,0 -2.5,-0.5 -2.5,-2.5 0,-2 -0.5,-2.5 -2.5,-2.5 -2,0 -2.5,-0.5 -2.5,-2.5 0,-2.11111 -0.46667,-2.5 -3,-2.5 -3.00893,0 -3.47122,-0.9496 -3.27309,-6.72334 0.0305,-0.88969 -0.47197,-0.94828 -1.84246,-0.21482 -1.46556,0.78434 -1.88445,0.66727 -1.88445,-0.52666 0,-0.84435 0.5625,-1.59904 1.25,-1.67709 0.6875,-0.078 -0.55,-0.41554 -2.75,-0.75 -3.13064,-0.47593 -4,-1.04277 -4,-2.60809 0,-1.43844 -0.77214,-2.08884 -2.75,-2.31642 -2.15997,-0.24853 -2.75,-0.83857 -2.75,-2.75 0,-2.22891 -1.35561,-3.02991 -4.29411,-2.5373 -0.43675,0.0732 -0.66175,-3.13599 -0.5,-7.13158 l 0.29411,-7.2647 7.17491,-0.29229 c 6.81953,-0.27782 7.19101,-0.17876 7.5,2 0.2321,1.6366 1.0897,2.38068 2.99817,2.60129 2.23182,0.25799 2.60001,0.71195 2.23044,2.75 -0.42552,2.34663 -0.22925,2.441 5.07692,2.441 5.22086,0 5.51956,0.13529 5.51956,2.5 0,2.44444 0.16667,2.5 7.5,2.5 7.33333,0 7.5,0.0556 7.5,2.5 0,2.11111 0.46667,2.5 3,2.5 2.53333,0 3,0.38889 3,2.5 0,2.33333 0.33333,2.5 5,2.5 4.66667,0 5,0.16667 5,2.5 0,2.44444 0.16667,2.5 7.5,2.5 7.33333,0 7.5,0.0556 7.5,2.5 0,2.11111 0.46667,2.5 3,2.5 2.53333,0 3,0.38889 3,2.5 0,2 0.5,2.5 2.5,2.5 2,0 2.5,0.5 2.5,2.5 0,1.80471 0.53776,2.5 1.93358,2.5 1.3455,0 2.02981,0.80611 2.25,2.6505 0.27852,2.33304 0.79552,2.67404 4.31642,2.84707 2.2,0.10811 5.6875,-0.0171 7.75,-0.27831 3.11014,-0.39385 3.75,-0.86778 3.75,-2.77752 0,-1.62657 -0.66061,-2.39646 -2.25,-2.62219 -3.04301,-0.43218 -3.09303,-4.19956 -0.0615,-4.63104 1.36341,-0.19406 2.30594,-1.13659 2.5,-2.5 0.21934,-1.54105 0.97715,-2.16502 2.56149,-2.10911 2.22054,0.0784 2.25,-0.0886 2.25,-12.75 l 1e-5,-12.8294 -2.5,0 c -2,0 -2.5,-0.5 -2.5,-2.5 0,-2 -0.5,-2.5 -2.5,-2.5 -2,0 -2.5,-0.5 -2.5,-2.5 0,-2 -0.5,-2.5 -2.5,-2.5 -2.11111,0 -2.5,-0.46667 -2.5,-3 0,-2.51323 -0.3957,-3 -2.43873,-3 -2.11917,0 -2.52605,-0.58235 -3.10518,-4.44423 -0.52846,-3.52406 -1.11054,-4.50754 -2.81127,-4.75 -1.5,-0.21384 -2.23995,-1.13253 -2.46124,-3.05577 -0.22354,-1.94275 -0.88402,-2.75 -2.25,-2.75 -1.57878,0 -1.93358,-0.71104 -1.93358,-3.875 0,-6.81916 -1.03291,-9.98795 -3.36408,-10.3204 -1.4906,-0.21257 -2.23152,-1.13544 -2.45234,-3.0546 -0.24853,-2.15997 -0.83857,-2.75 -2.75,-2.75 -2.25363,0 -2.43358,-0.36973 -2.43358,-5 0,-4.66667 -0.16667,-5 -2.5,-5 -2.33333,0 -2.5,-0.33333 -2.5,-5 0,-4.66667 -0.16667,-5 -2.5,-5 -2.33333,0 -2.5,-0.33333 -2.5,-5 0,-4.66667 -0.16667,-5 -2.5,-5 -2,0 -2.5,-0.5 -2.5,-2.5 0,-1.974 -0.50626,-2.5 -2.40616,-2.5 -2.12904,0 -2.48537,-0.57586 -3.09384,-5 -0.60847,-4.42414 -0.9648,-5 -3.09384,-5 -1.8999,0 -2.40616,-0.526 -2.40616,-2.5 0,-2 -0.5,-2.5 -2.5,-2.5 -2,0 -2.5,-0.5 -2.5,-2.5 0,-2 -0.5,-2.5 -2.5,-2.5 -2,0 -2.5,-0.5 -2.5,-2.5 0,-2 -0.5,-2.5 -2.5,-2.5 -2,0 -2.5,-0.5 -2.5,-2.5 0,-2 -0.5,-2.5 -2.5,-2.5 -1.9818,0 -2.5,-0.50443 -2.5,-2.43358 0,-1.91143 -0.59003,-2.50147 -2.75,-2.75 -1.91916,-0.22082 -2.84203,-0.96174 -3.0546,-2.45234 -0.30722,-2.15429 -3.4792,-3.36408 -8.8204,-3.36408 -1.30625,0 -2.375,-0.45 -2.375,-1 -0.99838,0.91052 -3.53261,-0.16324 -4.67273,-0.5069 -2.56432,-0.77296 -4.12292,-2.48343 -8.22028,-2.4931 l -6.10699,0 0,4.5 c 0,4.13333 -0.2037,4.5 -2.5,4.5 -1.97285,0 -2.5,0.50652 -2.5,2.40217 0,1.77002 -0.78948,2.6774 -3,3.44799 -1.65,0.57519 -3,1.76392 -3,2.64163 0,1.34138 -1.15599,1.54898 -7.25,1.30202 -6.58935,-0.26704 -7.27838,-0.49323 -7.56149,-2.48232 -0.19406,-1.36341 -1.13659,-2.30594 -2.5,-2.5 -1.96931,-0.28029 -2.21813,-0.98756 -2.4842,-7.06149 -0.28121,-6.41951 -0.41586,-6.75 -2.75,-6.75 -2.07087,0 -2.45431,-0.47792 -2.45431,-3.05902 0,-1.68246 -0.40939,-2.806 -0.90976,-2.49675 -0.50036,0.30924 -1.62536,0.28765 -2.5,-0.048 -1.37991,-0.5295 -1.59024,-3.24131 -1.59024,-20.50322 l 0,-19.89301 -2.5,0 c -2.47535,0 -2.50011,-0.0863 -2.51101,-8.75 -0.0164,-13.05338 -0.72849,-16.250001 -3.61983,-16.250001 -2.2773,0 -2.36916,-0.28495 -2.36916,-7.34912 0,-4.04202 0.29103,-10.792015 0.64674,-14.999997 0.55364,-6.549639 0.91348,-7.650878 2.5,-7.650878 1.64991,0 1.85326,-0.877806 1.85326,-8 0,-7.333333 -0.16667,-8 -2,-8 -1.82222,0 -2,-0.666667 -2,-7.5 0,-6.833333 0.17778,-7.5 2,-7.5 1.46667,0 2,-0.666667 2,-2.5 -2.33005,-6.052568 -4.55858,-7.413459 3.11663,-7.5 2.40893,0 2.88337,0.411361 2.88337,2.5 0,2 0.5,2.5 2.5,2.5 2,0 2.5,0.5 2.5,2.5 0,2.454871 0.14205,2.5 7.86923,2.5 6.22021,-1.958362 3.05419,5.519281 5.16489,3.265017 3.63954,-3.887071 5.38867,-0.532006 6.37855,3.242859 0.55069,2.100032 0.8664,-2.442814 1.14188,8.191231 0.28068,10.834509 0.70776,19.896536 0.94906,20.137838 0.2413,0.241303 4.72671,0.663021 9.96756,0.937151 9.21037,0.481762 9.52883,0.577418 9.52883,2.862162 0,2.169824 0.41019,2.363742 5,2.363742 4.33333,0 5,0.266667 5,2 0,1.466667 -0.66667,2 -2.5,2 -2,0 -2.5,0.5 -2.5,2.5 0,2.111115 0.46667,2.499995 3,2.499995 2.33333,0 3,-0.44444 3,-1.999995 0,-1.333333 0.66667,-2 2,-2 1.28667,0 2,0.666667 2,1.869158 0,1.383057 0.97524,2.030357 3.75,2.488997 -0.0836,-6.336336 1.84328,2.516321 6.39355,0.312993 4.47021,-2.164565 0.69088,0.391887 3.87937,2.220023 1.68584,-0.21965 -0.99373,0.159366 -0.1032,0.134851 4.38198,-0.12063 4.13371,1.372162 1.9854,2.914978 -1.79743,1.290829 0.10114,1.766788 0.0949,2.558995 0,2 0.5,2.5 2.5,2.5 2.33333,0 2.5,0.33334 2.5,5.000001 l 0,5 4.90377,0 4.90377,0 0.70732,10.37733 c 0.39651,7.02342 1.47916,8.60133 2.59905,10.02595 0.87581,1.11413 1.77439,2.13451 2.38537,5.59247 0.62189,3.6809 0.93186,4.00549 3.83862,4.01956 4.03443,0.0195 6.12239,1.3428 5.3392,3.38377 -0.34903,0.90955 -0.0881,1.65073 0.60428,1.71627 0.67024,0.0634 1.66862,0.2199 2.21862,0.34769 0.55,0.12778 1.53784,0.30087 2.19521,0.38465 0.68763,0.0876 1.32464,2.16952 1.5,4.90231 0.2601,4.05349 0.63471,4.79686 2.55479,5.06955 3.29515,0.46799 3.07314,4.18045 -0.25,4.18045 l -2.5,0 0,10.5 c 0,5.775 0.3375,10.44671 0.75,10.38158 3.88701,-0.61374 4.25,0.0369 4.25,7.61842 0,7.33333 0.0556,7.5 2.5,7.5 2.33333,0 2.5,0.33333 2.5,5 0,4.66667 0.16667,5 2.5,5 2,0 2.5,0.5 2.5,2.5 0,2 0.5,2.5 2.5,2.5 2.22027,0 2.50123,0.4196 2.51101,3.75 0.0214,7.30798 1.11464,11.25 3.11983,11.25 1.3271,0 1.86916,0.725 1.86916,2.5 0,2 0.5,2.5 2.5,2.5 2.22027,0 2.50123,0.4196 2.51101,3.75 0.006,2.0625 0.2829,5.39418 0.61522,7.40373 0.56583,3.42167 0.88271,3.6955 4.98899,4.31128 2.41163,0.36164 4.44103,1.07996 4.50978,1.59626 0.0688,0.5163 0.18125,1.50123 0.25,2.18873 0.0688,0.6875 1.3625,1.39239 2.875,1.56642 2.58929,0.29793 2.75,0.60731 2.75,5.29384 0,3.40183 0.39568,4.92603 1.25,4.81509 3.27076,-0.42472 3.75,0.19661 3.75,4.86185 0,4.15567 0.27875,4.80819 2.11303,4.94636 1.16217,0.0875 2.23809,0.29581 2.39093,0.46281 0.52662,0.57538 1.39452,9.31532 1.44522,14.55363 0.0442,4.56639 0.31124,5.25 2.05082,5.25 1.73333,0 5.81459,2.40057 5.81459,6.7339 0,4.66667 -0.16667,5 -2.5,5 -2,0 1.66136,2.2339 1.66136,4.2339 0,2 0.5,2.5 2.5,2.5 2.22027,0 -2.00691,1.45994 -1.99713,4.79034 0.0214,7.30798 -2.35317,6.74186 -0.34798,6.74186 1.3271,0 1.86916,0.725 1.86916,2.5 0,2.11111 0.46667,2.5 3,2.5 2.53333,0 3,0.38889 3,2.5 0,2.33333 0.33333,2.5 5,2.5 l 5,0 0,5.5 c 0,4.77759 0.25494,5.5 1.94098,5.5 2.3594,0 2.93886,0.84001 3.23184,4.685 -0.32936,4.56164 4.76214,1.0473 4.82718,3.64873 1.45485,2.2924 2.1474,4.07869 2.34433,5.515 0.39214,2.86013 -1.18103,4.33252 -2.61395,5.65009 -1.4128,1.20968 -1.74305,1.99696 -0.94877,2.26172 2.02723,0.95637 1.45553,4.59038 0.18636,6.13872 -1.10391,1.34673 -2.80541,0.69467 -2.90066,0.64234 -0.7469,-0.46161 -1.06731,7.914 -1.06731,27.89938 l 0,28.55902 -2.45794,0 c -2.37402,0 -2.4679,0.26458 -2.75,7.75 -0.26327,6.98598 -0.48923,7.75 -2.29206,7.75 -1.62963,0 -2.09259,0.83333 -2.5,4.5 -0.41077,3.69696 -0.8952,4.5562 -2.71457,4.81491 -2.08871,0.29701 -2.23079,0.86533 -2.5,10 l -0.28543,9.68509 -4.63502,0.3001 c -4.28552,0.27746 -4.68139,0.53195 -5.25,3.375 -0.33824,1.69119 -0.62187,4.70615 -0.63029,6.6999 -0.012,2.83623 -0.24661,3.29861 -1.07829,2.125 -0.83845,-1.18316 -0.97572,-0.94841 -0.64986,1.11136 0.2326,1.47031 -0.0609,2.6031 -0.67171,2.59247 -0.59666,-0.0104 -2.70993,0.052 -4.69616,0.13864 -3.28362,0.14323 -3.56796,0.38439 -3.13342,2.65753 0.47386,2.47887 0.41563,2.50059 -6.88867,2.57029 -5.09956,0.0487 -6.75109,0.33846 -5.36658,0.94172 1.95767,0.853 1.95384,0.88534 -0.18083,1.52826 -5.55465,4.55054 -0.33846,5.6188 -4.46157,5.45973 -0.53663,0 -0.69757,0.45 -0.35765,1 0.33992,0.55 -0.075,1 -0.92193,1 -0.84698,0 -1.81192,1.08356 -2.14431,2.40791 -0.56779,2.26226 -1.05042,2.4125 -7.97848,2.48372 -5.99363,0.0616 -7.56323,-0.24876 -8.38429,-1.65791 -0.18847,-1.70358 -0.23248,0.11256 -1.31302,0.75892 -0.75468,0.45143 -2.65265,0.62739 -2.75797,-2.61508 0,-0.9864 -1.41975,-1.37756 -5,-1.37756 -4.66667,0 -5,0.16667 -5,2.5 0,1.96318 -0.50872,2.5 -2.36916,2.5 -1.96083,0 -2.47598,0.64631 -2.98899,3.75 -0.34091,2.0625 -0.62479,6.5625 -0.63084,10 -0.01,5.50797 -0.24057,6.25 -1.94459,6.25 -1.36598,0 -2.02646,0.80725 -2.25,2.75 -0.29513,2.56493 -0.66973,2.77034 -5.56642,3.05226 -4.43292,0.25522 -5.25,0.60539 -5.25,2.25 0,1.41092 -0.68903,1.94774 -2.5,1.94774 -2,0 -2.5,-0.5 -2.5,-2.5 z m -133.88047,-13.25333 c 0.53384,-3.39782 -0.28848,-4.14793 -4.86953,-4.44188 -4.05349,-0.2601 -4.79686,-0.63471 -5.06955,-2.55479 -0.28204,-1.98589 -0.89829,-2.25 -5.25,-2.25 -4.52992,0 -4.93045,-0.19386 -4.93045,-2.38646 0,-2.05328 -0.61355,-2.47846 -4.3947,-3.04548 -2.41708,-0.36246 -5.5475,-0.36969 -6.95648,-0.0161 -2.16785,0.5441 -2.66203,0.24355 -3.21371,-1.95451 -0.59076,-2.35375 -1.11085,-2.59745 -5.54352,-2.59745 -4.55103,0 -4.89159,-0.17405 -4.89159,-2.5 0,-2.36364 -0.3,-2.5 -5.5,-2.5 -5.2,0 -5.5,-0.13636 -5.5,-2.5 0,-2 -0.5,-2.5 -2.5,-2.5 -1.98811,0 -2.5,-0.50292 -2.5,-2.45619 0,-2.35538 -0.29756,-2.46825 -7.25,-2.75 -6.53864,-0.26498 -7.27996,-0.50395 -7.55536,-2.4355 -0.25478,-1.78697 -1.20715,-2.25437 -5.75,-2.82196 -4.32084,-0.53985 -5.44464,-1.05121 -5.44464,-2.47746 0,-1.92657 -4.06099,-3.02679 -11.25,-3.04788 -3.17829,-0.009 -3.77076,-0.35404 -3.88618,-2.26101 l -0.13618,-2.25 -0.43337,2.25 c -0.26242,1.36244 -1.1602,2.25 -2.27592,2.25 -1.3675,0 -2.01519,-1.02183 -2.51215,-3.9633 -0.81383,-4.81702 -0.17059,-6.0367 3.18366,-6.0367 2.41541,0 2.53413,-0.22807 1.95199,-3.75 -0.34091,-2.0625 -0.62479,-5.1812 -0.63084,-6.93045 -0.009,-2.53279 -0.46919,-3.24552 -2.26101,-3.5 -1.42384,-0.20222 -2.36437,-1.12313 -2.56149,-2.50806 -0.19406,-1.36341 -1.13659,-2.30594 -2.5,-2.5 -1.35456,-0.19279 -2.30599,-1.13617 -2.49682,-2.47567 -0.25241,-1.77184 -1.20417,-2.2874 -5.25,-2.84384 l -4.94169,-0.67966 0,-9.90616 c 0,-9.8999 -0.002,-9.90616 -2.5,-9.90616 -2,0 -2.5,-0.5 -2.5,-2.5 0,-2 -0.5,-2.5 -2.5,-2.5 -2.33333,0 -2.5,-0.33333 -2.5,-5 -0.31203,-6.04504 -2.53086,-3.41884 -2.82567,-6.77007 -0.19418,-2.20725 -0.0175,-7.15265 1.66452,-10.18509 1.25277,-2.25859 3.51114,-3.04544 6.16115,-3.04484 l 0,-12.5 0,-12.5 -2.5,0 c -2.5,0 -2.5,0 -2.5,-10 0,-10 0,-10 2.5,-10 2.45833,0 2.5,-0.13333 2.5,-8 0,-7.86667 0.0417,-8 2.5,-8 l 2.5,0 0,-17.5 c 0.80681,-4.64149 0.16668,-10.43614 -0.32901,-15.77667 -0.31783,-3.42435 -0.57629,-6.66199 -0.35584,-9.28921 0.21551,-2.46313 0.68485,-5.37926 0.68485,-10.85233 0,-15.12912 0.35293,-16.99846 2.94716,-15.61007 1.60972,0.8615 1.79863,-0.13626 2.40004,-12.67642 0.35904,-7.48634 0.6528,-17.14037 0.6528,-21.45341 0,-7.17522 0.17003,-7.84189 2,-7.84189 1.88121,0 2.00027,-0.66818 2.00455,-11.25 0.003,-6.1875 0.29497,-16.29004 0.64993,-22.4501 0.59777,-10.37372 0.80034,-11.22222 2.74545,-11.5 1.45277,-0.20746 2.1976,-1.14753 2.41649,-3.0499 0.22354,-1.94275 0.88402,-2.75 2.25,-2.75 1.26691,0 1.93358,-0.68957 1.93358,-2 0,-1.33333 -0.66667,-2 -2,-2 -1.46667,0 -2,-0.66667 -2,-2.5 0,-1.7804 0.5413,-2.5 1.88055,-2.5 1.67589,0 1.95843,-1.1427 2.59623,-10.5 0.69678,-10.22275 0.77915,-10.5 3.11945,-10.5 2.21786,0 2.40377,-0.38671 2.40377,-5 0,-4.66667 0.16667,-5 2.5,-5 2.44444,0 2.5,-0.16667 2.5,-7.5 0,-7.33333 0.0556,-7.5 2.5,-7.5 2.33333,0 2.5,-0.33333 2.5,-5 0,-4.66666 0.16667,-5 2.5,-5 2.36364,0 2.5,-0.3 2.5,-5.500001 0,-5.2 -0.13636,-5.5 -2.5,-5.5 -2.44444,0 -2.5,-0.16666 -2.5,-7.499995 0,-7.333333 -0.0556,-7.5 -2.5,-7.5 -2,0 -2.5,-0.5 -2.5,-2.5 0,-2 -0.5,-2.5 -2.5,-2.5 -1.98648,0 -2.5,-0.503313 -2.5,-2.45031 0,-1.34767 0.7875,-2.908986 1.75,-3.469591 1.07989,-0.628978 1.24875,-1.030926 0.44098,-1.04969 -0.71996,-0.01673 -1.04305,-0.460756 -0.71797,-0.986735 0.32507,-0.525979 1.25163,-0.702834 2.05901,-0.393011 1.0896,0.418118 1.46798,-0.209949 1.46798,-2.436685 0,-2.941228 2.14551,-4.860116 4.09024,-3.658205 0.50037,0.309243 0.90976,-0.764297 0.90976,-2.385645 0,-1.716417 0.52219,-2.928512 1.25,-2.901483 3.48059,0.129264 4.40389,-0.407871 4.3294,-2.518645 -0.0566,-1.602515 0.56809,-2.341958 2.1706,-2.569551 1.62851,-0.231285 2.25,-0.990883 2.25,-2.75 0,-2.371395 0.19438,-2.430449 8,-2.430449 7.86667,0 8,-0.04167 8,-2.5 0,-2 0.5,-2.5 2.5,-2.5 2,0 2.5,-0.5 2.5,-2.5 0,-2 0.5,-2.5 2.5,-2.5 2,0 2.5,-0.5 2.5,-2.5 0,-2.458333 0.13333,-2.5 8,-2.5 7.86667,0 8,-0.04167 8,-2.5 0,-2.444444 0.16667,-2.5 7.5,-2.5 4.125,0 7.5,0.413196 7.5,0.918213 -3.28321,6.537309 -4.96147,-0.18143 -5,11.140804 l 0,7.940983 -2.96862,0 c -2.23468,0 -2.82557,0.372755 -2.39004,1.50772 0.31821,0.829247 -0.13426,2.595631 -1.00549,3.925298 -1.18898,1.814607 -1.27876,2.541225 -0.35996,2.913333 0.67326,0.272665 0.21161,0.531281 -1.02589,0.574702 -2.05104,0.07197 -2.25,0.565302 -2.25,5.578947 0,4.815701 0.24647,5.5 1.98095,5.5 1.27902,0 2.20328,0.885846 2.60841,2.5 0.45048,1.794874 1.30201,2.5 3.01905,2.5 1.31537,0 2.39159,0.387598 2.39159,0.861328 0,0.473731 1.125,0.646271 2.5,0.383423 2.02976,-0.388013 2.5,-0.07979 2.5,1.638672 0,1.600736 0.61996,2.116577 2.54381,2.116577 2.51818,0 2.54085,0.07304 2.25,7.25 l -0.29381,7.249995 -9.69949,0.89533 c -8.75985,0.80858 -9.72861,1.09921 -10,3 -0.18586,1.30173 -1.1589,2.22658 -2.55051,2.42423 -1.98589,0.28204 -2.25,0.89829 -2.25,5.25 0,4.263781 0.27043,4.930441 2,4.930441 1.46667,0 2,0.66667 2,2.5 0,1.97401 0.50626,2.5 2.40616,2.5 2.12904,0 2.48537,0.57587 3.09384,5 0.60847,4.42414 0.9648,5 3.09384,5 1.8999,0 2.40616,0.526 2.40616,2.5 0,2.33333 0.33333,2.5 5,2.5 4.91033,0 5,0.0549 5,3.05902 0,1.68246 0.40939,2.806 0.90976,2.49675 1.73284,-1.07095 4.26545,0.66624 3.76443,2.58214 -0.43434,1.66091 0.15119,1.86209 5.41943,1.86209 4.58345,0 5.90638,0.33598 5.90638,1.5 0,0.825 0.5625,1.50689 1.25,1.51531 0.83333,0.0102 0.75,0.33844 -0.25,0.98469 -1.22503,0.79168 -1.10716,0.97218 0.64301,0.98469 2.72139,0.0194 3.35699,1.74185 3.35699,9.0971 0,5.64609 0.11495,5.91821 2.5,5.91821 2.11111,0 2.5,0.46667 2.5,3 0,2.53333 -0.38889,3 -2.5,3 -1.83333,0 -2.5,0.53333 -2.5,2 0,2.24439 3.49115,2.84802 4.33772,0.75 0.27741,-0.6875 0.53991,2.9125 0.58333,8 0.0787,9.22105 0.0711,9.25 -2.42105,9.25 -2.2963,0 -2.5,0.36667 -2.5,4.5 0,4.13333 0.2037,4.5 2.5,4.5 l 2.5,0 0,10.5 0,10.5 -5,0 c -4.66667,0 -5,-0.16667 -5,-2.5 0,-2.36364 -0.3,-2.5 -5.5,-2.5 -5.2,0 -5.5,-0.13636 -5.5,-2.5 0,-1.95594 -0.51033,-2.5 -2.34501,-2.5 -2.92223,0 -6.44708,-3.47849 -4.46612,-4.40738 0.72112,-0.33814 0.29863,-0.42694 -0.93887,-0.19733 -1.97469,0.36639 -2.25,6.6e-4 -2.25,-2.98891 0,-2.96681 -0.32261,-3.40638 -2.5,-3.40638 -2.29075,0 -2.5,-0.37109 -2.5,-4.43358 0,-4.09325 -0.21109,-4.45786 -2.75,-4.75 -1.96901,-0.22656 -2.84075,-0.95541 -3.06955,-2.56642 -0.19892,-1.40062 -1.01288,-2.25 -2.15616,-2.25 -1.44269,0 -1.98239,-1.05991 -2.51627,-4.9417 -0.55644,-4.04582 -1.072,-4.99758 -2.84384,-5.25 -1.33074,-0.18957 -2.28291,-1.14174 -2.47248,-2.47248 -0.25242,-1.77184 -1.20418,-2.2874 -5.25,-2.84384 l -4.9417,-0.67966 0,-4.90616 c 0,-4.56657 -0.17304,-4.90616 -2.5,-4.90616 -1.83333,0 -2.5,-0.53333 -2.5,-2 0,-1.72957 -0.66667,-2 -4.93045,-2 -4.35171,0 -4.96796,0.26411 -5.25,2.25 -0.20536,1.44596 -1.12359,2.36419 -2.56955,2.56955 -2.09838,0.29802 -2.25,0.81087 -2.25,7.61043 0,4.00998 -0.28617,9.37868 -0.63592,11.93045 -0.55262,4.03174 -0.94564,4.63957 -3,4.63957 l -2.36408,0 0,13 c 0,12.07262 -0.13458,13 -1.8865,13 -1.34086,0 -2.01673,0.8873 -2.33675,3.06776 -0.76848,5.23595 0.44517,48.93224 1.35908,48.93224 0.47529,0 0.86417,0.675 0.86417,1.5 0,0.825 -0.39189,1.5 -0.87088,1.5 -0.47897,0 -1.1849,3.6 -1.56872,8 -0.66426,7.61501 -0.81485,8 -3.12912,8 -2.25087,0 -2.43128,0.37102 -2.43128,5 0,4.66667 -0.16667,5 -2.5,5 -2.33333,0 -2.5,0.33333 -2.5,5 0.21633,2.4839 -1.73518,3.49105 -0.50333,5.31147 1.34987,1.99483 5.67618,4.68853 0.50333,4.68853 l 0,12.5 0,12.5 10.5,0 10.5,0 0,-2.5 c 0,-1.98092 0.50464,-2.5 2.43045,-2.5 1.75912,0 2.51871,-0.62149 2.75,-2.25 0.30437,-2.14314 0.80328,-2.2635 10.50449,-2.53426 9.65292,-0.26942 10.2014,-0.40001 10.5,-2.5 0.28759,-2.02255 0.94719,-2.24136 7.56506,-2.50955 6.95244,-0.28175 7.25,-0.39462 7.25,-2.75 0,-2.28076 0.35712,-2.45619 5,-2.45619 l 5,0 0,5 c 0,4.66667 -0.16667,5 -2.5,5 -2,0 -2.5,0.5 -2.5,2.5 0,2 -0.5,2.5 -2.5,2.5 -2,0 -2.5,0.5 -2.5,2.5 0,1.974 -0.50626,2.5 -2.40616,2.5 -2.12904,0 -2.48537,0.57586 -3.09384,5 -0.55162,4.01078 -1.0648,5 -2.59384,5 -1.53405,0 -1.90831,0.73205 -1.91717,3.75 -0.0209,7.11493 -1.12526,11.25 -3.00461,11.25 -1.37602,0 -1.902,1.18507 -2.44111,5.5 -0.6207,4.96786 -0.9221,5.5 -3.11523,5.5 -1.76137,0 -2.42804,0.54914 -2.42804,2 0,1.80606 -0.66667,2 -6.875,2 -9.53747,0 -13.125,0.83602 -13.125,3.05858 0,1.2221 -0.87893,1.91118 -2.71045,2.125 -1.93088,0.22541 -2.88475,1.03546 -3.31645,2.81642 -0.39672,1.63664 -1.19276,2.39729 -2.30507,2.2026 -1.19622,-0.20938 -1.87945,0.6045 -2.30855,2.75 -0.47401,2.37004 -1.13738,3.0474 -2.98448,3.0474 -1.86667,0 -2.375,0.53509 -2.375,2.5 0,2 -0.5,2.5 -2.5,2.5 -2.44444,0 -2.5,0.16667 -2.5,7.5 0,7.33333 -0.0556,7.5 -2.5,7.5 -2.33333,0 -2.5,0.33333 -2.5,5 0,4.66667 0.16667,5 2.5,5 2,0 2.5,0.5 2.5,2.5 0,2 0.5,2.5 2.5,2.5 2.33333,0 2.5,0.33333 2.5,5 0,4.9507 0.0321,5.00114 3.25,5.11535 5.85521,0.20781 6.24669,0.36139 6.56163,2.57417 0.21814,1.53268 1.11812,2.28267 3,2.5 2.14509,0.24774 2.62515,0.76517 2.37551,2.56048 -0.26581,1.91169 0.14767,2.25 2.75,2.25 2.60038,0 3.06286,0.37749 3.06286,2.5 0,2 0.5,2.5 2.5,2.5 1.96318,0 2.5,0.50872 2.5,2.36916 0,2.86399 3.20615,3.60307 15.703,3.61983 l 8.20299,0.011 1.04143,3.75 c 0.57278,2.0625 1.04394,4.36875 1.047,5.125 0.004,1.00615 0.84388,1.20734 3.13058,0.75 1.71875,-0.34375 3.94904,-0.625 4.95619,-0.625 1.57952,0 1.87157,-0.99641 2.125,-7.25 0.26282,-6.4854 0.50474,-7.25 2.29381,-7.25 1.70765,0 2.04418,-0.76742 2.30226,-5.25 0.29022,-5.04095 0.20063,-5.25 -2.25,-5.25 -2.39605,10e-6 -2.55226,-0.30602 -2.55226,-4.99999 0,-4.88889 -0.0667,-5 -3,-5 -2.53333,0 -3,-0.38889 -3,-2.5 0,-1.83333 -0.53333,-2.5 -2,-2.5 -1.46667,0 -2,-0.66667 -2,-2.5 0,-1.83333 0.53333,-2.5 2,-2.5 1.73333,0 2,-0.66667 2,-5 0,-4.33333 -0.26667,-5 -2,-5 -1.75758,0 -2,-0.66667 -2,-5.5 0,-4.705 0.27018,-5.5 1.86916,-5.5 1.95852,0 3.09671,-3.92187 3.11983,-10.75 0.0109,-3.21834 0.0583,-3.25 4.86013,-3.25 2.66702,0 8.29202,-0.29103 12.5,-0.64674 l 7.65088,-0.64673 0,3.14673 c 0,2.63753 0.38081,3.14674 2.35326,3.14674 2.20961,0 2.39275,0.46704 3,7.65088 0.35571,4.20798 0.64674,12.08298 0.64674,17.5 0,9.18245 0.13538,9.84912 2,9.84912 1.84052,0 2,0.66667 2,8.36043 0,4.59823 0.28617,10.44823 0.63592,13 0.55262,4.03174 0.94564,4.63957 3,4.63957 1.65862,0 2.36408,0.56881 2.36408,1.90616 0,1.52904 0.98922,2.04222 5,2.59384 l 5,0.68768 0,19.90616 c 0.25568,7.46487 0.25977,14.40256 0.19626,21.35628 -0.0543,5.94842 -0.15815,11.90857 -0.19626,18.22048 0,12.95947 -0.2319,15.3294 -1.5,15.3294 -0.825,0 -1.5,0.86968 -1.5,1.93261 -0.67085,3.15448 -7.3602,3.98384 -12.36948,3.69421 -2.88027,-0.16653 -5.20508,-0.703 -5.51099,-1.38015 z"
     id="path3803"
     inkscape:connector-curvature="0"
     sodipodi:nodetypes="csssssssssssssssscssssscccccssscccssssccssssssssssssssssssscssscccscccssssssssssssscccccscscssscssssscscscscscsssssssssssssssssccsssssscsssssssssssssscscssscscssssssssscsssssssssssssssscsscsssscscssssssssssssssssssssscsssscscssssssssssssssssssssssssssssssssssssscsccsssssssssssscscssssssssssccssscsscssssssssssscscsscssccccscsscccssscsssssssssssscssccssssccsssssssssssscssccsccscscsssssscssssscssssccsssscscsssscsssssccccsssscssssssssssscscssssscssssscsssscsscccsssssccsccsssscssssssssssssssssssssssssscssssscssssssssssscccsssssssssssssscsssssssssssssssssscsssssssssscccssssssssssssssssscssssssssscsssssssssscscccccsssssssscsssssssssssssssssssssssssssssssssssssscscssssssssssssssssssscssssssssssccscscscc" /></g></svg>