<?xml version="1.0" encoding="UTF-8" standalone="no"?>
<svg
   xmlns:dc="http://purl.org/dc/elements/1.1/"
   xmlns:cc="http://creativecommons.org/ns#"
   xmlns:rdf="http://www.w3.org/1999/02/22-rdf-syntax-ns#"
   xmlns:svg="http://www.w3.org/2000/svg"
   xmlns="http://www.w3.org/2000/svg"
   xmlns:sodipodi="http://sodipodi.sourceforge.net/DTD/sodipodi-0.dtd"
   xmlns:inkscape="http://www.inkscape.org/namespaces/inkscape"
   version="1.1"
   id="Layer_1"
   x="0px"
   y="0px"
   width="512px"
   height="512px"
   viewBox="0 0 512 512"
   enable-background="new 0 0 512 512"
   xml:space="preserve"
   inkscape:version="0.48.0 r9654"
   sodipodi:docname="uni2FDF-x2fdf.svg"><title
   id="title3049">Semnatura Autor</title><metadata
   id="metadata72"><rdf:RDF><cc:Work
       rdf:about=""><dc:format>image/svg+xml</dc:format><dc:type
         rdf:resource="http://purl.org/dc/dcmitype/StillImage" /><dc:title>Semnatura Autor</dc:title><dc:publisher><cc:Agent><dc:title>www.beitdina.net</dc:title></cc:Agent></dc:publisher><dc:identifier>ProtoChinese</dc:identifier><dc:source>signature</dc:source><dc:creator><cc:Agent><dc:title>Font Creator</dc:title></cc:Agent></dc:creator><dc:coverage>2FDF</dc:coverage><dc:description>Empty Font Glyph for the end of character set (to be replacd when done).</dc:description><cc:license
         rdf:resource="http://scripts.sil.org/OFL" /></cc:Work><cc:License
       rdf:about="http://scripts.sil.org/OFL"><cc:permits
         rdf:resource="http://scripts.sil.org/pub/OFL/Reproduction" /><cc:permits
         rdf:resource="http://scripts.sil.org/pub/OFL/Distribution" /><cc:permits
         rdf:resource="http://scripts.sil.org/pub/OFL/Embedding" /><cc:permits
         rdf:resource="http://scripts.sil.org/pub/OFL/DerivativeWorks" /><cc:requires
         rdf:resource="http://scripts.sil.org/pub/OFL/Notice" /><cc:requires
         rdf:resource="http://scripts.sil.org/pub/OFL/Attribution" /><cc:requires
         rdf:resource="http://scripts.sil.org/pub/OFL/ShareAlike" /><cc:requires
         rdf:resource="http://scripts.sil.org/pub/OFL/DerivativeRenaming" /><cc:requires
         rdf:resource="http://scripts.sil.org/pub/OFL/BundlingWhenSelling" /></cc:License></rdf:RDF></metadata><defs
   id="defs70" /><sodipodi:namedview
   pagecolor="#ffffff"
   bordercolor="#666666"
   borderopacity="1"
   objecttolerance="10"
   gridtolerance="10"
   guidetolerance="10"
   inkscape:pageopacity="0"
   inkscape:pageshadow="2"
   inkscape:window-width="1152"
   inkscape:window-height="814"
   id="namedview68"
   showgrid="false"
   inkscape:zoom="1.0195312"
   inkscape:cx="94.138756"
   inkscape:cy="329.83688"
   inkscape:window-x="-8"
   inkscape:window-y="-8"
   inkscape:window-maximized="1"
   inkscape:current-layer="Layer_1" />
	<g
   id="Grid">
		<rect
   x="0"
   fill="none"
   stroke="#A9CCDB"
   stroke-miterlimit="10"
   width="512"
   height="512"
   id="rect8" />
		<line
   fill="none"
   stroke="#A9CCDB"
   stroke-miterlimit="10"
   x1="0"
   y1="32"
   x2="512"
   y2="32"
   id="line10" />
		<line
   fill="none"
   stroke="#A9CCDB"
   stroke-miterlimit="10"
   x1="0"
   y1="64"
   x2="512"
   y2="64"
   id="line12" />
		<line
   fill="none"
   stroke="#A9CCDB"
   stroke-miterlimit="10"
   x1="0"
   y1="96"
   x2="512"
   y2="96"
   id="line14" />
		<line
   fill="none"
   stroke="#A9CCDB"
   stroke-miterlimit="10"
   x1="0"
   y1="128"
   x2="512"
   y2="128"
   id="line16" />
		<line
   fill="none"
   stroke="#A9CCDB"
   stroke-miterlimit="10"
   x1="0"
   y1="160"
   x2="512"
   y2="160"
   id="line18" />
		<line
   fill="none"
   stroke="#A9CCDB"
   stroke-miterlimit="10"
   x1="0"
   y1="192"
   x2="512"
   y2="192"
   id="line20" />
		<line
   fill="none"
   stroke="#A9CCDB"
   stroke-miterlimit="10"
   x1="0"
   y1="224"
   x2="512"
   y2="224"
   id="line22" />
		<line
   fill="none"
   stroke="#A9CCDB"
   stroke-miterlimit="10"
   x1="0"
   y1="256"
   x2="512"
   y2="256"
   id="line24" />
		<line
   fill="none"
   stroke="#A9CCDB"
   stroke-miterlimit="10"
   x1="0"
   y1="288"
   x2="512"
   y2="288"
   id="line26" />
		<line
   fill="none"
   stroke="#A9CCDB"
   stroke-miterlimit="10"
   x1="0"
   y1="320"
   x2="512"
   y2="320"
   id="line28" />
		<line
   fill="none"
   stroke="#A9CCDB"
   stroke-miterlimit="10"
   x1="0"
   y1="352"
   x2="512"
   y2="352"
   id="line30" />
		<line
   fill="none"
   stroke="#A9CCDB"
   stroke-miterlimit="10"
   x1="0"
   y1="384"
   x2="512"
   y2="384"
   id="line32" />
		<line
   fill="none"
   stroke="#A9CCDB"
   stroke-miterlimit="10"
   x1="0"
   y1="416"
   x2="512"
   y2="416"
   id="line34" />
		<line
   fill="none"
   stroke="#FF0000"
   stroke-miterlimit="10"
   x1="0"
   y1="448"
   x2="512"
   y2="448"
   id="line36" />
		<line
   fill="none"
   stroke="#A9CCDB"
   stroke-miterlimit="10"
   x1="0"
   y1="480"
   x2="512"
   y2="480"
   id="line38" />
		<line
   fill="none"
   stroke="#A9CCDB"
   stroke-miterlimit="10"
   x1="32"
   y1="0"
   x2="32"
   y2="512"
   id="line40" />
		<line
   fill="none"
   stroke="#A9CCDB"
   stroke-miterlimit="10"
   x1="64"
   y1="0"
   x2="64"
   y2="512"
   id="line42" />
		<line
   fill="none"
   stroke="#A9CCDB"
   stroke-miterlimit="10"
   x1="96"
   y1="0"
   x2="96"
   y2="512"
   id="line44" />
		<line
   fill="none"
   stroke="#A9CCDB"
   stroke-miterlimit="10"
   x1="128"
   y1="0"
   x2="128"
   y2="512"
   id="line46" />
		<line
   fill="none"
   stroke="#A9CCDB"
   stroke-miterlimit="10"
   x1="160"
   y1="0"
   x2="160"
   y2="512"
   id="line48" />
		<line
   fill="none"
   stroke="#A9CCDB"
   stroke-miterlimit="10"
   x1="192"
   y1="0"
   x2="192"
   y2="512"
   id="line50" />
		<line
   fill="none"
   stroke="#A9CCDB"
   stroke-miterlimit="10"
   x1="224"
   y1="0"
   x2="224"
   y2="512"
   id="line52" />
		<line
   fill="none"
   stroke="#A9CCDB"
   stroke-miterlimit="10"
   x1="256"
   y1="0"
   x2="256"
   y2="512"
   id="line54" />
		<line
   fill="none"
   stroke="#A9CCDB"
   stroke-miterlimit="10"
   x1="288"
   y1="0"
   x2="288"
   y2="512"
   id="line56" />
		<line
   fill="none"
   stroke="#A9CCDB"
   stroke-miterlimit="10"
   x1="320"
   y1="0"
   x2="320"
   y2="512"
   id="line58" />
		<line
   fill="none"
   stroke="#A9CCDB"
   stroke-miterlimit="10"
   x1="352"
   y1="0"
   x2="352"
   y2="512"
   id="line60" />
		<line
   fill="none"
   stroke="#A9CCDB"
   stroke-miterlimit="10"
   x1="384"
   y1="0"
   x2="384"
   y2="512"
   id="line62" />
		<line
   fill="none"
   stroke="#A9CCDB"
   stroke-miterlimit="10"
   x1="416"
   y1="0"
   x2="416"
   y2="512"
   id="line64" />
		<line
   fill="none"
   stroke="#A9CCDB"
   stroke-miterlimit="10"
   x1="448"
   y1="0"
   x2="448"
   y2="512"
   id="line66" />
		<line
   fill="none"
   stroke="#A9CCDB"
   stroke-miterlimit="10"
   x1="480"
   y1="0"
   x2="480"
   y2="512"
   id="line68" />
	</g>
	
<path
   d="m 74.537575,182.51273 c -1.15963,1.2456 -2.14979,2.78355 -2.95768,4.49905 -2.75253,5.84482 -3.38924,13.75064 -1.40386,19.17726 0.83058,2.01765 0.71295,2.65745 -0.35961,1.95617 -1.07859,-0.70523 -1.04812,0.18129 0.0943,2.74226 7.53959,4.68352 3.31409,5.52291 6.26587,8.0842 2.37896,2.61968 1.04737,2.24543 1.52731,3.31096 0.20793,0.87158 1.35737,1.46823 1.71715,1.91488 0.98384,1.22137 1.62229,1.32116 3.33149,2.85385 1.62877,1.47539 2.96139,3.52448 2.96139,4.55356 0,1.02907 0.73241,2.12932 1.62758,2.44499 1.7008,0.59979 2.55072,7.41258 1.85025,12.23034 -0.25409,0.75078 -0.19475,1.32839 -0.2047,1.96463 -0.0117,0.74763 -0.053,1.54319 0.16445,2.30807 0.0562,1.15855 -0.28485,2.43007 -0.0103,3.41463 1.43481,2.35479 1.0147,3.0059 1.25038,4.13939 0.0876,0.42148 0.26595,0.90965 0.66401,1.5769 0.52142,0.10545 0.68045,0.58469 1.45159,0.59008 1.03072,0.007 1.89742,-0.1444 2.37561,-0.2353 0.99363,-0.18887 1.29692,-0.73728 1.17924,-1.47354 -0.10775,-0.67418 -0.55446,-1.51988 -1.43982,-2.09876 -2.63271,-1.72137 -1.61975,-6.81525 1.56813,-7.88565 1.69012,-0.56751 3.46697,-0.615 3.948495,-0.10558 0.73423,1.84369 2.14543,1.86861 3.29606,3.16947 2.23497,2.52677 4.50676,5.78793 6.07142,7.95635 2.74803,3.80845 4.82119,8.48509 6.44559,13.55384 1.11243,3.37603 1.88235,5.66231 4.57668,5.66231 0.46501,-0.12664 0.91254,-0.61187 1.48119,-0.91938 0.66494,-0.35958 1.4318,-0.55578 1.62095,-0.85769 0.76567,-1.22211 -0.85503,-2.41817 -1.2698,-3.54448 -0.76561,-2.07903 -2.80168,-4.73861 -3.81077,-5.6679 -1.75493,-1.5034 -1.9861,-4.31345 -2.16205,-6.3944 -0.83296,-1.44513 -3.61953,-2.80181 -4.65431,-4.54823 -1.40926,-2.37843 -2.98043,-4.7975 -4.64471,-6.60686 -1.82302,-1.97081 -3.79989,-3.85467 -4.84078,-6.49701 -0.96717,-2.79911 -1.72937,-2.68864 -1.8534,0.26859 -2.303765,-4.29304 -2.628845,-9.23433 -2.406945,-13.5788 0.48401,-7.01013 1.13606,-14.20625 0.81259,-20.41586 -0.27616,-5.17626 -0.70508,-9.95904 -1.32002,-11.097 -0.68488,-0.2567 -1.63534,-2.83103 -2.11211,-5.72073 -2.36393,-5.37465 -4.85253,-9.23238 -7.88438,-11.26464 -3.42253,-2.29415 -7.53733,-2.26206 -12.94654,0.54008 z m 13.60897,6.57969 c 2.56458,4.19923 4.35699,10.10074 5.24949,14.91362 0.43713,1.99123 0.78492,4.07394 1.02933,6.12798 0.41049,3.4499 0.52933,6.81893 0.2899,9.5378 -0.39393,1.02899 -0.29417,2.70455 -1.65611,4.0864 -0.72779,0.73843 -1.26397,4.45813 -2.31237,4.88534 -1.36417,0.55589 -3.25566,-2.33829 -4.08332,-2.86838 -3.86302,-3.09734 -8.47175,-13.74462 -9.56635,-16.35112 -1.03782,-2.8519 -2.12123,-5.84802 -2.43328,-8.70006 -0.25351,-2.31702 0.16881,-4.49726 0.19826,-6.76283 -0.0404,-1.96836 0.67115,-4.32035 1.74069,-5.74525 0.84114,-1.12062 1.8569,-1.48074 3.22007,-1.90074 2.81425,-0.77971 5.96763,0.39582 8.32369,2.77714 z m -71.52752,15.769 c -0.94556,2.60684 -0.95551,3.75453 -0.16894,19.47675 0.23708,4.7386 0.0463,11.96398 -0.42373,16.0564 -0.61903,5.38861 -0.3446,7.44077 0.99504,7.44077 2.42378,0.79263 2.94813,2.06963 3.74503,1.97203 0.82588,-0.10115 1.91498,-1.62196 4.00095,-3.3932 1.43911,-1.20392 3.1088,-1.96056 6.23815,-1.33905 1.93085,0.46563 3.83337,1.70982 5.08212,3.72609 2.86947,4.63312 2.77095,6.9004 -0.46866,10.78276 -4.89014,5.86038 -7.88475,6.81101 -14.13119,4.48588 -6.84248,-2.547 -7.28746,-2.59074 -6.12569,-0.60205 0.49291,0.84375 0.23493,2.84129 -0.5733,4.43898 -0.75098,1.48452 -0.91907,2.21674 0.24253,2.56845 3.4792,1.09587 8.12965,2.14384 11.60049,1.31257 1.63649,-0.49016 3.34936,-1.17902 4.9763,-1.97712 2.63051,-1.29042 5.03637,-2.8664 6.53146,-4.34978 2.02072,-2.0448 3.41559,-3.23754 5.25733,-5.97216 1.10489,-1.59855 1.72637,-3.6854 1.38104,-4.63741 -0.34531,-0.95203 -0.50585,-3.34151 1.29162,-5.01028 1.4426,-0.5901 3.12075,0.0509 4.33241,-0.42815 4.0023,-1.58235 6.56011,-4.44897 9.6194,-11.59004 1.40467,-4.98866 -0.36938,-10.55904 -2.34117,-15.02441 -1.66814,-2.82895 -5.21108,-6.06017 -8.47251,-6.56078 -1.23464,0.95168 -2.97577,1.98524 -3.04377,2.86837 -0.15318,1.98926 4.16892,3.71469 5.43812,5.56878 1.80974,2.07753 2.76037,3.94457 3.08807,5.80554 0.45503,2.58404 -0.291,5.15637 -1.60579,8.26424 -1.04826,2.39147 -2.37721,3.35811 -2.78441,3.34846 -0.40719,-0.009 -1.96885,1.28963 -3.32052,1.83837 -3.26209,-4.3e-4 -6.73678,-0.71033 -10.07419,-1.90594 -2.41239,-0.86422 -4.75304,-1.98222 -6.88984,-3.26949 -1.28527,-0.77428 -3.96806,-0.38376 -5.07706,-1.26214 -1.83078,-2.23741 -0.88859,-3.62475 -0.94957,-4.6438 -0.11599,-1.93844 0.31159,-2.54426 0.42064,-5.13354 0.16848,-5.22978 1.47,-12.72303 2.83147,-16.30174 1.11925,-2.94205 17.03848,3.52209 17.03848,6.10753 0,0.86156 2.74701,-2.24811 3.56139,-2.24811 4.74756,0 -18.25306,-9.46079 -23.57555,-9.91602 -0.81438,-0.0697 -2.65662,-0.79244 -4.09388,-1.60621 -1.94457,-1.10099 -2.85346,-0.81712 -3.55227,1.10949 z m 339.831075,9.2052 c -0.9489,2.20309 -2.2846,4.00564 -2.9682,4.00564 -0.6837,0 -1.243,1.40983 -1.243,3.13296 0,1.72312 -0.5896,3.13295 -1.31012,3.13295 -1.74225,5.3183 -3.43746,11.11563 -4.71389,16.96329 -1.13165,5.18444 -1.93412,10.40843 -2.14832,15.37322 -0.22452,5.6804 0.32728,11.22306 1.50016,16.46698 0.7676,3.94331 -0.58894,6.09202 -10.52364,2.64836 -1.65494,-0.5788 -2.83543,-1.03069 -4.86948,0.88618 -1.01198,0.63236 -1.8445,2.39489 -4.0044,2.07463 -2.14544,-0.31812 -4.92382,-2.83488 -7.28078,-3.93751 -3.36801,-1.57561 -6.05615,-1.8896 -6.34656,-2.62814 -0.51639,-1.66853 2.15263,-6.45578 0.95462,-7.06501 -2.41885,-1.23006 -8.32389,2.29392 -10.4223,5.29021 -1.57891,2.50914 -12.53105,1.6679 -15.21209,-1.16845 -2.15983,-2.28497 -2.59085,-2.26898 -5.07635,0.18842 -1.85193,1.83099 -2.40082,2.44705 -1.62994,3.37603 0.32538,0.39212 0.88591,0.84 1.68284,1.45853 1.98327,2.04 2.71056,4.26191 4.79102,5.68498 0.4135,0.55952 0.54428,1.80015 2.99432,7.54742 1.5989,6.30711 1.01505,8.89884 -2.00468,8.89884 -0.57297,-0.21109 -1.14851,-0.43547 -1.7263,-0.67193 -10.28722,-4.21006 -21.28936,-12.24923 -31.21865,-17.2457 -4.76769,-2.39912 -9.28802,-4.09673 -13.36308,-4.33208 -3.51114,0.25178 -5.17401,3.24901 -6.03551,6.73946 -0.57838,3.20762 -0.71534,6.05249 -0.42992,8.70033 0.36671,3.40205 1.43069,6.47884 3.15154,9.58191 2.78223,4.97769 1.93249,2.87888 2.08151,3.5989 1.17173,1.84789 2.30914,3.8716 3.57684,5.6885 3.14805,4.51186 6.65165,8.64429 10.20312,12.19538 2.03825,2.02738 4.09749,3.91748 6.03346,5.63669 3.12861,2.65472 5.68547,4.1615 8.4278,4.41017 3.17587,0.0487 4.53115,-1.56636 4.47527,-3.19931 -0.0399,-1.16609 -1.23287,-0.69409 -2.56287,-1.27911 -1.86624,-1.20512 -3.54614,-2.33932 -5.07849,-3.63924 -2.40155,-2.21286 -6.79824,-4.17767 -11.32808,-10.67809 -0.62234,-0.89306 -4.79514,-5.35588 -5.40279,-6.27251 -2.53736,-6.45456 -12.94643,-27.96425 -1.50489,-25.30741 1.88519,1.13558 4.54301,2.76308 7.53512,4.65027 10.42915,6.57785 24.91966,16.31056 24.90964,19.36343 -1.0906,1.86686 12.65576,0.51195 14.48964,-1.42818 6.6342,-4.82517 2.77371,-14.76986 1.2009,-20.42929 -0.88252,-1.63986 -1.5539,-2.48572 -0.18295,-4.02943 0.75829,-0.49579 4.6358,-0.97908 8.61669,-1.07396 5.46068,-0.13017 8.75677,0.8418 13.42313,3.95819 3.23687,1.73676 4.96384,3.1278 5.81763,4.96992 0.50627,2.19599 1.21181,4.31025 1.84409,6.44492 0.81391,3.76637 1.15182,7.32673 2.36672,10.23564 1.116,2.67212 2.97202,4.79454 6.6168,6.02197 5.27971,0.8023 9.00851,1.18575 11.69188,0.0999 2.78341,-2.14425 4.57564,-5.18059 5.79164,-8.53708 1.4481,-3.99692 2.0791,-8.44781 2.5939,-12.38692 0.3847,-3.38615 0.1974,-6.72344 -1.0459,-10.03707 -0.895,-2.37274 -1.9399,-4.98073 -2.64222,-9.28841 0.0736,-4.09548 -0.0795,-7.94943 -0.12614,-11.68063 -0.0737,-5.89376 0.11828,-11.48123 1.88876,-17.23056 0.8439,-2.72569 1.779,-5.35779 2.3265,-8.08763 1.8396,-9.17272 3.3382,-16.05325 11.6426,-15.63058 4.1625,0.49654 7.2529,5.86892 6.4673,11.63662 -0.096,0.64617 0.5623,1.17486 1.4638,1.17486 0.9015,0 1.2556,1.05737 0.7868,2.34971 -0.4688,1.29235 -0.2557,2.34972 0.4734,2.34972 0.7291,0 1.5742,-1.2336 1.8779,-2.74134 0.3846,-1.90905 0.8022,-1.44786 1.3754,1.51908 -3.8563,1.976 3.2647,6.47529 2.3145,9.51153 -1.4341,3.95374 9.7279,3.13607 15.6979,-1.14994 3.3009,-2.36986 4.9725,-2.94941 4.4641,-1.54771 -0.5264,1.45137 0.1559,2.23233 1.9369,2.21679 1.5309,-0.0125 2.0934,-0.53406 1.2689,-1.17486 -2.8125,-2.18601 -2.1798,-5.00364 2.1838,-9.72623 5.1738,-5.59927 8.5615,-5.93907 14.0098,-1.40518 1.4552,2.72634 3.1507,1.87848 3.5965,2.97292 1.6829,4.13204 -2.9582,1.47742 0.9297,3.77448 1.6462,1.25177 3.371,3.8546 2.654,4.61312 -0.5041,0.53336 -0.1392,0.96973 0.8109,0.96973 0.9501,0 1.7274,-1.05737 1.7274,-2.34972 0,-1.29234 0.6664,-2.34971 1.4807,-2.34971 2.3997,0 1.5991,-6.78619 -1.2012,-10.18211 -3.7096,-4.4987 -11.2142,-8.61563 -15.7051,-8.61563 -4.7965,0 -8.1631,2.0994 -16.9295,10.55701 -3.7858,3.65247 -7.9012,6.64835 -9.1454,6.65753 -3.0056,0.0222 -7.7214,-5.93369 -6.4379,-8.13081 0.6129,-1.04912 0.3378,-1.29338 -0.6957,-0.61768 -1.0129,0.6623 -1.7094,0.12265 -1.7094,-1.32444 0,-1.3432 -0.7441,-2.44217 -1.6534,-2.44217 -0.9094,0 -1.3322,-1.29951 -0.9396,-2.88777 0.4326,-1.75023 -0.3969,-3.62161 -2.1058,-4.75068 -1.5508,-1.02458 -2.5199,-2.37603 -2.1535,-3.0032 0.3664,-0.62717 -2.9362,-1.34929 -7.3392,-1.60469 -7.3474,-0.42622 -8.1472,-0.13518 -9.7305,3.54126 z m -23.22327,75.65549 c -0.96035,-3.94443 0.0349,-7.78037 4.75062,-6.51164 5.79304,3.60497 6.54107,6.01266 5.79151,9.35611 -0.68628,3.29287 -4.63126,6.99604 -7.60098,4.4277 -1.35488,-1.27869 -2.31049,-4.91255 -2.94115,-7.27217 z M 122.25361,232.89973 c -1.24969,1.32209 -3.08933,2.40379 -4.0881,2.40379 -1.13904,0 -0.80515,1.18162 0.89574,3.16997 2.07136,2.42143 2.99432,2.69887 3.90855,1.17486 1.08416,-1.80725 1.8422,-0.60419 1.43078,2.27073 -0.0891,0.6231 1.83086,0.71121 4.26673,0.19581 2.75815,-0.58357 4.42886,-0.29083 4.42886,0.77605 0,0.94221 -1.16604,1.32524 -2.59121,0.85116 -2.2125,-0.73598 -2.17114,-0.49985 0.283,1.61565 1.58082,1.36266 3.45251,2.47759 4.1593,2.47759 0.70678,0 0.87327,0.70491 0.36995,1.56648 -0.50331,0.86156 -0.29688,1.56648 0.45874,1.56648 1.91897,4.0983 0.87065,5.74125 0.13065,6.77832 -1.71625,2.40521 -1.70175,1.5346 -3.54353,5.7659 -1.16101,7.90746 -2.32105,12.68245 -5.23266,14.60742 -0.75758,0.50087 -2.20526,0.46587 -3.12627,0.64858 -2.68441,0.74265 -2.91411,1.63573 -2.02821,7.8856 0.0363,3.04816 -0.28595,5.34793 1.41627,6.41923 0.85887,0.54053 2.50729,2.1392 4.42123,0.58373 1.58312,-0.91482 1.15234,-3.39326 1.3064,-8.63078 0.6067,-1.80793 2.70971,-3.88789 3.8819,-5.83938 1.60021,-2.66404 2.3128,-5.08863 2.91534,-6.25481 1.21004,-1.83467 1.74103,-3.93985 1.93861,-6.69066 0.22324,-3.18707 4.74867,-9.04279 6.94247,-8.98326 0.48617,0.0125 1.88342,0.77926 3.105,1.70237 1.78414,1.34822 1.56528,1.52631 -1.11257,0.90535 -1.83348,-0.42518 -2.9602,-0.13394 -2.50382,0.64734 0.45638,0.78122 1.65607,1.42039 2.66597,1.42039 2.28406,0 5.74893,9.72645 4.5966,12.90336 -0.6115,1.68588 0.1069,2.29105 2.56441,2.16009 3.00233,-0.15998 3.50813,-1.1734 4.19537,-8.40592 0.4298,-4.5232 0.28413,-8.22401 -0.32371,-8.22401 -0.60783,0 -0.67967,-1.17301 -0.15965,-2.60668 0.63575,-1.75272 0.37798,-2.23563 -0.78681,-1.47404 -0.95278,0.62297 -1.73232,0.50527 -1.73232,-0.26155 0,-0.76683 1.64306,-2.32452 3.65125,-3.46154 2.94807,-1.66916 4.08559,-1.68596 5.90648,-0.0873 1.24036,1.08907 1.89007,2.60515 1.44378,3.36909 -0.44628,0.76394 -0.0665,1.38898 0.84404,1.38898 0.91051,0 1.24366,0.70491 0.74034,1.56648 -0.50331,0.86156 -0.22217,1.56648 0.62475,1.56648 0.84693,0 1.9568,1.75741 2.46638,3.90537 0.52428,2.20994 1.60999,3.45848 2.50088,2.87597 0.97591,-0.63807 1.22595,-0.0688 0.65781,1.49754 -0.6436,1.77435 -0.27757,2.26749 1.22907,1.65584 1.34204,-0.54482 2.14562,0.10167 2.14562,1.7262 0,2.59998 9.90493,8.14554 11.51203,6.44533 0.4549,-0.48125 0.19869,-0.875 -0.56934,-0.875 -2.24962,0 -0.52084,-12.21976 1.86586,-13.18869 1.21111,-0.49167 1.7538,-0.19175 1.24111,0.68588 -0.50111,0.85777 0.0885,1.96541 1.31029,2.46141 1.22177,0.49599 1.85901,1.90086 1.41612,3.12189 -0.4429,1.22104 -0.11401,2.22008 0.73086,2.22008 0.84487,0 1.76487,1.58606 2.04444,3.52457 0.27957,1.93852 1.32538,3.34835 2.32402,3.13296 0.99864,-0.21539 1.82592,0.84198 1.83839,2.34972 0.0188,2.27404 0.25456,2.35353 1.38299,0.46641 0.74818,-1.2512 0.96183,-2.95707 0.47477,-3.79078 -0.49045,-0.83955 0.10365,-1.11428 1.33162,-0.61576 1.21944,0.49505 2.28359,0.0862 2.36476,-0.90866 0.0811,-0.9948 0.4335,-5.41957 0.78294,-9.83281 0.90996,-11.49264 2.01939,-12.65492 7.13257,-7.47238 2.71787,2.75473 3.6894,4.72975 2.65827,5.40394 -0.92922,0.60756 0.0203,1.49939 2.21738,2.08279 2.11334,0.56114 3.84243,2.02259 3.84243,3.24769 0,1.22507 0.76927,2.73038 1.70948,3.34513 0.99824,0.65269 1.30981,0.43359 0.74885,-0.52665 -0.52834,-0.90441 0.20159,-2.14634 1.62208,-2.75988 2.36534,-1.02164 2.33347,-1.22395 -0.37867,-2.40376 -2.86696,-1.24717 -2.86973,-1.29175 -0.0872,-1.39835 2.77488,-0.10621 2.77985,-0.18309 0.14392,-2.22218 -1.50163,-1.16163 -2.25597,-2.92392 -1.67631,-3.91619 0.62939,-1.07724 0.0887,-1.80411 -1.34179,-1.80411 -1.3177,0 -1.98401,-0.70492 -1.48069,-1.56648 0.50332,-0.86156 0.18162,-1.56648 -0.71488,-1.56648 -2.22824,0 -6.72494,-4.81092 -8.01187,-8.57172 -0.8858,-2.58857 -1.28039,-2.71547 -2.43543,-0.78324 -1.03328,1.72852 -1.38405,1.78756 -1.40105,0.23582 -0.0175,-1.59419 -0.53318,-1.52988 -2.24371,0.27973 -1.22157,1.29234 -2.22104,3.14658 -2.22104,4.12054 0,0.97394 -0.59081,1.38451 -1.31292,0.91238 -0.7221,-0.47215 -2.22131,0.32648 -3.33156,1.77472 -1.38836,1.81101 -1.44074,2.26587 -0.16778,1.45678 2.57739,-1.63814 2.32068,1.42065 -0.35695,4.25341 -1.67337,1.77034 -1.76299,2.52587 -0.37017,3.12119 1.01071,0.43199 0.29911,0.84109 -1.58131,0.90911 -2.15066,0.0779 -3.04152,-0.52239 -2.40151,-1.61794 0.55959,-0.95788 0.11683,-2.33051 -0.98405,-3.05028 -1.2038,-0.78709 -2.45062,-0.5612 -3.12841,0.56677 -0.7752,1.29006 -1.134,1.06054 -1.14961,-0.7354 -0.0118,-1.43592 0.81022,-2.96634 1.8282,-3.4009 1.01797,-0.43456 0.48492,-0.84576 -1.18456,-0.91377 -1.66948,-0.068 -3.80676,-0.9397 -4.7495,-1.93706 -1.2983,-1.37352 -2.28326,-1.31363 -4.06063,0.24691 -1.62796,1.42938 -1.8739,2.56031 -0.8031,3.69316 0.8489,0.89807 1.53325,2.37302 1.52078,3.27766 -0.0119,0.90464 -0.66858,0.58743 -1.45802,-0.70491 -0.98085,-1.60567 -1.44253,-1.72181 -1.45803,-0.36675 -0.0133,1.22403 -1.68362,1.84911 -4.3623,1.63317 -2.38681,-0.19241 -4.00655,-0.92003 -3.59943,-1.61692 0.40713,-0.6969 1.35286,-0.86651 2.10163,-0.37693 0.75119,0.49116 0.94232,-0.37509 0.4264,-1.93255 -1.15502,-3.48679 -7.2205,-9.87185 -9.37775,-9.87185 -0.87549,0 -1.96155,-1.01941 -2.41349,-2.26537 -0.62853,-1.73281 -1.83597,-1.1677 -5.13596,2.40371 -2.37285,2.56802 -4.31426,5.34973 -4.31426,6.18159 0,1.79698 -2.98425,1.94707 -5.47016,0.27507 -2.36788,-1.5926 -5.22024,-15.04079 -3.33761,-15.73604 0.78251,-0.28898 1.06411,-1.13933 0.62577,-1.88968 -0.43836,-0.75035 -1.77513,-0.96718 -2.97063,-0.48185 -1.19548,0.48534 -2.17361,0.17751 -2.17361,-0.68405 0,-0.86157 -1.03408,-1.98628 -2.29795,-2.49938 -1.3177,-0.53494 -1.91205,-0.27233 -1.3933,0.61564 0.50305,0.86112 -0.72264,1.54854 -2.7611,1.54854 -2.01616,0 -4.00181,-0.88114 -4.41257,-1.9581 -0.5515,-1.44593 -0.77741,-1.39576 -0.86373,0.19182 -0.0902,1.65928 -0.58796,1.73632 -2.18107,0.33754 -1.59001,-1.39604 -2.5861,-1.26018 -4.33631,0.59143 z m 53.04234,30.60039 c -0.50332,0.86156 -1.20896,1.56648 -1.56809,1.56648 -0.35912,0 -0.65295,-0.70492 -0.65295,-1.56648 0,-0.86156 0.70564,-1.56648 1.56808,-1.56648 0.86245,0 1.15628,0.70492 0.65296,1.56648 z m 3.20167,3.52457 c -0.41076,1.07696 -0.74684,0.19581 -0.74684,-1.95809 0,-2.15391 0.33608,-3.03505 0.74684,-1.9581 0.41076,1.07695 0.41076,2.83924 0,3.91619 z m 6.42284,-3.57373 c 0,0.83451 -0.99947,1.11156 -2.22104,0.61564 -1.22157,-0.49593 -2.22104,-1.17871 -2.22104,-1.51732 0,-0.33859 0.99947,-0.61564 2.22104,-0.61564 1.22157,0 2.22104,0.6828 2.22104,1.51732 z M 62.579295,237.78431 c -1e-6,0.49733 1.73325,1.5098 3.99381,4.13998 3.1947,3.71704 7.32029,9.32006 8.03566,9.61049 1.22158,0.49593 2.22104,1.98116 2.22104,3.30055 0,1.31939 0.73761,2.39888 1.63912,2.39888 1.92115,2.70545 3.98032,4.0779 4.86614,7.57068 0.60279,2.30718 1.9824,5.15255 2.69231,8.97555 1.4686,5.04163 1.92227,9.55898 2.64799,14.78332 0,3.36502 4.30516,4.45391 4.64505,1.17486 -1.45882,-7.38063 2.88526,-21.69533 2.49288,-28.15139 -0.48093,-0.42297 -1.13528,0.16072 -2.09514,-0.0591 -0.22535,-0.0516 -1.22214,0.16516 -1.42849,0.13137 -1.07073,-0.17533 -1.34728,-0.96094 -1.6795,-0.4473 -0.0893,0.67289 -0.32288,4.77037 -0.36903,6.8947 -0.003,1.17671 -1.76113,-5.45084 -1.85222,-4.27766 -0.56649,-0.34959 -1.53451,-3.78041 -2.00785,-4.13159 -5.12598,-3.80313 -5.11732,-7.68031 -7.07053,-11.20425 -1.31331,-2.36944 -3.15645,-4.82641 -7.28462,-7.51936 -1.16377,-0.74561 -4.53148,-5.37545 -5.61328,-5.98708 -1.32402,-0.74857 -3.41494,-1.80307 -3.98493,-1.16671 -0.70922,0.7918 0.26416,3.46208 0.15159,3.96404 z m -49.41932,27.75585 c 1.160922,0.38697 -0.66632,-1.78928 -1.4807,-1.2568 -0.81438,0.53247 -1.48069,0.28037 -1.48069,-0.56025 0,-0.84062 0.67289,-1.76567 1.49531,-2.05571 1.78738,-0.42678 2.66561,-3.52327 3.89008,-4.93835 1.78157,-2.0589 2.54195,-2.53559 3.04754,-4.63245 0.2072,-0.85929 0.11264,-1.76251 -1.1233,-2.31989 -1.18947,-0.53643 -1.95235,-0.0462 -2.22272,-0.2248 -0.0261,-0.0172 -0.048,-0.0469 -0.0784,-0.0493 -1.05797,-0.0854 -2.2504,0.91286 -3.5143,2.41657 -1.7997505,2.14124 -3.7444305,5.30739 -5.6522005,7.82902 -1.8435,2.43669 -4.06267,5.20826 -0.41849,8.25682 2.58969,2.16643 7.4637505,-1.39466 7.5378405,-2.46487 z m 144.171215,15.13613 c 0.15677,-2.74549 -2.06054,-1.57992 -3.9684,-1.75776 l 0,0 c -1.41179,-0.20761 -2.87559,-0.004 -2.94412,0.59982 -0.31595,5.17895 6.30503,5.56285 6.91252,1.15794 z" />
 </svg>