<?xml version="1.0" encoding="UTF-8" standalone="no"?>
<svg
   xmlns:dc="http://purl.org/dc/elements/1.1/"
   xmlns:cc="http://creativecommons.org/ns#"
   xmlns:rdf="http://www.w3.org/1999/02/22-rdf-syntax-ns#"
   xmlns:svg="http://www.w3.org/2000/svg"
   xmlns="http://www.w3.org/2000/svg"
   xmlns:sodipodi="http://sodipodi.sourceforge.net/DTD/sodipodi-0.dtd"
   xmlns:inkscape="http://www.inkscape.org/namespaces/inkscape"
   version="1.1"
   id="Layer_1"
   x="0px"
   y="0px"
   width="1024"
   height="1024"
   viewBox="0 0 1024 1024"
   enable-background="new 0 0 512 512"
   xml:space="preserve"
   inkscape:version="0.48.0 r9654"
   sodipodi:docname="uni2F99-x2f99.svg"><metadata
   id="metadata72"><rdf:RDF><cc:Work
       rdf:about=""><dc:format>image/svg+xml</dc:format><dc:type
         rdf:resource="http://purl.org/dc/dcmitype/StillImage" /><dc:title /></cc:Work></rdf:RDF></metadata><defs
   id="defs70" /><sodipodi:namedview
   pagecolor="#ffffff"
   bordercolor="#666666"
   borderopacity="1"
   objecttolerance="10"
   gridtolerance="10"
   guidetolerance="10"
   inkscape:pageopacity="0"
   inkscape:pageshadow="2"
   inkscape:window-width="1152"
   inkscape:window-height="814"
   id="namedview68"
   showgrid="false"
   inkscape:zoom="0.18022936"
   inkscape:cx="-1105.7665"
   inkscape:cy="899.32037"
   inkscape:window-x="-8"
   inkscape:window-y="-8"
   inkscape:window-maximized="1"
   inkscape:current-layer="Layer_1" />
	<g
   id="Grid"
   transform="matrix(1.99505,0,0,1.99505,0.49752501,2.0369)">
		<rect
   x="0"
   stroke-miterlimit="10"
   width="512"
   height="512"
   id="rect4"
   y="0"
   style="fill:none;stroke:#a9ccdb;stroke-miterlimit:10" />
		<line
   stroke-miterlimit="10"
   x1="0"
   y1="32"
   x2="512"
   y2="32"
   id="line6"
   style="fill:none;stroke:#a9ccdb;stroke-miterlimit:10" />
		<line
   stroke-miterlimit="10"
   x1="0"
   y1="64"
   x2="512"
   y2="64"
   id="line8"
   style="fill:none;stroke:#a9ccdb;stroke-miterlimit:10" />
		<line
   stroke-miterlimit="10"
   x1="0"
   y1="96"
   x2="512"
   y2="96"
   id="line10"
   style="fill:none;stroke:#a9ccdb;stroke-miterlimit:10" />
		<line
   stroke-miterlimit="10"
   x1="0"
   y1="128"
   x2="512"
   y2="128"
   id="line12"
   style="fill:none;stroke:#a9ccdb;stroke-miterlimit:10" />
		<line
   stroke-miterlimit="10"
   x1="0"
   y1="160"
   x2="512"
   y2="160"
   id="line14"
   style="fill:none;stroke:#a9ccdb;stroke-miterlimit:10" />
		<line
   stroke-miterlimit="10"
   x1="0"
   y1="192"
   x2="512"
   y2="192"
   id="line16"
   style="fill:none;stroke:#a9ccdb;stroke-miterlimit:10" />
		<line
   stroke-miterlimit="10"
   x1="0"
   y1="224"
   x2="512"
   y2="224"
   id="line18"
   style="fill:none;stroke:#a9ccdb;stroke-miterlimit:10" />
		<line
   stroke-miterlimit="10"
   x1="0"
   y1="256"
   x2="512"
   y2="256"
   id="line20"
   style="fill:none;stroke:#a9ccdb;stroke-miterlimit:10" />
		<line
   stroke-miterlimit="10"
   x1="0"
   y1="288"
   x2="512"
   y2="288"
   id="line22"
   style="fill:none;stroke:#a9ccdb;stroke-miterlimit:10" />
		<line
   stroke-miterlimit="10"
   x1="0"
   y1="320"
   x2="512"
   y2="320"
   id="line24"
   style="fill:none;stroke:#a9ccdb;stroke-miterlimit:10" />
		<line
   stroke-miterlimit="10"
   x1="0"
   y1="352"
   x2="512"
   y2="352"
   id="line26"
   style="fill:none;stroke:#a9ccdb;stroke-miterlimit:10" />
		<line
   stroke-miterlimit="10"
   x1="0"
   y1="384"
   x2="512"
   y2="384"
   id="line28"
   style="fill:none;stroke:#a9ccdb;stroke-miterlimit:10" />
		<line
   stroke-miterlimit="10"
   x1="0"
   y1="416"
   x2="512"
   y2="416"
   id="line30"
   style="fill:none;stroke:#a9ccdb;stroke-miterlimit:10" />
		<line
   stroke-miterlimit="10"
   x1="0"
   y1="448"
   x2="512"
   y2="448"
   id="line32"
   style="fill:none;stroke:#ff0000;stroke-miterlimit:10" />
		<line
   stroke-miterlimit="10"
   x1="0"
   y1="480"
   x2="512"
   y2="480"
   id="line34"
   style="fill:none;stroke:#a9ccdb;stroke-miterlimit:10" />
		<line
   stroke-miterlimit="10"
   x1="32"
   y1="0"
   x2="32"
   y2="512"
   id="line36"
   style="fill:none;stroke:#a9ccdb;stroke-miterlimit:10" />
		<line
   stroke-miterlimit="10"
   x1="64"
   y1="0"
   x2="64"
   y2="512"
   id="line38"
   style="fill:none;stroke:#a9ccdb;stroke-miterlimit:10" />
		<line
   stroke-miterlimit="10"
   x1="96"
   y1="0"
   x2="96"
   y2="512"
   id="line40"
   style="fill:none;stroke:#a9ccdb;stroke-miterlimit:10" />
		<line
   stroke-miterlimit="10"
   x1="128"
   y1="0"
   x2="128"
   y2="512"
   id="line42"
   style="fill:none;stroke:#a9ccdb;stroke-miterlimit:10" />
		<line
   stroke-miterlimit="10"
   x1="160"
   y1="0"
   x2="160"
   y2="512"
   id="line44"
   style="fill:none;stroke:#a9ccdb;stroke-miterlimit:10" />
		<line
   stroke-miterlimit="10"
   x1="192"
   y1="0"
   x2="192"
   y2="512"
   id="line46"
   style="fill:none;stroke:#a9ccdb;stroke-miterlimit:10" />
		<line
   stroke-miterlimit="10"
   x1="224"
   y1="0"
   x2="224"
   y2="512"
   id="line48"
   style="fill:none;stroke:#a9ccdb;stroke-miterlimit:10" />
		<line
   stroke-miterlimit="10"
   x1="256"
   y1="0"
   x2="256"
   y2="512"
   id="line50"
   style="fill:none;stroke:#a9ccdb;stroke-miterlimit:10" />
		<line
   stroke-miterlimit="10"
   x1="288"
   y1="0"
   x2="288"
   y2="512"
   id="line52"
   style="fill:none;stroke:#a9ccdb;stroke-miterlimit:10" />
		<line
   stroke-miterlimit="10"
   x1="320"
   y1="0"
   x2="320"
   y2="512"
   id="line54"
   style="fill:none;stroke:#a9ccdb;stroke-miterlimit:10" />
		<line
   stroke-miterlimit="10"
   x1="352"
   y1="0"
   x2="352"
   y2="512"
   id="line56"
   style="fill:none;stroke:#a9ccdb;stroke-miterlimit:10" />
		<line
   stroke-miterlimit="10"
   x1="384"
   y1="0"
   x2="384"
   y2="512"
   id="line58"
   style="fill:none;stroke:#a9ccdb;stroke-miterlimit:10" />
		<line
   stroke-miterlimit="10"
   x1="416"
   y1="0"
   x2="416"
   y2="512"
   id="line60"
   style="fill:none;stroke:#a9ccdb;stroke-miterlimit:10" />
		<line
   stroke-miterlimit="10"
   x1="448"
   y1="0"
   x2="448"
   y2="512"
   id="line62"
   style="fill:none;stroke:#a9ccdb;stroke-miterlimit:10" />
		<line
   stroke-miterlimit="10"
   x1="480"
   y1="0"
   x2="480"
   y2="512"
   id="line64"
   style="fill:none;stroke:#a9ccdb;stroke-miterlimit:10" />
	</g>
	

<path
   style="fill:#000000;fill-opacity:1"
   d="m 943.02454,166.21352 c -4.80202,-0.11656 -9.64832,0.27249 -14.45487,1.09756 -29.34392,5.03704 -57.20647,26.3241 -64.47256,48.01575 -9.66088,48.18303 -23.05338,94.11704 -35.55304,139.57295 -6.39776,23.26595 -12.56162,46.40665 -17.87149,69.65955 -1.58622,7.36636 -2.02662,11.95696 -5.40308,16.7309 -2.78281,3.72538 -6.21921,6.0514 -10.72774,6.07027 l -9.94027,0 -1.21873,-19.77798 c -1.89797,-13.96274 -1.51835,-44.95894 -2.16722,-74.14671 -0.71913,-32.34939 -2.70165,-62.47737 -10.44855,-64.73199 -8.12967,-14.20664 -15.34511,-28.29369 -22.38466,-42.2149 -5.63872,-11.15088 -11.16457,-22.19538 -16.95706,-33.10964 -11.30489,-21.21694 -22.80266,-37.6423 -43.65602,-57.40747 -2.86663,-2.7686 -5.66862,-2.54484 -8.33174,-5.27356 -8.84321,-4.4444 -18.17643,-6.35623 -27.24034,-5.33076 -8.85787,1.00215 -17.45854,4.8096 -25.09329,11.80015 -5.99764,7.68238 -4.01783,6.83042 -4.03178,21.03538 1.011,5.22821 6.13658,20.13406 12.2693,34.34209 19.3886,29.53263 24.72804,43.60413 32.15402,76.11261 10.0966,21.75826 12.71517,22.05263 12.73324,38.77339 l 0,43.02725 -8.69774,0 c -7.04102,0 -8.69774,-0.9155 -8.69774,-4.80638 -11.649,-9.59763 -30.86458,-20.88119 -53.2986,-30.91099 -24.40014,-10.90883 -52.60757,-20.33448 -79.02781,-24.49472 -9.20151,-1.44891 -18.18627,-2.25912 -26.7179,-2.2709 l -14.91041,0 0,-10.81436 c 0,-9.21223 0.73633,-10.81436 4.97014,-10.81436 9.46087,-5.08758 25.22984,-14.37236 39.43958,-28.08572 14.96202,-14.43936 35.57971,-31.49176 48.31183,-43.43531 4.64272,-5.50053 31.40906,-26.54359 31.53182,-31.81622 0,-2.64351 -1.59963,-4.80638 -3.55476,-4.80638 -1.95513,0 -3.91212,-2.43324 -4.34887,-5.40719 -7.65766,-8.38194 -46.57752,-9.39181 -64.02361,-9.18617 -17.16195,0.3064 -32.03786,1.21457 -32.44559,10.06726 -19.36059,15.08236 -40.33351,36.9532 -59.85511,54.78743 -10.91556,9.9721 -21.37739,18.68211 -30.84985,24.23761 -2.69215,0 -3.7276,-2.67021 -3.7276,-9.61277 0.83284,-9.25418 5.81093,-19.07612 11.87415,-29.04588 10.07851,-7.32231 25.55064,-55.24143 28.80431,-57.46902 1.72049,-9.0988 -4.4344,-14.91286 -14.44109,-18.5382 -24.22121,-8.77513 -71.00947,-4.72696 -83.30563,-3.39811 -18.63,3.80863 -18.55682,5.17508 -23.6812,19.15221 -6.99631,19.1477 -10.28319,38.56758 -18.19221,58.80721 -23.73299,52.97459 -42.25298,104.26887 -62.98043,154.09331 -10.34842,33.06013 -18.53542,44.8883 -30.97679,79.03007 -5.60505,8.90752 -4.63058,14.70777 -8.68829,24.00896 -3.87589,8.88441 -23.73873,52.1223 -29.5241,52.1297 l -9.94027,0 0,-74.21866 c 0,-72.19755 -0.13543,-74.25288 -4.97013,-75.47555 -0.69873,-7.8581 -32.27524,-27.08743 -32.30585,-28.25087 0,-4.42922 -1.91596,-4.69749 -33.54841,-4.69749 l -28.673482,2.35714 0,75.70055 c 0,65.68723 -4.38187,73.34339 -1.14733,73.34339 3.3356,10.99042 7.44563,21.81476 11.95332,32.52785 11.44418,27.19856 25.451472,53.6801 35.856022,80.34183 11.65837,31.97843 5.5496,22.92239 5.61961,48.46706 l 0,12.33886 -17.34674,-1.20025 c -12.597852,-0.87167 -20.463592,-0.8125 -24.940662,0.43125 -5.26325,4.39332 -9.17224,8.06076 -14.83767,13.08646 -6.88771,6.36836 -9.93788,18.70599 -9.97175,28.27312 -2.50016,6.27353 13.47947,20.48562 14.28913,20.52571 36.482632,0.82696 68.544552,2.30278 69.469972,3.19769 0.64288,0.62173 1.78532,1.81157 2.53872,9.84652 3.82056,2.34732 7.7001,3.8527 11.49356,12.01519 8.00037,17.21457 18.60965,53.41356 24.4836,53.51202 10.1974,7.5936 23.20489,13.58447 34.16886,18.3276 15.5398,6.70335 31.42977,12.90774 34.1705,12.91389 23.71107,7.27223 25.566,-64.20531 15.64623,-65.83457 -4.46037,0 -4.97013,-1.60214 -4.97013,-15.62075 -1.4119,-8.05004 -0.35666,-13.08637 2.16287,-15.53625 3.95486,-3.84552 11.51765,-1.31837 18.80995,5.92884 11.78439,7.78538 24.64919,12.58535 37.83985,15.53654 23.1982,5.19022 47.40433,4.66229 68.51401,4.59928 21.53957,-0.12136 42.7648,-1.69959 63.85261,-5.22485 25.19995,-4.41092 57.4313,-8.14219 80.14584,-15.42088 30.36292,-9.72954 56.17025,-16.00264 83.0807,-29.28246 53.02664,-26.1677 110.52752,-53.4851 159.91034,-79.92732 23.33411,-12.49434 38.22933,-29.37047 62.21948,-37.38561 8.65646,-1.87154 17.51714,-0.37687 26.22986,-4.41734 20.27758,-9.40352 39.75372,-27.96726 53.98859,-39.61498 7.32342,-5.99241 3.71135,-10.37612 11.51861,-14.71289 11.42626,-5.78388 27.14717,-11.29654 27.59379,-22.6422 2.47915,-22.30314 -18.86616,-32.79876 -35.75557,-35.96321 -13.27148,-2.40774 -20.10084,-0.61693 -21.00016,5.50667 -0.64729,4.40738 -2.37039,5.40718 -9.31901,5.40718 l -8.5249,0 0,-21.62873 c 1.12139,-8.86112 3.1091,-17.54798 5.58897,-26.16133 11.53978,-28.84737 20.39617,-58.84038 28.34416,-88.97873 12.13838,-46.02822 22.158,-92.39537 36.38161,-135.53817 3.84827,-11.66146 6.73344,-21.96626 6.72235,-29.29361 -0.33131,-15.90925 3.31513,-20.75175 -2.97845,-22.20105 -2.43216,-0.56006 -6.34883,-0.61339 -12.55322,-0.60281 z m -650.53783,512.17564 -30.8253,-1.17858 c 6.75616,-30.03091 16.96961,-54.71709 25.37659,-80.77002 2.75197,-24.4124 12.19167,-50.77089 22.18253,-75.6631 10.34519,-22.30879 12.3816,-43.08457 21.4521,-68.55324 3.67688,-10.32416 6.70722,-20.25746 8.65181,-29.27253 6.16677,-31.9947 15.24453,-65.05416 32.07402,-72.41069 10.90816,-0.17688 21.41072,1.28001 31.65551,3.52747 5.83064,1.27912 11.57778,2.81436 17.26869,4.45033 11.3452,3.84064 23.16527,7.08307 35.06301,10.07012 26.29099,6.13198 51.56567,13.15161 76.21704,21.16565 26.51219,8.619 52.30344,18.38824 77.86268,29.44062 26.74049,11.56315 53.22704,24.53077 80.01957,39.05504 49.06482,29.06586 76.4195,29.98332 98.72234,69.34143 -41.73718,59.67291 -126.67497,105.27448 -207.64988,135.77373 -97.07367,31.72638 -198.3555,21.37644 -288.07071,15.02377 z"
   id="path3959"
   inkscape:connector-curvature="0"
   sodipodi:nodetypes="cscscccccscscccsccccccscssccscsccscccsccccscccccsccsccscscscccsccccccscccccscsccssscsscccsscccsccscccccsccsccsscccc" />
	 
	 
</svg>