<?xml version="1.0" encoding="UTF-8" standalone="no"?>
<svg
   xmlns:dc="http://purl.org/dc/elements/1.1/"
   xmlns:cc="http://creativecommons.org/ns#"
   xmlns:rdf="http://www.w3.org/1999/02/22-rdf-syntax-ns#"
   xmlns:svg="http://www.w3.org/2000/svg"
   xmlns="http://www.w3.org/2000/svg"
   xmlns:sodipodi="http://sodipodi.sourceforge.net/DTD/sodipodi-0.dtd"
   xmlns:inkscape="http://www.inkscape.org/namespaces/inkscape"
   version="1.1"
   id="Layer_1"
   x="0px"
   y="0px"
   width="1024"
   height="1024"
   viewBox="0 0 1024 1024"
   enable-background="new 0 0 512 512"
   xml:space="preserve"
   inkscape:version="0.48.0 r9654"
   sodipodi:docname="uni2F55-x2f55.svg"><metadata
   id="metadata72"><rdf:RDF><cc:Work
       rdf:about=""><dc:format>image/svg+xml</dc:format><dc:type
         rdf:resource="http://purl.org/dc/dcmitype/StillImage" /><dc:title /></cc:Work></rdf:RDF></metadata><defs
   id="defs70" /><sodipodi:namedview
   pagecolor="#ffffff"
   bordercolor="#666666"
   borderopacity="1"
   objecttolerance="10"
   gridtolerance="10"
   guidetolerance="10"
   inkscape:pageopacity="0"
   inkscape:pageshadow="2"
   inkscape:window-width="1152"
   inkscape:window-height="814"
   id="namedview68"
   showgrid="false"
   inkscape:zoom="0.50976562"
   inkscape:cx="598.04666"
   inkscape:cy="208.32232"
   inkscape:window-x="-8"
   inkscape:window-y="-8"
   inkscape:window-maximized="1"
   inkscape:current-layer="Layer_1" />
	<g
   id="Grid"
   transform="matrix(1.9942267,0,0,1.9904028,0.49711337,4.4185681)">
		<rect
   x="0"
   stroke-miterlimit="10"
   width="512"
   height="512"
   id="rect4"
   y="0"
   style="fill:none;stroke:#a9ccdb;stroke-miterlimit:10" />
		<line
   stroke-miterlimit="10"
   x1="0"
   y1="32"
   x2="512"
   y2="32"
   id="line6"
   style="fill:none;stroke:#a9ccdb;stroke-miterlimit:10" />
		<line
   stroke-miterlimit="10"
   x1="0"
   y1="64"
   x2="512"
   y2="64"
   id="line8"
   style="fill:none;stroke:#a9ccdb;stroke-miterlimit:10" />
		<line
   stroke-miterlimit="10"
   x1="0"
   y1="96"
   x2="512"
   y2="96"
   id="line10"
   style="fill:none;stroke:#a9ccdb;stroke-miterlimit:10" />
		<line
   stroke-miterlimit="10"
   x1="0"
   y1="128"
   x2="512"
   y2="128"
   id="line12"
   style="fill:none;stroke:#a9ccdb;stroke-miterlimit:10" />
		<line
   stroke-miterlimit="10"
   x1="0"
   y1="160"
   x2="512"
   y2="160"
   id="line14"
   style="fill:none;stroke:#a9ccdb;stroke-miterlimit:10" />
		<line
   stroke-miterlimit="10"
   x1="0"
   y1="192"
   x2="512"
   y2="192"
   id="line16"
   style="fill:none;stroke:#a9ccdb;stroke-miterlimit:10" />
		<line
   stroke-miterlimit="10"
   x1="0"
   y1="224"
   x2="512"
   y2="224"
   id="line18"
   style="fill:none;stroke:#a9ccdb;stroke-miterlimit:10" />
		<line
   stroke-miterlimit="10"
   x1="0"
   y1="256"
   x2="512"
   y2="256"
   id="line20"
   style="fill:none;stroke:#a9ccdb;stroke-miterlimit:10" />
		<line
   stroke-miterlimit="10"
   x1="0"
   y1="288"
   x2="512"
   y2="288"
   id="line22"
   style="fill:none;stroke:#a9ccdb;stroke-miterlimit:10" />
		<line
   stroke-miterlimit="10"
   x1="0"
   y1="320"
   x2="512"
   y2="320"
   id="line24"
   style="fill:none;stroke:#a9ccdb;stroke-miterlimit:10" />
		<line
   stroke-miterlimit="10"
   x1="0"
   y1="352"
   x2="512"
   y2="352"
   id="line26"
   style="fill:none;stroke:#a9ccdb;stroke-miterlimit:10" />
		<line
   stroke-miterlimit="10"
   x1="0"
   y1="384"
   x2="512"
   y2="384"
   id="line28"
   style="fill:none;stroke:#a9ccdb;stroke-miterlimit:10" />
		<line
   stroke-miterlimit="10"
   x1="0"
   y1="416"
   x2="512"
   y2="416"
   id="line30"
   style="fill:none;stroke:#a9ccdb;stroke-miterlimit:10" />
		<line
   stroke-miterlimit="10"
   x1="0"
   y1="448"
   x2="512"
   y2="448"
   id="line32"
   style="fill:none;stroke:#ff0000;stroke-miterlimit:10" />
		<line
   stroke-miterlimit="10"
   x1="0"
   y1="480"
   x2="512"
   y2="480"
   id="line34"
   style="fill:none;stroke:#a9ccdb;stroke-miterlimit:10" />
		<line
   stroke-miterlimit="10"
   x1="32"
   y1="0"
   x2="32"
   y2="512"
   id="line36"
   style="fill:none;stroke:#a9ccdb;stroke-miterlimit:10" />
		<line
   stroke-miterlimit="10"
   x1="64"
   y1="0"
   x2="64"
   y2="512"
   id="line38"
   style="fill:none;stroke:#a9ccdb;stroke-miterlimit:10" />
		<line
   stroke-miterlimit="10"
   x1="96"
   y1="0"
   x2="96"
   y2="512"
   id="line40"
   style="fill:none;stroke:#a9ccdb;stroke-miterlimit:10" />
		<line
   stroke-miterlimit="10"
   x1="128"
   y1="0"
   x2="128"
   y2="512"
   id="line42"
   style="fill:none;stroke:#a9ccdb;stroke-miterlimit:10" />
		<line
   stroke-miterlimit="10"
   x1="160"
   y1="0"
   x2="160"
   y2="512"
   id="line44"
   style="fill:none;stroke:#a9ccdb;stroke-miterlimit:10" />
		<line
   stroke-miterlimit="10"
   x1="192"
   y1="0"
   x2="192"
   y2="512"
   id="line46"
   style="fill:none;stroke:#a9ccdb;stroke-miterlimit:10" />
		<line
   stroke-miterlimit="10"
   x1="224"
   y1="0"
   x2="224"
   y2="512"
   id="line48"
   style="fill:none;stroke:#a9ccdb;stroke-miterlimit:10" />
		<line
   stroke-miterlimit="10"
   x1="256"
   y1="0"
   x2="256"
   y2="512"
   id="line50"
   style="fill:none;stroke:#a9ccdb;stroke-miterlimit:10" />
		<line
   stroke-miterlimit="10"
   x1="288"
   y1="0"
   x2="288"
   y2="512"
   id="line52"
   style="fill:none;stroke:#a9ccdb;stroke-miterlimit:10" />
		<line
   stroke-miterlimit="10"
   x1="320"
   y1="0"
   x2="320"
   y2="512"
   id="line54"
   style="fill:none;stroke:#a9ccdb;stroke-miterlimit:10" />
		<line
   stroke-miterlimit="10"
   x1="352"
   y1="0"
   x2="352"
   y2="512"
   id="line56"
   style="fill:none;stroke:#a9ccdb;stroke-miterlimit:10" />
		<line
   stroke-miterlimit="10"
   x1="384"
   y1="0"
   x2="384"
   y2="512"
   id="line58"
   style="fill:none;stroke:#a9ccdb;stroke-miterlimit:10" />
		<line
   stroke-miterlimit="10"
   x1="416"
   y1="0"
   x2="416"
   y2="512"
   id="line60"
   style="fill:none;stroke:#a9ccdb;stroke-miterlimit:10" />
		<line
   stroke-miterlimit="10"
   x1="448"
   y1="0"
   x2="448"
   y2="512"
   id="line62"
   style="fill:none;stroke:#a9ccdb;stroke-miterlimit:10" />
		<line
   stroke-miterlimit="10"
   x1="480"
   y1="0"
   x2="480"
   y2="512"
   id="line64"
   style="fill:none;stroke:#a9ccdb;stroke-miterlimit:10" />
	</g>
	
<path
   style="fill:#7f94e7"
   d="m 634.3915,77.993224 c -20.3244,5.989634 -47.26827,34.423516 -69.84834,52.925226 -18.21589,14.92581 -42.5211,39.15937 -48.67312,48.52968 -8.31747,12.66845 -22.93875,45.13273 -22.93875,50.93174 0,12.26616 25.27608,22.59109 55.30436,22.59109 7.27032,0 14.45147,-2.02533 24.1963,-6.82416 12.04492,-5.93153 16.48642,-10.21318 33.95484,-32.73278 11.05349,-14.24973 23.86705,-31.7394 28.47453,-38.86594 18.49743,-28.61076 29.54504,-36.14758 43.05041,-29.36955 10.92313,5.48201 65.16497,47.97189 81.03431,71.96416 20.67845,31.26284 8.05119,112.52233 9.34585,172.44704 l 0.6093,28.2027 c -49.15253,4.05447 -88.6743,0.31206 -131.35827,0.74891 -115.69226,1.17606 -191.70415,-3.61124 -298.02103,3.03675 -26.49038,-1.58863 -63.65689,-0.3617 -87.67709,-3.89781 -58.64867,-8.9106 -84.45174,-70.02074 -94.23581,-99.66731 -6.84976,-20.75536 -3.92866,-56.167 6.54308,-79.31896 10.23605,-22.63087 18.23327,-33.05775 32.98103,-43.00103 10.22934,-6.89686 33.04195,-12.63974 42.04642,-12.63974 1.58636,0 1.74058,10.32791 16.95783,19.77382 15.21721,9.44595 30.27007,17.91181 33.4507,18.81303 2.65347,0.75185 12.80659,13.36336 25.78467,11.58039 4.78631,-3.62418 8.42632,-9.01319 12.84469,-14.88016 5.21478,-6.92447 10.87576,-14.51468 11.5607,-20.65493 1.83708,-19.33793 -11.03009,-43.38098 -23.77661,-47.70292 -35.97491,-28.46044 -6.95633,-33.50715 -65.92461,-50.993538 -16.88695,-3.343346 -32.08539,-19.333188 -45.07656,-20.560155 -38.63246,-3.02851 -40.15278,17.501097 -37.00409,33.581783 1.43844,7.34609 1.79939,15.67443 3.15456,25.66315 -28.29843,11.38075 -47.3024,25.14679 -64.4022,50.36902 -21.731923,35.91585 -33.521423,64.77369 -37.263453,96.40579 -1.962144,16.5864 -1.711669,33.93556 0.478233,53.465 2.663007,24.60814 16.535024,48.85259 31.10137,75.92411 10.32798,18.96311 36.34114,34.33854 51.49087,45.905 9.974,6.95271 42.87488,26.30975 43.76624,41.22601 -2.02402,30.33692 -6.75126,61.14285 -11.80375,83.47402 -10.81832,63.69598 -20.41223,124.14855 -28.90079,182.09613 -3.01142,20.55754 -5.88371,40.79981 -8.62221,60.75978 -3.01707,22.95859 -13.53637,54.32107 -5.57416,67.20204 9.60617,14.28693 23.64038,22.31109 39.02203,22.31109 28.1131,0 23.26925,-12.28935 31.55389,-70.65011 20.68119,-81.19826 25.34968,-179.3596 41.41302,-234.36659 5.34097,-18.1599 9.60799,-74.45499 13.08882,-74.45499 3.37678,0 22.31312,19.27703 74.55596,48.54384 24.79319,13.8893 44.23189,29.88802 61.12792,41.68476 42.87158,29.9327 70.97567,45.32604 74.74426,55.72205 1.72201,4.75034 2.85552,31.79668 2.90146,69.23274 0.129,104.86053 -7.73085,203.95992 -0.14959,218.35874 6.57052,12.47941 19.06693,8.53584 38.79942,1.76901 22.24004,-7.62678 37.29364,-28.0617 37.53037,-175.01516 0.15943,-98.93517 2.34823,-79.18946 7.38938,-87.37106 10.09462,-16.38322 92.97083,-65.90003 105.49497,-71.03403 7.57318,16.1552 21.53375,27.80359 32.50083,40.55995 21.29632,24.97061 48.03894,52.96167 63.62463,74.8976 4.26983,6.09754 8.41414,11.98584 12.5282,17.69796 18.12497,25.16543 27.81598,39.06462 52.91252,60.21799 26.66534,25.11334 63.4491,53.14691 75.33587,45.45233 14.01305,-9.07098 5.42705,-48.81198 -12.0858,-77.94467 -22.69408,-37.00011 -61.81524,-76.43501 -83.04632,-100.4444 -42.07061,-47.46463 -86.64086,-90.80629 -82.43538,-100.78686 11.12258,-8.50053 23.13945,-15.45334 34.13745,-24.79343 22.36427,-18.99292 42.60964,-35.82233 65.06766,-58.43271 14.8814,-15.45813 22.52148,-21.95906 40.90317,-37.83671 18.67076,-0.82607 12.003,0.60802 25.63032,-0.27587 29.89548,4.71873 41.6506,-36.77601 23.21914,-54.41494 -1.33243,-1.02058 -20.60366,-5.28597 -29.89085,-5.62948 l -38.89703,-1.4387 -2.00084,-28.32564 c -4.05363,-57.38679 2.79065,-148.6038 -8.46351,-174.48758 -12.53671,-28.83351 -53.728,-63.26017 -87.69168,-94.52398 C 725.17262,90.887069 699.63768,71.597743 671.95707,69.7425 659.88942,68.933684 647.41394,71.438404 634.3915,77.993224 z M 769.1302,476.01508 c -7.01151,11.60689 -64.63731,51.70807 -75.50822,63.0074 -24.18538,25.1385 -35.22039,23.00614 -58.61258,40.12241 -20.24487,14.61327 -43.01356,27.94197 -61.417,34.97448 -7.11684,3.44756 -40.64515,22.16139 -46.08632,21.59978 -9.83854,-1.18431 -51.92912,-36.81798 -81.55455,-55.84734 -22.76848,-14.62492 -38.90067,-25.71306 -59.9952,-39.65825 -35.11326,-23.2127 -64.19613,-47.39421 -64.43907,-57.99668 0.87466,-1.08402 1.43016,-2.21693 17.20496,-1.23692 136.7279,-5.22176 237.58509,-4.07646 366.44469,-3.3641 30.69255,0.46545 41.61937,-4.95836 63.96329,-1.60078 z"
   id="path4611"
   inkscape:connector-curvature="0"
   sodipodi:nodetypes="cssssssssssccccsssssscsccccsccscccccsccsccssssssssscccscscccsccccscsscsccscccsscccc" />
	   
	   
</svg>