<?xml version="1.0" encoding="UTF-8" standalone="no"?>
<svg
   xmlns:dc="http://purl.org/dc/elements/1.1/"
   xmlns:cc="http://creativecommons.org/ns#"
   xmlns:rdf="http://www.w3.org/1999/02/22-rdf-syntax-ns#"
   xmlns:svg="http://www.w3.org/2000/svg"
   xmlns="http://www.w3.org/2000/svg"
   xmlns:sodipodi="http://sodipodi.sourceforge.net/DTD/sodipodi-0.dtd"
   xmlns:inkscape="http://www.inkscape.org/namespaces/inkscape"
   version="1.1"
   id="Layer_1"
   x="0px"
   y="0px"
   width="1000"
   height="1000"
   viewBox="0 0 1000 1000"
   enable-background="new 0 0 512 512"
   xml:space="preserve"
   inkscape:version="0.48.0 r9654"
   sodipodi:docname="uni2FC3-x2fc3.svg"><metadata
   id="metadata72"><rdf:RDF><cc:Work
       rdf:about=""><dc:format>image/svg+xml</dc:format><dc:type
         rdf:resource="http://purl.org/dc/dcmitype/StillImage" /></cc:Work></rdf:RDF></metadata><defs
   id="defs70" /><sodipodi:namedview
   pagecolor="#ffffff"
   bordercolor="#666666"
   borderopacity="1"
   objecttolerance="10"
   gridtolerance="10"
   guidetolerance="10"
   inkscape:pageopacity="0"
   inkscape:pageshadow="2"
   inkscape:window-width="1152"
   inkscape:window-height="814"
   id="namedview68"
   showgrid="false"
   inkscape:zoom="1"
   inkscape:cx="224.33701"
   inkscape:cy="706.85763"
   inkscape:window-x="-8"
   inkscape:window-y="-8"
   inkscape:window-maximized="1"
   inkscape:current-layer="Layer_1" />
	<g
   id="Grid"
   transform="matrix(1.9559636,0,0,1.952167,0.48404577,0.01535327)">
		<rect
   x="0"
   stroke-miterlimit="10"
   width="512"
   height="512"
   id="rect4"
   y="0"
   style="fill:none;stroke:#a9ccdb;stroke-miterlimit:10" />
		<line
   stroke-miterlimit="10"
   x1="0"
   y1="32"
   x2="512"
   y2="32"
   id="line6"
   style="fill:none;stroke:#a9ccdb;stroke-miterlimit:10" />
		<line
   stroke-miterlimit="10"
   x1="0"
   y1="64"
   x2="512"
   y2="64"
   id="line8"
   style="fill:none;stroke:#a9ccdb;stroke-miterlimit:10" />
		<line
   stroke-miterlimit="10"
   x1="0"
   y1="96"
   x2="512"
   y2="96"
   id="line10"
   style="fill:none;stroke:#a9ccdb;stroke-miterlimit:10" />
		<line
   stroke-miterlimit="10"
   x1="0"
   y1="128"
   x2="512"
   y2="128"
   id="line12"
   style="fill:none;stroke:#a9ccdb;stroke-miterlimit:10" />
		<line
   stroke-miterlimit="10"
   x1="0"
   y1="160"
   x2="512"
   y2="160"
   id="line14"
   style="fill:none;stroke:#a9ccdb;stroke-miterlimit:10" />
		<line
   stroke-miterlimit="10"
   x1="0"
   y1="192"
   x2="512"
   y2="192"
   id="line16"
   style="fill:none;stroke:#a9ccdb;stroke-miterlimit:10" />
		<line
   stroke-miterlimit="10"
   x1="0"
   y1="224"
   x2="512"
   y2="224"
   id="line18"
   style="fill:none;stroke:#a9ccdb;stroke-miterlimit:10" />
		<line
   stroke-miterlimit="10"
   x1="0"
   y1="256"
   x2="512"
   y2="256"
   id="line20"
   style="fill:none;stroke:#a9ccdb;stroke-miterlimit:10" />
		<line
   stroke-miterlimit="10"
   x1="0"
   y1="288"
   x2="512"
   y2="288"
   id="line22"
   style="fill:none;stroke:#a9ccdb;stroke-miterlimit:10" />
		<line
   stroke-miterlimit="10"
   x1="0"
   y1="320"
   x2="512"
   y2="320"
   id="line24"
   style="fill:none;stroke:#a9ccdb;stroke-miterlimit:10" />
		<line
   stroke-miterlimit="10"
   x1="0"
   y1="352"
   x2="512"
   y2="352"
   id="line26"
   style="fill:none;stroke:#a9ccdb;stroke-miterlimit:10" />
		<line
   stroke-miterlimit="10"
   x1="0"
   y1="384"
   x2="512"
   y2="384"
   id="line28"
   style="fill:none;stroke:#a9ccdb;stroke-miterlimit:10" />
		<line
   stroke-miterlimit="10"
   x1="0"
   y1="416"
   x2="512"
   y2="416"
   id="line30"
   style="fill:none;stroke:#a9ccdb;stroke-miterlimit:10" />
		<line
   stroke-miterlimit="10"
   x1="0"
   y1="448"
   x2="512"
   y2="448"
   id="line32"
   style="fill:none;stroke:#ff0000;stroke-miterlimit:10" />
		<line
   stroke-miterlimit="10"
   x1="0"
   y1="480"
   x2="512"
   y2="480"
   id="line34"
   style="fill:none;stroke:#a9ccdb;stroke-miterlimit:10" />
		<line
   stroke-miterlimit="10"
   x1="32"
   y1="0"
   x2="32"
   y2="512"
   id="line36"
   style="fill:none;stroke:#a9ccdb;stroke-miterlimit:10" />
		<line
   stroke-miterlimit="10"
   x1="64"
   y1="0"
   x2="64"
   y2="512"
   id="line38"
   style="fill:none;stroke:#a9ccdb;stroke-miterlimit:10" />
		<line
   stroke-miterlimit="10"
   x1="96"
   y1="0"
   x2="96"
   y2="512"
   id="line40"
   style="fill:none;stroke:#a9ccdb;stroke-miterlimit:10" />
		<line
   stroke-miterlimit="10"
   x1="128"
   y1="0"
   x2="128"
   y2="512"
   id="line42"
   style="fill:none;stroke:#a9ccdb;stroke-miterlimit:10" />
		<line
   stroke-miterlimit="10"
   x1="160"
   y1="0"
   x2="160"
   y2="512"
   id="line44"
   style="fill:none;stroke:#a9ccdb;stroke-miterlimit:10" />
		<line
   stroke-miterlimit="10"
   x1="192"
   y1="0"
   x2="192"
   y2="512"
   id="line46"
   style="fill:none;stroke:#a9ccdb;stroke-miterlimit:10" />
		<line
   stroke-miterlimit="10"
   x1="224"
   y1="0"
   x2="224"
   y2="512"
   id="line48"
   style="fill:none;stroke:#a9ccdb;stroke-miterlimit:10" />
		<line
   stroke-miterlimit="10"
   x1="256"
   y1="0"
   x2="256"
   y2="512"
   id="line50"
   style="fill:none;stroke:#a9ccdb;stroke-miterlimit:10" />
		<line
   stroke-miterlimit="10"
   x1="288"
   y1="0"
   x2="288"
   y2="512"
   id="line52"
   style="fill:none;stroke:#a9ccdb;stroke-miterlimit:10" />
		<line
   stroke-miterlimit="10"
   x1="320"
   y1="0"
   x2="320"
   y2="512"
   id="line54"
   style="fill:none;stroke:#a9ccdb;stroke-miterlimit:10" />
		<line
   stroke-miterlimit="10"
   x1="352"
   y1="0"
   x2="352"
   y2="512"
   id="line56"
   style="fill:none;stroke:#a9ccdb;stroke-miterlimit:10" />
		<line
   stroke-miterlimit="10"
   x1="384"
   y1="0"
   x2="384"
   y2="512"
   id="line58"
   style="fill:none;stroke:#a9ccdb;stroke-miterlimit:10" />
		<line
   stroke-miterlimit="10"
   x1="416"
   y1="0"
   x2="416"
   y2="512"
   id="line60"
   style="fill:none;stroke:#a9ccdb;stroke-miterlimit:10" />
		<line
   stroke-miterlimit="10"
   x1="448"
   y1="0"
   x2="448"
   y2="512"
   id="line62"
   style="fill:none;stroke:#a9ccdb;stroke-miterlimit:10" />
		<line
   stroke-miterlimit="10"
   x1="480"
   y1="0"
   x2="480"
   y2="512"
   id="line64"
   style="fill:none;stroke:#a9ccdb;stroke-miterlimit:10" />
	</g>
<path
   d="M 294 119.3125 C 284.60936 119.3892 275.36718 121.11675 268.28125 124.53125 C 260.74057 128.1233 254.9701 131.58947 248.5625 138.65625 C 236.3011 152.17902 229.2537 173.25346 227.71875 186.03125 C 225.93376 199.02229 228.31376 210.69166 232.84375 221.5625 C 237.53964 232.83143 244.52133 243.23347 251.46875 253.34375 C 261.15258 267.58943 271.29991 283.44769 274.46875 293.625 C 275.17993 296.6712 277.57838 305.58702 279.8125 313.4375 C 284.57947 330.18786 283.58107 351.91688 277.25 368.8125 C 275.1078 374.52933 273.5 383.79976 273.5 390.375 L 273.5 401.90625 L 250.96875 421.25 C 245.31952 426.87927 239.85549 432.31791 234.6875 437.71875 C 216.85677 456.35286 202.57055 474.62249 196.375 499.46875 C 192.21131 521.46677 189.88831 540.70772 191.59375 561.5 C 192.61217 581.9752 195.98824 606.66005 201.125 624.34375 C 205.46055 638.35689 214.00881 656.60855 220.96875 668.0625 C 219.64098 673.38175 218.255 678.56588 216.75 683.90625 C 214.96894 690.2263 213.00133 696.76419 210.8125 703.96875 C 208.72735 710.64218 205.07083 716.98563 204.78125 723.15625 C 202.99278 732.7918 210.87142 735.45493 220.4375 734.75 C 222.92761 734.64908 225.24736 734.16025 227.40625 733.46875 C 228.45893 733.01906 229.38966 732.44753 230.3125 731.84375 C 238.66711 726.4033 260.72085 712.36526 264.78125 711.625 C 275.47611 712.12715 283.25201 709.61762 300.375 713.0625 C 312.76403 715.55498 334.70716 723.14957 343.8125 727.75 C 352.36156 732.06939 354.91569 739.5638 357.5 745.0625 C 360.23474 751.63257 355.70886 762.71816 355.15625 769.625 C 348.6831 789.08694 332.73454 802.39103 312.96875 812.96875 C 294.3057 822.95633 271.89661 829.46192 249.53125 832.65625 C 227.90728 835.74469 205.82358 834.23694 187.78125 831.28125 C 180.54242 830.09539 174.38142 829.93735 168.5 827.8125 C 159.16723 823.37902 151.71637 817.95825 155.0625 810.625 C 161.84544 801.67267 177.72276 791.18151 188.84375 784.78125 C 202.77026 772.59442 202.7979 768.22107 216.125 750.1875 C 216.71681 746.64533 210.85905 744.56906 208.125 741.5 C 204.8337 737.80543 204.20771 733.48879 200.21875 734.09375 C 195.52041 734.80628 193.13367 745.0752 191.4375 745.65625 C 180.78094 760.94054 170.61361 771.00881 158.125 780.59375 C 150.62017 786.35368 140.51324 791.3783 133.9375 798.8125 C 129.2125 804.03147 124.1003 807.64105 123.625 814.28125 C 123.7067 816.73246 124.06628 819.05579 124.65625 820.96875 C 130.94109 830.86116 142.54113 841.347 154.40625 845.125 C 166.2577 849.55256 178.15562 853.01611 190.09375 855.46875 C 200.18745 857.57405 210.14842 858.79403 219.96875 859.25 C 230.51204 859.73953 240.89673 859.3399 251.09375 858.28125 C 272.6857 855.99061 294.03544 850.72128 313.1875 842.5625 C 325.73679 838.55347 336.67041 834.30771 344.84375 830.125 C 355.99162 836.48321 365.86493 843.49843 376.4375 848.1875 C 395.74655 856.74586 418.0555 864.66908 438.65625 869.0625 C 458.69376 873.3358 476.73161 874.16712 495.375 870.625 C 497.70055 870.00597 499.99442 869.38407 502.21875 868.75 C 524.40601 862.42523 541.66188 855.20301 556.375 843.9375 C 575.54991 826.47414 590.43047 807.64095 601.75 787.75 C 610.45177 772.45905 617.04565 756.52198 621.875 740.125 C 625.42706 730.08043 627.22616 718.59492 637.21875 713 C 651.08753 706.95843 667.45295 703.46087 681.0625 699.1875 C 721.26118 685.56688 777.41983 670.30185 810.15625 646.59375 C 813.6671 643.88835 813.70542 643.4902 810.59375 640.5625 C 804.17653 637.27843 801.73625 634.51319 796.0625 630.9375 C 755.82913 610.65403 720.1609 587.53344 681.125 572.46875 C 675.54214 570.31422 669.86846 569.57462 664.125 567.78125 C 660.86736 567.15622 659.59655 569.89814 658.21875 572.375 C 656.38145 575.67786 655.12509 579.14019 656.09375 579.71875 C 663.66886 583.33861 671.2704 585.54 679.0625 588.09375 C 688.89805 590.62977 697.18664 595.93082 705.09375 600.40625 C 706.58556 604.60557 703.60563 609.28837 710.8125 609.25 C 716.80173 609.2071 719.73979 610.1822 722.46875 613.09375 C 725.51092 616.33949 728.01003 616.96875 737.65625 616.96875 C 744.53755 617.85125 758.5848 625.50335 768.8125 631.90625 C 777.94642 637.62439 783.93932 641.51573 780.71875 645.59375 C 751.8079 663.84195 711.65445 676.79405 678.28125 686.78125 C 664.37024 690.00201 649.79367 696.63577 636.125 697.28125 C 628.54133 696.22762 620.98144 695.79173 619.5625 699.96875 C 616.18195 709.92041 610.04541 726.00148 604.8125 738.875 C 592.72951 768.43851 579.46845 798.46966 555.71875 819.71875 C 537.61286 833.77487 519.62787 842.82372 501.40625 847.65625 C 480.12674 851.89526 458.57625 852.06434 438 848.4375 C 416.29014 844.61085 395.68294 836.57776 377.59375 824.625 C 370.41799 819.89669 364.81966 815.17933 357.96875 809.65625 L 361.90625 797.25 C 364.06798 790.42486 367.67265 780.07854 369.90625 774.25 C 372.46927 767.56181 373.69037 760.56043 373.25 755.25 C 372.86622 750.62215 373.14148 747.12905 373.84375 747.5 C 375.0764 748.15106 375.74542 746.01033 379.4375 729.46875 C 380.37891 725.25094 382.24972 717.56135 383.59375 712.40625 C 385.45681 705.26041 385.48418 702.02937 383.71875 698.78125 C 379.96913 691.88259 376.34544 686.91038 371.9375 682.59375 C 365.93284 672.69127 366.98716 678.70551 373.21875 668.625 C 374.60779 666.41504 374.81933 664.51667 373.71875 663.9375 C 374.29514 654.43771 378.85234 647.61986 381.8125 637.9375 C 387.71572 626.85283 391.21725 620.23088 397.8125 608.90625 C 400.81206 603.63022 401.72486 599.63902 400.90625 595.34375 C 399.58241 588.39747 403.47214 580.58509 409.625 577.78125 C 414.61183 575.50874 414.67045 572.51896 409.84375 569 C 405.34339 565.71897 405.61414 553.52644 410.28125 549.09375 C 412.91425 546.59299 412.82588 545.57369 409.5 540.28125 C 407.43845 537.00074 405.65625 536.53125 405.65625 536.53125 C 405.65625 536.53125 405.71615 536.35461 404.34375 536.5 C 403.85289 536.5519 402.03734 536.66678 400.28125 536.96875 C 398.72115 537.23708 397.19455 537.57314 396.6875 537.78125 C 396.11298 538.01703 395.71667 539.28198 396.15625 539.65625 C 398.05366 541.27186 372.72291 555.11483 369.28125 554.34375 C 368.58516 554.18779 368.12125 554.99013 368.21875 556.125 C 368.31615 557.25984 367.65607 560.97402 366.78125 564.375 C 365.62893 568.85466 366.07183 571.98887 368.375 575.78125 C 370.12358 578.66044 371.5625 582.82894 371.5625 585.03125 C 371.5625 587.23356 372.68652 590.08105 374.0625 591.34375 C 376.0996 593.21315 375.93582 593.43544 373.21875 592.625 C 371.28383 592.04787 369.42116 592.6737 368.78125 594.09375 C 368.17432 595.4405 366.53553 596.55876 365.125 596.59375 C 363.71448 596.62875 360.31443 599.44888 357.5625 602.84375 L 352.5625 609 L 360.5625 616.28125 C 364.96561 620.27575 370.36093 623.87862 372.5625 624.3125 C 376.31124 625.05134 376.28396 625.12736 372.25 625.3125 C 367.44055 625.53321 364.58471 630.6671 360.75 645.9375 C 358.77948 653.7844 357.50799 655.55015 352.875 656.9375 C 348.99277 658.10003 346.19459 657.98076 343.46875 656.53125 C 341.33568 655.39697 337.55418 654.47399 335.0625 654.46875 C 326.1466 654.45005 315.75834 650.96962 314.5 647.59375 C 312.45119 642.09724 315.28685 637.76344 324.96875 631.46875 C 330.25443 626.93207 340.28682 619.99736 341.15625 612.6875 C 340.76831 612.35718 337.91024 611.69702 334.8125 611.21875 C 324.65501 609.6504 316.48439 604.7245 320.3125 599.125 C 320.15245 599.24035 314.95581 602.9706 309.46875 605.90625 C 299.4915 611.24418 293.5 616.40177 293.5 619.65625 C 293.32342 621.11003 293.91707 622.76741 294.84375 624.34375 C 295.9043 626.14777 297.40524 627.86329 298.6875 629.09375 C 300.92282 631.19686 301.32017 632.92883 300 634.9375 C 296.96529 639.55482 279.07878 650.83053 276.25 649.90625 C 272.15556 648.56841 271.0098 643.01849 273.5 636.59375 C 270.17853 623.40852 264.72406 623.70001 258.8125 628.21875 C 252.06785 633.3743 244.71216 644.03401 239.15625 646.4375 C 234.1616 641.86153 229.61282 634.6369 225.53125 624.8125 C 216.98268 604.23594 214.67572 574.71491 213.15625 561 C 212.51677 540.14304 211.5569 517.45352 218.53125 499.09375 C 225.29218 481.68353 237.91864 466.19486 251 451.1875 C 255.11426 446.04986 258.26777 442.10982 263.25 438 C 270.2749 432.20517 278.45675 428.04963 288.59375 427.3125 C 291.31124 431.19915 293.26917 434.36476 295.25 437 C 299.06913 442.08083 302.98486 445.19998 312.625 447.78125 C 323.11522 450.4339 333.9927 451.0842 343.84375 450.09375 C 357.96422 447.83153 368.05671 444.8091 376.53125 438.375 C 381.92464 434.28019 386.66925 428.77901 391.375 421.25 C 404.27199 404.33237 392.73509 386.63937 382.09375 379.9375 C 378.37901 377.61611 373.53825 373.34951 371.125 371.0625 C 370.6664 370.62789 369.92291 370.20138 369.40625 369.78125 C 369.40122 369.77716 369.41124 369.75409 369.40625 369.75 C 369.37252 369.70348 369.31178 369.64633 369.25 369.59375 C 369.24329 369.58804 369.22536 369.59942 369.21875 369.59375 C 369.16392 369.52055 369.11798 369.47209 369.0625 369.40625 C 368.91265 369.22842 368.78648 369.10239 368.6875 369 C 368.67011 368.9795 368.67174 368.95652 368.65625 368.9375 C 368.63697 368.90836 368.64187 368.87285 368.625 368.84375 C 368.64334 368.78706 368.51379 368.51032 368.375 368.1875 C 368.34946 368.0424 368.3014 367.86891 368.28125 367.6875 C 368.27036 367.56008 368.24885 367.44084 368.25 367.3125 C 368.25285 366.99379 368.28087 366.67408 368.25 366.40625 C 368.244 366.35395 368.255 366.30182 368.25 366.25 C 368.3259 364.75725 368.85961 363.19608 369.6875 361.875 C 369.7254 361.8295 369.775 361.7959 369.8125 361.75 C 369.979 361.54615 370.12292 361.32669 370.28125 361.125 C 370.30475 361.1025 370.32155 361.0836 370.34375 361.0625 C 370.37225 361.0262 370.4093 361.00445 370.4375 360.96875 C 370.80952 360.49656 371.16961 360.06312 371.5 359.78125 C 371.40372 359.84159 371.46716 359.79156 371.53125 359.75 C 371.53632 359.74583 371.52619 359.72283 371.53125 359.71875 C 371.56347 359.7079 371.55062 359.71991 371.5625 359.71875 C 371.55817 359.72232 371.56788 359.74605 371.5625 359.75 C 371.57362 359.74181 371.58255 359.72692 371.59375 359.71875 C 371.60398 359.71032 371.62056 359.69069 371.625 359.6875 C 372.76353 358.86486 374.30674 358.16504 375.5625 357.96875 C 375.6492 357.97575 375.78478 357.9597 375.90625 357.9375 C 376.37176 357.81647 376.63232 357.75735 376.75 357.6875 C 376.76 357.6835 376.77155 357.66005 376.78125 357.65625 C 376.96001 357.58555 377.155 357.52156 377.46875 357.4375 C 396.45177 352.35304 419.70931 349.92855 435.90625 349 C 456.98022 347.85654 479.48409 348.30852 500.53125 348.5625 C 521.78972 348.83093 542.95977 349.38003 563.96875 350.09375 C 606.71987 351.54612 648.74414 353.71945 689.09375 355.8125 C 709.86879 356.91719 730.43852 358.37772 750.9375 360.53125 C 772.28759 362.76684 792.99606 364.37908 813.5625 367.71875 C 825.20383 369.60912 833.3043 373.5536 844.96875 375.46875 C 814.15948 394.58358 809.57217 398.59522 790.5625 410.53125 C 784.27953 414.38904 795.16422 426.74899 801.625 421.6875 C 827.08179 407.08824 854.41785 389.2068 875.375 373.40625 C 867.57648 364.95697 836.30359 353.41634 814.28125 350.625 C 788.28094 347.98731 773.94324 345.00171 749.8125 342.96875 C 729.79278 342.63674 709.12732 339.21201 688.9375 338.125 C 645.20929 336.61797 603.34407 333.28835 562.53125 332.3125 C 541.2089 333.5596 521.65779 331.87338 501.59375 331.0625 C 481.09125 330.2339 457.91694 329.42256 437.9375 330.5 C 416.62398 331.53282 396.24688 336.00944 377.1875 339.5625 C 368.22826 343.22675 357.36786 347.75588 353.8125 355.125 C 351.36792 360.45458 350.09613 367.52596 350.1875 367.875 C 350.1935 367.8985 350.1598 367.9184 350.125 367.9375 C 349.31672 381.50334 368.91869 389.27673 376.03125 398.90625 C 378.75546 402.5945 379.6683 406.55789 376.875 411.21875 C 368.66547 422.21779 350.29188 431.8026 343.28125 432.53125 C 330.44729 432.49265 315.53704 427.0754 308.75 420.03125 C 304.87218 412.70593 303.4215 403.24597 305.90625 395.65625 C 305.97485 395.46291 306.06907 395.14247 306.15625 394.96875 C 306.11245 394.94265 306.11815 394.87325 306.09375 394.8125 C 306.07285 394.7522 306.0967 394.68435 306.0625 394.65625 C 306.0545 394.64585 306.03825 394.6361 306.03125 394.625 C 306.00495 394.5354 305.94435 394.31335 305.90625 394.15625 C 305.87545 393.96278 305.85205 393.75707 305.78125 393.59375 C 305.84365 393.48646 304.40814 383.66602 303.59375 380.84375 C 302.64501 377.55588 302.74992 373.78484 302.3125 372.59375 C 302.13593 372.1128 301.69713 371.55918 301.65625 371.0625 C 301.51634 369.36322 301.47528 367.71994 301.6875 366.34375 C 301.98984 364.38464 302.60991 362.94482 302.59375 362.53125 C 302.53885 361.12505 303.67416 357.82132 305.5625 355.3125 C 306.77755 353.6982 305.8733 351.7305 305.84375 350.96875 C 305.65468 346.09407 306.18893 344.67935 305.9375 341.5625 C 305.72276 338.89897 305.33446 338.44618 305.25 335.125 C 305.10115 332.5573 305.56311 331.40903 305.875 328.71875 C 306.10999 326.6918 305.31958 327.26446 304.78125 325.8125 C 303.10716 321.29715 304.37688 315.48813 303.78125 310.9375 C 302.94078 304.51616 300.34222 299.34628 297.375 292.96875 C 290.27809 277.4079 282.58057 262.69448 278.15625 251.09375 C 276.57763 247.21206 274.52435 241.38087 274.46875 236.6875 C 274.43065 233.46926 275.32561 230.77626 277.9375 229.59375 C 285.66657 226.32082 301.24422 225.69678 307.90625 225.40625 C 314.17868 225.1341 320.1691 224.91056 325.1875 221.15625 C 326.87347 219.45882 325.41382 217.78478 324.40625 216.46875 C 324.64586 216.1205 320.60015 215.47351 315.53125 215.34375 C 319.13746 215.31635 322.77334 215.51076 326.3125 215.9375 C 328.33479 216.0989 330.50274 215.65552 332.3125 214.78125 C 335.33872 212.99695 334.89907 211.40278 334.34375 210 C 333.6602 208.27327 332.16435 206.91214 329.03125 206.46875 C 324.9648 205.87527 316.37911 204.73476 312.71875 204.6875 C 299.91095 205.56532 292.87169 205.10852 281.21875 202.59375 C 271.44324 200.17205 259.09669 196.27695 254.78125 188.625 C 253.59956 184.36345 253.38696 180.20828 253.96875 176.21875 C 258.41526 162.63714 268.80429 149.89413 281.3125 142.6875 C 289.0569 138.22554 297.62213 135.88168 306.09375 136.78125 C 320.8229 138.00185 318.46606 124.78202 306.71875 120.21875 C 302.57843 119.58292 298.26847 119.27764 294 119.3125 z M 350.125 367.9375 C 350.128 367.895 350.122 367.8551 350.125 367.8125 C 349.74214 367.8125 349.39395 367.97911 349 368.25 C 349.46013 368.06942 349.96886 368.02319 350.125 367.9375 z M 306.9375 215.875 C 305.51511 216.16719 304.21343 216.51173 302.96875 216.78125 C 301.20297 217.42023 301.91842 216.91557 303.625 216.375 C 304.71693 216.18327 305.82688 216.01255 306.9375 215.875 z M 305.375 329 C 305.6003 329.0344 305.06409 329.45991 304.875 330.3125 C 304.99018 329.48482 305.14937 328.9695 305.375 329 z M 304.78125 353.625 C 304.81395 353.7176 304.8388 353.80741 304.875 353.84375 C 305.12787 354.09668 304.8524 354.34717 304.71875 354.65625 C 304.73845 354.38766 304.76995 353.98003 304.78125 353.625 z M 348.96875 368.28125 C 348.92905 368.29755 348.88205 368.2944 348.84375 368.3125 C 348.14948 368.64383 347.625 369.21875 347.625 369.21875 C 348.15679 368.8793 348.5829 368.54945 348.96875 368.28125 z M 347.625 369.21875 C 346.69072 369.81511 345.49521 370.79434 344.40625 371.71875 C 344.40625 371.71875 348.06881 368.87622 347.625 369.21875 z M 300.90625 370.9375 C 300.96035 371.06872 301.04519 371.22632 301.0625 371.3125 C 301.1061 371.52938 301.1616 371.76847 301.21875 372 C 301.10108 371.66414 300.99698 371.30807 300.90625 370.9375 z M 540.71875 371.8125 C 535.02497 371.791 531.43665 374.50804 534.125 379.5 C 536.35798 383.64635 549.38814 389.26697 554.71875 388.375 C 556.6615 388.04992 559.23675 386.43602 560.4375 384.8125 C 562.23344 382.38417 561.44338 381.02079 555.875 377.0625 C 550.87349 373.5072 545.14725 371.82919 540.71875 371.8125 z M 302.9375 378.15625 C 303.06778 378.7618 303.17724 379.35433 303.21875 379.90625 C 303.12565 379.29603 303.03764 378.73295 302.9375 378.15625 z M 335.46875 379.5 C 333.8128 380.96413 332.28866 382.00121 331.09375 382.75 C 332.59991 381.8391 334.27616 380.76157 335.46875 379.5 z M 475.75 383.03125 C 470.84263 383.11005 466.25329 386.66709 463.75 390.125 C 462.07323 392.4412 461.11631 395.61711 461.09375 399.75 C 461.39444 405.87748 464.09265 410.20619 467.96875 412.53125 C 472.06329 414.98735 477.46307 415.21141 482.625 412.96875 C 486.84161 411.04002 490.04208 407.19701 491.46875 401.6875 C 492.41539 395.25142 489.91343 389.86438 485.75 386.5625 C 482.97415 384.36105 479.47188 383.07751 475.75 383.03125 z M 328.84375 384.15625 C 328.47588 384.38552 328.09804 384.62388 327.71875 384.84375 C 327.86324 384.75965 328.03959 384.67597 328.1875 384.59375 C 328.41974 384.44251 328.61141 384.30178 328.84375 384.15625 z M 450.9375 384.21875 C 448.58271 384.17775 444.42631 386.30683 438.5 386.375 C 432.99828 385.83537 426.87411 387.14996 421.5 387.3125 C 413.53294 387.1807 406.82279 386.69146 411.8125 393.90625 C 414.01895 397.54497 416.81765 401.36686 416.84375 403.40625 C 416.90235 407.97287 407.07737 427.09989 410.8125 431.5625 C 413.18056 434.18551 427.97497 425.86723 438.21875 420.6875 C 442.18385 418.68255 445.47669 417.15103 447.09375 416.90625 C 451.57755 416.17741 459.9841 416.33601 456.125 410.9375 C 456.23223 403.03044 452.48437 389.18531 453.21875 387.5625 C 453.11565 385.06295 452.35038 384.24337 450.9375 384.21875 z M 319.59375 389.40625 C 319.09654 389.67168 318.61183 389.90869 318.125 390.15625 C 318.51859 389.96204 318.91799 389.7615 319.3125 389.59375 C 319.41 389.55225 319.50294 389.47287 319.59375 389.40625 z M 313 392.46875 C 312.88435 392.52735 312.83304 392.5363 312.78125 392.5625 C 312.59413 392.6576 312.69265 392.6093 312.375 392.8125 C 312.26818 392.8911 312.12984 392.97721 311.96875 393.03125 C 312.07206 393.00315 312.21922 392.95605 312.375 392.84375 C 312.50433 392.75055 312.64161 392.67776 312.78125 392.59375 C 312.85255 392.55085 312.92599 392.50995 313 392.46875 z M 311.96875 393.03125 C 311.94125 393.03825 311.8937 393.02225 311.875 393.03125 C 311.7855 393.07445 311.70729 393.1022 311.625 393.125 C 311.7098 393.1008 311.79541 393.0872 311.875 393.0625 C 311.9069 393.0525 311.93825 393.04135 311.96875 393.03125 z M 311.03125 393.3125 C 310.81627 393.3969 310.68159 393.48961 310.5 393.59375 C 310.36905 393.66885 310.27851 393.74338 310.15625 393.8125 C 310.2618 393.7524 310.40344 393.68181 310.5 393.625 C 310.68464 393.51635 310.85236 393.40232 311.03125 393.3125 z M 309.8125 394 C 309.69335 394.0556 309.58221 394.091 309.4375 394.15625 C 309.09261 394.31184 308.7347 394.46606 308.375 394.59375 C 308.55709 394.53575 308.7501 394.47663 308.90625 394.40625 C 309.18213 394.2819 309.5569 394.1569 309.8125 394 z M 774.4375 414 C 773.63976 414.0419 773.01193 414.2143 772.6875 414.53125 C 771.91888 415.28214 768.74837 418.53122 769.90625 421.4375 C 777.37173 427.01886 784.72155 432.94519 791.875 439.0625 C 808.27701 453.08881 823.64217 468.15714 836.8125 482.5625 C 839.83979 488.43287 834.60345 494.84445 827.09375 495.84375 C 822.70566 496.36132 817.74146 494.36378 811.53125 493.5625 C 793.07652 490.00962 775.74206 485.31732 758.75 482.0625 C 741.13579 478.68848 723.91839 476.7354 707.6875 472.78125 C 694.40555 469.32701 678.41353 463.81631 665.53125 461.15625 C 663.16601 461.43525 661.54618 462.30432 660.5625 463.4375 C 659.16857 465.04328 659.01776 467.21951 659.71875 469.25 C 660.35679 471.09815 661.72541 472.80981 663.46875 473.8125 C 676.23042 476.07638 688.6002 480.56475 700.375 482.8125 C 731.02715 488.49647 755.45575 492.90703 785.03125 500.28125 C 790.63188 501.66691 797.04969 502.8125 799.28125 502.8125 C 801.51281 502.8125 805.67603 504.37923 808.5625 506.3125 C 812.2927 508.81092 822.41985 511.62103 829.90625 511.6875 C 833.83934 511.89724 836.98137 511.6925 839.59375 511.125 C 845.02773 509.94459 848.16467 507.25553 851.34375 503.71875 C 854.96499 498.42777 854.95527 489.84198 852.5 481.90625 C 838.40975 463.12097 819.20961 446.97404 800.90625 432.125 C 793.71738 426.29287 788.76309 421.55349 782.21875 416.03125 C 780.00726 414.82462 777.29169 414.09976 775.28125 414 C 774.97968 413.985 774.70341 413.986 774.4375 414 z M 847.59375 439.09375 C 844.00531 439.03375 840.64683 440.26877 838.5625 443.25 C 833.88786 450.28171 834.71422 454.99227 838.59375 457.3125 C 842.73358 459.78831 850.33698 459.54911 858.4375 456.5 C 866.19709 453.35715 858.94042 443.75657 855.90625 441.375 C 853.30865 439.9705 850.38476 439.14039 847.59375 439.09375 z M 505.90625 448.25 C 499.4116 448.2952 494.89516 448.47069 494.1875 448.84375 C 493.29768 449.31201 488.73737 450.18755 484.0625 450.78125 C 468.8678 452.71095 440.65009 466.39102 422.3125 480.71875 C 419.95579 482.56013 417.13652 484.0625 416.03125 484.0625 C 414.92596 484.0625 411.9048 485.95424 409.3125 488.28125 C 406.72022 490.60829 403.49769 492.54632 402.15625 492.5625 C 400.81484 492.5793 400.216 493.73211 400.84375 495.125 C 401.59156 496.78434 400.19285 498.2393 396.78125 499.34375 C 393.91738 500.27087 391.5625 501.78768 391.5625 502.71875 C 391.5625 503.64984 390.23859 503.97495 388.59375 503.4375 C 386.9489 502.90006 386.18161 501.62336 386.90625 500.625 C 387.73248 499.48667 386.99485 499.22384 384.90625 499.90625 C 383.07451 500.50476 381.5625 500.25162 381.5625 499.34375 C 381.5625 498.43588 382.52176 497.6875 383.6875 497.6875 C 384.85326 497.6875 385.28172 496.98672 384.65625 496.125 C 384.03077 495.26326 384.90121 493.41453 386.5625 492 C 388.22377 490.58543 389.5625 488.59798 389.5625 487.59375 C 389.5625 486.58951 390.52363 485.95318 391.6875 486.1875 C 392.85138 486.42183 396.03068 483.30485 398.75 479.25 C 401.4693 475.19519 402.53146 472.4676 401.125 473.1875 C 399.05991 474.24457 399.05325 473.98966 401.09375 471.84375 C 403.1532 469.67765 403.06104 468.77483 400.59375 467.03125 C 398.92901 465.85487 397.59375 465.57964 397.59375 466.40625 C 397.59375 467.23284 395.69174 468.92429 393.375 470.15625 C 391.05825 471.38819 389.68451 471.62701 390.34375 470.71875 C 391.00302 469.81046 390.05076 468.59859 388.21875 468 C 386.38672 467.40138 384.14674 467.89048 383.25 469.09375 C 381.9807 470.79708 381.61759 470.81466 381.59375 469.15625 C 381.57735 467.98464 380.60324 467.03125 379.4375 467.03125 C 378.27176 467.03125 377.88219 467.78147 378.5625 468.71875 C 379.24284 469.65604 378.85325 470.4375 377.6875 470.4375 C 376.52176 470.4375 375.54811 469.45287 375.53125 468.28125 C 375.51085 466.86112 374.85591 467.01458 373.5625 468.71875 C 372.45889 470.17285 371.61117 470.40982 371.59375 469.28125 C 371.57555 468.06416 367.89451 468.88671 362.0625 471.40625 C 349.43562 476.86127 345.81024 476.69106 343.25 470.4375 C 342.09924 467.62673 340.33729 465.75841 339.34375 466.28125 C 338.35019 466.8041 337.53125 466.26435 337.53125 465.09375 C 337.53125 462.87006 324.71799 473.20587 324.28125 475.78125 C 324.14353 476.59262 323.91885 478.40658 323.78125 479.8125 C 323.64353 481.21844 322.18241 482.34375 320.53125 482.34375 C 318.88008 482.34375 317.53125 483.12519 317.53125 484.0625 C 317.53125 484.99978 315.29216 485.75 312.5625 485.75 C 306.92996 485.75 291.5 490.62593 291.5 492.40625 C 291.5 494.1487 285.16247 500.9765 279.6875 505.125 C 277.04387 507.12815 272.66608 510.46056 269.96875 512.53125 C 264.71058 516.5678 261.8756 530.48935 266.625 528.9375 C 267.91712 528.51532 269.48863 529.33792 270.125 530.75 C 270.91791 532.5094 270.35678 533.00149 268.34375 532.34375 C 265.99966 531.57782 265.78139 532.19131 267.1875 535.40625 C 270.14181 542.16106 268.0694 546.4423 257.46875 555.625 C 255.05573 557.71527 255.68788 565.00501 258.59375 568.78125 C 260.33666 571.04621 261.59793 574.95572 261.40625 577.46875 C 260.63846 587.53616 260.95831 587.98072 267 585.40625 C 270.02714 584.11635 277.89533 578.79267 284.5 573.59375 C 297.38532 563.45092 302.62441 562.14569 310.4375 567.125 C 314.96356 570.00947 315.00653 570.27395 311.8125 575.21875 C 309.99619 578.03062 307.847 580.5966 307.03125 580.90625 C 306.21549 581.21589 306.92161 582.63879 308.59375 584.0625 C 311.01845 586.12711 312.24379 586.22314 314.59375 584.5625 C 319.09964 581.37834 323.88593 585.61309 323.15625 592.125 C 322.97894 593.70803 323.40535 595.24647 322.8125 596.25 C 323.07107 595.82384 323.3809 595.37892 323.84375 594.9375 C 327.07919 591.85179 336.72121 586.76069 338.46875 583.625 C 340.21628 580.4893 342.53795 577.47831 343.625 576.90625 C 344.71204 576.3342 347.31756 573.01375 349.40625 569.5625 C 351.49492 566.11127 356.1018 560.78617 359.65625 557.71875 C 363.61278 554.30435 364.72316 552.61733 362.5 553.34375 C 359.62443 554.28332 359.12561 553.88749 360.1875 551.53125 C 361.53117 548.5497 358.6123 542.08542 355.03125 540.09375 C 353.8567 539.44053 354.04124 537.57086 355.5 535.25 C 356.80361 533.17594 358.33184 531.88588 358.90625 532.375 C 359.48067 532.86412 362.1376 531.20524 364.78125 528.6875 C 367.42492 526.16975 369.08911 525.29611 368.5 526.75 C 367.5983 528.97534 369.51599 529.36362 380.5625 529.1875 C 392.52617 528.99673 393.77043 529.32071 394.78125 532.75 C 395.17028 533.70664 395.79006 534.11727 396.5 534.25 C 398.52103 534.12811 400.43151 533.84045 402.40625 533.78125 C 403.54167 533.55501 404.12652 533.3024 403.59375 532.625 C 403.59375 531.42866 404.93235 529.98035 406.59375 529.4375 C 408.25511 528.89466 409.37914 527.83898 409.09375 527.0625 C 408.30052 524.90488 414.12006 513.03125 415.96875 513.03125 C 418.75023 513.03125 425.59375 506.33738 425.59375 503.625 C 425.59375 502.20744 430.4005 498.43615 436.25 495.25 C 442.09954 492.06384 449.18116 486.91015 452 483.78125 C 459.08035 475.92206 473.47874 471.95956 500.90625 470.34375 C 513.16035 469.62184 533.08676 467.74291 545.1875 466.15625 C 566.42342 463.37175 599.06759 465.3974 633.84375 469.3125 C 643.4178 470.39034 644.08182 458.16238 634.5 455 C 612.49091 451.12509 587.39488 450.23597 563.28125 448.8125 C 553.42449 448.825 529.88622 448.31184 513 448.25 C 510.46707 448.241 508.07113 448.2349 505.90625 448.25 z M 649.71875 456.40625 C 649.27351 456.40025 648.78042 456.428 648.28125 456.5 C 645.86523 457.15104 644.13876 458.824 643.1875 460.875 C 642.08528 463.50913 642.25399 466.0145 643.3125 467.96875 C 644.43349 470.03834 646.54382 471.48688 649.21875 471.90625 C 653.09706 472.01078 655.78121 470.07558 656.9375 467.5 C 658.03131 465.0636 657.7789 462.05775 655.90625 459.75 C 654.67513 458.26512 652.8354 456.45116 649.71875 456.40625 z M 651.375 499.21875 C 645.13716 499.42543 639.33737 504.54704 639.75 511.25 C 640.13448 515.57196 643.16233 519.67491 648.40625 521.375 C 652.67595 522.64494 657.33075 520.90885 661 517.5 C 663.77928 514.80908 664.74737 510.84125 662.59375 506.09375 C 659.74441 501.06881 655.45915 499.08343 651.375 499.21875 z M 340.53125 503.375 C 341.63202 503.375 342.53125 505.0317 342.53125 507.0625 C 342.53125 509.09331 341.63202 510.75 340.53125 510.75 C 339.43047 510.75 338.53125 509.09331 338.53125 507.0625 C 338.53125 505.0317 339.43047 503.375 340.53125 503.375 z M 552.78125 546 C 532.97042 547.81836 518.33795 551.49253 506.28125 558.375 C 495.81478 564.34971 487.28637 572.72478 479 584.4375 C 473.76357 591.95838 470.07177 600.06986 468.625 609 C 467.60702 615.60807 468.18321 621.73244 468.65625 628.625 C 471.93813 643.79153 477.85053 658.46965 487.46875 669.375 C 493.13367 675.02126 499.9086 679.80147 507.15625 683.875 C 516.97652 689.39448 527.69466 693.60771 537.78125 696.96875 C 552.10838 701.68656 567.16534 704.68931 582.59375 706.125 C 587.37472 705.89625 594.20767 705.63059 596.84375 703.125 C 600.43669 699.70988 598.59574 693.66328 595.125 691.96875 C 589.83024 689.42625 582.36984 689.15472 576.125 688.03125 C 569.69494 686.87445 564.48213 684.88646 558.40625 683.625 C 551.1021 680.98384 543.44521 678.71277 536.1875 676.125 C 529.93003 673.89387 523.97409 671.42407 518.75 668.25 C 513.05243 664.75028 507.93562 660.58682 502.5 656.25 C 493.08682 647.17204 489.30641 637.62931 488.4375 629 C 488.05632 625.21444 486.47881 612.74688 490.53125 601.875 C 492.72833 595.98068 496.60695 589.51416 500.65625 585.125 C 512.06087 575.05309 525.58284 566.16638 538.4375 564 C 552.14536 560.67199 587.63005 561.90698 600.46875 563.875 C 617.47321 566.54286 635.91066 576.45203 638.375 572.53125 C 641.25971 568.98071 645.38923 562.9997 642.1875 561.53125 C 633.65127 557.61615 624.36268 554.53282 615.15625 552.1875 C 594.83309 547.42537 572.4428 546.04379 552.78125 546 z M 332.53125 555 C 334.45589 554.89998 336.34486 555.45938 336.96875 556.84375 C 339.5402 562.54955 329.01961 568.94381 325.34375 563.90625 C 324.3864 562.59425 324.48763 561.35558 325.59375 561.03125 C 326.65924 560.71881 327.53125 559.46852 327.53125 558.25 C 327.53125 556.35148 330.05671 555.1286 332.53125 555 z M 645.71875 583.875 C 645.17482 583.8623 644.61689 583.88205 644.03125 583.90625 C 643.36195 583.93405 642.67094 583.98905 641.9375 584.0625 C 638.62439 600.62647 634.43604 617.755 631.28125 633.53125 C 627.18968 654.06403 623.82645 674.42615 620.78125 691.28125 C 625.17679 693.04093 636.09375 690.96875 636.09375 690.96875 C 640.01838 669.26517 644.41925 650.24011 648.46875 630.8125 C 649.54241 622.54512 658.84129 586.5201 655.5 587.21875 C 652.40044 584.99274 649.52624 583.96372 645.71875 583.875 z M 322.25 597.28125 C 322.2341 597.30875 322.176 597.3447 322.125 597.375 C 322.1759 597.347 322.23384 597.3439 322.25 597.3125 C 322.254 597.3045 322.246 597.28935 322.25 597.28125 z M 320.9375 598.46875 C 320.66597 598.75076 320.37165 599.0535 320.34375 599.09375 C 320.3441 599.0935 320.375 599.09375 320.375 599.09375 C 320.383 599.06535 320.66859 598.75124 320.9375 598.46875 z M 570 611.40625 C 566.98923 611.38325 563.9755 612.30627 561.625 614 C 558.89063 616.03766 557.13026 619.0448 556.59375 622.5 C 556.48174 625.55701 557.55789 628.15477 559.4375 630.125 C 561.98788 632.3902 565.05414 633.65299 568.1875 633.90625 C 571.33708 634.1608 574.55995 633.39577 577.3125 631.59375 C 580.2715 629.18952 581.78028 626.3044 581.96875 623.40625 C 582.14898 620.63457 581.11944 617.83221 579 615.34375 C 577.5145 613.65428 575.5266 612.36313 573 611.75 C 572.0278 611.52539 571.00359 611.41392 570 611.40625 z M 246.21875 658.5625 C 247.5277 658.5565 249.01386 658.92483 250.6875 659.6875 C 254.54605 661.44584 257.51326 661.53961 263.875 660.09375 C 271.82527 658.28687 272.27162 658.42782 279.4375 664.46875 C 282.04228 666.6646 284.25761 669.06553 285.3125 670.78125 C 285.83995 671.39448 286.38854 672.10278 286.96875 672.71875 C 287.52645 673.62212 288.36928 673.69571 289.125 674 C 296.60902 675.79521 352.375 696.96293 352.375 697.71875 C 352.375 698.5139 379.825 720.80239 363.8125 721.125 C 356.82456 719.28518 352.05482 714.93582 347.125 713.15625 C 328.19696 706.32361 320.39929 702.82941 302.1875 700.5625 C 276.94848 696.5565 275.55334 694.12302 260.625 701.0625 C 248.92772 706.50003 235.0227 714.5609 226.6875 711.875 C 222.96058 709.08102 234.78014 696.26892 238.59375 683.59375 C 240.30684 677.90005 241.34897 670.73945 240.9375 667.6875 C 240.15943 661.91632 242.29189 658.58127 246.21875 658.5625 z M 281.40625 760.125 C 275.91164 760.125 266.96289 764.7424 264.1875 769 C 263.10627 771.76052 261.93543 775.69794 261.5625 779.53125 C 261.08912 784.39716 261.89679 789.10792 265.75 790.9375 C 274.24268 794.80758 289.5 784.19949 289.5 774.4375 C 289.5 766.92698 285.65933 760.125 281.40625 760.125 z " />
</svg>