<?xml version="1.0" encoding="UTF-8" standalone="no"?>
<svg
   xmlns:dc="http://purl.org/dc/elements/1.1/"
   xmlns:cc="http://creativecommons.org/ns#"
   xmlns:rdf="http://www.w3.org/1999/02/22-rdf-syntax-ns#"
   xmlns:svg="http://www.w3.org/2000/svg"
   xmlns="http://www.w3.org/2000/svg"
   xmlns:sodipodi="http://sodipodi.sourceforge.net/DTD/sodipodi-0.dtd"
   xmlns:inkscape="http://www.inkscape.org/namespaces/inkscape"
   version="1.1"
   id="Layer_1"
   x="0px"
   y="0px"
   width="1000"
   height="1000"
   viewBox="0 0 1000 1000"
   enable-background="new 0 0 512 512"
   xml:space="preserve"
   inkscape:version="0.48.0 r9654"
   sodipodi:docname="uni2FAB-x2fab.svg"><metadata
   id="metadata72"><rdf:RDF><cc:Work
       rdf:about=""><dc:format>image/svg+xml</dc:format><dc:type
         rdf:resource="http://purl.org/dc/dcmitype/StillImage" /></cc:Work></rdf:RDF></metadata><defs
   id="defs70" /><sodipodi:namedview
   pagecolor="#ffffff"
   bordercolor="#666666"
   borderopacity="1"
   objecttolerance="10"
   gridtolerance="10"
   guidetolerance="10"
   inkscape:pageopacity="0"
   inkscape:pageshadow="2"
   inkscape:window-width="970"
   inkscape:window-height="715"
   id="namedview68"
   showgrid="false"
   inkscape:zoom="0.25488281"
   inkscape:cx="-493.02409"
   inkscape:cy="491.99413"
   inkscape:window-x="0"
   inkscape:window-y="0"
   inkscape:window-maximized="0"
   inkscape:current-layer="Layer_1"
   showguides="true"
   inkscape:guide-bbox="true" />
	<g
   id="Grid"
   transform="matrix(1.9559636,0,0,1.952167,0.48404577,0.01535327)">
		<rect
   x="0"
   stroke-miterlimit="10"
   width="512"
   height="512"
   id="rect4"
   y="0"
   style="fill:none;stroke:#a9ccdb;stroke-miterlimit:10" />
		<line
   stroke-miterlimit="10"
   x1="0"
   y1="32"
   x2="512"
   y2="32"
   id="line6"
   style="fill:none;stroke:#a9ccdb;stroke-miterlimit:10" />
		<line
   stroke-miterlimit="10"
   x1="0"
   y1="64"
   x2="512"
   y2="64"
   id="line8"
   style="fill:none;stroke:#a9ccdb;stroke-miterlimit:10" />
		<line
   stroke-miterlimit="10"
   x1="0"
   y1="96"
   x2="512"
   y2="96"
   id="line10"
   style="fill:none;stroke:#a9ccdb;stroke-miterlimit:10" />
		<line
   stroke-miterlimit="10"
   x1="0"
   y1="128"
   x2="512"
   y2="128"
   id="line12"
   style="fill:none;stroke:#a9ccdb;stroke-miterlimit:10" />
		<line
   stroke-miterlimit="10"
   x1="0"
   y1="160"
   x2="512"
   y2="160"
   id="line14"
   style="fill:none;stroke:#a9ccdb;stroke-miterlimit:10" />
		<line
   stroke-miterlimit="10"
   x1="0"
   y1="192"
   x2="512"
   y2="192"
   id="line16"
   style="fill:none;stroke:#a9ccdb;stroke-miterlimit:10" />
		<line
   stroke-miterlimit="10"
   x1="0"
   y1="224"
   x2="512"
   y2="224"
   id="line18"
   style="fill:none;stroke:#a9ccdb;stroke-miterlimit:10" />
		<line
   stroke-miterlimit="10"
   x1="0"
   y1="256"
   x2="512"
   y2="256"
   id="line20"
   style="fill:none;stroke:#a9ccdb;stroke-miterlimit:10" />
		<line
   stroke-miterlimit="10"
   x1="0"
   y1="288"
   x2="512"
   y2="288"
   id="line22"
   style="fill:none;stroke:#a9ccdb;stroke-miterlimit:10" />
		<line
   stroke-miterlimit="10"
   x1="0"
   y1="320"
   x2="512"
   y2="320"
   id="line24"
   style="fill:none;stroke:#a9ccdb;stroke-miterlimit:10" />
		<line
   stroke-miterlimit="10"
   x1="0"
   y1="352"
   x2="512"
   y2="352"
   id="line26"
   style="fill:none;stroke:#a9ccdb;stroke-miterlimit:10" />
		<line
   stroke-miterlimit="10"
   x1="0"
   y1="384"
   x2="512"
   y2="384"
   id="line28"
   style="fill:none;stroke:#a9ccdb;stroke-miterlimit:10" />
		<line
   stroke-miterlimit="10"
   x1="0"
   y1="416"
   x2="512"
   y2="416"
   id="line30"
   style="fill:none;stroke:#a9ccdb;stroke-miterlimit:10" />
		<line
   stroke-miterlimit="10"
   x1="0"
   y1="448"
   x2="512"
   y2="448"
   id="line32"
   style="fill:none;stroke:#ff0000;stroke-miterlimit:10" />
		<line
   stroke-miterlimit="10"
   x1="0"
   y1="480"
   x2="512"
   y2="480"
   id="line34"
   style="fill:none;stroke:#a9ccdb;stroke-miterlimit:10" />
		<line
   stroke-miterlimit="10"
   x1="32"
   y1="0"
   x2="32"
   y2="512"
   id="line36"
   style="fill:none;stroke:#a9ccdb;stroke-miterlimit:10" />
		<line
   stroke-miterlimit="10"
   x1="64"
   y1="0"
   x2="64"
   y2="512"
   id="line38"
   style="fill:none;stroke:#a9ccdb;stroke-miterlimit:10" />
		<line
   stroke-miterlimit="10"
   x1="96"
   y1="0"
   x2="96"
   y2="512"
   id="line40"
   style="fill:none;stroke:#a9ccdb;stroke-miterlimit:10" />
		<line
   stroke-miterlimit="10"
   x1="128"
   y1="0"
   x2="128"
   y2="512"
   id="line42"
   style="fill:none;stroke:#a9ccdb;stroke-miterlimit:10" />
		<line
   stroke-miterlimit="10"
   x1="160"
   y1="0"
   x2="160"
   y2="512"
   id="line44"
   style="fill:none;stroke:#a9ccdb;stroke-miterlimit:10" />
		<line
   stroke-miterlimit="10"
   x1="192"
   y1="0"
   x2="192"
   y2="512"
   id="line46"
   style="fill:none;stroke:#a9ccdb;stroke-miterlimit:10" />
		<line
   stroke-miterlimit="10"
   x1="224"
   y1="0"
   x2="224"
   y2="512"
   id="line48"
   style="fill:none;stroke:#a9ccdb;stroke-miterlimit:10" />
		<line
   stroke-miterlimit="10"
   x1="256"
   y1="0"
   x2="256"
   y2="512"
   id="line50"
   style="fill:none;stroke:#a9ccdb;stroke-miterlimit:10" />
		<line
   stroke-miterlimit="10"
   x1="288"
   y1="0"
   x2="288"
   y2="512"
   id="line52"
   style="fill:none;stroke:#a9ccdb;stroke-miterlimit:10" />
		<line
   stroke-miterlimit="10"
   x1="320"
   y1="0"
   x2="320"
   y2="512"
   id="line54"
   style="fill:none;stroke:#a9ccdb;stroke-miterlimit:10" />
		<line
   stroke-miterlimit="10"
   x1="352"
   y1="0"
   x2="352"
   y2="512"
   id="line56"
   style="fill:none;stroke:#a9ccdb;stroke-miterlimit:10" />
		<line
   stroke-miterlimit="10"
   x1="384"
   y1="0"
   x2="384"
   y2="512"
   id="line58"
   style="fill:none;stroke:#a9ccdb;stroke-miterlimit:10" />
		<line
   stroke-miterlimit="10"
   x1="416"
   y1="0"
   x2="416"
   y2="512"
   id="line60"
   style="fill:none;stroke:#a9ccdb;stroke-miterlimit:10" />
		<line
   stroke-miterlimit="10"
   x1="448"
   y1="0"
   x2="448"
   y2="512"
   id="line62"
   style="fill:none;stroke:#a9ccdb;stroke-miterlimit:10" />
		<line
   stroke-miterlimit="10"
   x1="480"
   y1="0"
   x2="480"
   y2="512"
   id="line64"
   style="fill:none;stroke:#a9ccdb;stroke-miterlimit:10" />
	</g>
	
<path
   d="m 458.42034,365.02017 c -0.0293,-0.91883 11.06249,-10.58126 21.55623,-11.47073 12.32551,-1.04473 24.3525,6.32786 24.36083,-0.38577 0.002,-1.51133 -15.61778,4.18822 -26.31607,-0.0263 -32.22335,-17.41423 -20.29871,-66.23354 -22.8151,-92.89869 -16.64328,-12.22324 -25.00013,-28.27452 -27.6922,-43.72233 -2.493,-13.35406 2.74623,-32.61988 12.59081,-44.31083 12.68876,-12.49903 21.6774,-13.28553 33.04596,-0.6509 11.04826,12.48773 14.62451,32.69546 13.98344,48.38871 -0.78325,15.26673 -3.41528,32.82129 -5.62119,48.06573 0,0 13.08665,-22.25944 21.70292,-32.47937 8.95138,-10.47625 19.80172,-20.09937 30.76676,-27.68771 -14.75916,-22.55034 -23.06286,-34.67259 -35.51524,-50.61808 -21.64523,-17.07496 -39.77648,-30.92386 -59.63265,-45.90342 -8.59484,-5.88832 -10.59279,-7.48898 -14.15614,-17.561687 -3.18617,-8.73363 3.03239,-15.90367 14.06744,-19.3571 11.83339,-3.55017 23.1986,6.02225 33.10312,14.91817 11.13596,9.99263 20.93362,17.164047 31.12253,26.374847 15.21432,15.66371 31.84852,40.90302 46.53396,38.86153 5.46842,-2.44275 10.42048,-7.18606 14.98308,-13.14277 9.78234,-17.01132 20.54493,-34.91731 30.61962,-52.475857 4.28671,-11.86185 18.84053,-38.57868 30.85198,-45.48477 6.23369,-3.58412 11.78262,-1.83243 14.85627,10.10066 1.8286,9.20274 -4.19232,25.14809 -8.95911,39.53421 -1.58226,4.77524 -3.40842,9.684337 -5.39919,14.626617 -11.4126,28.33286 -28.23508,57.7559 -35.52878,69.29736 -4.6541,6.72034 -13.92545,11.87679 -14.54434,16.14375 12.83065,2.25395 33.32027,2.84725 38.67083,21.48234 4.42495,15.41136 -6.60134,41.45762 -10.27284,58.68269 -9.35463,5.37443 -36.58187,119.80985 -44.23123,123.5002 -4.63331,-0.92695 -30.2059,-16.0191 -26.41481,-42.52226 6.84499,-47.85256 39.50108,-108.81541 31.51622,-107.2065 -26.205,7.50351 -34.73153,37.09622 -46.78242,58.74445 -6.25917,9.38197 -10.12337,18.19618 -12.43835,27.09767 -2.55087,9.80847 -3.22073,19.72291 -3.14109,30.61968 0.15159,18.98531 1.65664,38.16407 3.49847,57.2019 2.99799,30.98827 2.72693,33.86071 3.12511,62.66016 0.21206,6.67229 1.53686,29.04138 -0.32884,33.9032 -15.13836,15.44153 -32.51096,10.75065 -39.60935,-0.37822 -6.56207,-10.28803 -3.34551,-26.07796 -5.04857,-36.5508 -6.28872,-39.48117 -3.56615,-82.06087 -6.50804,-115.36981 z M 416.98612,954.1119 c -20.86075,-9.27611 -35.04935,-15.86668 -48.66819,-23.61311 -13.55301,-7.70903 -26.54176,-16.56278 -44.98045,-30.34726 -19.76261,-18.78143 -57.17937,-55.24674 -70.35286,-79.81001 -3.63386,-6.94894 -12.6438,-25.33462 -11.41493,-40.04137 2.18334,-26.1296 18.73787,-49.62073 27.23817,-40.69778 13.97147,40.1569 10.35251,35.08007 41.92421,40.70013 19.77039,3.47823 37.05297,8.87768 56.72234,8.84743 16.4982,-5.97979 32.11906,-4.55695 48.12152,0.54833 9.7722,3.19558 19.1131,13.24676 26.44631,14.67323 2.3681,0.46067 3.47093,-7.7728 2.91028,-11.0247 -21.3262,-25.68719 -41.35863,-57.35024 -60.17442,-83.21862 -21.34874,-36.24537 -32.65243,-74.59731 -37.72677,-116.72175 -1.21294,-21.93361 -2.07778,-43.44364 -2.74655,-64.62909 -0.5957,-18.87062 -1.03583,-37.4837 -1.42785,-55.90922 -0.49202,-23.12539 -0.90824,-45.95532 -1.46111,-68.62811 -0.52063,-21.35077 -1.16242,-42.56219 -2.10278,-63.74977 -1.63585,-36.68392 -2.98302,-72.37835 -1.59852,-104.14338 30.80653,27.25293 39.44437,71.92918 45.51979,105.48423 3.92986,19.92521 1.98022,40.18251 2.30126,60.57845 0.80867,51.3764 -2.51079,103.63249 2.51859,153.67642 0.52553,21.60719 8.01328,65.38286 21.93685,98.85219 11.39453,27.39005 27.09926,47.87776 46.82568,43.66461 24.6194,-4.16473 29.90007,-27.45122 41.98851,-44.85394 5.24175,-3.6843 2.54705,-49.5605 13.95745,-64.46941 8.74254,-11.42306 24.13462,-31.89183 48.82568,-13.61987 15.04956,11.13701 19.35071,36.65992 15.30973,47.65834 -2.01545,11.09963 -5.88401,21.04047 -10.73117,30.26705 -0.7342,1.39755 -1.49085,2.77871 -2.26691,4.14503 -7.98774,14.06304 -18.03205,26.55372 -26.81915,39.15661 -4.41068,6.32602 -8.5863,12.72119 -11.52291,19.42215 -4.69144,10.56876 -20.21243,34.82884 -24.04812,39.58533 -0.62455,0.24065 -4.35553,4.21146 -7.45477,8.51553 -2.13679,2.96746 -4.8419,4.67043 1.66331,6.98556 15.07465,5.57593 30.06398,39.69609 38.38512,54.44398 3.31312,5.87197 -17.83431,-5.84832 -29.0317,-11.84803 -13.64428,-7.31081 -27.42996,-14.30076 -33.62282,-8.66805 -4.19571,5.82732 -5.82189,7.28326 -6.56277,15.50613 7.53935,11.7311 27.41304,28.17598 35.92726,34.08152 11.12056,8.30964 26.71486,23.12929 37.62125,39.52361 8.90796,15.94749 17.47094,31.11002 20.19802,47.51455 7.00853,5.84523 11.76524,15.01516 15.9823,23.80628 3.29535,6.86968 6.26118,13.50804 9.71448,18.14787 2.821,3.79695 -12.01032,3.21859 -21.02871,1.76562 -53.78411,-1.80516 -106.31712,-12.71516 -146.29465,-31.55671 z m 45.28076,-92.12251 c -2.42363,-1.10138 -5.20717,13.83337 -6.19843,20.20235 -0.51894,3.3343 1.8351,5.75566 1.72695,5.77632 -0.36728,0.0702 0.54749,5.19941 -0.85092,6.83009 -2.0699,2.4137 -8.55042,2.91098 -10.05877,6.29019 -2.11069,4.72866 -0.79723,9.11612 0.18032,12.51295 3.08781,4.60805 9.31839,7.83986 15.51182,8.77449 5.01608,0.75696 10.0078,0.007 13.28582,-2.73882 3.99037,-3.52478 4.82311,-9.93967 0.84172,-17.75812 -2.22147,-4.12683 -6.47441,-6.62952 -14.23736,-6.45871 -3.56618,0.0983 -8.64971,1.16515 -8.79071,0.14975 1.01499,-1.4565 0.60633,-5.56702 0.6995,-7.75184 0.12019,-2.81816 0.58701,-3.57173 0.904,-3.23259 3.46463,0.87713 4.905,0.3371 8.18016,0.60316 3.64413,0.29604 9.09285,1.41492 12.33418,2.92123 3.11292,1.51281 6.5188,5.10765 8.34525,6.94774 4.21388,4.24535 5.40733,11.79903 5.08777,18.96557 -1.44534,16.59035 -10.29146,19.29117 -26.70956,17.76934 -13.36921,-1.76634 -26.00143,-6.61101 -25.49456,-6.28382 16.48529,10.64154 86.07338,31.15682 90.40208,25.73996 2.19056,-9.47524 -1.30116,-26.81114 -11.21584,-44.22364 -15.77156,-22.03004 -33.89585,-35.9253 -53.94342,-45.0356 z m -104.26245,3.74615 c -1.45299,12.54674 1.60639,22.16838 7.80374,29.63243 15.19737,15.17615 34.05659,18.35315 48.40235,10.88181 9.4044,-4.89787 16.57315,-15.01782 20.5337,-27.0755 4.13715,-19.68 3.99759,-35.41668 -4.96762,-46.58006 -5.72631,-7.13035 -16.6147,-12.63725 -27.20108,-15.32457 -19.74069,-3.72327 -33.64839,8.50104 -40.32915,24.62633 -3.1221,7.53575 -3.29291,15.40075 -4.24194,23.83956 z m -38.74659,-55.87101 c -18.51573,-0.68223 -34.13332,-0.73558 -34.7057,-0.11868 -5.04281,5.43464 40.79681,59.11004 48.98158,57.42619 1.76257,-0.36278 1.68398,-16.75341 5.06844,-28.87949 3.59127,-12.86705 11.98478,-18.84986 11.98684,-25.27269 7.8e-4,-2.53005 -12.69911,-2.46887 -31.33116,-3.15533 z m 63.02513,63.18213 c 4.68028,6.56417 14.66545,8.894 22.68368,3.57696 7.16519,-7.25851 7.93718,-15.01487 5.31237,-20.80302 -3.77885,-8.33294 -14.59783,-12.5866 -23.51581,-5.40261 -6.41818,5.38854 -9.61136,15.02205 -4.48024,22.62867 z" />
</svg>