<?xml version="1.0" encoding="UTF-8" standalone="no"?>
<svg
   xmlns:dc="http://purl.org/dc/elements/1.1/"
   xmlns:cc="http://creativecommons.org/ns#"
   xmlns:rdf="http://www.w3.org/1999/02/22-rdf-syntax-ns#"
   xmlns:svg="http://www.w3.org/2000/svg"
   xmlns="http://www.w3.org/2000/svg"
   xmlns:sodipodi="http://sodipodi.sourceforge.net/DTD/sodipodi-0.dtd"
   xmlns:inkscape="http://www.inkscape.org/namespaces/inkscape"
   version="1.1"
   id="Layer_1"
   x="0px"
   y="0px"
   width="1024"
   height="1024"
   viewBox="0 0 1024 1024"
   enable-background="new 0 0 512 512"
   xml:space="preserve"
   inkscape:version="0.48.0 r9654"
   sodipodi:docname="uni2F54-x2f54.svg"><metadata
   id="metadata72"><rdf:RDF><cc:Work
       rdf:about=""><dc:format>image/svg+xml</dc:format><dc:type
         rdf:resource="http://purl.org/dc/dcmitype/StillImage" /></cc:Work></rdf:RDF></metadata><defs
   id="defs70" /><sodipodi:namedview
   pagecolor="#ffffff"
   bordercolor="#666666"
   borderopacity="1"
   objecttolerance="10"
   gridtolerance="10"
   guidetolerance="10"
   inkscape:pageopacity="0"
   inkscape:pageshadow="2"
   inkscape:window-width="654"
   inkscape:window-height="693"
   id="namedview68"
   showgrid="false"
   inkscape:zoom="0.36045873"
   inkscape:cx="518.706"
   inkscape:cy="430.22929"
   inkscape:window-x="540"
   inkscape:window-y="39"
   inkscape:window-maximized="0"
   inkscape:current-layer="Layer_1" />
	<g
   id="Grid"
   transform="matrix(1.9842342,0,0,1.9896421,8.8148452,-0.7681552)">
		<rect
   x="0"
   stroke-miterlimit="10"
   width="512"
   height="512"
   id="rect4"
   y="0"
   style="fill:none;stroke:#a9ccdb;stroke-miterlimit:10" />
		<line
   stroke-miterlimit="10"
   x1="0"
   y1="32"
   x2="512"
   y2="32"
   id="line6"
   style="fill:none;stroke:#a9ccdb;stroke-miterlimit:10" />
		<line
   stroke-miterlimit="10"
   x1="0"
   y1="64"
   x2="512"
   y2="64"
   id="line8"
   style="fill:none;stroke:#a9ccdb;stroke-miterlimit:10" />
		<line
   stroke-miterlimit="10"
   x1="0"
   y1="96"
   x2="512"
   y2="96"
   id="line10"
   style="fill:none;stroke:#a9ccdb;stroke-miterlimit:10" />
		<line
   stroke-miterlimit="10"
   x1="0"
   y1="128"
   x2="512"
   y2="128"
   id="line12"
   style="fill:none;stroke:#a9ccdb;stroke-miterlimit:10" />
		<line
   stroke-miterlimit="10"
   x1="0"
   y1="160"
   x2="512"
   y2="160"
   id="line14"
   style="fill:none;stroke:#a9ccdb;stroke-miterlimit:10" />
		<line
   stroke-miterlimit="10"
   x1="0"
   y1="192"
   x2="512"
   y2="192"
   id="line16"
   style="fill:none;stroke:#a9ccdb;stroke-miterlimit:10" />
		<line
   stroke-miterlimit="10"
   x1="0"
   y1="224"
   x2="512"
   y2="224"
   id="line18"
   style="fill:none;stroke:#a9ccdb;stroke-miterlimit:10" />
		<line
   stroke-miterlimit="10"
   x1="0"
   y1="256"
   x2="512"
   y2="256"
   id="line20"
   style="fill:none;stroke:#a9ccdb;stroke-miterlimit:10" />
		<line
   stroke-miterlimit="10"
   x1="0"
   y1="288"
   x2="512"
   y2="288"
   id="line22"
   style="fill:none;stroke:#a9ccdb;stroke-miterlimit:10" />
		<line
   stroke-miterlimit="10"
   x1="0"
   y1="320"
   x2="512"
   y2="320"
   id="line24"
   style="fill:none;stroke:#a9ccdb;stroke-miterlimit:10" />
		<line
   stroke-miterlimit="10"
   x1="0"
   y1="352"
   x2="512"
   y2="352"
   id="line26"
   style="fill:none;stroke:#a9ccdb;stroke-miterlimit:10" />
		<line
   stroke-miterlimit="10"
   x1="0"
   y1="384"
   x2="512"
   y2="384"
   id="line28"
   style="fill:none;stroke:#a9ccdb;stroke-miterlimit:10" />
		<line
   stroke-miterlimit="10"
   x1="0"
   y1="416"
   x2="512"
   y2="416"
   id="line30"
   style="fill:none;stroke:#a9ccdb;stroke-miterlimit:10" />
		<line
   stroke-miterlimit="10"
   x1="0"
   y1="448"
   x2="512"
   y2="448"
   id="line32"
   style="fill:none;stroke:#ff0000;stroke-miterlimit:10" />
		<line
   stroke-miterlimit="10"
   x1="0"
   y1="480"
   x2="512"
   y2="480"
   id="line34"
   style="fill:none;stroke:#a9ccdb;stroke-miterlimit:10" />
		<line
   stroke-miterlimit="10"
   x1="32"
   y1="0"
   x2="32"
   y2="512"
   id="line36"
   style="fill:none;stroke:#a9ccdb;stroke-miterlimit:10" />
		<line
   stroke-miterlimit="10"
   x1="64"
   y1="0"
   x2="64"
   y2="512"
   id="line38"
   style="fill:none;stroke:#a9ccdb;stroke-miterlimit:10" />
		<line
   stroke-miterlimit="10"
   x1="96"
   y1="0"
   x2="96"
   y2="512"
   id="line40"
   style="fill:none;stroke:#a9ccdb;stroke-miterlimit:10" />
		<line
   stroke-miterlimit="10"
   x1="128"
   y1="0"
   x2="128"
   y2="512"
   id="line42"
   style="fill:none;stroke:#a9ccdb;stroke-miterlimit:10" />
		<line
   stroke-miterlimit="10"
   x1="160"
   y1="0"
   x2="160"
   y2="512"
   id="line44"
   style="fill:none;stroke:#a9ccdb;stroke-miterlimit:10" />
		<line
   stroke-miterlimit="10"
   x1="192"
   y1="0"
   x2="192"
   y2="512"
   id="line46"
   style="fill:none;stroke:#a9ccdb;stroke-miterlimit:10" />
		<line
   stroke-miterlimit="10"
   x1="224"
   y1="0"
   x2="224"
   y2="512"
   id="line48"
   style="fill:none;stroke:#a9ccdb;stroke-miterlimit:10" />
		<line
   stroke-miterlimit="10"
   x1="256"
   y1="0"
   x2="256"
   y2="512"
   id="line50"
   style="fill:none;stroke:#a9ccdb;stroke-miterlimit:10" />
		<line
   stroke-miterlimit="10"
   x1="288"
   y1="0"
   x2="288"
   y2="512"
   id="line52"
   style="fill:none;stroke:#a9ccdb;stroke-miterlimit:10" />
		<line
   stroke-miterlimit="10"
   x1="320"
   y1="0"
   x2="320"
   y2="512"
   id="line54"
   style="fill:none;stroke:#a9ccdb;stroke-miterlimit:10" />
		<line
   stroke-miterlimit="10"
   x1="352"
   y1="0"
   x2="352"
   y2="512"
   id="line56"
   style="fill:none;stroke:#a9ccdb;stroke-miterlimit:10" />
		<line
   stroke-miterlimit="10"
   x1="384"
   y1="0"
   x2="384"
   y2="512"
   id="line58"
   style="fill:none;stroke:#a9ccdb;stroke-miterlimit:10" />
		<line
   stroke-miterlimit="10"
   x1="416"
   y1="0"
   x2="416"
   y2="512"
   id="line60"
   style="fill:none;stroke:#a9ccdb;stroke-miterlimit:10" />
		<line
   stroke-miterlimit="10"
   x1="448"
   y1="0"
   x2="448"
   y2="512"
   id="line62"
   style="fill:none;stroke:#a9ccdb;stroke-miterlimit:10" />
		<line
   stroke-miterlimit="10"
   x1="480"
   y1="0"
   x2="480"
   y2="512"
   id="line64"
   style="fill:none;stroke:#a9ccdb;stroke-miterlimit:10" />
	</g>
	

	 
	 

   
<g
   id="g3754"
   transform="matrix(1,0,0,-1,946.01674,1067.0968)"><path
     style="fill:#636263"
     d="m -439.96346,1003.6083 c -9.9029,-1.6573 -13.5345,-7.18553 -19.5478,-29.75643 -2.2207,-8.33558 -7.6746,-25.17408 -12.1196,-37.4189 -25.5339,-70.33851 -36.9518,-107.68636 -59.446,-194.44777 -5.8202,-22.44855 -20.4192,-77.71555 -32.4424,-122.81555 -12.0232,-45.1 -27.7996,-104.5 -35.0588,-132 -7.2591,-27.5 -15.4232,-58.325 -18.1423,-68.5 -2.7191,-10.175 -10.94,-42.8 -18.2687,-72.5 -34.4785,-139.72608 -35.2896,-143.48128 -34.2622,-158.62222 0.9222,-13.58894 6.5748,-21.60704 14.0406,-19.91607 11.4728,2.59853 21.3447,13.57903 31.6516,35.20599 9.0992,19.09272 17.9191,49.58649 30.7051,106.15965 3.7794,16.72238 3.8188,16.82392 6.3149,16.27791 25.7098,-5.62401 44.0134,-7.16849 66.7969,-5.63644 25.8534,1.73848 39.5461,5.48463 44.4899,12.17186 1.7435,2.35839 1.8166,3.05165 0.6834,6.48516 -2.5631,7.76642 -18.7223,20.32937 -33.9585,26.40105 -7.5134,2.99413 -17.3938,5.64454 -24,6.43796 -11.4605,1.37643 -43.5112,5.7654 -43.7644,5.99302 -0.1455,0.13076 0.6106,3.11873 1.6803,6.63994 4.6768,15.39577 14.0741,50.70107 24.7282,92.90219 31.454,124.59061 42.6674,163.9825 94.3656,331.5 34.5856,112.06737 50.7811,165.57012 51.4708,170.03712 0.8329,5.3936 -1.0172,13.1667 -4.0938,17.2003 -3.2548,4.2673 -8.6111,6.93113 -16.5159,8.21373 -7.1395,1.1585 -8.3159,1.1575 -15.3069,-0.013 z m -346.33433,-38.80676 c -9.7369,-10.65366 -15.1517,-26.07199 -20.5405,-58.48822 -4.4013,-26.47556 -5.6931,-40.54742 -6.2856,-68.4664 -0.9804,-46.20134 1.8316,-56.91552 16.9157,-64.45317 9.3071,-4.65079 14.9696,-3.7614 21.9541,3.44824 3.0947,3.19443 4.1563,5.55164 6.7107,14.89985 5.4037,19.77588 7.7322,35.86719 9.0232,62.35508 1.8469,37.89572 -2.453,80.48639 -10.4514,103.51982 -5.0614,14.5757 -9.057,16.2326 -17.3262,7.1848 z m 239.13553,-13.38189 c -12.1126,-8.09831 -26.773,-35.00151 -36.3742,-66.75 -4.6959,-15.52793 -9.5587,-36.99979 -11.0203,-48.6598 -1.7877,-14.26197 -1.5587,-51.80634 0.3561,-58.38692 3.9665,-13.63136 13.8369,-19.36154 23.7518,-13.78901 7.1892,4.04056 14.7879,15.96393 17.3888,27.28528 0.8781,3.82226 3.1644,16.64726 5.0807,28.5 1.9163,11.85275 5.7135,30.77545 8.4381,42.05045 7.2683,30.07708 9.0701,41.20812 9.712,60 0.6397,18.72682 -0.4092,26.31729 -4.2026,30.41041 -3.2694,3.52771 -7.1589,3.33208 -13.1304,-0.66041 z m -93.9824,0.30107 c -8.1417,-1.94367 -22.0143,-11.54082 -25.6272,-17.72904 -4.4211,-7.57248 -9.0236,-29.57962 -17.7395,-84.82203 -3.3842,-21.45 -8.5809,-50.7 -11.5481,-65 -14.4963,-69.86172 -19.0948,-119.4769 -20.4832,-221 -0.6336,-46.32975 -1.2991,-67.58927 -2.4104,-77 -1.8624,-15.77164 -3.0811,-23.34013 -3.8881,-24.14722 -1.1568,-1.15679 -83.2869,-23.90326 -83.981,-23.26688 -0.9329,0.8553 -1.1826,134.63239 -0.3138,168.13986 0.4363,16.8286 0.3085,29.02785 -0.3502,33.4264 -1.3162,8.78921 -6.0325,18.43313 -12.0857,24.71326 -4.0889,4.24218 -5.1997,4.86034 -8.7337,4.86034 -7.1501,0 -11.7323,-5.53028 -17.3608,-20.95271 -5.2806,-14.46911 -9.4475,-35.26092 -12.0341,-60.04729 -0.6027,-5.775 -1.498,-42.45 -1.9896,-81.5 -0.4917,-39.05 -1.16,-73.025 -1.4852,-75.5 -3.4805,-26.49048 -9.5442,-82.23326 -10.4836,-96.37445 -1.1536,-17.36537 -1.0141,-23.83224 1.1451,-53.09389 0.9208,-12.48012 1.3783,-14.71751 4.2939,-21 3.8783,-8.35695 7.4376,-12.80939 11.6271,-14.54472 6.7134,-2.78078 15.0293,2.84047 23.393,15.81267 9.2355,14.32466 9.9796,16.62152 13.5091,41.70039 6.0764,43.17673 9.8467,56.52519 19.896,70.43907 2.6062,3.60851 16.9617,10.99488 18.3381,13.02342 5.0789,7.48538 12.0731,10.67879 34.5654,15.78191 18.3252,4.15765 33.5933,8.56071 40.3638,11.64017 13.5641,6.1694 26.3031,16.25751 30.2844,23.98247 3.2031,6.21499 4.8862,14.84482 7.6857,39.4072 4.592,40.28901 5.7423,60.31344 8.5598,149 3.1897,100.40169 10.0982,158.08598 25.1506,210 4.9904,17.21157 7.3253,33.3563 9.3238,64.47094 1.9196,29.88541 -0.8488,44.81172 -9.1031,49.08017 -3.0431,1.57367 -3.828,1.61973 -8.5185,0.49996 z m 228.94384,-523.04791 c -9.7369,-10.65371 -15.1517,-26.07204 -20.5405,-58.48827 -4.4013,-26.47556 -5.6931,-40.54742 -6.2856,-68.4664 -0.9804,-46.20134 1.8316,-56.91552 16.9157,-64.45317 9.3071,-4.65079 14.9696,-3.7614 21.9541,3.44824 3.0947,3.19443 4.1563,5.55164 6.7107,14.89985 5.4037,19.77588 7.7322,35.86719 9.0232,62.35508 1.8469,37.89572 -2.453,80.48639 -10.4514,103.51982 -5.0614,14.57571 -9.057,16.23263 -17.3262,7.18485 z m -318.04504,-74.09289 c -9.5373,-4.72091 -21.3292,-21.41974 -26.078,-36.92996 -5.4424,-17.77569 -7.8427,-43.85158 -6.2359,-67.74609 1.7397,-25.87302 5.4843,-39.5643 12.1731,-44.50927 2.3584,-1.74352 3.0517,-1.81658 6.4852,-0.68342 7.7664,2.56315 20.3293,18.72231 26.401,33.95847 2.9962,7.51862 5.6454,17.39766 6.436,24 0.3622,3.025 1.8259,13.825 3.2526,24 1.8407,13.12646 2.6218,23.14738 2.6894,34.5 0.09,15.06076 -0.045,16.26416 -2.3015,20.5 -3.1942,5.99762 -8.8504,13.33682 -10.928,14.17971 -3.1843,1.29191 -7.6912,0.8109 -11.8939,-1.26944 z"
     id="path3756"
     inkscape:connector-curvature="0"
     sodipodi:nodetypes="cssssssssssssssssssssssscccssssssssssssssssssssssssssssssssssssssssssssssssssssssssssssssssssssssssss" /></g></svg>