<?xml version="1.0" encoding="UTF-8" standalone="no"?>
<svg
   xmlns:dc="http://purl.org/dc/elements/1.1/"
   xmlns:cc="http://creativecommons.org/ns#"
   xmlns:rdf="http://www.w3.org/1999/02/22-rdf-syntax-ns#"
   xmlns:svg="http://www.w3.org/2000/svg"
   xmlns="http://www.w3.org/2000/svg"
   xmlns:sodipodi="http://sodipodi.sourceforge.net/DTD/sodipodi-0.dtd"
   xmlns:inkscape="http://www.inkscape.org/namespaces/inkscape"
   version="1.1"
   id="Layer_1"
   x="0px"
   y="0px"
   width="1024"
   height="1024"
   viewBox="0 0 1024 1024"
   enable-background="new 0 0 512 512"
   xml:space="preserve"
   inkscape:version="0.48.0 r9654"
   sodipodi:docname="uni2F48-x2f48.svg"><metadata
   id="metadata72"><rdf:RDF><cc:Work
       rdf:about=""><dc:format>image/svg+xml</dc:format><dc:type
         rdf:resource="http://purl.org/dc/dcmitype/StillImage" /></cc:Work></rdf:RDF></metadata><defs
   id="defs70" /><sodipodi:namedview
   pagecolor="#ffffff"
   bordercolor="#666666"
   borderopacity="1"
   objecttolerance="10"
   gridtolerance="10"
   guidetolerance="10"
   inkscape:pageopacity="0"
   inkscape:pageshadow="2"
   inkscape:window-width="1135"
   inkscape:window-height="793"
   id="namedview68"
   showgrid="false"
   inkscape:zoom="0.50976564"
   inkscape:cx="218.22222"
   inkscape:cy="542.9955"
   inkscape:window-x="0"
   inkscape:window-y="6"
   inkscape:window-maximized="0"
   inkscape:current-layer="Layer_1" />
	<g
   id="Grid"
   transform="matrix(2.0018746,0,0,1.9942267,0.50093732,2.4588296)">
		<rect
   x="0"
   stroke-miterlimit="10"
   width="512"
   height="512"
   id="rect4"
   y="0"
   style="fill:none;stroke:#a9ccdb;stroke-miterlimit:10" />
		<line
   stroke-miterlimit="10"
   x1="0"
   y1="32"
   x2="512"
   y2="32"
   id="line6"
   style="fill:none;stroke:#a9ccdb;stroke-miterlimit:10" />
		<line
   stroke-miterlimit="10"
   x1="0"
   y1="64"
   x2="512"
   y2="64"
   id="line8"
   style="fill:none;stroke:#a9ccdb;stroke-miterlimit:10" />
		<line
   stroke-miterlimit="10"
   x1="0"
   y1="96"
   x2="512"
   y2="96"
   id="line10"
   style="fill:none;stroke:#a9ccdb;stroke-miterlimit:10" />
		<line
   stroke-miterlimit="10"
   x1="0"
   y1="128"
   x2="512"
   y2="128"
   id="line12"
   style="fill:none;stroke:#a9ccdb;stroke-miterlimit:10" />
		<line
   stroke-miterlimit="10"
   x1="0"
   y1="160"
   x2="512"
   y2="160"
   id="line14"
   style="fill:none;stroke:#a9ccdb;stroke-miterlimit:10" />
		<line
   stroke-miterlimit="10"
   x1="0"
   y1="192"
   x2="512"
   y2="192"
   id="line16"
   style="fill:none;stroke:#a9ccdb;stroke-miterlimit:10" />
		<line
   stroke-miterlimit="10"
   x1="0"
   y1="224"
   x2="512"
   y2="224"
   id="line18"
   style="fill:none;stroke:#a9ccdb;stroke-miterlimit:10" />
		<line
   stroke-miterlimit="10"
   x1="0"
   y1="256"
   x2="512"
   y2="256"
   id="line20"
   style="fill:none;stroke:#a9ccdb;stroke-miterlimit:10" />
		<line
   stroke-miterlimit="10"
   x1="0"
   y1="288"
   x2="512"
   y2="288"
   id="line22"
   style="fill:none;stroke:#a9ccdb;stroke-miterlimit:10" />
		<line
   stroke-miterlimit="10"
   x1="0"
   y1="320"
   x2="512"
   y2="320"
   id="line24"
   style="fill:none;stroke:#a9ccdb;stroke-miterlimit:10" />
		<line
   stroke-miterlimit="10"
   x1="0"
   y1="352"
   x2="512"
   y2="352"
   id="line26"
   style="fill:none;stroke:#a9ccdb;stroke-miterlimit:10" />
		<line
   stroke-miterlimit="10"
   x1="0"
   y1="384"
   x2="512"
   y2="384"
   id="line28"
   style="fill:none;stroke:#a9ccdb;stroke-miterlimit:10" />
		<line
   stroke-miterlimit="10"
   x1="0"
   y1="416"
   x2="512"
   y2="416"
   id="line30"
   style="fill:none;stroke:#a9ccdb;stroke-miterlimit:10" />
		<line
   stroke-miterlimit="10"
   x1="0"
   y1="448"
   x2="512"
   y2="448"
   id="line32"
   style="fill:none;stroke:#ff0000;stroke-miterlimit:10" />
		<line
   stroke-miterlimit="10"
   x1="0"
   y1="480"
   x2="512"
   y2="480"
   id="line34"
   style="fill:none;stroke:#a9ccdb;stroke-miterlimit:10" />
		<line
   stroke-miterlimit="10"
   x1="32"
   y1="0"
   x2="32"
   y2="512"
   id="line36"
   style="fill:none;stroke:#a9ccdb;stroke-miterlimit:10" />
		<line
   stroke-miterlimit="10"
   x1="64"
   y1="0"
   x2="64"
   y2="512"
   id="line38"
   style="fill:none;stroke:#a9ccdb;stroke-miterlimit:10" />
		<line
   stroke-miterlimit="10"
   x1="96"
   y1="0"
   x2="96"
   y2="512"
   id="line40"
   style="fill:none;stroke:#a9ccdb;stroke-miterlimit:10" />
		<line
   stroke-miterlimit="10"
   x1="128"
   y1="0"
   x2="128"
   y2="512"
   id="line42"
   style="fill:none;stroke:#a9ccdb;stroke-miterlimit:10" />
		<line
   stroke-miterlimit="10"
   x1="160"
   y1="0"
   x2="160"
   y2="512"
   id="line44"
   style="fill:none;stroke:#a9ccdb;stroke-miterlimit:10" />
		<line
   stroke-miterlimit="10"
   x1="192"
   y1="0"
   x2="192"
   y2="512"
   id="line46"
   style="fill:none;stroke:#a9ccdb;stroke-miterlimit:10" />
		<line
   stroke-miterlimit="10"
   x1="224"
   y1="0"
   x2="224"
   y2="512"
   id="line48"
   style="fill:none;stroke:#a9ccdb;stroke-miterlimit:10" />
		<line
   stroke-miterlimit="10"
   x1="256"
   y1="0"
   x2="256"
   y2="512"
   id="line50"
   style="fill:none;stroke:#a9ccdb;stroke-miterlimit:10" />
		<line
   stroke-miterlimit="10"
   x1="288"
   y1="0"
   x2="288"
   y2="512"
   id="line52"
   style="fill:none;stroke:#a9ccdb;stroke-miterlimit:10" />
		<line
   stroke-miterlimit="10"
   x1="320"
   y1="0"
   x2="320"
   y2="512"
   id="line54"
   style="fill:none;stroke:#a9ccdb;stroke-miterlimit:10" />
		<line
   stroke-miterlimit="10"
   x1="352"
   y1="0"
   x2="352"
   y2="512"
   id="line56"
   style="fill:none;stroke:#a9ccdb;stroke-miterlimit:10" />
		<line
   stroke-miterlimit="10"
   x1="384"
   y1="0"
   x2="384"
   y2="512"
   id="line58"
   style="fill:none;stroke:#a9ccdb;stroke-miterlimit:10" />
		<line
   stroke-miterlimit="10"
   x1="416"
   y1="0"
   x2="416"
   y2="512"
   id="line60"
   style="fill:none;stroke:#a9ccdb;stroke-miterlimit:10" />
		<line
   stroke-miterlimit="10"
   x1="448"
   y1="0"
   x2="448"
   y2="512"
   id="line62"
   style="fill:none;stroke:#a9ccdb;stroke-miterlimit:10" />
		<line
   stroke-miterlimit="10"
   x1="480"
   y1="0"
   x2="480"
   y2="512"
   id="line64"
   style="fill:none;stroke:#a9ccdb;stroke-miterlimit:10" />
	</g>
	
<path
   sodipodi:nodetypes="ccccccscccccccccccccccccccccsccccssssssssscsccccscscscssscssssscscccccc"
   inkscape:connector-curvature="0"
   id="path35"
   d="m 847.08414,874.90766 c -22.9779,-20.28044 -39.48045,-28.08817 -55.06674,-49.9175 -15.48267,-24.07029 -14.42268,-41.0915 -31.15222,-61.66256 0,0 16.43087,-22.34406 16.55923,-22.95461 l 60.19915,20.22267 c 23.61213,13.04718 46.89007,37.50477 59.97721,57.42765 21.9031,25.06325 18.8763,48.60036 6.14749,60.73274 -13.78382,13.13795 -37.06755,15.11798 -56.66412,-3.84839 z M 61.791441,816.49983 c 20.793018,-18.23651 45.365149,-41.05326 60.585209,-49.69435 22.2851,-8.86147 39.09617,-23.60611 57.78625,-30.1776 3.35064,-0.59756 21.31205,20.42541 23.65608,23.72804 -15.86757,19.63892 -20.92764,53.86092 -38.32592,69.94336 -18.54143,16.32829 -35.68063,39.18513 -54.11001,56.86052 -21.742778,10.88205 -45.690736,6.29642 -62.20444,-12.6583 -8.593683,-24.09952 -5.444388,-40.76305 12.612831,-58.00167 z M 214.81442,193.60077 204.40856,206.90438 192.41194,217.61397 C 176.85596,207.8114 151.09646,203.93165 136.84348,195.58463 109.53816,176.59483 88.25166,165.05555 64.739847,145.78544 38.113285,123.34063 34.282728,89.270411 53.708863,66.086481 76.9794,55.06795 99.314573,52.641868 116.50635,64.527839 c 23.79342,25.639896 58.31966,57.765391 76.19537,83.473571 10.05352,14.89574 10.95875,28.02033 22.1127,45.59936 z m -67.68355,280.65398 c 1.16966,-33.21269 49.55769,-68.89177 80.02507,-73.10805 88.83728,-3.38469 138.09211,-2.21996 216.16675,1.3941 76.32722,-1.27578 106.13341,40.88971 104.59893,76.2223 -1.60003,36.84159 -37.44606,66.93871 -98.69973,66.78155 -74.48452,-6.05065 -157.10285,7.77643 -226.89326,-3.20802 -32.70869,-4.67864 -75.23954,-60.99082 -75.19776,-68.08188 z M 483.36041,74.282754 c 54.44921,0 104.98997,10.36125 151.62225,31.083766 46.63227,20.72248 87.46918,49.39333 122.51078,86.01258 35.04161,36.61921 62.4009,79.48355 82.07814,128.59308 19.67721,49.10946 29.51586,102.33511 29.51586,159.67679 0,56.20633 -9.97331,108.86429 -29.92007,157.97357 -19.94689,49.10961 -42.18115,88.82493 -77.4923,126.01183 -35.31113,37.18707 -81.67744,69.57463 -128.30972,90.2971 -46.63228,20.72279 -96.63392,31.08393 -150.00494,31.08393 -52.29283,0 -101.62062,-10.64521 -147.98335,-31.93543 C 289.01431,831.78972 226.46409,785.87689 190.88339,748.68998 163.6901,715.77551 146.26858,683.35899 130.8012,643.67922 90.959265,541.46938 90.115163,423.6071 128.7664,325.08183 172.93093,224.64463 245.1779,145.65651 336.18571,104.08906 380.93112,84.218234 429.98933,74.282714 483.36041,74.282714 z m 1.61728,73.238426 c -88.41265,0 -162.53907,32.36114 -222.37934,97.08354 -29.6506,31.79344 -52.69716,67.98682 -69.13975,108.58021 -16.44261,40.59344 -28.58728,76.86301 -28.58728,120.57899 2.13231,45.51619 13.09431,88.78031 28.88153,131.94102 14.93542,40.832 35.94513,78.06003 62.96044,106.85946 29.11148,30.37411 68.69037,54.21905 106.96658,71.53499 38.27621,17.31627 78.70878,25.97425 121.29782,25.97425 41.51079,0 81.53909,-8.37424 120.08486,-25.12241 38.54572,-16.74852 73.45252,-41.01925 104.7204,-72.81269 59.84027,-61.31592 89.7604,-138.81229 89.7604,-232.48957 0,-45.98679 -8.08655,-89.13499 -24.25957,-129.44461 C 759.11074,309.8948 736.73802,274.55297 708.16564,244.17887 679.59328,213.8048 646.16899,190.10167 607.8928,173.06948 569.6166,156.03729 528.64491,147.52118 484.97769,147.52118 z m 397.70003,-31.22216 c -13.79113,7.03151 -59.44954,58.64412 -63.16296,60.99038 -3.77264,2.38363 -41.37563,13.79648 -44.6555,14.5072 l -14.5451,3.81295 -14.77046,-15.02924 23.73622,-58.19909 c 23.31449,-17.54823 41.31939,-46.952316 64.05044,-64.419565 45.52433,-24.76633 85.93416,5.106501 49.34736,58.337365 z" />
	 
</svg>