<?xml version="1.0" encoding="UTF-8" standalone="no"?>
<svg
   xmlns:dc="http://purl.org/dc/elements/1.1/"
   xmlns:cc="http://creativecommons.org/ns#"
   xmlns:rdf="http://www.w3.org/1999/02/22-rdf-syntax-ns#"
   xmlns:svg="http://www.w3.org/2000/svg"
   xmlns="http://www.w3.org/2000/svg"
   xmlns:sodipodi="http://sodipodi.sourceforge.net/DTD/sodipodi-0.dtd"
   xmlns:inkscape="http://www.inkscape.org/namespaces/inkscape"
   version="1.1"
   id="Layer_1"
   x="0px"
   y="0px"
   width="600"
   height="1024"
   viewBox="0 0 600 1024"
   enable-background="new 0 0 512 512"
   xml:space="preserve"
   inkscape:version="0.48.0 r9654"
   sodipodi:docname="uni2F54-x2f54.svg"><metadata
   id="metadata72"><rdf:RDF><cc:Work
       rdf:about=""><dc:format>image/svg+xml</dc:format><dc:type
         rdf:resource="http://purl.org/dc/dcmitype/StillImage" /></cc:Work></rdf:RDF></metadata><defs
   id="defs70" /><sodipodi:namedview
   pagecolor="#ffffff"
   bordercolor="#666666"
   borderopacity="1"
   objecttolerance="10"
   gridtolerance="10"
   guidetolerance="10"
   inkscape:pageopacity="0"
   inkscape:pageshadow="2"
   inkscape:window-width="654"
   inkscape:window-height="693"
   id="namedview68"
   showgrid="false"
   inkscape:zoom="0.36045873"
   inkscape:cx="453.89621"
   inkscape:cy="510.31773"
   inkscape:window-x="384"
   inkscape:window-y="70"
   inkscape:window-maximized="0"
   inkscape:current-layer="Layer_1" />
	<g
   id="Grid"
   transform="matrix(1.9842342,0,0,1.9896421,8.8148452,-0.7681552)">
		<rect
   x="0"
   stroke-miterlimit="10"
   width="512"
   height="512"
   id="rect4"
   y="0"
   style="fill:none;stroke:#a9ccdb;stroke-miterlimit:10" />
		<line
   stroke-miterlimit="10"
   x1="0"
   y1="32"
   x2="512"
   y2="32"
   id="line6"
   style="fill:none;stroke:#a9ccdb;stroke-miterlimit:10" />
		<line
   stroke-miterlimit="10"
   x1="0"
   y1="64"
   x2="512"
   y2="64"
   id="line8"
   style="fill:none;stroke:#a9ccdb;stroke-miterlimit:10" />
		<line
   stroke-miterlimit="10"
   x1="0"
   y1="96"
   x2="512"
   y2="96"
   id="line10"
   style="fill:none;stroke:#a9ccdb;stroke-miterlimit:10" />
		<line
   stroke-miterlimit="10"
   x1="0"
   y1="128"
   x2="512"
   y2="128"
   id="line12"
   style="fill:none;stroke:#a9ccdb;stroke-miterlimit:10" />
		<line
   stroke-miterlimit="10"
   x1="0"
   y1="160"
   x2="512"
   y2="160"
   id="line14"
   style="fill:none;stroke:#a9ccdb;stroke-miterlimit:10" />
		<line
   stroke-miterlimit="10"
   x1="0"
   y1="192"
   x2="512"
   y2="192"
   id="line16"
   style="fill:none;stroke:#a9ccdb;stroke-miterlimit:10" />
		<line
   stroke-miterlimit="10"
   x1="0"
   y1="224"
   x2="512"
   y2="224"
   id="line18"
   style="fill:none;stroke:#a9ccdb;stroke-miterlimit:10" />
		<line
   stroke-miterlimit="10"
   x1="0"
   y1="256"
   x2="512"
   y2="256"
   id="line20"
   style="fill:none;stroke:#a9ccdb;stroke-miterlimit:10" />
		<line
   stroke-miterlimit="10"
   x1="0"
   y1="288"
   x2="512"
   y2="288"
   id="line22"
   style="fill:none;stroke:#a9ccdb;stroke-miterlimit:10" />
		<line
   stroke-miterlimit="10"
   x1="0"
   y1="320"
   x2="512"
   y2="320"
   id="line24"
   style="fill:none;stroke:#a9ccdb;stroke-miterlimit:10" />
		<line
   stroke-miterlimit="10"
   x1="0"
   y1="352"
   x2="512"
   y2="352"
   id="line26"
   style="fill:none;stroke:#a9ccdb;stroke-miterlimit:10" />
		<line
   stroke-miterlimit="10"
   x1="0"
   y1="384"
   x2="512"
   y2="384"
   id="line28"
   style="fill:none;stroke:#a9ccdb;stroke-miterlimit:10" />
		<line
   stroke-miterlimit="10"
   x1="0"
   y1="416"
   x2="512"
   y2="416"
   id="line30"
   style="fill:none;stroke:#a9ccdb;stroke-miterlimit:10" />
		<line
   stroke-miterlimit="10"
   x1="0"
   y1="448"
   x2="512"
   y2="448"
   id="line32"
   style="fill:none;stroke:#ff0000;stroke-miterlimit:10" />
		<line
   stroke-miterlimit="10"
   x1="0"
   y1="480"
   x2="512"
   y2="480"
   id="line34"
   style="fill:none;stroke:#a9ccdb;stroke-miterlimit:10" />
		<line
   stroke-miterlimit="10"
   x1="32"
   y1="0"
   x2="32"
   y2="512"
   id="line36"
   style="fill:none;stroke:#a9ccdb;stroke-miterlimit:10" />
		<line
   stroke-miterlimit="10"
   x1="64"
   y1="0"
   x2="64"
   y2="512"
   id="line38"
   style="fill:none;stroke:#a9ccdb;stroke-miterlimit:10" />
		<line
   stroke-miterlimit="10"
   x1="96"
   y1="0"
   x2="96"
   y2="512"
   id="line40"
   style="fill:none;stroke:#a9ccdb;stroke-miterlimit:10" />
		<line
   stroke-miterlimit="10"
   x1="128"
   y1="0"
   x2="128"
   y2="512"
   id="line42"
   style="fill:none;stroke:#a9ccdb;stroke-miterlimit:10" />
		<line
   stroke-miterlimit="10"
   x1="160"
   y1="0"
   x2="160"
   y2="512"
   id="line44"
   style="fill:none;stroke:#a9ccdb;stroke-miterlimit:10" />
		<line
   stroke-miterlimit="10"
   x1="192"
   y1="0"
   x2="192"
   y2="512"
   id="line46"
   style="fill:none;stroke:#a9ccdb;stroke-miterlimit:10" />
		<line
   stroke-miterlimit="10"
   x1="224"
   y1="0"
   x2="224"
   y2="512"
   id="line48"
   style="fill:none;stroke:#a9ccdb;stroke-miterlimit:10" />
		<line
   stroke-miterlimit="10"
   x1="256"
   y1="0"
   x2="256"
   y2="512"
   id="line50"
   style="fill:none;stroke:#a9ccdb;stroke-miterlimit:10" />
		<line
   stroke-miterlimit="10"
   x1="288"
   y1="0"
   x2="288"
   y2="512"
   id="line52"
   style="fill:none;stroke:#a9ccdb;stroke-miterlimit:10" />
		<line
   stroke-miterlimit="10"
   x1="320"
   y1="0"
   x2="320"
   y2="512"
   id="line54"
   style="fill:none;stroke:#a9ccdb;stroke-miterlimit:10" />
		<line
   stroke-miterlimit="10"
   x1="352"
   y1="0"
   x2="352"
   y2="512"
   id="line56"
   style="fill:none;stroke:#a9ccdb;stroke-miterlimit:10" />
		<line
   stroke-miterlimit="10"
   x1="384"
   y1="0"
   x2="384"
   y2="512"
   id="line58"
   style="fill:none;stroke:#a9ccdb;stroke-miterlimit:10" />
		<line
   stroke-miterlimit="10"
   x1="416"
   y1="0"
   x2="416"
   y2="512"
   id="line60"
   style="fill:none;stroke:#a9ccdb;stroke-miterlimit:10" />
		<line
   stroke-miterlimit="10"
   x1="448"
   y1="0"
   x2="448"
   y2="512"
   id="line62"
   style="fill:none;stroke:#a9ccdb;stroke-miterlimit:10" />
		<line
   stroke-miterlimit="10"
   x1="480"
   y1="0"
   x2="480"
   y2="512"
   id="line64"
   style="fill:none;stroke:#a9ccdb;stroke-miterlimit:10" />
	</g>
	

<path
   style="fill:#636263"
   d="m 510.95721,90.608255 c -10.01567,1.6573 -13.68863,7.18553 -19.77042,29.756425 -2.24598,8.33558 -7.762,25.17408 -12.25761,37.4189 -25.82468,70.33851 -37.3726,107.68636 -60.12297,194.44777 -5.88648,22.44855 -20.65174,77.71555 -32.81185,122.81555 -12.16013,45.1 -28.11619,104.5 -35.45805,132 -7.34177,27.5 -15.59884,58.325 -18.34891,68.5 -2.75006,10.175 -11.06458,42.8 -18.47674,72.5 -34.87114,139.72608 -35.69148,143.48128 -34.65238,158.62222 0.93271,13.58894 6.64967,21.60704 14.20049,19.91607 11.60346,-2.59853 21.58778,-13.57903 32.01205,-35.20599 9.20282,-19.09272 18.12317,-49.58649 31.05477,-106.15965 3.82244,-16.72238 3.86229,-16.82392 6.38681,-16.27791 26.00259,5.62401 44.51463,7.16849 67.55759,5.63644 26.14782,-1.73848 39.99645,-5.48463 44.99655,-12.17186 1.76335,-2.35839 1.83728,-3.05165 0.69118,-6.48516 -2.59229,-7.76642 -18.93551,-20.32937 -34.34522,-26.40105 -7.59897,-2.99413 -17.59188,-5.64454 -24.27331,-6.43796 -11.59101,-1.37643 -44.00671,-5.7654 -44.26279,-5.99302 -0.14716,-0.13076 0.61756,-3.11873 1.69944,-6.63994 4.73006,-15.39577 14.23438,-50.70107 25.00981,-92.90219 31.81219,-124.59061 43.15328,-163.9825 95.44023,-331.5 34.97946,-112.06737 51.35939,-165.57012 52.05694,-170.03712 0.84239,-5.3936 -1.02878,-13.1667 -4.14042,-17.200295 -3.29186,-4.2673 -8.70916,-6.93113 -16.70398,-8.21373 -7.2208,-1.1585 -8.4106,-1.1575 -15.48121,0.013 z M 160.67882,129.41501 c -9.84778,10.65366 -15.32424,26.07199 -20.77441,58.48822 -4.45142,26.47556 -5.75793,40.54742 -6.35718,68.4664 -0.99156,46.20134 1.85246,56.91552 17.10834,64.45317 9.41308,4.65079 15.14007,3.7614 22.20411,-3.44824 3.12995,-3.19443 4.20363,-5.55164 6.78712,-14.89985 5.46524,-19.77588 7.82026,-35.86719 9.12596,-62.35508 1.86793,-37.89572 -2.48094,-80.48639 -10.57042,-103.51982 -5.11904,-14.5757 -9.16014,-16.2326 -17.52352,-7.1848 z m 241.85881,13.38189 c -12.25054,8.09831 -27.07789,35.00151 -36.78843,66.75 -4.74938,15.52793 -9.66755,36.99979 -11.1458,48.6598 -1.80806,14.26197 -1.57645,51.80634 0.36015,58.38692 4.01168,13.63136 13.99448,19.36154 24.02229,13.78901 7.27107,-4.04056 14.9563,-15.96393 17.58682,-27.28528 0.8881,-3.82226 3.20044,-16.64726 5.13856,-28.5 1.93813,-11.85275 5.77857,-30.77545 8.5342,-42.05045 7.35107,-30.07708 9.17339,-41.20812 9.8226,-60 0.64699,-18.72682 -0.41386,-26.31729 -4.25046,-30.41041 -3.30664,-3.52771 -7.24043,-3.33208 -13.27993,0.66041 z m -95.05267,-0.30107 c -8.23442,1.94367 -22.265,11.54082 -25.91904,17.72904 -4.47145,7.57248 -9.12636,29.57962 -17.94152,84.82203 -3.42274,21.45 -8.67862,50.7 -11.67961,65 -14.66139,69.86172 -19.31225,119.4769 -20.71646,221 -0.64081,46.32975 -1.31389,67.58927 -2.43785,77 -1.88361,15.77164 -3.11619,23.34013 -3.93238,24.14722 -1.16997,1.15679 -84.23537,23.90326 -84.93738,23.26688 -0.94351,-0.8553 -1.19606,-134.63239 -0.31736,-168.13986 0.44126,-16.8286 0.312,-29.02785 -0.3542,-33.4264 -1.33118,-8.78921 -6.1012,-18.43313 -12.22333,-24.71326 -4.13546,-4.24218 -5.25891,-4.86034 -8.83316,-4.86034 -7.23152,0 -11.8659,5.53028 -17.5585,20.95271 -5.340735,14.46911 -9.555087,35.26092 -12.171144,60.04729 -0.609563,5.775 -1.515058,42.45 -2.012258,81.5 -0.497299,39.05 -1.173209,73.025 -1.502112,75.5 -3.520136,26.49048 -9.652889,82.23326 -10.602988,96.37445 -1.166736,17.36537 -1.025648,23.83224 1.158141,53.09389 0.931286,12.48012 1.393996,14.71751 4.342798,21 3.922467,8.35695 7.5223,12.80939 11.75951,14.54472 6.789852,2.78078 15.200453,-2.84047 23.659393,-15.81267 9.34067,-14.32466 10.09325,-16.62152 13.66294,-41.70039 6.1456,-43.17673 9.95884,-56.52519 20.12258,-70.43907 2.63589,-3.60851 17.15486,-10.99488 18.54694,-13.02342 5.13674,-7.48538 12.21058,-10.67879 34.95902,-15.78191 18.53389,-4.15765 33.97586,-8.56071 40.82347,-11.64017 13.71857,-6.1694 26.60263,-16.25751 30.62928,-23.98247 3.23957,-6.21499 4.94184,-14.84482 7.77322,-39.4072 4.64429,-40.28901 5.80769,-60.31344 8.65728,-149 3.22602,-100.40169 10.2132,-158.08598 25.43702,-210 5.04722,-17.21157 7.40871,-33.3563 9.42998,-64.47094 1.94146,-29.88541 -0.85847,-44.81172 -9.20678,-49.08017 -3.07775,-1.57367 -3.87158,-1.61973 -8.6155,-0.49996 z m 231.55105,523.04791 c -9.84779,10.65371 -15.32425,26.07204 -20.77442,58.48827 -4.45142,26.47556 -5.75793,40.54742 -6.35718,68.4664 -0.99156,46.20134 1.85246,56.91552 17.10833,64.45317 9.4131,4.65079 15.14008,3.7614 22.20412,-3.44824 3.12994,-3.19443 4.20363,-5.55164 6.78712,-14.89985 5.46524,-19.77588 7.82026,-35.86719 9.12596,-62.35508 1.86793,-37.89572 -2.48094,-80.48639 -10.57043,-103.51982 -5.11903,-14.57571 -9.16014,-16.23263 -17.5235,-7.18485 z m -321.66693,74.09289 c -9.64591,4.72091 -21.5721,21.41974 -26.37498,36.92996 -5.50438,17.77569 -7.93202,43.85158 -6.30691,67.74609 1.7595,25.87302 5.54675,39.5643 12.31173,44.50927 2.38525,1.74352 3.08645,1.81658 6.55904,0.68342 7.85485,-2.56315 20.56082,-18.72231 26.70166,-33.95847 3.03032,-7.51862 5.70969,-17.39766 6.50929,-24 0.36632,-3.025 1.8467,-13.825 3.28964,-24 1.86167,-13.12646 2.65166,-23.14738 2.72003,-34.5 0.0911,-15.06076 -0.0455,-16.26416 -2.32771,-20.5 -3.23057,-5.99762 -8.95119,-13.33682 -11.05245,-14.17971 -3.22056,-1.29191 -7.77879,-0.8109 -12.02934,1.26944 z"
   id="path3756"
   inkscape:connector-curvature="0"
   sodipodi:nodetypes="cssssssssssssssssssssssscccssssssssssssssssssssssssssssssssssssssssssssssssssssssssssssssssssssssssss" />
	 
	 
</svg>