<?xml version="1.0" encoding="UTF-8" standalone="no"?>
<svg
   xmlns:dc="http://purl.org/dc/elements/1.1/"
   xmlns:cc="http://creativecommons.org/ns#"
   xmlns:rdf="http://www.w3.org/1999/02/22-rdf-syntax-ns#"
   xmlns:svg="http://www.w3.org/2000/svg"
   xmlns="http://www.w3.org/2000/svg"
   xmlns:sodipodi="http://sodipodi.sourceforge.net/DTD/sodipodi-0.dtd"
   xmlns:inkscape="http://www.inkscape.org/namespaces/inkscape"
   version="1.1"
   id="Layer_1"
   x="0px"
   y="0px"
   width="1000"
   height="1000"
   viewBox="0 0 1000 1000"
   enable-background="new 0 0 512 512"
   xml:space="preserve"
   inkscape:version="0.48.0 r9654"
   sodipodi:docname="uni2F49-x2f49.svg"><title
   id="title3049">Chinese Moon</title><metadata
   id="metadata72"><rdf:RDF><cc:Work
       rdf:about=""><dc:format>image/svg+xml</dc:format><dc:type
         rdf:resource="http://purl.org/dc/dcmitype/StillImage" /><dc:title>Chinese Moon</dc:title><dc:description>PARENTHESIZED IDEOGRAPH MOON • Monday ≈ 0028 (  6708 月  0029 )
		 Some Font gliphs ispired from pictures found on archeology websites and on books like &quot;EARLY HISTORY OF THE ALPHABET&quot; \nAN INTRODUCTION TO \nWEST SEMITIC EPIGRAPHY AND PALAEOGRAPHY \n\nBy \nJOSEPH NAVEH \n\nTHE MAGNES PRESS, THE HEBREW UNIVERSITY, JERUSALEM \n\nFirst Edition 1982 \nSecond Revised Edition 1987; \nReprinted 1997 \n\n© \nAll rights reserved by \nThe Magnes Press \nThe Hebrew University \nJerusalem 1997 \n\nISBN 965-223-436-2 (Printed in Israel)</dc:description><dc:identifier>ProtoChinese</dc:identifier></cc:Work></rdf:RDF></metadata><defs
   id="defs70" /><sodipodi:namedview
   pagecolor="#ffffff"
   bordercolor="#666666"
   borderopacity="1"
   objecttolerance="10"
   gridtolerance="10"
   guidetolerance="10"
   inkscape:pageopacity="0"
   inkscape:pageshadow="2"
   inkscape:window-width="1130"
   inkscape:window-height="657"
   id="namedview68"
   showgrid="false"
   inkscape:zoom="0.50976562"
   inkscape:cx="256"
   inkscape:cy="491.4023"
   inkscape:window-x="0"
   inkscape:window-y="0"
   inkscape:window-maximized="0"
   inkscape:current-layer="Layer_1" />
	<g
   id="Grid"
   transform="matrix(1.9598131,0,0,1.9483375,0.47942505,1.9765625)">
		<rect
   x="0"
   stroke-miterlimit="10"
   width="512"
   height="512"
   id="rect4"
   y="0"
   style="fill:none;stroke:#a9ccdb;stroke-miterlimit:10" />
		<line
   stroke-miterlimit="10"
   x1="0"
   y1="32"
   x2="512"
   y2="32"
   id="line6"
   style="fill:none;stroke:#a9ccdb;stroke-miterlimit:10" />
		<line
   stroke-miterlimit="10"
   x1="0"
   y1="64"
   x2="512"
   y2="64"
   id="line8"
   style="fill:none;stroke:#a9ccdb;stroke-miterlimit:10" />
		<line
   stroke-miterlimit="10"
   x1="0"
   y1="96"
   x2="512"
   y2="96"
   id="line10"
   style="fill:none;stroke:#a9ccdb;stroke-miterlimit:10" />
		<line
   stroke-miterlimit="10"
   x1="0"
   y1="128"
   x2="512"
   y2="128"
   id="line12"
   style="fill:none;stroke:#a9ccdb;stroke-miterlimit:10" />
		<line
   stroke-miterlimit="10"
   x1="0"
   y1="160"
   x2="512"
   y2="160"
   id="line14"
   style="fill:none;stroke:#a9ccdb;stroke-miterlimit:10" />
		<line
   stroke-miterlimit="10"
   x1="0"
   y1="192"
   x2="512"
   y2="192"
   id="line16"
   style="fill:none;stroke:#a9ccdb;stroke-miterlimit:10" />
		<line
   stroke-miterlimit="10"
   x1="0"
   y1="224"
   x2="512"
   y2="224"
   id="line18"
   style="fill:none;stroke:#a9ccdb;stroke-miterlimit:10" />
		<line
   stroke-miterlimit="10"
   x1="0"
   y1="256"
   x2="512"
   y2="256"
   id="line20"
   style="fill:none;stroke:#a9ccdb;stroke-miterlimit:10" />
		<line
   stroke-miterlimit="10"
   x1="0"
   y1="288"
   x2="512"
   y2="288"
   id="line22"
   style="fill:none;stroke:#a9ccdb;stroke-miterlimit:10" />
		<line
   stroke-miterlimit="10"
   x1="0"
   y1="320"
   x2="512"
   y2="320"
   id="line24"
   style="fill:none;stroke:#a9ccdb;stroke-miterlimit:10" />
		<line
   stroke-miterlimit="10"
   x1="0"
   y1="352"
   x2="512"
   y2="352"
   id="line26"
   style="fill:none;stroke:#a9ccdb;stroke-miterlimit:10" />
		<line
   stroke-miterlimit="10"
   x1="0"
   y1="384"
   x2="512"
   y2="384"
   id="line28"
   style="fill:none;stroke:#a9ccdb;stroke-miterlimit:10" />
		<line
   stroke-miterlimit="10"
   x1="0"
   y1="416"
   x2="512"
   y2="416"
   id="line30"
   style="fill:none;stroke:#a9ccdb;stroke-miterlimit:10" />
		<line
   stroke-miterlimit="10"
   x1="0"
   y1="448"
   x2="512"
   y2="448"
   id="line32"
   style="fill:none;stroke:#ff0000;stroke-miterlimit:10" />
		<line
   stroke-miterlimit="10"
   x1="0"
   y1="480"
   x2="512"
   y2="480"
   id="line34"
   style="fill:none;stroke:#a9ccdb;stroke-miterlimit:10" />
		<line
   stroke-miterlimit="10"
   x1="32"
   y1="0"
   x2="32"
   y2="512"
   id="line36"
   style="fill:none;stroke:#a9ccdb;stroke-miterlimit:10" />
		<line
   stroke-miterlimit="10"
   x1="64"
   y1="0"
   x2="64"
   y2="512"
   id="line38"
   style="fill:none;stroke:#a9ccdb;stroke-miterlimit:10" />
		<line
   stroke-miterlimit="10"
   x1="96"
   y1="0"
   x2="96"
   y2="512"
   id="line40"
   style="fill:none;stroke:#a9ccdb;stroke-miterlimit:10" />
		<line
   stroke-miterlimit="10"
   x1="128"
   y1="0"
   x2="128"
   y2="512"
   id="line42"
   style="fill:none;stroke:#a9ccdb;stroke-miterlimit:10" />
		<line
   stroke-miterlimit="10"
   x1="160"
   y1="0"
   x2="160"
   y2="512"
   id="line44"
   style="fill:none;stroke:#a9ccdb;stroke-miterlimit:10" />
		<line
   stroke-miterlimit="10"
   x1="192"
   y1="0"
   x2="192"
   y2="512"
   id="line46"
   style="fill:none;stroke:#a9ccdb;stroke-miterlimit:10" />
		<line
   stroke-miterlimit="10"
   x1="224"
   y1="0"
   x2="224"
   y2="512"
   id="line48"
   style="fill:none;stroke:#a9ccdb;stroke-miterlimit:10" />
		<line
   stroke-miterlimit="10"
   x1="256"
   y1="0"
   x2="256"
   y2="512"
   id="line50"
   style="fill:none;stroke:#a9ccdb;stroke-miterlimit:10" />
		<line
   stroke-miterlimit="10"
   x1="288"
   y1="0"
   x2="288"
   y2="512"
   id="line52"
   style="fill:none;stroke:#a9ccdb;stroke-miterlimit:10" />
		<line
   stroke-miterlimit="10"
   x1="320"
   y1="0"
   x2="320"
   y2="512"
   id="line54"
   style="fill:none;stroke:#a9ccdb;stroke-miterlimit:10" />
		<line
   stroke-miterlimit="10"
   x1="352"
   y1="0"
   x2="352"
   y2="512"
   id="line56"
   style="fill:none;stroke:#a9ccdb;stroke-miterlimit:10" />
		<line
   stroke-miterlimit="10"
   x1="384"
   y1="0"
   x2="384"
   y2="512"
   id="line58"
   style="fill:none;stroke:#a9ccdb;stroke-miterlimit:10" />
		<line
   stroke-miterlimit="10"
   x1="416"
   y1="0"
   x2="416"
   y2="512"
   id="line60"
   style="fill:none;stroke:#a9ccdb;stroke-miterlimit:10" />
		<line
   stroke-miterlimit="10"
   x1="448"
   y1="0"
   x2="448"
   y2="512"
   id="line62"
   style="fill:none;stroke:#a9ccdb;stroke-miterlimit:10" />
		<line
   stroke-miterlimit="10"
   x1="480"
   y1="0"
   x2="480"
   y2="512"
   id="line64"
   style="fill:none;stroke:#a9ccdb;stroke-miterlimit:10" />
	</g>
	<path
   d="M 239.69201,86.957008 C 151.73406,129.24944 54.750463,216.89242 54.750463,254.0865 c 0,28.06607 9.691868,31.37237 65.038567,22.18737 76.27528,-12.65823 174.73619,19.19724 249.96529,80.87243 69.01594,56.58141 78.06176,181.89918 40.60486,273.20557 -12.29839,29.97898 -18.39056,28.59963 -38.71411,46.39544 -22.9503,20.09585 -77.08711,53.47731 -107.95366,67.6387 -76.03649,34.88501 -55.09957,84.57999 -11.31419,109.12623 14.43743,8.09365 84.00461,14.83436 154.59377,14.97944 162.9694,0.33506 272.49243,-47.72019 371.23906,-162.88749 77.10217,-89.92347 97.77932,-189.19441 86.96488,-285.37503 C 859.43427,369.17339 843.31999,320.31279 818.96922,276.91365 785.39614,217.07807 730.84367,150.97369 671.55842,126.81333 568.08141,84.64366 558.52634,67.829047 436.4103,63.630763 337.11006,60.216981 281.62066,66.79668 239.69201,86.957008 z m 295.51222,29.997512 c 40.74244,9.42703 142.8426,60.64271 196.91441,117.44209 26.34225,27.67106 43.5426,68.53566 72.9524,111.53439 21.12569,30.88684 34.99579,93.79291 23.19812,172.81064 -11.53348,77.24845 -37.5446,81.16293 -54.41414,120.74498 -13.2691,31.13413 -60.83861,70.81997 -93.55129,89.41883 -18.40735,10.46553 -33.44573,28.60347 -45.74378,35.91122 -94.80072,56.33251 -26.76658,18.24901 -83.88812,40.2997 -80.99416,31.26626 -205.08184,18.25284 -259.39373,18.25284 -77.90605,0 6.54113,-61.72195 71.10434,-92.28813 25.35496,-12.00379 72.99359,-48.38673 89.11527,-82.78979 16.3026,-34.78918 16.94589,-62.96011 22.62826,-85.77471 7.7855,-31.25877 -7.53951,-61.83723 -8.3058,-89.85407 -0.68702,-25.12101 -5.46143,-48.61701 -18.13713,-70.3007 -17.83352,-30.50696 -29.23333,-74.45341 -72.11542,-99.31939 -52.50706,-30.44714 -112.31328,-53.42592 -151.30963,-61.00263 -30.40361,-5.90721 -107.65332,-1.67503 -108.33136,-13.11603 -0.90651,-15.29535 74.11032,-71.00168 108.25298,-86.22259 27.80613,-12.39609 55.6939,-17.65746 83.92577,-25.11839 81.38837,-21.508749 133.70023,-22.238875 227.09885,-0.62826 z m 75.0099,284.99683 c -15.38797,13.61237 -21.23963,36.16528 -17.84244,56.2665 3.15648,18.6775 14.2981,35.23835 33.19412,40.54372 29.26871,8.21764 56.03399,0.0337 72.17085,-17.14846 12.05599,-12.83696 18.17952,-30.69662 14.98235,-50.49175 -2.80901,-17.39198 -19.7895,-30.83028 -39.94307,-37.20044 -21.7733,-6.88215 -47.2502,-5.51445 -62.56181,8.03043 z"
   id="path66"
   inkscape:connector-curvature="0" />
</svg>