<?xml version="1.0" encoding="UTF-8" standalone="no"?>
<svg
   xmlns:dc="http://purl.org/dc/elements/1.1/"
   xmlns:cc="http://creativecommons.org/ns#"
   xmlns:rdf="http://www.w3.org/1999/02/22-rdf-syntax-ns#"
   xmlns:svg="http://www.w3.org/2000/svg"
   xmlns="http://www.w3.org/2000/svg"
   xmlns:sodipodi="http://sodipodi.sourceforge.net/DTD/sodipodi-0.dtd"
   xmlns:inkscape="http://www.inkscape.org/namespaces/inkscape"
   version="1.1"
   id="Layer_1"
   x="0px"
   y="0px"
   width="960"
   height="1024"
   viewBox="0 0 960 1024"
   enable-background="new 0 0 512 512"
   xml:space="preserve"
   inkscape:version="0.48.0 r9654"
   sodipodi:docname="uni2F71-x2f71.svg"><metadata
   id="metadata72"><rdf:RDF><cc:Work
       rdf:about=""><dc:format>image/svg+xml</dc:format><dc:type
         rdf:resource="http://purl.org/dc/dcmitype/StillImage" /><dc:title></dc:title></cc:Work></rdf:RDF></metadata><defs
   id="defs70" /><sodipodi:namedview
   pagecolor="#ffffff"
   bordercolor="#666666"
   borderopacity="1"
   objecttolerance="10"
   gridtolerance="10"
   guidetolerance="10"
   inkscape:pageopacity="0"
   inkscape:pageshadow="2"
   inkscape:window-width="1152"
   inkscape:window-height="814"
   id="namedview68"
   showgrid="false"
   inkscape:zoom="0.36045873"
   inkscape:cx="-50.958941"
   inkscape:cy="682.31775"
   inkscape:window-x="-8"
   inkscape:window-y="-8"
   inkscape:window-maximized="1"
   inkscape:current-layer="Layer_1" />
	<g
   id="Grid"
   transform="matrix(2.0018746,0,0,1.9942267,0.50093732,2.4588296)">
		<rect
   x="0"
   stroke-miterlimit="10"
   width="512"
   height="512"
   id="rect4"
   y="0"
   style="fill:none;stroke:#a9ccdb;stroke-miterlimit:10" />
		<line
   stroke-miterlimit="10"
   x1="0"
   y1="32"
   x2="512"
   y2="32"
   id="line6"
   style="fill:none;stroke:#a9ccdb;stroke-miterlimit:10" />
		<line
   stroke-miterlimit="10"
   x1="0"
   y1="64"
   x2="512"
   y2="64"
   id="line8"
   style="fill:none;stroke:#a9ccdb;stroke-miterlimit:10" />
		<line
   stroke-miterlimit="10"
   x1="0"
   y1="96"
   x2="512"
   y2="96"
   id="line10"
   style="fill:none;stroke:#a9ccdb;stroke-miterlimit:10" />
		<line
   stroke-miterlimit="10"
   x1="0"
   y1="128"
   x2="512"
   y2="128"
   id="line12"
   style="fill:none;stroke:#a9ccdb;stroke-miterlimit:10" />
		<line
   stroke-miterlimit="10"
   x1="0"
   y1="160"
   x2="512"
   y2="160"
   id="line14"
   style="fill:none;stroke:#a9ccdb;stroke-miterlimit:10" />
		<line
   stroke-miterlimit="10"
   x1="0"
   y1="192"
   x2="512"
   y2="192"
   id="line16"
   style="fill:none;stroke:#a9ccdb;stroke-miterlimit:10" />
		<line
   stroke-miterlimit="10"
   x1="0"
   y1="224"
   x2="512"
   y2="224"
   id="line18"
   style="fill:none;stroke:#a9ccdb;stroke-miterlimit:10" />
		<line
   stroke-miterlimit="10"
   x1="0"
   y1="256"
   x2="512"
   y2="256"
   id="line20"
   style="fill:none;stroke:#a9ccdb;stroke-miterlimit:10" />
		<line
   stroke-miterlimit="10"
   x1="0"
   y1="288"
   x2="512"
   y2="288"
   id="line22"
   style="fill:none;stroke:#a9ccdb;stroke-miterlimit:10" />
		<line
   stroke-miterlimit="10"
   x1="0"
   y1="320"
   x2="512"
   y2="320"
   id="line24"
   style="fill:none;stroke:#a9ccdb;stroke-miterlimit:10" />
		<line
   stroke-miterlimit="10"
   x1="0"
   y1="352"
   x2="512"
   y2="352"
   id="line26"
   style="fill:none;stroke:#a9ccdb;stroke-miterlimit:10" />
		<line
   stroke-miterlimit="10"
   x1="0"
   y1="384"
   x2="512"
   y2="384"
   id="line28"
   style="fill:none;stroke:#a9ccdb;stroke-miterlimit:10" />
		<line
   stroke-miterlimit="10"
   x1="0"
   y1="416"
   x2="512"
   y2="416"
   id="line30"
   style="fill:none;stroke:#a9ccdb;stroke-miterlimit:10" />
		<line
   stroke-miterlimit="10"
   x1="0"
   y1="448"
   x2="512"
   y2="448"
   id="line32"
   style="fill:none;stroke:#ff0000;stroke-miterlimit:10" />
		<line
   stroke-miterlimit="10"
   x1="0"
   y1="480"
   x2="512"
   y2="480"
   id="line34"
   style="fill:none;stroke:#a9ccdb;stroke-miterlimit:10" />
		<line
   stroke-miterlimit="10"
   x1="32"
   y1="0"
   x2="32"
   y2="512"
   id="line36"
   style="fill:none;stroke:#a9ccdb;stroke-miterlimit:10" />
		<line
   stroke-miterlimit="10"
   x1="64"
   y1="0"
   x2="64"
   y2="512"
   id="line38"
   style="fill:none;stroke:#a9ccdb;stroke-miterlimit:10" />
		<line
   stroke-miterlimit="10"
   x1="96"
   y1="0"
   x2="96"
   y2="512"
   id="line40"
   style="fill:none;stroke:#a9ccdb;stroke-miterlimit:10" />
		<line
   stroke-miterlimit="10"
   x1="128"
   y1="0"
   x2="128"
   y2="512"
   id="line42"
   style="fill:none;stroke:#a9ccdb;stroke-miterlimit:10" />
		<line
   stroke-miterlimit="10"
   x1="160"
   y1="0"
   x2="160"
   y2="512"
   id="line44"
   style="fill:none;stroke:#a9ccdb;stroke-miterlimit:10" />
		<line
   stroke-miterlimit="10"
   x1="192"
   y1="0"
   x2="192"
   y2="512"
   id="line46"
   style="fill:none;stroke:#a9ccdb;stroke-miterlimit:10" />
		<line
   stroke-miterlimit="10"
   x1="224"
   y1="0"
   x2="224"
   y2="512"
   id="line48"
   style="fill:none;stroke:#a9ccdb;stroke-miterlimit:10" />
		<line
   stroke-miterlimit="10"
   x1="256"
   y1="0"
   x2="256"
   y2="512"
   id="line50"
   style="fill:none;stroke:#a9ccdb;stroke-miterlimit:10" />
		<line
   stroke-miterlimit="10"
   x1="288"
   y1="0"
   x2="288"
   y2="512"
   id="line52"
   style="fill:none;stroke:#a9ccdb;stroke-miterlimit:10" />
		<line
   stroke-miterlimit="10"
   x1="320"
   y1="0"
   x2="320"
   y2="512"
   id="line54"
   style="fill:none;stroke:#a9ccdb;stroke-miterlimit:10" />
		<line
   stroke-miterlimit="10"
   x1="352"
   y1="0"
   x2="352"
   y2="512"
   id="line56"
   style="fill:none;stroke:#a9ccdb;stroke-miterlimit:10" />
		<line
   stroke-miterlimit="10"
   x1="384"
   y1="0"
   x2="384"
   y2="512"
   id="line58"
   style="fill:none;stroke:#a9ccdb;stroke-miterlimit:10" />
		<line
   stroke-miterlimit="10"
   x1="416"
   y1="0"
   x2="416"
   y2="512"
   id="line60"
   style="fill:none;stroke:#a9ccdb;stroke-miterlimit:10" />
		<line
   stroke-miterlimit="10"
   x1="448"
   y1="0"
   x2="448"
   y2="512"
   id="line62"
   style="fill:none;stroke:#a9ccdb;stroke-miterlimit:10" />
		<line
   stroke-miterlimit="10"
   x1="480"
   y1="0"
   x2="480"
   y2="512"
   id="line64"
   style="fill:none;stroke:#a9ccdb;stroke-miterlimit:10" />
	</g>
	
<path
   style="fill:#030303"
   d="m 857.40269,85.79171 c -68.36851,51.61607 -88.32644,105.12318 -105.67772,156.77275 -31.39256,93.4462 -21.3219,185.81415 -18.2537,295.9537 1.08018,38.7756 11.83799,145.17448 0.63043,179.39084 -8.13251,21.82539 -30.15695,23.17855 -86.63004,22.645 -24.77784,-0.23409 -49.50188,-1.90326 -64.03082,-5.17046 -9.62081,-1.40822 -17.44158,-5.10545 -21.47511,-11.5152 -6.76287,-10.83797 -15.66923,-33.74841 -26.20322,-61.76236 -16.88518,-40.66864 -31.75436,-83.82552 -47.18991,-121.85879 -21.58439,-52.23643 -29.37325,-94.20548 -36.22181,-122.14515 -5.31245,-22.28231 -9.89004,-58.59048 7.42632,-67.51664 18.53211,-3.65388 39.99122,-5.40065 61.37965,-5.2795 22.69207,0.12862 42.55445,-1.56632 61.50762,2.7205 12.03505,2.85847 19.19976,8.87647 23.41261,16.58931 5.84647,16.01262 7.47289,34.70958 5.84363,53.45055 -1.75766,20.21751 -7.3042,40.48628 -15.4289,57.49142 -6.44416,14.63864 -31.08271,45.89212 -18.44606,54.88027 29.90329,-6.76975 43.27213,-30.0147 55.66684,-52.94635 8.19599,-18.38206 13.55357,-38.52699 16.19713,-58.11434 3.41984,-21.41939 0.94301,-42.73859 -0.9561,-62.43823 -1.7715,-17.99719 -5.25399,-35.85778 -17.21549,-43.43266 -14.17661,-6.77309 -30.19029,-10.58268 -46.52717,-12.7469 -22.25032,-2.94762 -45.10014,-2.84313 -64.72475,-3.01668 -20.55733,-0.13279 -40.54501,0.99645 -56.81637,4.91716 -16.09556,4.02634 -30.76733,11.25582 -42.6867,23.58056 -9.24889,9.87267 -14.73565,20.08114 -19.14245,32.93358 -6.63056,19.33803 -0.91619,42.83934 1.08294,61.99746 7.22323,40.62692 18.47985,80.75797 33.60382,119.47218 6.79239,21.1347 14.52234,41.76539 22.52216,62.06478 4.37275,23.83763 56.81498,106.24745 38.71264,120.53764 -11.7011,7.30885 -118.56623,-11.33586 -165.42885,-28.67601 -23.63102,-8.74397 -35.31856,-20.85141 -33.65514,-30.26791 8.93401,-53.19044 26.35725,-101.45979 29.11172,-150.43815 1.59089,-28.28851 1.37793,-62.92291 -2.22936,-95.85227 C 322.08954,357.03357 302.74832,305.87606 278.12549,259.20641 217.88137,148.02711 135.70953,62.15593 89.948286,62.15593 c -29.568726,0 -17.446152,25.21969 31.708134,65.96553 97.71029,117.37035 158.91369,251.75509 148.83198,380.69673 -2.8197,36.06276 -5.92532,71.90388 -21.20915,107.14626 -5.77078,12.89467 -17.15731,24.39414 -26.18311,37.4328 l -54.68028,-22.62797 c -36.84518,-15.2474 -49.49626,-5.40851 -52.34158,7.91908 -2.61505,12.24905 -4.35669,28.14196 29.24691,38.85018 23.21007,7.39619 47.91919,14.78053 59.15291,22.87342 8.2284,5.92782 11.90402,12.56748 14.24291,21.32967 9.88446,21.22136 12.108,40.51833 20.25151,60.56358 15.69906,38.26721 48.25039,71.88687 94.75188,97.38974 42.67047,23.40183 69.07299,26.33412 69.07299,7.67123 0,-4.47719 -21.85912,-23.65199 -48.57587,-42.61063 -48.60487,-34.4908 -80.46986,-91.29301 -67.14093,-112.98939 15.49989,7.6102 24.17554,7.46286 42.5024,12.19641 43.52993,11.24314 85.33086,19.82531 125.29695,26.73883 18.31314,3.1679 32.60473,-4.90993 47.83907,3.21143 24.37829,16.37763 23.62213,39.82546 0.0913,100.94359 -8.61486,22.37604 8.20882,28.39906 41.9546,15.02003 19.81546,-7.85611 36.27665,-45.84022 38.52574,-79.69259 l 1.37636,-20.71665 65.09128,3.62578 c 22.43468,1.01742 71.62342,-2.05415 102.61351,-11.35004 30.93244,-9.27859 40.24503,-30.65207 45.01239,-49.26124 5.16095,-23.76478 -7.7622,-72.76145 -12.62772,-193.79033 -7.76642,-193.18814 -6.7731,-206.92869 20.08115,-277.77787 15.53843,-40.99492 43.43612,-91.22844 63.67693,-116.4145 C 888.75186,119.313 903.5711,89.9412 901.44293,79.22837 l -3.86978,-19.47779 z"
   id="path3790"
   inkscape:connector-curvature="0"
   sodipodi:nodetypes="csscsccccccsccsccccccscccsccccscsccscsccssssccssscsscsssccscsssccc" />
	 
</svg>