<?xml version="1.0" encoding="UTF-8" standalone="no"?>
<svg
   xmlns:dc="http://purl.org/dc/elements/1.1/"
   xmlns:cc="http://creativecommons.org/ns#"
   xmlns:rdf="http://www.w3.org/1999/02/22-rdf-syntax-ns#"
   xmlns:svg="http://www.w3.org/2000/svg"
   xmlns="http://www.w3.org/2000/svg"
   xmlns:sodipodi="http://sodipodi.sourceforge.net/DTD/sodipodi-0.dtd"
   xmlns:inkscape="http://www.inkscape.org/namespaces/inkscape"
   version="1.1"
   id="Layer_1"
   x="0px"
   y="0px"
   width="1000"
   height="1000"
   viewBox="0 0 1000 1000"
   enable-background="new 0 0 512 512"
   xml:space="preserve"
   inkscape:version="0.48.0 r9654"
   sodipodi:docname="uni2EE6-x2ee6.svg"><metadata
   id="metadata72"><rdf:RDF><cc:Work
       rdf:about=""><dc:format>image/svg+xml</dc:format><dc:type
         rdf:resource="http://purl.org/dc/dcmitype/StillImage" /></cc:Work></rdf:RDF></metadata><defs
   id="defs70" /><sodipodi:namedview
   pagecolor="#ffffff"
   bordercolor="#666666"
   borderopacity="1"
   objecttolerance="10"
   gridtolerance="10"
   guidetolerance="10"
   inkscape:pageopacity="0"
   inkscape:pageshadow="2"
   inkscape:window-width="1152"
   inkscape:window-height="814"
   id="namedview68"
   showgrid="false"
   inkscape:zoom="0.36045873"
   inkscape:cx="-82.08426"
   inkscape:cy="547.96695"
   inkscape:window-x="-8"
   inkscape:window-y="-8"
   inkscape:window-maximized="1"
   inkscape:current-layer="Layer_1" />
	<g
   id="Grid"
   transform="matrix(1.9559636,0,0,1.952167,0.48404577,0.01535327)">
		<rect
   x="0"
   stroke-miterlimit="10"
   width="512"
   height="512"
   id="rect4"
   y="0"
   style="fill:none;stroke:#a9ccdb;stroke-miterlimit:10" />
		<line
   stroke-miterlimit="10"
   x1="0"
   y1="32"
   x2="512"
   y2="32"
   id="line6"
   style="fill:none;stroke:#a9ccdb;stroke-miterlimit:10" />
		<line
   stroke-miterlimit="10"
   x1="0"
   y1="64"
   x2="512"
   y2="64"
   id="line8"
   style="fill:none;stroke:#a9ccdb;stroke-miterlimit:10" />
		<line
   stroke-miterlimit="10"
   x1="0"
   y1="96"
   x2="512"
   y2="96"
   id="line10"
   style="fill:none;stroke:#a9ccdb;stroke-miterlimit:10" />
		<line
   stroke-miterlimit="10"
   x1="0"
   y1="128"
   x2="512"
   y2="128"
   id="line12"
   style="fill:none;stroke:#a9ccdb;stroke-miterlimit:10" />
		<line
   stroke-miterlimit="10"
   x1="0"
   y1="160"
   x2="512"
   y2="160"
   id="line14"
   style="fill:none;stroke:#a9ccdb;stroke-miterlimit:10" />
		<line
   stroke-miterlimit="10"
   x1="0"
   y1="192"
   x2="512"
   y2="192"
   id="line16"
   style="fill:none;stroke:#a9ccdb;stroke-miterlimit:10" />
		<line
   stroke-miterlimit="10"
   x1="0"
   y1="224"
   x2="512"
   y2="224"
   id="line18"
   style="fill:none;stroke:#a9ccdb;stroke-miterlimit:10" />
		<line
   stroke-miterlimit="10"
   x1="0"
   y1="256"
   x2="512"
   y2="256"
   id="line20"
   style="fill:none;stroke:#a9ccdb;stroke-miterlimit:10" />
		<line
   stroke-miterlimit="10"
   x1="0"
   y1="288"
   x2="512"
   y2="288"
   id="line22"
   style="fill:none;stroke:#a9ccdb;stroke-miterlimit:10" />
		<line
   stroke-miterlimit="10"
   x1="0"
   y1="320"
   x2="512"
   y2="320"
   id="line24"
   style="fill:none;stroke:#a9ccdb;stroke-miterlimit:10" />
		<line
   stroke-miterlimit="10"
   x1="0"
   y1="352"
   x2="512"
   y2="352"
   id="line26"
   style="fill:none;stroke:#a9ccdb;stroke-miterlimit:10" />
		<line
   stroke-miterlimit="10"
   x1="0"
   y1="384"
   x2="512"
   y2="384"
   id="line28"
   style="fill:none;stroke:#a9ccdb;stroke-miterlimit:10" />
		<line
   stroke-miterlimit="10"
   x1="0"
   y1="416"
   x2="512"
   y2="416"
   id="line30"
   style="fill:none;stroke:#a9ccdb;stroke-miterlimit:10" />
		<line
   stroke-miterlimit="10"
   x1="0"
   y1="448"
   x2="512"
   y2="448"
   id="line32"
   style="fill:none;stroke:#ff0000;stroke-miterlimit:10" />
		<line
   stroke-miterlimit="10"
   x1="0"
   y1="480"
   x2="512"
   y2="480"
   id="line34"
   style="fill:none;stroke:#a9ccdb;stroke-miterlimit:10" />
		<line
   stroke-miterlimit="10"
   x1="32"
   y1="0"
   x2="32"
   y2="512"
   id="line36"
   style="fill:none;stroke:#a9ccdb;stroke-miterlimit:10" />
		<line
   stroke-miterlimit="10"
   x1="64"
   y1="0"
   x2="64"
   y2="512"
   id="line38"
   style="fill:none;stroke:#a9ccdb;stroke-miterlimit:10" />
		<line
   stroke-miterlimit="10"
   x1="96"
   y1="0"
   x2="96"
   y2="512"
   id="line40"
   style="fill:none;stroke:#a9ccdb;stroke-miterlimit:10" />
		<line
   stroke-miterlimit="10"
   x1="128"
   y1="0"
   x2="128"
   y2="512"
   id="line42"
   style="fill:none;stroke:#a9ccdb;stroke-miterlimit:10" />
		<line
   stroke-miterlimit="10"
   x1="160"
   y1="0"
   x2="160"
   y2="512"
   id="line44"
   style="fill:none;stroke:#a9ccdb;stroke-miterlimit:10" />
		<line
   stroke-miterlimit="10"
   x1="192"
   y1="0"
   x2="192"
   y2="512"
   id="line46"
   style="fill:none;stroke:#a9ccdb;stroke-miterlimit:10" />
		<line
   stroke-miterlimit="10"
   x1="224"
   y1="0"
   x2="224"
   y2="512"
   id="line48"
   style="fill:none;stroke:#a9ccdb;stroke-miterlimit:10" />
		<line
   stroke-miterlimit="10"
   x1="256"
   y1="0"
   x2="256"
   y2="512"
   id="line50"
   style="fill:none;stroke:#a9ccdb;stroke-miterlimit:10" />
		<line
   stroke-miterlimit="10"
   x1="288"
   y1="0"
   x2="288"
   y2="512"
   id="line52"
   style="fill:none;stroke:#a9ccdb;stroke-miterlimit:10" />
		<line
   stroke-miterlimit="10"
   x1="320"
   y1="0"
   x2="320"
   y2="512"
   id="line54"
   style="fill:none;stroke:#a9ccdb;stroke-miterlimit:10" />
		<line
   stroke-miterlimit="10"
   x1="352"
   y1="0"
   x2="352"
   y2="512"
   id="line56"
   style="fill:none;stroke:#a9ccdb;stroke-miterlimit:10" />
		<line
   stroke-miterlimit="10"
   x1="384"
   y1="0"
   x2="384"
   y2="512"
   id="line58"
   style="fill:none;stroke:#a9ccdb;stroke-miterlimit:10" />
		<line
   stroke-miterlimit="10"
   x1="416"
   y1="0"
   x2="416"
   y2="512"
   id="line60"
   style="fill:none;stroke:#a9ccdb;stroke-miterlimit:10" />
		<line
   stroke-miterlimit="10"
   x1="448"
   y1="0"
   x2="448"
   y2="512"
   id="line62"
   style="fill:none;stroke:#a9ccdb;stroke-miterlimit:10" />
		<line
   stroke-miterlimit="10"
   x1="480"
   y1="0"
   x2="480"
   y2="512"
   id="line64"
   style="fill:none;stroke:#a9ccdb;stroke-miterlimit:10" />
	</g>
	
<g
   id="g3060"
   transform="matrix(0.9114309,0,0,1.4266931,-10.287045,-377.12154)"
   style="fill:#000000;fill-opacity:1;stroke:#000000;stroke-opacity:1"><g
     id="g3026"
     transform="matrix(1.0071148,0,0,0.88609495,894.35147,17.689424)"
     style="fill:#000000;fill-opacity:1;stroke:#000000;stroke-opacity:1"><path
       style="fill:#000000;fill-opacity:1;stroke:#000000;stroke-opacity:1"
       d="m -827.598,812.353 c 4.59703,0.0507 12.07617,-6.67458 22.14902,-4.68929 2.9012,-4.4344 20.59991,-4.224 24.55461,-5.5672 22.6294,-7.6863 23.64805,-10.66152 50.30046,-16.67289 13.00153,-2.93246 26.31647,-7.18535 36.06641,-17.34078 8.84302,-9.2108 7.2144,-2.43822 12.57937,-10.91668 5.30742,-8.38752 17.62043,-32.02843 24.10602,-40.6951 -1.03525,-3.09323 -5.00239,-13.27034 -5.85844,-16.27784 -4.57962,-16.08904 -3.59721,-23.97218 -3.35909,-39.55032 0.19718,-11.37452 1.65674,-22.49622 0.39604,-34.02367 -1.2566,-18.15363 -1.13229,-35.60795 -5.63141,-51.93726 -3.52401,-15.9111 -11.98012,-27.48852 -18.02759,-40.39776 -4.09536,-8.74219 -12.61584,-18.11937 -19.27289,-26.50014 -1.42394,-1.91204 -28.92165,-30.76439 -34.0799,-33.80922 -2.0294,-1.19792 -32.51601,-11.74055 -42.22666,-15.37176 -13.34565,-5.48664 -19.02567,-4.58994 -16.54837,-7.9115 7.74703,-10.38719 25.11851,-14.98086 62.8191,-14.35396 26.37717,0.4386 18.72832,1.36881 41.27502,-6.15709 8.1984,-2.77758 18.1153,-6.99016 26.48572,-9.60673 11.52835,-3.08534 22.12135,-5.40658 33.05575,-5.50635 11.58988,0.40458 23.61902,1.016 35.12977,2.55336 12.23838,1.63455 23.89075,4.3158 33.80614,8.90804 14.25959,6.72632 24.96253,16.51087 33.7271,27.2104 5.15921,9.76748 9.81509,17.51021 12.73462,26.86629 3.07885,9.86666 3.00778,19.91102 6.13137,31.86359 1.71156,4.39881 -1.65397,57.61625 18.78651,81.91305 19.89196,18.37474 48.9306,16.79667 53.88043,15.30372 14.27674,-1.87911 31.15068,-2.43811 41.74568,-9.49049 14.9306,-9.9383 38.80045,-27.2658 56.14759,-41.15437 23.6067,-19.4523 59.40597,-49.57524 82.49273,-64.46371 25.95826,-15.19746 45.90258,-24.92422 70.94233,-32.90864 89.20312,-26.47161 185.8174234,-8.96608 271.942202,4.32891 3.099309,0.48752 37.460018,6.67072 68.724878,12.44725 18.01222,3.32796 34.7445,5.87542 44.52711,11.78456 9.3947,6.37096 -47.02548,38.07873 -88.78342,58.40986 -20.721405,10.08885 -37.832368,17.37631 -41.49928,17.37631 -0.473287,0 -9.555347,1.70929 -14.385024,0.34345 -7.49611,-2.11991 -30.775982,-9.33484 -62.019512,-13.48788 -11.67922,-1.55246 -20.185433,-2.17403 -33.175557,-2.40857 -2.15577,-0.34634 -5.508537,-0.51362 -9.031645,-0.63687 -4.657419,-0.16293 -9.612523,-0.24893 -12.493488,-0.56998 -16.279913,-1.81419 -26.380415,-3.43935 -42.890274,-4.71993 21.691687,4.5289 36.650277,6.10368 55.027151,7.18001 6.663132,0.39025 13.775652,0.71498 21.821448,1.09123 4.342113,1.05441 8.980798,1.53245 13.602146,1.89817 4.100145,0.32447 8.186642,0.56053 12.0402614,1.03228 15.0169947,1.88584 22.4133516,6.24345 26.0170156,9.11763 2.821034,2.80818 5.170552,7.73781 8.990463,11.98117 4.533808,5.0364 3.034503,9.33026 0.991591,11.11893 -8.56421,6.06534 -13.82095,9.34361 -20.9810763,13.25234 -5.96052426,4.13812 -11.9204279,8.69478 -17.8989867,9.04842 -11.327627,0.67003 -18.566522,-4.72384 -30.159201,-8.65455 -3.085723,-1.06567 -8.601876,-7.4627 -16.568013,-9.7897 -4.398475,-1.28485 -9.428223,-3.54227 -22.329028,-4.27061 -12.275003,-0.69302 -30.019331,-2.97664 -44.847911,-3.54371 -12.57606,0.85614 -26.59578,-1.29673 -39.8336,-1.11772 -4.89875,0.0662 -9.92099,-0.72002 -14.39257,0.76503 4.54671,0.0905 9.28978,0.23503 14.10899,0.41358 13.16376,0.4877 26.8957,1.22922 38.74603,1.8168 14.82502,0.73757 31.503854,1.67439 45.168154,3.27614 6.229219,0.7635 14.995827,2.09974 19.971005,3.95488 7.460099,2.8917 3.7968,7.36493 5.064974,17.59964 0.834547,6.14779 -1.492836,10.80335 -6.447463,14.56287 -10.419955,3.68121 -26.114587,4.02283 -40.8819,4.7257 -19.83155,0.36699 -40.62596,0.31673 -59.31658,-0.34571 -8.41222,-0.29814 -14.39939,-0.63695 -22.4565,-0.95914 -4.84477,0.01 -14.95859,0.67852 -21.9442,0.55853 -17.16271,-0.29479 -23.66796,-1.89023 3.22048,1.18173 18.49337,-0.85169 26.77245,-0.01 43.95124,0.73358 7.21637,0.41413 14.25002,0.10943 20.89605,0.65354 4.86711,0.39848 9.52634,1.25218 13.89722,3.17682 6.18521,3.40289 12.7004,6.07013 15.16264,10.01295 1.20072,1.92273 1.43762,4.14879 0.20245,6.91143 -1.67377,3.65634 -4.83586,7.28538 -6.94354,9.56219 -6.26663,8.54404 -13.31267,14.03097 -24.2664,18.68381 -8.5342,1.70389 -16.26776,2.5946 -23.42132,2.8769 -10.48518,0.41379 -19.72434,-0.47947 -28.41232,-2.03492 -21.07602,-4.24884 -41.66761,-5.35704 -63.13578,-0.50491 -9.15347,3.02684 -14.07083,7.69519 -16.17435,13.02675 -3.81955,9.68106 1.63853,21.54885 7.85935,29.74648 10.39011,13.38796 25.95585,26.4807 46.81821,31.16264 24.78289,4.19108 48.6208,2.21262 72.21721,-0.19733 17.10866,-1.71559 29.45601,-2.81948 41.1212,-6.39102 13.361855,-4.09101 12.846423,-9.26025 24.463986,-15.18856 7.908348,-3.7903 16.216566,-5.0568 23.223491,1.16331 11.055188,10.67625 -0.347833,25.74069 -9.845965,38.68817 -4.712246,6.52006 0.05862,16.29412 -6.051934,25.06996 -6.11712,8.78528 -12.428233,17.34856 -13.642405,24.5349 1.234708,10.39509 -18.096553,15.35132 -20.018933,18.71413 3.23147,12.36727 1.10547,14.89503 -14.9705,23.31067 -3.84786,2.00783 -4.89234,4.88953 -6.37547,6.79345 -6.64243,6.93745 -5.09217,18.75473 -11.04976,19.34524 -12.28061,-4.22434 -18.32258,-12.45736 -27.15536,-19.03076 -8.61926,-6.40847 -21.16068,-15.36384 -27.72122,-19.19616 -19.25579,-12.86803 -45.63561,-24.92945 -66.10497,-28.67343 -11.6059,-2.12279 -23.8622,-1.3368 -37.28522,-1.16474 -11.26676,0.15918 -22.1021,0.68997 -33.2514,1.90497 -19.21466,2.11991 -48.77649,10.53917 -67.80729,16.24692 -14.60119,4.37922 -21.76271,2.7091 -34.56467,2.91009 -13.12017,-1.57529 -52.0416,-5.36649 -66.43507,-7.70224 -9.32713,8.88518 -12.10495,13.62652 -15.41912,18.62272 -7.32763,11.04661 -10.97989,17.8529 -7.96498,19.63676 12.9609,4.0509 30.27829,54.16281 32.56039,59.76141 0.86997,5.42546 1.96765,11.80913 -1.5371,15.04766 -3.19965,2.95661 -10.72464,3.25951 -15.90132,-1.53048 -10.73249,-10.20991 -27.07374,-34.33604 -35.92177,-38.99869 -5.79147,-3.05193 -7.73651,-3.13951 -11.1142,-0.5005 -3.37867,2.63978 -28.96527,-6.43262 -35.13088,-2.55038 -8.45206,5.32194 -5.32731,17.37701 -1.10905,14.86341 3.44062,-2.05022 34.53117,8.84402 32.10717,17.93632 -1.39602,0.68153 -1.97165,2.37556 -5.35446,1.60927 -9.80786,-2.22173 -27.58176,-8.92551 -32.76203,-10.47841 -1.35982,-0.40763 -2.40118,-1.29164 -1.79975,-1.04933 2.88187,1.16109 18.74031,6.36097 34.49854,11.83712 4.96376,2.4474 8.51715,13.11383 7.49825,14.79944 -3.5502,4.11092 -10.11549,4.62155 -17.14178,3.44723 -10.52442,-1.75896 -22.08313,-7.29827 -26.09286,-10.18117 -15.62772,-11.65925 -41.35748,-2.72317 -41.35748,-17.36557 0,-6.5594 1.0588,-17.2871 16.77669,-33.94803 9.30161,-9.8597 42.02529,-20.73435 60.77407,-34.76707 11.61484,-8.69325 31.28304,-19.69575 37.3687,-31.32252 -24.50076,-6.4825 -41.13404,-13.09055 -54.06904,-21.3855 -4.90253,-3.14389 -11.16275,-6.5301 -15.22976,-10.24364 -11.13737,-10.16943 -18.10403,-22.79358 -29.33953,-39.61819 -10.35765,-15.49282 -9.96662,-17.39427 -10.60165,-17.04426 -11.61051,8.582 -15.26435,29.40021 -15.31795,32.05311 -6.94214,5.80254 -21.67498,10.75918 -26.93428,15.2104 -8.25727,6.98856 -6.71286,12.18264 -4.33553,17.99721 1.47873,3.61673 0.96348,7.8099 5.67004,11.79936 12.3933,10.234 14.5304,13.1754 13.1438,18.0901 -2.8179,9.9879 -5.7179,12.2429 -17.118,13.3106 -9.9588,0.9326 -12.13928,0.058 -22.6977,-9.1042 -3.55783,-3.08737 -0.2456,-10.75235 -7.53736,-19.75758 -7.87631,-4.17139 -14.50779,4.07446 -22.80811,10.13593 -5.52878,4.03751 -14.74042,5.88501 -14.79164,6.91334 -0.4176,32.1134 -12.07465,28.63383 -22.85065,28.72213 -22.19201,-7.17845 -3.11178,-37.63624 -14.73627,-41.49964 -20.48007,-2.87813 -17.03886,14.70993 -20.30162,17.75953 -4.15902,2.78517 -2.63894,5.83038 -8.68329,7.41775 -8.03714,2.1107 -23.64532,1.64382 -27.3209,-5.43942 -2.97532,-3.7543 -3.62343,-8.74369 -2.67291,-13.71919 1.85677,-9.71916 9.81361,-19.38528 18.44004,-19.68859 z m 387.71095,-62.90137 c 5.4579,0 17.28326,11.2031 17.28326,17.3567 0,2.4107 -3.5304,7.52 -7.8453,11.3541 -4.315,3.834 -7.8454,8.113 -7.8454,9.5089 0,1.3958 -52.2644,28.24672 -58.0177,38.83752 12.58591,3.56727 52.51639,8.16613 65.68961,9.69251 11.92345,0.27126 20.36319,-1.2941 30.18348,-3.68429 22.05377,-5.0773 48.15883,-12.02953 69.52391,-15.49349 11.16725,-1.60373 22.33933,-2.04641 33.24387,-2.07918 13.90295,-0.83686 25.7706,-0.28051 36.97841,1.75404 24.30148,4.41143 46.74699,16.40297 67.61068,27.40816 12.77666,9.35314 27.07018,17.88173 38.52496,27.2945 5.87008,3.72073 10.08767,12.00897 12.07631,6.62622 0.035,-3.91877 0.92275,-4.56549 1.99355,-6.97203 1.90925,-4.29088 11.38679,-11.11483 17.34843,-16.28581 7.39554,-6.57697 3.72374,-9.49766 3.76547,-15.78168 2.41832,-5.50655 19.423126,-11.10129 20.771296,-18.04051 1.02276,-5.26423 6.846045,-15.00039 13.393504,-25.69003 5.972806,-9.75144 1.952366,-20.62187 4.335557,-23.11606 6.60032,-6.90774 11.198743,-13.54995 14.891597,-21.27482 3.060057,-6.40116 2.193915,-12.84536 0.839185,-13.92287 -1.059083,0.23385 -8.317643,-1.82312 -12.506571,1.00663 -9.15883,6.18709 -15.576021,13.04759 -25.108618,15.62278 -12.46946,3.31281 -27.17781,6.24728 -43.81501,8.15192 -14.20708,1.62643 -32.11887,0.90751 -46.03631,1.99734 -13.94066,1.09165 -20.1632,-0.62633 -31.06797,-3.61672 -6.78652,-2.22042 -13.15573,-3.71529 -19.10471,-6.84662 -12.13811,-6.90795 -27.79777,-21.24241 -35.41727,-30.24274 -5.86005,-9.40953 -8.03387,-20.69967 -4.91223,-30.07975 2.76833,-8.31841 10.07904,-15.68328 22.29891,-18.35361 25.79864,-5.27394 42.44189,-4.28656 66.68234,-0.68157 10.53588,1.56863 20.00889,2.88639 29.08578,3.17617 10.51503,0.33569 21.10796,-1.76465 29.07831,-7.90998 10.85848,-11.65328 25.27759,-19.37 5.44505,-26.89887 -4.069,-1.5867 -36.4419,-5.2455 -58.90066,-3.65789 -14.25955,1.00801 -48.9008,2.30146 -56.79154,-9.68773 -4.7385,-7.19968 16.67583,-6.3416 41.09529,-6.56044 6.5387,-0.0947 12.8891,-2.97799 18.89691,-2.91599 6.05356,0.0645 9.66934,2.32008 16.67878,3.0485 6.72723,0.69909 14.83088,0.83986 22.9814,0.78165 6.62664,-0.0473 11.7731,-2.42069 17.74717,-2.53799 7.47013,1.27057 15.0794,1.41302 22.66218,1.08007 9.853779,-0.43266 19.662809,-1.66812 29.063578,-2.27404 0.377004,-0.77426 7.382869,-2.32146 6.693999,-7.3438 -2.232079,-5.41243 0.180492,-5.50605 -2.05892,-15.20488 -1.64715,-0.4429 -9.56111,-2.61229 -12.293239,-2.70226 -13.990918,-0.46069 -31.460598,4.87701 -37.176128,1.88465 -3.16258,-1.65577 -13.52337,-4.91743 -33.20228,-3.60646 -21.69739,1.44543 -24.1653,12.03205 -38.89741,-8.25195 -9.17186,-12.62834 63.12247,-11.17576 81.64642,-3.72662 6.90714,2.77761 48.824192,-4.78597 67.278748,3.08536 22.303362,9.51293 25.439493,12.69844 27.65391,12.68766 7.3292,-0.036 19.4395412,-5.76242 29.840641,-10.78372 8.0857,-3.9036 -11.56017775,-21.56229 -16.4158468,-22.23836 -14.2175872,-1.97956 -121.6284222,-7.89999 -133.3882022,-18.32512 -8.23906,-7.30399 32.88694,-10.10311 63.134814,-4.74211 10.664566,1.89014 28.815987,-2.67439 53.866592,0.34781 23.730452,2.86293 52.734624,13.73563 68.128348,10.57067 15.958798,-3.28114 33.603202,-12.23346 48.474029,-18.75451 3.21957,-3.02909 31.953777,-15.81702 52.331137,-26.17076 11.9476,-6.07057 21.02239,-11.30434 20.39733,-13.24373 -1.97102,-3.0899 -19.65115,-5.50667 -23.33253,-6.2729 -20.98078,-4.36688 -44.9359,-8.76448 -67.747802,-11.77071 -68.3973077,-10.85687 -140.175449,-24.05276 -203.927108,-18.05985 -22.97105,2.24508 -46.03716,6.96223 -67.66479,13.59515 -22.43022,6.87907 -44.44425,18.81035 -62.80723,30.02108 -38.8178,24.2619 -69.15534,51.60871 -80.43034,62.93531 -6.0617,6.0895 -48.2714,33.14351 -57.7832,42.01551 -48.80988,21.67475 -92.44724,16.08964 -113.82068,-7.77367 -20.42297,-22.80213 -15.78745,-62.29299 -19.76668,-88.10687 -1.53985,-9.39193 -3.94964,-23.28275 -8.11632,-33.9912 -7.32385,-17.00434 -19.67988,-33.75868 -35.94972,-42.29434 -15.24734,-5.49557 -33.5505,-8.41967 -49.20401,-10.13503 -18.77134,-2.01952 -34.07938,-0.41992 -49.02887,4.24657 -7.60606,2.37423 -15.5393,6.45723 -22.92598,9.38231 -13.767,5.38476 -21.72463,7.45593 -37.071,7.12005 -23.92284,-0.62834 -47.39574,-0.73086 -51.55494,7.5054 16.99566,2.59478 30.47627,7.48051 41.90833,13.9073 17.25494,9.70025 29.84303,22.91125 42.80684,37.05451 7.82045,8.61266 14.67169,17.51266 20.32106,26.78226 8.55,13.96097 14.40797,28.50202 18.26015,43.12579 4.72118,17.9227 7.18512,35.96968 7.14393,53.22539 2.48422,22.67397 -0.3171,45.15632 2.81047,67.30134 0.57224,4.05183 2.21925,17.68633 7.73848,21.11639 5.50956,-2.07175 11.0055,-3.75707 16.65797,-2.81156 3.60389,0.60283 9.23101,3.26976 12.00029,8.05401 2.86052,5.41777 -11.25566,8.9058 -10.14355,17.10989 1.61374,8.20809 4.68761,14.13425 9.58586,21.74233 5.91835,9.19254 11.89344,18.25347 18.00697,27.18788 12.19793,14.59242 25.20456,21.74746 27.55614,22.37008 5.46521,1.44701 30.58543,14.75516 45.12603,12.94901 2.86365,-4.19998 5.72479,-8.3176 8.55755,-12.37832 17.0591,-21.21035 28.10488,-21.90235 39.53437,-27.39263 6.12657,-2.94297 13.44035,-4.9187 19.43878,-17.42384 1.26092,-2.49807 8.58369,-13.02086 15.0081,-13.91151 z M -657.61792,485.89021 c -5.9149,-5.5684 -3.6167,-16.8066 4.9838,-24.3699 9.1279,-8.0273 13.2834,-8.7967 18.9085,-3.5012 4.215,3.9681 3.2015,22.0821 -1.5527,27.748 -3.2896,3.9206 -18.2184,4.0029 -22.3396,0.1231 z"
       id="path3030"
       inkscape:connector-curvature="0"
       sodipodi:nodetypes="cccssscscccscscsscccsccscccsccccscsssscsscscsccsccscsscscsccccccscsccscscccsccscccscccscccccccsccsccsccscsssscsssccscssscsscccsscscscsccccscsccssccccccscccscccssscscsscccsccsccssccsscsccccsssscssssssscscsccsccscsccccscsccsccscsccscsccsccsscsss" /></g></g></svg>