<?xml version="1.0" encoding="UTF-8" standalone="no"?>
<svg
   xmlns:dc="http://purl.org/dc/elements/1.1/"
   xmlns:cc="http://creativecommons.org/ns#"
   xmlns:rdf="http://www.w3.org/1999/02/22-rdf-syntax-ns#"
   xmlns:svg="http://www.w3.org/2000/svg"
   xmlns="http://www.w3.org/2000/svg"
   xmlns:sodipodi="http://sodipodi.sourceforge.net/DTD/sodipodi-0.dtd"
   xmlns:inkscape="http://www.inkscape.org/namespaces/inkscape"
   version="1.1"
   id="Layer_1"
   x="0px"
   y="0px"
   width="1000"
   height="1000"
   viewBox="0 0 1000 1000"
   enable-background="new 0 0 512 512"
   xml:space="preserve"
   inkscape:version="0.48.0 r9654"
   sodipodi:docname="uni2EE6-x2ee6.svg"><metadata
   id="metadata72"><rdf:RDF><cc:Work
       rdf:about=""><dc:format>image/svg+xml</dc:format><dc:type
         rdf:resource="http://purl.org/dc/dcmitype/StillImage" /></cc:Work></rdf:RDF></metadata><defs
   id="defs70"><marker
     style="overflow:visible"
     inkscape:stockid="InfiniteLineEnd"
     id="InfiniteLineEnd"
     refX="0"
     refY="0"
     orient="auto"><g
       id="g4038"><circle
         id="circle4040"
         r="0.8"
         cy="0"
         cx="3" /><circle
         id="circle4042"
         r="0.8"
         cy="0"
         cx="6.5" /><circle
         id="circle4044"
         r="0.8"
         cy="0"
         cx="10" /></g></marker></defs><sodipodi:namedview
   pagecolor="#ffffff"
   bordercolor="#666666"
   borderopacity="1"
   objecttolerance="10"
   gridtolerance="10"
   guidetolerance="10"
   inkscape:pageopacity="0"
   inkscape:pageshadow="2"
   inkscape:window-width="1152"
   inkscape:window-height="814"
   id="namedview68"
   showgrid="false"
   inkscape:zoom="0.36045873"
   inkscape:cx="950.17198"
   inkscape:cy="335.68141"
   inkscape:window-x="-8"
   inkscape:window-y="-8"
   inkscape:window-maximized="1"
   inkscape:current-layer="Layer_1" />
	<g
   id="Grid"
   transform="matrix(1.9636177,0,0,1.952167,0.48404577,0.015356)">
		<rect
   x="0"
   stroke-miterlimit="10"
   width="512"
   height="512"
   id="rect4"
   y="0"
   style="fill:none;stroke:#a9ccdb;stroke-miterlimit:10" />
		<line
   stroke-miterlimit="10"
   x1="0"
   y1="32"
   x2="512"
   y2="32"
   id="line6"
   style="fill:none;stroke:#a9ccdb;stroke-miterlimit:10" />
		<line
   stroke-miterlimit="10"
   x1="0"
   y1="64"
   x2="512"
   y2="64"
   id="line8"
   style="fill:none;stroke:#a9ccdb;stroke-miterlimit:10" />
		<line
   stroke-miterlimit="10"
   x1="0"
   y1="96"
   x2="512"
   y2="96"
   id="line10"
   style="fill:none;stroke:#a9ccdb;stroke-miterlimit:10" />
		<line
   stroke-miterlimit="10"
   x1="0"
   y1="128"
   x2="512"
   y2="128"
   id="line12"
   style="fill:none;stroke:#a9ccdb;stroke-miterlimit:10" />
		<line
   stroke-miterlimit="10"
   x1="0"
   y1="160"
   x2="512"
   y2="160"
   id="line14"
   style="fill:none;stroke:#a9ccdb;stroke-miterlimit:10" />
		<line
   stroke-miterlimit="10"
   x1="0"
   y1="192"
   x2="512"
   y2="192"
   id="line16"
   style="fill:none;stroke:#a9ccdb;stroke-miterlimit:10" />
		<line
   stroke-miterlimit="10"
   x1="0"
   y1="224"
   x2="512"
   y2="224"
   id="line18"
   style="fill:none;stroke:#a9ccdb;stroke-miterlimit:10" />
		<line
   stroke-miterlimit="10"
   x1="0"
   y1="256"
   x2="512"
   y2="256"
   id="line20"
   style="fill:none;stroke:#a9ccdb;stroke-miterlimit:10" />
		<line
   stroke-miterlimit="10"
   x1="0"
   y1="288"
   x2="512"
   y2="288"
   id="line22"
   style="fill:none;stroke:#a9ccdb;stroke-miterlimit:10" />
		<line
   stroke-miterlimit="10"
   x1="0"
   y1="320"
   x2="512"
   y2="320"
   id="line24"
   style="fill:none;stroke:#a9ccdb;stroke-miterlimit:10" />
		<line
   stroke-miterlimit="10"
   x1="0"
   y1="352"
   x2="512"
   y2="352"
   id="line26"
   style="fill:none;stroke:#a9ccdb;stroke-miterlimit:10" />
		<line
   stroke-miterlimit="10"
   x1="0"
   y1="384"
   x2="512"
   y2="384"
   id="line28"
   style="fill:none;stroke:#a9ccdb;stroke-miterlimit:10" />
		<line
   stroke-miterlimit="10"
   x1="0"
   y1="416"
   x2="512"
   y2="416"
   id="line30"
   style="fill:none;stroke:#a9ccdb;stroke-miterlimit:10" />
		<line
   stroke-miterlimit="10"
   x1="0"
   y1="448"
   x2="512"
   y2="448"
   id="line32"
   style="fill:none;stroke:#ff0000;stroke-miterlimit:10" />
		<line
   stroke-miterlimit="10"
   x1="0"
   y1="480"
   x2="512"
   y2="480"
   id="line34"
   style="fill:none;stroke:#a9ccdb;stroke-miterlimit:10" />
		<line
   stroke-miterlimit="10"
   x1="32"
   y1="0"
   x2="32"
   y2="512"
   id="line36"
   style="fill:none;stroke:#a9ccdb;stroke-miterlimit:10" />
		<line
   stroke-miterlimit="10"
   x1="64"
   y1="0"
   x2="64"
   y2="512"
   id="line38"
   style="fill:none;stroke:#a9ccdb;stroke-miterlimit:10" />
		<line
   stroke-miterlimit="10"
   x1="96"
   y1="0"
   x2="96"
   y2="512"
   id="line40"
   style="fill:none;stroke:#a9ccdb;stroke-miterlimit:10" />
		<line
   stroke-miterlimit="10"
   x1="128"
   y1="0"
   x2="128"
   y2="512"
   id="line42"
   style="fill:none;stroke:#a9ccdb;stroke-miterlimit:10" />
		<line
   stroke-miterlimit="10"
   x1="160"
   y1="0"
   x2="160"
   y2="512"
   id="line44"
   style="fill:none;stroke:#a9ccdb;stroke-miterlimit:10" />
		<line
   stroke-miterlimit="10"
   x1="192"
   y1="0"
   x2="192"
   y2="512"
   id="line46"
   style="fill:none;stroke:#a9ccdb;stroke-miterlimit:10" />
		<line
   stroke-miterlimit="10"
   x1="224"
   y1="0"
   x2="224"
   y2="512"
   id="line48"
   style="fill:none;stroke:#a9ccdb;stroke-miterlimit:10" />
		<line
   stroke-miterlimit="10"
   x1="256"
   y1="0"
   x2="256"
   y2="512"
   id="line50"
   style="fill:none;stroke:#a9ccdb;stroke-miterlimit:10" />
		<line
   stroke-miterlimit="10"
   x1="288"
   y1="0"
   x2="288"
   y2="512"
   id="line52"
   style="fill:none;stroke:#a9ccdb;stroke-miterlimit:10" />
		<line
   stroke-miterlimit="10"
   x1="320"
   y1="0"
   x2="320"
   y2="512"
   id="line54"
   style="fill:none;stroke:#a9ccdb;stroke-miterlimit:10" />
		<line
   stroke-miterlimit="10"
   x1="352"
   y1="0"
   x2="352"
   y2="512"
   id="line56"
   style="fill:none;stroke:#a9ccdb;stroke-miterlimit:10" />
		<line
   stroke-miterlimit="10"
   x1="384"
   y1="0"
   x2="384"
   y2="512"
   id="line58"
   style="fill:none;stroke:#a9ccdb;stroke-miterlimit:10" />
		<line
   stroke-miterlimit="10"
   x1="416"
   y1="0"
   x2="416"
   y2="512"
   id="line60"
   style="fill:none;stroke:#a9ccdb;stroke-miterlimit:10" />
		<line
   stroke-miterlimit="10"
   x1="448"
   y1="0"
   x2="448"
   y2="512"
   id="line62"
   style="fill:none;stroke:#a9ccdb;stroke-miterlimit:10" />
		<line
   stroke-miterlimit="10"
   x1="480"
   y1="0"
   x2="480"
   y2="512"
   id="line64"
   style="fill:none;stroke:#a9ccdb;stroke-miterlimit:10" />
	</g>
<path
   d="m 32.133781,279.27102 c 35.53125,10.93942 69.467099,29.49944 104.911619,44.5406 29.04106,18.87742 47.21748,62.12607 49.00577,99.83652 -0.61093,0.95818 -2.22013,28.87831 -2.57596,63.11786 1.52157,42.55074 -0.73148,83.78425 -5.74493,123.30166 -2.44029,21.35505 -4.61767,42.61951 -12.06268,62.22922 -10.11989,26.65516 -25.8172,51.5344 -41.24099,74.1931 -20.92726,29.29363 -49.006449,35.75896 -58.349299,45.54376 -8.44317,8.84255 -1.71188,22.0489 41.711289,27.57577 8.91123,1.05322 23.29571,-1.56362 34.01262,3.07061 13.94531,14.16592 27.43887,25.8433 43.2531,30.97164 20.28746,6.57895 43.49839,3.72349 66.85465,-4.19207 11.77424,-4.17766 22.89461,-11.36632 34.6497,-23.54057 12.25246,-12.93285 22.51081,-29.90289 28.37284,-45.10653 5.67801,-15.35594 8.43892,-33.36429 10.0518,-45.88199 2.3357,-19.97864 3.46053,-39.20814 3.86368,-59.48974 0.40947,-20.59901 2.89249,-42.23955 8.09389,-61.12799 3.47581,-19.43184 23.65222,-35.72776 42.00202,-41.80608 22.51945,-9.18056 43.3898,9.86134 59.26134,28.1212 4.85734,5.58826 8.61788,7.33167 12.6125,12.96012 37.1063,40.67817 77.04442,99.74501 117.18166,136.32804 20.01402,24.33219 41.92393,41.99479 61.48792,50.32942 16.33289,6.95813 34.89787,11.2821 59.68366,17.88199 25.50605,6.19311 45.08464,4.75307 69.70976,5.21521 21.63552,0.40604 42.88356,-2.00262 63.6607,-8.28509 44.94565,-13.59042 98.85004,-39.49856 149.969,-54.36587 34.40366,-0.26525 23.88456,-44.13252 -5.32557,-60.3451 -13.35827,-9.04184 -21.04162,-10.04429 -34.61343,-21.41076 -24.65691,-20.6503 -55.98447,-49.97835 -85.68259,-43.06016 -30.34065,14.79556 -62.46216,17.70246 -94.56739,21.04659 -15.93655,1.65997 -31.86909,3.42768 -47.57781,6.81068 13.74139,-5.72814 31.03829,-5.95079 47.76623,-9.3337 10.81632,-2.1874 24.0324,-0.8256 33.5482,-3.06397 10.01938,-2.35394 20.57253,-6.60666 29.25779,-12.71478 9.28482,-6.52977 16.43496,-15.17995 18.51623,-25.89751 0.18427,-12.91763 -7.91893,-23.11127 -17.74095,-29.05211 -5.63151,-3.40621 -11.82806,-5.41438 -17.35156,-5.73634 -6.37487,-0.23688 -13.59911,2.64738 -17.56583,3.59363 -16.6837,4.26277 -30.30103,14.13967 -49.62652,20.5821 -18.27572,3.54377 -47.53836,2.77404 -68.90941,3.16349 -7.63915,0.13922 -9.24956,1.35597 -15.79383,2.06737 26.07087,-8.49158 79.04107,3.62162 99.95523,-13.55295 2.7559,-2.26313 11.36147,-7.7634 15.51318,-13.61288 4.55519,-7.45229 3.47237,-18.81734 -0.70967,-26.42352 -3.41813,-6.2168 -9.13688,-9.23182 -13.62553,-11.28977 -17.53318,-7.38269 -46.41633,-3.43476 -64.74716,-1.71416 -23.30001,1.07873 -68.39986,2.21221 -79.62607,1.86601 7.90632,-1.45285 15.36234,-1.85844 23.55707,-2.32557 21.86231,-1.24623 44.73955,-0.80903 63.48288,-5.8792 9.26935,-2.64836 14.12097,-8.30957 16.68985,-14.77827 2.00614,-5.34043 0.43503,-10.81809 -0.74837,-16.76937 -1.04551,-5.2579 -0.20691,-13.7709 -2.90861,-17.71344 -3.20757,-4.56673 -8.43196,-6.10996 -13.32597,-10.3564 -8.51242,-5.84563 -17.40424,-9.32733 -26.42568,-11.27122 -12.524,-2.6986 -25.29781,-2.43347 -37.65308,-1.41486 -12.33286,-0.27141 -40.79203,6.26931 -53.47013,0.0609 -2.72869,-1.33624 -5.05706,-4.25521 -5.96652,-6.85051 -3.26131,-10.56512 -2.26043,-21.6482 -1.38458,-31.97528 0.56172,-6.62325 2.35578,-12.93553 5.87149,-18.60078 11.78705,-18.82368 35.91641,-31.83573 55.12768,-37.23671 20.31619,-5.6684 44.3942,-1.67032 63.41367,6.06493 7.94113,1.84409 18.33598,9.71102 26.43944,15.23052 11.74551,8.00019 25.27521,15.23943 35.65693,13.12482 5.02253,-4.62706 11.05551,-16.18889 12.66343,-22.20091 1.02213,-9.4899 5.02993,-25.70719 3.4534,-34.03152 -2.08191,-8.88108 -6.30661,-15.13048 -11.12993,-23.11346 -2.77911,-4.59964 -4.29802,-10.92185 -5.85965,-15.3923 -1.0611,-3.30441 -1.13176,-34.23794 -2.24954,-37.51205 -5.47988,-17.34287 -13.97217,-11.17663 -25.72776,-32.95489 -5.65805,-10.48204 -3.08409,-26.64133 -9.07461,-37.98622 -3.27418,-6.20066 -16.48579,-11.18077 -19.83521,-15.08999 -7.1513,-8.46299 -10.63193,-15.81287 -19.82333,-17.43456 -3.8996,-0.5654 -9.93711,1.99811 -12.11102,3.25237 -4.0662,2.34604 -6.43932,11.21375 -8.82311,15.09215 -9.4455,10.54939 -18.09422,19.1188 -27.0024,27.91006 -7.93996,7.82613 -17.77541,16.16934 -25.81887,22.30328 -12.65489,9.65062 -21.78747,13.37017 -35.61172,18.51847 -23.84153,6.28444 -41.61436,2.97388 -63.46656,-0.68833 -19.72874,-3.49437 -40.57049,-10.84442 -61.2694,-16.54511 -23.31124,-6.42015 -46.44132,-10.74834 -67.59636,-5.12113 -8.91669,3.02125 -32.98631,13.9814 -39.50431,12.15519 -14.44004,-4.04582 -14.29518,-26.62157 -15.40408,-52.07204 11.82891,-21.81768 32.65094,-62.73525 29.8499,-91.325061 -1.6871,-10.97232 -4.36537,-18.93987 -7.70115,-18.67251 -2.7572,0.22098 -5.85373,7.11166 -10.18641,13.31599 -20.5146,29.443441 -37.10737,63.567371 -75.01256,51.851101 -25.31791,-30.13806 44.31465,-25.23985 24.11577,-49.395471 -20.11321,8.129791 -46.97724,24.633841 -10.99947,5.293041 36.43382,-13.566821 4.4091,-52.664401 -18.63406,-20.990021 -21.94197,14.37583 -60.82036,18.42292 -35.85035,60.956561 19.35587,40.19249 61.26401,51.45258 85.37506,87.19328 8.82142,14.35105 12.59747,23.81883 10.56466,25.77137 -19.88807,14.6 -49.78914,26.17608 -65.79512,43.34767 -6.72925,7.45792 -9.31859,14.99747 -13.99486,25.62118 -8.89756,19.13616 -20.45022,55.36367 -22.83024,55.21944 -2.27234,-0.13771 -4.65501,-11.44066 -5.83901,-20.02144 -0.4205,-11.76194 -6.68755,-21.51235 -12.89914,-29.96999 -15.36892,-20.86707 -35.10088,-43.00957 -7.76442,-69.04682 11.4248,-18.34958 4.74831,-40.14307 -6.63194,-43.29696 -13.32828,-3.69375 -32.59298,14.57088 -29.04075,39.6535 -14.12122,26.09442 -43.34396,-14.65812 -42.11859,-39.31759 -0.85243,-7.36568 -6.187289,-14.33586 -10.851049,-16.25538 -4.64868,-1.91332 -12.08943,2.58748 -15.80459,9.81662 -9.39056,18.56472 -1.03463,65.2252 -24.5482,35.16867 -1.3576,-9.95333 2.33803,-21.23131 1.48762,-29.09175 -1.07449,-9.93164 -6.92446,-15.23477 -11.80204,-14.71417 -17.58235,1.8766 -41.4161194,57.20661 -8.7233,77.1472 z M 403.07053,363.0422 c 11.43851,-19.19012 -7.24623,-43.182 -25.78071,-63.96678 -15.60909,-17.50422 -35.13141,-34.75187 -35.00803,-39.07863 20.64959,-9.06387 39.92568,-14.48197 60.7512,-12.16017 22.95812,2.673 40.23258,11.23259 60.8009,16.64458 22.1374,3.55165 42.36663,10.82111 63.36324,12.45788 24.17589,0.008 41.40455,-1.85756 64.8101,-12.7994 8.604,-5.12608 25.42415,-16.08037 33.22263,-22.80702 13.27587,-11.60973 20.81332,-17.32863 29.1839,-27.48522 6.0222,-7.30714 13.81392,-24.39389 18.20765,-25.32682 4.73208,-0.17425 8.05935,4.64127 12.09731,11.17039 3.53906,5.65012 11.24445,6.93441 14.23845,12.25502 4.0661,7.76062 4.97499,23.47635 8.60568,31.28703 3.32321,15.08053 15.41322,24.33099 19.89066,31.11408 3.69651,6.23193 0.16964,18.5241 2.80794,25.63791 2.46886,6.65694 4.54726,17.26773 7.50584,23.91777 4.08255,9.17642 8.95425,14.35831 10.83762,23.2141 2.19055,10.3002 -0.20632,20.39661 -1.07594,29.36787 -0.37373,4.4697 -3.37058,6.94608 -6.86461,5.38169 -15.31919,-5.09702 -21.26358,-13.18083 -33.68697,-19.76916 -4.02026,-2.13201 -11.3534,-6.76494 -16.45216,-8.97566 -21.34624,-5.86726 -43.58752,-9.69565 -63.36721,-3.58145 -26.78027,8.28402 -52.16122,20.14582 -66.59423,41.35919 -6.95382,10.63633 -11.21242,21.20802 -13.14993,32.01015 -1.97608,11.0172 -1.5377,22.27412 0.91822,34.08382 3.37756,11.43011 8.85813,17.7051 15.92441,21.24349 8.83351,3.4782 18.08298,4.72279 27.45814,4.86758 11.6753,0.18032 23.54552,-1.34503 35.05004,-2.38625 11.43398,-1.02486 22.53332,-1.81319 32.23137,-0.53003 6.1828,0.78196 13.38613,3.24744 19.23773,7.01732 5.03784,3.24562 10.60359,4.91225 10.10353,11.90502 -0.2116,2.95882 1.40676,6.39949 0.33416,9.66674 -1.39285,3.80153 -4.71546,6.86248 -11.19871,8.54201 -16.12642,4.01377 -42.85095,2.08779 -51.12842,2.64316 -14.61976,1.04124 -28.11966,3.28337 -37.48469,9.42785 -6.38823,4.41375 -7.74571,11.83639 -8.62619,15.86083 -0.91128,4.16524 1.06196,12.72361 11.56406,14.61566 10.5485,1.62257 27.75858,1.55786 37.37044,2.0697 20.19657,1.07548 39.32517,-2.57658 61.58706,-2.26812 16.81638,-1.54097 41.16682,-8.1502 50.95002,-4.39536 12.52816,14.73567 3.43771,23.75114 -7.16256,24.8815 -15.02153,5.68445 -30.19854,6.05821 -43.0827,6.33789 -20.53809,0.5923 -43.59566,2.85314 -55.31397,7.03358 -6.07641,2.66931 -12.60582,11.39193 -11.05956,16.07617 0.65715,1.99076 3.93738,8.37454 5.89437,10.15143 5.448,4.18813 13.7042,4.32476 23.26086,4.68128 16.1199,0.60137 34.13004,-0.88644 35.41825,-1.02854 2.7308,-0.30122 31.88916,-3.97295 42.50124,-5.41866 9.38026,-1.3079 20.11904,-6.42623 21.47102,-6.99737 19.774,-5.33682 38.08954,-22.08846 52.1584,-14.84564 3.45719,2.3105 6.64475,5.30065 8.82165,8.70862 1.48077,2.31816 1.75827,4.58444 2.07055,7.20684 0.31077,3.16876 0.23036,3.49642 -4.94764,9.85949 -4.24626,4.21496 -7.4909,5.67025 -12.38265,8.36161 -5.18094,2.85047 -8.10703,3.41572 -13.33337,4.72425 -2.3714,0.37165 -6.34824,0.34046 -9.71186,0.94864 -7.25619,1.31202 -13.14237,1.64204 -23.36769,1.65447 -8.5352,1.46034 -18.62081,4.81352 -28.54568,6.68142 -13.3449,2.51156 -28.36086,4.90362 -36.96487,10.46341 -7.30815,5.39094 -5.6536,15.15851 -2.43616,18.75554 4.83419,3.8431 11.22282,5.70761 18.28093,6.44499 14.91763,1.5585 32.8259,-1.91795 45.36975,-2.39028 12.72384,-0.0881 25.69925,-2.11823 38.19241,-4.39511 9.91244,-1.80654 19.52129,-3.76839 28.46,-5.03875 8.11345,-1.15606 16.45993,-2.45168 23.69509,-4.76523 12.05673,-3.85531 23.20267,-6.54931 31.93502,-3.49658 9.50835,3.80084 13.19854,9.6809 22.15551,15.71416 15.2448,10.26863 28.74949,26.05333 43.83204,38.37979 4.66309,3.81099 13.24059,4.15509 17.26188,7.90766 12.86466,16.21362 4.03275,12.09742 -12.36007,16.81167 -4.3368,1.24718 -22.36357,10.43783 -27.42404,12.14763 -18.62184,6.29184 -27.62165,14.59212 -36.97091,16.62973 -22.02123,5.44355 -38.73143,17.38364 -60.65979,20.42389 -21.22249,2.46981 -42.90768,9.55764 -63.44163,9.65999 -5.51835,0.0821 24.8391,1.64559 62.62341,-9.38301 20.21168,-5.89945 39.78055,-14.0243 60.27061,-20.73734 11.47186,-3.75846 33.79508,-15.59008 38.0783,-17.31868 3.28584,-1.32608 15.34384,-7.16642 22.18097,-9.76165 3.53892,-1.3433 7.62672,-2.23293 3.63384,-3.08958 -7.10044,-1.52337 -27.40991,6.8478 -60.87113,15.85821 -20.15922,5.42845 -39.19563,17.43262 -62.16973,21.8399 -21.30391,4.08687 -46.57487,11.51975 -65.12612,12.23353 -34.34909,1.32162 -59.92733,-5.53139 -61.72838,-5.6862 -22.87792,-1.96646 -43.44071,-11.6735 -59.9273,-20.09827 -22.34663,-11.81777 -45.84871,-28.64973 -64.89794,-49.1264 -31.36576,-34.26659 -58.01974,-68.35493 -87.12839,-103.61742 -10.34401,-12.92593 -24.70995,-28.56062 -38.13926,-38.57213 -14.10464,-10.51498 -24.7637,-18.67084 -38.1098,-21.6454 -9.92564,-2.21222 -23.50712,-0.93872 -29.56312,1.06596 -9.86153,3.62476 -25.16847,8.71494 -35.20674,18.46176 -12.83354,12.46093 -19.69587,30.77282 -23.91283,44.46146 -4.78683,20.54444 -6.00357,39.85159 -6.0645,60.20978 -0.0622,20.78541 0.35745,43.30115 -2.78682,62.86873 -3.93915,23.87974 -12.88442,44.5107 -21.31896,62.00222 -11.92262,16.06636 -16.73655,21.25715 -31.79727,30.17737 -19.14417,5.85934 -55.01271,9.37542 -61.44052,8.54327 -5.61333,-0.72671 -25.12191,-10.7802 -36.37259,-20.5405 -17.8836,-16.69058 -78.121769,3.283 -72.880849,-19.86599 16.6623,-5.24864 31.749839,-17.85019 44.859889,-33.12793 25.6705,-25.50498 44.23791,-56.72112 56.0577,-88.32575 9.50813,-22.75329 11.26846,-40.9797 13.74922,-62.66668 1.8603,-21.76261 3.49508,-42.99051 4.61353,-63.89882 1.00038,-18.70096 1.5877,-37.14625 1.55389,-55.48977 -0.0218,-12.13394 0.005,-24.00762 0.81757,-35.34435 0.83509,-11.66552 0.38009,-33.41519 3.93848,-43.89214 3.29967,-9.71517 7.66485,-9.56937 12.90019,-19.64971 16.56091,-18.96226 17.85001,-45.53613 27.78897,-65.53069 3.55694,-6.50914 9.58816,-16.45254 14.17369,-21.16202 17.38656,-14.65327 40.11767,-26.04701 55.80846,-33.4283 13.33206,14.30192 42.45549,57.04577 58.36835,83.81666 4.5446,3.47052 7.41984,5.79071 14.49106,9.11015 5.12378,2.36396 7.80057,3.54862 13.2858,-3.19049 z M 191.9861,747.92111 c -16.67342,40.68296 38.88141,61.11236 23.68029,9.03099 0.17364,-15.00481 -16.51011,-16.23559 -23.68029,-9.03099 z"
   id="path43"
   inkscape:connector-curvature="0" />
</svg>