<?xml version="1.0" encoding="UTF-8" standalone="no"?>
<svg
   xmlns:dc="http://purl.org/dc/elements/1.1/"
   xmlns:cc="http://creativecommons.org/ns#"
   xmlns:rdf="http://www.w3.org/1999/02/22-rdf-syntax-ns#"
   xmlns:svg="http://www.w3.org/2000/svg"
   xmlns="http://www.w3.org/2000/svg"
   xmlns:sodipodi="http://sodipodi.sourceforge.net/DTD/sodipodi-0.dtd"
   xmlns:inkscape="http://www.inkscape.org/namespaces/inkscape"
   version="1.1"
   id="Layer_1"
   x="0px"
   y="0px"
   width="1024"
   height="1024"
   viewBox="0 0 1024 1024"
   enable-background="new 0 0 512 512"
   xml:space="preserve"
   inkscape:version="0.48.0 r9654"
   sodipodi:docname="uni2F6A-x2f6a.svg"><metadata
   id="metadata72"><rdf:RDF><cc:Work
       rdf:about=""><dc:format>image/svg+xml</dc:format><dc:type
         rdf:resource="http://purl.org/dc/dcmitype/StillImage" /></cc:Work></rdf:RDF></metadata><defs
   id="defs70" /><sodipodi:namedview
   pagecolor="#ffffff"
   bordercolor="#666666"
   borderopacity="1"
   objecttolerance="10"
   gridtolerance="10"
   guidetolerance="10"
   inkscape:pageopacity="0"
   inkscape:pageshadow="2"
   inkscape:window-width="1047"
   inkscape:window-height="803"
   id="namedview68"
   showgrid="false"
   inkscape:zoom="0.36045873"
   inkscape:cx="88.745203"
   inkscape:cy="461.34348"
   inkscape:window-x="0"
   inkscape:window-y="0"
   inkscape:window-maximized="0"
   inkscape:current-layer="Layer_1" />
	<g
   id="Grid"
   transform="matrix(2.0004579,0,0,1.99505,0.50022895,2.0368616)">
		<rect
   x="0"
   stroke-miterlimit="10"
   width="512"
   height="512"
   id="rect4"
   y="0"
   style="fill:none;stroke:#a9ccdb;stroke-miterlimit:10" />
		<line
   stroke-miterlimit="10"
   x1="0"
   y1="32"
   x2="512"
   y2="32"
   id="line6"
   style="fill:none;stroke:#a9ccdb;stroke-miterlimit:10" />
		<line
   stroke-miterlimit="10"
   x1="0"
   y1="64"
   x2="512"
   y2="64"
   id="line8"
   style="fill:none;stroke:#a9ccdb;stroke-miterlimit:10" />
		<line
   stroke-miterlimit="10"
   x1="0"
   y1="96"
   x2="512"
   y2="96"
   id="line10"
   style="fill:none;stroke:#a9ccdb;stroke-miterlimit:10" />
		<line
   stroke-miterlimit="10"
   x1="0"
   y1="128"
   x2="512"
   y2="128"
   id="line12"
   style="fill:none;stroke:#a9ccdb;stroke-miterlimit:10" />
		<line
   stroke-miterlimit="10"
   x1="0"
   y1="160"
   x2="512"
   y2="160"
   id="line14"
   style="fill:none;stroke:#a9ccdb;stroke-miterlimit:10" />
		<line
   stroke-miterlimit="10"
   x1="0"
   y1="192"
   x2="512"
   y2="192"
   id="line16"
   style="fill:none;stroke:#a9ccdb;stroke-miterlimit:10" />
		<line
   stroke-miterlimit="10"
   x1="0"
   y1="224"
   x2="512"
   y2="224"
   id="line18"
   style="fill:none;stroke:#a9ccdb;stroke-miterlimit:10" />
		<line
   stroke-miterlimit="10"
   x1="0"
   y1="256"
   x2="512"
   y2="256"
   id="line20"
   style="fill:none;stroke:#a9ccdb;stroke-miterlimit:10" />
		<line
   stroke-miterlimit="10"
   x1="0"
   y1="288"
   x2="512"
   y2="288"
   id="line22"
   style="fill:none;stroke:#a9ccdb;stroke-miterlimit:10" />
		<line
   stroke-miterlimit="10"
   x1="0"
   y1="320"
   x2="512"
   y2="320"
   id="line24"
   style="fill:none;stroke:#a9ccdb;stroke-miterlimit:10" />
		<line
   stroke-miterlimit="10"
   x1="0"
   y1="352"
   x2="512"
   y2="352"
   id="line26"
   style="fill:none;stroke:#a9ccdb;stroke-miterlimit:10" />
		<line
   stroke-miterlimit="10"
   x1="0"
   y1="384"
   x2="512"
   y2="384"
   id="line28"
   style="fill:none;stroke:#a9ccdb;stroke-miterlimit:10" />
		<line
   stroke-miterlimit="10"
   x1="0"
   y1="416"
   x2="512"
   y2="416"
   id="line30"
   style="fill:none;stroke:#a9ccdb;stroke-miterlimit:10" />
		<line
   stroke-miterlimit="10"
   x1="0"
   y1="448"
   x2="512"
   y2="448"
   id="line32"
   style="fill:none;stroke:#ff0000;stroke-miterlimit:10" />
		<line
   stroke-miterlimit="10"
   x1="0"
   y1="480"
   x2="512"
   y2="480"
   id="line34"
   style="fill:none;stroke:#a9ccdb;stroke-miterlimit:10" />
		<line
   stroke-miterlimit="10"
   x1="32"
   y1="0"
   x2="32"
   y2="512"
   id="line36"
   style="fill:none;stroke:#a9ccdb;stroke-miterlimit:10" />
		<line
   stroke-miterlimit="10"
   x1="64"
   y1="0"
   x2="64"
   y2="512"
   id="line38"
   style="fill:none;stroke:#a9ccdb;stroke-miterlimit:10" />
		<line
   stroke-miterlimit="10"
   x1="96"
   y1="0"
   x2="96"
   y2="512"
   id="line40"
   style="fill:none;stroke:#a9ccdb;stroke-miterlimit:10" />
		<line
   stroke-miterlimit="10"
   x1="128"
   y1="0"
   x2="128"
   y2="512"
   id="line42"
   style="fill:none;stroke:#a9ccdb;stroke-miterlimit:10" />
		<line
   stroke-miterlimit="10"
   x1="160"
   y1="0"
   x2="160"
   y2="512"
   id="line44"
   style="fill:none;stroke:#a9ccdb;stroke-miterlimit:10" />
		<line
   stroke-miterlimit="10"
   x1="192"
   y1="0"
   x2="192"
   y2="512"
   id="line46"
   style="fill:none;stroke:#a9ccdb;stroke-miterlimit:10" />
		<line
   stroke-miterlimit="10"
   x1="224"
   y1="0"
   x2="224"
   y2="512"
   id="line48"
   style="fill:none;stroke:#a9ccdb;stroke-miterlimit:10" />
		<line
   stroke-miterlimit="10"
   x1="256"
   y1="0"
   x2="256"
   y2="512"
   id="line50"
   style="fill:none;stroke:#a9ccdb;stroke-miterlimit:10" />
		<line
   stroke-miterlimit="10"
   x1="288"
   y1="0"
   x2="288"
   y2="512"
   id="line52"
   style="fill:none;stroke:#a9ccdb;stroke-miterlimit:10" />
		<line
   stroke-miterlimit="10"
   x1="320"
   y1="0"
   x2="320"
   y2="512"
   id="line54"
   style="fill:none;stroke:#a9ccdb;stroke-miterlimit:10" />
		<line
   stroke-miterlimit="10"
   x1="352"
   y1="0"
   x2="352"
   y2="512"
   id="line56"
   style="fill:none;stroke:#a9ccdb;stroke-miterlimit:10" />
		<line
   stroke-miterlimit="10"
   x1="384"
   y1="0"
   x2="384"
   y2="512"
   id="line58"
   style="fill:none;stroke:#a9ccdb;stroke-miterlimit:10" />
		<line
   stroke-miterlimit="10"
   x1="416"
   y1="0"
   x2="416"
   y2="512"
   id="line60"
   style="fill:none;stroke:#a9ccdb;stroke-miterlimit:10" />
		<line
   stroke-miterlimit="10"
   x1="448"
   y1="0"
   x2="448"
   y2="512"
   id="line62"
   style="fill:none;stroke:#a9ccdb;stroke-miterlimit:10" />
		<line
   stroke-miterlimit="10"
   x1="480"
   y1="0"
   x2="480"
   y2="512"
   id="line64"
   style="fill:none;stroke:#a9ccdb;stroke-miterlimit:10" />
	</g>
	
	
	<path
   d="m 212.25592,764.72715 c 34.5255,-2.17243 69.65004,3.40832 105.12652,3.84494 44.50983,-1.32978 89.13317,-0.18335 129.18819,-0.8615 8.71562,-0.74088 16.43219,1.09324 23.02644,-0.64993 4.10133,-1.08419 7.76853,-3.55221 10.97191,-8.88424 5.08442,-9.40712 1.02357,-22.56593 1.20085,-36.60974 0.0846,-8.53734 -3.61973,-10.10423 -9.82761,-15.06195 -7.36866,-5.71516 -19.0514,-2.29834 -28.20651,-2.29148 -46.89438,-2.29784 -90.08703,-0.35344 -133.83756,0.69584 -17.24371,0.39879 -11.95084,-2.29148 -28.83186,-3.25573 -22.14809,-1.38678 -47.1085,0.98081 -67.70424,-5.78305 -17.37689,-5.62376 -30.29532,-11.79964 -40.22584,-20.77384 -9.67396,-8.74234 -16.51242,-20.1403 -21.87488,-36.2705 -7.09767,-22.08505 -7.44866,-46.12773 -7.28631,-64.60872 0.20308,-20.95778 0.16676,-39.96989 -0.421,-60.2404 -0.67977,-23.29532 2.19734,-44.41951 0.38826,-67.20948 -8.97726,-78.69297 -30.02084,-171.1305 -56.880805,-236.8222 -1.644627,-6.60788 -3.927835,-13.04553 -6.643207,-19.3426 -9.726618,-22.55656 -24.998394,-43.30973 -36.328025,-63.62466 -4.618059,-8.28058 -8.581152,-16.48831 -11.246775,-24.7157 -0.542422,-3.306676 -0.937938,-6.663926 -0.940337,-9.939818 -0.0022,-2.970251 0.318835,-5.873627 1.146567,-8.611714 0.896289,-2.888373 2.356441,-5.564852 4.572102,-7.907021 2.667271,-2.779165 6.014817,-6.040274 9.34892,-7.707796 5.420791,-3.021284 8.759301,-4.899664 14.390146,-4.674502 7.750302,0.309931 17.479843,4.869219 25.022286,7.867619 17.024898,15.904918 28.948778,36.959282 38.268878,55.551912 12.26158,24.54783 26.96792,60.53526 33.21177,76.88783 20.91758,61.10948 47.38704,118.16482 53.86184,177.45148 4.94873,45.82329 0.34388,96.80086 1.09663,132.11359 0.84681,20.93587 0.16844,43.37789 0.69598,62.28041 0.55663,10.52291 -0.55717,25.18204 1.74188,37.15192 5.66822,31.37845 46.82984,24.5966 68.99501,25.14721 37.39508,1.33243 64.21816,3.26787 105.04405,2.82084 20.9133,-0.22899 42.14642,-0.67107 61.29969,-0.10195 51.32487,-2.00261 84.21675,30.0677 88.02311,68.08661 1.92046,20.60681 1.56747,36.71423 -0.24752,56.92878 -0.54939,21.29885 -11.93451,37.42366 -26.60649,52.11557 -10.97479,10.9139 -48.86315,14.20918 -64.4713,15.65837 -43.88412,1.0319 -85.33971,0.77799 -129.78603,0.39127 -45.02698,-0.39177 -66.65255,-3.68723 -106.254,-3.15286 -10.20129,-3.06402 -23.97531,-3.23717 -36.22955,-5.22218 -9.88585,-1.60137 -18.78262,-4.38193 -24.01661,-10.81078 -9.77704,-12.54056 -11.55651,-25.20592 0.47244,-35.10143 8.14582,-3.90279 13.11941,-8.64156 22.19777,-10.663 13.05142,-2.90613 26.4759,-3.26207 38.57522,-4.09542 z M 382.90974,512.42554 c 24.0055,0 2.2615,0.97841 64.65848,0.97841 15.91861,0 38.5055,0.1223 62.6113,0.36663 21.50498,0.26365 43.2505,-0.42247 65.22771,-0.13147 21.31079,0.28218 44.34037,0.074 64.26193,0.32635 21.37519,0.26558 41.36558,-0.4751 63.26922,-0.32116 21.84062,0.15342 43.63263,0.71293 64.7552,0.64442 20.56511,-0.40394 43.31115,0.11053 64.25965,0.0694 24.68565,-1.03282 44.51727,1.71841 63.76297,-2.74741 16.23418,-6.12843 27.21153,-13.61715 32.64072,-23.31613 5.38485,-9.61979 5.31175,-21.41389 -0.5036,-36.21155 -4.0264,-8.3175 -7.61118,-11.9401 -11.16323,-13.00699 -7.23678,-2.17363 -7.4006,7.64453 -17.824,8.59653 -18.71721,-0.21016 -45.53671,0.35957 -63.86506,0.30082 -43.7692,-0.14026 -86.49024,-1.30289 -129.1207,-1.05684 -42.48904,0.24533 -85.95755,0.3868 -129.59278,0.2643 -42.19398,0.0602 -95.09987,0.13706 -133.53115,0.68965 -19.55145,0.30768 -30.66596,2.85883 -58.21922,-0.21866 -8.01698,-2.1596 -17.02756,-3.78219 -24.30937,-7.65746 -3.07446,-1.63618 -5.84074,-3.67392 -8.09393,-6.32319 -6.73762,-8.20608 -7.69512,-19.74599 -2.46461,-28.58496 1.68867,-4.60108 5.26487,-8.02704 9.6087,-10.46286 6.15911,-3.45377 17.29522,-8.66272 23.34847,-8.66272 43.93772,1.32764 82.18461,1.38368 123.86657,1.38368 64.05024,-1.45708 129.75194,-0.8279 193.26632,-0.60017 43.47145,0.15582 85.91827,0.1237 126.10959,-0.89416 6.66072,-0.89194 68.1564,0.91236 67.86201,-2.9264 -6.61139,-10.76521 -16.34466,-21.46787 -26.02668,-30.86965 -4.70435,-4.56818 -9.39661,-8.82925 -13.71278,-12.64115 -8.01913,-7.0708 -16.12183,-13.68549 -24.63752,-16.61236 -41.12841,-2.81985 -86.27774,-4.10163 -124.02104,-3.3485 -44.85765,1.36039 -89.269,2.00387 -130.43084,1.81616 -43.97475,-4.69304 -84.59724,0.70407 -129.09307,1.58654 -20.50641,0.40671 -41.8355,-0.14544 -64.69451,-3.0861 -5.97643,-2.74335 -15.26535,-4.55674 -19.48756,-8.15922 -3.93786,-2.67151 -8.50417,-7.24412 -10.668,-10.62781 -4.94829,-7.73786 -3.55687,-15.46545 2.28036,-24.26651 1.80912,-2.55837 4.24805,-4.88749 7.34094,-6.89184 4.37554,-2.83559 11.04099,-10.15066 18.10255,-11.4158 21.48629,-3.34113 47.57264,-2.01715 67.1096,-1.23735 65.47726,2.57176 135.77242,1.92818 192.88529,0.49342 42.05408,-1.06987 84.18331,-3.88329 127.06196,-0.33152 31.32497,2.66675 76.54,-4.32124 96.91893,-0.006 9.20018,1.94828 7.86806,2.0229 15.69433,6.41384 5.96495,3.34666 7.44592,3.6299 12.88557,9.15742 26.32283,24.15174 31.82697,23.00111 45.18582,53.42317 7.31114,-31.22079 -3.10535,-50.30774 -16.30411,-70.42608 -14.85154,-22.66385 -22.88598,-42.03816 -24.60959,-61.77589 0.0516,-23.75645 5.0595,-44.97026 13.5721,-65.07791 8.3652,-19.75945 20.11475,-38.45072 33.87116,-57.436952 3.55457,-2.567889 8.05408,-4.231841 12.75702,-5.187968 2.52738,-0.513825 5.11349,-0.823218 7.64331,-0.958642 3.63633,-0.17716 7.37601,0.20964 11.0014,1.066714 10.501,3.141445 19.09025,10.663761 23.35506,18.990801 3.52417,6.880828 4.09547,14.311112 0.3528,20.273077 -5.33462,8.33756 -7.41171,10.2374 -14.07984,21.35414 -6.66813,11.11674 -11.336,20.8439 -14.00321,29.18146 -3.77444,11.53147 -4.47756,26.7926 -3.20117,37.64887 4.84877,21.54005 14.05658,41.40255 22.41821,61.13968 9.5304,22.49595 17.96158,44.82897 17.58618,69.29738 -0.5685,21.05012 -7.55286,40.81791 -23.29674,58.748 -4.99679,5.5728 -11.23048,11.54913 -19.21756,18.91108 13.20182,19.13269 20.35452,30.75312 24.2384,45.47637 7.37797,27.45019 3.48188,46.3594 -7.00874,68.42896 -6.09984,13.02504 -12.73321,24.12179 -19.7567,33.18075 -16.38551,23.78984 -45.61964,30.08975 -69.11644,29.73908 -25.44077,-0.42154 -54.98049,-1.95852 -88.61911,-1.55215 -46.01053,0.55582 -99.68948,0.55582 -161.03686,0 -48.44877,0.0802 -88.92339,0.63568 -129.86182,0.63486 -21.61427,-0.54121 -43.13902,-0.16878 -64.26267,0.18614 -21.77481,0.36579 -43.12342,0.71277 -63.70449,0.0208 -9.78956,-2.17111 -24.18441,-2.9121 -31.3747,-8.72866 -2.06577,-1.67591 -4.53756,-4.952 -6.16393,-7.59117 -3.86574,-7.18968 -5.50568,-20.9892 -2.24891,-26.72752 1.81481,-3.32232 3.61024,-6.09748 5.43286,-8.41 9.33452,-6.34184 21.00045,-13.68528 32.12355,-14.30002 z M 601.54331,768.5377 c 8.32184,-1.21383 32.93806,-0.95847 39.29767,-0.80624 41.68587,2.24211 87.50341,0.52854 127.63758,1.17191 23.59788,0.37828 48.40128,0.17855 70.03703,-0.1626 22.30195,-0.61962 53.48943,-0.48204 61.02473,-0.95493 9.31331,-3.37762 20.58197,-6.53165 26.5439,-12.19524 5.34756,-6.66929 8.0341,-2.67415 9.6159,-11.31908 1.37623,-7.52142 1.2365,-15.37168 -2.33326,-21.93362 -2.86633,-5.26892 -7.35332,-8.94045 -12.47615,-11.5195 -7.71167,-3.88234 -16.86424,-5.28907 -24.09848,-5.94253 -20.14365,-1.72732 -44.17857,-0.43414 -59.80861,-0.40232 -23.63519,0.0481 -47.44912,0.45096 -67.84223,0.45664 -42.05462,0.55231 -85.6181,-2.29205 -128.01116,-0.75534 -16.78498,0.68053 -31.62256,2.20995 -43.81247,-1.64682 -4.34427,-1.40828 -8.33053,-3.47003 -11.49165,-6.4 -3.80255,-3.55963 -8.34481,-8.82674 -9.19582,-13.34349 -0.67208,-3.56703 -0.57172,-7.27627 0.0674,-10.88098 0.84271,-4.75273 2.29985,-12.49636 4.48021,-16.31997 2.3867,-2.75852 5.14701,-5.72536 8.06594,-8.19417 3.41851,-2.89139 7.05456,-5.09971 10.56284,-5.49046 10.75126,-1.23176 28.12022,-0.66086 38.3651,-0.63387 16.00367,1.11167 40.93723,0.15642 64.27592,0.7123 23.33868,0.55584 32.64155,-0.96385 63.98206,-0.40801 17.77911,0.6048 39.63319,0.64965 60.97498,0.50231 22.70792,0.004 44.25721,-0.82958 65.25121,-0.46043 22.00916,2.90491 45.427,-1.10159 64.61852,9.7427 17.01867,9.72308 25.15871,33.36215 29.32011,55.73502 3.58052,19.24998 3.6712,30.25306 -0.21335,51.00606 -4.44246,23.73344 -15.96894,51.00354 -28.77783,58.16609 -20.16822,10.80912 -40.05391,17.46016 -61.90501,19.56208 -21.0771,2.02749 -44.11938,-0.31374 -63.69808,0.0515 -22.37156,0.41735 -44.34217,0.81329 -65.67417,0.66011 -22.46306,-0.17457 -44.51979,-0.68726 -65.75775,-0.52378 -21.00179,0.16758 -41.63808,0.43272 -61.58674,-0.92238 -18.84582,-1.80951 -36.28915,1.48456 -49.46518,-3.08241 -3.55976,-1.78309 -6.42313,-4.51204 -8.66927,-7.73794 -3.63967,-5.22737 -5.65857,-11.75964 -6.3934,-17.68684 -1.02556,-4.4557 2.57369,-14.31264 3.8755,-17.87395 2.01223,-5.5048 6.33716,-10.16005 11.52914,-14.64253 3.84234,-2.7001 7.90349,-4.80877 11.68486,-5.52719 z"
   id="path39"
   inkscape:connector-curvature="0"
   style="fill:#00c6f9;fill-opacity:0.67391304"
   sodipodi:nodetypes="cccscccccccscccccsscscccsccccccccscccccscsccscccscsccccsccssccccscccccccscccccsccscscccssccccsccsccscccsccccccccccsccccccccscccssscscccsscscccccccscscccccscscccccc" />
</svg>