<?xml version="1.0" encoding="UTF-8" standalone="no"?>
<svg
   xmlns:dc="http://purl.org/dc/elements/1.1/"
   xmlns:cc="http://creativecommons.org/ns#"
   xmlns:rdf="http://www.w3.org/1999/02/22-rdf-syntax-ns#"
   xmlns:svg="http://www.w3.org/2000/svg"
   xmlns="http://www.w3.org/2000/svg"
   xmlns:sodipodi="http://sodipodi.sourceforge.net/DTD/sodipodi-0.dtd"
   xmlns:inkscape="http://www.inkscape.org/namespaces/inkscape"
   version="1.1"
   id="Layer_1"
   x="0px"
   y="0px"
   width="1024"
   height="1024"
   viewBox="0 0 1024 1024"
   enable-background="new 0 0 512 512"
   xml:space="preserve"
   inkscape:version="0.48.0 r9654"
   sodipodi:docname="uni2F97-x2f97.svg"><metadata
   id="metadata72"><rdf:RDF><cc:Work
       rdf:about=""><dc:format>image/svg+xml</dc:format><dc:type
         rdf:resource="http://purl.org/dc/dcmitype/StillImage" /></cc:Work></rdf:RDF></metadata><defs
   id="defs70" /><sodipodi:namedview
   pagecolor="#ffffff"
   bordercolor="#666666"
   borderopacity="1"
   objecttolerance="10"
   gridtolerance="10"
   guidetolerance="10"
   inkscape:pageopacity="0"
   inkscape:pageshadow="2"
   inkscape:window-width="1152"
   inkscape:window-height="814"
   id="namedview68"
   showgrid="false"
   inkscape:zoom="0.25488281"
   inkscape:cx="-135.96356"
   inkscape:cy="509.56039"
   inkscape:window-x="-8"
   inkscape:window-y="-8"
   inkscape:window-maximized="1"
   inkscape:current-layer="Layer_1" />
	<g
   id="Grid"
   transform="matrix(2.0058658,0,0,2.0058658,0.50293289,-3.5061896)">
		<rect
   x="0"
   stroke-miterlimit="10"
   width="512"
   height="512"
   id="rect4"
   y="0"
   style="fill:none;stroke:#a9ccdb;stroke-miterlimit:10" />
		<line
   stroke-miterlimit="10"
   x1="0"
   y1="32"
   x2="512"
   y2="32"
   id="line6"
   style="fill:none;stroke:#a9ccdb;stroke-miterlimit:10" />
		<line
   stroke-miterlimit="10"
   x1="0"
   y1="64"
   x2="512"
   y2="64"
   id="line8"
   style="fill:none;stroke:#a9ccdb;stroke-miterlimit:10" />
		<line
   stroke-miterlimit="10"
   x1="0"
   y1="96"
   x2="512"
   y2="96"
   id="line10"
   style="fill:none;stroke:#a9ccdb;stroke-miterlimit:10" />
		<line
   stroke-miterlimit="10"
   x1="0"
   y1="128"
   x2="512"
   y2="128"
   id="line12"
   style="fill:none;stroke:#a9ccdb;stroke-miterlimit:10" />
		<line
   stroke-miterlimit="10"
   x1="0"
   y1="160"
   x2="512"
   y2="160"
   id="line14"
   style="fill:none;stroke:#a9ccdb;stroke-miterlimit:10" />
		<line
   stroke-miterlimit="10"
   x1="0"
   y1="192"
   x2="512"
   y2="192"
   id="line16"
   style="fill:none;stroke:#a9ccdb;stroke-miterlimit:10" />
		<line
   stroke-miterlimit="10"
   x1="0"
   y1="224"
   x2="512"
   y2="224"
   id="line18"
   style="fill:none;stroke:#a9ccdb;stroke-miterlimit:10" />
		<line
   stroke-miterlimit="10"
   x1="0"
   y1="256"
   x2="512"
   y2="256"
   id="line20"
   style="fill:none;stroke:#a9ccdb;stroke-miterlimit:10" />
		<line
   stroke-miterlimit="10"
   x1="0"
   y1="288"
   x2="512"
   y2="288"
   id="line22"
   style="fill:none;stroke:#a9ccdb;stroke-miterlimit:10" />
		<line
   stroke-miterlimit="10"
   x1="0"
   y1="320"
   x2="512"
   y2="320"
   id="line24"
   style="fill:none;stroke:#a9ccdb;stroke-miterlimit:10" />
		<line
   stroke-miterlimit="10"
   x1="0"
   y1="352"
   x2="512"
   y2="352"
   id="line26"
   style="fill:none;stroke:#a9ccdb;stroke-miterlimit:10" />
		<line
   stroke-miterlimit="10"
   x1="0"
   y1="384"
   x2="512"
   y2="384"
   id="line28"
   style="fill:none;stroke:#a9ccdb;stroke-miterlimit:10" />
		<line
   stroke-miterlimit="10"
   x1="0"
   y1="416"
   x2="512"
   y2="416"
   id="line30"
   style="fill:none;stroke:#a9ccdb;stroke-miterlimit:10" />
		<line
   stroke-miterlimit="10"
   x1="0"
   y1="448"
   x2="512"
   y2="448"
   id="line32"
   style="fill:none;stroke:#ff0000;stroke-miterlimit:10" />
		<line
   stroke-miterlimit="10"
   x1="0"
   y1="480"
   x2="512"
   y2="480"
   id="line34"
   style="fill:none;stroke:#a9ccdb;stroke-miterlimit:10" />
		<line
   stroke-miterlimit="10"
   x1="32"
   y1="0"
   x2="32"
   y2="512"
   id="line36"
   style="fill:none;stroke:#a9ccdb;stroke-miterlimit:10" />
		<line
   stroke-miterlimit="10"
   x1="64"
   y1="0"
   x2="64"
   y2="512"
   id="line38"
   style="fill:none;stroke:#a9ccdb;stroke-miterlimit:10" />
		<line
   stroke-miterlimit="10"
   x1="96"
   y1="0"
   x2="96"
   y2="512"
   id="line40"
   style="fill:none;stroke:#a9ccdb;stroke-miterlimit:10" />
		<line
   stroke-miterlimit="10"
   x1="128"
   y1="0"
   x2="128"
   y2="512"
   id="line42"
   style="fill:none;stroke:#a9ccdb;stroke-miterlimit:10" />
		<line
   stroke-miterlimit="10"
   x1="160"
   y1="0"
   x2="160"
   y2="512"
   id="line44"
   style="fill:none;stroke:#a9ccdb;stroke-miterlimit:10" />
		<line
   stroke-miterlimit="10"
   x1="192"
   y1="0"
   x2="192"
   y2="512"
   id="line46"
   style="fill:none;stroke:#a9ccdb;stroke-miterlimit:10" />
		<line
   stroke-miterlimit="10"
   x1="224"
   y1="0"
   x2="224"
   y2="512"
   id="line48"
   style="fill:none;stroke:#a9ccdb;stroke-miterlimit:10" />
		<line
   stroke-miterlimit="10"
   x1="256"
   y1="0"
   x2="256"
   y2="512"
   id="line50"
   style="fill:none;stroke:#a9ccdb;stroke-miterlimit:10" />
		<line
   stroke-miterlimit="10"
   x1="288"
   y1="0"
   x2="288"
   y2="512"
   id="line52"
   style="fill:none;stroke:#a9ccdb;stroke-miterlimit:10" />
		<line
   stroke-miterlimit="10"
   x1="320"
   y1="0"
   x2="320"
   y2="512"
   id="line54"
   style="fill:none;stroke:#a9ccdb;stroke-miterlimit:10" />
		<line
   stroke-miterlimit="10"
   x1="352"
   y1="0"
   x2="352"
   y2="512"
   id="line56"
   style="fill:none;stroke:#a9ccdb;stroke-miterlimit:10" />
		<line
   stroke-miterlimit="10"
   x1="384"
   y1="0"
   x2="384"
   y2="512"
   id="line58"
   style="fill:none;stroke:#a9ccdb;stroke-miterlimit:10" />
		<line
   stroke-miterlimit="10"
   x1="416"
   y1="0"
   x2="416"
   y2="512"
   id="line60"
   style="fill:none;stroke:#a9ccdb;stroke-miterlimit:10" />
		<line
   stroke-miterlimit="10"
   x1="448"
   y1="0"
   x2="448"
   y2="512"
   id="line62"
   style="fill:none;stroke:#a9ccdb;stroke-miterlimit:10" />
		<line
   stroke-miterlimit="10"
   x1="480"
   y1="0"
   x2="480"
   y2="512"
   id="line64"
   style="fill:none;stroke:#a9ccdb;stroke-miterlimit:10" />
	</g>
	
<path
   style="fill:#a1bc67"
   d="m 513.23783,158.97092 c -1.66559,4.56723 1.3375,14.71238 -1.57867,27.16185 -2.32179,9.91199 -10.55031,23.08013 -12.31882,23.09352 -22.01926,-5.28459 -58.68238,-15.00354 -78.56131,-10.87961 -6.27675,1.32336 -17.68348,8.0037 -32.36323,17.09384 -14.43446,8.93828 -14.87606,20.28753 7.00323,21.70701 14.19708,1.76699 19.58666,-0.21397 22.7619,-3.25491 4.84669,-4.64163 4.53439,-11.75277 22.50997,-11.77417 12.33621,-0.62478 50.08379,5.62237 49.71602,6.61285 -1.74046,5.27451 -11.37643,15.27001 -18.17681,24.84031 -15.57902,17.94141 -25.91825,49.25875 -43.02926,61.104 -9.73418,-8.99047 -24.53643,-17.08167 -44.94947,-27.80554 -20.53305,-10.78693 -34.90353,-22.25275 -43.45501,-33.99914 -10.75463,-21.32269 -4.82282,-20.01761 -19.22314,-20.84685 -50.59623,-2.91366 -40.62529,9.17636 -23.34633,42.76555 8.12514,10.04466 35.18137,27.25592 59.96795,42.6157 24.3909,15.11458 46.58404,28.43633 46.37786,31.37221 -2.32164,22.64846 -42.57519,63.95581 -56.95114,68.49138 -44.64201,0.65801 -100.68911,7.16469 -133.53191,19.9858 -15.52052,6.0589 -38.39938,14.31234 -51.14069,21.95045 -25.94626,14.29795 -42.12455,28.32955 -64.441909,56.64355 -42.036296,53.33146 -45.555843,138.57948 -23.298746,178.90551 21.528386,39.00573 68.403025,22.88844 56.054855,-20.03814 -7.02392,-24.41719 -12.08183,-87.76541 31.59651,-134.67916 37.87657,-28.75391 116.66206,-94.18275 177.21161,-73.75115 25.06082,10.44217 1.49724,22.00504 8.56451,44.75885 9.82909,20.5626 26.92811,45.18259 35.1501,63.51689 3.48073,11.23899 21.54188,31.13771 19.988,38.92221 -5.8933,11.06768 -31.60536,10.13948 -32.3407,25.05273 -0.72176,14.63856 7.74045,47.35815 2.23094,57.88301 -12.06612,23.05017 -18.30499,47.40614 -20.71318,72.17484 -1.13327,25.35608 -0.76759,26.52052 1.25025,63.56625 1.21905,22.38073 1.11822,54.14683 11.60814,66.8785 6.31649,6.74058 12.97223,11.00914 18.68138,11.03968 18.16796,0.0972 31.22605,-29.29512 30.32666,-47.32002 -0.69727,-10.82964 -0.51259,-21.29306 -1.40238,-31.57918 -0.9298,-10.74849 -3.03285,-21.30337 -8.54145,-31.88019 -4.25546,-8.17072 -15.17251,-73.50572 16.49893,-91.93757 5.319,-3.09552 40.29204,20.49783 66.11099,36.8378 15.07482,9.54037 15.39568,3.0296 16.50488,0.86878 5.02441,-9.78819 -3.4308,-17.75551 -13.32475,-27.60163 -23.68293,-23.56842 -70.89343,-46.43346 -71.59304,-47.97569 -3.39384,-7.95456 11.97843,-19.78261 25.5213,-30.59143 5.51156,-4.37602 23.13715,-21.54895 24.13594,-26.11986 -0.29928,-23.71522 -27.24229,-22.50273 -32.10089,-38.79369 -4.67266,-13.64901 -26.15397,-45.57217 -33.44009,-65.62066 -5.87344,-16.16139 -3.3632,-19.72488 2.87933,-27.56769 17.36689,5.88821 30.06337,10.66903 43.8635,18.37187 26.76067,14.93705 51.02029,28.0906 63.14175,51.02298 19.37282,30.37603 27.36982,60.01677 26.85833,88.73171 -0.48471,17.55225 -6.35208,41.64384 -6.0985,62.29561 0.19208,15.64267 3.89592,29.31181 16.11065,36.67078 12.54082,5.39289 22.02767,4.65613 29.16923,-0.009 9.64828,-6.30262 15.01673,-19.77475 17.85398,-34.98771 4.57195,-24.51415 2.57138,-53.54856 1.31491,-64.38875 -3.96002,-19.5408 -8.71761,-61.74343 -19.19107,-77.10389 -10.26627,-16.86326 -22.11958,-37.40458 -32.97574,-52.62471 -8.23971,-11.55192 -19.07136,-21.03525 -30.99566,-29.4789 -21.36131,-15.00612 -44.71881,-24.63519 -68.92153,-34.85395 -7.78852,-3.28843 -18.74202,-6.40145 -25.72743,-10.68216 -5.74306,-7.73615 11.52707,-36.88874 19.99733,-50.41447 6.14076,-9.80587 2.07256,-5.34923 8.1833,-7.7342 14.01801,5.33547 52.86462,38.90374 64.44924,49.01458 19.71329,17.20538 10.68739,12.96965 30.19912,23.28617 12.84838,-0.55642 24.53612,1.26942 33.41784,1.35537 9.03172,-1.16703 42.04261,0.80265 40.17889,-3.04314 -23.43843,-33.5011 -51.23879,-46.08129 -85.58717,-65.18775 -16.3117,-13.04273 -48.65397,-25.09844 -60.80621,-39.60313 28.31381,-30.6593 43.04965,-66.93912 66.8135,-94.79585 2.67081,-3.07752 44.39028,21.74112 47.43385,18.2758 2.74736,-3.12805 19.24557,-5.69548 7.28785,-11.99184 -12.14692,-6.39605 -39.8657,-19.45685 -42.05436,-25.94023 5.50532,-7.76166 12.95976,-16.35079 19.18124,-24.23054 10.58151,-13.06081 11.96868,-16.69121 5.95715,-31.33449 -7.02035,-16.88667 -21.3855,-37.38101 -25.62833,-48.50936 -6.04327,-15.85065 -2.43842,-21.56197 -7.16216,-29.16446 -3.24194,-5.21765 -26.5857,-20.73459 -37.60835,-25.45989 -14.36238,-6.47607 -52.02448,-14.4295 -47.05208,15.24966 0.46162,14.94737 13.14246,28.36009 26.277,40.52573 13.96079,12.93094 28.43415,24.45296 29.2916,34.91137 z"
   id="hand"
   inkscape:connector-curvature="0"
   sodipodi:nodetypes="csccscsccccscscsccscssscccccsscscscssssssccccscsccscssccscscscsccccccsscccssccsc" />
	 
	 
</svg>