<?xml version="1.0" encoding="UTF-8" standalone="no"?>
<svg
   xmlns:dc="http://purl.org/dc/elements/1.1/"
   xmlns:cc="http://creativecommons.org/ns#"
   xmlns:rdf="http://www.w3.org/1999/02/22-rdf-syntax-ns#"
   xmlns:svg="http://www.w3.org/2000/svg"
   xmlns="http://www.w3.org/2000/svg"
   xmlns:sodipodi="http://sodipodi.sourceforge.net/DTD/sodipodi-0.dtd"
   xmlns:inkscape="http://www.inkscape.org/namespaces/inkscape"
   version="1.1"
   id="Layer_1"
   x="0px"
   y="0px"
   width="1000"
   height="1000"
   viewBox="0 0 1000 1000"
   enable-background="new 0 0 512 512"
   xml:space="preserve"
   inkscape:version="0.48.0 r9654"
   sodipodi:docname="uni2EAB-x2eab.svg"><metadata
   id="metadata72"><rdf:RDF><cc:Work
       rdf:about=""><dc:format>image/svg+xml</dc:format><dc:type
         rdf:resource="http://purl.org/dc/dcmitype/StillImage" /></cc:Work></rdf:RDF></metadata><defs
   id="defs70" /><sodipodi:namedview
   pagecolor="#ffffff"
   bordercolor="#666666"
   borderopacity="1"
   objecttolerance="10"
   gridtolerance="10"
   guidetolerance="10"
   inkscape:pageopacity="0"
   inkscape:pageshadow="2"
   inkscape:window-width="767"
   inkscape:window-height="705"
   id="namedview68"
   showgrid="false"
   inkscape:zoom="0.25"
   inkscape:cx="863.89433"
   inkscape:cy="175.06098"
   inkscape:window-x="415"
   inkscape:window-y="40"
   inkscape:window-maximized="0"
   inkscape:current-layer="Layer_1"
   showguides="true"
   inkscape:guide-bbox="true" />
	<g
   id="Grid"
   transform="matrix(1.9559636,0,0,1.952167,0.48404577,0.015356)">
		<rect
   x="0"
   stroke-miterlimit="10"
   width="512"
   height="512"
   id="rect4"
   y="0"
   style="fill:none;stroke:#a9ccdb;stroke-miterlimit:10" />
		<line
   stroke-miterlimit="10"
   x1="0"
   y1="32"
   x2="512"
   y2="32"
   id="line6"
   style="fill:none;stroke:#a9ccdb;stroke-miterlimit:10" />
		<line
   stroke-miterlimit="10"
   x1="0"
   y1="64"
   x2="512"
   y2="64"
   id="line8"
   style="fill:none;stroke:#a9ccdb;stroke-miterlimit:10" />
		<line
   stroke-miterlimit="10"
   x1="0"
   y1="96"
   x2="512"
   y2="96"
   id="line10"
   style="fill:none;stroke:#a9ccdb;stroke-miterlimit:10" />
		<line
   stroke-miterlimit="10"
   x1="0"
   y1="128"
   x2="512"
   y2="128"
   id="line12"
   style="fill:none;stroke:#a9ccdb;stroke-miterlimit:10" />
		<line
   stroke-miterlimit="10"
   x1="0"
   y1="160"
   x2="512"
   y2="160"
   id="line14"
   style="fill:none;stroke:#a9ccdb;stroke-miterlimit:10" />
		<line
   stroke-miterlimit="10"
   x1="0"
   y1="192"
   x2="512"
   y2="192"
   id="line16"
   style="fill:none;stroke:#a9ccdb;stroke-miterlimit:10" />
		<line
   stroke-miterlimit="10"
   x1="0"
   y1="224"
   x2="512"
   y2="224"
   id="line18"
   style="fill:none;stroke:#a9ccdb;stroke-miterlimit:10" />
		<line
   stroke-miterlimit="10"
   x1="0"
   y1="256"
   x2="512"
   y2="256"
   id="line20"
   style="fill:none;stroke:#a9ccdb;stroke-miterlimit:10" />
		<line
   stroke-miterlimit="10"
   x1="0"
   y1="288"
   x2="512"
   y2="288"
   id="line22"
   style="fill:none;stroke:#a9ccdb;stroke-miterlimit:10" />
		<line
   stroke-miterlimit="10"
   x1="0"
   y1="320"
   x2="512"
   y2="320"
   id="line24"
   style="fill:none;stroke:#a9ccdb;stroke-miterlimit:10" />
		<line
   stroke-miterlimit="10"
   x1="0"
   y1="352"
   x2="512"
   y2="352"
   id="line26"
   style="fill:none;stroke:#a9ccdb;stroke-miterlimit:10" />
		<line
   stroke-miterlimit="10"
   x1="0"
   y1="384"
   x2="512"
   y2="384"
   id="line28"
   style="fill:none;stroke:#a9ccdb;stroke-miterlimit:10" />
		<line
   stroke-miterlimit="10"
   x1="0"
   y1="416"
   x2="512"
   y2="416"
   id="line30"
   style="fill:none;stroke:#a9ccdb;stroke-miterlimit:10" />
		<line
   stroke-miterlimit="10"
   x1="0"
   y1="448"
   x2="512"
   y2="448"
   id="line32"
   style="fill:none;stroke:#ff0000;stroke-miterlimit:10" />
		<line
   stroke-miterlimit="10"
   x1="0"
   y1="480"
   x2="512"
   y2="480"
   id="line34"
   style="fill:none;stroke:#a9ccdb;stroke-miterlimit:10" />
		<line
   stroke-miterlimit="10"
   x1="32"
   y1="0"
   x2="32"
   y2="512"
   id="line36"
   style="fill:none;stroke:#a9ccdb;stroke-miterlimit:10" />
		<line
   stroke-miterlimit="10"
   x1="64"
   y1="0"
   x2="64"
   y2="512"
   id="line38"
   style="fill:none;stroke:#a9ccdb;stroke-miterlimit:10" />
		<line
   stroke-miterlimit="10"
   x1="96"
   y1="0"
   x2="96"
   y2="512"
   id="line40"
   style="fill:none;stroke:#a9ccdb;stroke-miterlimit:10" />
		<line
   stroke-miterlimit="10"
   x1="128"
   y1="0"
   x2="128"
   y2="512"
   id="line42"
   style="fill:none;stroke:#a9ccdb;stroke-miterlimit:10" />
		<line
   stroke-miterlimit="10"
   x1="160"
   y1="0"
   x2="160"
   y2="512"
   id="line44"
   style="fill:none;stroke:#a9ccdb;stroke-miterlimit:10" />
		<line
   stroke-miterlimit="10"
   x1="192"
   y1="0"
   x2="192"
   y2="512"
   id="line46"
   style="fill:none;stroke:#a9ccdb;stroke-miterlimit:10" />
		<line
   stroke-miterlimit="10"
   x1="224"
   y1="0"
   x2="224"
   y2="512"
   id="line48"
   style="fill:none;stroke:#a9ccdb;stroke-miterlimit:10" />
		<line
   stroke-miterlimit="10"
   x1="256"
   y1="0"
   x2="256"
   y2="512"
   id="line50"
   style="fill:none;stroke:#a9ccdb;stroke-miterlimit:10" />
		<line
   stroke-miterlimit="10"
   x1="288"
   y1="0"
   x2="288"
   y2="512"
   id="line52"
   style="fill:none;stroke:#a9ccdb;stroke-miterlimit:10" />
		<line
   stroke-miterlimit="10"
   x1="320"
   y1="0"
   x2="320"
   y2="512"
   id="line54"
   style="fill:none;stroke:#a9ccdb;stroke-miterlimit:10" />
		<line
   stroke-miterlimit="10"
   x1="352"
   y1="0"
   x2="352"
   y2="512"
   id="line56"
   style="fill:none;stroke:#a9ccdb;stroke-miterlimit:10" />
		<line
   stroke-miterlimit="10"
   x1="384"
   y1="0"
   x2="384"
   y2="512"
   id="line58"
   style="fill:none;stroke:#a9ccdb;stroke-miterlimit:10" />
		<line
   stroke-miterlimit="10"
   x1="416"
   y1="0"
   x2="416"
   y2="512"
   id="line60"
   style="fill:none;stroke:#a9ccdb;stroke-miterlimit:10" />
		<line
   stroke-miterlimit="10"
   x1="448"
   y1="0"
   x2="448"
   y2="512"
   id="line62"
   style="fill:none;stroke:#a9ccdb;stroke-miterlimit:10" />
		<line
   stroke-miterlimit="10"
   x1="480"
   y1="0"
   x2="480"
   y2="512"
   id="line64"
   style="fill:none;stroke:#a9ccdb;stroke-miterlimit:10" />
	</g>
	
<path
   sodipodi:nodetypes="cccccscccscsccccsccccccccscccsccccsccsccscsccscc"
   inkscape:connector-curvature="0"
   id="path3059"
   d="m 224.74928,373.30985 c -44.68724,41.19058 -71.65394,105.46494 -102.78847,155.82605 -11.25034,18.79664 -39.717911,68.76624 -44.367629,112.04494 -8.26118,76.8936 15.656668,151.74436 38.339229,129.11156 35.1776,-78.49146 64.29169,-91.41688 103.82965,-108.1219 13.65839,-8.97491 26.28607,-16.36349 42.22759,-24.19157 18.43342,-9.05173 41.29765,-18.69112 75.30968,-32.05024 47.71835,-31.6888 62.57372,-11.3768 108.7609,-4.32623 40.1878,6.08856 81.8956,8.14338 121.21711,-3.15821 51.39166,-15.77939 89.90356,-54.38932 111.0159,-90.27172 12.01459,-20.41993 20.92824,-33.25196 35.06826,-51.26018 35.94902,-37.93543 51.14524,-77.25759 75.85447,-113.44766 22.81951,-33.42232 43.51788,-67.58488 67.03046,-105.22967 25.84053,-45.3976 22.16456,-78.16003 3.63834,-101.0069 C 797.41898,79.529187 749.44727,82.793207 681.6979,96.507417 631.88062,106.59065 522.55476,120.17031 492.90416,127.89267 c -42.79209,-0.57619 -92.34289,13.25913 -125.75285,35.9045 -30.70569,20.81241 -54.22441,49.06639 -72.30524,80.41355 -25.75581,45.39939 -34.98703,97.49084 -70.09679,129.09913 z m 360.11635,-206.671 c 9.17903,-7.64971 56.20476,-7.64611 104.3562,-16.4822 40.80149,-10.87068 68.65279,-11.14623 103.03455,2.38485 21.72831,8.34214 35.47076,33.66764 22.83353,62.42154 -21.15664,23.68205 -34.7671,44.51877 -50.17574,69.95624 -22.81185,26.9364 -49.29026,86.18185 -65.14798,84.48098 -12.74449,1.14618 -7.22696,-20.63378 -15.40042,-55.01172 -8.82694,-37.12654 -31.62608,-79.9483 -54.41461,-104.34192 -21.25543,-22.26529 -47.0666,-40.36905 -45.08553,-43.40777 z m -14.31076,372.41477 c -43.62142,12.95603 -87.1842,19.03486 -124.77877,9.86424 -23.68588,-5.77781 -45.00272,-17.60881 -62.47258,-37.58678 -29.6621,-41.60702 -45.77048,-92.60934 -49.19739,-141.47877 -4.49567,-36.23038 5.05754,-63.70369 14.24404,-95.15175 21.89301,-47.22537 69.063,-78.30532 117.59329,-81.98909 19.36154,1.40988 41.11832,-0.98555 61.52886,5.06776 26.84202,7.96075 51.35571,26.15661 65.03113,43.16544 17.46689,23.76709 29.7463,49.40412 38.84918,75.07351 21.19986,54.25865 17.81067,126.06857 -6.2592,173.49145 -12.61342,24.85119 -29.45521,35.75153 -54.53856,49.54399 z M 125.19773,661.94817 c 11.60118,-20.42349 20.6553,-59.91677 48.00581,-115.35439 18.82022,-38.14729 47.78077,-78.37423 61.94336,-98.62969 30.15777,-43.16204 41.31807,-55.98223 47.38823,-50.56356 7.99642,7.13818 7.15961,45.92737 29.28243,88.69953 16.07134,29.30226 24.12785,37.13079 31.18324,57.3557 -5.85503,6.40107 -26.77822,19.67933 -34.39292,24.19861 -32.22985,19.12828 -66.84781,6.65972 -95.29345,26.18246 -44.06391,31.53193 -75.71001,75.6332 -88.1167,68.11134 z" />
</svg>