<?xml version="1.0" encoding="UTF-8" standalone="no"?>
<svg
   xmlns:dc="http://purl.org/dc/elements/1.1/"
   xmlns:cc="http://creativecommons.org/ns#"
   xmlns:rdf="http://www.w3.org/1999/02/22-rdf-syntax-ns#"
   xmlns:svg="http://www.w3.org/2000/svg"
   xmlns="http://www.w3.org/2000/svg"
   xmlns:sodipodi="http://sodipodi.sourceforge.net/DTD/sodipodi-0.dtd"
   xmlns:inkscape="http://www.inkscape.org/namespaces/inkscape"
   version="1.1"
   id="Layer_1"
   x="0px"
   y="0px"
   width="1000"
   height="1000"
   viewBox="0 0 1000 1000"
   enable-background="new 0 0 512 512"
   xml:space="preserve"
   inkscape:version="0.48.0 r9654"
   sodipodi:docname="uni2FAB-x2fab.svg"><metadata
   id="metadata72"><rdf:RDF><cc:Work
       rdf:about=""><dc:format>image/svg+xml</dc:format><dc:type
         rdf:resource="http://purl.org/dc/dcmitype/StillImage" /></cc:Work></rdf:RDF></metadata><defs
   id="defs70" /><sodipodi:namedview
   pagecolor="#ffffff"
   bordercolor="#666666"
   borderopacity="1"
   objecttolerance="10"
   gridtolerance="10"
   guidetolerance="10"
   inkscape:pageopacity="0"
   inkscape:pageshadow="2"
   inkscape:window-width="1152"
   inkscape:window-height="814"
   id="namedview68"
   showgrid="false"
   inkscape:zoom="0.5"
   inkscape:cx="628.99544"
   inkscape:cy="528.13889"
   inkscape:window-x="-8"
   inkscape:window-y="-8"
   inkscape:window-maximized="1"
   inkscape:current-layer="Layer_1"
   showguides="true"
   inkscape:guide-bbox="true" />
	<g
   id="Grid"
   transform="matrix(1.9559636,0,0,1.952167,0.48404577,0.015356)">
		<rect
   x="0"
   stroke-miterlimit="10"
   width="512"
   height="512"
   id="rect4"
   y="0"
   style="fill:none;stroke:#a9ccdb;stroke-miterlimit:10" />
		<line
   stroke-miterlimit="10"
   x1="0"
   y1="32"
   x2="512"
   y2="32"
   id="line6"
   style="fill:none;stroke:#a9ccdb;stroke-miterlimit:10" />
		<line
   stroke-miterlimit="10"
   x1="0"
   y1="64"
   x2="512"
   y2="64"
   id="line8"
   style="fill:none;stroke:#a9ccdb;stroke-miterlimit:10" />
		<line
   stroke-miterlimit="10"
   x1="0"
   y1="96"
   x2="512"
   y2="96"
   id="line10"
   style="fill:none;stroke:#a9ccdb;stroke-miterlimit:10" />
		<line
   stroke-miterlimit="10"
   x1="0"
   y1="128"
   x2="512"
   y2="128"
   id="line12"
   style="fill:none;stroke:#a9ccdb;stroke-miterlimit:10" />
		<line
   stroke-miterlimit="10"
   x1="0"
   y1="160"
   x2="512"
   y2="160"
   id="line14"
   style="fill:none;stroke:#a9ccdb;stroke-miterlimit:10" />
		<line
   stroke-miterlimit="10"
   x1="0"
   y1="192"
   x2="512"
   y2="192"
   id="line16"
   style="fill:none;stroke:#a9ccdb;stroke-miterlimit:10" />
		<line
   stroke-miterlimit="10"
   x1="0"
   y1="224"
   x2="512"
   y2="224"
   id="line18"
   style="fill:none;stroke:#a9ccdb;stroke-miterlimit:10" />
		<line
   stroke-miterlimit="10"
   x1="0"
   y1="256"
   x2="512"
   y2="256"
   id="line20"
   style="fill:none;stroke:#a9ccdb;stroke-miterlimit:10" />
		<line
   stroke-miterlimit="10"
   x1="0"
   y1="288"
   x2="512"
   y2="288"
   id="line22"
   style="fill:none;stroke:#a9ccdb;stroke-miterlimit:10" />
		<line
   stroke-miterlimit="10"
   x1="0"
   y1="320"
   x2="512"
   y2="320"
   id="line24"
   style="fill:none;stroke:#a9ccdb;stroke-miterlimit:10" />
		<line
   stroke-miterlimit="10"
   x1="0"
   y1="352"
   x2="512"
   y2="352"
   id="line26"
   style="fill:none;stroke:#a9ccdb;stroke-miterlimit:10" />
		<line
   stroke-miterlimit="10"
   x1="0"
   y1="384"
   x2="512"
   y2="384"
   id="line28"
   style="fill:none;stroke:#a9ccdb;stroke-miterlimit:10" />
		<line
   stroke-miterlimit="10"
   x1="0"
   y1="416"
   x2="512"
   y2="416"
   id="line30"
   style="fill:none;stroke:#a9ccdb;stroke-miterlimit:10" />
		<line
   stroke-miterlimit="10"
   x1="0"
   y1="448"
   x2="512"
   y2="448"
   id="line32"
   style="fill:none;stroke:#ff0000;stroke-miterlimit:10" />
		<line
   stroke-miterlimit="10"
   x1="0"
   y1="480"
   x2="512"
   y2="480"
   id="line34"
   style="fill:none;stroke:#a9ccdb;stroke-miterlimit:10" />
		<line
   stroke-miterlimit="10"
   x1="32"
   y1="0"
   x2="32"
   y2="512"
   id="line36"
   style="fill:none;stroke:#a9ccdb;stroke-miterlimit:10" />
		<line
   stroke-miterlimit="10"
   x1="64"
   y1="0"
   x2="64"
   y2="512"
   id="line38"
   style="fill:none;stroke:#a9ccdb;stroke-miterlimit:10" />
		<line
   stroke-miterlimit="10"
   x1="96"
   y1="0"
   x2="96"
   y2="512"
   id="line40"
   style="fill:none;stroke:#a9ccdb;stroke-miterlimit:10" />
		<line
   stroke-miterlimit="10"
   x1="128"
   y1="0"
   x2="128"
   y2="512"
   id="line42"
   style="fill:none;stroke:#a9ccdb;stroke-miterlimit:10" />
		<line
   stroke-miterlimit="10"
   x1="160"
   y1="0"
   x2="160"
   y2="512"
   id="line44"
   style="fill:none;stroke:#a9ccdb;stroke-miterlimit:10" />
		<line
   stroke-miterlimit="10"
   x1="192"
   y1="0"
   x2="192"
   y2="512"
   id="line46"
   style="fill:none;stroke:#a9ccdb;stroke-miterlimit:10" />
		<line
   stroke-miterlimit="10"
   x1="224"
   y1="0"
   x2="224"
   y2="512"
   id="line48"
   style="fill:none;stroke:#a9ccdb;stroke-miterlimit:10" />
		<line
   stroke-miterlimit="10"
   x1="256"
   y1="0"
   x2="256"
   y2="512"
   id="line50"
   style="fill:none;stroke:#a9ccdb;stroke-miterlimit:10" />
		<line
   stroke-miterlimit="10"
   x1="288"
   y1="0"
   x2="288"
   y2="512"
   id="line52"
   style="fill:none;stroke:#a9ccdb;stroke-miterlimit:10" />
		<line
   stroke-miterlimit="10"
   x1="320"
   y1="0"
   x2="320"
   y2="512"
   id="line54"
   style="fill:none;stroke:#a9ccdb;stroke-miterlimit:10" />
		<line
   stroke-miterlimit="10"
   x1="352"
   y1="0"
   x2="352"
   y2="512"
   id="line56"
   style="fill:none;stroke:#a9ccdb;stroke-miterlimit:10" />
		<line
   stroke-miterlimit="10"
   x1="384"
   y1="0"
   x2="384"
   y2="512"
   id="line58"
   style="fill:none;stroke:#a9ccdb;stroke-miterlimit:10" />
		<line
   stroke-miterlimit="10"
   x1="416"
   y1="0"
   x2="416"
   y2="512"
   id="line60"
   style="fill:none;stroke:#a9ccdb;stroke-miterlimit:10" />
		<line
   stroke-miterlimit="10"
   x1="448"
   y1="0"
   x2="448"
   y2="512"
   id="line62"
   style="fill:none;stroke:#a9ccdb;stroke-miterlimit:10" />
		<line
   stroke-miterlimit="10"
   x1="480"
   y1="0"
   x2="480"
   y2="512"
   id="line64"
   style="fill:none;stroke:#a9ccdb;stroke-miterlimit:10" />
	</g>
	
<path
   sodipodi:nodetypes="csccccsccsccccsccsccscccsccccsccccsccccscccssscccscscccsccscccsssccccccsccsscssscsscssscsccccscscsccsccscsccscscsccscscccccsccsc"
   inkscape:connector-curvature="0"
   id="path3059"
   d="m 288.20868,355.35612 c -2.45984,19.6226 -15.28558,29.9662 -28.40198,30.34461 -11.44248,0.3301 -23.10615,-6.92375 -28.30186,-22.21719 -9.47922,-31.36728 35.88021,-77.11377 49.16148,-100.48586 3.51786,-6.56564 16.56941,-29.14225 19.4679,-36.49852 -4.08008,-5.72937 -16.01392,-25.45623 -22.75643,-31.69293 -9.27618,-9.90987 -16.29157,-21.89998 -25.24965,-32.82612 -10.39918,-12.68384 -20.26229,-25.34334 -28.84231,-36.33216 -3.14443,-14.10138 17.58969,-30.286514 35.23046,-25.29408 11.70122,10.15325 21.07288,22.85202 30.04618,35.68945 11.65426,16.67288 37.39197,52.47218 51.93312,64.33997 10.40533,-28.67301 20.53578,-52.93685 30.58892,-80.37848 5.35074,-14.5903 10.73612,-28.705994 17.37201,-40.174184 11.20317,-2.09544 33.78639,-14.51269 37.12683,2.63441 0.97492,17.50592 -0.86899,32.254634 -4.19944,46.247424 -4.22042,17.73197 -10.82801,34.25002 -17.11161,53.62663 -7.72188,22.19162 -27.32958,35.38407 -29.40151,51.67842 -1.15617,9.98278 8.88084,15.20111 15.79032,22.22996 7.28011,7.40589 11.52161,16.52444 13.04804,23.33462 1.96536,9.66175 -7.61877,18.44447 -17.86277,33.78585 -3.67516,16.5986 -8.45159,42.15489 -15.41419,63.72222 -7.04598,21.82562 -16.33078,39.56615 -28.97876,39.80423 -21.98792,-4.90733 -27.19553,-16.29364 -25.39202,-29.90927 7.766,-30.91971 20.02952,-64.74519 35.64564,-88.54336 3.56184,-5.92579 -2.39867,-13.86343 -7.09519,-19.56052 -9.24956,-11.22015 1.03734,0.96126 -8.16288,-4.49989 -12.63889,10.51802 -12.24519,20.51638 -22.54237,38.79089 -37.90158,72.81066 -63.65728,83.92648 -79.8095,14.04251 -4.78689,-15.76512 -15.84828,-81.98581 -16.82846,-96.64655 -1.45648,-24.98536 27.77151,-33.17536 45.26743,-14.23085 10.74349,11.63298 10.36813,85.38128 15.3637,109.45923 -4.82893,-14.00791 10.72208,24.10715 10.3089,29.55954 z m -76.32564,554.57297 c -17.42268,-7.33892 -29.5695,-11.96371 -41.05908,-17.80463 -11.43404,-5.81273 -22.39203,-12.48859 -37.94789,-22.88229 -16.67279,-14.16147 -48.23955,-41.65686 -59.35341,-60.17793 -3.06572,-5.23961 -10.66698,-19.10268 -9.63024,-30.19179 1.84199,-19.70211 15.80826,-37.41477 22.97957,-30.68673 11.78707,30.27889 8.73392,26.45089 35.36949,30.6885 16.67935,2.62264 31.25985,6.6939 47.85398,6.6711 13.91875,-4.50885 27.09734,-3.43601 40.59787,0.41345 8.24434,2.40951 17.10852,-14.30216 23.29521,-13.22658 1.99785,0.34736 2.92826,-5.86081 2.45526,-8.31279 -17.99191,-19.36853 -38.21652,-54.51347 -54.09052,-74.01861 -18.01094,-27.32955 -27.54733,-56.24748 -31.82831,-88.00993 -1.02331,-16.53827 -1.75293,-32.75715 -2.31714,-48.73129 -0.50256,-14.22873 -0.87389,-109.23132 -1.20461,-123.12443 -0.41509,-17.43688 -0.76624,-34.65099 -1.23267,-51.74661 -0.43923,-16.0988 -8.85023,-30.29323 -9.64357,-46.26898 -1.38008,-27.66023 -2.51663,-54.57436 -1.34859,-78.52565 25.99002,20.5491 33.27736,54.23567 38.40291,79.53667 3.31544,15.0239 9.54017,28.49892 9.81101,43.87776 0.68224,38.73856 -2.11823,159.10847 2.12482,196.84233 0.44337,16.29215 8.69013,54.15291 20.43679,79.38929 8.12875,16.65432 46.18411,77.79919 48.31709,75.43814 4.46804,-6.48906 7.89082,-13.18363 10.91185,-19.92955 3.35485,-7.49139 27.8555,-67.2255 31.10068,-74.63243 3.41438,-8.22776 8.18372,-21.33161 15.4746,-30.3127 11.86159,-11.12994 22.29756,-11.81389 29.53825,-6.28525 5.36129,4.09363 8.97077,11.59329 10.11005,20.78046 3.65718,32.06373 -27.57627,61.04193 -40.75344,91.03798 -9.90671,18.80669 -23.80952,23.91043 -26.09447,26.44286 -0.52691,0.18146 -3.67456,3.17551 -6.28925,6.42084 -1.8027,2.23751 -4.06128,3.46071 1.40326,5.26722 6.01788,1.98943 15.11813,-3.39421 25.85289,4.82993 11.95134,9.15619 15.62054,24.96554 19.31886,30.82378 2.79512,4.42755 -21.93183,-6.20902 -31.37855,-10.73289 -11.51103,-5.51246 -29.04353,-3.58582 -34.26815,0.66132 -3.53972,4.39389 -5.89535,29.78209 -6.5204,35.98226 6.3606,8.84542 23.1271,21.24511 30.31014,25.69797 9.3819,6.2656 22.53808,17.43983 31.7393,29.80139 7.51522,12.02465 14.7394,23.45742 17.04012,35.82668 -1.13458,2.37855 7.93338,7.52075 17.59034,16.64699 9.71613,9.18216 18.94428,18.8085 13.83669,19.19526 -3.84906,0.20219 -16.96258,-1.24208 -21.05243,-1.83099 -1.51588,1.40595 -4.02872,1.87819 -5.88793,2.07523 -1.48785,0.15768 -2.3467,0.23314 -3.50062,-0.22711 -2.13007,-0.84959 -2.79396,-2.80446 -4.98527,-3.80388 -0.79842,0.45058 -4.48162,-0.98898 -5.20425,-0.65362 -1.76235,0.81788 -4.18373,1.82909 -5.19201,2.40584 -1.76156,1.00764 -3.0744,0.70283 -4.78442,0.0953 -1.4369,-0.51048 -2.73404,-2.19962 -4.96838,-3.43123 -6.89172,-1.69354 -9.97367,-1.0837 -17.23085,-2.44872 -28.95264,-5.44579 -59.75345,-11.12195 -78.10458,-18.85195 z m 38.20125,-69.46174 c -2.04469,-0.83045 -4.39304,10.43056 -5.22932,15.23288 -0.43781,2.5141 1.54818,4.33983 1.45694,4.35542 -0.30985,0.053 0.4619,3.92044 -0.71788,5.14999 -1.74628,1.81996 -7.21359,2.19492 -8.48611,4.74289 -1.78068,3.56548 -0.67258,6.87369 0.15213,9.43496 2.60504,3.47453 7.86149,5.91137 13.08659,6.6161 4.23184,0.57075 8.44311,0.006 11.20863,-2.06512 3.36648,-2.65774 4.06903,-7.49466 0.71012,-13.38989 -1.87416,-3.11168 -5.46216,-4.99875 -12.01139,-4.86995 -3.00862,0.0742 -7.29736,0.87853 -7.41631,0.11291 0.85629,-1.09822 0.51153,-4.19762 0.59013,-5.84502 0.1014,-2.12492 0.49523,-2.69312 0.76266,-2.43741 2.92295,0.66137 4.13812,0.25417 6.90122,0.4548 3.07438,0.22321 7.67121,1.06686 10.40577,2.20264 2.62622,1.14068 8.42522,3.85125 9.96612,5.23869 3.55505,3.20107 4.56191,7.85074 4.29231,13.25442 -1.21937,12.50938 -8.68243,17.16061 -22.53361,16.01312 -11.27897,-1.33184 -24.8618,-6.55366 -24.43418,-6.30694 13.90787,8.02387 72.61608,23.49269 76.26799,19.4083 1.84808,-7.14448 -1.09772,-20.21599 -9.46227,-33.34529 -13.30573,-16.61097 -28.59634,-27.0882 -45.50954,-33.9575 z m -87.96134,2.82465 c -1.22582,9.46043 1.35523,16.71528 6.58365,22.3433 12.82131,11.44304 28.73195,13.83854 40.83479,8.20504 7.93406,-3.69307 13.982,-11.32366 17.32333,-20.41534 3.49032,-14.83901 3.37257,-26.70469 -4.19095,-35.12204 -4.83102,-5.3764 -14.01704,-9.52868 -22.94828,-11.55495 -16.6543,-2.8074 -28.38756,6.40991 -34.02381,18.56861 -2.63397,5.68206 -2.77807,11.61239 -3.57873,17.97538 z m -32.68868,-42.12758 c -15.62085,-0.5144 -28.79668,-0.55463 -29.27957,-0.0895 -4.25438,4.0978 34.41835,44.56985 41.32346,43.3002 1.487,-0.27355 1.42069,-12.63232 4.276,-21.77557 3.02979,-9.70195 10.111,-14.21307 10.11275,-19.05598 6.5e-4,-1.9077 -10.71366,-1.86157 -26.43264,-2.37916 z M 303.9956,539.21964 c -4.9943,-17.91599 -10.08615,-113.79281 -19.82341,-129.0213 -8.32897,-9.49841 -12.80526,-13.30363 -18.44414,-12.57778 -6.31262,0.81258 -10.50842,7.6396 -13.70691,15.78919 -2.8023,20.21478 9.57716,108.70935 15.08148,128.40982 0.99048,12.20264 12.3132,17.28678 18.01363,18.55988 8.22096,1.83602 21.94251,-7.92469 18.87935,-21.15981 z" />
</svg>