<?xml version="1.0" encoding="UTF-8" standalone="no"?>
<svg
   xmlns:dc="http://purl.org/dc/elements/1.1/"
   xmlns:cc="http://creativecommons.org/ns#"
   xmlns:rdf="http://www.w3.org/1999/02/22-rdf-syntax-ns#"
   xmlns:svg="http://www.w3.org/2000/svg"
   xmlns="http://www.w3.org/2000/svg"
   xmlns:sodipodi="http://sodipodi.sourceforge.net/DTD/sodipodi-0.dtd"
   xmlns:inkscape="http://www.inkscape.org/namespaces/inkscape"
   version="1.1"
   id="Layer_1"
   x="0px"
   y="0px"
   width="1000"
   height="1000"
   viewBox="0 0 1000 1000"
   enable-background="new 0 0 512 512"
   xml:space="preserve"
   inkscape:version="0.48.0 r9654"
   sodipodi:docname="uni2F47-x2f47.svg"><metadata
   id="metadata41"><rdf:RDF><cc:Work
       rdf:about=""><dc:format>image/svg+xml</dc:format><dc:type
         rdf:resource="http://purl.org/dc/dcmitype/StillImage" /></cc:Work></rdf:RDF></metadata><defs
   id="defs39" /><sodipodi:namedview
   pagecolor="#ffffff"
   bordercolor="#666666"
   borderopacity="1"
   objecttolerance="10"
   gridtolerance="10"
   guidetolerance="10"
   inkscape:pageopacity="0"
   inkscape:pageshadow="2"
   inkscape:window-width="1152"
   inkscape:window-height="814"
   id="namedview37"
   showgrid="false"
   inkscape:zoom="0.50976562"
   inkscape:cx="256"
   inkscape:cy="597.1624"
   inkscape:window-x="-8"
   inkscape:window-y="-8"
   inkscape:window-maximized="1"
   inkscape:current-layer="Layer_1" />
	<g
   id="Grid"
   transform="matrix(1.952166,0,0,1.9521605,0.4753831,0.01703369)">
		<rect
   x="0"
   stroke-miterlimit="10"
   width="512"
   height="512"
   id="rect4"
   y="0"
   style="fill:none;stroke:#a9ccdb;stroke-miterlimit:10" />
		<line
   stroke-miterlimit="10"
   x1="0"
   y1="32"
   x2="512"
   y2="32"
   id="line6"
   style="fill:none;stroke:#a9ccdb;stroke-miterlimit:10" />
		<line
   stroke-miterlimit="10"
   x1="0"
   y1="64"
   x2="512"
   y2="64"
   id="line8"
   style="fill:none;stroke:#a9ccdb;stroke-miterlimit:10" />
		<line
   stroke-miterlimit="10"
   x1="0"
   y1="96"
   x2="512"
   y2="96"
   id="line10"
   style="fill:none;stroke:#a9ccdb;stroke-miterlimit:10" />
		<line
   stroke-miterlimit="10"
   x1="0"
   y1="128"
   x2="512"
   y2="128"
   id="line12"
   style="fill:none;stroke:#a9ccdb;stroke-miterlimit:10" />
		<line
   stroke-miterlimit="10"
   x1="0"
   y1="160"
   x2="512"
   y2="160"
   id="line14"
   style="fill:none;stroke:#a9ccdb;stroke-miterlimit:10" />
		<line
   stroke-miterlimit="10"
   x1="0"
   y1="192"
   x2="512"
   y2="192"
   id="line16"
   style="fill:none;stroke:#a9ccdb;stroke-miterlimit:10" />
		<line
   stroke-miterlimit="10"
   x1="0"
   y1="224"
   x2="512"
   y2="224"
   id="line18"
   style="fill:none;stroke:#a9ccdb;stroke-miterlimit:10" />
		<line
   stroke-miterlimit="10"
   x1="0"
   y1="256"
   x2="512"
   y2="256"
   id="line20"
   style="fill:none;stroke:#a9ccdb;stroke-miterlimit:10" />
		<line
   stroke-miterlimit="10"
   x1="0"
   y1="288"
   x2="512"
   y2="288"
   id="line22"
   style="fill:none;stroke:#a9ccdb;stroke-miterlimit:10" />
		<line
   stroke-miterlimit="10"
   x1="0"
   y1="320"
   x2="512"
   y2="320"
   id="line24"
   style="fill:none;stroke:#a9ccdb;stroke-miterlimit:10" />
		<line
   stroke-miterlimit="10"
   x1="0"
   y1="352"
   x2="512"
   y2="352"
   id="line26"
   style="fill:none;stroke:#a9ccdb;stroke-miterlimit:10" />
		<line
   stroke-miterlimit="10"
   x1="0"
   y1="384"
   x2="512"
   y2="384"
   id="line28"
   style="fill:none;stroke:#a9ccdb;stroke-miterlimit:10" />
		<line
   stroke-miterlimit="10"
   x1="0"
   y1="416"
   x2="512"
   y2="416"
   id="line30"
   style="fill:none;stroke:#a9ccdb;stroke-miterlimit:10" />
		<line
   stroke-miterlimit="10"
   x1="0"
   y1="448"
   x2="512"
   y2="448"
   id="line32"
   style="fill:none;stroke:#ff0000;stroke-miterlimit:10" />
		<line
   stroke-miterlimit="10"
   x1="0"
   y1="480"
   x2="512"
   y2="480"
   id="line34"
   style="fill:none;stroke:#a9ccdb;stroke-miterlimit:10" />
		<line
   stroke-miterlimit="10"
   x1="32"
   y1="0"
   x2="32"
   y2="512"
   id="line36"
   style="fill:none;stroke:#a9ccdb;stroke-miterlimit:10" />
		<line
   stroke-miterlimit="10"
   x1="64"
   y1="0"
   x2="64"
   y2="512"
   id="line38"
   style="fill:none;stroke:#a9ccdb;stroke-miterlimit:10" />
		<line
   stroke-miterlimit="10"
   x1="96"
   y1="0"
   x2="96"
   y2="512"
   id="line40"
   style="fill:none;stroke:#a9ccdb;stroke-miterlimit:10" />
		<line
   stroke-miterlimit="10"
   x1="128"
   y1="0"
   x2="128"
   y2="512"
   id="line42"
   style="fill:none;stroke:#a9ccdb;stroke-miterlimit:10" />
		<line
   stroke-miterlimit="10"
   x1="160"
   y1="0"
   x2="160"
   y2="512"
   id="line44"
   style="fill:none;stroke:#a9ccdb;stroke-miterlimit:10" />
		<line
   stroke-miterlimit="10"
   x1="192"
   y1="0"
   x2="192"
   y2="512"
   id="line46"
   style="fill:none;stroke:#a9ccdb;stroke-miterlimit:10" />
		<line
   stroke-miterlimit="10"
   x1="224"
   y1="0"
   x2="224"
   y2="512"
   id="line48"
   style="fill:none;stroke:#a9ccdb;stroke-miterlimit:10" />
		<line
   stroke-miterlimit="10"
   x1="256"
   y1="0"
   x2="256"
   y2="512"
   id="line50"
   style="fill:none;stroke:#a9ccdb;stroke-miterlimit:10" />
		<line
   stroke-miterlimit="10"
   x1="288"
   y1="0"
   x2="288"
   y2="512"
   id="line52"
   style="fill:none;stroke:#a9ccdb;stroke-miterlimit:10" />
		<line
   stroke-miterlimit="10"
   x1="320"
   y1="0"
   x2="320"
   y2="512"
   id="line54"
   style="fill:none;stroke:#a9ccdb;stroke-miterlimit:10" />
		<line
   stroke-miterlimit="10"
   x1="352"
   y1="0"
   x2="352"
   y2="512"
   id="line56"
   style="fill:none;stroke:#a9ccdb;stroke-miterlimit:10" />
		<line
   stroke-miterlimit="10"
   x1="384"
   y1="0"
   x2="384"
   y2="512"
   id="line58"
   style="fill:none;stroke:#a9ccdb;stroke-miterlimit:10" />
		<line
   stroke-miterlimit="10"
   x1="416"
   y1="0"
   x2="416"
   y2="512"
   id="line60"
   style="fill:none;stroke:#a9ccdb;stroke-miterlimit:10" />
		<line
   stroke-miterlimit="10"
   x1="448"
   y1="0"
   x2="448"
   y2="512"
   id="line62"
   style="fill:none;stroke:#a9ccdb;stroke-miterlimit:10" />
		<line
   stroke-miterlimit="10"
   x1="480"
   y1="0"
   x2="480"
   y2="512"
   id="line64"
   style="fill:none;stroke:#a9ccdb;stroke-miterlimit:10" />
	</g>
	<path
   d="m 862.98077,80.238688 c -9.58704,9.551835 -23.27928,28.644512 -34.38489,45.909962 -15.48269,24.07029 -38.42029,54.05283 -48.84947,74.62389 0,0 12.26228,15.72337 12.39064,16.33392 l 72.22169,-33.66718 c 31.57647,-13.55997 42.23903,-18.96588 61.24535,-48.83807 23.23642,-37.376617 27.56468,-64.088035 14.05098,-72.716324 -11.4024,-7.280253 -56.87584,-1.330946 -76.6743,18.353802 z M 42.801033,161.05275 c 13.82155,17.43033 32.218961,34.72297 52.602446,46.29555 19.023861,10.80071 118.598511,1.24274 118.598511,1.24274 3.35064,0.59756 29.15878,-29.74342 31.50281,-33.04605 -9.33764,-9.34547 -76.25662,9.92408 -100.38354,-19.5175 -3.45579,-4.21703 -12.63806,-15.37641 -15.92402,-18.01313 -1.94768,-1.5629 -19.17326,-17.25304 -21.02957,-18.85572 -5.35485,-4.62324 -20.158223,-13.73258 -21.079624,-14.43068 -24.991334,-9.723424 -41.148988,-5.385987 -49.279251,5.03446 -10.015675,12.8369 -7.849143,34.90522 4.992238,51.29033 z m 187.013317,601.23567 -16.27943,-18.8115 c -17.16493,6.99142 -37.34803,24.40806 -61.11637,36.35585 -25.3415,12.73859 -51.08755,27.72597 -70.097465,43.75034 -26.626562,22.44481 -40.037765,46.92419 -20.61163,70.10812 16.735275,13.57417 33.819099,11.93277 49.791605,4.09257 14.02758,-8.1532 27.10291,-18.17279 38.99209,-29.16587 11.10249,-10.26563 21.17063,-21.3802 30.014,-32.61655 16.69804,-21.32306 31.56878,-45.75658 49.3072,-73.71296 z m 178.5734,-361.50731 c -18.05794,23.15285 -24.8541,50.96883 -23.29399,78.08801 1.857,32.27948 15.55297,63.57176 36.18832,84.83833 19.02364,17.23656 42.94483,26.32207 66.93104,28.11385 30.66517,1.04733 58.07248,-8.95169 79.13072,-27.2158 24.94926,-23.66198 37.45401,-54.18778 38.92208,-84.79929 -2.87835,-48.58027 -20.98697,-84.94618 -51.33254,-105.04026 -23.38794,-12.83135 -46.03017,-18.08608 -67.42726,-16.50343 -29.09299,2.15193 -55.88416,16.94412 -79.11837,42.51859 z m 90.66615,482.90601 c 54.44921,0 104.98997,-10.36125 151.62225,-31.08377 46.63227,-20.72248 87.46918,-49.39333 122.51078,-86.01258 35.04161,-36.61921 62.4009,-79.48355 82.07814,-128.59308 19.67721,-49.10946 29.51586,-102.33511 29.51586,-159.67679 0,-56.20633 -9.97331,-108.86429 -29.92007,-157.97357 C 834.91397,271.23772 807.28507,228.08945 771.97392,190.90255 736.66279,153.71548 695.69112,124.76087 649.05884,104.0384 602.42656,83.315615 552.42492,72.954471 499.0539,72.954471 c -52.29283,0 -101.62062,10.64521 -147.98335,31.935429 -46.36275,21.29025 -87.33443,50.52876 -122.91513,87.71567 -35.58072,37.18724 -63.34442,80.33546 -83.2912,129.44479 -19.94675,49.10954 -29.92011,101.19971 -29.92011,156.27058 0,53.93508 9.83859,105.45761 29.51578,154.5671 44.16453,100.4372 116.4115,179.42532 207.41931,220.99277 44.74541,19.87083 93.80362,29.80635 147.1747,29.80635 z m 1.61728,-73.23843 c -88.41265,0 -162.53907,-32.36114 -222.37934,-97.08354 -29.6506,-31.79344 -52.69716,-67.98682 -69.13975,-108.58021 -16.44261,-40.59344 -24.6639,-82.74806 -24.6639,-126.46404 0,-44.85152 8.35608,-87.2901 25.06823,-127.31576 16.71211,-40.02572 39.62395,-75.22559 68.73542,-105.59967 29.11148,-30.37411 62.80531,-54.21905 101.08152,-71.53499 38.27621,-17.31627 78.70878,-25.97425 121.29782,-25.97425 41.51079,0 81.53909,8.37424 120.08486,25.12241 38.54572,16.74852 73.45252,41.01925 104.7204,72.81269 59.84027,61.31592 89.7604,138.81229 89.7604,232.48957 0,45.98679 -8.08655,89.13499 -24.25957,129.44461 -16.17304,40.30956 -38.54576,75.65139 -67.11814,106.02549 -28.57236,30.37407 -61.99665,54.0772 -100.27284,71.10939 -38.2762,17.03219 -79.24789,25.5483 -122.91511,25.5483 z m 395.24792,25.3371 c -13.79113,-7.03151 -71.21965,-50.79738 -74.93307,-53.14364 -3.77264,-2.38363 -27.15341,-15.75816 -30.43328,-16.46888 l -14.5451,-3.81295 -14.77046,15.02924 21.77453,50.35235 c 2.61688,2.51856 7.07833,6.78557 12.32383,11.73355 5.73158,5.4065 12.39928,11.62594 18.6196,17.2657 7.64866,6.93481 29.38348,30.86616 33.10701,33.45863 45.52433,24.76633 85.44374,-1.18313 48.85694,-54.414 z"
   id="path35"
   inkscape:connector-curvature="0" />
</svg>