<?xml version="1.0" encoding="UTF-8" standalone="no"?>
<svg
   xmlns:dc="http://purl.org/dc/elements/1.1/"
   xmlns:cc="http://creativecommons.org/ns#"
   xmlns:rdf="http://www.w3.org/1999/02/22-rdf-syntax-ns#"
   xmlns:svg="http://www.w3.org/2000/svg"
   xmlns="http://www.w3.org/2000/svg"
   xmlns:sodipodi="http://sodipodi.sourceforge.net/DTD/sodipodi-0.dtd"
   xmlns:inkscape="http://www.inkscape.org/namespaces/inkscape"
   version="1.1"
   id="Layer_1"
   x="0px"
   y="0px"
   width="900"
   height="1024"
   viewBox="0 0 900 1024"
   enable-background="new 0 0 512 512"
   xml:space="preserve"
   inkscape:version="0.48.0 r9654"
   sodipodi:docname="uni2F4A-x2f4a.svg"><metadata
   id="metadata72"><rdf:RDF><cc:Work
       rdf:about=""><dc:format>image/svg+xml</dc:format><dc:type
         rdf:resource="http://purl.org/dc/dcmitype/StillImage" /></cc:Work></rdf:RDF></metadata><defs
   id="defs70" /><sodipodi:namedview
   pagecolor="#ffffff"
   bordercolor="#666666"
   borderopacity="1"
   objecttolerance="10"
   gridtolerance="10"
   guidetolerance="10"
   inkscape:pageopacity="0"
   inkscape:pageshadow="2"
   inkscape:window-width="672"
   inkscape:window-height="804"
   id="namedview68"
   showgrid="false"
   inkscape:zoom="0.25488281"
   inkscape:cx="958.6837"
   inkscape:cy="351.57458"
   inkscape:window-x="375"
   inkscape:window-y="-6"
   inkscape:window-maximized="0"
   inkscape:current-layer="Layer_1" />
	<g
   id="Grid"
   transform="matrix(2.1548326,0,0,1.9865788,0.5774163,6.3783544)">
		<rect
   x="0"
   stroke-miterlimit="10"
   width="512"
   height="512"
   id="rect4"
   y="0"
   style="fill:none;stroke:#a9ccdb;stroke-miterlimit:10" />
		<line
   stroke-miterlimit="10"
   x1="0"
   y1="32"
   x2="512"
   y2="32"
   id="line6"
   style="fill:none;stroke:#a9ccdb;stroke-miterlimit:10" />
		<line
   stroke-miterlimit="10"
   x1="0"
   y1="64"
   x2="512"
   y2="64"
   id="line8"
   style="fill:none;stroke:#a9ccdb;stroke-miterlimit:10" />
		<line
   stroke-miterlimit="10"
   x1="0"
   y1="96"
   x2="512"
   y2="96"
   id="line10"
   style="fill:none;stroke:#a9ccdb;stroke-miterlimit:10" />
		<line
   stroke-miterlimit="10"
   x1="0"
   y1="128"
   x2="512"
   y2="128"
   id="line12"
   style="fill:none;stroke:#a9ccdb;stroke-miterlimit:10" />
		<line
   stroke-miterlimit="10"
   x1="0"
   y1="160"
   x2="512"
   y2="160"
   id="line14"
   style="fill:none;stroke:#a9ccdb;stroke-miterlimit:10" />
		<line
   stroke-miterlimit="10"
   x1="0"
   y1="192"
   x2="512"
   y2="192"
   id="line16"
   style="fill:none;stroke:#a9ccdb;stroke-miterlimit:10" />
		<line
   stroke-miterlimit="10"
   x1="0"
   y1="224"
   x2="512"
   y2="224"
   id="line18"
   style="fill:none;stroke:#a9ccdb;stroke-miterlimit:10" />
		<line
   stroke-miterlimit="10"
   x1="0"
   y1="256"
   x2="512"
   y2="256"
   id="line20"
   style="fill:none;stroke:#a9ccdb;stroke-miterlimit:10" />
		<line
   stroke-miterlimit="10"
   x1="0"
   y1="288"
   x2="512"
   y2="288"
   id="line22"
   style="fill:none;stroke:#a9ccdb;stroke-miterlimit:10" />
		<line
   stroke-miterlimit="10"
   x1="0"
   y1="320"
   x2="512"
   y2="320"
   id="line24"
   style="fill:none;stroke:#a9ccdb;stroke-miterlimit:10" />
		<line
   stroke-miterlimit="10"
   x1="0"
   y1="352"
   x2="512"
   y2="352"
   id="line26"
   style="fill:none;stroke:#a9ccdb;stroke-miterlimit:10" />
		<line
   stroke-miterlimit="10"
   x1="0"
   y1="384"
   x2="512"
   y2="384"
   id="line28"
   style="fill:none;stroke:#a9ccdb;stroke-miterlimit:10" />
		<line
   stroke-miterlimit="10"
   x1="0"
   y1="416"
   x2="512"
   y2="416"
   id="line30"
   style="fill:none;stroke:#a9ccdb;stroke-miterlimit:10" />
		<line
   stroke-miterlimit="10"
   x1="0"
   y1="448"
   x2="512"
   y2="448"
   id="line32"
   style="fill:none;stroke:#ff0000;stroke-miterlimit:10" />
		<line
   stroke-miterlimit="10"
   x1="0"
   y1="480"
   x2="512"
   y2="480"
   id="line34"
   style="fill:none;stroke:#a9ccdb;stroke-miterlimit:10" />
		<line
   stroke-miterlimit="10"
   x1="32"
   y1="0"
   x2="32"
   y2="512"
   id="line36"
   style="fill:none;stroke:#a9ccdb;stroke-miterlimit:10" />
		<line
   stroke-miterlimit="10"
   x1="64"
   y1="0"
   x2="64"
   y2="512"
   id="line38"
   style="fill:none;stroke:#a9ccdb;stroke-miterlimit:10" />
		<line
   stroke-miterlimit="10"
   x1="96"
   y1="0"
   x2="96"
   y2="512"
   id="line40"
   style="fill:none;stroke:#a9ccdb;stroke-miterlimit:10" />
		<line
   stroke-miterlimit="10"
   x1="128"
   y1="0"
   x2="128"
   y2="512"
   id="line42"
   style="fill:none;stroke:#a9ccdb;stroke-miterlimit:10" />
		<line
   stroke-miterlimit="10"
   x1="160"
   y1="0"
   x2="160"
   y2="512"
   id="line44"
   style="fill:none;stroke:#a9ccdb;stroke-miterlimit:10" />
		<line
   stroke-miterlimit="10"
   x1="192"
   y1="0"
   x2="192"
   y2="512"
   id="line46"
   style="fill:none;stroke:#a9ccdb;stroke-miterlimit:10" />
		<line
   stroke-miterlimit="10"
   x1="224"
   y1="0"
   x2="224"
   y2="512"
   id="line48"
   style="fill:none;stroke:#a9ccdb;stroke-miterlimit:10" />
		<line
   stroke-miterlimit="10"
   x1="256"
   y1="0"
   x2="256"
   y2="512"
   id="line50"
   style="fill:none;stroke:#a9ccdb;stroke-miterlimit:10" />
		<line
   stroke-miterlimit="10"
   x1="288"
   y1="0"
   x2="288"
   y2="512"
   id="line52"
   style="fill:none;stroke:#a9ccdb;stroke-miterlimit:10" />
		<line
   stroke-miterlimit="10"
   x1="320"
   y1="0"
   x2="320"
   y2="512"
   id="line54"
   style="fill:none;stroke:#a9ccdb;stroke-miterlimit:10" />
		<line
   stroke-miterlimit="10"
   x1="352"
   y1="0"
   x2="352"
   y2="512"
   id="line56"
   style="fill:none;stroke:#a9ccdb;stroke-miterlimit:10" />
		<line
   stroke-miterlimit="10"
   x1="384"
   y1="0"
   x2="384"
   y2="512"
   id="line58"
   style="fill:none;stroke:#a9ccdb;stroke-miterlimit:10" />
		<line
   stroke-miterlimit="10"
   x1="416"
   y1="0"
   x2="416"
   y2="512"
   id="line60"
   style="fill:none;stroke:#a9ccdb;stroke-miterlimit:10" />
		<line
   stroke-miterlimit="10"
   x1="448"
   y1="0"
   x2="448"
   y2="512"
   id="line62"
   style="fill:none;stroke:#a9ccdb;stroke-miterlimit:10" />
		<line
   stroke-miterlimit="10"
   x1="480"
   y1="0"
   x2="480"
   y2="512"
   id="line64"
   style="fill:none;stroke:#a9ccdb;stroke-miterlimit:10" />
	</g>
	<path
   glyph-name="uni-2F4A-tree"
   unicode="&#x2f4a;"
   horiz-adv-x="900"
   d="m 413.20724,340.17248 c -9.64679,-13.76901 -20.07917,-25.12431 -31.11707,-35.35112 -12.09495,-11.20618 -24.91694,-21.05738 -38.22905,-31.24455 -5.06561,-3.87991 -10.0918,-7.76966 -15.04483,-11.66711 -21.86822,-17.20772 -42.31022,-34.56551 -58.42147,-51.88821 -4.54583,-3.85992 -11.64879,-9.01066 -15.84819,-11.71809 -4.0591,-2.61692 -8.36741,-4.77156 -13.71962,-6.61111 -6.87407,-1.84395 -14.12355,-3.02511 -20.20175,-1.77003 -6.7053,1.38455 -15.93444,6.38356 -17.71237,16.07884 -1.19763,8.02705 4.28262,14.51019 9.52425,21.7359 12.39164,13.06608 24.99957,22.46815 36.93941,32.82473 8.45448,7.83758 17.37849,15.55868 25.55763,22.40818 30.06517,25.1693 61.54236,50.29595 86.09592,78.61958 13.02472,16.48533 29.95853,29.54203 44.06962,45.85939 1.37634,6.07657 5.34836,24.52501 6.71993,51.51881 1.56247,30.74944 -6.04917,74.62959 -6.42603,101.53486 -35.00849,39.16913 -86.89056,98.32625 -130.86839,145.58984 -26.68741,24.95769 -36.97064,38.56607 -61.63379,57.05322 -5.44743,-9.18616 -9.75269,-19.84958 -13.33929,-30.39154 -3.07119,-9.02694 -5.61544,-17.96483 -7.89876,-25.80995 -2.45992,-11.17703 -9.03151,-26.94669 -12.84672,-37.97878 -10.1359,-27.01823 -20.96388,-58.57817 -32.31308,-84.0623 -6.39272,-11.40155 -13.74488,-27.78978 -26.5977,-33.83831 -14.39411,-6.22999 -30.690308,1.9887 -31.896422,13.40247 -1.235482,6.99016 -0.602663,13.40259 1.036546,19.56343 3.01696,11.3391 9.442953,21.82593 13.904236,33.49374 8.6953,23.67927 25.53209,74.45408 31.08385,90.67539 7.55975,15.59458 13.39047,31.5801 18.56565,47.65995 8.14011,25.29211 14.65847,50.81764 23.7329,75.42241 8.29278,22.68761 24.56789,14.37554 36.82821,5.15217 44.31077,-37.5038 80.12975,-76.48615 122.35247,-121.61166 6.707,-8.28698 24.70722,-30.86229 44.49246,-53.52091 10.37944,-11.88682 28.40841,-34.0183 33.9248,-40.2262 -0.28538,27.92242 0.34596,75.75189 -1.595,98.64425 -1.79086,20.9121 -1.70801,39.86714 -2.60282,57.75739 -1.29224,25.83765 0.12778,36.86489 -0.32202,60.94802 0.84654,23.05683 17.21687,55.7717 41.93983,58.73512 25.0262,2.41734 32.42318,-44.62029 34.17189,-58.27737 1.19606,-27.78542 0.85892,-37.7646 1.49628,-62.05007 0.51625,-19.67192 0.8025,-39.16608 0.78308,-60.05474 2.026,-7.55534 1.14862,-47.02317 1.50778,-70.84758 0.1879,-12.45853 0.35146,-22.99473 0.70392,-27.27171 10.80972,10.80566 21.40557,21.33834 31.79008,31.70228 9.57885,9.55991 18.97786,18.97624 28.19895,28.33074 13.05454,13.24333 25.75254,26.36279 38.09953,39.59037 5.47272,5.86303 10.87648,11.74732 16.2118,17.67302 16.75818,18.69146 31.12876,35.82793 46.33351,54.72207 18.45673,22.95474 16.63208,22.52687 22.81669,29.49473 3.80355,4.28529 8.48273,9.06003 18.54267,19.25957 7.36236,7.50183 15.34948,9.94004 23.265,-1.50776 18.39697,-42.3779 34.16478,-81.43239 49.25452,-119.94095 14.88353,-37.98231 29.57587,-78.71324 45.01234,-118.2986 4.89578,-18.59937 8.65833,-17.83767 0.39369,-43.59105 -11.33837,-5.30339 -19.82724,-11.19768 -30.93026,-1.26429 -12.08809,7.88803 -13.5551,27.49935 -19.85542,42.65774 -10.94017,26.28022 -15.54468,39.20758 -23.296,60.21694 -6.34743,18.70599 -16.20555,41.82244 -22.14849,59.90533 -6.25497,19.03234 -13.68132,35.06945 -23.23806,53.76193 -14.09841,-17.64376 -24.90097,-32.16546 -35.86639,-46.064 -13.39179,-15.02604 -26.64009,-30.4677 -39.874,-45.68124 -9.12283,-10.48747 -18.23878,-20.86649 -27.39016,-30.92624 -8.61213,-9.46701 -17.25564,-18.65118 -25.96575,-27.37687 -12.42914,-12.2525 -25.79497,-24.06345 -38.90898,-35.15339 -11.43765,-9.67227 -18.5517,-17.05825 -28.818,-25.44825 -4.42029,-34.85109 -8.57948,-61.9901 -7.78439,-99.1403 1.53292,-14.87897 4.44725,-39.07491 8.96027,-51.52309 18.87588,-19.11349 37.93664,-40.21812 57.24497,-60.92799 21.81943,-23.40322 45.9167,-46.30233 68.45893,-65.2542 9.00238,-7.56855 18.06961,-14.50758 27.20746,-20.59778 13.15517,-8.29127 25.46351,-14.87942 35.43066,-24.64416 12.54415,-14.48375 13.42867,-28.54492 5.3151,-37.28053 -3.78505,-3.2206 -9.95696,-9.83114 -16.46943,-8.9598 -22.81715,7.30292 -30.50182,9.94563 -52.29358,26.98243 -7.12135,4.88933 -35.36654,31.3948 -50.47345,43.16722 -14.04459,11.12169 -29.72657,28.36676 -42.85178,38.73247 -16.24122,12.85766 -31.38178,30.85151 -42.29719,42.14398 0.80582,-10.27156 1.17203,-21.91168 0.69797,-32.23697 -2.8422,-39.01849 3.54612,-90.36146 -0.72521,-128.73346 -2.60192,-24.71946 -6.58803,-45.5129 -11.81161,-60.95118 -9.10076,-8.16898 -14.33705,-15.62202 -22.78063,-14.55873 -6.94942,0.87515 -19.34132,7.26278 -24.76071,15.842 -4.60246,20.31491 -7.59416,40.53199 -9.4426,61.87821 -3.77617,43.60825 -2.78105,88.83721 -1.00066,127.58654 0.49257,8.56539 -3.87984,20.19774 -1.04768,27.92691 z m 8.70781,18.96539 c -16.20887,-14.7576 -37.13092,-40.21497 -52.33001,-57.8464 -19.11825,-22.11064 -59.07219,-34.04927 -79.35244,-55.1296 -13.37632,-15.16387 -10.03232,-6.32596 -22.63206,-18.06364 -4.71322,-6.53718 -11.63969,-20.41911 -23.96701,-28.21709 -12.18791,-5.63419 -26.09351,-3.84549 -30.38613,3.20031 -2.28476,5.33494 -1.832,10.06957 0.1198,14.30277 3.91221,8.48577 15.80893,13.97589 21.78919,19.22904 12.08196,10.76603 16.88685,8.28547 23.71827,15.53708 19.86764,21.10111 43.31322,30.44328 60.5191,51.47231 25.01028,27.95855 50.52178,49.91949 69.94018,72.83929 12.04909,11.35143 26.73181,24.28945 30.28091,32.86837 1.51129,3.93861 2.86388,7.83872 4.07582,11.71025 6.14729,19.6366 8.67743,38.53723 9.94824,57.98927 1.29981,20.20569 1.14413,40.65899 -0.2936,61.53819 -0.4008,5.82064 -0.90121,11.67435 -1.49748,17.56501 -23.75636,25.54357 -29.69176,29.87434 -41.41778,44.36142 -14.97371,16.66454 -29.01949,31.74925 -42.67743,46.05154 -20.07383,21.02095 -39.30981,40.35177 -59.4225,60.52438 -27.90497,27.9086 -55.15063,53.81768 -80.63465,75.76522 -1.31357,-1.01035 -15.80073,-43.98907 -28.6413,-80.81985 -15.8282,-45.40014 -23.9339,-74.44076 -41.86144,-117.31246 -3.85526,-9.99941 -8.52187,-17.57729 -13.09673,-22.7364 -13.09532,-13.48728 -25.847555,-7.88775 -25.950086,5.83435 -0.0021,7.23005 3.475396,16.47944 5.568726,22.00646 18.87443,42.31449 33.44151,80.14064 45.32392,114.89242 7.33126,21.44138 17.35328,37.84925 23.02164,63.33285 22.30392,-23.08513 20.93888,-1.26215 12.30471,37.84897 9.01841,24.63934 7.25082,23.98794 29.21116,9.81724 23.38909,-22.99954 47.13476,-42.18236 71.32166,-63.85024 19.98689,-17.90533 28.12919,-37.36632 48.76632,-53.5527 12.08967,-8.89847 91.8512,-95.61616 103.02373,-100.93547 4.13624,39.94869 -9.53343,79.783 -10.58296,116.88438 -1.18682,41.45106 -3.1525,83.2994 -3.69274,121.92676 -1.14271,17.65425 12.0779,38.13234 29.83077,39.9024 21.80843,-2.95818 20.55432,-24.49404 21.02701,-40.55585 0.90574,-41.4337 1.45319,-81.75187 2.6487,-121.27873 0.0855,-39.98652 -0.053,-75.27294 5.21672,-115.64821 31.96825,23.77633 49.44909,38.35937 69.41278,57.42695 6.88458,6.57555 14.06442,13.68449 22.23559,21.88769 14.13128,14.20823 47.86325,52.94109 60.1153,67.37802 21.52695,26.94367 38.17271,45.22105 58.12911,71.03914 12.55453,20.93644 12.55873,13.43426 20.45962,-1.01597 4.81691,-8.81497 17.12019,-34.6077 18.78204,-39.04087 10.27943,-27.42128 11.58718,-29.10592 24.46637,-60.85721 6.85601,-16.90231 18.07485,-44.70895 23.50524,-59.40461 8.18132,-22.14004 16.32618,-41.7023 22.15427,-60.8141 0.33872,-7.69261 7.66868,-20.93066 6.88568,-27.14184 -1.02396,-8.12236 -12.47334,-11.03163 -15.86248,-11.38123 -4.97891,-0.51359 -15.23184,23.54962 -20.90179,36.80734 -12.07915,33.69589 -19.88126,56.41168 -22.40825,63.58667 -7.27896,20.57593 -14.27532,36.14884 -22.47767,58.1748 -8.875,23.83233 -17.99007,45.33623 -23.91388,57.91946 -4.80318,10.20285 -6.32824,15.14756 -8.47851,14.94314 -10.5879,-13.03646 -41.55086,-56.33747 -54.26286,-71.14876 -21.59382,-22.43481 -24.56305,-27.43523 -53.45586,-60.25308 -5.154,-5.11437 -8.02117,-9.80831 -13.2035,-14.92344 -17.05783,-16.83669 -35.12849,-32.9751 -48.50839,-45.91871 -15.58362,-14.06695 -33.15964,-26.51028 -47.14543,-41.06968 -0.68702,-6.05313 -1.27954,-12.10001 -1.77414,-18.13303 -1.65062,-20.1343 -2.21042,-40.11404 -1.55042,-59.65613 0.55187,-19.04939 2.87776,-39.72284 8.22082,-57.23626 1.24818,-4.0912 2.66096,-8.00993 4.25426,-11.69523 7.86294,-9.13985 11.4589,-18.92315 18.03681,-28.85909 23.38392,-26.09063 35.96616,-46.10549 60.4606,-65.59858 17.74394,-14.12326 49.02202,-35.89367 66.06511,-50.48058 21.64622,-21.53253 25.69821,-20.89808 42.5596,-39.09681 4.51407,-4.87208 6.71916,-1.44029 10.82963,-7.55406 1.70577,-9.33496 -3.17877,-21.98287 -7.88841,-22.36207 -15.46838,-1.24544 -35.95277,14.14896 -41.26502,19.16032 -19.69075,12.3062 -48.94366,35.37076 -48.36687,48.04472 -40.38096,34.42518 -75.57106,74.50463 -105.06574,97.29252 -1.59425,-44.35882 2.88778,-78.8353 1.1429,-112.00364 -1.24039,-23.57775 -10.63276,-68.20648 -15.19739,-109.57075 -2.93951,-9.13466 -2.67699,-12.07466 -6.90895,-16.40669 -6.45782,-6.21464 -21.0934,-3.98435 -24.46597,1.67427 -3.7635,6.31457 -3.22667,10.10999 -4.29374,14.50007 -20.58665,43.00274 -17.52482,67.08804 -17.8479,109.27835 -2.61176,152.02237 15.03423,60.33025 8.30749,111.05532 z"
   id="uni-2F4A-tree"
   inkscape:connector-curvature="0"
   style="fill:#871600;fill-opacity:0.65217393"
   sodipodi:nodetypes="cscscscsccccccscccscccccsccscccsccscccscscsssccsccscccccsccsscscccsscccccccccccscsccccccccccccccccsccsccsccccscccsccccccccsccccssscssccsscccsccscsccccscscccsccscccc" />
	
</svg>