<?xml version="1.0" encoding="UTF-8" standalone="no"?>
<svg
   xmlns:dc="http://purl.org/dc/elements/1.1/"
   xmlns:cc="http://creativecommons.org/ns#"
   xmlns:rdf="http://www.w3.org/1999/02/22-rdf-syntax-ns#"
   xmlns:svg="http://www.w3.org/2000/svg"
   xmlns="http://www.w3.org/2000/svg"
   xmlns:sodipodi="http://sodipodi.sourceforge.net/DTD/sodipodi-0.dtd"
   xmlns:inkscape="http://www.inkscape.org/namespaces/inkscape"
   version="1.1"
   id="Layer_1"
   x="0px"
   y="0px"
   width="1000"
   height="1000"
   viewBox="0 0 1000 1000"
   enable-background="new 0 0 512 512"
   xml:space="preserve"
   inkscape:version="0.48.0 r9654"
   sodipodi:docname="uni2EE2-x2ee2.svg"><metadata
   id="metadata72"><rdf:RDF><cc:Work
       rdf:about=""><dc:format>image/svg+xml</dc:format><dc:type
         rdf:resource="http://purl.org/dc/dcmitype/StillImage" /></cc:Work></rdf:RDF></metadata><defs
   id="defs70" /><sodipodi:namedview
   pagecolor="#ffffff"
   bordercolor="#666666"
   borderopacity="1"
   objecttolerance="10"
   gridtolerance="10"
   guidetolerance="10"
   inkscape:pageopacity="0"
   inkscape:pageshadow="2"
   inkscape:window-width="1152"
   inkscape:window-height="814"
   id="namedview68"
   showgrid="false"
   inkscape:zoom="0.36045873"
   inkscape:cx="354.16717"
   inkscape:cy="590.57421"
   inkscape:window-x="-8"
   inkscape:window-y="-8"
   inkscape:window-maximized="1"
   inkscape:current-layer="Layer_1" />
	<g
   id="Grid"
   transform="matrix(1.9521744,0,0,-1.93498,3.2503619,999.0565)">
		<rect
   x="0"
   stroke-miterlimit="10"
   width="512"
   height="512"
   id="rect4"
   y="0"
   style="fill:none;stroke:#a9ccdb;stroke-miterlimit:10" />
		<line
   stroke-miterlimit="10"
   x1="0"
   y1="32"
   x2="512"
   y2="32"
   id="line6"
   style="fill:none;stroke:#a9ccdb;stroke-miterlimit:10" />
		<line
   stroke-miterlimit="10"
   x1="0"
   y1="64"
   x2="512"
   y2="64"
   id="line8"
   style="fill:none;stroke:#a9ccdb;stroke-miterlimit:10" />
		<line
   stroke-miterlimit="10"
   x1="0"
   y1="96"
   x2="512"
   y2="96"
   id="line10"
   style="fill:none;stroke:#a9ccdb;stroke-miterlimit:10" />
		<line
   stroke-miterlimit="10"
   x1="0"
   y1="128"
   x2="512"
   y2="128"
   id="line12"
   style="fill:none;stroke:#a9ccdb;stroke-miterlimit:10" />
		<line
   stroke-miterlimit="10"
   x1="0"
   y1="160"
   x2="512"
   y2="160"
   id="line14"
   style="fill:none;stroke:#a9ccdb;stroke-miterlimit:10" />
		<line
   stroke-miterlimit="10"
   x1="0"
   y1="192"
   x2="512"
   y2="192"
   id="line16"
   style="fill:none;stroke:#a9ccdb;stroke-miterlimit:10" />
		<line
   stroke-miterlimit="10"
   x1="0"
   y1="224"
   x2="512"
   y2="224"
   id="line18"
   style="fill:none;stroke:#a9ccdb;stroke-miterlimit:10" />
		<line
   stroke-miterlimit="10"
   x1="0"
   y1="256"
   x2="512"
   y2="256"
   id="line20"
   style="fill:none;stroke:#a9ccdb;stroke-miterlimit:10" />
		<line
   stroke-miterlimit="10"
   x1="0"
   y1="288"
   x2="512"
   y2="288"
   id="line22"
   style="fill:none;stroke:#a9ccdb;stroke-miterlimit:10" />
		<line
   stroke-miterlimit="10"
   x1="0"
   y1="320"
   x2="512"
   y2="320"
   id="line24"
   style="fill:none;stroke:#a9ccdb;stroke-miterlimit:10" />
		<line
   stroke-miterlimit="10"
   x1="0"
   y1="352"
   x2="512"
   y2="352"
   id="line26"
   style="fill:none;stroke:#a9ccdb;stroke-miterlimit:10" />
		<line
   stroke-miterlimit="10"
   x1="0"
   y1="384"
   x2="512"
   y2="384"
   id="line28"
   style="fill:none;stroke:#a9ccdb;stroke-miterlimit:10" />
		<line
   stroke-miterlimit="10"
   x1="0"
   y1="416"
   x2="512"
   y2="416"
   id="line30"
   style="fill:none;stroke:#a9ccdb;stroke-miterlimit:10" />
		<line
   stroke-miterlimit="10"
   x1="0"
   y1="448"
   x2="512"
   y2="448"
   id="line32"
   style="fill:none;stroke:#ff0000;stroke-miterlimit:10" />
		<line
   stroke-miterlimit="10"
   x1="0"
   y1="480"
   x2="512"
   y2="480"
   id="line34"
   style="fill:none;stroke:#a9ccdb;stroke-miterlimit:10" />
		<line
   stroke-miterlimit="10"
   x1="32"
   y1="0"
   x2="32"
   y2="512"
   id="line36"
   style="fill:none;stroke:#a9ccdb;stroke-miterlimit:10" />
		<line
   stroke-miterlimit="10"
   x1="64"
   y1="0"
   x2="64"
   y2="512"
   id="line38"
   style="fill:none;stroke:#a9ccdb;stroke-miterlimit:10" />
		<line
   stroke-miterlimit="10"
   x1="96"
   y1="0"
   x2="96"
   y2="512"
   id="line40"
   style="fill:none;stroke:#a9ccdb;stroke-miterlimit:10" />
		<line
   stroke-miterlimit="10"
   x1="128"
   y1="0"
   x2="128"
   y2="512"
   id="line42"
   style="fill:none;stroke:#a9ccdb;stroke-miterlimit:10" />
		<line
   stroke-miterlimit="10"
   x1="160"
   y1="0"
   x2="160"
   y2="512"
   id="line44"
   style="fill:none;stroke:#a9ccdb;stroke-miterlimit:10" />
		<line
   stroke-miterlimit="10"
   x1="192"
   y1="0"
   x2="192"
   y2="512"
   id="line46"
   style="fill:none;stroke:#a9ccdb;stroke-miterlimit:10" />
		<line
   stroke-miterlimit="10"
   x1="224"
   y1="0"
   x2="224"
   y2="512"
   id="line48"
   style="fill:none;stroke:#a9ccdb;stroke-miterlimit:10" />
		<line
   stroke-miterlimit="10"
   x1="256"
   y1="0"
   x2="256"
   y2="512"
   id="line50"
   style="fill:none;stroke:#a9ccdb;stroke-miterlimit:10" />
		<line
   stroke-miterlimit="10"
   x1="288"
   y1="0"
   x2="288"
   y2="512"
   id="line52"
   style="fill:none;stroke:#a9ccdb;stroke-miterlimit:10" />
		<line
   stroke-miterlimit="10"
   x1="320"
   y1="0"
   x2="320"
   y2="512"
   id="line54"
   style="fill:none;stroke:#a9ccdb;stroke-miterlimit:10" />
		<line
   stroke-miterlimit="10"
   x1="352"
   y1="0"
   x2="352"
   y2="512"
   id="line56"
   style="fill:none;stroke:#a9ccdb;stroke-miterlimit:10" />
		<line
   stroke-miterlimit="10"
   x1="384"
   y1="0"
   x2="384"
   y2="512"
   id="line58"
   style="fill:none;stroke:#a9ccdb;stroke-miterlimit:10" />
		<line
   stroke-miterlimit="10"
   x1="416"
   y1="0"
   x2="416"
   y2="512"
   id="line60"
   style="fill:none;stroke:#a9ccdb;stroke-miterlimit:10" />
		<line
   stroke-miterlimit="10"
   x1="448"
   y1="0"
   x2="448"
   y2="512"
   id="line62"
   style="fill:none;stroke:#a9ccdb;stroke-miterlimit:10" />
		<line
   stroke-miterlimit="10"
   x1="480"
   y1="0"
   x2="480"
   y2="512"
   id="line64"
   style="fill:none;stroke:#a9ccdb;stroke-miterlimit:10" />
	</g>
<path
   d="m 464.70794,207.10539 c -8.86657,-11.64524 -17.38777,-29.17669 -27.10314,-43.98171 -10.26792,-14.53027 -22.78973,-26.53563 -36.57484,-35.44558 -13.83658,-8.94322 -28.94594,-14.76787 -44.32631,-16.89707 -7.72243,-1.00621 -16.82674,-1.2891 -29.30747,-1.1135 C 303.34855,96.59729 278.95741,88.3587 254.45639,81.87741 229.83761,75.36497 205.1079,70.62676 180.50426,64.54388 c -23.9334,-6.21747 -42.92462,-18.72404 -58.45382,-7.85489 -21.3443,40.31038 -16.25766,32.4279 -2.13001,58.17236 10.84431,19.76133 27.19975,45.25487 43.42914,72.53274 1.39153,2.33884 3.49461,30.2941 -12.7208,48.91477 -27.99586,32.14857 -67.754463,41.31405 -64.844513,44.59658 2.56143,2.88941 42.479733,19.44217 75.242403,-5.86668 21.40667,-16.53643 34.52939,-53.68949 36.26158,-52.05757 12.21723,11.51011 15.88225,17.79507 21.73898,29.43203 4.54588,28.15903 17.83707,49.79138 36.08012,69.36273 14.86895,15.738 19.80307,13.61337 41.81692,27.67357 -19.0751,17.79991 -38.92709,38.19821 -56.43695,53.43084 -38.74376,-10.49033 -87.66238,-13.8342 -130.29288,-15.46635 -6.61965,-0.25344 -13.166153,8.13284 -19.602253,8.22492 -19.6427,0.28103 -38.25695,-6.22202 -54.78329,-2.05338 -23.9862,8.69812 -20.5125,38.67906 -0.6531,44.3653 19.79914,-2.74177 37.28698,-1.00694 58.76397,-1.59741 5.32365,-0.14635 18.628743,-7.00794 23.540433,-7.02374 35.58258,-0.11452 64.63988,3.18832 100.08407,9.78555 -3.81226,12.73083 -9.33964,25.90768 -13.43257,33.9481 -6.39492,1.11838 -12.83586,2.08447 -19.17518,2.96888 -19.25416,5.18121 -53.96715,4.53196 -76.05403,11.63317 -8.20852,2.63914 -14.673113,6.3488 -17.952093,11.82612 -7.3497,14.55319 4.17486,38.47974 15.076153,41.02048 8.82209,1.1043 16.70768,-3.37179 30.27917,-11.10356 5.90811,-3.0669 26.87502,-12.60869 35.67929,-12.448 5.9031,0.9099 13.21893,2.72479 19.53423,4.77159 -2.12213,26.45488 -5.3794,56.72853 -3.80476,84.99613 1.25732,22.57133 5.59538,43.86364 16.05201,60.91148 10.20639,16.29031 24.1936,31.14714 39.53474,45.23342 15.91909,14.4297 34.80763,27.46836 53.61266,37.55212 -0.1865,34.27673 -1.56982,73.36891 -2.04898,107.43652 -20.95354,25.66641 -48.94789,45.0393 -72.14603,63.69267 -16.30895,13.13042 -33.8181,27.80875 -38.40484,35.48076 -4.66347,7.80034 -2.76879,17.61412 3.231,22.96579 7.32592,4.32651 14.68719,1.97156 21.43341,-2.94087 12.69627,-18.41867 22.22726,-30.29774 32.96618,-42.13722 18.60975,-16.30536 33.24752,-28.26208 52.89707,-35.92998 -0.67342,7.1529 -0.4055,14.37119 -0.67018,21.65766 -0.7188,19.78832 -2.33116,41.22866 -2.41478,62.07894 0.42664,5.89248 7.7491,15.35092 14.20441,14.67002 7.2129,-0.7608 12.91426,-8.83956 12.76305,-13.44137 2.19084,-19.65324 0.6358,-41.00094 1.80424,-60.76914 0.42493,-7.18927 0.16533,-16.38655 0.66406,-23.37212 13.34315,7.30901 24.21397,11.87973 34.37161,20.19549 2.69012,1.47845 9.36004,8.42917 15.04076,13.02936 13.46154,10.94828 25.60333,23.7103 38.83835,34.82071 6.46008,5.42304 12.65229,12.56588 20.40567,14.83182 7.46854,1.75474 14.64013,0.67813 17.38183,-5.62802 1.02321,-4.94722 0.27959,-9.68495 -1.46039,-14.10661 -3.71771,-7.836 -9.59495,-11.57331 -15.65,-17.2996 -16.29749,-15.41261 -38.21399,-27.91066 -55.54253,-42.45912 -22.80251,-20.03181 -50.98281,-42.21452 -51.14976,-47.25909 0.92604,-7.5369 3.93623,-69.52277 4.75092,-100.00509 13.29387,2.39384 25.68825,5.89221 39.39089,7.31102 21.37367,2.21308 43.94262,1.35429 62.78273,-1.3576 25.6799,-3.90926 49.07394,-13.32626 46.92948,-18.8239 -15.89743,-7.01124 -34.15487,-18.45485 -47.06094,-23.16838 -20.75598,4.83291 -41.3478,5.23436 -61.81947,2.63503 -22.41591,-2.90523 -43.76053,-8.5204 -61.61317,-16.32851 -15.17009,-9.70815 -32.57756,-23.17701 -45.92593,-37.89312 -6.17746,-6.81043 -11.48557,-13.88799 -15.30025,-20.98354 -6.40444,-12.69117 -8.23865,-27.01657 -9.41118,-41.42219 -1.07783,-25.92956 0.76614,-53.48762 4.82665,-79.10872 2.21686,-14.38671 6.10265,-33.27169 11.50402,-48.29324 13.0507,-36.29488 34.94929,-66.81233 63.53262,-78.37207 24.94102,29.8237 48.08008,49.03536 73.65235,75.4958 8.58657,-14.01394 -2.0134,-35.30693 -14.55794,-55.44848 -16.22352,-26.04856 -35.69946,-50.17125 -21.13205,-54.13221 15.61392,9.84632 27.72477,21.81138 46.53643,32.95871 18.71816,10.22037 48.9841,22.30402 77.80045,26.47473 45.49409,6.58458 90.80975,-1.18672 107.51577,-26.29091 C 606.85443,353.3405 557.77674,284.13735 464.70794,207.10539 z M 383.73108,338.5134 c 3.06288,-6.98341 7.67366,-7.46654 27.37235,-28.65894 18.63048,-20.04316 29.39347,-55.09691 32.05511,-53.3993 25.62102,16.34113 102.81458,102.64543 99.12609,112.7652 -10.40885,9.90155 -34.96748,17.14678 -64.34617,15.1363 -36.76167,-5.48181 -72.67806,-19.81878 -94.20738,-45.84326 z M 309.22967,184.34858 c 14.84749,-11.01285 29.30246,-13.40851 43.32786,-9.72405 30.42629,11.25522 48.32388,36.33626 49.39496,62.43418 0.70213,17.10861 -6.86402,34.68372 -19.2473,48.98409 -21.92257,19.96723 -41.98762,30.9362 -62.741,25.86586 -13.25571,-3.23858 -28.24781,-15.11194 -39.4411,-28.54924 -19.23873,-25.97098 -13.95842,-54.80802 1.58453,-75.93886 7.26361,-9.87499 17.11495,-15.70583 27.12205,-23.07198 z M 199.02659,168.74965 c -14.48035,-26.35421 -26.03192,-48.95398 -25.67026,-50.22162 3.18594,-11.16747 115.81944,16.27142 119.70183,29.33053 0.83609,2.81235 -20.01395,14.33396 -32.9076,27.84781 -13.68152,14.33962 -15.099,30.75313 -23.24505,35.31557 -3.20885,1.79721 -23.30768,-15.75254 -37.87892,-42.27229 z m 137.32985,45.60052 c 11.76835,2.12425 22.06609,14.94388 21.21718,30.34074 -3.93894,15.53866 -13.21047,22.16371 -22.48297,22.46799 -13.34925,0.43808 -26.70052,-12.22445 -24.14498,-30.2509 2.11617,-13.12837 11.98855,-24.59555 25.41077,-22.55783 z"
   id="path38"
   inkscape:connector-curvature="0" />
</svg>