<?xml version="1.0" encoding="UTF-8" standalone="no"?>
<svg
   xmlns:dc="http://purl.org/dc/elements/1.1/"
   xmlns:cc="http://creativecommons.org/ns#"
   xmlns:rdf="http://www.w3.org/1999/02/22-rdf-syntax-ns#"
   xmlns:svg="http://www.w3.org/2000/svg"
   xmlns="http://www.w3.org/2000/svg"
   xmlns:sodipodi="http://sodipodi.sourceforge.net/DTD/sodipodi-0.dtd"
   xmlns:inkscape="http://www.inkscape.org/namespaces/inkscape"
   version="1.1"
   id="Layer_1"
   x="0px"
   y="0px"
   width="900"
   height="1024"
   viewBox="0 0 900 1024"
   enable-background="new 0 0 512 512"
   xml:space="preserve"
   inkscape:version="0.48.0 r9654"
   sodipodi:docname="uni2F3C-x2f3c.svg"><metadata
   id="metadata72"><rdf:RDF><cc:Work
       rdf:about=""><dc:format>image/svg+xml</dc:format><dc:type
         rdf:resource="http://purl.org/dc/dcmitype/StillImage" /><dc:title /></cc:Work></rdf:RDF></metadata><defs
   id="defs70" /><sodipodi:namedview
   pagecolor="#ffffff"
   bordercolor="#666666"
   borderopacity="1"
   objecttolerance="10"
   gridtolerance="10"
   guidetolerance="10"
   inkscape:pageopacity="0"
   inkscape:pageshadow="2"
   inkscape:window-width="1109"
   inkscape:window-height="803"
   id="namedview68"
   showgrid="false"
   inkscape:zoom="0.36045873"
   inkscape:cx="-6.3517507"
   inkscape:cy="410.54164"
   inkscape:window-x="72"
   inkscape:window-y="36"
   inkscape:window-maximized="0"
   inkscape:current-layer="Layer_1" />
	<g
   id="Grid"
   transform="matrix(1.99505,0,0,1.99505,0.49752501,2.0369)">
		<rect
   x="0"
   stroke-miterlimit="10"
   width="512"
   height="512"
   id="rect4"
   y="0"
   style="fill:none;stroke:#a9ccdb;stroke-miterlimit:10" />
		<line
   stroke-miterlimit="10"
   x1="0"
   y1="32"
   x2="512"
   y2="32"
   id="line6"
   style="fill:none;stroke:#a9ccdb;stroke-miterlimit:10" />
		<line
   stroke-miterlimit="10"
   x1="0"
   y1="64"
   x2="512"
   y2="64"
   id="line8"
   style="fill:none;stroke:#a9ccdb;stroke-miterlimit:10" />
		<line
   stroke-miterlimit="10"
   x1="0"
   y1="96"
   x2="512"
   y2="96"
   id="line10"
   style="fill:none;stroke:#a9ccdb;stroke-miterlimit:10" />
		<line
   stroke-miterlimit="10"
   x1="0"
   y1="128"
   x2="512"
   y2="128"
   id="line12"
   style="fill:none;stroke:#a9ccdb;stroke-miterlimit:10" />
		<line
   stroke-miterlimit="10"
   x1="0"
   y1="160"
   x2="512"
   y2="160"
   id="line14"
   style="fill:none;stroke:#a9ccdb;stroke-miterlimit:10" />
		<line
   stroke-miterlimit="10"
   x1="0"
   y1="192"
   x2="512"
   y2="192"
   id="line16"
   style="fill:none;stroke:#a9ccdb;stroke-miterlimit:10" />
		<line
   stroke-miterlimit="10"
   x1="0"
   y1="224"
   x2="512"
   y2="224"
   id="line18"
   style="fill:none;stroke:#a9ccdb;stroke-miterlimit:10" />
		<line
   stroke-miterlimit="10"
   x1="0"
   y1="256"
   x2="512"
   y2="256"
   id="line20"
   style="fill:none;stroke:#a9ccdb;stroke-miterlimit:10" />
		<line
   stroke-miterlimit="10"
   x1="0"
   y1="288"
   x2="512"
   y2="288"
   id="line22"
   style="fill:none;stroke:#a9ccdb;stroke-miterlimit:10" />
		<line
   stroke-miterlimit="10"
   x1="0"
   y1="320"
   x2="512"
   y2="320"
   id="line24"
   style="fill:none;stroke:#a9ccdb;stroke-miterlimit:10" />
		<line
   stroke-miterlimit="10"
   x1="0"
   y1="352"
   x2="512"
   y2="352"
   id="line26"
   style="fill:none;stroke:#a9ccdb;stroke-miterlimit:10" />
		<line
   stroke-miterlimit="10"
   x1="0"
   y1="384"
   x2="512"
   y2="384"
   id="line28"
   style="fill:none;stroke:#a9ccdb;stroke-miterlimit:10" />
		<line
   stroke-miterlimit="10"
   x1="0"
   y1="416"
   x2="512"
   y2="416"
   id="line30"
   style="fill:none;stroke:#a9ccdb;stroke-miterlimit:10" />
		<line
   stroke-miterlimit="10"
   x1="0"
   y1="448"
   x2="512"
   y2="448"
   id="line32"
   style="fill:none;stroke:#ff0000;stroke-miterlimit:10" />
		<line
   stroke-miterlimit="10"
   x1="0"
   y1="480"
   x2="512"
   y2="480"
   id="line34"
   style="fill:none;stroke:#a9ccdb;stroke-miterlimit:10" />
		<line
   stroke-miterlimit="10"
   x1="32"
   y1="0"
   x2="32"
   y2="512"
   id="line36"
   style="fill:none;stroke:#a9ccdb;stroke-miterlimit:10" />
		<line
   stroke-miterlimit="10"
   x1="64"
   y1="0"
   x2="64"
   y2="512"
   id="line38"
   style="fill:none;stroke:#a9ccdb;stroke-miterlimit:10" />
		<line
   stroke-miterlimit="10"
   x1="96"
   y1="0"
   x2="96"
   y2="512"
   id="line40"
   style="fill:none;stroke:#a9ccdb;stroke-miterlimit:10" />
		<line
   stroke-miterlimit="10"
   x1="128"
   y1="0"
   x2="128"
   y2="512"
   id="line42"
   style="fill:none;stroke:#a9ccdb;stroke-miterlimit:10" />
		<line
   stroke-miterlimit="10"
   x1="160"
   y1="0"
   x2="160"
   y2="512"
   id="line44"
   style="fill:none;stroke:#a9ccdb;stroke-miterlimit:10" />
		<line
   stroke-miterlimit="10"
   x1="192"
   y1="0"
   x2="192"
   y2="512"
   id="line46"
   style="fill:none;stroke:#a9ccdb;stroke-miterlimit:10" />
		<line
   stroke-miterlimit="10"
   x1="224"
   y1="0"
   x2="224"
   y2="512"
   id="line48"
   style="fill:none;stroke:#a9ccdb;stroke-miterlimit:10" />
		<line
   stroke-miterlimit="10"
   x1="256"
   y1="0"
   x2="256"
   y2="512"
   id="line50"
   style="fill:none;stroke:#a9ccdb;stroke-miterlimit:10" />
		<line
   stroke-miterlimit="10"
   x1="288"
   y1="0"
   x2="288"
   y2="512"
   id="line52"
   style="fill:none;stroke:#a9ccdb;stroke-miterlimit:10" />
		<line
   stroke-miterlimit="10"
   x1="320"
   y1="0"
   x2="320"
   y2="512"
   id="line54"
   style="fill:none;stroke:#a9ccdb;stroke-miterlimit:10" />
		<line
   stroke-miterlimit="10"
   x1="352"
   y1="0"
   x2="352"
   y2="512"
   id="line56"
   style="fill:none;stroke:#a9ccdb;stroke-miterlimit:10" />
		<line
   stroke-miterlimit="10"
   x1="384"
   y1="0"
   x2="384"
   y2="512"
   id="line58"
   style="fill:none;stroke:#a9ccdb;stroke-miterlimit:10" />
		<line
   stroke-miterlimit="10"
   x1="416"
   y1="0"
   x2="416"
   y2="512"
   id="line60"
   style="fill:none;stroke:#a9ccdb;stroke-miterlimit:10" />
		<line
   stroke-miterlimit="10"
   x1="448"
   y1="0"
   x2="448"
   y2="512"
   id="line62"
   style="fill:none;stroke:#a9ccdb;stroke-miterlimit:10" />
		<line
   stroke-miterlimit="10"
   x1="480"
   y1="0"
   x2="480"
   y2="512"
   id="line64"
   style="fill:none;stroke:#a9ccdb;stroke-miterlimit:10" />
	</g>
	

	 
<path
   style="fill:#e8bcec;fill-opacity:0.57391304"
   d="m 631.28777,27.738813 c -1.68996,0.5039 -2.80898,1.9855 -3.81703,5.0537 -1.69726,5.16631 -0.58386,10.29726 3.23308,14.89984 3.78392,4.56272 11.3983,9.3952 27.39507,11.78495 7.58893,1.1337 15.27681,2.50232 17.08426,3.04138 6.47395,1.93086 7.63826,-1.50286 19.85208,11.28806 6.39042,6.69237 8.89619,13.24481 10.47329,19.42386 0.81171,9.361247 5.40844,20.461237 8.83106,24.200467 7.05074,7.70298 15.86807,2.16662 23.63903,11.95064 12.4836,17.07589 22.93865,25.14808 26.31977,34.8692 2.09819,6.03284 2.37543,8.56298 2.39376,21.85107 0.0207,15.01312 -0.66986,14.34178 2.67691,21.42644 3.03853,6.43324 3.87844,7.38243 9.04512,10.22179 5.58161,3.06733 1.10751,4.51712 14.16431,4.51712 12.79011,0 17.63526,0.58799 21.23399,-1.94244 5.08393,-2.83262 4.50656,-8.21366 5.25075,-12.5392 -0.005,-7.54539 0.44996,-17.08593 0.71621,-27.11771 0.29453,-11.09687 0.35764,-22.79482 -0.69036,-33.05824 -8.8392,-23.52921 -46.95669,-46.32514 -66.10123,-65.139627 -6.77583,-6.68611 -15.7026,-15.25953 -18.1419,-16.50901 -5.39583,-2.76388 -23.61314,-18.45143 -34.66272,-26.53258 -9.55318,-6.98671 -19.54527,-9.48791 -30.96927,-12.81111 -14.85282,-4.3206 -32.13799,-0.6043 -37.92618,1.1214 z m -85.44822,74.477047 c -1.56934,1.33384 -4.10276,5.88276 -6.24185,11.20782 -1.98022,4.92953 -4.84716,10.40343 -6.37086,12.16422 -3.63766,4.20372 -4.7347,7.90331 -5.76295,19.43465 -0.91225,10.23096 -0.37097,17.18816 1.80143,23.1521 1.22803,3.37161 1.18023,3.90706 -0.5187,5.8119 -1.02924,1.15398 -5.76168,4.13678 -10.51639,6.62845 -12.53691,6.56982 -15.94168,11.61659 -22.33146,33.10148 -2.12352,7.13992 -5.55549,16.75329 -7.62667,21.36304 -3.67482,8.17906 -3.77544,8.71389 -4.16859,22.1573 -0.35293,12.07225 -0.62564,13.89694 -2.20473,14.75441 -0.991,0.53816 -7.16819,2.06216 -13.727,3.38667 -13.14786,2.65511 -16.76995,4.38423 -16.76995,8.00569 0,1.30713 1.52567,6.38478 3.39028,11.28368 1.86471,4.8989 3.6693,11.13156 4.0104,13.85035 l 0.62003,4.94327 -7.55039,9 c -7.7923,9.28834 -13.25737,17.78187 -13.27353,20.62868 -0.0118,2.00149 2.87581,3.19097 14.1979,5.84925 14.45464,3.3938 17.34947,6.38506 21.26526,21.97386 2.59492,10.33075 3.37333,11.87504 6.61646,13.12609 8.22206,3.17178 17.61874,-8.13016 27.08607,-32.57788 2.97969,-7.69449 6.70388,-13.04621 11.08388,-15.92786 5.43249,-3.57406 10.62273,-4.88381 14.76017,-3.7247 3.56394,0.99847 7.4063,-0.63702 14.62958,-6.2271 3.99769,-3.09382 7.85445,-13.94739 8.21566,-23.12034 0.13,-3.3 0.54423,-8.98278 0.92053,-12.6284 l 0.68418,-6.62839 -4.91959,-2.71677 c -5.25914,-2.90428 0.0406,-12.67651 1.10229,-16.1334 2.30922,-5.66733 1.75812,-5.83674 4.18477,-9.51079 3.56672,-5.15842 6.08574,-10.9871 8.60813,-16.7228 3.36417,-7.64981 5.69401,-10.27932 11.56382,-15.78774 6.17966,-5.66463 8.09164,-9.93641 15.21607,4.62829 5.16195,10.55286 7.78387,14 10.64845,14 1.92631,0 9.97954,-3.84415 16.45851,-7.85637 5.1654,-3.19874 5.91345,-2.84459 5.91345,2.79967 0,5.95824 2.20355,8.0567 8.46028,8.0567 2.71457,0 6.9552,1.36739 12.67548,4.08725 9.19828,4.37351 17.93806,6.22045 27.15743,5.73901 6.11737,-0.31945 7.8846,0.41217 7.8846,3.26414 0,1.0848 0.6421,2.22238 1.42692,2.52795 1.93301,0.75261 12.84273,17.43171 20.12525,30.7682 17.2041,31.50545 20.54549,54.45261 9.4493,64.89222 -1.5037,1.41471 -8.76157,5.281 -16.12855,8.59176 -10.94383,9.01156 -23.26439,17.74319 -36.32456,26.37968 -9.97546,6.59661 -20.3824,13.1377 -30.93691,19.70563 -21.01837,13.07943 -42.62198,26.26524 -62.56865,40.20768 -13.23934,6.74948 -25.85439,19.61685 -38.07456,31.19901 -9.7364,9.22807 -19.22212,17.64027 -28.5732,21.49227 -5.0832,2.05436 -5.71604,2.6411 -6.38978,5.92438 -0.41128,2.0043 -15.14898,22.61648 -15.0591,25.89671 0.24147,8.81449 19.49978,6.07392 41.25113,5.22848 16.49064,4.9361 17.06762,-12.62115 21.50157,-15.03779 5.57735,-2.9724 15.97672,-10.19526 22.67593,-11.7578 23.30242,-5.43513 49.11629,-17.44282 61.47276,-23.26205 20.35962,-9.58829 28.44288,-9.04159 41.8865,-24.94015 7.59955,-9.52091 6.99424,-16.65721 12.57549,-16.22331 15.08669,1.81781 21.31671,2.8222 21.13527,3.4074 2.22284,8.61123 5.19078,16.70012 -0.80648,23.805 -6.57706,14.13298 -15.72502,28.40708 -25.78853,42.65968 -15.01123,21.25987 -30.09789,43.45276 -43.68938,64.07729 -9.90094,15.02427 -31.69926,48.37279 -35.80755,62.5649 -12.54821,14.3156 -13.51008,23.91845 -26.93085,30.70572 -13.25845,8.95 -16.55813,24.02847 -22.61298,38.76307 -6.66182,29.83093 -29.42609,40.88727 -42.46622,58.65611 -6.94703,9.04085 -28.37887,45.12511 -32.68945,42.25564 -3.32601,-11.60597 -1.06198,-91.64331 -2.51885,-91.36754 -17.50481,1.32013 -24.12488,5.71692 -34.35562,10.81028 -8.13515,4.05008 -20.71729,7.81928 -27.3465,16.0069 -7.1902,14.45082 -4.5587,31.04382 -4.43782,48.16128 -0.13633,20.16428 1.67959,35.02033 -3.3879,60.3658 -1.86453,9.32563 -24.659,18.19343 -24.71725,26.00841 -0.27877,12.80633 11.80962,7.60275 14.38498,19.83256 1.90671,9.05458 0.5203,17.43394 4.29081,25.57925 3.41601,7.19499 8.4627,20.01033 14.02714,21.97723 6.06855,1.96373 20.12435,2.99053 29.58619,-5.62188 6.05268,-5.55941 1.24305,-20.4225 5.42473,-31.29936 14.35799,-6.93312 28.29184,-17.34456 40.15608,-27.23726 9.8607,-8.22209 18.29177,-16.08585 24.34854,-21.29647 11.19492,-9.60582 15.63063,-12.10891 22.01158,-21.17307 9.27435,-13.17426 33.69529,-35.80069 43.0286,-45.29653 11.82475,-12.03069 24.43294,-15.41484 29.36059,-22.11054 8.05655,-10.94723 11.52797,-26.96486 13.29309,-33.53127 4.7487,-17.66562 0.66706,-18.21933 10.57378,-35.47792 10.3634,-16.32844 21.95737,-30.80895 33.06897,-45.51337 13.83013,-23.60064 25.92849,-45.13455 36.83932,-67.33898 11.61963,-26.27791 27.30433,-53.55693 37.86676,-77.18647 3.48286,-7.88111 13.44591,-15.3832 15.91417,-23.6543 3.3296,-11.34263 5.21655,-23.25211 10.32038,-34.79599 1.64365,-3.22503 5.73654,-6.36081 9.50913,-7.28542 3.26156,-0.79938 1.61813,-7.64557 5.6445,-15.71559 4.27266,-8.56384 6.79022,-20.57104 7.84547,-37.41783 2.79923,-44.69162 -7.68216,-98.19289 -27.32921,-139.5 -16.79026,-35.30063 -34.59891,-56.41067 -58.73013,-69.61737 -6.17788,-3.38106 -9.82303,-6.68212 -24.18395,-21.9011 -22.25192,-23.58132 -27.14619,-26.23172 -35.91248,-19.44751 -8.41337,6.51111 -22.75319,10.52405 -25.96429,7.26598 -0.65048,-0.66 -1.18269,-3.49046 -1.18269,-6.2899 0,-2.79945 -0.67857,-7.77195 -1.50793,-11.05 -1.86067,-7.3544 -9.02285,-22.26449 -13.99695,-29.13846 -3.29536,-4.5541 -4.28784,-5.25011 -8.80838,-6.17727 -2.80199,-0.57469 -6.57181,-0.80374 -8.37739,-0.509 -1.95626,0.31933 -7.3378,-0.50898 -13.31719,-2.04974 -12.23384,-3.152367 -13.88922,-3.184107 -17.24648,-0.33066 z m -271.78036,47.05695 c -8.40126,9.01479 -17.66235,20.06744 -26.28171,20.19096 -12.09981,4.36976 -20.85869,6.58546 -35.02455,10.41884 -22.81575,6.17408 -39.02239,6.01064 -51.28957,17.5485 -2.93689,11.78053 -9.57776,20.06553 -16.78045,27.83201 -5.25552,5.66691 -16.7279,18.31767 -22.63837,23.31159 -5.50331,4.64989 -10.99499,9.27579 -15.92466,14.37629 -18.200478,19.0037 -32.882964,41.8106 -35.859233,63.19616 -2.178885,17.24544 -0.3069,37.62037 0.527359,64.8985 15.122628,42.4116 8.442419,87.05372 11.626318,125.52983 15.105215,42.12519 8.696062,84.79525 13.163399,124.60937 4.931577,39.8202 10.815117,91.72631 18.018357,124.10739 12.28153,55.20981 11.97869,74.17218 49.11446,93.29497 -0.41677,3.21294 -0.96707,6.85487 -1.08407,11.51841 -0.17891,7.1312 0.19125,15.72304 -0.0363,21.54773 -0.11829,3.02843 1.29243,4.45598 0.61447,5.96404 -1.22805,2.19696 -8.76989,0.60452 -10.95372,2.01727 -7.61189,4.87771 -5.8266,5.09589 -5.19752,21.77125 1.0757,5.58102 4.8697,9.42002 9.91729,10.90527 3.09758,0.91146 7.36083,0.91621 11.06409,0.96715 3.78589,0.0521 5.45732,0.13677 9.16075,-0.16238 1.60459,-0.12819 6.24728,-0.0639 8.68792,-0.27356 2.65301,-0.22793 3.94888,-0.19646 4.92943,0.0392 -1.16544,7.17205 -3.39489,12.08167 -3.37587,18.73415 0.12203,3.43739 -0.12845,6.14999 0.27701,8.64975 0.70678,3.99024 4.20438,7.05821 6.92677,8.1583 8.8342,3.46526 26.44916,1.83239 31.71125,-0.48964 3.14289,-2.26342 4.11256,-4.54916 4.41397,-7.86485 0.22995,-3.38465 0.0484,-6.44387 -0.24236,-9.83365 -0.94706,-7.58513 -3.13713,-16.45074 -2.90968,-17.06133 2.08062,-0.69441 5.20564,-0.53184 6.49419,-0.51256 3.54233,0.0625 5.63207,-0.11824 8.83889,-0.10211 2.58422,0.013 6.3802,0.33624 8.50664,-0.38471 4.89117,-2.56605 10.02391,-4.25689 15.2709,-6.52261 9.24151,-4.06872 12.01503,-2.1637 12.21577,-12.57269 -0.11412,-8.68787 0.78718,-12.79198 -0.88368,-13.82207 -7.1442,-1.9164 -35.03667,3.04932 -36.4939,-1.55329 0.0601,-4.43878 -0.49328,-39.777 0.54884,-39.76141 28.81919,-22.73524 44.20772,-33.75472 62.14903,-63.28715 2.13386,-3.56714 16.61085,-23.80523 18.04276,-27.41385 -1.46063,-22.15013 25.00113,-77.41367 7.84647,-86.17523 -11.45688,-2.40848 -40.2193,30.34412 -52.06312,44.3648 -14.35538,20.33147 -15.87531,21.48692 -29.623,37.56899 -10.4073,9.80186 -19.33573,28.05061 -28.6807,34.39434 -5.23292,2.22759 -11.16494,1.49545 -21.41187,-0.36735 -6.35613,-8.81266 -8.82491,-11.64587 -14.54078,-22.97701 -9.70408,-19.2374 -15.49718,-50.16018 -17.81697,-67.20045 -2.71079,-24.39517 -3.73687,-38.6629 -5.5628,-60.57772 -1.74502,-20.94384 1.66447,-39.74365 -3.71035,-62.13933 -5.4512,-22.88922 -7.44112,-47.20337 -13.11264,-67.91853 -3.42284,-20.72033 -8.82381,-36.56882 2.63828,-53.02981 2.8392,3.11155 15.56889,3.6555 20.47586,1.67145 5.2817,-2.13558 2.74448,-6.88896 5.5631,-5.39478 7.83922,14.90875 1.49728,23.24892 12.8638,30.12514 7.29735,4.41456 13.25178,19.1994 21.57756,21.23099 12.17698,2.83047 30.2735,15.77716 38.23865,16.2889 21.43707,13.57894 34.18799,14.64452 38.63137,9.28158 4.70267,-5.67587 -5.78506,-12.66734 -19.24427,-25.53113 -5.35281,-4.87124 -17.75148,-13.3981 -25.60972,-19.09405 -6.83711,-4.95581 -7.32206,-32.31717 -10.76196,-39.82288 -2.46608,-5.60011 -5.22574,-18.08716 -8.36655,-21.75347 -7.04101,-8.21907 -10.11246,-5.65819 -21.97112,-3.92755 -7.17591,0.62252 -17.75391,2.79514 -20.9922,-0.30096 -10.64043,-9.25786 -9.49807,-19.90723 -17.9088,-31.20551 -6.68051,-8.94718 -3.19474,-30.33932 -6.05146,-35.62514 2.55524,-16.95674 -2.27875,-19.85183 2.20875,-33.99649 0.7064,-0.54501 9.07139,-12.56576 12.59482,-13.52588 13.18516,-3.5929 24.4177,-15.53019 27.29694,-21.64394 0.64755,-1.375 1.96388,-4.45067 2.92518,-6.83481 3.30086,-7.32436 1.34881,-7.63643 5.39776,-7.62403 7.28673,-0.60984 34.1912,1.20252 39.65353,-1.82949 1.3265,-2.33026 1.01587,-4.61523 1.05003,-7.64827 0.0607,-5.3917 -0.28707,-11.6492 0.91083,-14.04987 2.03724,-1.8069 3.15498,-2.72872 8.0628,-2.97947 3.11648,-0.15923 9.83071,-0.0479 12.63713,0.27928 2.93508,0.34215 25.10876,-1.84484 33.32177,-1.52794 5.75567,0.22208 -0.35376,10.51888 -0.0741,11.65545 0.3691,3.02307 -22.61058,4.74303 -22.52108,8.39136 0.18963,7.72951 -1.93119,11.0883 -1.84793,19.03048 0.0755,7.19885 0.53588,14.13412 -1.80872,20.16965 -7.06124,9.75877 -14.37498,15.85082 -22.16399,24.87666 -5.46323,8.97608 -16.94623,50.55433 -15.15372,56.93821 2.12737,11.02626 7.78522,17.7465 12.99624,21.78419 7.47166,3.78408 15.16431,5.95485 22.41336,6.57576 10.05343,0.86112 19.25367,-1.25872 25.82802,-6.19019 5.87882,-4.40976 8.0071,-13.40158 11.83313,-21.90219 1.6341,-3.64088 1.18749,-4.73174 -0.38977,-8.61342 -4.89222,-11.01198 -3.1696,-4.6237 -12.16264,-19.3981 -1.55691,-2.55781 3.8975,3.84983 11.88573,9.8275 3.46018,1.17399 12.27541,-3.57104 12.54523,-3.92069 5.7533,-7.42756 8.36767,-22.21485 8.5467,-27.12291 0.52163,-14.3 -1.3915,-28.43788 -0.86068,-33.11288 -0.0226,-5.20437 -0.10584,-14.44165 0.1489,-23.01797 0.27739,-9.33833 3.17463,-8.05933 11.63857,-8.05337 6.60813,0.66627 18.60707,-8.03923 18.19064,-16.24746 -0.58685,-10.20716 -0.13568,-21.0848 0.0186,-31.12056 -0.30088,-11.04255 -0.34303,-22.37998 -0.30193,-33.64936 0.0718,-19.69489 -5.03153,-43.05603 -5.38769,-60.39807 -4.11782,-16.39595 -23.42134,-14.8857 -39.27541,-9.47768 -7.2812,2.48371 -13.83482,5.78955 -17.85571,8.56052 -8.16107,5.65062 -16.16973,12.02087 -19.95233,15.94162 z m 134.8472,418.96871 -20.09296,0.52773 -3.63719,3.8167 -6.06466,1.73602 c -9.45119,2.70542 -3.92458,21.06014 -3.67332,30.83683 0.18599,7.23692 0.0665,24.11371 0.1725,31.35801 0.0332,1.28652 4.76419,5.17543 7.0862,7.04141 7.67378,2.25611 4.89466,1.11893 11.16926,1.11199 4.2532,-0.005 8.81962,-0.28678 14.55967,-0.51742 2.58009,-0.10164 11.20259,-0.16631 14.68962,-0.0174 l 6.61716,-14.31711 9.73807,-5.30083 1.2197,-32.48136 c -0.13172,-23.37209 3.54377,-19.57424 1.5461,-21.55032 l -2.10114,-2.07834 z"
   id="path4532"
   inkscape:connector-curvature="0"
   sodipodi:nodetypes="ccsssscsccscssccsccsssccssscssssscsscccscssssssscscsccscssssssssssscsscscssccssccccssccccccsccscsccccscssssccccccssssssssssssssccccscsscccccscsscccsscscccccccccscccccccccccccscscccscsccscscscccccsscccscssscssccccssccsccscscccscscccccssccccccccccc" />
	 
	 
</svg>