<?xml version="1.0" encoding="UTF-8" standalone="no"?>
<svg
   xmlns:dc="http://purl.org/dc/elements/1.1/"
   xmlns:cc="http://creativecommons.org/ns#"
   xmlns:rdf="http://www.w3.org/1999/02/22-rdf-syntax-ns#"
   xmlns:svg="http://www.w3.org/2000/svg"
   xmlns="http://www.w3.org/2000/svg"
   xmlns:sodipodi="http://sodipodi.sourceforge.net/DTD/sodipodi-0.dtd"
   xmlns:inkscape="http://www.inkscape.org/namespaces/inkscape"
   version="1.1"
   id="Layer_1"
   x="0px"
   y="0px"
   width="900"
   height="1024"
   viewBox="0 0 900 1024"
   enable-background="new 0 0 512 512"
   xml:space="preserve"
   inkscape:version="0.48.0 r9654"
   sodipodi:docname="uni2F65-x2f65.svg"><metadata
   id="metadata72"><rdf:RDF><cc:Work
       rdf:about=""><dc:format>image/svg+xml</dc:format><dc:type
         rdf:resource="http://purl.org/dc/dcmitype/StillImage" /></cc:Work></rdf:RDF></metadata><defs
   id="defs70" /><sodipodi:namedview
   pagecolor="#ffffff"
   bordercolor="#666666"
   borderopacity="1"
   objecttolerance="10"
   gridtolerance="10"
   guidetolerance="10"
   inkscape:pageopacity="0"
   inkscape:pageshadow="2"
   inkscape:window-width="1136"
   inkscape:window-height="799"
   id="namedview68"
   showgrid="false"
   inkscape:zoom="0.36045873"
   inkscape:cx="104.73923"
   inkscape:cy="585.59353"
   inkscape:window-x="0"
   inkscape:window-y="0"
   inkscape:window-maximized="0"
   inkscape:current-layer="Layer_1" />
	<g
   id="Grid"
   transform="matrix(2.0112737,0,0,1.9842343,0.50563683,7.5799384)">
		<rect
   x="0"
   stroke-miterlimit="10"
   width="512"
   height="512"
   id="rect4"
   y="0"
   style="fill:none;stroke:#a9ccdb;stroke-miterlimit:10" />
		<line
   stroke-miterlimit="10"
   x1="0"
   y1="32"
   x2="512"
   y2="32"
   id="line6"
   style="fill:none;stroke:#a9ccdb;stroke-miterlimit:10" />
		<line
   stroke-miterlimit="10"
   x1="0"
   y1="64"
   x2="512"
   y2="64"
   id="line8"
   style="fill:none;stroke:#a9ccdb;stroke-miterlimit:10" />
		<line
   stroke-miterlimit="10"
   x1="0"
   y1="96"
   x2="512"
   y2="96"
   id="line10"
   style="fill:none;stroke:#a9ccdb;stroke-miterlimit:10" />
		<line
   stroke-miterlimit="10"
   x1="0"
   y1="128"
   x2="512"
   y2="128"
   id="line12"
   style="fill:none;stroke:#a9ccdb;stroke-miterlimit:10" />
		<line
   stroke-miterlimit="10"
   x1="0"
   y1="160"
   x2="512"
   y2="160"
   id="line14"
   style="fill:none;stroke:#a9ccdb;stroke-miterlimit:10" />
		<line
   stroke-miterlimit="10"
   x1="0"
   y1="192"
   x2="512"
   y2="192"
   id="line16"
   style="fill:none;stroke:#a9ccdb;stroke-miterlimit:10" />
		<line
   stroke-miterlimit="10"
   x1="0"
   y1="224"
   x2="512"
   y2="224"
   id="line18"
   style="fill:none;stroke:#a9ccdb;stroke-miterlimit:10" />
		<line
   stroke-miterlimit="10"
   x1="0"
   y1="256"
   x2="512"
   y2="256"
   id="line20"
   style="fill:none;stroke:#a9ccdb;stroke-miterlimit:10" />
		<line
   stroke-miterlimit="10"
   x1="0"
   y1="288"
   x2="512"
   y2="288"
   id="line22"
   style="fill:none;stroke:#a9ccdb;stroke-miterlimit:10" />
		<line
   stroke-miterlimit="10"
   x1="0"
   y1="320"
   x2="512"
   y2="320"
   id="line24"
   style="fill:none;stroke:#a9ccdb;stroke-miterlimit:10" />
		<line
   stroke-miterlimit="10"
   x1="0"
   y1="352"
   x2="512"
   y2="352"
   id="line26"
   style="fill:none;stroke:#a9ccdb;stroke-miterlimit:10" />
		<line
   stroke-miterlimit="10"
   x1="0"
   y1="384"
   x2="512"
   y2="384"
   id="line28"
   style="fill:none;stroke:#a9ccdb;stroke-miterlimit:10" />
		<line
   stroke-miterlimit="10"
   x1="0"
   y1="416"
   x2="512"
   y2="416"
   id="line30"
   style="fill:none;stroke:#a9ccdb;stroke-miterlimit:10" />
		<line
   stroke-miterlimit="10"
   x1="0"
   y1="448"
   x2="512"
   y2="448"
   id="line32"
   style="fill:none;stroke:#ff0000;stroke-miterlimit:10" />
		<line
   stroke-miterlimit="10"
   x1="0"
   y1="480"
   x2="512"
   y2="480"
   id="line34"
   style="fill:none;stroke:#a9ccdb;stroke-miterlimit:10" />
		<line
   stroke-miterlimit="10"
   x1="32"
   y1="0"
   x2="32"
   y2="512"
   id="line36"
   style="fill:none;stroke:#a9ccdb;stroke-miterlimit:10" />
		<line
   stroke-miterlimit="10"
   x1="64"
   y1="0"
   x2="64"
   y2="512"
   id="line38"
   style="fill:none;stroke:#a9ccdb;stroke-miterlimit:10" />
		<line
   stroke-miterlimit="10"
   x1="96"
   y1="0"
   x2="96"
   y2="512"
   id="line40"
   style="fill:none;stroke:#a9ccdb;stroke-miterlimit:10" />
		<line
   stroke-miterlimit="10"
   x1="128"
   y1="0"
   x2="128"
   y2="512"
   id="line42"
   style="fill:none;stroke:#a9ccdb;stroke-miterlimit:10" />
		<line
   stroke-miterlimit="10"
   x1="160"
   y1="0"
   x2="160"
   y2="512"
   id="line44"
   style="fill:none;stroke:#a9ccdb;stroke-miterlimit:10" />
		<line
   stroke-miterlimit="10"
   x1="192"
   y1="0"
   x2="192"
   y2="512"
   id="line46"
   style="fill:none;stroke:#a9ccdb;stroke-miterlimit:10" />
		<line
   stroke-miterlimit="10"
   x1="224"
   y1="0"
   x2="224"
   y2="512"
   id="line48"
   style="fill:none;stroke:#a9ccdb;stroke-miterlimit:10" />
		<line
   stroke-miterlimit="10"
   x1="256"
   y1="0"
   x2="256"
   y2="512"
   id="line50"
   style="fill:none;stroke:#a9ccdb;stroke-miterlimit:10" />
		<line
   stroke-miterlimit="10"
   x1="288"
   y1="0"
   x2="288"
   y2="512"
   id="line52"
   style="fill:none;stroke:#a9ccdb;stroke-miterlimit:10" />
		<line
   stroke-miterlimit="10"
   x1="320"
   y1="0"
   x2="320"
   y2="512"
   id="line54"
   style="fill:none;stroke:#a9ccdb;stroke-miterlimit:10" />
		<line
   stroke-miterlimit="10"
   x1="352"
   y1="0"
   x2="352"
   y2="512"
   id="line56"
   style="fill:none;stroke:#a9ccdb;stroke-miterlimit:10" />
		<line
   stroke-miterlimit="10"
   x1="384"
   y1="0"
   x2="384"
   y2="512"
   id="line58"
   style="fill:none;stroke:#a9ccdb;stroke-miterlimit:10" />
		<line
   stroke-miterlimit="10"
   x1="416"
   y1="0"
   x2="416"
   y2="512"
   id="line60"
   style="fill:none;stroke:#a9ccdb;stroke-miterlimit:10" />
		<line
   stroke-miterlimit="10"
   x1="448"
   y1="0"
   x2="448"
   y2="512"
   id="line62"
   style="fill:none;stroke:#a9ccdb;stroke-miterlimit:10" />
		<line
   stroke-miterlimit="10"
   x1="480"
   y1="0"
   x2="480"
   y2="512"
   id="line64"
   style="fill:none;stroke:#a9ccdb;stroke-miterlimit:10" />
	</g>
	
<path
   style="fill:#261f13"
   d="m 293.28938,63.999041 c -2.91416,1.43075 -10.17215,9.60961 -16.1289,18.17526 -16.07047,23.108939 -64.63318,87.543529 -104.79213,139.041689 -32.24528,41.34996 -39.34769,42.33714 -41.2033,53.7758 -2.53892,15.65098 -42.845977,161.2276 -46.119787,165.37526 -2.60861,3.3049 -4.03492,29.55498 3.15416,126.96941 19.189477,260.02417 24.116307,318.44613 27.290787,323.61286 6.02258,9.80224 17.54271,10.7493 26.93072,4.43038 10.11135,-3.59344 10.80208,-17.07032 16.89708,-22.75962 2.42763,-0.11119 1.75969,-10.70116 -6.8706,-108.93186 -2.0005,-22.76972 -4.23061,-48.58524 -4.95583,-57.36784 l -1.31855,-15.96836 c 11.26753,-0.44288 23.13946,-1.8671 34.58939,-2.84013 6.00734,-0.51052 13.15261,-0.89682 18.77938,-0.95205 10.98959,1.76657 24.00916,0.0121 36.60638,-0.4668 20.13326,-0.76562 37.90576,-0.35295 57.64062,-1.20006 16.15553,-0.69348 33.90935,-1.23484 46.42068,2.25615 4.43036,2.87271 2.59711,12.43265 2.63651,17.85403 0.0186,6.75412 0.82748,34.67333 3.32867,64.59922 2.50118,29.9259 3.40792,66.27789 4.18261,83.19254 1.88803,41.22339 5.00473,48.49651 20.78177,48.49651 9.33846,0 15.96095,-2.71328 19.95754,-12.88679 4.93172,-36.36786 5.08256,-47.67407 4.69236,-71.19986 -0.38189,-7.93809 -0.10253,-15.08254 -0.79627,-23.24919 -1.85945,-21.89103 -0.79148,-45.02791 -1.20689,-64.42933 -0.0909,-6.53777 -3.9073,-38.79385 -1.88724,-42.48721 1.18461,-1.75195 30.12298,-0.23341 104.69509,0.48892 l 102.10189,0.0545 0,11.21444 c 1.15852,9.45588 1.27393,19.51888 1.10485,29.67703 -0.37623,22.60248 -2.1609,45.67604 3.00296,63.5807 18.01781,31.04424 53.67787,60.37908 75.96187,89.89775 12.51308,16.8061 28.36166,18.96234 35.53451,4.83459 4.9009,-9.6529 4.40871,-17.07331 -1.69974,-25.62637 -2.87428,-4.02456 -8.66511,-12.15442 -12.86851,-18.06637 -4.20343,-5.91197 -15.56556,-17.23446 -29.7993,-34.04509 l -24.85484,-20.85354 -1.15326,-29.51533 0,-36.33303 0,-36.33302 8.20387,0 c 16.76424,0 37.82621,-6.99967 37.82621,-19.3337 0,-7.68284 -11.22684,-23.65642 -17.58488,-26.11852 -3.09676,-1.19921 -11.66763,-2.92904 -18.97759,-2.18039 l -10.21193,1.04586 c -1.40213,-11.60086 0.34403,-27.91533 -0.44271,-38.90627 -1.61883,-22.68443 -0.085,-43.15202 -0.39954,-65.47042 l -9.20712,-30.40496 35.37985,-83.30948 c 19.4589,-45.82022 35.37982,-84.98582 35.37982,-87.03469 0,-2.04884 2.19267,-6.74587 4.87259,-10.43784 2.67994,-3.69195 5.15191,-10.83462 5.49329,-15.87256 0.34139,-5.03795 2.32948,-13.11782 4.41801,-17.95526 4.92585,-11.40925 4.78756,-16.42302 -0.71607,-25.96328 -2.48238,-4.30304 -13.88048,-28.58257 -25.32913,-53.95453 C 641.63037,97.097997 639.96765,94.199677 626.12843,94.199677 c -7.18867,0 -17.46699,9.631483 -17.46699,16.367723 0,2.61489 12.54354,33.97743 27.87452,69.69446 16.13021,37.57908 29.05289,61.58955 28.2355,63.75915 -3.57108,-0.10375 -8.21882,1.12578 -12.02998,1.46123 -7.43642,0.65439 -7.08297,0.67231 -13.86373,0.12767 -35.60419,-3.53303 -85.61621,0.90904 -113.7148,0.30091 -61.89236,-1.55605 -112.896,-3.20037 -113.34139,-3.65401 -0.44539,-0.45365 8.7388,-24.63718 20.4093,-53.74122 37.7595,-94.165003 37.2581,-92.119983 25.13404,-102.510709 -8.8551,-7.58917 -17.23159,-7.18401 -23.29421,1.126676 -2.38452,3.26868 -16.76619,37.619383 -31.95928,76.334903 -18.58278,47.35328 -29.40188,71.90464 -33.05659,75.0141 -5.16455,4.39399 -8.35775,4.5629 -64.66038,3.42047 -64.7369,-1.31357 -92.91272,-2.94255 -92.89355,-5.37069 0.009,-1.3227 75.49442,-105.57179 84.21559,-116.30809 1.58536,-1.95168 6.88847,-9.13746 11.78465,-15.96838 4.8962,-6.830903 9.85835,-12.419823 11.02702,-12.419823 1.16866,0 2.12483,-5.715766 2.12483,-12.701726 0,-12.48819 -0.12675,-12.72345 -7.54862,-13.99285 -4.15173,-0.71011 -9.1164,-1.84251 -11.03259,-2.51643 -1.91618,-0.67389 -5.86825,-0.0547 -8.78239,1.37601 z M 281.0365,278.74856 c 42.7225,1.26995 78.3787,3.1144 79.23596,4.09884 1.11029,1.27499 -5.63202,148.84033 -9.32357,202.17213 -0.11753,1.69834 -163.25319,-5.15518 -194.82785,-3.93524 l -16.77281,0.64805 -5.10423,-27.82318 c -1.38056,-12.93213 -1.27102,-12.44506 15.13129,-68.58617 9.78472,-33.49082 18.56546,-68.14743 22.5783,-82.12779 l 7.29607,-25.41883 13.93589,0.0287 c 7.66474,0.0161 45.12844,-0.32658 87.85095,0.94334 z m 266.07474,6.89942 c 23.18392,-1.10105 44.3015,-2.32772 66.67858,-0.80593 8.60099,0.60751 18.74344,0.08 26.6598,0.0121 6.98868,-0.0486 7.22496,-1.31516 14.11375,-1.58945 9.21623,-0.36693 16.21996,-2.49069 20.32075,1.42249 4.4442,4.52656 4.533,3.88732 -28.58572,85.1145 -22.83475,56.00461 -29.02538,70.50787 -42.82286,100.32401 l -7.01504,15.15945 -67.16631,0.41533 c -36.46129,0.22547 -96.92399,0.53499 -116.62003,0.53499 l -19.98273,-0.98605 1.19494,-52.1657 c 0.61865,-27.00749 1.88579,-53.87845 2.22672,-59.73351 0.34093,-5.85507 1.43826,-28.59932 2.43851,-50.5428 l 1.81865,-39.89718 69.88652,1.83165 c 38.43758,1.0074 73.0221,1.41507 76.85447,0.90592 z m -201.52768,249.40982 -1.6132,24.5923 c -0.95955,14.62772 -2.39716,33.73847 -2.40299,49.67727 l -0.0109,28.97962 -29.61377,-0.004 c -16.28756,-0.002 -61.60766,-0.70317 -100.71128,-1.55752 l -71.09755,-1.55338 -3.89034,-43.9819 c -0.57469,-10.92192 -2.41817,-24.88623 -3.10177,-35.50298 -0.51004,-7.92118 -0.37442,-13.97888 1.41553,-15.51917 7.41644,-6.05198 34.11319,-6.85999 45.81091,-4.65893 23.88996,-0.20776 70.10905,-2.77909 56.08736,-2.04675 19.97305,1.05554 43.55171,2.40275 62.13181,1.59012 7.78034,-0.3869 15.64885,-0.76391 23.84689,-0.64448 12.65851,0.0848 19.02285,1.4899 23.14925,0.62982 z m 235.36116,-0.98705 c 13.62715,0.84922 12.47129,0.41493 12.75918,0.73926 1.43331,25.81424 1.84164,40.62343 2.6481,65.11595 l 1.26378,38.38101 -109.35112,0 -96.93633,0 -0.50481,-27.00962 c -0.2375,-12.70692 -0.41369,-31.49926 -0.74094,-49.08584 l 0.39091,-26.64762 19.29908,-2.28538 c 40.36881,1.18972 93.49543,-1.01494 118.56356,0.85588 14.40846,0.2853 40.10667,-0.99311 52.60859,-0.0635 z"
   id="path3790"
   inkscape:connector-curvature="0"
   sodipodi:nodetypes="sssssssccsscscssccsssccsccsccsccssssccccssssccccsssssssssscscccsssssscssssssscccsccssccccccscscscssccsscscccscccsccsccccccccccccssccccc" />
	 
</svg>