<?xml version="1.0" encoding="UTF-8" standalone="no"?>
<svg
   xmlns:dc="http://purl.org/dc/elements/1.1/"
   xmlns:cc="http://creativecommons.org/ns#"
   xmlns:rdf="http://www.w3.org/1999/02/22-rdf-syntax-ns#"
   xmlns:svg="http://www.w3.org/2000/svg"
   xmlns="http://www.w3.org/2000/svg"
   xmlns:sodipodi="http://sodipodi.sourceforge.net/DTD/sodipodi-0.dtd"
   xmlns:inkscape="http://www.inkscape.org/namespaces/inkscape"
   version="1.1"
   id="Layer_1"
   x="0px"
   y="0px"
   width="512"
   height="1024"
   viewBox="0 0 512 1024"
   enable-background="new 0 0 512 512"
   xml:space="preserve"
   inkscape:version="0.48.0 r9654"
   sodipodi:docname="uni2F77-x2f77.svg"><metadata
   id="metadata72"><rdf:RDF><cc:Work
       rdf:about=""><dc:format>image/svg+xml</dc:format><dc:type
         rdf:resource="http://purl.org/dc/dcmitype/StillImage" /><dc:title /></cc:Work></rdf:RDF></metadata><defs
   id="defs70" /><sodipodi:namedview
   pagecolor="#ffffff"
   bordercolor="#666666"
   borderopacity="1"
   objecttolerance="10"
   gridtolerance="10"
   guidetolerance="10"
   inkscape:pageopacity="0"
   inkscape:pageshadow="2"
   inkscape:window-width="1037"
   inkscape:window-height="798"
   id="namedview68"
   showgrid="false"
   inkscape:zoom="0.50976562"
   inkscape:cx="385.68214"
   inkscape:cy="557.14407"
   inkscape:window-x="0"
   inkscape:window-y="0"
   inkscape:window-maximized="0"
   inkscape:current-layer="Layer_1" />
	
	
<g
   id="g3815"
   transform="matrix(1.0138537,0,0,1.0250058,7.1697344,-0.90766188)"><g
   transform="matrix(1.951787,0,0,1.9463791,0.47589348,0.47318954)"
   id="Grid-9">
		<rect
   style="fill:none;stroke:#a9ccdb;stroke-miterlimit:10"
   y="0"
   id="rect4-4"
   height="512"
   width="512"
   stroke-miterlimit="10"
   x="0" />
		<line
   style="fill:none;stroke:#a9ccdb;stroke-miterlimit:10"
   id="line6-8"
   y2="32"
   x2="512"
   y1="32"
   x1="0"
   stroke-miterlimit="10" />
		<line
   style="fill:none;stroke:#a9ccdb;stroke-miterlimit:10"
   id="line8-8"
   y2="64"
   x2="512"
   y1="64"
   x1="0"
   stroke-miterlimit="10" />
		<line
   style="fill:none;stroke:#a9ccdb;stroke-miterlimit:10"
   id="line10-2"
   y2="96"
   x2="512"
   y1="96"
   x1="0"
   stroke-miterlimit="10" />
		<line
   style="fill:none;stroke:#a9ccdb;stroke-miterlimit:10"
   id="line12-4"
   y2="128"
   x2="512"
   y1="128"
   x1="0"
   stroke-miterlimit="10" />
		<line
   style="fill:none;stroke:#a9ccdb;stroke-miterlimit:10"
   id="line14-5"
   y2="160"
   x2="512"
   y1="160"
   x1="0"
   stroke-miterlimit="10" />
		<line
   style="fill:none;stroke:#a9ccdb;stroke-miterlimit:10"
   id="line16-5"
   y2="192"
   x2="512"
   y1="192"
   x1="0"
   stroke-miterlimit="10" />
		<line
   style="fill:none;stroke:#a9ccdb;stroke-miterlimit:10"
   id="line18-1"
   y2="224"
   x2="512"
   y1="224"
   x1="0"
   stroke-miterlimit="10" />
		<line
   style="fill:none;stroke:#a9ccdb;stroke-miterlimit:10"
   id="line20-7"
   y2="256"
   x2="512"
   y1="256"
   x1="0"
   stroke-miterlimit="10" />
		<line
   style="fill:none;stroke:#a9ccdb;stroke-miterlimit:10"
   id="line22-1"
   y2="288"
   x2="512"
   y1="288"
   x1="0"
   stroke-miterlimit="10" />
		<line
   style="fill:none;stroke:#a9ccdb;stroke-miterlimit:10"
   id="line24-1"
   y2="320"
   x2="512"
   y1="320"
   x1="0"
   stroke-miterlimit="10" />
		<line
   style="fill:none;stroke:#a9ccdb;stroke-miterlimit:10"
   id="line26-5"
   y2="352"
   x2="512"
   y1="352"
   x1="0"
   stroke-miterlimit="10" />
		<line
   style="fill:none;stroke:#a9ccdb;stroke-miterlimit:10"
   id="line28-2"
   y2="384"
   x2="512"
   y1="384"
   x1="0"
   stroke-miterlimit="10" />
		<line
   style="fill:none;stroke:#a9ccdb;stroke-miterlimit:10"
   id="line30-7"
   y2="416"
   x2="512"
   y1="416"
   x1="0"
   stroke-miterlimit="10" />
		<line
   style="fill:none;stroke:#ff0000;stroke-miterlimit:10"
   id="line32-6"
   y2="448"
   x2="512"
   y1="448"
   x1="0"
   stroke-miterlimit="10" />
		<line
   style="fill:none;stroke:#a9ccdb;stroke-miterlimit:10"
   id="line34-1"
   y2="480"
   x2="512"
   y1="480"
   x1="0"
   stroke-miterlimit="10" />
		<line
   style="fill:none;stroke:#a9ccdb;stroke-miterlimit:10"
   id="line36-4"
   y2="512"
   x2="32"
   y1="0"
   x1="32"
   stroke-miterlimit="10" />
		<line
   style="fill:none;stroke:#a9ccdb;stroke-miterlimit:10"
   id="line38-2"
   y2="512"
   x2="64"
   y1="0"
   x1="64"
   stroke-miterlimit="10" />
		<line
   style="fill:none;stroke:#a9ccdb;stroke-miterlimit:10"
   id="line40-3"
   y2="512"
   x2="96"
   y1="0"
   x1="96"
   stroke-miterlimit="10" />
		<line
   style="fill:none;stroke:#a9ccdb;stroke-miterlimit:10"
   id="line42-2"
   y2="512"
   x2="128"
   y1="0"
   x1="128"
   stroke-miterlimit="10" />
		<line
   style="fill:none;stroke:#a9ccdb;stroke-miterlimit:10"
   id="line44-2"
   y2="512"
   x2="160"
   y1="0"
   x1="160"
   stroke-miterlimit="10" />
		<line
   style="fill:none;stroke:#a9ccdb;stroke-miterlimit:10"
   id="line46-1"
   y2="512"
   x2="192"
   y1="0"
   x1="192"
   stroke-miterlimit="10" />
		<line
   style="fill:none;stroke:#a9ccdb;stroke-miterlimit:10"
   id="line48-6"
   y2="512"
   x2="224"
   y1="0"
   x1="224"
   stroke-miterlimit="10" />
		<line
   style="fill:none;stroke:#a9ccdb;stroke-miterlimit:10"
   id="line50-8"
   y2="512"
   x2="256"
   y1="0"
   x1="256"
   stroke-miterlimit="10" />
		<line
   style="fill:none;stroke:#a9ccdb;stroke-miterlimit:10"
   id="line52-5"
   y2="512"
   x2="288"
   y1="0"
   x1="288"
   stroke-miterlimit="10" />
		<line
   style="fill:none;stroke:#a9ccdb;stroke-miterlimit:10"
   id="line54-7"
   y2="512"
   x2="320"
   y1="0"
   x1="320"
   stroke-miterlimit="10" />
		<line
   style="fill:none;stroke:#a9ccdb;stroke-miterlimit:10"
   id="line56-6"
   y2="512"
   x2="352"
   y1="0"
   x1="352"
   stroke-miterlimit="10" />
		<line
   style="fill:none;stroke:#a9ccdb;stroke-miterlimit:10"
   id="line58-1"
   y2="512"
   x2="384"
   y1="0"
   x1="384"
   stroke-miterlimit="10" />
		<line
   style="fill:none;stroke:#a9ccdb;stroke-miterlimit:10"
   id="line60-8"
   y2="512"
   x2="416"
   y1="0"
   x1="416"
   stroke-miterlimit="10" />
		<line
   style="fill:none;stroke:#a9ccdb;stroke-miterlimit:10"
   id="line62-9"
   y2="512"
   x2="448"
   y1="0"
   x1="448"
   stroke-miterlimit="10" />
		<line
   style="fill:none;stroke:#a9ccdb;stroke-miterlimit:10"
   id="line64-2"
   y2="512"
   x2="480"
   y1="0"
   x1="480"
   stroke-miterlimit="10" />
	</g><g
   id="g3867"
   transform="translate(119.9626,-5.741487)" />
	</g> 
	 
	 <path
   style="fill:#5d5d5d"
   d="m 261.62432,908.04292 c -6.77427,-2.39601 -21.81811,-9.37222 -31.2412,-14.48733 -4.358,-2.36565 -13.27804,-6.71082 -19.82231,-9.65595 -15.42118,-6.94002 -23.60706,-12.31238 -34.79397,-22.83513 -25.95143,-24.41071 -42.1146,-55.38886 -48.81757,-93.56324 -4.32474,-24.62998 -0.34414,-56.21293 10.44568,-82.87832 8.30542,-20.52558 23.07762,-42.59774 38.01824,-56.80565 l 4.81312,-4.57706 -6.06925,-6.33341 c -12.695,-13.24752 -21.87772,-26.3521 -29.66351,-42.33253 -11.90244,-24.4299 -17.40391,-48.02243 -17.42309,-74.71723 -0.0314,-43.71062 16.86732,-81.89229 48.64442,-109.90932 21.53389,-18.98584 26.63782,-24.50033 34.8831,-37.68892 2.54026,-4.06323 3.37677,-6.82317 4.45708,-14.70541 1.42672,-10.40985 1.77181,-24.28044 0.77989,-31.3472 -0.59752,-4.25701 -2.32614,-6.09398 -75.30271,-80.02333 -59.392834,-60.16826 -74.441094,-75.90334 -73.470307,-76.82356 0.671463,-0.63648 11.713749,-9.52332 24.538414,-19.74853 19.853233,-15.82914 23.678443,-18.50922 25.746493,-18.0389 6.89807,1.56879 20.10663,11.82006 48.0274,37.27446 26.70284,24.34406 47.14174,42.61401 51.31517,45.86969 3.13545,2.44596 3.64755,2.59961 3.67338,1.10218 0.0165,-0.95701 0.52471,-4.942 1.12935,-8.85554 0.72462,-4.68994 1.12838,-28.13717 1.18447,-68.78338 0.0794,-57.525518 0.20666,-62.018366 1.89489,-66.885909 2.44609,-7.052597 7.76412,-14.643462 12.10601,-17.27991 3.36358,-2.042405 4.55776,-2.169184 20.43227,-2.169184 l 16.85989,0 5.00102,5.245374 c 2.75056,2.884956 6.74823,8.606771 8.88371,12.715144 l 3.88269,7.46977 -0.2919,17.644417 c -0.16054,9.704429 -0.94386,29.385038 -1.74073,43.734668 -2.284,41.12966 -2.81314,74.13861 -1.21932,76.06316 1.19304,1.44059 2.84172,0.62728 17.8312,-8.79618 17.79908,-11.18979 60.81698,-37.10184 71.89585,-43.30682 10.82978,-6.06549 21.89141,-11.25434 27.95589,-13.11372 4.87743,-1.49542 5.78461,-1.54159 6.94794,-0.35361 2.95684,3.01945 34.62191,55.28767 33.89121,55.94281 -0.432,0.38733 -36.85483,25.13106 -80.93961,54.98606 -44.08479,29.855 -80.4549,54.55988 -80.82248,54.89972 -1.26494,1.16951 -3.70373,23.32519 -3.70373,33.64732 0,14.85459 2.80042,23.95562 11.00158,35.75396 1.63221,2.34812 11.51979,12.81093 21.97242,23.25069 20.52981,20.50455 27.3528,28.24773 37.19572,42.21211 15.75802,22.35627 21.19786,40.30393 21.27926,70.20648 0.0425,15.61465 -1.73162,28.56125 -6.00662,43.83323 -7.84881,28.03904 -23.98704,56.23819 -43.37021,75.78291 l -5.24965,5.29342 7.43183,7.98889 c 21.93323,23.57725 38.34036,57.74475 43.69951,91.00332 2.01726,12.51902 2.04123,35.08686 0.0509,47.91118 -4.55649,29.35857 -20.3492,53.36566 -60.55798,92.05655 -7.61464,7.3272 -13.84481,14.0475 -13.84481,14.93401 0,0.88652 2.18602,5.68025 4.85783,10.65274 2.6718,4.97248 4.85783,9.91196 4.85783,10.97662 0,1.44395 -1.41929,2.5495 -5.58651,4.35163 -11.81008,5.10731 -28.31056,6.51539 -37.64816,3.21276 z m -6.28164,-77.46028 c 2.88422,-0.8364 8.75654,-3.4638 13.04959,-5.83867 20.89312,-11.55788 34.70187,-25.36418 43.48683,-43.47914 l 3.18133,-6.56001 -0.0406,-18.50036 c -0.0297,-13.51986 -0.48323,-20.61411 -1.68465,-26.352 -6.01659,-28.7346 -20.22719,-49.56876 -41.85017,-61.35653 -7.26994,-3.9632 -22.51709,-9.06257 -27.09715,-9.06257 -9.53381,0 -26.20107,9.11999 -42.6106,23.31567 -8.18084,7.07714 -14.45882,18.41561 -19.65928,35.50598 -4.08279,13.41738 -4.9254,18.88223 -4.97363,32.25703 -0.0415,11.50756 0.2328,13.66537 2.70171,21.25301 9.91177,30.46167 27.1307,50.82979 49.17468,58.16829 7.75198,2.58065 18.72824,2.85141 26.32198,0.6493 z m 15.51151,-250.05827 c 9.03612,-4.3246 11.25697,-5.9217 19.4417,-13.98124 7.70396,-7.58613 10.0723,-10.6763 14.24471,-18.58628 9.49918,-18.00841 12.46296,-31.5454 12.46296,-56.92418 l 0,-18.02599 -4.26661,-8.25932 c -8.19608,-15.86601 -19.72497,-27.74698 -37.42927,-38.57231 -10.84868,-6.63346 -18.6002,-9.61887 -26.61256,-10.24952 -29.02127,-2.28429 -58.534,25.99251 -68.19341,65.33761 -4.55076,18.53633 -0.37065,44.39437 10.84995,67.11748 3.92368,7.94593 6.07807,11.01985 10.86532,15.50282 12.66177,11.85698 29.24515,21.92823 39.49025,23.98281 7.01353,1.40652 15.14972,-0.64292 29.14696,-7.34188 z"
   id="path3871"
   inkscape:connector-curvature="0" />
	   
	   
	   
</svg>