<?xml version="1.0" encoding="UTF-8" standalone="no"?>
<svg
   xmlns:dc="http://purl.org/dc/elements/1.1/"
   xmlns:cc="http://creativecommons.org/ns#"
   xmlns:rdf="http://www.w3.org/1999/02/22-rdf-syntax-ns#"
   xmlns:svg="http://www.w3.org/2000/svg"
   xmlns="http://www.w3.org/2000/svg"
   xmlns:sodipodi="http://sodipodi.sourceforge.net/DTD/sodipodi-0.dtd"
   xmlns:inkscape="http://www.inkscape.org/namespaces/inkscape"
   version="1.1"
   id="Layer_1"
   x="0px"
   y="0px"
   width="640"
   height="1024"
   viewBox="0 0 640 1024"
   enable-background="new 0 0 512 512"
   xml:space="preserve"
   inkscape:version="0.48.0 r9654"
   sodipodi:docname="uni2F79-x2f79.svg"><metadata
   id="metadata72"><rdf:RDF><cc:Work
       rdf:about=""><dc:format>image/svg+xml</dc:format><dc:type
         rdf:resource="http://purl.org/dc/dcmitype/StillImage" /><dc:title /></cc:Work></rdf:RDF></metadata><defs
   id="defs70" /><sodipodi:namedview
   pagecolor="#ffffff"
   bordercolor="#666666"
   borderopacity="1"
   objecttolerance="10"
   gridtolerance="10"
   guidetolerance="10"
   inkscape:pageopacity="0"
   inkscape:pageshadow="2"
   inkscape:window-width="1152"
   inkscape:window-height="814"
   id="namedview68"
   showgrid="false"
   inkscape:zoom="0.72091746"
   inkscape:cx="-71.83822"
   inkscape:cy="512.34014"
   inkscape:window-x="-8"
   inkscape:window-y="-8"
   inkscape:window-maximized="1"
   inkscape:current-layer="Layer_1" />
	
	
<g
   id="g3815"
   transform="translate(-3.1332874,-2.4397167)"><g
     transform="matrix(2.0026184,0,0,1.9922664,-3.4220811,6.3812032)"
     id="Grid-9">
		<rect
   style="fill:none;stroke:#a9ccdb;stroke-width:0.99826443;stroke-miterlimit:10"
   y="0"
   id="rect4-4"
   height="512"
   width="510.22433"
   stroke-miterlimit="10"
   x="5.0425248" />
		<line
   style="fill:none;stroke:#a9ccdb;stroke-width:0.99826443;stroke-miterlimit:10"
   id="line6-8"
   y2="32"
   x2="515.26685"
   y1="32"
   x1="5.0425248"
   stroke-miterlimit="10" />
		<line
   style="fill:none;stroke:#a9ccdb;stroke-width:0.99826443;stroke-miterlimit:10"
   id="line8-8"
   y2="64"
   x2="515.26685"
   y1="64"
   x1="5.0425248"
   stroke-miterlimit="10" />
		<line
   style="fill:none;stroke:#a9ccdb;stroke-width:0.99826443;stroke-miterlimit:10"
   id="line10-2"
   y2="96"
   x2="515.26685"
   y1="96"
   x1="5.0425248"
   stroke-miterlimit="10" />
		<line
   style="fill:none;stroke:#a9ccdb;stroke-width:0.99826443;stroke-miterlimit:10"
   id="line12-4"
   y2="128"
   x2="515.26685"
   y1="128"
   x1="5.0425248"
   stroke-miterlimit="10" />
		<line
   style="fill:none;stroke:#a9ccdb;stroke-width:0.99826443;stroke-miterlimit:10"
   id="line14-5"
   y2="160"
   x2="515.26685"
   y1="160"
   x1="5.0425248"
   stroke-miterlimit="10" />
		<line
   style="fill:none;stroke:#a9ccdb;stroke-width:0.99826443;stroke-miterlimit:10"
   id="line16-5"
   y2="192"
   x2="515.26685"
   y1="192"
   x1="5.0425248"
   stroke-miterlimit="10" />
		<line
   style="fill:none;stroke:#a9ccdb;stroke-width:0.99826443;stroke-miterlimit:10"
   id="line18-1"
   y2="224"
   x2="515.26685"
   y1="224"
   x1="5.0425248"
   stroke-miterlimit="10" />
		<line
   style="fill:none;stroke:#a9ccdb;stroke-width:0.99826443;stroke-miterlimit:10"
   id="line20-7"
   y2="256"
   x2="515.26685"
   y1="256"
   x1="5.0425248"
   stroke-miterlimit="10" />
		<line
   style="fill:none;stroke:#a9ccdb;stroke-width:0.99826443;stroke-miterlimit:10"
   id="line22-1"
   y2="288"
   x2="515.26685"
   y1="288"
   x1="5.0425248"
   stroke-miterlimit="10" />
		<line
   style="fill:none;stroke:#a9ccdb;stroke-width:0.99826443;stroke-miterlimit:10"
   id="line24-1"
   y2="320"
   x2="515.26685"
   y1="320"
   x1="5.0425248"
   stroke-miterlimit="10" />
		<line
   style="fill:none;stroke:#a9ccdb;stroke-width:0.99826443;stroke-miterlimit:10"
   id="line26-5"
   y2="352"
   x2="515.26685"
   y1="352"
   x1="5.0425248"
   stroke-miterlimit="10" />
		<line
   style="fill:none;stroke:#a9ccdb;stroke-width:0.99826443;stroke-miterlimit:10"
   id="line28-2"
   y2="384"
   x2="515.26685"
   y1="384"
   x1="5.0425248"
   stroke-miterlimit="10" />
		<line
   style="fill:none;stroke:#a9ccdb;stroke-width:0.99826443;stroke-miterlimit:10"
   id="line30-7"
   y2="416"
   x2="515.26685"
   y1="416"
   x1="5.0425248"
   stroke-miterlimit="10" />
		<line
   style="fill:none;stroke:#ff0000;stroke-width:0.99826443;stroke-miterlimit:10"
   id="line32-6"
   y2="448"
   x2="515.26685"
   y1="448"
   x1="5.0425248"
   stroke-miterlimit="10" />
		<line
   style="fill:none;stroke:#a9ccdb;stroke-width:0.99826443;stroke-miterlimit:10"
   id="line34-1"
   y2="480"
   x2="515.26685"
   y1="480"
   x1="5.0425248"
   stroke-miterlimit="10" />
		<line
   style="fill:none;stroke:#a9ccdb;stroke-width:0.99826443;stroke-miterlimit:10"
   id="line36-4"
   y2="512"
   x2="36.931545"
   y1="0"
   x1="36.931545"
   stroke-miterlimit="10" />
		<line
   style="fill:none;stroke:#a9ccdb;stroke-width:0.99826443;stroke-miterlimit:10"
   id="line38-2"
   y2="512"
   x2="68.820564"
   y1="0"
   x1="68.820564"
   stroke-miterlimit="10" />
		<line
   style="fill:none;stroke:#a9ccdb;stroke-width:0.99826443;stroke-miterlimit:10"
   id="line40-3"
   y2="512"
   x2="100.70959"
   y1="0"
   x1="100.70959"
   stroke-miterlimit="10" />
		<line
   style="fill:none;stroke:#a9ccdb;stroke-width:0.99826443;stroke-miterlimit:10"
   id="line42-2"
   y2="512"
   x2="132.5986"
   y1="0"
   x1="132.5986"
   stroke-miterlimit="10" />
		<line
   style="fill:none;stroke:#a9ccdb;stroke-width:0.99826443;stroke-miterlimit:10"
   id="line44-2"
   y2="512"
   x2="164.48763"
   y1="0"
   x1="164.48763"
   stroke-miterlimit="10" />
		<line
   style="fill:none;stroke:#a9ccdb;stroke-width:0.99826443;stroke-miterlimit:10"
   id="line46-1"
   y2="512"
   x2="196.37665"
   y1="0"
   x1="196.37665"
   stroke-miterlimit="10" />
		<line
   style="fill:none;stroke:#a9ccdb;stroke-width:0.99826443;stroke-miterlimit:10"
   id="line48-6"
   y2="512"
   x2="228.26567"
   y1="0"
   x1="228.26567"
   stroke-miterlimit="10" />
		<line
   style="fill:none;stroke:#a9ccdb;stroke-width:0.99826443;stroke-miterlimit:10"
   id="line50-8"
   y2="512"
   x2="260.15469"
   y1="0"
   x1="260.15469"
   stroke-miterlimit="10" />
		<line
   style="fill:none;stroke:#a9ccdb;stroke-width:0.99826443;stroke-miterlimit:10"
   id="line52-5"
   y2="512"
   x2="292.04373"
   y1="0"
   x1="292.04373"
   stroke-miterlimit="10" />
		<line
   style="fill:none;stroke:#a9ccdb;stroke-width:0.99826443;stroke-miterlimit:10"
   id="line54-7"
   y2="512"
   x2="323.93274"
   y1="0"
   x1="323.93274"
   stroke-miterlimit="10" />
		<line
   style="fill:none;stroke:#a9ccdb;stroke-width:0.99826443;stroke-miterlimit:10"
   id="line56-6"
   y2="512"
   x2="355.82175"
   y1="0"
   x1="355.82175"
   stroke-miterlimit="10" />
		<line
   style="fill:none;stroke:#a9ccdb;stroke-width:0.99826443;stroke-miterlimit:10"
   id="line58-1"
   y2="512"
   x2="387.71075"
   y1="0"
   x1="387.71075"
   stroke-miterlimit="10" />
		<line
   style="fill:none;stroke:#a9ccdb;stroke-width:0.99826443;stroke-miterlimit:10"
   id="line60-8"
   y2="512"
   x2="419.59979"
   y1="0"
   x1="419.59979"
   stroke-miterlimit="10" />
		<line
   style="fill:none;stroke:#a9ccdb;stroke-width:0.99826443;stroke-miterlimit:10"
   id="line62-9"
   y2="512"
   x2="451.4888"
   y1="0"
   x1="451.4888"
   stroke-miterlimit="10" />
		<line
   style="fill:none;stroke:#a9ccdb;stroke-width:0.99826443;stroke-miterlimit:10"
   id="line64-2"
   y2="512"
   x2="483.37784"
   y1="0"
   x1="483.37784"
   stroke-miterlimit="10" />
	</g></g>
	
	<path
   style="fill:#fd9a9d;fill-opacity:0.77826089"
   d="m 130.93071,114.38873 c -0.25829,6.07419 -0.43047,98.44809 -0.38267,182.49795 0.074,130.0764 -0.76062,157.17513 -10e-4,182.09735 1.79598,58.9238 0.8372,108.51739 1.28848,147.0775 1.96209,167.65207 0.36246,161.85408 1.31313,168.99567 2.61733,19.66175 13.31248,30.4182 18.9549,37.64832 6.65909,8.53274 19.74641,11.21185 27.03291,0.26986 7.41657,-11.13736 14.23866,-27.5602 17.67841,-57.48681 0.31769,-2.76397 7.24344,-11.67642 9.51999,-12.59111 7.88173,-3.16682 16.08092,-6.14582 41.89925,-30.82134 10.61525,-10.14533 25.84395,-24.13531 33.84175,-31.08886 15.6362,-13.59471 66.0234,-55.92278 66.5703,-55.92278 0.1822,0 1.3995,1.30426 2.7052,2.89836 2.4357,2.9739 13.168,12.32696 26.1454,22.78533 12.6078,10.16053 15.6458,12.46719 24.3471,18.48618 25.9025,17.91751 37.2952,28.29709 46.5211,42.38416 3.2974,5.03479 -0.3948,17.02055 2.2637,23.65755 l 0.5188,22.86697 -0.9808,36.98529 c 0.2796,7.27918 0.8929,17.67495 2.9608,27.89414 2.9015,14.33855 8.6668,28.32949 20.3919,32.87622 5.97949,0.73837 13.25337,3.16124 17.87713,-0.84128 7.71602,-6.67935 11.55315,-22.49915 15.33637,-29.75748 3.95941,-7.6978 7.29195,-16.57545 7.9867,-25.58637 0.61177,-7.9347 0.299,-158.70823 -0.4046,-196.15254 -0.9187,-48.89697 5.4603,-77.65838 0.4935,-186.74685 -0.3874,-44.35658 -0.6607,-88.97888 -0.7308,-131.51996 -0.019,-19.58819 -2.27728,-28.69476 -2.97698,-32.44524 -2.4276,-5.3326 -11.92982,-25.85919 -19.86302,-26.61549 -5.58938,-1.0786 -10.44044,-0.86078 -14.68155,0.74594 -8.3192,3.15168 -14.2915,11.64745 -18.88575,26.18527 -2.5663,8.48345 -4.0501,20.01542 -5.0632,32.60182 -2.1524,42.29011 -1.5318,86.65219 -0.3184,129.01446 1.5052,17.91059 -0.3114,34.84434 -0.8186,53.25302 l 0.01,3.49254 -5.1556,-4.04013 c -12.7953,-10.02691 -47.4397,-37.68961 -53.6672,-41.84792 -1.4991,-1.00097 -2.0571,-0.14142 6.4681,-9.96302 25.7412,-29.65538 39.2682,-54.69578 40.3387,-74.67255 0.281,-5.24302 0.1851,-6.28239 -0.853,-9.24356 -4.8456,-13.82276 -20.5794,-38.40307 -26.4785,-41.36651 l -1.4585,-0.73265 -1.8992,5.60716 c -4.8968,14.45704 -10.0204,23.33013 -25.9646,44.96504 -3.5395,4.80285 -11.1537,15.32032 -16.9203,23.37216 -5.7666,8.05184 -12.0167,16.66959 -13.8891,19.15056 l -3.4044,4.51085 -3.2504,-2.74301 c -1.7876,-1.50866 -13.72,-11.50507 -26.5164,-22.21424 -12.7964,-10.70918 -31.1884,-26.41408 -40.871,-34.89982 -9.6826,-8.48569 -20.6283,-18.06652 -24.32375,-21.2907 -18.15344,-15.83836 -35.63327,-27.47153 -46.68258,-31.06822 -4.08898,-1.33098 -8.97594,-1.8012 -11.90362,-1.14529 l -1.63344,0.36594 c -0.44852,-12.40174 -0.53812,-25.75344 -0.61443,-35.44541 -0.1286,-16.51569 -0.25881,-39.79185 -0.35301,-64.32571 0.0377,-20.57699 -0.21773,-41.81469 0.46801,-62.74405 0.32562,-4.206 0.38614,-8.90516 0.1901,-13.22024 -3.86797,-21.262328 -8.07742,-56.705206 -24.38284,-67.025898 -4.73653,-2.29011 -9.79862,-1.90706 -14.58836,1.05157 -10.4303,6.44284 -21.53076,31.96525 -23.20364,61.827858 z m 81.61047,262.53579 c 4.36241,3.77216 13.76142,12.43477 20.88669,19.25021 24.43519,23.37265 25.92209,24.60433 43.09539,35.69653 8.434,5.44753 15.5178,10.06585 15.7419,10.26292 0.224,0.19708 -1.5606,1.08984 -3.9659,1.98392 -8.0771,3.00243 -18.0653,9.28 -28.3196,17.79896 -3.1158,2.58852 -11.8518,10.49477 -19.41331,17.56945 -15.49057,14.49325 -19.52524,18.00564 -26.70323,23.24664 -4.6435,3.39046 -15.55142,9.25036 -16.14524,8.67348 -0.32858,-0.31917 -3.41627,-134.05561 -3.41891,-148.08255 l -5.3e-4,-3.07243 5.15557,4.90723 c 2.83557,2.69894 8.72482,7.99353 13.08722,11.76564 z m 132.94778,109.18097 c 3.6186,1.63631 9.0379,5.53174 12.4659,8.96051 1.4541,1.45446 9.7229,8.77998 18.375,16.27892 8.6521,7.49895 15.7311,13.80747 15.7311,14.01894 0,0.21147 -4.8185,4.74908 -10.7077,10.08359 -5.8893,5.3345 -14.277,13.06402 -18.6394,17.1767 -10.1465,9.5657 -15.5338,13.39666 -20.4565,14.54686 -4.4442,1.03841 -13.1224,-3.7169 -21.3638,-11.70654 -6.8263,-6.61772 -9.3489,-10.44884 -18.6987,-28.39905 l -4.874,-9.35706 6.2577,-5.83958 c 22.0772,-20.60227 30.8591,-26.98821 37.1911,-27.04413 1.0179,-0.009 3.1416,0.56739 4.7193,1.28084 z m -96.08405,78.51335 c 1.24617,0.39315 3.60161,0.83551 5.23431,0.98303 6.30524,0.56967 11.14924,3.93206 12.80874,8.89097 0.4619,1.38043 1.3157,5.30786 1.8972,8.72762 1.7015,10.00576 3.3032,13.62104 8.0425,18.15283 2.5652,2.45288 7.7235,5.63361 10.4582,6.44873 0.7018,0.20916 2.1032,0.7161 3.1144,1.12652 l 1.8385,0.74623 -16.3338,10.54821 c -13.4913,8.71247 -17.2541,11.41285 -21.62163,15.51649 -2.90827,2.73256 -7.4125,6.92645 -10.00938,9.31976 -8.73592,8.05102 -28.91807,28.72658 -40.60646,41.5992 l -3.02592,3.3325 -0.019,-5.39357 c -0.018,-5.07964 -1.1181,-57.48514 -1.90925,-90.94729 l -0.35894,-15.18041 6.83698,-0.56692 c 4.73975,-0.39303 8.1274,-0.98685 11.04366,-1.93587 4.86876,-1.58438 13.37451,-5.5038 17.95488,-8.27352 1.74497,-1.05518 3.99629,-2.34393 5.00297,-2.86391 2.2032,-1.13799 6.45399,-1.23955 9.65208,-0.2306 z m 199.93755,9.03148 c 1.695,1.56129 3.5675,3.76333 4.1613,4.89341 0.5937,1.13008 1.9221,3.20494 2.9519,4.6108 l 1.8725,2.5561 -6.2284,17.58011 c 0.8794,20.13393 -0.516,53.86388 -0.7388,54.08474 -0.091,0.0901 1.2553,-0.49809 -3.79,-4.69775 -5.0452,-4.19964 -9.1759,-6.10413 -14.2654,-10.16597 -5.0895,-4.06184 -11.5141,-9.45913 -14.277,-11.99399 -2.7628,-2.53484 -8.7116,-7.56496 -13.2194,-11.17803 -11.2549,-9.02097 -14.2105,-11.46918 -14.2463,-11.8008 -0.017,-0.15631 7.9707,-6.05071 17.7501,-13.09868 14.9314,-10.76105 26.1088,-19.14903 32.9363,-24.71689 l 1.3675,-1.11525 1.3219,1.10174 c 0.7271,0.60596 2.7088,2.37916 4.4038,3.94046 z"
   id="path4727"
   inkscape:connector-curvature="0"
   sodipodi:nodetypes="cssssssssssscssssccscscssccccscccccscsscccssssccsssssccccccscccscsssscccsccccssssssccscccsccscccssssccscssssccssccscsscscscccss" />
	   
	   </svg>