<?xml version="1.0" encoding="UTF-8" standalone="no"?>
<svg
   xmlns:dc="http://purl.org/dc/elements/1.1/"
   xmlns:cc="http://creativecommons.org/ns#"
   xmlns:rdf="http://www.w3.org/1999/02/22-rdf-syntax-ns#"
   xmlns:svg="http://www.w3.org/2000/svg"
   xmlns="http://www.w3.org/2000/svg"
   xmlns:sodipodi="http://sodipodi.sourceforge.net/DTD/sodipodi-0.dtd"
   xmlns:inkscape="http://www.inkscape.org/namespaces/inkscape"
   version="1.1"
   id="Layer_1"
   x="0px"
   y="0px"
   width="1000"
   height="1000"
   viewBox="0 0 1000 1000"
   enable-background="new 0 0 512 512"
   xml:space="preserve"
   inkscape:version="0.48.0 r9654"
   sodipodi:docname="uni2FBA-x2fba.svg"><metadata
   id="metadata72"><rdf:RDF><cc:Work
       rdf:about=""><dc:format>image/svg+xml</dc:format><dc:type
         rdf:resource="http://purl.org/dc/dcmitype/StillImage" /></cc:Work></rdf:RDF></metadata><defs
   id="defs70" /><sodipodi:namedview
   pagecolor="#ffffff"
   bordercolor="#666666"
   borderopacity="1"
   objecttolerance="10"
   gridtolerance="10"
   guidetolerance="10"
   inkscape:pageopacity="0"
   inkscape:pageshadow="2"
   inkscape:window-width="1152"
   inkscape:window-height="814"
   id="namedview68"
   showgrid="false"
   inkscape:zoom="0.50976562"
   inkscape:cx="855.73033"
   inkscape:cy="530.46755"
   inkscape:window-x="-8"
   inkscape:window-y="-8"
   inkscape:window-maximized="1"
   inkscape:current-layer="g3060" />
	<g
   id="Grid"
   transform="matrix(1.9559872,0,0,1.9483393,0.47799362,1.9760854)">
		<rect
   x="0"
   stroke-miterlimit="10"
   width="512"
   height="512"
   id="rect4"
   y="0"
   style="fill:none;stroke:#a9ccdb;stroke-miterlimit:10" />
		<line
   stroke-miterlimit="10"
   x1="0"
   y1="32"
   x2="512"
   y2="32"
   id="line6"
   style="fill:none;stroke:#a9ccdb;stroke-miterlimit:10" />
		<line
   stroke-miterlimit="10"
   x1="0"
   y1="64"
   x2="512"
   y2="64"
   id="line8"
   style="fill:none;stroke:#a9ccdb;stroke-miterlimit:10" />
		<line
   stroke-miterlimit="10"
   x1="0"
   y1="96"
   x2="512"
   y2="96"
   id="line10"
   style="fill:none;stroke:#a9ccdb;stroke-miterlimit:10" />
		<line
   stroke-miterlimit="10"
   x1="0"
   y1="128"
   x2="512"
   y2="128"
   id="line12"
   style="fill:none;stroke:#a9ccdb;stroke-miterlimit:10" />
		<line
   stroke-miterlimit="10"
   x1="0"
   y1="160"
   x2="512"
   y2="160"
   id="line14"
   style="fill:none;stroke:#a9ccdb;stroke-miterlimit:10" />
		<line
   stroke-miterlimit="10"
   x1="0"
   y1="192"
   x2="512"
   y2="192"
   id="line16"
   style="fill:none;stroke:#a9ccdb;stroke-miterlimit:10" />
		<line
   stroke-miterlimit="10"
   x1="0"
   y1="224"
   x2="512"
   y2="224"
   id="line18"
   style="fill:none;stroke:#a9ccdb;stroke-miterlimit:10" />
		<line
   stroke-miterlimit="10"
   x1="0"
   y1="256"
   x2="512"
   y2="256"
   id="line20"
   style="fill:none;stroke:#a9ccdb;stroke-miterlimit:10" />
		<line
   stroke-miterlimit="10"
   x1="0"
   y1="288"
   x2="512"
   y2="288"
   id="line22"
   style="fill:none;stroke:#a9ccdb;stroke-miterlimit:10" />
		<line
   stroke-miterlimit="10"
   x1="0"
   y1="320"
   x2="512"
   y2="320"
   id="line24"
   style="fill:none;stroke:#a9ccdb;stroke-miterlimit:10" />
		<line
   stroke-miterlimit="10"
   x1="0"
   y1="352"
   x2="512"
   y2="352"
   id="line26"
   style="fill:none;stroke:#a9ccdb;stroke-miterlimit:10" />
		<line
   stroke-miterlimit="10"
   x1="0"
   y1="384"
   x2="512"
   y2="384"
   id="line28"
   style="fill:none;stroke:#a9ccdb;stroke-miterlimit:10" />
		<line
   stroke-miterlimit="10"
   x1="0"
   y1="416"
   x2="512"
   y2="416"
   id="line30"
   style="fill:none;stroke:#a9ccdb;stroke-miterlimit:10" />
		<line
   stroke-miterlimit="10"
   x1="0"
   y1="448"
   x2="512"
   y2="448"
   id="line32"
   style="fill:none;stroke:#ff0000;stroke-miterlimit:10" />
		<line
   stroke-miterlimit="10"
   x1="0"
   y1="480"
   x2="512"
   y2="480"
   id="line34"
   style="fill:none;stroke:#a9ccdb;stroke-miterlimit:10" />
		<line
   stroke-miterlimit="10"
   x1="32"
   y1="0"
   x2="32"
   y2="512"
   id="line36"
   style="fill:none;stroke:#a9ccdb;stroke-miterlimit:10" />
		<line
   stroke-miterlimit="10"
   x1="64"
   y1="0"
   x2="64"
   y2="512"
   id="line38"
   style="fill:none;stroke:#a9ccdb;stroke-miterlimit:10" />
		<line
   stroke-miterlimit="10"
   x1="96"
   y1="0"
   x2="96"
   y2="512"
   id="line40"
   style="fill:none;stroke:#a9ccdb;stroke-miterlimit:10" />
		<line
   stroke-miterlimit="10"
   x1="128"
   y1="0"
   x2="128"
   y2="512"
   id="line42"
   style="fill:none;stroke:#a9ccdb;stroke-miterlimit:10" />
		<line
   stroke-miterlimit="10"
   x1="160"
   y1="0"
   x2="160"
   y2="512"
   id="line44"
   style="fill:none;stroke:#a9ccdb;stroke-miterlimit:10" />
		<line
   stroke-miterlimit="10"
   x1="192"
   y1="0"
   x2="192"
   y2="512"
   id="line46"
   style="fill:none;stroke:#a9ccdb;stroke-miterlimit:10" />
		<line
   stroke-miterlimit="10"
   x1="224"
   y1="0"
   x2="224"
   y2="512"
   id="line48"
   style="fill:none;stroke:#a9ccdb;stroke-miterlimit:10" />
		<line
   stroke-miterlimit="10"
   x1="256"
   y1="0"
   x2="256"
   y2="512"
   id="line50"
   style="fill:none;stroke:#a9ccdb;stroke-miterlimit:10" />
		<line
   stroke-miterlimit="10"
   x1="288"
   y1="0"
   x2="288"
   y2="512"
   id="line52"
   style="fill:none;stroke:#a9ccdb;stroke-miterlimit:10" />
		<line
   stroke-miterlimit="10"
   x1="320"
   y1="0"
   x2="320"
   y2="512"
   id="line54"
   style="fill:none;stroke:#a9ccdb;stroke-miterlimit:10" />
		<line
   stroke-miterlimit="10"
   x1="352"
   y1="0"
   x2="352"
   y2="512"
   id="line56"
   style="fill:none;stroke:#a9ccdb;stroke-miterlimit:10" />
		<line
   stroke-miterlimit="10"
   x1="384"
   y1="0"
   x2="384"
   y2="512"
   id="line58"
   style="fill:none;stroke:#a9ccdb;stroke-miterlimit:10" />
		<line
   stroke-miterlimit="10"
   x1="416"
   y1="0"
   x2="416"
   y2="512"
   id="line60"
   style="fill:none;stroke:#a9ccdb;stroke-miterlimit:10" />
		<line
   stroke-miterlimit="10"
   x1="448"
   y1="0"
   x2="448"
   y2="512"
   id="line62"
   style="fill:none;stroke:#a9ccdb;stroke-miterlimit:10" />
		<line
   stroke-miterlimit="10"
   x1="480"
   y1="0"
   x2="480"
   y2="512"
   id="line64"
   style="fill:none;stroke:#a9ccdb;stroke-miterlimit:10" />
	</g>
	
<g
   id="g3060"> 
   <path
   style="fill:#010203;fill-opacity:1;stroke:#000000;stroke-width:2.04889441;stroke-opacity:1"
   d="m 672.13316,27.741275 c -9.2863,4.44798 -17.06954,13.17534 -18.81499,21.09728 -3.85394,17.49249 5.04694,43.90676 16.41754,48.72023 4.89536,2.07234 21.97328,16.635875 37.95118,32.363465 26.15715,25.7476 28.30768,29.53055 21.59278,37.98308 -8.94712,11.26237 -45.98462,100.26197 -50.688,121.80105 -1.85974,8.51752 -8.15356,16.98109 -14.25029,19.16348 -4.67663,1.67407 -8.85085,2.66022 -29.27374,3.25702 -96.25211,2.85673 -129.49226,2.23307 -225.80036,0.47407 -19.95851,0.39098 -25.562,1.24605 -27.68608,-1.47426 -21.3072,-42.78882 -37.02378,-83.48343 -55.57543,-124.06459 -5.12126,-11.26181 -9.20141,-21.73308 -9.9166,-28.18073 0.061,-2.78664 17.40712,-12.82179 29.82108,-22.30038 26.0829,-19.9154 28.78495,-34.45492 10.11622,-54.434095 l -12.47657,-13.35232 -20.19363,15.22325 c -11.10648,8.37278 -22.33429,15.22324 -24.95067,15.22324 -2.61636,0 -16.56647,-12.56476 -31.00026,-27.9217 -25.8015,-27.45175 -26.49337,-27.77957 -41.10326,-19.47691 -27.99645,15.91008 -28.47091,45.65738 -1.03632,64.972505 29.83207,30.09088 50.45413,70.62244 68.75914,107.7854 17.11981,35.98647 30.79475,73.05661 37.57592,99.48411 3.48089,14.08662 10.39866,26.58288 13.55594,47.65493 0.39456,8.01221 1.12603,28.21624 1.82776,50.75953 0.9334,29.98722 -1.75559,69.50966 -1.79082,93.91481 1.68777,34.72065 -8.28117,109.19691 16.53444,120.68677 6.18448,1.76823 13.74801,1.45234 16.80786,-0.70193 3.93631,-2.77126 5.12631,10.93169 4.06878,46.85216 l -1.4947,50.76903 14.31378,1.86675 c 25.48221,3.32327 34.88516,-14.06025 41.96235,-77.57775 12.64407,-20.28232 14.86965,3.23287 14.8449,27.81014 -0.0164,16.18106 -1.008,30.89957 -0.64416,40.68538 0.74823,10.25259 5.86284,17.6137 10.8864,20.67636 7.8613,4.79278 18.04746,3.26289 25.42035,-1.21722 4.60457,-4.80405 8.21103,-9.29924 9.79745,-16.81917 1.66922,-9.31626 1.10747,-26.6677 1.73073,-44.45373 0.9275,-26.47611 3.39556,-53.91516 10.99901,-57.24594 2.6806,27.96709 4.17896,60.74092 4.81021,88.76287 0.45,19.98212 1.3515,14.82383 1.03432,34.86993 2.48589,10.39686 6.92561,16.56168 12.40673,19.44336 6.62444,3.48276 14.76997,2.16986 22.82618,-2.26365 6.2907,-3.59622 11.05487,-10.0643 12.4484,-20.89844 -1.00303,-17.81729 -0.11828,-16.52357 0.10002,-34.36231 0.32061,-26.35739 1.13057,-52.49432 -0.06,-77.69023 l 74.97777,-6.39432 c 92.87145,-7.92034 122.87362,-19.54227 122.87362,-47.59755 0,-9.79856 -2.40055,-22.92524 -5.33447,-29.17036 -2.9339,-6.24511 -4.63587,-20.41203 -3.78205,-31.48205 l 1.55239,-20.1273 46.69048,43.34891 c 25.6798,23.84194 48.98312,43.34893 51.78493,43.34893 3.1359,0 3.60336,6.07355 1.21628,15.79766 -7.38872,30.09751 -0.14921,141.27326 10.47421,160.85478 5.98793,11.03693 30.93332,8.5065 40.99464,-4.15843 6.24486,-7.86081 8.1046,-16.4537 6.06961,-28.04483 -3.74876,-21.35211 0.80759,-26.42915 12.70826,-14.16038 11.32967,11.67996 31.86319,5.51542 42.44822,-12.74359 5.97682,-10.31022 5.20471,-14.24221 -6.46577,-32.92727 -7.28918,-11.67039 -23.54915,-26.8968 -36.1333,-33.83646 -25.98408,-14.32923 -22.57488,-18.46865 20.51842,-24.91323 26.67722,-3.98956 39.14219,-14.69564 39.14219,-33.61881 0,-20.85983 -18.40794,-34.00796 -46.59951,-33.28442 -13.64886,0.3503 -31.37186,-3.22491 -39.38437,-7.94491 -8.01233,-4.71998 -16.46486,-7.9095 -18.78333,-7.0878 -2.31831,0.82167 -9.76199,-5.26025 -16.5413,-13.51537 -22.424,-27.30514 -77.54864,-75.15158 -98.67722,-85.64856 -19.83603,-9.8548 -20.94022,-11.74466 -23.95911,-41.0056 -7.62439,-73.89973 -5.49805,-97.39279 12.6027,-139.23895 9.42808,-21.79595 20.5188,-41.51482 24.64644,-43.81962 16.7045,-9.32793 44.52649,-17.08185 61.29104,-17.08185 20.76719,0 34.46264,-14.18538 34.46264,-35.69544 0,-26.60296 -27.65021,-37.30097 -65.97572,-25.5263 -2.9277,0.89943 -7.96682,-3.67631 -80.64122,-73.224565 -37.54776,-35.93249 -38.46543,-36.42452 -54.03463,-28.96716 z m 16.14551,397.506045 c 1.67666,33.96497 4.14903,78.821 5.49386,99.68005 l 2.44514,37.92558 -44.09032,4.35375 c -24.24991,2.39459 -49.76378,4.27678 -56.69758,4.1827 -6.93379,-0.0942 -56.29051,-0.43308 -109.68133,-0.75342 -96.76178,-0.58053 -97.07531,-0.62361 -97.44871,-13.38526 0.10372,-10.29403 -1.0309,-23.67028 -1.3357,-43.07811 -0.43616,-27.77199 0.78439,-64.33869 0.9222,-91.66335 0.0947,-18.81129 -0.36987,-34.85094 0.66147,-44.44882 6.76172,-0.12642 9.83542,-1.38809 22.48847,-1.50877 56.08307,-0.53499 160.10166,-0.8811 223.98488,0.14279 23.45124,0.37585 41.49396,0.93631 49.77124,1.73979 1.34713,9.76279 2.40419,24.89054 3.48638,46.81314 z M 32.878657,581.72633 c 35.605054,82.45248 47.853943,103.99095 88.426183,155.48846 62.26172,79.02753 154.12518,136.61318 197.94554,124.08441 33.66582,-9.6255 41.45529,-42.34234 26.20042,-110.04562 -4.2714,-18.9572 -10.08605,-47.2115 -12.92145,-62.78734 -6.33563,-34.804 -32.16753,-93.76351 -58.62705,-133.81229 -17.06749,-22.32731 -37.9028,-42.6404 -60.32028,-60.54128 C 169.8168,459.16512 120.02134,433.41164 80.459093,419.814 54.239369,411.37525 32.030593,410.53198 19.676529,423.22054 -2.749099,453.1244 10.94328,529.3035 32.878657,581.72633 z M 208.62305,570.40334 c -8.5767,8.71085 -94.08267,40.30653 -97.49153,36.0245 C 95.181939,586.39276 64.313918,505.17081 70.100686,498.46476 c 13.306572,-13.41411 52.972274,-3.04737 84.926814,16.01244 32.67648,19.49044 57.46241,47.92498 53.59555,55.92614 z m 44.56075,62.20773 c 2.79746,8.3818 5.49405,16.01877 5.99247,16.97103 2.08664,3.9867 -60.80795,29.79573 -81.0269,33.2497 -18.00265,3.07538 -23.24812,1.81424 -29.10631,-6.99791 -3.93033,-5.91217 -7.21821,-12.36399 -7.30642,-14.33746 -0.0883,-1.97343 15.41796,-9.29426 34.45814,-16.2685 19.0402,-6.97424 41.16557,-17.29116 49.16748,-22.92646 16.91779,-11.91427 20.89631,-10.44001 27.82154,10.3096 z m 35.76916,120.07867 c 4.22333,24.48637 7.15149,45.23193 6.50703,46.10121 -5.67747,7.65818 -86.62769,-47.78656 -86.08266,-58.96004 0.2419,-4.95956 51.18899,-28.65409 66.34381,-30.8553 3.07335,-0.44642 8.98196,19.074 13.23182,43.71413 z"
   id="path39"
   inkscape:connector-curvature="0" />
   </g></svg>