<?xml version="1.0" encoding="UTF-8" standalone="no"?>
<svg
   xmlns:dc="http://purl.org/dc/elements/1.1/"
   xmlns:cc="http://creativecommons.org/ns#"
   xmlns:rdf="http://www.w3.org/1999/02/22-rdf-syntax-ns#"
   xmlns:svg="http://www.w3.org/2000/svg"
   xmlns="http://www.w3.org/2000/svg"
   xmlns:sodipodi="http://sodipodi.sourceforge.net/DTD/sodipodi-0.dtd"
   xmlns:inkscape="http://www.inkscape.org/namespaces/inkscape"
   version="1.1"
   id="Layer_1"
   x="0px"
   y="0px"
   width="1024"
   height="1024"
   viewBox="0 0 1024 1024"
   enable-background="new 0 0 512 512"
   xml:space="preserve"
   inkscape:version="0.48.0 r9654"
   sodipodi:docname="uni2F75-x2f75.svg"><metadata
   id="metadata72"><rdf:RDF><cc:Work
       rdf:about=""><dc:format>image/svg+xml</dc:format><dc:type
         rdf:resource="http://purl.org/dc/dcmitype/StillImage" /><dc:title /></cc:Work></rdf:RDF></metadata><defs
   id="defs70" /><sodipodi:namedview
   pagecolor="#ffffff"
   bordercolor="#666666"
   borderopacity="1"
   objecttolerance="10"
   gridtolerance="10"
   guidetolerance="10"
   inkscape:pageopacity="0"
   inkscape:pageshadow="2"
   inkscape:window-width="1136"
   inkscape:window-height="812"
   id="namedview68"
   showgrid="false"
   inkscape:zoom="0.25488281"
   inkscape:cx="295.7842"
   inkscape:cy="518.49496"
   inkscape:window-x="57"
   inkscape:window-y="72"
   inkscape:window-maximized="0"
   inkscape:current-layer="Layer_1" />
	<g
   id="Grid"
   transform="matrix(2.0004579,0,0,1.99505,0.50022895,2.0369)">
		<rect
   x="0"
   stroke-miterlimit="10"
   width="512"
   height="512"
   id="rect4"
   y="0"
   style="fill:none;stroke:#a9ccdb;stroke-miterlimit:10" />
		<line
   stroke-miterlimit="10"
   x1="0"
   y1="32"
   x2="512"
   y2="32"
   id="line6"
   style="fill:none;stroke:#a9ccdb;stroke-miterlimit:10" />
		<line
   stroke-miterlimit="10"
   x1="0"
   y1="64"
   x2="512"
   y2="64"
   id="line8"
   style="fill:none;stroke:#a9ccdb;stroke-miterlimit:10" />
		<line
   stroke-miterlimit="10"
   x1="0"
   y1="96"
   x2="512"
   y2="96"
   id="line10"
   style="fill:none;stroke:#a9ccdb;stroke-miterlimit:10" />
		<line
   stroke-miterlimit="10"
   x1="0"
   y1="128"
   x2="512"
   y2="128"
   id="line12"
   style="fill:none;stroke:#a9ccdb;stroke-miterlimit:10" />
		<line
   stroke-miterlimit="10"
   x1="0"
   y1="160"
   x2="512"
   y2="160"
   id="line14"
   style="fill:none;stroke:#a9ccdb;stroke-miterlimit:10" />
		<line
   stroke-miterlimit="10"
   x1="0"
   y1="192"
   x2="512"
   y2="192"
   id="line16"
   style="fill:none;stroke:#a9ccdb;stroke-miterlimit:10" />
		<line
   stroke-miterlimit="10"
   x1="0"
   y1="224"
   x2="512"
   y2="224"
   id="line18"
   style="fill:none;stroke:#a9ccdb;stroke-miterlimit:10" />
		<line
   stroke-miterlimit="10"
   x1="0"
   y1="256"
   x2="512"
   y2="256"
   id="line20"
   style="fill:none;stroke:#a9ccdb;stroke-miterlimit:10" />
		<line
   stroke-miterlimit="10"
   x1="0"
   y1="288"
   x2="512"
   y2="288"
   id="line22"
   style="fill:none;stroke:#a9ccdb;stroke-miterlimit:10" />
		<line
   stroke-miterlimit="10"
   x1="0"
   y1="320"
   x2="512"
   y2="320"
   id="line24"
   style="fill:none;stroke:#a9ccdb;stroke-miterlimit:10" />
		<line
   stroke-miterlimit="10"
   x1="0"
   y1="352"
   x2="512"
   y2="352"
   id="line26"
   style="fill:none;stroke:#a9ccdb;stroke-miterlimit:10" />
		<line
   stroke-miterlimit="10"
   x1="0"
   y1="384"
   x2="512"
   y2="384"
   id="line28"
   style="fill:none;stroke:#a9ccdb;stroke-miterlimit:10" />
		<line
   stroke-miterlimit="10"
   x1="0"
   y1="416"
   x2="512"
   y2="416"
   id="line30"
   style="fill:none;stroke:#a9ccdb;stroke-miterlimit:10" />
		<line
   stroke-miterlimit="10"
   x1="0"
   y1="448"
   x2="512"
   y2="448"
   id="line32"
   style="fill:none;stroke:#ff0000;stroke-miterlimit:10" />
		<line
   stroke-miterlimit="10"
   x1="0"
   y1="480"
   x2="512"
   y2="480"
   id="line34"
   style="fill:none;stroke:#a9ccdb;stroke-miterlimit:10" />
		<line
   stroke-miterlimit="10"
   x1="32"
   y1="0"
   x2="32"
   y2="512"
   id="line36"
   style="fill:none;stroke:#a9ccdb;stroke-miterlimit:10" />
		<line
   stroke-miterlimit="10"
   x1="64"
   y1="0"
   x2="64"
   y2="512"
   id="line38"
   style="fill:none;stroke:#a9ccdb;stroke-miterlimit:10" />
		<line
   stroke-miterlimit="10"
   x1="96"
   y1="0"
   x2="96"
   y2="512"
   id="line40"
   style="fill:none;stroke:#a9ccdb;stroke-miterlimit:10" />
		<line
   stroke-miterlimit="10"
   x1="128"
   y1="0"
   x2="128"
   y2="512"
   id="line42"
   style="fill:none;stroke:#a9ccdb;stroke-miterlimit:10" />
		<line
   stroke-miterlimit="10"
   x1="160"
   y1="0"
   x2="160"
   y2="512"
   id="line44"
   style="fill:none;stroke:#a9ccdb;stroke-miterlimit:10" />
		<line
   stroke-miterlimit="10"
   x1="192"
   y1="0"
   x2="192"
   y2="512"
   id="line46"
   style="fill:none;stroke:#a9ccdb;stroke-miterlimit:10" />
		<line
   stroke-miterlimit="10"
   x1="224"
   y1="0"
   x2="224"
   y2="512"
   id="line48"
   style="fill:none;stroke:#a9ccdb;stroke-miterlimit:10" />
		<line
   stroke-miterlimit="10"
   x1="256"
   y1="0"
   x2="256"
   y2="512"
   id="line50"
   style="fill:none;stroke:#a9ccdb;stroke-miterlimit:10" />
		<line
   stroke-miterlimit="10"
   x1="288"
   y1="0"
   x2="288"
   y2="512"
   id="line52"
   style="fill:none;stroke:#a9ccdb;stroke-miterlimit:10" />
		<line
   stroke-miterlimit="10"
   x1="320"
   y1="0"
   x2="320"
   y2="512"
   id="line54"
   style="fill:none;stroke:#a9ccdb;stroke-miterlimit:10" />
		<line
   stroke-miterlimit="10"
   x1="352"
   y1="0"
   x2="352"
   y2="512"
   id="line56"
   style="fill:none;stroke:#a9ccdb;stroke-miterlimit:10" />
		<line
   stroke-miterlimit="10"
   x1="384"
   y1="0"
   x2="384"
   y2="512"
   id="line58"
   style="fill:none;stroke:#a9ccdb;stroke-miterlimit:10" />
		<line
   stroke-miterlimit="10"
   x1="416"
   y1="0"
   x2="416"
   y2="512"
   id="line60"
   style="fill:none;stroke:#a9ccdb;stroke-miterlimit:10" />
		<line
   stroke-miterlimit="10"
   x1="448"
   y1="0"
   x2="448"
   y2="512"
   id="line62"
   style="fill:none;stroke:#a9ccdb;stroke-miterlimit:10" />
		<line
   stroke-miterlimit="10"
   x1="480"
   y1="0"
   x2="480"
   y2="512"
   id="line64"
   style="fill:none;stroke:#a9ccdb;stroke-miterlimit:10" />
	</g>
	

	 
<path
   style="fill:#c3211f;fill-opacity:0.57391304"
   d="m 366.82174,215.37084 c -6.63086,9.93683 -8.97091,14.32996 -14.51391,27.24787 l -6.6085,15.40099 -6.7317,32.39289 c -9.389,45.17971 -14.5968,74.85562 -17.5309,99.89778 -0.8525,7.27656 -6.5714,37.87841 -7.2004,38.53003 -0.5012,0.51905 -10.3699,-13.71347 -15.7634,-22.73405 -6.9692,-11.65581 -8.8779,-15.34449 -22.6824,-43.83363 -13.3102,-27.46904 -19.8766,-40.021 -26.5406,-50.73298 -8.9745,-14.42603 -21.5117,-30.15677 -30.0522,-37.70722 -13.9425,-12.32627 -36.6846,-23.71071 -44.3792,-22.21564 -3.5704,0.69371 -5.0858,2.68489 -5.6237,7.38904 -0.5958,5.20963 1.0155,12.53818 6.9892,31.7902 2.6284,8.4706 6.031,20.02139 7.5615,25.66842 7.0092,25.86255 20.9372,54.91925 47.7009,99.51414 5.3625,8.93545 22.7633,38.41472 26.5209,44.93023 1.4616,2.53421 -17.7024,-4.07926 -45.9502,-15.85743 -13.0015,-5.42102 -26.7441,-11.02912 -30.539,-12.46221 -12.9692,-4.89765 -41.9852,-12.60373 -71.7295,-19.05011 L 89.354532,409.1192 c -11.4842,3.76655 -23.3382,7.74048 -33.7418,14.05166 -9.9842,6.227 -13.7577,10.98071 -12.7713,16.08902 0.6087,3.15206 6.0575,9.41357 11.9998,13.78955 12.3547,9.28204 20.707,14.54471 29.9758,17.50537 6.6017,2.10871 13.6682,3.04958 22.976998,3.44321 23.2005,0.94887 25.5652,1.68004 59.6854,18.45393 19.5214,9.59697 36.2085,16.85029 57.7635,25.10739 10.7833,4.13092 60.9736,22.92008 71.0363,26.59319 12.5245,4.57169 21.5278,17.74812 56.3961,82.53528 9.16685,17.03253 20.49519,37.7209 25.17421,45.97422 4.67887,8.25342 17.09353,32.95435 27.58801,54.89084 19.54369,40.85224 26.11269,53.89273 34.81181,69.10706 8.24441,14.41929 17.97513,29.0183 23.34036,35.01781 9.93789,11.11245 28.89312,8.42209 45.52927,-6.46195 14.51877,-12.98978 17.21233,-16.24107 56.86394,-68.63809 29.63608,-39.16211 40.85134,-53.59055 58.16798,-74.83291 6.55104,-8.03614 20.33373,-25.11717 30.62817,-37.95795 25.78908,-32.16763 33.05562,-40.66021 49.81024,-58.21473 l 14.5253,-15.21864 21.73274,-7.09475 c 43.87653,-14.32354 55.43042,-17.43919 70.15486,-18.91774 8.04949,-0.80861 12.71107,-1.75769 36.86365,-7.50573 4.54742,-1.08229 14.67036,-2.70762 22.49527,-3.61208 7.825,-0.90447 15.77158,-1.99454 17.65889,-2.42258 6.80456,-1.54315 34.05526,-10.9885 39.45236,-13.67444 3.9097,-1.94582 12.8014,-4.61924 30.4987,-9.16999 32.8767,-11.61603 45.50781,-20.77497 34.9681,-28.79807 -4.6319,-3.5258 -18.4871,-10.16326 -29.0449,-11.06731 -7.1299,-0.62553 -15.2791,-1.14468 -18.1094,-1.15383 -5.8795,-0.0189 -56.99295,7.2149 -83.69125,11.84414 -18.2341,3.16153 -34.62135,6.46259 -46.80049,9.42746 -7.46448,1.81725 -37.05235,6.64704 -37.55166,6.12989 -0.51107,-0.52926 7.06626,-12.17033 13.72899,-21.09148 8.51123,-11.39643 15.36323,-19.37124 35.9726,-41.86718 20.13957,-21.98331 26.81682,-29.81291 34.81874,-40.82845 5.55281,-7.64431 13.43097,-20.21626 17.96824,-28.67349 7.34198,-13.68538 12.49823,-34.695 12.50263,-50.94332 0.01,-20.74751 -7.1403,-21.52308 -30.28098,-3.28685 -16.6772,13.14267 -21.72935,17.07198 -30.10958,23.41757 -21.77695,16.49001 -37.23214,33.93068 -83.48776,94.21254 l -19.82636,25.83846 -0.67106,-2.95762 c -0.9142,-4.02907 -0.98239,-25.45377 -0.19667,-61.79724 0.81016,-37.47458 0.18207,-46.74148 -6.4746,-95.52737 -2.49162,-25.91916 -2.4049,-21.80381 -19.75054,-39.30993 -3.04792,-4.45352 -5.7348,-12.29543 -9.753,-17.7538 -3.37007,-4.578 -3.51524,-3.10061 -9.75665,-0.92014 -5.46106,2.76843 -8.17442,9.84518 -12.93039,33.72403 -3.42627,17.20276 -3.48131,17.71539 -3.06785,28.57416 0.31633,8.30855 1.0799,14.29639 3.07179,24.08875 1.45793,7.16735 3.5253,17.34398 4.59412,22.61453 3.82616,18.86745 4.06059,34.61903 0.69778,46.88742 -1.02243,3.73003 -6.01233,18.71824 -3.47724,74.26712 l 1.63683,35.8662 -9.54649,31.67982 c -3.76029,12.47851 -18.86404,29.30091 -50.27426,66.68458 -9.6719,11.51123 -22.87275,27.5045 -29.33522,35.54075 -14.70082,18.28064 -22.05402,26.72198 -42.31111,48.5724 -25.65348,27.67128 -31.98709,34.66185 -42.13972,46.50937 -5.25299,6.13019 -9.8495,11.1457 -10.21439,11.1457 -1.20857,0 -40.34688,-65.85041 -56.50391,-95.06799 -4.23477,-7.65809 -14.7971,-26.54079 -23.47183,-41.96156 -23.57477,-41.9079 -31.45018,-56.97955 -40.85643,-78.18971 l -5.07866,-11.45199 0.87251,-22.11421 c 1.88723,-47.83029 10.04872,-58.53649 13.86401,-74.08604 1.22573,-4.99551 2.74267,-13.34763 3.37108,-18.56021 0.62834,-5.21268 1.66649,-13.74241 2.30696,-18.95509 0.64054,-5.21269 2.21704,-13.92013 3.50347,-19.35009 4.37651,-18.47309 5.29714,-24.29173 5.29714,-33.47918 0,-8.35339 2.09676,-29.56702 1.14837,-31.15636 -1.33622,-2.23928 1.97309,-9.02857 6.65893,-39.04319 13.85825,-10.38886 11.16607,-42.54985 -0.38986,-54.10811 -7.6205,-6.85716 -23.10708,1.08597 -33.02938,13.88961 z"
   id="path3763"
   inkscape:connector-curvature="0"
   sodipodi:nodetypes="cscsscssssscscscsssccscscscsscsscssssscsccscccsccsccsscscssscssccscsssssscsssscsssscssccsssccc" />
	 
</svg>