<?xml version="1.0" encoding="UTF-8" standalone="no"?>
<svg
   xmlns:dc="http://purl.org/dc/elements/1.1/"
   xmlns:cc="http://creativecommons.org/ns#"
   xmlns:rdf="http://www.w3.org/1999/02/22-rdf-syntax-ns#"
   xmlns:svg="http://www.w3.org/2000/svg"
   xmlns="http://www.w3.org/2000/svg"
   xmlns:sodipodi="http://sodipodi.sourceforge.net/DTD/sodipodi-0.dtd"
   xmlns:inkscape="http://www.inkscape.org/namespaces/inkscape"
   version="1.1"
   id="Layer_1"
   x="0px"
   y="0px"
   width="1000"
   height="1000"
   viewBox="0 0 1000 1000"
   enable-background="new 0 0 512 512"
   xml:space="preserve"
   inkscape:version="0.48.0 r9654"
   sodipodi:docname="uni2F47-x2f47.svg"><metadata
   id="metadata41"><rdf:RDF><cc:Work
       rdf:about=""><dc:format>image/svg+xml</dc:format><dc:type
         rdf:resource="http://purl.org/dc/dcmitype/StillImage" /></cc:Work></rdf:RDF></metadata><defs
   id="defs39" /><sodipodi:namedview
   pagecolor="#ffffff"
   bordercolor="#666666"
   borderopacity="1"
   objecttolerance="10"
   gridtolerance="10"
   guidetolerance="10"
   inkscape:pageopacity="0"
   inkscape:pageshadow="2"
   inkscape:window-width="1152"
   inkscape:window-height="814"
   id="namedview37"
   showgrid="false"
   inkscape:zoom="0.50976562"
   inkscape:cx="256"
   inkscape:cy="563.55766"
   inkscape:window-x="-8"
   inkscape:window-y="-8"
   inkscape:window-maximized="1"
   inkscape:current-layer="Layer_1" />
	<g
   id="Grid"
   transform="matrix(1.952166,0,0,1.9521605,0.4753831,0.017034)">
		<rect
   x="0"
   stroke-miterlimit="10"
   width="512"
   height="512"
   id="rect4"
   y="0"
   style="fill:none;stroke:#a9ccdb;stroke-miterlimit:10" />
		<line
   stroke-miterlimit="10"
   x1="0"
   y1="32"
   x2="512"
   y2="32"
   id="line6"
   style="fill:none;stroke:#a9ccdb;stroke-miterlimit:10" />
		<line
   stroke-miterlimit="10"
   x1="0"
   y1="64"
   x2="512"
   y2="64"
   id="line8"
   style="fill:none;stroke:#a9ccdb;stroke-miterlimit:10" />
		<line
   stroke-miterlimit="10"
   x1="0"
   y1="96"
   x2="512"
   y2="96"
   id="line10"
   style="fill:none;stroke:#a9ccdb;stroke-miterlimit:10" />
		<line
   stroke-miterlimit="10"
   x1="0"
   y1="128"
   x2="512"
   y2="128"
   id="line12"
   style="fill:none;stroke:#a9ccdb;stroke-miterlimit:10" />
		<line
   stroke-miterlimit="10"
   x1="0"
   y1="160"
   x2="512"
   y2="160"
   id="line14"
   style="fill:none;stroke:#a9ccdb;stroke-miterlimit:10" />
		<line
   stroke-miterlimit="10"
   x1="0"
   y1="192"
   x2="512"
   y2="192"
   id="line16"
   style="fill:none;stroke:#a9ccdb;stroke-miterlimit:10" />
		<line
   stroke-miterlimit="10"
   x1="0"
   y1="224"
   x2="512"
   y2="224"
   id="line18"
   style="fill:none;stroke:#a9ccdb;stroke-miterlimit:10" />
		<line
   stroke-miterlimit="10"
   x1="0"
   y1="256"
   x2="512"
   y2="256"
   id="line20"
   style="fill:none;stroke:#a9ccdb;stroke-miterlimit:10" />
		<line
   stroke-miterlimit="10"
   x1="0"
   y1="288"
   x2="512"
   y2="288"
   id="line22"
   style="fill:none;stroke:#a9ccdb;stroke-miterlimit:10" />
		<line
   stroke-miterlimit="10"
   x1="0"
   y1="320"
   x2="512"
   y2="320"
   id="line24"
   style="fill:none;stroke:#a9ccdb;stroke-miterlimit:10" />
		<line
   stroke-miterlimit="10"
   x1="0"
   y1="352"
   x2="512"
   y2="352"
   id="line26"
   style="fill:none;stroke:#a9ccdb;stroke-miterlimit:10" />
		<line
   stroke-miterlimit="10"
   x1="0"
   y1="384"
   x2="512"
   y2="384"
   id="line28"
   style="fill:none;stroke:#a9ccdb;stroke-miterlimit:10" />
		<line
   stroke-miterlimit="10"
   x1="0"
   y1="416"
   x2="512"
   y2="416"
   id="line30"
   style="fill:none;stroke:#a9ccdb;stroke-miterlimit:10" />
		<line
   stroke-miterlimit="10"
   x1="0"
   y1="448"
   x2="512"
   y2="448"
   id="line32"
   style="fill:none;stroke:#ff0000;stroke-miterlimit:10" />
		<line
   stroke-miterlimit="10"
   x1="0"
   y1="480"
   x2="512"
   y2="480"
   id="line34"
   style="fill:none;stroke:#a9ccdb;stroke-miterlimit:10" />
		<line
   stroke-miterlimit="10"
   x1="32"
   y1="0"
   x2="32"
   y2="512"
   id="line36"
   style="fill:none;stroke:#a9ccdb;stroke-miterlimit:10" />
		<line
   stroke-miterlimit="10"
   x1="64"
   y1="0"
   x2="64"
   y2="512"
   id="line38"
   style="fill:none;stroke:#a9ccdb;stroke-miterlimit:10" />
		<line
   stroke-miterlimit="10"
   x1="96"
   y1="0"
   x2="96"
   y2="512"
   id="line40"
   style="fill:none;stroke:#a9ccdb;stroke-miterlimit:10" />
		<line
   stroke-miterlimit="10"
   x1="128"
   y1="0"
   x2="128"
   y2="512"
   id="line42"
   style="fill:none;stroke:#a9ccdb;stroke-miterlimit:10" />
		<line
   stroke-miterlimit="10"
   x1="160"
   y1="0"
   x2="160"
   y2="512"
   id="line44"
   style="fill:none;stroke:#a9ccdb;stroke-miterlimit:10" />
		<line
   stroke-miterlimit="10"
   x1="192"
   y1="0"
   x2="192"
   y2="512"
   id="line46"
   style="fill:none;stroke:#a9ccdb;stroke-miterlimit:10" />
		<line
   stroke-miterlimit="10"
   x1="224"
   y1="0"
   x2="224"
   y2="512"
   id="line48"
   style="fill:none;stroke:#a9ccdb;stroke-miterlimit:10" />
		<line
   stroke-miterlimit="10"
   x1="256"
   y1="0"
   x2="256"
   y2="512"
   id="line50"
   style="fill:none;stroke:#a9ccdb;stroke-miterlimit:10" />
		<line
   stroke-miterlimit="10"
   x1="288"
   y1="0"
   x2="288"
   y2="512"
   id="line52"
   style="fill:none;stroke:#a9ccdb;stroke-miterlimit:10" />
		<line
   stroke-miterlimit="10"
   x1="320"
   y1="0"
   x2="320"
   y2="512"
   id="line54"
   style="fill:none;stroke:#a9ccdb;stroke-miterlimit:10" />
		<line
   stroke-miterlimit="10"
   x1="352"
   y1="0"
   x2="352"
   y2="512"
   id="line56"
   style="fill:none;stroke:#a9ccdb;stroke-miterlimit:10" />
		<line
   stroke-miterlimit="10"
   x1="384"
   y1="0"
   x2="384"
   y2="512"
   id="line58"
   style="fill:none;stroke:#a9ccdb;stroke-miterlimit:10" />
		<line
   stroke-miterlimit="10"
   x1="416"
   y1="0"
   x2="416"
   y2="512"
   id="line60"
   style="fill:none;stroke:#a9ccdb;stroke-miterlimit:10" />
		<line
   stroke-miterlimit="10"
   x1="448"
   y1="0"
   x2="448"
   y2="512"
   id="line62"
   style="fill:none;stroke:#a9ccdb;stroke-miterlimit:10" />
		<line
   stroke-miterlimit="10"
   x1="480"
   y1="0"
   x2="480"
   y2="512"
   id="line64"
   style="fill:none;stroke:#a9ccdb;stroke-miterlimit:10" />
	</g>
	<path
   d="m 851.21065,871.84612 c -9.58704,-9.55183 -27.20265,-22.75945 -38.30826,-40.0249 -15.48269,-24.07029 -38.42029,-54.05283 -48.84947,-74.62389 0,0 12.26228,-15.72337 12.39064,-16.33392 l 72.22169,33.66718 c 31.57647,13.55997 42.23903,18.96588 61.24535,48.83807 23.23642,37.37662 27.56468,64.08804 14.05098,72.71632 -11.4024,7.28026 -52.95247,-4.55411 -72.75093,-24.23886 z M 49.356639,819.8835 c 20.793018,-18.23651 62.213741,-35.11892 77.433811,-43.76001 19.02388,-10.80068 67.59468,-30.66803 67.59468,-30.66803 3.35064,-0.59756 15.42697,19.93499 17.771,23.23762 -24.17952,18.39968 -26.26363,34.3822 -47.1535,52.77861 -18.54144,16.32828 -38.40558,48.70629 -56.83496,66.38168 -8.593608,4.56187 -20.805312,8.95775 -33.078172,11.18407 -16.510899,2.99513 -31.170796,-1.85975 -39.242389,-11.59628 -5.588443,-13.0822 -6.935399,-25.1954 -2.700536,-39.33836 3.458183,-11.54912 9.33039,-21.83552 16.210066,-28.2193 z M 214.12086,195.68145 197.84143,214.49295 C 180.6765,207.50153 160.4934,190.08489 136.72506,178.1371 111.38356,165.39851 85.637513,150.41113 66.627598,134.38676 40.001036,111.94195 26.589833,87.462574 46.015968,64.278644 c 16.735275,-13.57417 33.819099,-11.93277 49.791605,-4.09257 14.027577,8.1532 27.102907,18.17279 38.992087,29.16587 11.10249,10.26563 21.17063,21.380196 30.014,32.616546 16.69804,21.32306 31.56878,45.75658 49.3072,73.71296 z m 178.5734,361.50731 c -18.05794,-23.15285 -24.8541,-50.96883 -23.29399,-78.08801 1.857,-32.27948 15.55297,-63.57176 36.18832,-84.83833 19.02364,-17.23656 42.94483,-26.32207 66.93104,-28.11385 30.66517,-1.04733 58.07248,8.95169 79.13072,27.2158 24.94926,23.66198 37.45401,54.18778 38.92208,84.79929 -2.87835,48.58027 -20.98697,84.94618 -51.33254,105.04026 -23.38794,12.83135 -46.03017,18.08608 -67.42726,16.50343 -29.09299,-2.15193 -55.88416,-16.94412 -79.11837,-42.51859 z M 483.36041,74.282754 c 54.44921,0 104.98997,10.36125 151.62225,31.083766 46.63227,20.72248 87.46918,49.39333 122.51078,86.01258 35.04161,36.61921 62.4009,79.48355 82.07814,128.59308 19.67721,49.10946 29.51586,102.33511 29.51586,159.67679 0,56.20633 -9.97331,108.86429 -29.92007,157.97357 -19.94689,49.10961 -47.57579,92.25788 -82.88694,129.44478 -35.31113,37.18707 -76.2828,66.14168 -122.91508,86.86415 -46.63228,20.72279 -96.63392,31.08393 -150.00494,31.08393 -52.29283,0 -101.62062,-10.64521 -147.98335,-31.93543 C 289.01431,831.78972 240.19588,796.66615 204.61518,759.47924 169.03446,722.292 149.11751,685.02884 129.17073,635.91951 109.22398,586.80997 99.250623,534.7198 99.250623,479.64893 c 0,-53.93508 9.838587,-105.45761 29.515777,-154.5671 44.16453,-100.4372 116.4115,-179.42532 207.41931,-220.99277 44.74541,-19.870826 93.80362,-29.806346 147.1747,-29.806346 z m 1.61728,73.238426 c -88.41265,0 -162.53907,32.36114 -222.37934,97.08354 -29.6506,31.79344 -52.69716,67.98682 -69.13975,108.58021 -16.44261,40.59344 -24.6639,82.74806 -24.6639,126.46404 0,44.85152 8.35608,87.2901 25.06823,127.31576 16.71211,40.02572 39.62395,75.22559 68.73542,105.59967 29.11148,30.37411 62.80531,54.21905 101.08152,71.53499 38.27621,17.31627 78.70878,25.97425 121.29782,25.97425 41.51079,0 81.53909,-8.37424 120.08486,-25.12241 38.54572,-16.74852 73.45252,-41.01925 104.7204,-72.81269 59.84027,-61.31592 89.7604,-138.81229 89.7604,-232.48957 0,-45.98679 -8.08655,-89.13499 -24.25957,-129.44461 C 759.11074,309.8948 736.73802,274.55297 708.16564,244.17887 679.59328,213.8048 646.16899,190.10167 607.8928,173.06948 569.6166,156.03729 528.64491,147.52118 484.97769,147.52118 z m 395.24792,-25.3371 c -13.79113,7.03151 -71.21965,50.79738 -74.93307,53.14364 -3.77264,2.38363 -27.15341,15.75816 -30.43328,16.46888 l -14.5451,3.81295 -14.77046,-15.02924 21.77453,-50.35235 c 2.61688,-2.51856 7.07833,-6.78557 12.32383,-11.73355 5.73158,-5.4065 12.39928,-11.62594 18.6196,-17.2657 7.64866,-6.934806 29.38348,-30.866156 33.10701,-33.458626 45.52433,-24.76633 85.44374,1.18313 48.85694,54.413996 z"
   id="path35"
   inkscape:connector-curvature="0"
   sodipodi:nodetypes="csccccsccsccscscscccssccscccscccccsccssssssssssssccccscssssssscssssscsccccsscc" />
</svg>