<?xml version="1.0" encoding="UTF-8" standalone="no"?>
<svg
   xmlns:dc="http://purl.org/dc/elements/1.1/"
   xmlns:cc="http://creativecommons.org/ns#"
   xmlns:rdf="http://www.w3.org/1999/02/22-rdf-syntax-ns#"
   xmlns:svg="http://www.w3.org/2000/svg"
   xmlns="http://www.w3.org/2000/svg"
   xmlns:sodipodi="http://sodipodi.sourceforge.net/DTD/sodipodi-0.dtd"
   xmlns:inkscape="http://www.inkscape.org/namespaces/inkscape"
   version="1.1"
   id="Layer_1"
   x="0px"
   y="0px"
   width="440"
   height="1024"
   viewBox="0 0 440 1024"
   enable-background="new 0 0 512 512"
   xml:space="preserve"
   inkscape:version="0.48.0 r9654"
   sodipodi:docname="uni2F6E-x2f6e.svg"><metadata
   id="metadata72"><rdf:RDF><cc:Work
       rdf:about=""><dc:format>image/svg+xml</dc:format><dc:type
         rdf:resource="http://purl.org/dc/dcmitype/StillImage" /></cc:Work></rdf:RDF></metadata><defs
   id="defs70" /><sodipodi:namedview
   pagecolor="#ffffff"
   bordercolor="#666666"
   borderopacity="1"
   objecttolerance="10"
   gridtolerance="10"
   guidetolerance="10"
   inkscape:pageopacity="0"
   inkscape:pageshadow="2"
   inkscape:window-width="1152"
   inkscape:window-height="814"
   id="namedview68"
   showgrid="false"
   inkscape:zoom="0.50976562"
   inkscape:cx="-349.40941"
   inkscape:cy="552.82912"
   inkscape:window-x="-8"
   inkscape:window-y="-8"
   inkscape:window-maximized="1"
   inkscape:current-layer="Layer_1" />
	<g
   id="Grid"
   transform="matrix(2.0058658,0,0,2.0004579,0.50293289,-0.7346448)">
		<rect
   x="0"
   stroke-miterlimit="10"
   width="512"
   height="512"
   id="rect4"
   y="0"
   style="fill:none;stroke:#a9ccdb;stroke-miterlimit:10" />
		<line
   stroke-miterlimit="10"
   x1="0"
   y1="32"
   x2="512"
   y2="32"
   id="line6"
   style="fill:none;stroke:#a9ccdb;stroke-miterlimit:10" />
		<line
   stroke-miterlimit="10"
   x1="0"
   y1="64"
   x2="512"
   y2="64"
   id="line8"
   style="fill:none;stroke:#a9ccdb;stroke-miterlimit:10" />
		<line
   stroke-miterlimit="10"
   x1="0"
   y1="96"
   x2="512"
   y2="96"
   id="line10"
   style="fill:none;stroke:#a9ccdb;stroke-miterlimit:10" />
		<line
   stroke-miterlimit="10"
   x1="0"
   y1="128"
   x2="512"
   y2="128"
   id="line12"
   style="fill:none;stroke:#a9ccdb;stroke-miterlimit:10" />
		<line
   stroke-miterlimit="10"
   x1="0"
   y1="160"
   x2="512"
   y2="160"
   id="line14"
   style="fill:none;stroke:#a9ccdb;stroke-miterlimit:10" />
		<line
   stroke-miterlimit="10"
   x1="0"
   y1="192"
   x2="512"
   y2="192"
   id="line16"
   style="fill:none;stroke:#a9ccdb;stroke-miterlimit:10" />
		<line
   stroke-miterlimit="10"
   x1="0"
   y1="224"
   x2="512"
   y2="224"
   id="line18"
   style="fill:none;stroke:#a9ccdb;stroke-miterlimit:10" />
		<line
   stroke-miterlimit="10"
   x1="0"
   y1="256"
   x2="512"
   y2="256"
   id="line20"
   style="fill:none;stroke:#a9ccdb;stroke-miterlimit:10" />
		<line
   stroke-miterlimit="10"
   x1="0"
   y1="288"
   x2="512"
   y2="288"
   id="line22"
   style="fill:none;stroke:#a9ccdb;stroke-miterlimit:10" />
		<line
   stroke-miterlimit="10"
   x1="0"
   y1="320"
   x2="512"
   y2="320"
   id="line24"
   style="fill:none;stroke:#a9ccdb;stroke-miterlimit:10" />
		<line
   stroke-miterlimit="10"
   x1="0"
   y1="352"
   x2="512"
   y2="352"
   id="line26"
   style="fill:none;stroke:#a9ccdb;stroke-miterlimit:10" />
		<line
   stroke-miterlimit="10"
   x1="0"
   y1="384"
   x2="512"
   y2="384"
   id="line28"
   style="fill:none;stroke:#a9ccdb;stroke-miterlimit:10" />
		<line
   stroke-miterlimit="10"
   x1="0"
   y1="416"
   x2="512"
   y2="416"
   id="line30"
   style="fill:none;stroke:#a9ccdb;stroke-miterlimit:10" />
		<line
   stroke-miterlimit="10"
   x1="0"
   y1="448"
   x2="512"
   y2="448"
   id="line32"
   style="fill:none;stroke:#ff0000;stroke-miterlimit:10" />
		<line
   stroke-miterlimit="10"
   x1="0"
   y1="480"
   x2="512"
   y2="480"
   id="line34"
   style="fill:none;stroke:#a9ccdb;stroke-miterlimit:10" />
		<line
   stroke-miterlimit="10"
   x1="32"
   y1="0"
   x2="32"
   y2="512"
   id="line36"
   style="fill:none;stroke:#a9ccdb;stroke-miterlimit:10" />
		<line
   stroke-miterlimit="10"
   x1="64"
   y1="0"
   x2="64"
   y2="512"
   id="line38"
   style="fill:none;stroke:#a9ccdb;stroke-miterlimit:10" />
		<line
   stroke-miterlimit="10"
   x1="96"
   y1="0"
   x2="96"
   y2="512"
   id="line40"
   style="fill:none;stroke:#a9ccdb;stroke-miterlimit:10" />
		<line
   stroke-miterlimit="10"
   x1="128"
   y1="0"
   x2="128"
   y2="512"
   id="line42"
   style="fill:none;stroke:#a9ccdb;stroke-miterlimit:10" />
		<line
   stroke-miterlimit="10"
   x1="160"
   y1="0"
   x2="160"
   y2="512"
   id="line44"
   style="fill:none;stroke:#a9ccdb;stroke-miterlimit:10" />
		<line
   stroke-miterlimit="10"
   x1="192"
   y1="0"
   x2="192"
   y2="512"
   id="line46"
   style="fill:none;stroke:#a9ccdb;stroke-miterlimit:10" />
		<line
   stroke-miterlimit="10"
   x1="224"
   y1="0"
   x2="224"
   y2="512"
   id="line48"
   style="fill:none;stroke:#a9ccdb;stroke-miterlimit:10" />
		<line
   stroke-miterlimit="10"
   x1="256"
   y1="0"
   x2="256"
   y2="512"
   id="line50"
   style="fill:none;stroke:#a9ccdb;stroke-miterlimit:10" />
		<line
   stroke-miterlimit="10"
   x1="288"
   y1="0"
   x2="288"
   y2="512"
   id="line52"
   style="fill:none;stroke:#a9ccdb;stroke-miterlimit:10" />
		<line
   stroke-miterlimit="10"
   x1="320"
   y1="0"
   x2="320"
   y2="512"
   id="line54"
   style="fill:none;stroke:#a9ccdb;stroke-miterlimit:10" />
		<line
   stroke-miterlimit="10"
   x1="352"
   y1="0"
   x2="352"
   y2="512"
   id="line56"
   style="fill:none;stroke:#a9ccdb;stroke-miterlimit:10" />
		<line
   stroke-miterlimit="10"
   x1="384"
   y1="0"
   x2="384"
   y2="512"
   id="line58"
   style="fill:none;stroke:#a9ccdb;stroke-miterlimit:10" />
		<line
   stroke-miterlimit="10"
   x1="416"
   y1="0"
   x2="416"
   y2="512"
   id="line60"
   style="fill:none;stroke:#a9ccdb;stroke-miterlimit:10" />
		<line
   stroke-miterlimit="10"
   x1="448"
   y1="0"
   x2="448"
   y2="512"
   id="line62"
   style="fill:none;stroke:#a9ccdb;stroke-miterlimit:10" />
		<line
   stroke-miterlimit="10"
   x1="480"
   y1="0"
   x2="480"
   y2="512"
   id="line64"
   style="fill:none;stroke:#a9ccdb;stroke-miterlimit:10" />
	</g>
	
<path
   style="fill:#ce8bb5"
   d="m 65.383071,62.506 c 0,1.980851 33.325973,42.12614 84.483099,101.7704 22.63996,26.39601 48.75298,55.13806 49.72729,57.36351 -8.79489,24.69316 -19.55555,29.3011 -32.79177,46.58447 -3.27671,4.27863 -6.53272,9.12314 -9.6904,14.92607 -8.62694,16.05205 -12.70925,34.04927 -14.55501,55.7823 -1.22354,17.27253 1.9996,43.34342 6.69269,54.13487 2.20426,5.06855 10.3063,19.58198 18.00449,32.25206 17.77518,29.25525 27.51862,47.54007 33.09894,73.94039 2.96806,14.04186 4.43719,28.40524 4.64783,43.86176 0.11835,8.68968 0.0471,24.41945 -0.14144,42.82208 -0.22509,21.96238 0.51796,49.06309 0.0812,71.21581 -0.5083,25.78403 -1.07673,46.66866 -1.51171,50.94877 -0.94998,9.34793 -1.82212,11.99818 -3.94835,11.99818 -6.25273,0 -39.49651,-42.97998 -48.60109,-62.07204 -7.35575,-15.4248 -15.92395,-22.78088 -27.43366,-23.10605 -12.13738,-0.34291 -16.85166,11.53764 -16.85166,25.07949 0.16009,4.30364 1.23744,8.24126 2.88578,11.90788 5.29581,11.78016 16.48637,20.76276 22.09716,30.09826 11.01914,18.60194 21.1105,31.05197 25.20061,35.80324 5.22804,6.07319 9.85549,12.19227 14.04701,18.62387 2.7391,4.20294 6.0903,9.78753 9.32665,15.61965 3.44869,6.21474 6.76694,12.71056 9.07509,18.1151 4.20266,9.21958 8.29585,18.51329 11.68721,27.66918 4.32317,11.67163 7.50582,23.11926 8.32078,33.90388 0.58347,7.78317 2.76112,19.52179 6.89136,28.67181 2.97288,6.58604 6.95737,11.83094 12.08713,13.2943 4.31657,-0.28309 7.94699,-5.73218 10.73181,-12.62358 3.9938,-9.88315 6.24842,-22.73276 6.29349,-27.56518 1.83785,-13.74402 4.42387,-24.93405 7.99712,-36.13869 2.67516,-8.38845 5.90366,-16.78508 9.7858,-26.26773 2.36079,-5.52987 6.33613,-11.75861 10.80157,-17.75045 7.85214,-10.53617 17.2198,-20.33977 21.98935,-24.32249 2.65621,-2.21801 10.94612,-12.44455 18.42204,-22.72564 7.47591,-10.28111 18.15571,-24.41612 23.73291,-31.41114 11.71698,-14.69568 18.30249,-29.18645 18.81237,-40.59301 0.79,-13.95707 -10.96008,-19.55152 -20.1001,-17.58664 -11.34896,2.65577 -21.16324,15.63005 -24.71608,21.93306 -11.04647,19.65343 -50.29158,63.36263 -56.89131,63.36263 -1.95362,0 -3.32085,-4.07604 -4.17663,-13.16543 -0.97669,-10.37364 -1.28721,-27.2774 -1.04297,-52.10469 0.21293,-21.64471 -0.23198,-54.14159 -0.98865,-72.21528 -0.65759,-15.70668 -0.8124,-28.5399 -0.38691,-39.8399 0.57066,-15.15579 1.38474,-31.31859 4.23029,-44.19203 6.28105,-28.41589 8.71564,-39.45769 32.66347,-75.18937 7.2098,-10.40231 12.53411,-19.97661 16.31666,-29.46752 7.05412,-17.69959 8.74631,-35.10915 7.30623,-57.05805 -2.17386,-24.26791 -6.05892,-41.07646 -13.5803,-55.86017 -3.01106,-5.91841 -6.6049,-11.51232 -10.90504,-17.13039 -8.76771,-11.21914 -30.81281,-30.46199 -32.70512,-44.69924 0,-3.99341 2.95275,-16.40085 36.21385,-50.50623 13.9555,-14.30974 36.54197,-38.43154 50.19217,-53.60403 13.65018,-15.17248 29.30408,-32.451015 34.78643,-38.396759 5.48235,-5.945743 9.96789,-11.901774 9.96789,-13.235647 0,-2.541715 1.53322,-4.821004 -24.63269,-0.711367 -16.50813,2.592779 -35.65704,12.1881 -58.44657,31.966808 -7.55083,6.553255 -15.50132,14.224435 -23.88785,23.129235 -9.88065,10.49127 -20.27671,24.65752 -29.4422,37.89289 -14.3307,20.69417 -19.99286,36.45035 -21.63331,34.98763 -8.50537,-11.37616 -18.52647,-25.02076 -26.41119,-36.01972 -6.53815,-9.08262 -14.16008,-22.0774 -24.44688,-33.8316 C 165.29488,112.75787 153.81774,103.82344 147.81593,97.006883 121.8276,67.378414 109.771,71.340177 96.13868,65.912601 87.79768,62.591715 65.382989,60.026311 65.383006,62.506 z M 247.06655,296.45951 c 16.29648,24.41461 23.65446,58.41858 14.10935,85.27714 -3.07805,8.43616 -8.06577,16.04111 -15.55676,24.38593 -3.79123,4.22336 -9.75243,11.85979 -13.2471,16.96985 -3.49469,5.11005 -6.35396,8.20559 -6.35396,6.87895 0,-1.32661 -0.45174,-1.88229 -1.00387,-1.23484 -0.55211,0.64747 -3.98918,-3.31194 -7.63792,-8.79865 -3.64875,-5.48675 -9.34683,-13.48587 -12.66241,-17.77587 -3.31558,-4.28997 -8.03266,-11.81072 -10.4824,-16.71277 -11.79102,-23.5944 -7.13973,-70.08144 9.07618,-90.71171 6.3981,-8.1398 12.20054,-11.72499 19.53298,-11.18015 9.4028,1.45205 17.79202,5.73073 24.22591,12.90212 z"
   id="path4548"
   inkscape:connector-curvature="0"
   sodipodi:nodetypes="sscsccsssssssssscscssscscscscscsssscccsssssscscsccssssssssccscsssccsscssssscc" />
	 
</svg>