<?xml version="1.0" encoding="UTF-8" standalone="no"?>
<svg
   xmlns:dc="http://purl.org/dc/elements/1.1/"
   xmlns:cc="http://creativecommons.org/ns#"
   xmlns:rdf="http://www.w3.org/1999/02/22-rdf-syntax-ns#"
   xmlns:svg="http://www.w3.org/2000/svg"
   xmlns="http://www.w3.org/2000/svg"
   xmlns:sodipodi="http://sodipodi.sourceforge.net/DTD/sodipodi-0.dtd"
   xmlns:inkscape="http://www.inkscape.org/namespaces/inkscape"
   version="1.1"
   id="Layer_1"
   x="0px"
   y="0px"
   width="1000"
   height="1000"
   viewBox="0 0 1000 1000"
   enable-background="new 0 0 512 512"
   xml:space="preserve"
   inkscape:version="0.48.0 r9654"
   sodipodi:docname="uni2F49-x2f49.svg"><title
   id="title3049">Chinese Moon</title><metadata
   id="metadata72"><rdf:RDF><cc:Work
       rdf:about=""><dc:format>image/svg+xml</dc:format><dc:type
         rdf:resource="http://purl.org/dc/dcmitype/StillImage" /><dc:title>Chinese Moon</dc:title><dc:description>PARENTHESIZED IDEOGRAPH MOON • Monday ≈ 0028 (  6708 月  0029 )
		 Some Font gliphs ispired from pictures found on archeology websites and on books like &quot;EARLY HISTORY OF THE ALPHABET&quot; \nAN INTRODUCTION TO \nWEST SEMITIC EPIGRAPHY AND PALAEOGRAPHY \n\nBy \nJOSEPH NAVEH \n\nTHE MAGNES PRESS, THE HEBREW UNIVERSITY, JERUSALEM \n\nFirst Edition 1982 \nSecond Revised Edition 1987; \nReprinted 1997 \n\n© \nAll rights reserved by \nThe Magnes Press \nThe Hebrew University \nJerusalem 1997 \n\nISBN 965-223-436-2 (Printed in Israel)</dc:description><dc:identifier>ProtoChinese</dc:identifier></cc:Work></rdf:RDF></metadata><defs
   id="defs70" /><sodipodi:namedview
   pagecolor="#ffffff"
   bordercolor="#666666"
   borderopacity="1"
   objecttolerance="10"
   gridtolerance="10"
   guidetolerance="10"
   inkscape:pageopacity="0"
   inkscape:pageshadow="2"
   inkscape:window-width="1130"
   inkscape:window-height="657"
   id="namedview68"
   showgrid="false"
   inkscape:zoom="0.50976562"
   inkscape:cx="256"
   inkscape:cy="569.86973"
   inkscape:window-x="0"
   inkscape:window-y="0"
   inkscape:window-maximized="0"
   inkscape:current-layer="Layer_1" />
	<g
   id="Grid"
   transform="matrix(1.9598131,0,0,1.9483375,0.47942505,1.9765625)">
		<rect
   x="0"
   stroke-miterlimit="10"
   width="512"
   height="512"
   id="rect4"
   y="0"
   style="fill:none;stroke:#a9ccdb;stroke-miterlimit:10" />
		<line
   stroke-miterlimit="10"
   x1="0"
   y1="32"
   x2="512"
   y2="32"
   id="line6"
   style="fill:none;stroke:#a9ccdb;stroke-miterlimit:10" />
		<line
   stroke-miterlimit="10"
   x1="0"
   y1="64"
   x2="512"
   y2="64"
   id="line8"
   style="fill:none;stroke:#a9ccdb;stroke-miterlimit:10" />
		<line
   stroke-miterlimit="10"
   x1="0"
   y1="96"
   x2="512"
   y2="96"
   id="line10"
   style="fill:none;stroke:#a9ccdb;stroke-miterlimit:10" />
		<line
   stroke-miterlimit="10"
   x1="0"
   y1="128"
   x2="512"
   y2="128"
   id="line12"
   style="fill:none;stroke:#a9ccdb;stroke-miterlimit:10" />
		<line
   stroke-miterlimit="10"
   x1="0"
   y1="160"
   x2="512"
   y2="160"
   id="line14"
   style="fill:none;stroke:#a9ccdb;stroke-miterlimit:10" />
		<line
   stroke-miterlimit="10"
   x1="0"
   y1="192"
   x2="512"
   y2="192"
   id="line16"
   style="fill:none;stroke:#a9ccdb;stroke-miterlimit:10" />
		<line
   stroke-miterlimit="10"
   x1="0"
   y1="224"
   x2="512"
   y2="224"
   id="line18"
   style="fill:none;stroke:#a9ccdb;stroke-miterlimit:10" />
		<line
   stroke-miterlimit="10"
   x1="0"
   y1="256"
   x2="512"
   y2="256"
   id="line20"
   style="fill:none;stroke:#a9ccdb;stroke-miterlimit:10" />
		<line
   stroke-miterlimit="10"
   x1="0"
   y1="288"
   x2="512"
   y2="288"
   id="line22"
   style="fill:none;stroke:#a9ccdb;stroke-miterlimit:10" />
		<line
   stroke-miterlimit="10"
   x1="0"
   y1="320"
   x2="512"
   y2="320"
   id="line24"
   style="fill:none;stroke:#a9ccdb;stroke-miterlimit:10" />
		<line
   stroke-miterlimit="10"
   x1="0"
   y1="352"
   x2="512"
   y2="352"
   id="line26"
   style="fill:none;stroke:#a9ccdb;stroke-miterlimit:10" />
		<line
   stroke-miterlimit="10"
   x1="0"
   y1="384"
   x2="512"
   y2="384"
   id="line28"
   style="fill:none;stroke:#a9ccdb;stroke-miterlimit:10" />
		<line
   stroke-miterlimit="10"
   x1="0"
   y1="416"
   x2="512"
   y2="416"
   id="line30"
   style="fill:none;stroke:#a9ccdb;stroke-miterlimit:10" />
		<line
   stroke-miterlimit="10"
   x1="0"
   y1="448"
   x2="512"
   y2="448"
   id="line32"
   style="fill:none;stroke:#ff0000;stroke-miterlimit:10" />
		<line
   stroke-miterlimit="10"
   x1="0"
   y1="480"
   x2="512"
   y2="480"
   id="line34"
   style="fill:none;stroke:#a9ccdb;stroke-miterlimit:10" />
		<line
   stroke-miterlimit="10"
   x1="32"
   y1="0"
   x2="32"
   y2="512"
   id="line36"
   style="fill:none;stroke:#a9ccdb;stroke-miterlimit:10" />
		<line
   stroke-miterlimit="10"
   x1="64"
   y1="0"
   x2="64"
   y2="512"
   id="line38"
   style="fill:none;stroke:#a9ccdb;stroke-miterlimit:10" />
		<line
   stroke-miterlimit="10"
   x1="96"
   y1="0"
   x2="96"
   y2="512"
   id="line40"
   style="fill:none;stroke:#a9ccdb;stroke-miterlimit:10" />
		<line
   stroke-miterlimit="10"
   x1="128"
   y1="0"
   x2="128"
   y2="512"
   id="line42"
   style="fill:none;stroke:#a9ccdb;stroke-miterlimit:10" />
		<line
   stroke-miterlimit="10"
   x1="160"
   y1="0"
   x2="160"
   y2="512"
   id="line44"
   style="fill:none;stroke:#a9ccdb;stroke-miterlimit:10" />
		<line
   stroke-miterlimit="10"
   x1="192"
   y1="0"
   x2="192"
   y2="512"
   id="line46"
   style="fill:none;stroke:#a9ccdb;stroke-miterlimit:10" />
		<line
   stroke-miterlimit="10"
   x1="224"
   y1="0"
   x2="224"
   y2="512"
   id="line48"
   style="fill:none;stroke:#a9ccdb;stroke-miterlimit:10" />
		<line
   stroke-miterlimit="10"
   x1="256"
   y1="0"
   x2="256"
   y2="512"
   id="line50"
   style="fill:none;stroke:#a9ccdb;stroke-miterlimit:10" />
		<line
   stroke-miterlimit="10"
   x1="288"
   y1="0"
   x2="288"
   y2="512"
   id="line52"
   style="fill:none;stroke:#a9ccdb;stroke-miterlimit:10" />
		<line
   stroke-miterlimit="10"
   x1="320"
   y1="0"
   x2="320"
   y2="512"
   id="line54"
   style="fill:none;stroke:#a9ccdb;stroke-miterlimit:10" />
		<line
   stroke-miterlimit="10"
   x1="352"
   y1="0"
   x2="352"
   y2="512"
   id="line56"
   style="fill:none;stroke:#a9ccdb;stroke-miterlimit:10" />
		<line
   stroke-miterlimit="10"
   x1="384"
   y1="0"
   x2="384"
   y2="512"
   id="line58"
   style="fill:none;stroke:#a9ccdb;stroke-miterlimit:10" />
		<line
   stroke-miterlimit="10"
   x1="416"
   y1="0"
   x2="416"
   y2="512"
   id="line60"
   style="fill:none;stroke:#a9ccdb;stroke-miterlimit:10" />
		<line
   stroke-miterlimit="10"
   x1="448"
   y1="0"
   x2="448"
   y2="512"
   id="line62"
   style="fill:none;stroke:#a9ccdb;stroke-miterlimit:10" />
		<line
   stroke-miterlimit="10"
   x1="480"
   y1="0"
   x2="480"
   y2="512"
   id="line64"
   style="fill:none;stroke:#a9ccdb;stroke-miterlimit:10" />
	</g>
	<path
   d="M 176.37989,115.97687 C 108.33976,160.97261 54.750463,224.95992 54.750463,254.0865 c 0,28.06607 9.033621,18.86061 65.038567,22.18737 117.68906,19.44183 275.56519,40.5402 298.02315,169.3655 7.07604,52.20416 4.18331,75.58784 0.91936,108.74892 -7.93036,80.57092 -60.3085,145.58906 -155.04013,189.99772 -76.03649,34.88501 -55.09957,84.57999 -11.31419,109.12623 14.43743,8.09365 84.00461,14.83436 154.59377,14.97944 162.9694,0.33506 272.49243,-47.72019 371.23906,-162.88749 77.10217,-89.92347 97.77932,-189.19441 86.96488,-285.37503 C 859.43427,369.17339 843.31999,320.31279 818.96922,276.91365 767.81053,196.1979 703.09251,137.75529 629.99442,100.94457 570.62081,72.083443 531.78007,55.206852 434.44861,51.860648 343.98248,52.604154 248.38117,69.642592 176.37989,115.97687 z m 358.82434,0.97765 c 40.74244,9.42703 136.95754,60.64271 191.02935,117.44209 71.78523,83.07284 105.25274,190.17102 92.22715,284.34503 -29.49296,102.62303 -89.36356,178.13719 -166.61171,227.13674 -57.17414,36.26634 -123.86773,58.00795 -194.80991,65.46576 -52.96535,5.34256 -88.02579,0.65909 -142.22078,0.25495 -54.04804,0 -29.51501,-20.11853 4.92899,-45.05004 90.27232,-49.45302 125.08497,-106.41279 148.4936,-202.07078 4.40696,-39.30551 8.54859,-84.57496 -3.02098,-125.0455 -14.71549,-51.47504 -36.26879,-98.36011 -75.92051,-126.58192 -59.59196,-37.12916 -114.47495,-64.36771 -177.28388,-69.85934 -35.6516,-3.10995 -76.01633,-6.37793 -76.47206,-14.06775 18.74296,-30.78929 33.28244,-45.32691 60.82695,-62.31291 31.06167,-19.15493 75.99683,-39.29159 111.73494,-49.02807 81.38837,-21.508749 133.70023,-22.238875 227.09885,-0.62826 z m 75.0099,284.99683 c -15.38797,13.61237 -21.23963,36.16528 -17.84244,56.2665 3.15648,18.6775 14.2981,35.23835 33.19412,40.54372 29.26871,8.21764 56.03399,0.0337 72.17085,-17.14846 12.05599,-12.83696 18.17952,-30.69662 14.98235,-50.49175 -2.80901,-17.39198 -19.7895,-30.83028 -39.94307,-37.20044 -21.7733,-6.88215 -47.2502,-5.51445 -62.56181,8.03043 z"
   id="path66"
   inkscape:connector-curvature="0"
   sodipodi:nodetypes="csccscssssccccsccsccccscccscssssssss" />
</svg>