<?xml version="1.0" encoding="UTF-8" standalone="no"?>
<svg
   xmlns:dc="http://purl.org/dc/elements/1.1/"
   xmlns:cc="http://creativecommons.org/ns#"
   xmlns:rdf="http://www.w3.org/1999/02/22-rdf-syntax-ns#"
   xmlns:svg="http://www.w3.org/2000/svg"
   xmlns="http://www.w3.org/2000/svg"
   xmlns:sodipodi="http://sodipodi.sourceforge.net/DTD/sodipodi-0.dtd"
   xmlns:inkscape="http://www.inkscape.org/namespaces/inkscape"
   version="1.1"
   id="Layer_1"
   x="0px"
   y="0px"
   width="1000"
   height="1000"
   viewBox="0 0 1000 1000"
   enable-background="new 0 0 512 512"
   xml:space="preserve"
   inkscape:version="0.48.0 r9654"
   sodipodi:docname="uni2F6C-x2f6c.svg"><metadata
   id="metadata72"><rdf:RDF><cc:Work
       rdf:about=""><dc:format>image/svg+xml</dc:format><dc:type
         rdf:resource="http://purl.org/dc/dcmitype/StillImage" /></cc:Work></rdf:RDF></metadata><defs
   id="defs70" /><sodipodi:namedview
   pagecolor="#ffffff"
   bordercolor="#666666"
   borderopacity="1"
   objecttolerance="10"
   gridtolerance="10"
   guidetolerance="10"
   inkscape:pageopacity="0"
   inkscape:pageshadow="2"
   inkscape:window-width="1152"
   inkscape:window-height="814"
   id="namedview68"
   showgrid="false"
   inkscape:zoom="0.5"
   inkscape:cx="470.00922"
   inkscape:cy="642.35747"
   inkscape:window-x="-8"
   inkscape:window-y="-8"
   inkscape:window-maximized="1"
   inkscape:current-layer="Layer_1"
   showguides="true"
   inkscape:guide-bbox="true" />
	<g
   id="Grid"
   transform="matrix(1.9559636,0,0,1.952167,0.48404577,0.015356)">
		<rect
   x="0"
   stroke-miterlimit="10"
   width="512"
   height="512"
   id="rect4"
   y="0"
   style="fill:none;stroke:#a9ccdb;stroke-miterlimit:10" />
		<line
   stroke-miterlimit="10"
   x1="0"
   y1="32"
   x2="512"
   y2="32"
   id="line6"
   style="fill:none;stroke:#a9ccdb;stroke-miterlimit:10" />
		<line
   stroke-miterlimit="10"
   x1="0"
   y1="64"
   x2="512"
   y2="64"
   id="line8"
   style="fill:none;stroke:#a9ccdb;stroke-miterlimit:10" />
		<line
   stroke-miterlimit="10"
   x1="0"
   y1="96"
   x2="512"
   y2="96"
   id="line10"
   style="fill:none;stroke:#a9ccdb;stroke-miterlimit:10" />
		<line
   stroke-miterlimit="10"
   x1="0"
   y1="128"
   x2="512"
   y2="128"
   id="line12"
   style="fill:none;stroke:#a9ccdb;stroke-miterlimit:10" />
		<line
   stroke-miterlimit="10"
   x1="0"
   y1="160"
   x2="512"
   y2="160"
   id="line14"
   style="fill:none;stroke:#a9ccdb;stroke-miterlimit:10" />
		<line
   stroke-miterlimit="10"
   x1="0"
   y1="192"
   x2="512"
   y2="192"
   id="line16"
   style="fill:none;stroke:#a9ccdb;stroke-miterlimit:10" />
		<line
   stroke-miterlimit="10"
   x1="0"
   y1="224"
   x2="512"
   y2="224"
   id="line18"
   style="fill:none;stroke:#a9ccdb;stroke-miterlimit:10" />
		<line
   stroke-miterlimit="10"
   x1="0"
   y1="256"
   x2="512"
   y2="256"
   id="line20"
   style="fill:none;stroke:#a9ccdb;stroke-miterlimit:10" />
		<line
   stroke-miterlimit="10"
   x1="0"
   y1="288"
   x2="512"
   y2="288"
   id="line22"
   style="fill:none;stroke:#a9ccdb;stroke-miterlimit:10" />
		<line
   stroke-miterlimit="10"
   x1="0"
   y1="320"
   x2="512"
   y2="320"
   id="line24"
   style="fill:none;stroke:#a9ccdb;stroke-miterlimit:10" />
		<line
   stroke-miterlimit="10"
   x1="0"
   y1="352"
   x2="512"
   y2="352"
   id="line26"
   style="fill:none;stroke:#a9ccdb;stroke-miterlimit:10" />
		<line
   stroke-miterlimit="10"
   x1="0"
   y1="384"
   x2="512"
   y2="384"
   id="line28"
   style="fill:none;stroke:#a9ccdb;stroke-miterlimit:10" />
		<line
   stroke-miterlimit="10"
   x1="0"
   y1="416"
   x2="512"
   y2="416"
   id="line30"
   style="fill:none;stroke:#a9ccdb;stroke-miterlimit:10" />
		<line
   stroke-miterlimit="10"
   x1="0"
   y1="448"
   x2="512"
   y2="448"
   id="line32"
   style="fill:none;stroke:#ff0000;stroke-miterlimit:10" />
		<line
   stroke-miterlimit="10"
   x1="0"
   y1="480"
   x2="512"
   y2="480"
   id="line34"
   style="fill:none;stroke:#a9ccdb;stroke-miterlimit:10" />
		<line
   stroke-miterlimit="10"
   x1="32"
   y1="0"
   x2="32"
   y2="512"
   id="line36"
   style="fill:none;stroke:#a9ccdb;stroke-miterlimit:10" />
		<line
   stroke-miterlimit="10"
   x1="64"
   y1="0"
   x2="64"
   y2="512"
   id="line38"
   style="fill:none;stroke:#a9ccdb;stroke-miterlimit:10" />
		<line
   stroke-miterlimit="10"
   x1="96"
   y1="0"
   x2="96"
   y2="512"
   id="line40"
   style="fill:none;stroke:#a9ccdb;stroke-miterlimit:10" />
		<line
   stroke-miterlimit="10"
   x1="128"
   y1="0"
   x2="128"
   y2="512"
   id="line42"
   style="fill:none;stroke:#a9ccdb;stroke-miterlimit:10" />
		<line
   stroke-miterlimit="10"
   x1="160"
   y1="0"
   x2="160"
   y2="512"
   id="line44"
   style="fill:none;stroke:#a9ccdb;stroke-miterlimit:10" />
		<line
   stroke-miterlimit="10"
   x1="192"
   y1="0"
   x2="192"
   y2="512"
   id="line46"
   style="fill:none;stroke:#a9ccdb;stroke-miterlimit:10" />
		<line
   stroke-miterlimit="10"
   x1="224"
   y1="0"
   x2="224"
   y2="512"
   id="line48"
   style="fill:none;stroke:#a9ccdb;stroke-miterlimit:10" />
		<line
   stroke-miterlimit="10"
   x1="256"
   y1="0"
   x2="256"
   y2="512"
   id="line50"
   style="fill:none;stroke:#a9ccdb;stroke-miterlimit:10" />
		<line
   stroke-miterlimit="10"
   x1="288"
   y1="0"
   x2="288"
   y2="512"
   id="line52"
   style="fill:none;stroke:#a9ccdb;stroke-miterlimit:10" />
		<line
   stroke-miterlimit="10"
   x1="320"
   y1="0"
   x2="320"
   y2="512"
   id="line54"
   style="fill:none;stroke:#a9ccdb;stroke-miterlimit:10" />
		<line
   stroke-miterlimit="10"
   x1="352"
   y1="0"
   x2="352"
   y2="512"
   id="line56"
   style="fill:none;stroke:#a9ccdb;stroke-miterlimit:10" />
		<line
   stroke-miterlimit="10"
   x1="384"
   y1="0"
   x2="384"
   y2="512"
   id="line58"
   style="fill:none;stroke:#a9ccdb;stroke-miterlimit:10" />
		<line
   stroke-miterlimit="10"
   x1="416"
   y1="0"
   x2="416"
   y2="512"
   id="line60"
   style="fill:none;stroke:#a9ccdb;stroke-miterlimit:10" />
		<line
   stroke-miterlimit="10"
   x1="448"
   y1="0"
   x2="448"
   y2="512"
   id="line62"
   style="fill:none;stroke:#a9ccdb;stroke-miterlimit:10" />
		<line
   stroke-miterlimit="10"
   x1="480"
   y1="0"
   x2="480"
   y2="512"
   id="line64"
   style="fill:none;stroke:#a9ccdb;stroke-miterlimit:10" />
	</g>
	
<path
   sodipodi:nodetypes="cccsccccscscsccccsccscscsccccscccsccsccccccscccscscccccccsccccccscccccscsc"
   inkscape:connector-curvature="0"
   id="path3059"
   d="m 347.67443,187.02763 c -19.56238,-10.60719 -38.95786,-9.05803 -60.72319,-5.97924 -48.19375,16.05491 -79.64552,44.68605 -110.9815,83.71582 -20.20856,28.24949 -43.38452,59.14767 -64.04721,91.18582 -27.672446,42.90698 -50.837154,87.85859 -56.329349,131.23081 -8.26118,76.8936 15.65667,151.74436 38.33923,129.11156 49.916679,-111.37865 43.624289,-88.84608 114.230319,-92.8208 63.86525,-26.73846 132.8633,27.35444 197.47222,66.05512 20.8841,5.27356 41.14528,9.49879 61.15423,11.46627 19.85808,1.95263 39.46771,1.68144 59.19125,-1.99583 20.47054,-3.9244 40.48258,-10.78764 58.88529,-19.9828 32.8297,-16.40378 60.53767,-40.22893 76.58997,-68.02955 11.09768,-19.15645 15.16317,-39.99069 15.49563,-59.7053 0.3439,-20.39312 1.53702,-40.58026 5.74909,-59.51741 2.47523,-9.47792 9.02798,-16.64056 21.10793,-22.34197 29.68126,-17.38672 39.41292,-29.49098 61.43837,-43.71909 39.27995,-26.66171 69.00413,-54.67721 96.61768,-82.98239 8.64785,-7.6096 27.76769,-27.56468 47.50258,-49.54073 31.78644,-35.39626 65.16843,-76.03547 58.95843,-78.77633 -9.66771,-2.56931 -44.00716,-3.09031 -54.80801,-2.71838 -11.72674,0.31736 -22.72992,0.65595 -33.13404,1.03304 -49.30794,1.78716 -85.16076,4.43911 -120.81218,9.79379 -62.68756,4.51627 -118.19934,25.77343 -174.24925,36.9324 -10.21019,2.03274 -17.70505,4.53445 -28.21937,5.44383 -24.91783,-5.97341 -54.63731,-12.95608 -84.68108,-14.51017 -23.69486,-1.22569 -53.01549,1.27572 -70.72359,7.89856 -19.50299,7.48727 -35.23922,15.88691 -54.02345,28.75297 z m 289.97204,92.4161 c -6.48164,-11.02991 -33.83766,-47.63962 -38.91176,-56.49972 -6.09546,-10.62262 -13.17358,-20.18827 -11.84592,-21.63403 15.40556,-16.7761 36.2704,-17.66941 57.6537,-25.90828 12.20562,-4.70276 24.34071,-7.693 37.24263,-11.43209 43.37356,-11.68336 93.57804,-17.53124 132.54192,-18.38281 34.47609,-0.76745 69.17305,-7.37394 107.16991,-3.26899 -5.48834,8.2529 -15.46993,18.90832 -27.22079,30.32983 -17.22074,16.73806 -38.24124,35.12139 -54.48818,49.99958 -28.12411,25.65979 -57.87625,49.50355 -87.84972,75.0699 -23.1167,19.65335 -42.07682,34.09986 -61.17632,44.69439 -8.58801,4.76378 -14.36703,6.71798 -18.17371,6.79563 -9.6871,-19.58291 -20.28755,-37.34676 -27.83298,-57.74275 -6.03422,-11.13452 -0.17578,-1.27892 -7.10878,-12.02066 z m 2.45768,170.91988 c -2.66806,21.3449 -10.35609,41.3511 -27.97862,58.6859 -26.01851,26.56632 -55.2577,41.40335 -86.53641,46.98448 -18.89373,3.37126 -38.53163,3.3653 -58.65336,0.5273 -21.36014,-3.01095 -40.73898,-12.60566 -57.88399,-22.58308 -9.70214,-6.32206 -18.24716,-13.98481 -25.74825,-22.64713 -27.61118,-41.30245 -43.61612,-90.34927 -47.31222,-139.17903 -2.77025,-36.59818 1.37411,-73.07443 12.72888,-106.07666 5.99395,-16.96384 14.64242,-31.91604 27.65533,-43.81377 8.23213,-7.52665 18.2109,-13.83091 30.36924,-18.64878 18.43036,-7.15237 37.96838,-9.77795 59.19871,-10.90137 22.93998,-1.13761 45.39476,0.79367 63.86149,11.16068 23.43283,13.51693 41.70574,36.18095 58.6985,59.07252 17.46689,23.76709 31.7463,49.40412 40.84918,75.07351 12.27719,36.46949 14.8325,75.5421 10.75152,112.34543 z m -498.90642,-8.41544 c 9.83753,-22.96997 20.50922,-44.67695 32.21319,-65.28276 12.38721,-21.80871 25.93074,-42.38393 40.86547,-61.91749 10.69924,-13.9341 21.95874,-27.13497 33.76792,-40.83956 12.83041,-14.75061 26.46196,-26.43687 39.35325,-21.87786 7.72158,3.16637 11.89004,15.5969 12.76264,30.04384 0.83604,9.44448 -1.87496,20.0198 -4.43328,30.10997 -7.53464,33.86328 -2.61534,83.05076 5.27388,109.27145 -7.12172,17.45773 -27.3353,27.02636 -49.56058,32.08464 -21.62609,4.92191 -45.15686,5.5734 -60.38439,5.06724 -19.13837,-0.7674 -37.45398,-5.25698 -49.8581,-16.65947 z m 390.46328,-98.58365 c 11.41199,29.76145 14.19377,59.30863 -8.56765,80.84707 -19.07206,13.67727 -37.27892,18.42207 -57.73905,12.88484 -24.37336,-6.67467 -38.40347,-23.96498 -42.92379,-43.9003 -4.28963,-18.91788 -0.0154,-40.21765 12.11049,-57.08782 18.50778,-24.53806 46.69901,-27.46875 68.68256,-18.25565 12.41066,5.2012 22.84289,14.27273 28.43744,25.51186 z" />
</svg>