<?xml version="1.0" encoding="UTF-8" standalone="no"?>
<svg
   xmlns:dc="http://purl.org/dc/elements/1.1/"
   xmlns:cc="http://creativecommons.org/ns#"
   xmlns:rdf="http://www.w3.org/1999/02/22-rdf-syntax-ns#"
   xmlns:svg="http://www.w3.org/2000/svg"
   xmlns="http://www.w3.org/2000/svg"
   xmlns:sodipodi="http://sodipodi.sourceforge.net/DTD/sodipodi-0.dtd"
   xmlns:inkscape="http://www.inkscape.org/namespaces/inkscape"
   version="1.1"
   id="Layer_1"
   x="0px"
   y="0px"
   width="770"
   height="1024"
   viewBox="0 0 770 1024"
   enable-background="new 0 0 512 512"
   xml:space="preserve"
   inkscape:version="0.48.0 r9654"
   sodipodi:docname="uni2F78-x2f78.svg"><metadata
   id="metadata72"><rdf:RDF><cc:Work
       rdf:about=""><dc:format>image/svg+xml</dc:format><dc:type
         rdf:resource="http://purl.org/dc/dcmitype/StillImage" /></cc:Work></rdf:RDF></metadata><defs
   id="defs70" /><sodipodi:namedview
   pagecolor="#ffffff"
   bordercolor="#666666"
   borderopacity="1"
   objecttolerance="10"
   gridtolerance="10"
   guidetolerance="10"
   inkscape:pageopacity="0"
   inkscape:pageshadow="2"
   inkscape:window-width="1152"
   inkscape:window-height="814"
   id="namedview68"
   showgrid="false"
   inkscape:zoom="0.36045873"
   inkscape:cx="597.22267"
   inkscape:cy="680.83275"
   inkscape:window-x="-8"
   inkscape:window-y="-8"
   inkscape:window-maximized="1"
   inkscape:current-layer="Layer_1" />
	
	
<g
   id="g3814"
   transform="translate(-1.1920092,3.7282552)"><g
     transform="matrix(1.99505,0,0,1.9896421,0.49752501,4.8084448)"
     id="Grid-9">
		<rect
   style="fill:none;stroke:#a9ccdb;stroke-miterlimit:10"
   y="0"
   id="rect4-4"
   height="512"
   width="512"
   stroke-miterlimit="10"
   x="0" />
		<line
   style="fill:none;stroke:#a9ccdb;stroke-miterlimit:10"
   id="line6-8"
   y2="32"
   x2="512"
   y1="32"
   x1="0"
   stroke-miterlimit="10" />
		<line
   style="fill:none;stroke:#a9ccdb;stroke-miterlimit:10"
   id="line8-8"
   y2="64"
   x2="512"
   y1="64"
   x1="0"
   stroke-miterlimit="10" />
		<line
   style="fill:none;stroke:#a9ccdb;stroke-miterlimit:10"
   id="line10-2"
   y2="96"
   x2="512"
   y1="96"
   x1="0"
   stroke-miterlimit="10" />
		<line
   style="fill:none;stroke:#a9ccdb;stroke-miterlimit:10"
   id="line12-4"
   y2="128"
   x2="512"
   y1="128"
   x1="0"
   stroke-miterlimit="10" />
		<line
   style="fill:none;stroke:#a9ccdb;stroke-miterlimit:10"
   id="line14-5"
   y2="160"
   x2="512"
   y1="160"
   x1="0"
   stroke-miterlimit="10" />
		<line
   style="fill:none;stroke:#a9ccdb;stroke-miterlimit:10"
   id="line16-5"
   y2="192"
   x2="512"
   y1="192"
   x1="0"
   stroke-miterlimit="10" />
		<line
   style="fill:none;stroke:#a9ccdb;stroke-miterlimit:10"
   id="line18-1"
   y2="224"
   x2="512"
   y1="224"
   x1="0"
   stroke-miterlimit="10" />
		<line
   style="fill:none;stroke:#a9ccdb;stroke-miterlimit:10"
   id="line20-7"
   y2="256"
   x2="512"
   y1="256"
   x1="0"
   stroke-miterlimit="10" />
		<line
   style="fill:none;stroke:#a9ccdb;stroke-miterlimit:10"
   id="line22-1"
   y2="288"
   x2="512"
   y1="288"
   x1="0"
   stroke-miterlimit="10" />
		<line
   style="fill:none;stroke:#a9ccdb;stroke-miterlimit:10"
   id="line24-1"
   y2="320"
   x2="512"
   y1="320"
   x1="0"
   stroke-miterlimit="10" />
		<line
   style="fill:none;stroke:#a9ccdb;stroke-miterlimit:10"
   id="line26-5"
   y2="352"
   x2="512"
   y1="352"
   x1="0"
   stroke-miterlimit="10" />
		<line
   style="fill:none;stroke:#a9ccdb;stroke-miterlimit:10"
   id="line28-2"
   y2="384"
   x2="512"
   y1="384"
   x1="0"
   stroke-miterlimit="10" />
		<line
   style="fill:none;stroke:#a9ccdb;stroke-miterlimit:10"
   id="line30-7"
   y2="416"
   x2="512"
   y1="416"
   x1="0"
   stroke-miterlimit="10" />
		<line
   style="fill:none;stroke:#ff0000;stroke-miterlimit:10"
   id="line32-6"
   y2="448"
   x2="512"
   y1="448"
   x1="0"
   stroke-miterlimit="10" />
		<line
   style="fill:none;stroke:#a9ccdb;stroke-miterlimit:10"
   id="line34-1"
   y2="480"
   x2="512"
   y1="480"
   x1="0"
   stroke-miterlimit="10" />
		<line
   style="fill:none;stroke:#a9ccdb;stroke-miterlimit:10"
   id="line36-4"
   y2="512"
   x2="32"
   y1="0"
   x1="32"
   stroke-miterlimit="10" />
		<line
   style="fill:none;stroke:#a9ccdb;stroke-miterlimit:10"
   id="line38-2"
   y2="512"
   x2="64"
   y1="0"
   x1="64"
   stroke-miterlimit="10" />
		<line
   style="fill:none;stroke:#a9ccdb;stroke-miterlimit:10"
   id="line40-3"
   y2="512"
   x2="96"
   y1="0"
   x1="96"
   stroke-miterlimit="10" />
		<line
   style="fill:none;stroke:#a9ccdb;stroke-miterlimit:10"
   id="line42-2"
   y2="512"
   x2="128"
   y1="0"
   x1="128"
   stroke-miterlimit="10" />
		<line
   style="fill:none;stroke:#a9ccdb;stroke-miterlimit:10"
   id="line44-2"
   y2="512"
   x2="160"
   y1="0"
   x1="160"
   stroke-miterlimit="10" />
		<line
   style="fill:none;stroke:#a9ccdb;stroke-miterlimit:10"
   id="line46-1"
   y2="512"
   x2="192"
   y1="0"
   x1="192"
   stroke-miterlimit="10" />
		<line
   style="fill:none;stroke:#a9ccdb;stroke-miterlimit:10"
   id="line48-6"
   y2="512"
   x2="224"
   y1="0"
   x1="224"
   stroke-miterlimit="10" />
		<line
   style="fill:none;stroke:#a9ccdb;stroke-miterlimit:10"
   id="line50-8"
   y2="512"
   x2="256"
   y1="0"
   x1="256"
   stroke-miterlimit="10" />
		<line
   style="fill:none;stroke:#a9ccdb;stroke-miterlimit:10"
   id="line52-5"
   y2="512"
   x2="288"
   y1="0"
   x1="288"
   stroke-miterlimit="10" />
		<line
   style="fill:none;stroke:#a9ccdb;stroke-miterlimit:10"
   id="line54-7"
   y2="512"
   x2="320"
   y1="0"
   x1="320"
   stroke-miterlimit="10" />
		<line
   style="fill:none;stroke:#a9ccdb;stroke-miterlimit:10"
   id="line56-6"
   y2="512"
   x2="352"
   y1="0"
   x1="352"
   stroke-miterlimit="10" />
		<line
   style="fill:none;stroke:#a9ccdb;stroke-miterlimit:10"
   id="line58-1"
   y2="512"
   x2="384"
   y1="0"
   x1="384"
   stroke-miterlimit="10" />
		<line
   style="fill:none;stroke:#a9ccdb;stroke-miterlimit:10"
   id="line60-8"
   y2="512"
   x2="416"
   y1="0"
   x1="416"
   stroke-miterlimit="10" />
		<line
   style="fill:none;stroke:#a9ccdb;stroke-miterlimit:10"
   id="line62-9"
   y2="512"
   x2="448"
   y1="0"
   x1="448"
   stroke-miterlimit="10" />
		<line
   style="fill:none;stroke:#a9ccdb;stroke-miterlimit:10"
   id="line64-2"
   y2="512"
   x2="480"
   y1="0"
   x1="480"
   stroke-miterlimit="10" />
	</g></g>
	<path
   sodipodi:nodetypes="cscscsccsccscsscsssscscscsscsccsccccccccsssssssss"
   inkscape:connector-curvature="0"
   id="path3790"
   d="m 314.33134,896.73356 c 1.65893,-2.65433 53.95621,-95.71277 54.45099,-99.86486 2.02409,-16.9859 -60.84053,52.31782 -60.73813,41.94451 0.33169,-41.9934 0.24275,-91.36649 -0.93005,-131.53056 -0.6029,-20.65515 -0.84659,-44.48193 -1.06064,-65.0574 -0.5596,-21.3965 -1.42367,-42.87143 -1.04299,-63.00914 0.21977,-11.63787 -0.59021,-15.20023 -0.51914,-26.22 0.0408,-8.06221 -0.84624,-27.84923 -1.28659,-36.34533 -4.09907,-1.56683 -16.9575,-0.66115 -30.99595,-0.55282 -13.96393,0.10446 -29.12766,-0.60195 -33.16628,0.38632 -0.87764,9.37645 0.13398,12.92173 0.16256,22.31511 -0.0735,11.46876 0.24301,28.79909 0.33103,40.43485 0.16094,21.35386 0.62182,43.2592 0.0998,62.5368 -0.6127,21.86842 0.14039,43.60337 -0.0491,63.89287 -0.38968,41.8038 -0.23186,84.85559 -0.72776,127.28459 -0.2418,20.6876 -64.68657,-52.17269 -65.18671,-30.86819 19.80349,29.01282 38.13324,64.839 53.84078,95.34998 4.79773,9.31932 9.35083,18.14276 13.62656,26.12471 12.55108,23.4304 20.8802,39.60986 33.3422,39.79645 7.81446,0.11701 16.64315,-19.10159 25.60581,-38.48798 4.75396,-10.2829 9.54562,-20.61301 14.24361,-28.12991 z M 70.873235,399.5957 c -3.92273,21.84918 -7.19351,43.72208 -10.10234,65.70012 -2.31346,17.54918 -4.41938,34.72939 -7.29199,51.03681 -2.32231,13.06594 -1.01162,28.71402 2.91255,34.7736 9.48851,14.65171 24.73677,6.5431 42.570469,-23.65706 12.599476,-21.33632 30.576406,-60.47337 30.737666,-80.58715 0.11355,-14.11789 0.37008,-19.27901 10.05334,-19.80371 17.18645,1.51812 35.23836,3.81461 53.23373,6.80935 22.46877,3.73922 44.84941,8.56681 65.34732,14.32676 l 325.76324,66.997 c 2.20009,11.64326 -1.09299,19.26709 -1.1224,30.54328 -0.0654,23.56366 -3.68529,46.20244 -5.41606,67.4006 -1.29314,22.05296 3.48384,33.54199 9.65467,34.65906 11.71818,2.12123 23.894,-9.98863 35.61954,-33.27926 17.80499,-36.27204 27.19273,-68.74452 34.34828,-102.17692 10.32413,-64.0579 63.21434,-226.13914 55.70749,-286.29559 C 710.61649,208.7842 705.56373,192.7437 695.00155,180.64272 678.26924,161.97456 652.69136,150.0971 627.72839,139.90983 581.08882,121.43664 262.23206,62.668871 219.12642,74.153541 172.36813,91.845511 156.01715,125.38813 140.56957,166.81097 124.18882,211.1961 77.786205,361.77244 70.873235,399.5957 z M 592.96075,213.97944 c 19.90399,7.9367 34.88208,24.19672 43.32565,41.88925 13.74541,28.80219 -23.17547,173.21668 -51.00533,179.88265 -19.80702,4.74425 -384.24001,-64.1199 -411.19182,-77.88541 -22.66501,-26.47365 19.31829,-164.65214 37.65923,-182.56116 14.03877,-13.70813 33.76427,-22.4636 49.49288,-22.52528 20.42961,0 316.18332,55.00495 331.71939,61.19995 z"
   style="fill:#060606" /></svg>