<?xml version="1.0" encoding="UTF-8" standalone="no"?>
<svg
   xmlns:dc="http://purl.org/dc/elements/1.1/"
   xmlns:cc="http://creativecommons.org/ns#"
   xmlns:rdf="http://www.w3.org/1999/02/22-rdf-syntax-ns#"
   xmlns:svg="http://www.w3.org/2000/svg"
   xmlns="http://www.w3.org/2000/svg"
   xmlns:sodipodi="http://sodipodi.sourceforge.net/DTD/sodipodi-0.dtd"
   xmlns:inkscape="http://www.inkscape.org/namespaces/inkscape"
   version="1.1"
   id="Layer_1"
   x="0px"
   y="0px"
   width="1024"
   height="1024"
   viewBox="0 0 1024 1024"
   enable-background="new 0 0 512 512"
   xml:space="preserve"
   inkscape:version="0.48.0 r9654"
   sodipodi:docname="uni2F3C-x2f3c.svg"><metadata
   id="metadata72"><rdf:RDF><cc:Work
       rdf:about=""><dc:format>image/svg+xml</dc:format><dc:type
         rdf:resource="http://purl.org/dc/dcmitype/StillImage" /><dc:title /></cc:Work></rdf:RDF></metadata><defs
   id="defs70" /><sodipodi:namedview
   pagecolor="#ffffff"
   bordercolor="#666666"
   borderopacity="1"
   objecttolerance="10"
   gridtolerance="10"
   guidetolerance="10"
   inkscape:pageopacity="0"
   inkscape:pageshadow="2"
   inkscape:window-width="1109"
   inkscape:window-height="803"
   id="namedview68"
   showgrid="false"
   inkscape:zoom="0.18022936"
   inkscape:cx="-1101.8568"
   inkscape:cy="797.9659"
   inkscape:window-x="0"
   inkscape:window-y="0"
   inkscape:window-maximized="0"
   inkscape:current-layer="Layer_1" />
	<g
   id="Grid"
   transform="matrix(1.99505,0,0,-1.99505,0.49752501,1023.5025)">
		<rect
   x="0"
   stroke-miterlimit="10"
   width="512"
   height="512"
   id="rect4"
   y="0"
   style="fill:none;stroke:#a9ccdb;stroke-miterlimit:10" />
		<line
   stroke-miterlimit="10"
   x1="0"
   y1="32"
   x2="512"
   y2="32"
   id="line6"
   style="fill:none;stroke:#a9ccdb;stroke-miterlimit:10" />
		<line
   stroke-miterlimit="10"
   x1="0"
   y1="64"
   x2="512"
   y2="64"
   id="line8"
   style="fill:none;stroke:#a9ccdb;stroke-miterlimit:10" />
		<line
   stroke-miterlimit="10"
   x1="0"
   y1="96"
   x2="512"
   y2="96"
   id="line10"
   style="fill:none;stroke:#a9ccdb;stroke-miterlimit:10" />
		<line
   stroke-miterlimit="10"
   x1="0"
   y1="128"
   x2="512"
   y2="128"
   id="line12"
   style="fill:none;stroke:#a9ccdb;stroke-miterlimit:10" />
		<line
   stroke-miterlimit="10"
   x1="0"
   y1="160"
   x2="512"
   y2="160"
   id="line14"
   style="fill:none;stroke:#a9ccdb;stroke-miterlimit:10" />
		<line
   stroke-miterlimit="10"
   x1="0"
   y1="192"
   x2="512"
   y2="192"
   id="line16"
   style="fill:none;stroke:#a9ccdb;stroke-miterlimit:10" />
		<line
   stroke-miterlimit="10"
   x1="0"
   y1="224"
   x2="512"
   y2="224"
   id="line18"
   style="fill:none;stroke:#a9ccdb;stroke-miterlimit:10" />
		<line
   stroke-miterlimit="10"
   x1="0"
   y1="256"
   x2="512"
   y2="256"
   id="line20"
   style="fill:none;stroke:#a9ccdb;stroke-miterlimit:10" />
		<line
   stroke-miterlimit="10"
   x1="0"
   y1="288"
   x2="512"
   y2="288"
   id="line22"
   style="fill:none;stroke:#a9ccdb;stroke-miterlimit:10" />
		<line
   stroke-miterlimit="10"
   x1="0"
   y1="320"
   x2="512"
   y2="320"
   id="line24"
   style="fill:none;stroke:#a9ccdb;stroke-miterlimit:10" />
		<line
   stroke-miterlimit="10"
   x1="0"
   y1="352"
   x2="512"
   y2="352"
   id="line26"
   style="fill:none;stroke:#a9ccdb;stroke-miterlimit:10" />
		<line
   stroke-miterlimit="10"
   x1="0"
   y1="384"
   x2="512"
   y2="384"
   id="line28"
   style="fill:none;stroke:#a9ccdb;stroke-miterlimit:10" />
		<line
   stroke-miterlimit="10"
   x1="0"
   y1="416"
   x2="512"
   y2="416"
   id="line30"
   style="fill:none;stroke:#a9ccdb;stroke-miterlimit:10" />
		<line
   stroke-miterlimit="10"
   x1="0"
   y1="448"
   x2="512"
   y2="448"
   id="line32"
   style="fill:none;stroke:#ff0000;stroke-miterlimit:10" />
		<line
   stroke-miterlimit="10"
   x1="0"
   y1="480"
   x2="512"
   y2="480"
   id="line34"
   style="fill:none;stroke:#a9ccdb;stroke-miterlimit:10" />
		<line
   stroke-miterlimit="10"
   x1="32"
   y1="0"
   x2="32"
   y2="512"
   id="line36"
   style="fill:none;stroke:#a9ccdb;stroke-miterlimit:10" />
		<line
   stroke-miterlimit="10"
   x1="64"
   y1="0"
   x2="64"
   y2="512"
   id="line38"
   style="fill:none;stroke:#a9ccdb;stroke-miterlimit:10" />
		<line
   stroke-miterlimit="10"
   x1="96"
   y1="0"
   x2="96"
   y2="512"
   id="line40"
   style="fill:none;stroke:#a9ccdb;stroke-miterlimit:10" />
		<line
   stroke-miterlimit="10"
   x1="128"
   y1="0"
   x2="128"
   y2="512"
   id="line42"
   style="fill:none;stroke:#a9ccdb;stroke-miterlimit:10" />
		<line
   stroke-miterlimit="10"
   x1="160"
   y1="0"
   x2="160"
   y2="512"
   id="line44"
   style="fill:none;stroke:#a9ccdb;stroke-miterlimit:10" />
		<line
   stroke-miterlimit="10"
   x1="192"
   y1="0"
   x2="192"
   y2="512"
   id="line46"
   style="fill:none;stroke:#a9ccdb;stroke-miterlimit:10" />
		<line
   stroke-miterlimit="10"
   x1="224"
   y1="0"
   x2="224"
   y2="512"
   id="line48"
   style="fill:none;stroke:#a9ccdb;stroke-miterlimit:10" />
		<line
   stroke-miterlimit="10"
   x1="256"
   y1="0"
   x2="256"
   y2="512"
   id="line50"
   style="fill:none;stroke:#a9ccdb;stroke-miterlimit:10" />
		<line
   stroke-miterlimit="10"
   x1="288"
   y1="0"
   x2="288"
   y2="512"
   id="line52"
   style="fill:none;stroke:#a9ccdb;stroke-miterlimit:10" />
		<line
   stroke-miterlimit="10"
   x1="320"
   y1="0"
   x2="320"
   y2="512"
   id="line54"
   style="fill:none;stroke:#a9ccdb;stroke-miterlimit:10" />
		<line
   stroke-miterlimit="10"
   x1="352"
   y1="0"
   x2="352"
   y2="512"
   id="line56"
   style="fill:none;stroke:#a9ccdb;stroke-miterlimit:10" />
		<line
   stroke-miterlimit="10"
   x1="384"
   y1="0"
   x2="384"
   y2="512"
   id="line58"
   style="fill:none;stroke:#a9ccdb;stroke-miterlimit:10" />
		<line
   stroke-miterlimit="10"
   x1="416"
   y1="0"
   x2="416"
   y2="512"
   id="line60"
   style="fill:none;stroke:#a9ccdb;stroke-miterlimit:10" />
		<line
   stroke-miterlimit="10"
   x1="448"
   y1="0"
   x2="448"
   y2="512"
   id="line62"
   style="fill:none;stroke:#a9ccdb;stroke-miterlimit:10" />
		<line
   stroke-miterlimit="10"
   x1="480"
   y1="0"
   x2="480"
   y2="512"
   id="line64"
   style="fill:none;stroke:#a9ccdb;stroke-miterlimit:10" />
	</g>
	
<path
   style="fill:#923932"
   d="m 682.34456,947.84194 c -0.7101,-0.55898 -1.29109,-4.3322 -1.29109,-8.38488 3.42184,-11.37664 12.62153,-13.15765 24.34608,-17.20085 15.10023,-5.2073 33.01792,-11.88261 33.75236,-23.6057 3.47321,-21.46863 28.55282,-36.6201 49.23918,-47.35608 20.21766,-8.47386 14.5178,-69.65456 25.32048,-73.18186 3.45707,0 4.84154,-0.8242 4.84154,-2.88224 0,-3.65572 5.06318,-4.13947 36.31152,-3.46928 l 23.72352,0.50881 c 1.50373,43.87727 -26.32531,99.74618 -64.809,126.56536 -29.84281,18.76486 -74.57864,28.26245 -74.62719,31.16298 0,2.83954 -1.03844,3.61489 -4.84153,3.61489 -11.22674,2.62267 -33.74245,15.22492 -42.28274,15.24511 -4.61562,0 -8.973,-0.45728 -9.68308,-1.01626 z m -92.31198,-72.92268 c 0,-3.04902 -0.9683,-3.81128 -4.84153,-3.81128 -4.51162,0 -4.84154,-0.51375 -4.84154,-7.53904 l 0,-7.53906 c -6.12623,-0.30976 -12.25246,-0.61954 -18.37869,-0.92931 -5.65679,-8.15257 -7.33902,-17.2304 -6.45659,-23.3214 0.61557,-4.249 3.19129,-5.62031 3.53253,-10.21793 0,-2.7324 -1.04499,-3.81129 -3.6915,-3.81129 -5.27092,-5.40505 -9.27125,-9.9466 -11.98212,-15.98645 -5.22332,-11.63761 -7.54078,-25.0751 -18.12722,-34.58791 -3.71055,-3.35166 -6.77151,-6.71146 -7.39594,-11.88263 1.11114,-6.44166 5.99533,-21.35776 -2.27393,-21.39133 -3.91042,0 -4.94466,-0.75547 -4.94466,-3.61182 0,-2.98931 -1.25165,-3.77467 -7.26231,-4.55676 -3.99426,-0.51972 -10.41631,-0.9525 -14.27122,-0.96172 -6.58736,-0.0159 -7.07945,-0.35896 -8.18171,-5.706 -1.7802,-8.63575 0.47422,-17.17851 4.53338,-17.17851 4.0673,0 6.31294,-8.44918 4.55098,-17.12307 -0.82974,-4.08473 -2.1385,-5.74465 -4.52939,-5.74465 -11.30884,-6.4286 -2.37504,-22.57666 7.24658,-22.74737 l 8.23062,-0.12043 0,-16.64498 c 0,-9.15474 0.26666,-18.72409 0.91321,-20.05039 0.82505,-1.69256 3.97408,-1.41751 9.94537,-1.41751 l 8.50756,0 0,15.24515 c 0,15.02426 0.0664,15.24515 4.59204,15.24515 4.04081,0 4.74442,0.90425 5.8614,7.53272 0.9604,5.69922 2.21928,7.77007 5.17196,8.50779 1.40986,0.17989 5.67062,10.23325 5.67736,10.6385 0,3.72659 0.32278,3.81129 14.52461,3.81129 14.20184,0 14.52461,0.0848 14.52461,3.81129 0,3.04902 0.96831,3.81128 4.84154,3.81128 3.87323,0 4.84153,0.76226 4.84153,3.81129 0,3.04903 0.96831,3.81128 4.84154,3.81128 4.73394,0 4.84153,0.25409 4.84153,11.43387 0,11.17977 -0.10767,11.43386 -4.84153,11.43386 -4.57746,0 -4.84154,0.45735 -4.84154,8.38483 0,7.92748 0.26408,8.38484 4.84154,8.38484 3.82755,0 4.84153,0.77094 4.84153,3.68102 0,3.55362 0.46861,3.67633 13.54159,3.5456 7.44787,-0.0744 13.93781,0.17651 14.42208,0.55775 0.48429,0.38122 1.29528,6.73659 1.80224,14.12301 0.50697,7.38645 1.27557,13.70842 1.70803,14.04887 0.43247,0.34043 4.85696,1.05821 9.83217,1.59502 8.79584,0.94905 9.04587,0.86496 9.04587,-3.04247 0,-4.39367 3.04155,-4.99052 21.05937,-4.13254 6.41101,-3.20179 19.33118,-0.44234 23.87354,-0.83851 10.48166,-0.91418 9.34784,-0.63437 16.4199,-0.5953 9.62319,2.26532 7.62747,-6.73702 13.20684,-6.83697 10.41021,-8.39119 27.75629,-34.87393 39.25546,-52.45027 5.55096,-8.48458 7.07972,-15.42569 10.86416,-16.24322 3.55001,-0.7014 4.21312,-1.6908 3.54283,-5.28598 -0.45356,-2.4327 -1.38397,-4.36658 -2.06758,-4.29753 -3.61879,0.36553 -5.28517,-0.50483 -5.55872,-2.90342 -2.9306,-9.79041 -4.26187,-15.12097 -9.58327,-17.53496 -19.40113,-9.36155 -29.49162,-15.01964 -51.57347,-17.34397 -7.10166,-0.76627 -9.00059,-1.60699 -9.46921,-4.19241 -0.37433,-2.0651 -2.24215,-3.41839 -5.16779,-3.74425 -27.71511,-6.47017 -32.62939,-32.76172 -60.29497,-37.3739 -4.0238,-0.63352 -5.80985,-1.81054 -5.80985,-3.82876 -8.18275,-7.57514 -28.04712,-16.97033 -44.16907,-26.12314 -17.16263,-6.45073 -26.30256,-26.60468 -41.38218,-35.61235 -6.41985,-3.29421 -9.59235,-3.15232 -11.28465,-5.12559 -1.19449,-1.39281 -1.65154,-3.8394 -1.99258,-9.29189 -0.20511,-3.53305 0.0242,-7.09786 1.15431,-10.55114 3.04908,-2.66775 8.08873,-2.92477 13.64842,-1.87134 9.20086,1.74334 20.31639,6.58529 25.7005,10.51966 4.1005,2.98712 8.2564,5.75286 13.55032,6.99475 14.05464,1.21667 26.17005,11.53418 38.07162,17.1636 8.93061,4.22417 17.9551,7.86531 26.40719,11.61775 12.00848,5.27439 25.30744,11.06874 35.47711,11.41843 6.59017,2.78634 20.38941,10.60383 21.6332,15.85293 1.1624,2.54165 3.93319,3.37342 6.75999,3.98792 3.52325,0.39259 18.08881,0.83032 24.12667,-0.64291 -2.03425,-2.07146 3.16858,-5.51603 2.14204,-7.94721 -1.18367,-2.80328 -3.97317,-6.05372 -3.05753,-8.11918 0.81336,-1.83473 3.55791,-2.04812 5.03619,-3.72671 4.9223,-5.58932 8.19388,-11.6018 8.24854,-22.37289 l 2e-5,-19.55861 -4.84154,0 C 723.02148,507.29066 692.949,491.11262 689.15545,474.3529 c -0.43291,-2.96175 -1.712,-4.19242 -4.35738,-4.19242 -3.05749,0 -3.7446,-1.08398 -3.7446,-5.90749 0,-10.39591 -2.00034,-15.22678 -6.51492,-15.7336 -11.9811,-12.59397 -43.67298,-46.06042 -43.83706,-58.39594 0,-3.00939 -0.98043,-3.81129 -4.6598,-3.81129 -15.52242,-11.16537 -39.64487,-48.90682 -60.70094,-53.6379 -3.71668,-0.33664 -5.50392,-1.46618 -5.91558,-3.73862 -0.59497,-3.28425 -6.73788,-5.12859 -17.08172,-5.12859 -15.44714,-2.66998 -25.42977,-6.09806 -41.39513,-6.09806 l 0,6.86032 c -3.14189,12.29295 -24.91255,22.10892 -35.34322,21.79113 -12.76103,-0.40711 -14.09542,-0.75195 -14.64369,-3.78435 -5.70046,-8.06095 -19.68833,-24.3439 -19.73122,-29.53062 0,-2.56494 -0.79283,-4.27779 -1.76186,-3.80634 -0.969,0.47144 -3.14769,0.43854 -4.84153,-0.0732 -2.67235,-0.80723 -3.07968,-4.94143 -3.07968,-31.25747 l 0,-30.32719 -4.84154,0 c -4.7938,0 -4.84175,-0.13157 -4.86286,-13.33951 -0.0317,-19.90007 -1.4108,-24.77336 -7.01021,-24.77336 -4.41025,0 -4.58816,-0.43441 -4.58816,-11.20385 0,-6.16212 0.56362,-16.4526 1.2525,-22.86772 1.07218,-9.98503 1.76905,-11.66388 4.84153,-11.66388 3.19524,0 3.58905,-1.33822 3.58905,-12.19612 0,-11.17977 -0.32277,-12.19612 -3.87323,-12.19612 -3.52894,0 -3.87323,-1.01633 -3.87323,-11.43387 0,-10.41751 0.34429,-11.43386 3.87323,-11.43386 2.84038,0 3.87323,-1.01633 3.87323,-3.81128 -4.51241,-9.22722 -8.82822,-11.30193 6.03571,-11.43387 4.66517,0 5.58398,0.62713 5.58398,3.8113 0,3.04902 0.9683,3.81128 4.84153,3.81128 3.87324,0 4.84154,0.76225 4.84154,3.81129 0,3.74248 0.27509,3.81128 15.23967,3.81128 12.04614,-2.98554 5.91478,8.41423 10.0024,4.97758 7.04838,-5.9259 10.43578,-0.81106 12.35278,4.94379 1.06648,3.20152 1.67789,-3.72411 2.2114,12.48765 0.54356,16.51737 1.37065,30.33257 1.83795,30.70043 13.44442,1.13896 25.57295,2.3842 38.57214,4.02435 5.6445,0.72932 10.95129,1.83823 14.55722,4.282 4.20522,3.01413 3.23172,6.98498 -0.84775,7.18738 -3.87323,0 -4.84154,0.76225 -4.84154,3.81129 0,3.21842 0.90376,3.81128 5.80984,3.81128 10.94095,-9.44352 10.5338,-0.84926 20.81861,0.54602 18.53785,-10.70411 20.42796,16.15658 28.5651,16.22365 4.51876,0 4.84155,0.50818 4.84155,7.62257 l 0,7.62258 9.49671,0 9.49671,0 1.3698,15.82039 c -1.21329,10.22274 8.0838,17.11714 9.65291,23.81052 3.03355,9.18205 7.27824,4.61656 15.95697,7.93979 4.18093,1.57168 1.62949,5.81974 2.98718,5.96317 2.86634,0.21195 5.77342,0.83238 8.54789,1.11647 4.17037,11.28987 7.54079,13.34271 2.52687,21.5754 l 0,16.00741 c 0,8.80408 0.65361,15.92616 1.45247,15.82687 7.52764,-0.93566 8.2306,0.0562 8.2306,11.6144 24.352,56.24622 75.07009,95.35702 105.01004,144.49027 2.39477,4.34105 -0.48352,9.61661 2.89879,12.79079 3.10053,2.64914 6.592,6.51046 8.4669,10.72329 4.81093,20.95046 -11.65949,49.38892 23.06053,50.76354 l 9.68307,0 0,8.38484 c 0.44974,15.58731 21.3402,18.14082 23.90621,29.49742 0.75942,4.36031 -2.2872,6.605 -5.06221,8.61365 -2.73605,1.84418 -3.37562,3.04439 -1.8374,3.44802 3.92596,1.458 2.81879,6.99811 0.3609,9.35858 -2.13785,2.0531 -5.433,1.05903 -5.61746,0.97925 -1.44646,-0.70373 -2.06697,12.06501 -2.06697,42.53302 l 0,43.53866 -4.76008,0 c -4.59756,0 -4.77937,0.40335 -5.32569,11.81499 -4.20819,17.93782 -18.81323,26.55148 -19.37899,41.26085 2.20339,10.45664 -1.7323,13.17809 -6.97026,15.45342 -4.98316,2.16465 -11.14497,3.92552 -14.3207,11.55886 -3.02974,7.60414 -1.27921,12.32979 -4.27351,12.45577 -4.43292,6.53686 -40.61516,8.986 -38.89657,9.61692 1.92735,1.8152 1.45176,1.90085 -0.35021,2.32985 -3.17769,3.17242 -31.11174,36.28125 -46.95947,16.30232 -3.51438,-3.20597 -17.80826,-6.28327 -26.97426,-4.01333 -7.0473,1.74525 -9.64548,7.78572 -10.6525,12.42299 -0.66021,3.1443 -1.20997,10.00462 -1.22169,15.24515 4.0057,17.87639 -38.68608,26.03893 -38.75361,20.96207 z m -259.27486,-20.2049 c 1.03384,-5.18002 -0.55868,-6.32358 -9.4304,-6.77171 -15.56791,-2.45068 -26.81752,-14.24581 -38.04422,-15.60605 -4.68095,-0.55257 -10.74337,-0.5636 -13.47202,-0.0245 -10.09801,-8.75843 -84.26507,-24.87982 -86.09061,-33.83455 -15.66876,-13.52375 -48.61475,-12.92947 -56.50322,-12.74236 -2.64833,0 -3.90266,-1.5578 -4.86507,-6.04212 -1.57608,-7.34361 -0.33037,-9.20304 6.16552,-9.20304 4.67772,0 4.90763,-0.3477 3.78026,-5.71693 -0.66022,-3.14431 -1.20999,-7.89882 -1.2217,-10.56557 -0.0174,-3.86128 -0.90865,-4.94785 -4.37871,-5.33581 -9.30611,-5.70519 -15.23208,-14.67761 -24.80475,-15.74453 l -9.570154,-1.03615 0,-15.10209 c 0,-15.09255 -0.0039,-15.10209 -4.841536,-15.10209 -13.23566,-4.81563 -26.286516,-26.81812 -16.773309,-41.09355 2.426131,-3.44325 6.799725,-4.64281 11.931772,-4.6419 l 0,-19.05644 0,-19.05643 -4.841536,0 c -4.841536,0 -4.841536,0 -4.841536,-15.24515 0,-15.24515 0,-15.24515 4.841536,-15.24515 4.760838,0 4.841536,-0.20326 4.841536,-12.19612 0,-11.99285 0.08076,-12.19612 4.841537,-12.19612 l 4.841536,0 0,-26.67901 c -1.474986,-18.6295 -0.06491,-38.58782 0,-54.75784 0,-23.06458 0.683489,-25.91442 5.707513,-23.79779 3.117411,1.31336 3.483251,-0.20774 4.647951,-19.3254 0.69533,-11.41303 1.26423,-26.13074 1.26423,-32.70604 0,-10.93872 0.32927,-11.95508 3.87322,-11.95508 3.64317,0 3.87375,-1.01865 3.88204,-17.15079 0.005,-9.43293 0.57125,-24.83441 1.25866,-34.22551 2.37986,-6.78477 5.45921,-16.49954 7.21524,-24.29287 2.03688,-9.03967 4.1596,-15.97334 7.5409,-20.33358 3.00821,-3.2457 3.66174,-4.6032 4.26587,-11.47555 6.03189,-13.61743 24.23135,-67.68257 34.90403,-69.36543 4.57746,0 4.84154,-0.45736 4.84154,-8.38483 0,-7.92748 -0.26408,-8.38483 -4.84154,-8.38483 -4.73394,0 -4.84154,-0.25408 -4.84154,-11.43387 2.843,-7.83549 -2.48474,-11.50609 -8.26616,-14.35961 -5.33017,-2.6308 -11.04598,-4.56709 -11.09998,-8.43236 4.05403,-12.81791 19.35753,-20.53372 31.51593,-33.53861 1.66973,-1.84196 7.18897,-3.2229 7.21636,-4.75605 0,-3.61522 0.37644,-3.70525 15.49292,-3.70525 15.2347,0 15.49292,-0.0635 15.49292,-3.81129 8.41115,-5.51792 15.24979,-14.07396 20.13843,-18.01806 1.32787,-1.01216 4.9343,-1.03837 14.72062,-1.03837 15.23471,0 15.49292,-0.0635 15.49292,-3.811295 0,-3.726577 0.32278,-3.811284 14.52461,-3.811284 7.98853,0 14.52461,0.629927 14.52461,1.399845 -6.35831,9.966214 -9.60846,-0.2766 -9.68308,16.984314 l 0,12.10614 c -8.81097,-1.02462 -13.84028,3.54527 -13.76187,11.81217 -0.28674,1.5106 -0.80359,2.18948 -1.41142,2.5621 -5.142,1.68515 -4.20411,4.07959 -4.19285,7.73119 0,7.34161 0.47732,8.38484 3.83634,8.38484 0.33252,2.00156 5.48317,4.24347 11.04299,6.28144 6.77338,2.4828 14.15405,4.66291 14.16989,5.73697 6.62476,9.42383 10.08181,-1.45414 9.28377,14.27947 l -0.56901,11.05274 -18.78417,1.36494 c -16.96445,1.23269 -18.84057,1.67576 -19.36615,4.57355 -0.35994,1.9845 -2.24434,3.39445 -4.93935,3.69577 -3.84591,0.42997 -4.35738,1.36945 -4.35738,8.0037 0,6.50019 0.52371,7.51653 3.87322,7.51653 2.84038,0 3.87324,1.01635 3.87324,3.81129 -0.0448,3.7985 4.21521,6.39055 7.84642,9.74124 13.52155,12.47701 43.56232,22.85377 41.87459,29.34414 -0.84115,2.53208 0.2928,2.83878 10.49534,2.83878 8.87638,0 11.43839,0.51221 11.43839,2.28677 0.59865,2.03935 2.0792,2.29778 0.79224,4.25339 -0.26409,1.32003 -1.8009,1.021 2.38963,1.05907 5.27029,0.0295 6.5012,2.65548 6.5012,13.86866 0,8.60756 0.22261,9.02241 4.84154,9.02241 4.0884,0 4.84153,0.71144 4.84153,4.57354 0,3.8621 -0.75313,4.57355 -4.84153,4.57355 -3.55046,0 -4.84154,0.81306 -4.84154,3.04903 0,2.62474 3.97854,3.77754 6.57176,2.72833 1.82814,-0.38033 2.55326,1.09943 2.59871,1.60919 0.18645,2.20081 0.32011,5.35001 0.35971,9.00198 0.15243,14.05763 0.13769,14.10176 -4.68864,14.10176 -4.44705,0 -4.84154,0.559 -4.84154,6.86032 0,6.30133 0.39449,6.86032 4.84154,6.86032 l 4.84153,0 0,16.00741 0,16.00741 -9.68307,0 c -9.03754,0 -9.68307,-0.25409 -9.68307,-3.8113 0,-3.6034 -0.58099,-3.81128 -10.65138,-3.81128 -14.32559,2.83586 -7.72602,-7.55056 -15.19277,-7.62257 -12.33631,-8.97758 -40.2898,-30.48808 -44.82676,-45.64658 -1.0776,-6.16791 -2.07605,-7.61888 -5.50742,-8.0037 -8.52206,-4.69741 -5.38648,-7.0383 -14.95547,-8.10481 l -9.57016,-1.03615 0,-7.47951 c 0,-6.96181 -0.33511,-7.47951 -4.84154,-7.47951 -3.55046,0 -4.84153,-0.81308 -4.84153,-3.04904 0,-2.63675 -1.29109,-3.04903 -9.54838,-3.04903 -12.55022,0.59477 -19.48816,10.82128 -19.50085,18.94969 0,6.11328 -0.5542,14.29794 -1.23153,18.18815 -1.0702,6.14645 -1.83134,7.07309 -5.80984,7.07309 l -4.57831,0 0,19.81869 c 0,18.4049 -0.26063,19.81871 -3.65342,19.81871 -2.59673,0 -3.90564,1.3527 -4.52539,4.67684 -2.81347,9.35688 4.85252,79.07864 2.61902,79.17148 -0.92758,0 -2.29469,5.48825 -3.03801,12.19611 -1.77697,16.40343 -20.42353,23.95454 -20.45142,35.06385 2.0946,17.74341 0,27.36543 0,53.35803 l 20.33445,0 20.33445,0 c -1.96814,-11.32909 8.82566,-5.05742 10.03254,-11.05274 16.67254,0.12088 40.82343,-11.02115 55.32821,-11.50065 23.08963,-2.85998 12.01574,-7.93692 33.4066,-7.93692 -0.27993,6.67711 5.10316,18.67265 -1.37373,18.71295 -19.50716,4.04995 -29.85568,44.32857 -43.19865,49.89022 -10.49201,13.71336 -11.99613,22.84747 -28.7769,22.86773 -18.4704,0 -25.41807,1.27453 -25.41807,4.66285 -12.35544,4.86937 -28.40341,27.29077 -35.82737,27.35197 -4.73394,0 -4.84153,0.25409 -4.84153,11.43386 0,11.17976 -0.10767,11.43385 -4.84154,11.43385 -4.51876,0 -4.84153,0.50817 -4.84153,7.62258 0,7.11441 0.32277,7.62258 4.84153,7.62258 3.87323,0 4.84154,0.76225 4.84154,3.81128 0,3.04903 0.96831,3.81129 4.84153,3.81129 4.51876,0 4.84154,0.50817 4.84154,7.62258 0,7.54741 0.0622,7.62431 6.294,7.79843 12.12229,1.41949 43.16774,19.3374 44.05799,26.30368 0,4.3662 6.20906,5.49294 30.41065,5.51849 l 15.88603,0.0168 2.01685,5.71693 c 1.10925,3.14431 2.02171,6.66022 2.02763,7.81314 0.008,1.53389 1.63428,1.84061 6.06273,1.14339 3.32855,-0.52406 7.64777,-0.95283 9.59823,-0.95283 3.05892,0 3.62451,-1.51903 4.11531,-11.05273 0.50898,-9.88709 0.97748,-11.05273 4.44223,-11.05273 3.30706,0 3.95878,-1.16995 4.45858,-8.00371 0.56205,-7.685 0.38854,-8.0037 -4.35738,-8.0037 -4.64022,2e-5 -4.94275,-0.46653 -4.94275,-7.62256 0,-7.45319 -0.12916,-7.62257 -5.80984,-7.62257 -3.45121,-1.10487 -13.51802,-8.8493 -13.5563,-11.43386 0,-2.79495 1.03286,-3.81129 3.87323,-3.81129 3.35679,0 3.87323,-1.01635 3.87323,-7.62258 0,-6.60623 -0.51644,-7.62258 -3.87323,-7.62258 -3.40376,0 -3.87323,-1.01634 -3.87323,-8.38483 0,-7.17284 0.52324,-8.38483 3.61985,-8.38483 3.79289,0 6.69069,-8.05963 6.73546,-18.46921 0.0211,-4.90641 0.1129,-4.95467 9.4122,-4.95467 5.16499,0 15.36489,1.63699 23.51412,1.09471 l 14.8168,-0.98596 0,4.79725 c 0,4.02095 0.73749,4.79725 4.55737,4.79725 4.27915,0 4.63383,0.712 5.80984,11.66388 0.68887,6.41513 1.25249,18.42068 1.25249,26.67901 0,13.99878 0.26217,15.01513 3.87322,15.01513 3.56438,0 3.87323,1.01635 3.87323,12.7456 0,7.01007 0.55421,15.92848 1.23154,19.81869 1.07021,6.14645 1.83134,7.0731 5.80984,7.0731 3.21211,0 4.57831,0.86716 4.57831,2.90597 0,2.33104 1.91574,3.1134 9.68307,3.95435 l 9.68308,1.04838 0,30.34724 c 0.49515,11.3803 0.50307,21.95691 0.38008,32.55796 -0.10512,9.06846 -0.30628,18.1548 -0.38008,27.77739 0,19.75691 -0.44911,23.3699 -2.90493,23.3699 -1.5977,0 -2.90492,1.32584 -2.90492,2.94629 -1.29917,4.80906 -14.25387,6.07343 -23.95491,5.63188 -5.57798,-0.25387 -10.08024,-1.07172 -10.67266,-2.10406 z"
   id="hearth"
   inkscape:connector-curvature="0"
   sodipodi:nodetypes="ccscccssccccccccssccsccscccsscssscccscscsssccssssssssssccscsscsccscsscccscccccsccsccscccccsssccccssccccsccccccscscssssssssssccssscsssccccscccscccccccccssccccccccccscscsccscccccsccccccccccsssccccscccccssssscccssssccscccsscscccsccssscccccccscccssssscscscccsssssccsssscccssccccccsssccsscsscccccccccccccccsssssssccscscsssssssccsssssssscssssssssssccscscscc" />
	 
</svg>