<?xml version="1.0" encoding="UTF-8" standalone="no"?>
<svg
   xmlns:dc="http://purl.org/dc/elements/1.1/"
   xmlns:cc="http://creativecommons.org/ns#"
   xmlns:rdf="http://www.w3.org/1999/02/22-rdf-syntax-ns#"
   xmlns:svg="http://www.w3.org/2000/svg"
   xmlns="http://www.w3.org/2000/svg"
   xmlns:sodipodi="http://sodipodi.sourceforge.net/DTD/sodipodi-0.dtd"
   xmlns:inkscape="http://www.inkscape.org/namespaces/inkscape"
   version="1.1"
   id="Layer_1"
   x="0px"
   y="0px"
   width="1024"
   height="1024"
   viewBox="0 0 1024 1024"
   enable-background="new 0 0 512 512"
   xml:space="preserve"
   inkscape:version="0.48.0 r9654"
   sodipodi:docname="uni2F5E-x2f5e.svg"><metadata
   id="metadata72"><rdf:RDF><cc:Work
       rdf:about=""><dc:format>image/svg+xml</dc:format><dc:type
         rdf:resource="http://purl.org/dc/dcmitype/StillImage" /></cc:Work></rdf:RDF></metadata><defs
   id="defs70" /><sodipodi:namedview
   pagecolor="#ffffff"
   bordercolor="#666666"
   borderopacity="1"
   objecttolerance="10"
   gridtolerance="10"
   guidetolerance="10"
   inkscape:pageopacity="0"
   inkscape:pageshadow="2"
   inkscape:window-width="1152"
   inkscape:window-height="814"
   id="namedview68"
   showgrid="false"
   inkscape:zoom="0.50976562"
   inkscape:cx="248.78492"
   inkscape:cy="647.26414"
   inkscape:window-x="-8"
   inkscape:window-y="-8"
   inkscape:window-maximized="1"
   inkscape:current-layer="Layer_1" />
	<g
   id="Grid"
   transform="matrix(1.9896421,0,0,1.9896527,0.49482107,4.8084202)">
		<rect
   x="0"
   stroke-miterlimit="10"
   width="512"
   height="512"
   id="rect4"
   y="0"
   style="fill:none;stroke:#a9ccdb;stroke-miterlimit:10" />
		<line
   stroke-miterlimit="10"
   x1="0"
   y1="32"
   x2="512"
   y2="32"
   id="line6"
   style="fill:none;stroke:#a9ccdb;stroke-miterlimit:10" />
		<line
   stroke-miterlimit="10"
   x1="0"
   y1="64"
   x2="512"
   y2="64"
   id="line8"
   style="fill:none;stroke:#a9ccdb;stroke-miterlimit:10" />
		<line
   stroke-miterlimit="10"
   x1="0"
   y1="96"
   x2="512"
   y2="96"
   id="line10"
   style="fill:none;stroke:#a9ccdb;stroke-miterlimit:10" />
		<line
   stroke-miterlimit="10"
   x1="0"
   y1="128"
   x2="512"
   y2="128"
   id="line12"
   style="fill:none;stroke:#a9ccdb;stroke-miterlimit:10" />
		<line
   stroke-miterlimit="10"
   x1="0"
   y1="160"
   x2="512"
   y2="160"
   id="line14"
   style="fill:none;stroke:#a9ccdb;stroke-miterlimit:10" />
		<line
   stroke-miterlimit="10"
   x1="0"
   y1="192"
   x2="512"
   y2="192"
   id="line16"
   style="fill:none;stroke:#a9ccdb;stroke-miterlimit:10" />
		<line
   stroke-miterlimit="10"
   x1="0"
   y1="224"
   x2="512"
   y2="224"
   id="line18"
   style="fill:none;stroke:#a9ccdb;stroke-miterlimit:10" />
		<line
   stroke-miterlimit="10"
   x1="0"
   y1="256"
   x2="512"
   y2="256"
   id="line20"
   style="fill:none;stroke:#a9ccdb;stroke-miterlimit:10" />
		<line
   stroke-miterlimit="10"
   x1="0"
   y1="288"
   x2="512"
   y2="288"
   id="line22"
   style="fill:none;stroke:#a9ccdb;stroke-miterlimit:10" />
		<line
   stroke-miterlimit="10"
   x1="0"
   y1="320"
   x2="512"
   y2="320"
   id="line24"
   style="fill:none;stroke:#a9ccdb;stroke-miterlimit:10" />
		<line
   stroke-miterlimit="10"
   x1="0"
   y1="352"
   x2="512"
   y2="352"
   id="line26"
   style="fill:none;stroke:#a9ccdb;stroke-miterlimit:10" />
		<line
   stroke-miterlimit="10"
   x1="0"
   y1="384"
   x2="512"
   y2="384"
   id="line28"
   style="fill:none;stroke:#a9ccdb;stroke-miterlimit:10" />
		<line
   stroke-miterlimit="10"
   x1="0"
   y1="416"
   x2="512"
   y2="416"
   id="line30"
   style="fill:none;stroke:#a9ccdb;stroke-miterlimit:10" />
		<line
   stroke-miterlimit="10"
   x1="0"
   y1="448"
   x2="512"
   y2="448"
   id="line32"
   style="fill:none;stroke:#ff0000;stroke-miterlimit:10" />
		<line
   stroke-miterlimit="10"
   x1="0"
   y1="480"
   x2="512"
   y2="480"
   id="line34"
   style="fill:none;stroke:#a9ccdb;stroke-miterlimit:10" />
		<line
   stroke-miterlimit="10"
   x1="32"
   y1="0"
   x2="32"
   y2="512"
   id="line36"
   style="fill:none;stroke:#a9ccdb;stroke-miterlimit:10" />
		<line
   stroke-miterlimit="10"
   x1="64"
   y1="0"
   x2="64"
   y2="512"
   id="line38"
   style="fill:none;stroke:#a9ccdb;stroke-miterlimit:10" />
		<line
   stroke-miterlimit="10"
   x1="96"
   y1="0"
   x2="96"
   y2="512"
   id="line40"
   style="fill:none;stroke:#a9ccdb;stroke-miterlimit:10" />
		<line
   stroke-miterlimit="10"
   x1="128"
   y1="0"
   x2="128"
   y2="512"
   id="line42"
   style="fill:none;stroke:#a9ccdb;stroke-miterlimit:10" />
		<line
   stroke-miterlimit="10"
   x1="160"
   y1="0"
   x2="160"
   y2="512"
   id="line44"
   style="fill:none;stroke:#a9ccdb;stroke-miterlimit:10" />
		<line
   stroke-miterlimit="10"
   x1="192"
   y1="0"
   x2="192"
   y2="512"
   id="line46"
   style="fill:none;stroke:#a9ccdb;stroke-miterlimit:10" />
		<line
   stroke-miterlimit="10"
   x1="224"
   y1="0"
   x2="224"
   y2="512"
   id="line48"
   style="fill:none;stroke:#a9ccdb;stroke-miterlimit:10" />
		<line
   stroke-miterlimit="10"
   x1="256"
   y1="0"
   x2="256"
   y2="512"
   id="line50"
   style="fill:none;stroke:#a9ccdb;stroke-miterlimit:10" />
		<line
   stroke-miterlimit="10"
   x1="288"
   y1="0"
   x2="288"
   y2="512"
   id="line52"
   style="fill:none;stroke:#a9ccdb;stroke-miterlimit:10" />
		<line
   stroke-miterlimit="10"
   x1="320"
   y1="0"
   x2="320"
   y2="512"
   id="line54"
   style="fill:none;stroke:#a9ccdb;stroke-miterlimit:10" />
		<line
   stroke-miterlimit="10"
   x1="352"
   y1="0"
   x2="352"
   y2="512"
   id="line56"
   style="fill:none;stroke:#a9ccdb;stroke-miterlimit:10" />
		<line
   stroke-miterlimit="10"
   x1="384"
   y1="0"
   x2="384"
   y2="512"
   id="line58"
   style="fill:none;stroke:#a9ccdb;stroke-miterlimit:10" />
		<line
   stroke-miterlimit="10"
   x1="416"
   y1="0"
   x2="416"
   y2="512"
   id="line60"
   style="fill:none;stroke:#a9ccdb;stroke-miterlimit:10" />
		<line
   stroke-miterlimit="10"
   x1="448"
   y1="0"
   x2="448"
   y2="512"
   id="line62"
   style="fill:none;stroke:#a9ccdb;stroke-miterlimit:10" />
		<line
   stroke-miterlimit="10"
   x1="480"
   y1="0"
   x2="480"
   y2="512"
   id="line64"
   style="fill:none;stroke:#a9ccdb;stroke-miterlimit:10" />
	</g>
	<path
   d="m 191.49886,232.32418 c 0.36854,-23.05754 -2.02985,-48.6606 0.37284,-73.50985 0.37602,-3.43102 2.04227,-12.64355 3.19375,-15.86006 1.02892,-5.05636 2.59458,-11.19905 4.66225,-16.24838 31.80255,-47.536041 75.92015,-57.713375 122.47977,-57.674555 39.54487,0.02781 80.61538,-0.559857 122.98053,-0.948249 44.4033,-0.407078 86.83993,0.975495 127.90551,0.858046 39.32478,-0.881125 88.70586,-4.969693 130.26189,1.959826 41.94724,6.994755 76.00012,25.163259 100.65025,57.819862 3.43016,5.05008 6.44187,10.56505 9.00047,16.61762 1.82785,4.32395 3.42445,8.92228 4.77716,13.8215 4.31521,27.7856 4.03304,61.09395 -1.54521,86.5233 -1.51786,6.68717 -2.39873,11.59715 -4.62047,16.3762 -2.77864,4.71702 -5.89892,9.20438 -9.26829,13.42644 -10.36477,12.98781 -23.0867,23.4653 -35.47215,30.39598 -17.77097,9.88437 -38.01516,13.27543 -65.40597,15.14398 -26.97429,1.79308 -52.18111,1.07231 -63.51942,1.44866 -18.95047,3.78345 -84.47644,-1.35282 -96.60695,4.03431 1.07731,18.63824 -5.14978,59.6884 2.08235,72.39858 6.4743,2.30247 14.9232,2.40044 29.7519,2.61133 43.91307,1.36503 90.78283,-0.12576 128.00003,1.6291 24.52871,-0.77891 45.44714,2.70754 63.18392,10.10281 12.10067,5.04532 22.72046,11.90998 31.99548,20.48078 12.49758,11.41084 24.38569,31.33613 27.64128,51.31941 0.55726,6.57196 0.91612,7.65532 1.23159,13.48463 0.16355,3.02258 0.3155,7.33445 0.47736,11.62105 0.67741,22.24787 1.20369,43.10007 -0.71816,60.53416 -0.95921,5.56275 -1.83505,10.7649 -2.62772,15.60642 -1.94786,11.89814 -2.0132,10.57882 -2.95609,18.12119 -2.65279,15.91723 -10.99648,37.01941 -22.27118,52.93663 -27.81914,25.52803 -57.7624,45.44511 -94.13571,48.21039 -19.87719,0.98667 -40.6894,1.10957 -61.51734,0.87084 -23.29585,-0.26701 -46.61138,-0.98642 -68.66023,-1.45563 -11.69796,-0.24892 -23.03938,-0.42742 -33.83215,-0.43056 0,14.09788 -0.97576,20.58784 -0.97576,33.93844 l -0.97576,80.71434 c 131.57376,0.29299 281.78293,-31.02723 398.44679,-42.87282 13.26435,-1.32644 8.92673,1.61994 18.21179,4.93603 9.28507,3.3161 8.77413,7.627 14.07991,12.93275 l 0,15.91722 -15.91714,15.91722 c -22.54941,3.9793 -51.06755,8.62182 -85.55461,13.92756 -34.48707,5.30573 -74.94326,10.94307 -121.36817,16.91203 -46.42492,5.96896 -86.88107,10.94309 -121.36819,14.9224 -34.48713,3.9793 -63.00535,7.2954 -85.55462,9.94826 l 0,14.9224 0,20.89135 0,20.89135 0,14.9224 -3.97928,7.95861 c -1.32644,2.65287 -2.65285,4.97413 -3.97929,6.96379 -1.32643,1.98965 -2.65285,3.64768 -3.97928,4.97413 l -3.97928,3.9793 -9.94821,0 c -3.97929,0 -8.29019,-0.33161 -12.93268,-0.99483 -4.64249,-0.66321 -8.29018,-1.65803 -10.94303,-2.98447 -2.65285,-1.32645 -4.64249,-2.65286 -5.96893,-3.97931 l 0,-87.54472 c -23.8757,-2.65286 -53.38872,-6.30057 -88.53907,-10.94309 -35.15035,-4.64251 -75.6064,-9.94826 -121.36817,-15.91722 -45.76177,-5.96896 -85.55461,-10.61147 -119.37853,-13.92755 -33.82392,-3.31609 -62.010521,-5.63734 -84.559792,-6.96379 l -15.917137,-15.91724 0,-15.9172 7.958568,-23.87583 0.994821,0 2.984464,0 c 140.554166,8.49369 290.518926,31.25086 419.204786,38.88661 0.14644,-29.86915 0.39399,-51.496 1.18077,-74.68265 0.75798,-21.26459 0.83314,-35.30534 -3.0546,-36.61507 -14.84553,1.57943 -22.88603,-0.85033 -36.51564,-0.89375 -18.62729,-0.0593 -42.58686,1.77105 -61.70152,0.79476 -20.43913,-1.04394 -44.49501,-0.0836 -64.42104,-2.93666 -33.7483,-4.03689 -68.10608,-18.20835 -90.88489,-40.56274 -20.459,-20.0778 -30.81895,-31.16796 -35.78088,-60.01363 -0.35143,-3.11874 -1.51471,-15.22398 -1.51471,-18.58269 l 0.98084,-13.87641 c 0,-13.60439 0.98085,-38.05711 0.98085,-51.66149 l 0,-9.92677 0,-9.96977 c 0,-11.93792 6.40754,-22.84098 13.7029,-39.42142 12.892,-19.69843 29.18918,-31.52475 47.48364,-39.11539 19.47264,-8.07949 41.20809,-11.36015 63.50856,-14.2272 23.81941,-3.003 46.49371,-4.25479 63.29064,-4.78562 22.5433,-0.72561 40.60034,0.80188 64.37598,-0.41652 18.34496,-3.03068 22.91042,2.63778 32.00624,-3.82764 4.29636,-6.50803 2.79668,-43.18739 2.91308,-70.70004 -44.56928,-2.0556 -61.82367,-1.06753 -96.3299,-2.97812 -21.39337,-0.37698 -44.70483,0.57842 -67.1707,-2.46838 -18.13554,-2.38308 -45.14917,-7.60659 -65.65236,-17.30969 -25.15226,-11.90326 -44.45684,-30.33899 -53.35024,-46.43491 -1.74011,-3.14937 -3.08164,-6.20917 -3.9904,-9.11293 -1.25317,-4.59149 -2.02919,-9.58398 -2.24211,-15.11915 z m 72.81718,18.30496 c 14.90894,11.87649 35.36713,17.60877 54.39214,20.78224 43.49258,6.57599 90.69455,4.66068 129.66832,5.16475 42.26338,0.57116 82.02827,1.10922 122.95441,0.14186 43.87756,-0.99278 87.50488,2.81408 130.77229,-2.30474 13.05427,-1.9226 24.90298,-3.1074 35.70306,-7.129 4.70013,-1.75018 9.20166,-4.03762 13.51751,-7.15697 6.47415,-4.7005 7.99211,-8.72126 10.70403,-12.92189 10.92013,-27.74125 15.86857,-65.24821 4.79817,-94.58313 -1.75509,-4.65076 -7.88525,-8.67553 -10.5993,-11.82109 -2.4781,-1.35291 -8.9022,-6.52707 -11.46251,-7.72119 -15.12836,-7.05568 -27.70384,-14.32866 -44.80593,-16.98845 -42.02713,-1.80449 -84.13542,-1.93996 -125.71092,-1.57459 -43.93315,0.38611 -87.27136,1.33148 -129.29029,1.45779 -40.57718,1.77504 -89.66909,-2.27714 -130.22411,3.30606 -18.40267,2.5335 -30.58139,2.86504 -44.32922,8.8034 -2.98983,1.29146 -6.05388,2.84809 -9.27229,4.75022 -3.97116,2.87242 -7.14818,6.67076 -9.64014,11.13663 -8.92383,25.61315 -11.02063,59.99808 -0.97632,86.37472 1.68531,4.42567 3.71243,8.62589 6.10645,12.52139 1.46829,2.38917 5.99427,5.63693 7.69465,7.76199 z m 432.93313,399.00179 c 17.10904,-0.47792 29.1028,-3.22253 38.35071,-7.92223 13.20619,-6.71124 20.81301,-17.4093 29.72048,-31.18668 3.06992,-10.35427 6.80476,-18.63495 7.64192,-35.73786 0.73316,-14.97826 1.7164,-44.39656 1.22689,-57.76543 -0.12714,-22.73302 -9.6546,-46.42682 -28.77263,-56.38432 -13.15295,-6.60503 -29.2663,-8.22743 -45.32029,-9.7159 -54.60937,0.11937 -77.29903,-0.73735 -126.86684,-1.44781 -44.33365,0.26488 -89.49655,-1.30147 -130.71613,-1.00908 -18.15704,0.5851 -43.06236,-0.1156 -63.40048,0.80453 -19.61276,0.40457 -42.95515,1.76468 -64.25747,5.86963 -26.18602,5.04603 -49.28936,14.23971 -58.59285,30.90467 -5.02961,9.01882 -8.91785,13.89679 -10.52626,30.16294 -1.32643,13.26434 -1.65803,43.15487 -0.99482,60.39853 0.94602,11.96877 4.15895,21.1292 9.27273,28.74491 15.70981,21.67585 41.29679,29.89514 64.52855,35.99907 19.41962,5.03551 39.5813,7.75324 60.53381,7.64331 33.64063,-0.21162 64.57723,0.23328 96.61579,0.75346 21.18007,0.24116 42.3239,-0.36534 63.44147,-0.002 30.35877,-1.11361 65.26848,-1.89541 94.63858,-1.25548 22.69815,0.0549 44.86844,2.29688 63.47684,1.14575 z"
   id="path66"
   inkscape:connector-curvature="0"
   sodipodi:nodetypes="cccccscscscccscccccccsccsccscccssccccscccssscccccssscsssccssscccccccccsscscccccscscccccccssccccccsccscscscscsccsscccccccccccscccccsccccc" />
	
</svg>