<?xml version="1.0" encoding="UTF-8" standalone="no"?>
<svg
   xmlns:dc="http://purl.org/dc/elements/1.1/"
   xmlns:cc="http://creativecommons.org/ns#"
   xmlns:rdf="http://www.w3.org/1999/02/22-rdf-syntax-ns#"
   xmlns:svg="http://www.w3.org/2000/svg"
   xmlns="http://www.w3.org/2000/svg"
   xmlns:sodipodi="http://sodipodi.sourceforge.net/DTD/sodipodi-0.dtd"
   xmlns:inkscape="http://www.inkscape.org/namespaces/inkscape"
   version="1.1"
   id="Layer_1"
   x="0px"
   y="0px"
   width="900"
   height="1024"
   viewBox="0 0 900 1024"
   enable-background="new 0 0 512 512"
   xml:space="preserve"
   inkscape:version="0.48.0 r9654"
   sodipodi:docname="uni2F76-x2f76.svg"><metadata
   id="metadata72"><rdf:RDF><cc:Work
       rdf:about=""><dc:format>image/svg+xml</dc:format><dc:type
         rdf:resource="http://purl.org/dc/dcmitype/StillImage" /><dc:title /></cc:Work></rdf:RDF></metadata><defs
   id="defs70" /><sodipodi:namedview
   pagecolor="#ffffff"
   bordercolor="#666666"
   borderopacity="1"
   objecttolerance="10"
   gridtolerance="10"
   guidetolerance="10"
   inkscape:pageopacity="0"
   inkscape:pageshadow="2"
   inkscape:window-width="1152"
   inkscape:window-height="814"
   id="namedview68"
   showgrid="false"
   inkscape:zoom="0.36045873"
   inkscape:cx="197.99935"
   inkscape:cy="483.02524"
   inkscape:window-x="-8"
   inkscape:window-y="-8"
   inkscape:window-maximized="1"
   inkscape:current-layer="Layer_1" />
	<g
   id="Grid"
   transform="matrix(1.9896421,0,0,1.9896421,1.8819426,6.1955448)">
		<rect
   x="0"
   stroke-miterlimit="10"
   width="512"
   height="512"
   id="rect4"
   y="0"
   style="fill:none;stroke:#a9ccdb;stroke-miterlimit:10" />
		<line
   stroke-miterlimit="10"
   x1="0"
   y1="32"
   x2="512"
   y2="32"
   id="line6"
   style="fill:none;stroke:#a9ccdb;stroke-miterlimit:10" />
		<line
   stroke-miterlimit="10"
   x1="0"
   y1="64"
   x2="512"
   y2="64"
   id="line8"
   style="fill:none;stroke:#a9ccdb;stroke-miterlimit:10" />
		<line
   stroke-miterlimit="10"
   x1="0"
   y1="96"
   x2="512"
   y2="96"
   id="line10"
   style="fill:none;stroke:#a9ccdb;stroke-miterlimit:10" />
		<line
   stroke-miterlimit="10"
   x1="0"
   y1="128"
   x2="512"
   y2="128"
   id="line12"
   style="fill:none;stroke:#a9ccdb;stroke-miterlimit:10" />
		<line
   stroke-miterlimit="10"
   x1="0"
   y1="160"
   x2="512"
   y2="160"
   id="line14"
   style="fill:none;stroke:#a9ccdb;stroke-miterlimit:10" />
		<line
   stroke-miterlimit="10"
   x1="0"
   y1="192"
   x2="512"
   y2="192"
   id="line16"
   style="fill:none;stroke:#a9ccdb;stroke-miterlimit:10" />
		<line
   stroke-miterlimit="10"
   x1="0"
   y1="224"
   x2="512"
   y2="224"
   id="line18"
   style="fill:none;stroke:#a9ccdb;stroke-miterlimit:10" />
		<line
   stroke-miterlimit="10"
   x1="0"
   y1="256"
   x2="512"
   y2="256"
   id="line20"
   style="fill:none;stroke:#a9ccdb;stroke-miterlimit:10" />
		<line
   stroke-miterlimit="10"
   x1="0"
   y1="288"
   x2="512"
   y2="288"
   id="line22"
   style="fill:none;stroke:#a9ccdb;stroke-miterlimit:10" />
		<line
   stroke-miterlimit="10"
   x1="0"
   y1="320"
   x2="512"
   y2="320"
   id="line24"
   style="fill:none;stroke:#a9ccdb;stroke-miterlimit:10" />
		<line
   stroke-miterlimit="10"
   x1="0"
   y1="352"
   x2="512"
   y2="352"
   id="line26"
   style="fill:none;stroke:#a9ccdb;stroke-miterlimit:10" />
		<line
   stroke-miterlimit="10"
   x1="0"
   y1="384"
   x2="512"
   y2="384"
   id="line28"
   style="fill:none;stroke:#a9ccdb;stroke-miterlimit:10" />
		<line
   stroke-miterlimit="10"
   x1="0"
   y1="416"
   x2="512"
   y2="416"
   id="line30"
   style="fill:none;stroke:#a9ccdb;stroke-miterlimit:10" />
		<line
   stroke-miterlimit="10"
   x1="0"
   y1="448"
   x2="512"
   y2="448"
   id="line32"
   style="fill:none;stroke:#ff0000;stroke-miterlimit:10" />
		<line
   stroke-miterlimit="10"
   x1="0"
   y1="480"
   x2="512"
   y2="480"
   id="line34"
   style="fill:none;stroke:#a9ccdb;stroke-miterlimit:10" />
		<line
   stroke-miterlimit="10"
   x1="32"
   y1="0"
   x2="32"
   y2="512"
   id="line36"
   style="fill:none;stroke:#a9ccdb;stroke-miterlimit:10" />
		<line
   stroke-miterlimit="10"
   x1="64"
   y1="0"
   x2="64"
   y2="512"
   id="line38"
   style="fill:none;stroke:#a9ccdb;stroke-miterlimit:10" />
		<line
   stroke-miterlimit="10"
   x1="96"
   y1="0"
   x2="96"
   y2="512"
   id="line40"
   style="fill:none;stroke:#a9ccdb;stroke-miterlimit:10" />
		<line
   stroke-miterlimit="10"
   x1="128"
   y1="0"
   x2="128"
   y2="512"
   id="line42"
   style="fill:none;stroke:#a9ccdb;stroke-miterlimit:10" />
		<line
   stroke-miterlimit="10"
   x1="160"
   y1="0"
   x2="160"
   y2="512"
   id="line44"
   style="fill:none;stroke:#a9ccdb;stroke-miterlimit:10" />
		<line
   stroke-miterlimit="10"
   x1="192"
   y1="0"
   x2="192"
   y2="512"
   id="line46"
   style="fill:none;stroke:#a9ccdb;stroke-miterlimit:10" />
		<line
   stroke-miterlimit="10"
   x1="224"
   y1="0"
   x2="224"
   y2="512"
   id="line48"
   style="fill:none;stroke:#a9ccdb;stroke-miterlimit:10" />
		<line
   stroke-miterlimit="10"
   x1="256"
   y1="0"
   x2="256"
   y2="512"
   id="line50"
   style="fill:none;stroke:#a9ccdb;stroke-miterlimit:10" />
		<line
   stroke-miterlimit="10"
   x1="288"
   y1="0"
   x2="288"
   y2="512"
   id="line52"
   style="fill:none;stroke:#a9ccdb;stroke-miterlimit:10" />
		<line
   stroke-miterlimit="10"
   x1="320"
   y1="0"
   x2="320"
   y2="512"
   id="line54"
   style="fill:none;stroke:#a9ccdb;stroke-miterlimit:10" />
		<line
   stroke-miterlimit="10"
   x1="352"
   y1="0"
   x2="352"
   y2="512"
   id="line56"
   style="fill:none;stroke:#a9ccdb;stroke-miterlimit:10" />
		<line
   stroke-miterlimit="10"
   x1="384"
   y1="0"
   x2="384"
   y2="512"
   id="line58"
   style="fill:none;stroke:#a9ccdb;stroke-miterlimit:10" />
		<line
   stroke-miterlimit="10"
   x1="416"
   y1="0"
   x2="416"
   y2="512"
   id="line60"
   style="fill:none;stroke:#a9ccdb;stroke-miterlimit:10" />
		<line
   stroke-miterlimit="10"
   x1="448"
   y1="0"
   x2="448"
   y2="512"
   id="line62"
   style="fill:none;stroke:#a9ccdb;stroke-miterlimit:10" />
		<line
   stroke-miterlimit="10"
   x1="480"
   y1="0"
   x2="480"
   y2="512"
   id="line64"
   style="fill:none;stroke:#a9ccdb;stroke-miterlimit:10" />
	</g>
	
<path
   style="fill:#5e465e;fill-opacity:0.78260869"
   d="m 181.76048,66.535875 c -3.39356,2.85549 -9.66004,12.48039 -13.92551,21.38865 -7.12935,14.889305 -10.22254,24.003095 -24.74269,72.901675 -7.46126,25.12681 -9.84234,43.96399 -8.55087,67.64783 1.12238,20.58313 2.97484,29.33264 15.37566,72.62194 3.44825,12.03734 7.84866,27.70577 9.77867,34.81874 2.79565,10.30326 4.80769,13.82252 9.89614,17.30931 7.08206,4.85289 21.27137,7.6832 28.9087,5.76634 7.81549,-1.96155 34.2272,-43.64413 44.87879,-70.82706 9.00454,-22.97963 18.37311,-63.94891 18.42657,-80.58051 0.0643,-20.01122 -1.56143,-25.68606 -19.32728,-67.46321 -7.95422,-18.70469 -16.89549,-41.355325 -19.86949,-50.334735 l -5.40725,-16.32621 -12.12167,-6.05727 c -6.66692,-3.3315 -13.25296,-6.05727 -14.63568,-6.05727 -1.3827,0 -5.29056,2.3363 -8.68409,5.19178 z m 475.8418,13.23165 c -1.97949,2.4142 -8.86278,36.225195 -19.53993,95.980995 -7.16301,40.08852 -8.79229,94.30052 -3.74642,124.65601 8.12196,48.86084 24.31062,82.04272 42.21967,86.5376 16.55565,4.1552 41.16647,-27.57032 56.2026,-72.45012 8.5621,-25.55617 15.96612,-66.80526 15.96612,-88.95001 0,-21.9595 -4.0382,-39.09084 -16.55428,-70.22858 -17.12507,-42.60411 -29.74579,-60.344425 -49.68483,-69.839575 -15.44088,-7.35306 -22.23429,-8.91223 -24.86293,-5.70632 z m -239.61347,10.9238 c -6.26121,7.16826 -9.9037,24.325235 -14.50672,68.329895 -1.75089,16.7384 -4.87954,35.46827 -6.95255,41.62192 -12.07717,35.85052 -9.23315,76.38982 8.98262,128.04059 12.54877,35.58209 12.71628,35.84152 27.83388,43.10998 21.38215,10.28044 38.93704,-0.64061 56.24569,-34.99088 9.46966,-18.79323 18.36589,-58.16632 18.36589,-81.28403 0,-17.02714 -3.82407,-42.95504 -9.04804,-61.34739 -6.28571,-22.13045 -21.71286,-58.35531 -28.06871,-65.90883 -2.68739,-3.19377 -6.98627,-9.93207 -9.55311,-14.97402 -5.50011,-10.80372 -10.9618,-16.139635 -22.39094,-21.875295 -10.19387,-5.11575 -16.86886,-5.34623 -20.90801,-0.72194 z M 59.082808,460.09158 l 0.531573,49.78986 380.232869,-1.76261 388.51249,0.99727 -0.53227,-49.29492 -0.53229,-49.29489 -79.58568,-1.222 c -43.77213,-0.6721 -218.60244,-1.3436 -388.51179,-1.49223 L 58.551236,410.3017 z M 173.44172,560.29656 c -2.59495,1.78726 -5.8977,4.63366 -7.33943,6.32533 -5.95267,6.98458 -20.58691,41.08755 -26.24451,61.159 -3.33351,11.82637 -7.78864,27.32218 -9.90026,34.43515 -12.4182,41.83054 -10.81385,69.84229 7.7067,134.55794 10.81913,37.80488 14.07303,45.85638 21.26141,52.60952 10.81353,10.15879 34.19789,3.61442 47.75443,-13.36462 15.03258,-18.82765 22.72663,-37.26831 35.05001,-84.00586 13.23524,-50.19576 12.11851,-61.72963 -11.19866,-115.66233 -6.86009,-15.86741 -14.9632,-36.46021 -18.00694,-45.76178 -6.45901,-19.73867 -7.24516,-20.91908 -17.37276,-26.08578 -14.15607,-7.22191 -16.63467,-7.70215 -21.70999,-4.20657 z m 485.7287,25.63246 c -7.54804,5.3759 -11.38029,10.46888 -17.85256,23.72583 -9.92171,20.32234 -12.64991,42.57944 -11.32047,92.35403 2.12418,79.5302 11.40159,122.58366 33.26151,154.35597 10.86086,15.78572 34.903,23.37503 49.74149,15.70174 11.14569,-5.76366 22.44109,-30.63342 29.06129,-63.98593 4.79525,-24.15851 4.83598,-76.23367 0.0798,-102.09249 -6.75161,-36.70804 -16.42368,-59.09528 -35.36431,-81.85513 -4.22608,-5.07825 -10.7649,-14.49029 -14.53072,-20.91566 -3.76581,-6.42539 -8.6084,-13.27662 -10.76134,-15.225 -5.88102,-5.32225 -16.37648,-6.29272 -22.31473,-2.06336 z m -247.91001,8.17222 c -1.20405,0.80397 -3.31597,3.59944 -4.69316,6.21216 -2.67221,5.06955 -13.64996,44.67759 -21.01705,75.83014 -2.45846,10.39588 -6.36405,25.98369 -8.67908,34.63959 -9.22316,34.48527 -4.02347,83.70774 12.43986,117.76098 8.19938,16.95983 9.88401,19.04577 23.53409,29.14051 19.32087,14.28846 22.88355,16.05128 29.68892,14.6902 8.96276,-1.79254 15.36179,-6.95927 23.5075,-18.98049 15.15317,-22.36265 21.34892,-38.90557 26.83586,-71.65297 5.07167,-30.26904 3.75873,-53.02706 -5.11641,-88.68587 -4.10338,-16.48667 -19.11636,-50.66731 -25.33268,-57.67592 -1.95277,-2.20164 -6.05876,-8.4797 -9.12442,-13.95121 -7.59594,-13.55707 -12.36523,-18.46899 -23.37354,-24.07266 -9.64143,-4.90787 -14.83724,-5.81358 -18.66989,-3.25446 z"
   id="path3851"
   inkscape:connector-curvature="0"
   sodipodi:nodetypes="sssssssssssscssssssssssssssssssssssssccccccssccsssssssssssscsssssssssccssssssssssssss" />
	 
</svg>