<?xml version="1.0" encoding="UTF-8" standalone="no"?>
<svg
   xmlns:dc="http://purl.org/dc/elements/1.1/"
   xmlns:cc="http://creativecommons.org/ns#"
   xmlns:rdf="http://www.w3.org/1999/02/22-rdf-syntax-ns#"
   xmlns:svg="http://www.w3.org/2000/svg"
   xmlns="http://www.w3.org/2000/svg"
   xmlns:sodipodi="http://sodipodi.sourceforge.net/DTD/sodipodi-0.dtd"
   xmlns:inkscape="http://www.inkscape.org/namespaces/inkscape"
   version="1.1"
   id="Layer_1"
   x="0px"
   y="0px"
   width="1024"
   height="1024"
   viewBox="0 0 1024 1024"
   enable-background="new 0 0 512 512"
   xml:space="preserve"
   inkscape:version="0.48.0 r9654"
   sodipodi:docname="uni2F1F-x2f1f.svg"><metadata
   id="metadata72"><rdf:RDF><cc:Work
       rdf:about=""><dc:format>image/svg+xml</dc:format><dc:type
         rdf:resource="http://purl.org/dc/dcmitype/StillImage" /></cc:Work></rdf:RDF></metadata><defs
   id="defs70" /><sodipodi:namedview
   pagecolor="#ffffff"
   bordercolor="#666666"
   borderopacity="1"
   objecttolerance="10"
   gridtolerance="10"
   guidetolerance="10"
   inkscape:pageopacity="0"
   inkscape:pageshadow="2"
   inkscape:window-width="719"
   inkscape:window-height="807"
   id="namedview68"
   showgrid="false"
   inkscape:zoom="0.25488281"
   inkscape:cx="185.01378"
   inkscape:cy="742.29486"
   inkscape:window-x="453"
   inkscape:window-y="-7"
   inkscape:window-maximized="0"
   inkscape:current-layer="Layer_1" />
	<g
   id="Grid"
   transform="matrix(1.9942267,0,0,1.9865788,0.49711337,6.3783544)">
		<rect
   x="0"
   stroke-miterlimit="10"
   width="512"
   height="512"
   id="rect4"
   y="0"
   style="fill:none;stroke:#a9ccdb;stroke-miterlimit:10" />
		<line
   stroke-miterlimit="10"
   x1="0"
   y1="32"
   x2="512"
   y2="32"
   id="line6"
   style="fill:none;stroke:#a9ccdb;stroke-miterlimit:10" />
		<line
   stroke-miterlimit="10"
   x1="0"
   y1="64"
   x2="512"
   y2="64"
   id="line8"
   style="fill:none;stroke:#a9ccdb;stroke-miterlimit:10" />
		<line
   stroke-miterlimit="10"
   x1="0"
   y1="96"
   x2="512"
   y2="96"
   id="line10"
   style="fill:none;stroke:#a9ccdb;stroke-miterlimit:10" />
		<line
   stroke-miterlimit="10"
   x1="0"
   y1="128"
   x2="512"
   y2="128"
   id="line12"
   style="fill:none;stroke:#a9ccdb;stroke-miterlimit:10" />
		<line
   stroke-miterlimit="10"
   x1="0"
   y1="160"
   x2="512"
   y2="160"
   id="line14"
   style="fill:none;stroke:#a9ccdb;stroke-miterlimit:10" />
		<line
   stroke-miterlimit="10"
   x1="0"
   y1="192"
   x2="512"
   y2="192"
   id="line16"
   style="fill:none;stroke:#a9ccdb;stroke-miterlimit:10" />
		<line
   stroke-miterlimit="10"
   x1="0"
   y1="224"
   x2="512"
   y2="224"
   id="line18"
   style="fill:none;stroke:#a9ccdb;stroke-miterlimit:10" />
		<line
   stroke-miterlimit="10"
   x1="0"
   y1="256"
   x2="512"
   y2="256"
   id="line20"
   style="fill:none;stroke:#a9ccdb;stroke-miterlimit:10" />
		<line
   stroke-miterlimit="10"
   x1="0"
   y1="288"
   x2="512"
   y2="288"
   id="line22"
   style="fill:none;stroke:#a9ccdb;stroke-miterlimit:10" />
		<line
   stroke-miterlimit="10"
   x1="0"
   y1="320"
   x2="512"
   y2="320"
   id="line24"
   style="fill:none;stroke:#a9ccdb;stroke-miterlimit:10" />
		<line
   stroke-miterlimit="10"
   x1="0"
   y1="352"
   x2="512"
   y2="352"
   id="line26"
   style="fill:none;stroke:#a9ccdb;stroke-miterlimit:10" />
		<line
   stroke-miterlimit="10"
   x1="0"
   y1="384"
   x2="512"
   y2="384"
   id="line28"
   style="fill:none;stroke:#a9ccdb;stroke-miterlimit:10" />
		<line
   stroke-miterlimit="10"
   x1="0"
   y1="416"
   x2="512"
   y2="416"
   id="line30"
   style="fill:none;stroke:#a9ccdb;stroke-miterlimit:10" />
		<line
   stroke-miterlimit="10"
   x1="0"
   y1="448"
   x2="512"
   y2="448"
   id="line32"
   style="fill:none;stroke:#ff0000;stroke-miterlimit:10" />
		<line
   stroke-miterlimit="10"
   x1="0"
   y1="480"
   x2="512"
   y2="480"
   id="line34"
   style="fill:none;stroke:#a9ccdb;stroke-miterlimit:10" />
		<line
   stroke-miterlimit="10"
   x1="32"
   y1="0"
   x2="32"
   y2="512"
   id="line36"
   style="fill:none;stroke:#a9ccdb;stroke-miterlimit:10" />
		<line
   stroke-miterlimit="10"
   x1="64"
   y1="0"
   x2="64"
   y2="512"
   id="line38"
   style="fill:none;stroke:#a9ccdb;stroke-miterlimit:10" />
		<line
   stroke-miterlimit="10"
   x1="96"
   y1="0"
   x2="96"
   y2="512"
   id="line40"
   style="fill:none;stroke:#a9ccdb;stroke-miterlimit:10" />
		<line
   stroke-miterlimit="10"
   x1="128"
   y1="0"
   x2="128"
   y2="512"
   id="line42"
   style="fill:none;stroke:#a9ccdb;stroke-miterlimit:10" />
		<line
   stroke-miterlimit="10"
   x1="160"
   y1="0"
   x2="160"
   y2="512"
   id="line44"
   style="fill:none;stroke:#a9ccdb;stroke-miterlimit:10" />
		<line
   stroke-miterlimit="10"
   x1="192"
   y1="0"
   x2="192"
   y2="512"
   id="line46"
   style="fill:none;stroke:#a9ccdb;stroke-miterlimit:10" />
		<line
   stroke-miterlimit="10"
   x1="224"
   y1="0"
   x2="224"
   y2="512"
   id="line48"
   style="fill:none;stroke:#a9ccdb;stroke-miterlimit:10" />
		<line
   stroke-miterlimit="10"
   x1="256"
   y1="0"
   x2="256"
   y2="512"
   id="line50"
   style="fill:none;stroke:#a9ccdb;stroke-miterlimit:10" />
		<line
   stroke-miterlimit="10"
   x1="288"
   y1="0"
   x2="288"
   y2="512"
   id="line52"
   style="fill:none;stroke:#a9ccdb;stroke-miterlimit:10" />
		<line
   stroke-miterlimit="10"
   x1="320"
   y1="0"
   x2="320"
   y2="512"
   id="line54"
   style="fill:none;stroke:#a9ccdb;stroke-miterlimit:10" />
		<line
   stroke-miterlimit="10"
   x1="352"
   y1="0"
   x2="352"
   y2="512"
   id="line56"
   style="fill:none;stroke:#a9ccdb;stroke-miterlimit:10" />
		<line
   stroke-miterlimit="10"
   x1="384"
   y1="0"
   x2="384"
   y2="512"
   id="line58"
   style="fill:none;stroke:#a9ccdb;stroke-miterlimit:10" />
		<line
   stroke-miterlimit="10"
   x1="416"
   y1="0"
   x2="416"
   y2="512"
   id="line60"
   style="fill:none;stroke:#a9ccdb;stroke-miterlimit:10" />
		<line
   stroke-miterlimit="10"
   x1="448"
   y1="0"
   x2="448"
   y2="512"
   id="line62"
   style="fill:none;stroke:#a9ccdb;stroke-miterlimit:10" />
		<line
   stroke-miterlimit="10"
   x1="480"
   y1="0"
   x2="480"
   y2="512"
   id="line64"
   style="fill:none;stroke:#a9ccdb;stroke-miterlimit:10" />
	</g>

<path
   style="fill:#1a9bec;fill-opacity:0.78695655"
   d="m 659.61587,140.97328 c -49.57915,5.06267 -182.4533,0.87779 -253.32716,1.43123 -103.86011,0.81105 -201.37288,-0.66258 -264.60946,1.63011 -38.98698,2.52669 -75.588627,-2.92122 -79.611157,36.8338 -3.64517,39.17712 36.73144,62.2523 168.579997,64.35576 42.25961,0.67421 148.16162,0.52037 172.53055,4.09397 15.81545,0.27283 34.64037,4.22522 42.71946,9.8446 1.69414,14.69715 -0.0712,28.5563 0.25733,42.87177 0.83887,58.75757 -0.10718,110.60136 -0.32459,159.6497 -0.21524,17.36849 1.98788,39.59963 -2.1776,50.90506 -1.48029,3.68261 -7.63447,5.18339 -8.852,5.81763 -8.55122,3.90667 -27.54539,1.88104 -33.58418,2.21398 -30.19474,1.66482 -54.50001,0.22877 -82.10568,0.50463 -43.33788,7.0368 -96.89843,11.2896 -92.4469,58.65317 2.23909,26.45272 47.0945,42.68209 92.75054,44.37461 l 112.25979,2.3096 c 0.16881,24.46884 -0.0638,50.1417 -0.0634,75.5991 5.2e-4,31.09937 -3.39266,61.87717 -1.53983,89.74541 2.03744,30.00457 0.23998,60.38847 5.19489,80.92957 3.71834,15.41547 13.55063,24.19374 18.91571,29.13884 30.20989,19.58536 44.55637,8.47054 61.87775,-12.52745 8.49585,-18.21715 11.11252,-39.93909 12.83105,-62.03596 1.07285,-13.7946 0.61872,-27.73531 0.52868,-41.06067 0.0621,-53.5905 -2.25189,-135.98157 2.61424,-159.7752 10.71719,0.20274 18.89453,-0.55982 26.636,-2.5643 5.55112,-1.43736 10.87811,-3.51324 16.75669,-6.32948 33.29691,-25.64763 67.7985,-44.22069 104.57894,-70.18838 25.03347,-17.67407 55.13925,-42.09988 70.97093,-61.53809 12.41767,-23.41169 25.70901,-59.40339 -2.01105,-75.88474 -35.31955,-10.22914 -63.60209,16.95621 -89.64302,38.06763 -20.82652,12.78299 -87.16275,76.74024 -121.46746,68.00919 -0.26427,-13.28901 -0.53423,-37.91576 0.2135,-53.10813 0.96372,-56.4983 1.15973,-116.07161 -0.18876,-162.12296 -0.47006,-14.06017 1.28223,-29.46859 -0.17749,-44.3443 14.75323,-7.31703 23.25971,-10.60931 37.53651,-11.47853 23.92604,-1.45666 53.90805,2.29088 82.45062,-6.40025 26.98776,-9.66504 69.09072,-36.19818 100.85839,-49.28289 33.00946,-13.59622 48.22029,-26.23717 76.95695,-42.93183 29.75099,-18.8606 67.12914,-33.867 83.39438,-60.231196 3.48851,-5.1388 5.12307,-10.2155 6.25472,-15.7193 4.77106,-23.2499 5.83584,-34.35819 -5.75959,-39.53049 -11.6888,-5.21404 -38.11322,-12.24884 -84.70364,17.14669 -28.26054,16.543 -56.56803,34.5573 -88.58002,52.318496 -31.13953,14.34 -57.55145,35.97789 -86.49468,40.6096 z"
   id="path3755"
   inkscape:connector-curvature="0"
   sodipodi:nodetypes="csccsccccccsccccscsccsccscscccccccscscccsccc" />
	 
</svg>