<?xml version="1.0" encoding="UTF-8" standalone="no"?>
<svg
   xmlns:dc="http://purl.org/dc/elements/1.1/"
   xmlns:cc="http://creativecommons.org/ns#"
   xmlns:rdf="http://www.w3.org/1999/02/22-rdf-syntax-ns#"
   xmlns:svg="http://www.w3.org/2000/svg"
   xmlns="http://www.w3.org/2000/svg"
   xmlns:sodipodi="http://sodipodi.sourceforge.net/DTD/sodipodi-0.dtd"
   xmlns:inkscape="http://www.inkscape.org/namespaces/inkscape"
   version="1.1"
   id="Layer_1"
   x="0px"
   y="0px"
   width="512px"
   height="512px"
   viewBox="0 0 512 512"
   enable-background="new 0 0 512 512"
   xml:space="preserve"
   inkscape:version="0.48.0 r9654"
   sodipodi:docname="uni2FDF-x2fdf.svg"><title
   id="title3049">Semnatura Autor</title><metadata
   id="metadata72"><rdf:RDF><cc:Work
       rdf:about=""><dc:format>image/svg+xml</dc:format><dc:type
         rdf:resource="http://purl.org/dc/dcmitype/StillImage" /><dc:title>Semnatura Autor</dc:title><dc:publisher><cc:Agent><dc:title>www.beitdina.net</dc:title></cc:Agent></dc:publisher><dc:identifier>ProtoChinese</dc:identifier><dc:source>signature</dc:source><dc:creator><cc:Agent><dc:title>Font Creator</dc:title></cc:Agent></dc:creator><dc:coverage>2FDF</dc:coverage><dc:description>Empty Font Glyph for the end of character set (to be replacd when done).</dc:description><cc:license
         rdf:resource="http://scripts.sil.org/OFL" /></cc:Work><cc:License
       rdf:about="http://scripts.sil.org/OFL"><cc:permits
         rdf:resource="http://scripts.sil.org/pub/OFL/Reproduction" /><cc:permits
         rdf:resource="http://scripts.sil.org/pub/OFL/Distribution" /><cc:permits
         rdf:resource="http://scripts.sil.org/pub/OFL/Embedding" /><cc:permits
         rdf:resource="http://scripts.sil.org/pub/OFL/DerivativeWorks" /><cc:requires
         rdf:resource="http://scripts.sil.org/pub/OFL/Notice" /><cc:requires
         rdf:resource="http://scripts.sil.org/pub/OFL/Attribution" /><cc:requires
         rdf:resource="http://scripts.sil.org/pub/OFL/ShareAlike" /><cc:requires
         rdf:resource="http://scripts.sil.org/pub/OFL/DerivativeRenaming" /><cc:requires
         rdf:resource="http://scripts.sil.org/pub/OFL/BundlingWhenSelling" /></cc:License></rdf:RDF></metadata><defs
   id="defs70" /><sodipodi:namedview
   pagecolor="#ffffff"
   bordercolor="#666666"
   borderopacity="1"
   objecttolerance="10"
   gridtolerance="10"
   guidetolerance="10"
   inkscape:pageopacity="0"
   inkscape:pageshadow="2"
   inkscape:window-width="1152"
   inkscape:window-height="814"
   id="namedview68"
   showgrid="false"
   inkscape:zoom="1.0195312"
   inkscape:cx="94.138756"
   inkscape:cy="329.83688"
   inkscape:window-x="-8"
   inkscape:window-y="-8"
   inkscape:window-maximized="1"
   inkscape:current-layer="Layer_1" />
	<g
   id="Grid">
		<rect
   x="0"
   fill="none"
   stroke="#A9CCDB"
   stroke-miterlimit="10"
   width="512"
   height="512"
   id="rect8" />
		<line
   fill="none"
   stroke="#A9CCDB"
   stroke-miterlimit="10"
   x1="0"
   y1="32"
   x2="512"
   y2="32"
   id="line10" />
		<line
   fill="none"
   stroke="#A9CCDB"
   stroke-miterlimit="10"
   x1="0"
   y1="64"
   x2="512"
   y2="64"
   id="line12" />
		<line
   fill="none"
   stroke="#A9CCDB"
   stroke-miterlimit="10"
   x1="0"
   y1="96"
   x2="512"
   y2="96"
   id="line14" />
		<line
   fill="none"
   stroke="#A9CCDB"
   stroke-miterlimit="10"
   x1="0"
   y1="128"
   x2="512"
   y2="128"
   id="line16" />
		<line
   fill="none"
   stroke="#A9CCDB"
   stroke-miterlimit="10"
   x1="0"
   y1="160"
   x2="512"
   y2="160"
   id="line18" />
		<line
   fill="none"
   stroke="#A9CCDB"
   stroke-miterlimit="10"
   x1="0"
   y1="192"
   x2="512"
   y2="192"
   id="line20" />
		<line
   fill="none"
   stroke="#A9CCDB"
   stroke-miterlimit="10"
   x1="0"
   y1="224"
   x2="512"
   y2="224"
   id="line22" />
		<line
   fill="none"
   stroke="#A9CCDB"
   stroke-miterlimit="10"
   x1="0"
   y1="256"
   x2="512"
   y2="256"
   id="line24" />
		<line
   fill="none"
   stroke="#A9CCDB"
   stroke-miterlimit="10"
   x1="0"
   y1="288"
   x2="512"
   y2="288"
   id="line26" />
		<line
   fill="none"
   stroke="#A9CCDB"
   stroke-miterlimit="10"
   x1="0"
   y1="320"
   x2="512"
   y2="320"
   id="line28" />
		<line
   fill="none"
   stroke="#A9CCDB"
   stroke-miterlimit="10"
   x1="0"
   y1="352"
   x2="512"
   y2="352"
   id="line30" />
		<line
   fill="none"
   stroke="#A9CCDB"
   stroke-miterlimit="10"
   x1="0"
   y1="384"
   x2="512"
   y2="384"
   id="line32" />
		<line
   fill="none"
   stroke="#A9CCDB"
   stroke-miterlimit="10"
   x1="0"
   y1="416"
   x2="512"
   y2="416"
   id="line34" />
		<line
   fill="none"
   stroke="#FF0000"
   stroke-miterlimit="10"
   x1="0"
   y1="448"
   x2="512"
   y2="448"
   id="line36" />
		<line
   fill="none"
   stroke="#A9CCDB"
   stroke-miterlimit="10"
   x1="0"
   y1="480"
   x2="512"
   y2="480"
   id="line38" />
		<line
   fill="none"
   stroke="#A9CCDB"
   stroke-miterlimit="10"
   x1="32"
   y1="0"
   x2="32"
   y2="512"
   id="line40" />
		<line
   fill="none"
   stroke="#A9CCDB"
   stroke-miterlimit="10"
   x1="64"
   y1="0"
   x2="64"
   y2="512"
   id="line42" />
		<line
   fill="none"
   stroke="#A9CCDB"
   stroke-miterlimit="10"
   x1="96"
   y1="0"
   x2="96"
   y2="512"
   id="line44" />
		<line
   fill="none"
   stroke="#A9CCDB"
   stroke-miterlimit="10"
   x1="128"
   y1="0"
   x2="128"
   y2="512"
   id="line46" />
		<line
   fill="none"
   stroke="#A9CCDB"
   stroke-miterlimit="10"
   x1="160"
   y1="0"
   x2="160"
   y2="512"
   id="line48" />
		<line
   fill="none"
   stroke="#A9CCDB"
   stroke-miterlimit="10"
   x1="192"
   y1="0"
   x2="192"
   y2="512"
   id="line50" />
		<line
   fill="none"
   stroke="#A9CCDB"
   stroke-miterlimit="10"
   x1="224"
   y1="0"
   x2="224"
   y2="512"
   id="line52" />
		<line
   fill="none"
   stroke="#A9CCDB"
   stroke-miterlimit="10"
   x1="256"
   y1="0"
   x2="256"
   y2="512"
   id="line54" />
		<line
   fill="none"
   stroke="#A9CCDB"
   stroke-miterlimit="10"
   x1="288"
   y1="0"
   x2="288"
   y2="512"
   id="line56" />
		<line
   fill="none"
   stroke="#A9CCDB"
   stroke-miterlimit="10"
   x1="320"
   y1="0"
   x2="320"
   y2="512"
   id="line58" />
		<line
   fill="none"
   stroke="#A9CCDB"
   stroke-miterlimit="10"
   x1="352"
   y1="0"
   x2="352"
   y2="512"
   id="line60" />
		<line
   fill="none"
   stroke="#A9CCDB"
   stroke-miterlimit="10"
   x1="384"
   y1="0"
   x2="384"
   y2="512"
   id="line62" />
		<line
   fill="none"
   stroke="#A9CCDB"
   stroke-miterlimit="10"
   x1="416"
   y1="0"
   x2="416"
   y2="512"
   id="line64" />
		<line
   fill="none"
   stroke="#A9CCDB"
   stroke-miterlimit="10"
   x1="448"
   y1="0"
   x2="448"
   y2="512"
   id="line66" />
		<line
   fill="none"
   stroke="#A9CCDB"
   stroke-miterlimit="10"
   x1="480"
   y1="0"
   x2="480"
   y2="512"
   id="line68" />
	</g>
	
<path
   d="m 90.640899,136.2808 c -1.278675,2.59058 -2.370483,5.7892 -3.261309,9.35707 -3.035097,12.15599 -3.73717,28.59844 -1.547976,39.88465 0.915845,4.19629 0.786139,5.52694 -0.396527,4.06843 -1.189315,-1.46673 -1.155717,0.37704 0.103981,5.70331 8.313585,9.74074 3.654306,11.48649 6.909108,16.81344 2.623178,5.44838 1.154891,4.67002 1.6841,6.8861 0.229276,1.8127 1.496714,3.0536 1.893428,3.98253 1.084839,2.5402 1.788831,2.74774 3.673493,5.93542 1.795973,3.06849 3.265403,7.33017 3.265403,9.47043 0,2.14026 0.80759,4.42854 1.79466,5.08507 1.8754,1.24743 2.81257,15.41661 2.04019,25.43652 -0.28017,1.56147 -0.21474,2.76277 -0.22571,4.08601 -0.0129,1.55492 -0.0584,3.20952 0.18133,4.8003 0.062,2.40954 -0.31409,5.05404 -0.0114,7.10171 1.5821,4.89747 1.11886,6.25164 1.37874,8.60906 0.0966,0.87659 0.29325,1.89189 0.73218,3.27962 0.57495,0.21932 0.7503,1.21603 1.60061,1.22725 1.13653,0.0146 2.0922,-0.30033 2.61948,-0.48938 1.09564,-0.39281 1.43006,-1.53339 1.3003,-3.06465 -0.11881,-1.40216 -0.61138,-3.16104 -1.58763,-4.36498 -2.90298,-3.58009 -1.78603,-14.17428 1.72911,-16.40048 1.86363,-1.18031 3.82288,-1.27907 4.35384,-0.21959 0.8096,3.83448 2.36567,3.88631 3.63442,6.59183 2.46441,5.25514 4.96942,12.03767 6.6947,16.54753 3.03014,7.92076 5.31612,17.64719 7.10728,28.18912 1.22663,7.02143 2.07559,11.77641 5.04651,11.77641 0.51275,-0.26339 1.00622,-1.27256 1.63325,-1.91211 0.7332,-0.74786 1.57878,-1.15592 1.78735,-1.78382 0.84427,-2.54174 -0.94281,-5.02929 -1.40016,-7.37177 -0.8442,-4.32394 -3.08929,-9.85532 -4.20197,-11.78804 -1.93509,-3.12676 -2.18999,-8.97106 -2.384,-13.299 -0.91847,-3.00557 -3.9911,-5.82717 -5.13211,-9.45935 -1.55393,-4.94664 -3.28639,-9.97779 -5.12153,-13.74088 -2.01016,-4.09887 -4.18997,-8.0169 -5.33772,-13.51241 -1.06645,-5.82156 -1.9069,-5.5918 -2.04366,0.55861 -2.54027,-8.92861 -2.89872,-19.20545 -2.65404,-28.24103 0.5337,-14.5796 1.25269,-29.546 0.89601,-42.46068 -0.30451,-10.76553 -0.77746,-20.7127 -1.45553,-23.07942 -0.75519,-0.53388 -1.80322,-5.88794 -2.32893,-11.89791 -2.60661,-11.17813 -5.35069,-19.2014 -8.69378,-23.42807 -3.77388,-4.77135 -8.311095,-4.70461 -14.275601,1.12325 z m 15.006031,13.68436 c 2.82785,8.73352 4.80427,21.00741 5.78839,31.01719 0.48201,4.14133 0.8655,8.47293 1.135,12.74489 0.45263,7.17507 0.58367,14.18194 0.31966,19.83661 -0.43437,2.1401 -0.32437,5.6249 -1.82612,8.49886 -0.8025,1.53577 -1.39373,9.27196 -2.54976,10.16047 -1.50421,1.15614 -3.58987,-4.86315 -4.5025,-5.96562 -4.259586,-6.44181 -9.341437,-28.58591 -10.548406,-34.00688 -1.14436,-5.93135 -2.33899,-12.16265 -2.683074,-18.09428 -0.279535,-4.81892 0.18614,-9.35336 0.218613,-14.06526 -0.04455,-4.09378 0.740049,-8.98542 1.919385,-11.94891 0.927489,-2.33065 2.047525,-3.07963 3.550634,-3.95314 3.103154,-1.62163 6.580248,0.82322 9.178178,5.77587 z m -78.870355,32.7962 c -1.042629,5.42167 -1.0536,7.80863 -0.186283,40.50752 0.261418,9.85529 0.05105,24.88256 -0.467229,33.39392 -0.682578,11.20717 -0.379976,15.47523 1.097188,15.47523 2.6726,1.6485 3.250778,4.3044 4.129486,4.10141 0.910663,-0.21037 2.111567,-3.37333 4.411677,-7.05715 1.586846,-2.5039 3.427942,-4.07755 6.878543,-2.78493 2.129066,0.96841 4.226894,3.55606 5.603838,7.74947 3.164042,9.63592 3.055409,14.35138 -0.516772,22.42586 -5.392149,12.18837 -8.694178,14.16547 -15.581862,9.32969 -7.544912,-5.29722 -8.035573,-5.38818 -6.754538,-1.25213 0.543511,1.75482 0.259047,5.90928 -0.632154,9.23214 -0.828074,3.08748 -1.013419,4.61035 0.267428,5.34183 3.836366,2.27918 8.964219,4.45874 12.791367,2.72987 1.804488,-1.01943 3.693197,-2.45211 5.487155,-4.11199 2.900551,-2.68381 5.553391,-5.96151 7.201963,-9.04663 2.228162,-4.25275 3.766226,-6.7334 5.797034,-12.42083 1.218315,-3.32464 1.903595,-7.66485 1.522814,-9.64483 -0.380758,-1.98002 -0.557779,-6.94964 1.424215,-10.42033 1.590694,-1.22728 3.441118,0.10585 4.777164,-0.89046 4.413166,-3.29095 7.233555,-9.25291 10.606904,-24.10483 1.54887,-10.37536 -0.4073,-21.96058 -2.581509,-31.24761 -1.839387,-5.88361 -5.746036,-12.60387 -9.342277,-13.64503 -1.361385,1.9793 -3.281255,4.12889 -3.356235,5.96561 -0.168905,4.13724 4.59689,7.72576 5.996383,11.58188 1.995524,4.32083 3.043743,8.20388 3.405084,12.0743 0.501742,5.37426 -0.320873,10.72416 -1.770636,17.18787 -1.155872,4.97375 -2.621249,6.98416 -3.070251,6.9641 -0.448991,-0.0187 -2.170967,2.68215 -3.661396,3.82341 -3.596968,-8.9e-4 -7.428361,-1.47734 -11.108381,-3.96395 -2.66004,-1.7974 -5.240976,-4.1226 -7.597134,-6.79985 -1.417213,-1.61034 -4.375411,-0.79814 -5.598258,-2.62498 -2.018724,-4.65335 -0.979811,-7.53872 -1.047051,-9.65813 -0.127897,-4.03154 0.343577,-5.29152 0.463822,-10.67668 0.185776,-10.87684 1.620906,-26.46121 3.122142,-33.90417 1.234149,-6.11885 18.787607,7.3252 18.787607,12.70237 0,1.79187 3.029011,-4.67559 3.926994,-4.67559 5.234932,0 -20.126874,-19.67644 -25.995757,-20.62323 -0.897983,-0.14495 -2.929342,-1.64811 -4.514148,-3.34057 -2.144195,-2.28983 -3.146389,-1.69945 -3.916937,2.3075 z m 374.717285,19.14487 c -1.04631,4.58196 -2.51913,8.33088 -3.27291,8.33088 -0.75388,0 -1.3706,2.93215 -1.3706,6.5159 0,3.58372 -0.65013,6.51587 -1.44461,6.51587 -1.92111,11.06094 -3.79034,23.11817 -5.19781,35.28006 -1.24782,10.78255 -2.13267,21.64733 -2.36886,31.97305 -0.24757,11.81404 0.36088,23.3416 1.65416,34.24784 0.8464,8.20126 -0.6494,12.67012 -11.60397,5.50803 -1.82483,-1.20378 -3.12651,-2.14361 -5.36937,1.84307 -1.11586,1.31517 -2.03385,4.98087 -4.41548,4.31479 -2.36568,-0.66162 -5.42929,-5.89594 -8.02821,-8.18918 -3.71376,-3.27695 -6.67786,-3.92997 -6.99808,-5.46599 -0.5694,-3.47019 2.37362,-13.42665 1.05262,-14.69372 -2.66716,-2.55827 -9.1784,4.77086 -11.49223,11.00251 -1.74099,5.21849 -13.81745,3.46889 -16.77372,-2.43013 -2.38155,-4.75225 -2.85682,-4.71899 -5.59748,0.39188 -2.04204,3.80807 -2.64728,5.08934 -1.79726,7.02143 0.35878,0.81553 0.97685,1.74703 1.85559,3.03344 2.18687,4.24277 2.98882,8.86386 5.28286,11.82355 0.45595,1.16368 0.60015,3.74394 3.30171,15.69705 1.76304,13.11745 1.11925,18.5077 -2.21048,18.5077 -0.63179,-0.43902 -1.26641,-0.90569 -1.90352,-1.39747 -11.34328,-8.75604 -23.47487,-25.47581 -34.42347,-35.86741 -5.25713,-4.98967 -10.24151,-8.52035 -14.7349,-9.00982 -3.87159,0.52366 -5.70517,6.75726 -6.6551,14.01666 -0.63776,6.67117 -0.78878,12.5879 -0.47406,18.09485 0.40436,7.07554 1.57756,13.47461 3.47507,19.92834 3.06785,10.35254 2.13087,5.98747 2.29519,7.48495 1.29202,3.84323 2.54619,8.05211 3.94403,11.83088 3.47122,9.38372 7.33449,17.9783 11.25055,25.36381 2.24749,4.21653 4.51813,8.14754 6.65284,11.72313 3.44978,5.52126 6.26912,8.65504 9.29298,9.17223 3.50189,0.10123 4.9963,-3.25771 4.93469,-6.6539 -0.044,-2.42521 -1.35944,-1.44356 -2.82597,-2.66028 -2.05783,-2.50638 -3.91018,-4.86529 -5.59984,-7.56884 -2.64808,-4.60228 -7.49613,-8.68868 -12.49099,-22.20818 -0.68623,-1.85737 -5.2874,-11.13909 -5.95743,-13.0455 -2.79784,-13.42412 -14.27547,-58.15973 -1.65937,-52.63406 2.07871,2.36176 5.00938,5.74663 8.30865,9.67158 11.49978,13.68054 27.47785,33.92252 27.4668,40.27185 -1.20256,3.88267 13.95497,1.06475 15.97711,-2.97031 7.31525,-10.03534 3.05846,-30.7182 1.32418,-42.48862 -0.97311,-3.41055 -1.71341,-5.16977 -0.20173,-8.38036 0.83614,-1.03114 5.1117,-2.03627 9.50126,-2.2336 6.02126,-0.27073 9.65572,1.75075 14.80112,8.23218 3.56916,3.6121 5.47341,6.50517 6.41485,10.33639 0.55824,4.5672 1.33621,8.96441 2.0334,13.40408 0.89746,7.83325 1.27006,15.23805 2.60968,21.28796 1.23057,5.55745 3.27712,9.97163 7.29606,12.52443 5.82172,1.66862 9.93331,2.46611 12.89214,0.20777 3.06915,-4.45959 5.04537,-10.77453 6.3862,-17.75532 1.59676,-8.31274 2.29253,-17.56966 2.86018,-25.76218 0.42419,-7.04247 0.21767,-13.98333 -1.15327,-20.87498 -0.98688,-4.9348 -2.13904,-10.35887 -2.91346,-19.31794 0.0812,-8.51772 -0.0877,-16.53313 -0.13909,-24.29324 -0.0813,-12.25777 0.13042,-23.87853 2.08266,-35.83593 0.93053,-5.66885 1.96162,-11.14306 2.56533,-16.82056 2.02845,-19.07732 3.68089,-33.38736 12.8378,-32.50829 4.58981,1.03269 7.99746,12.2061 7.13122,24.2017 -0.10586,1.34389 0.62002,2.44346 1.61407,2.44346 0.99404,0 1.38449,2.1991 0.86757,4.8869 -0.51693,2.68781 -0.28195,4.88693 0.52199,4.88693 0.80395,0 1.73581,-2.56563 2.07068,-5.70141 0.42409,-3.97042 0.88456,-3.01124 1.5166,3.15936 -4.25218,4.10966 3.59985,13.46724 2.5521,19.78197 -1.58132,8.22295 10.72654,6.52237 17.30941,-2.39163 3.63976,-4.9288 5.48296,-6.13415 4.92237,-3.2189 -0.58044,3.01853 0.17191,4.64277 2.13574,4.61045 1.68806,-0.026 2.3083,-1.11073 1.39916,-2.44346 -3.10122,-4.54645 -2.40357,-10.40652 2.40798,-20.22851 5.70493,-11.64529 9.44041,-12.35201 15.44802,-2.92248 1.60458,5.67022 3.47414,3.90685 3.9657,6.18305 1.85567,8.59377 -3.26188,3.07272 1.02514,7.85012 1.8152,2.60342 3.71706,8.01676 2.92646,9.59432 -0.55585,1.10927 -0.15349,2.01683 0.89414,2.01683 1.04764,0 1.90473,-2.1991 1.90473,-4.88692 0,-2.68779 0.73481,-4.8869 1.63271,-4.8869 2.64604,0 1.76326,-14.11385 -1.32452,-21.17664 -4.09041,-9.35634 -12.36542,-17.91869 -17.31734,-17.91869 -5.2889,0 -9.0011,4.3663 -18.66744,21.95635 -4.17444,7.59636 -8.71232,13.82716 -10.08425,13.84626 -3.31414,0.0462 -8.51406,-12.34082 -7.09879,-16.91037 0.67581,-2.18194 0.37247,-2.68996 -0.76712,-1.28464 -1.11688,1.37744 -1.88489,0.25508 -1.88489,-2.75456 0,-2.79357 -0.82048,-5.07919 -1.82313,-5.07919 -1.00276,0 -1.46896,-2.70272 -1.03606,-6.00596 0.47701,-3.64011 -0.43764,-7.53218 -2.32197,-9.88041 -1.71,-2.13091 -2.77859,-4.94165 -2.37458,-6.24603 0.40402,-1.30437 -3.23762,-2.80623 -8.09262,-3.33741 -8.10167,-0.88644 -8.98357,-0.28114 -10.72941,7.36507 z m -25.60731,157.34744 c -1.05894,-8.20359 0.0385,-16.18153 5.23831,-13.54284 6.38773,7.49758 7.21256,12.50506 6.38605,19.45874 -0.75673,6.84847 -5.1067,14.55028 -8.38128,9.20867 -1.49397,-2.6594 -2.54768,-10.21707 -3.24308,-15.12457 z M 143.25535,241.07511 c -1.37798,2.74968 -3.40648,4.99939 -4.50778,4.99939 -1.25597,0 -0.8878,2.45751 0.9877,6.59286 2.284,5.03606 3.30171,5.61308 4.30979,2.44346 1.19545,-3.7587 2.03131,-1.25659 1.57766,4.72264 -0.0983,1.29592 2.01881,1.47916 4.70474,0.40724 3.04129,-1.2137 4.88352,-0.60486 4.88352,1.61402 0,1.9596 -1.28575,2.75623 -2.85722,1.77024 -2.43963,-1.53069 -2.39403,-1.03958 0.31205,3.36021 1.7431,2.83405 3.80694,5.15286 4.58628,5.15286 0.77934,0 0.96292,1.46606 0.40793,3.25795 -0.55498,1.79186 -0.32736,3.25795 0.50583,3.25795 2.11597,8.52359 0.96003,11.94059 0.14407,14.09747 -1.89244,5.00233 -1.87645,3.19164 -3.9073,11.99186 -1.2802,16.44584 -2.55933,26.37681 -5.76983,30.38034 -0.83536,1.04171 -2.43165,0.96892 -3.44721,1.34891 -2.95998,1.54456 -3.21326,3.40197 -2.23642,16.40039 0.04,6.33953 -0.31531,11.12256 1.56166,13.35064 0.94704,1.12418 2.76468,4.44908 4.8751,1.21403 1.74564,-1.90263 1.27064,-7.05726 1.44051,-17.9502 0.66899,-3.76011 2.98789,-8.08598 4.28041,-12.14467 1.76448,-5.54064 2.55023,-10.58328 3.21462,-13.00868 1.33426,-3.81573 1.91976,-8.19407 2.13762,-13.91517 0.24616,-6.62843 5.23616,-18.8071 7.65517,-18.68328 0.53608,0.026 2.07677,1.62069 3.42375,3.54057 1.9673,2.80401 1.72597,3.1744 -1.22678,1.88294 -2.0217,-0.88429 -3.26409,-0.27857 -2.76086,1.34633 0.50323,1.62477 1.82608,2.95411 2.93966,2.95411 2.51853,0 6.3391,20.22896 5.06847,26.83626 -0.67427,3.50628 0.11787,4.7649 2.82767,4.49253 3.31054,-0.33272 3.86826,-2.44042 4.62605,-17.48254 0.47392,-9.4073 0.3133,-17.1042 -0.35694,-17.1042 -0.67023,0 -0.74944,-2.43962 -0.17604,-5.42134 0.70102,-3.64529 0.41678,-4.64964 -0.86758,-3.06569 -1.05059,1.29564 -1.91016,1.05085 -1.91016,-0.54397 0,-1.59484 1.81174,-4.83452 4.02608,-7.19928 3.25071,-3.47149 4.50501,-3.50643 6.51283,-0.18156 1.36769,2.26504 2.0841,5.41816 1.59199,7.00699 -0.49209,1.58884 -0.0733,2.88878 0.93069,2.88878 1.00398,0 1.37133,1.46607 0.81634,3.25796 -0.55498,1.79186 -0.24498,3.25794 0.68889,3.25794 0.93387,0 2.15768,3.65504 2.71957,8.12235 0.5781,4.59621 1.77527,7.19291 2.75761,5.98141 1.0761,-1.32705 1.35181,-0.14309 0.72534,3.11456 -0.70967,3.69028 -0.30606,4.7159 1.35524,3.44381 1.47982,-1.13312 2.36589,0.21145 2.36589,3.59012 0,5.40741 10.92174,16.94101 12.69383,13.40493 0.50159,-1.0009 0.21908,-1.81982 -0.62779,-1.81982 -2.48056,0 -0.57431,-25.41451 2.0574,-27.42968 1.33544,-1.02258 1.93384,-0.39881 1.36852,1.42648 -0.55255,1.78398 0.0976,4.08764 1.4448,5.11921 1.3472,1.03156 2.04985,3.95339 1.5615,6.49288 -0.48837,2.5395 -0.12572,4.6173 0.80589,4.6173 0.9316,0 1.94604,3.29867 2.25431,7.33035 0.30827,4.03172 1.46144,6.96386 2.5626,6.5159 1.10116,-0.44797 2.01337,1.75113 2.02712,4.88691 0.0207,4.72953 0.28069,4.89486 1.52496,0.97005 0.82499,-2.60224 1.06057,-6.15009 0.52351,-7.88402 -0.5408,-1.7461 0.11429,-2.31748 1.46832,-1.28066 1.34462,1.0296 2.51802,0.17928 2.60752,-1.88982 0.0894,-2.06897 0.478,-11.27156 0.86331,-20.45017 1.00338,-23.90226 2.2267,-26.31955 7.86479,-15.54097 2.99688,5.72926 4.06814,9.83688 2.93116,11.23906 -1.02461,1.26359 0.0224,3.11841 2.44501,4.33176 2.33029,1.16705 4.23688,4.20656 4.23688,6.75451 0,2.54789 0.84824,5.67861 1.88497,6.95716 1.10072,1.35746 1.44428,0.90177 0.82573,-1.09532 -0.58258,-1.88098 0.22228,-4.46394 1.7886,-5.73996 2.60816,-2.1248 2.57302,-2.54557 -0.41755,-4.99931 -3.16127,-2.59386 -3.16432,-2.68658 -0.0962,-2.90829 3.05974,-0.22089 3.06523,-0.38078 0.1587,-4.62166 -1.65579,-2.41595 -2.48757,-6.08113 -1.8484,-8.14485 0.694,-2.24042 0.0978,-3.75216 -1.47953,-3.75216 -1.45298,0 -2.18769,-1.46609 -1.6327,-3.25796 0.55499,-1.79185 0.20027,-3.25794 -0.78827,-3.25794 -2.45698,0 -7.4153,-10.00569 -8.83434,-17.82737 -0.97674,-5.38367 -1.41184,-5.6476 -2.68545,-1.62897 -1.13935,3.59495 -1.52613,3.71774 -1.54488,0.49045 -0.0193,-3.31557 -0.58791,-3.18182 -2.47404,0.58179 -1.34697,2.68779 -2.44905,6.54422 -2.44905,8.56984 0,2.0256 -0.65146,2.87949 -1.4477,1.89756 -0.79623,-0.98196 -2.44934,0.67902 -3.67357,3.69105 -1.53088,3.76651 -1.58864,4.71253 -0.185,3.02979 2.84198,-3.40698 2.55891,2.95466 -0.3936,8.84619 -1.84515,3.68195 -1.94397,5.25329 -0.40817,6.49143 1.11447,0.89845 0.32982,1.74929 -1.74364,1.89075 -2.37144,0.16201 -3.35375,-1.08646 -2.64804,-3.36497 0.61703,-1.99219 0.12882,-4.84698 -1.08507,-6.34394 -1.32738,-1.63698 -2.7022,-1.16717 -3.44957,1.17876 -0.85478,2.68305 -1.25041,2.2057 -1.26762,-1.52947 -0.013,-2.98642 0.89339,-6.16937 2.01588,-7.07316 1.12247,-0.9038 0.5347,-1.75901 -1.30617,-1.90044 -1.84086,-0.14144 -4.19755,-1.95439 -5.23707,-4.02868 -1.43158,-2.85664 -2.51765,-2.73207 -4.47748,0.51352 -1.79509,2.97281 -2.06627,5.3249 -0.88555,7.68098 0.93605,1.86781 1.69065,4.93539 1.6769,6.81685 -0.0131,1.88146 -0.73721,1.22173 -1.6077,-1.46606 -1.08154,-3.33946 -1.59061,-3.581 -1.6077,-0.76277 -0.0147,2.54573 -1.85646,3.84577 -4.81013,3.39666 -2.63183,-0.40018 -4.41785,-1.91348 -3.96894,-3.36286 0.44893,-1.4494 1.49175,-1.80215 2.31738,-0.78393 0.82831,1.02151 1.03906,-0.78012 0.47018,-4.0193 -1.2736,-7.25179 -7.96174,-20.53136 -10.34045,-20.53136 -0.96537,0 -2.16292,-2.12016 -2.66125,-4.71149 -0.69306,-3.60389 -2.02445,-2.42858 -5.66321,4.9992 -2.61644,5.34095 -4.75715,11.12632 -4.75715,12.8564 0,3.73734 -3.2906,4.04951 -6.03171,0.57209 -2.61096,-3.31227 -5.75614,-31.28166 -3.68024,-32.72764 0.86284,-0.60101 1.17335,-2.36956 0.69001,-3.93013 -0.48336,-1.56057 -1.95736,-2.01153 -3.27559,-1.00214 -1.31821,1.0094 -2.39675,0.36918 -2.39675,-1.42269 0,-1.79189 -1.14023,-4.13104 -2.53385,-5.19818 -1.45297,-1.11257 -2.10834,-0.56639 -1.53633,1.2804 0.55469,1.79095 -0.79683,3.22064 -3.04455,3.22064 -2.22313,0 -4.41263,-1.83259 -4.86555,-4.07243 -0.60812,-3.00724 -0.85722,-2.9029 -0.9524,0.39893 -0.0995,3.45097 -0.64832,3.61119 -2.40497,0.70202 -1.75324,-2.90346 -2.85159,-2.62091 -4.78147,1.23005 z m 58.48753,63.64235 c -0.55499,1.79187 -1.33307,3.25795 -1.72907,3.25795 -0.39598,0 -0.71998,-1.46608 -0.71998,-3.25795 0,-1.79185 0.77808,-3.25794 1.72906,-3.25794 0.95099,0 1.27498,1.46609 0.71999,3.25794 z m 3.53034,7.33037 c -0.45292,2.23985 -0.8235,0.40724 -0.8235,-4.07242 0,-4.47968 0.37058,-6.31226 0.8235,-4.07243 0.45293,2.23983 0.45293,5.90502 0,8.14485 z m 7.0822,-7.4326 c 0,1.7356 -1.10208,2.3118 -2.44905,1.28039 -1.34697,-1.03143 -2.44905,-2.45146 -2.44905,-3.15571 0,-0.70418 1.10208,-1.28039 2.44905,-1.28039 1.34697,0 2.44905,1.42008 2.44905,3.15571 z M 77.455011,251.23401 c -10e-7,1.03434 1.911182,3.14007 4.403805,8.61029 3.52266,7.73065 8.071773,19.38375 8.860581,19.98779 1.346984,1.03143 2.449046,4.12039 2.449046,6.86444 0,2.74405 0.813331,4.98916 1.807388,4.98916 2.118371,5.62677 4.38893,8.48118 5.365689,15.74542 0.66467,4.79844 2.1859,10.71621 2.96869,18.66725 1.61936,10.48553 2.11961,19.88066 2.91983,30.74618 0,6.99854 4.74712,9.2632 5.1219,2.44346 -1.60858,-15.35015 3.18145,-45.1217 2.74879,-58.54895 -0.5303,-0.87968 -1.25182,0.33427 -2.31022,-0.1229 -0.24848,-0.10739 -1.3476,0.34349 -1.57513,0.27322 -1.18065,-0.36466 -1.4856,-1.99856 -1.85192,-0.9303 -0.0985,1.39947 -0.35603,9.92136 -0.40691,14.33953 -0.003,2.4473 -1.94193,-11.3366 -2.04237,-8.89663 -0.62464,-0.72707 -1.69204,-7.86246 -2.21397,-8.59284 -5.652199,-7.9097 -5.64265,-15.97342 -7.796371,-23.30248 -1.448131,-4.92793 -3.480484,-10.0379 -8.032441,-15.63867 -1.28324,-1.55072 -4.996671,-11.1798 -6.189526,-12.45186 -1.45994,-1.55688 -3.765509,-3.75001 -4.394012,-2.42652 -0.782027,1.64679 0.291278,7.2004 0.167151,8.24437 z m -54.492583,57.72631 c 1.280099,0.80482 -0.734723,-3.72132 -1.632705,-2.61388 -0.897983,1.10743 -1.632694,0.58311 -1.632694,-1.1652 0,-1.74832 0.741967,-3.67222 1.648814,-4.27545 1.970868,-0.8876 2.939255,-7.32765 4.289426,-10.27072 1.964462,-4.28208 2.802901,-5.27349 3.360393,-9.63452 0.228471,-1.78714 0.124204,-3.66565 -1.238615,-4.82488 -1.311578,-1.11566 -2.152773,-0.0961 -2.450899,-0.46753 -0.02878,-0.0358 -0.05293,-0.0976 -0.08645,-0.10254 -1.166579,-0.17761 -2.481421,1.89856 -3.875069,5.02596 -1.984509,4.45332 -4.128825,11.03824 -6.232442,16.28271 -2.032749,5.06779 -4.479734,10.83207 -0.461451,17.17243 2.855541,4.50572 8.229961,-2.9006 8.311657,-5.12641 z M 181.9339,340.44027 c 0.17287,-5.71004 -2.27207,-3.2859 -4.37578,-3.65577 l 0,0 c -1.55672,-0.43178 -3.17079,-0.008 -3.24636,1.2475 -0.34838,10.77112 6.95229,11.56955 7.62214,2.40827 z"
   id="path39"
   inkscape:connector-curvature="0" />
 </svg>