<?xml version="1.0" encoding="UTF-8" standalone="no"?>
<svg
   xmlns:dc="http://purl.org/dc/elements/1.1/"
   xmlns:cc="http://creativecommons.org/ns#"
   xmlns:rdf="http://www.w3.org/1999/02/22-rdf-syntax-ns#"
   xmlns:svg="http://www.w3.org/2000/svg"
   xmlns="http://www.w3.org/2000/svg"
   xmlns:sodipodi="http://sodipodi.sourceforge.net/DTD/sodipodi-0.dtd"
   xmlns:inkscape="http://www.inkscape.org/namespaces/inkscape"
   version="1.1"
   id="Layer_1"
   x="0px"
   y="0px"
   width="700"
   height="1024"
   viewBox="0 0 700 1024"
   enable-background="new 0 0 512 512"
   xml:space="preserve"
   inkscape:version="0.48.0 r9654"
   sodipodi:docname="uni2F72-x2f72.svg"><metadata
   id="metadata72"><rdf:RDF><cc:Work
       rdf:about=""><dc:format>image/svg+xml</dc:format><dc:type
         rdf:resource="http://purl.org/dc/dcmitype/StillImage" /></cc:Work></rdf:RDF></metadata><defs
   id="defs70" /><sodipodi:namedview
   pagecolor="#ffffff"
   bordercolor="#666666"
   borderopacity="1"
   objecttolerance="10"
   gridtolerance="10"
   guidetolerance="10"
   inkscape:pageopacity="0"
   inkscape:pageshadow="2"
   inkscape:window-width="1152"
   inkscape:window-height="814"
   id="namedview68"
   showgrid="false"
   inkscape:zoom="0.36045873"
   inkscape:cx="-286.67923"
   inkscape:cy="405.56748"
   inkscape:window-x="-8"
   inkscape:window-y="-8"
   inkscape:window-maximized="1"
   inkscape:current-layer="Layer_1" />
	<g
   id="Grid"
   transform="matrix(2.0004579,0,0,1.99505,0.50022895,2.0369)">
		<rect
   x="0"
   stroke-miterlimit="10"
   width="512"
   height="512"
   id="rect4"
   y="0"
   style="fill:none;stroke:#a9ccdb;stroke-miterlimit:10" />
		<line
   stroke-miterlimit="10"
   x1="0"
   y1="32"
   x2="512"
   y2="32"
   id="line6"
   style="fill:none;stroke:#a9ccdb;stroke-miterlimit:10" />
		<line
   stroke-miterlimit="10"
   x1="0"
   y1="64"
   x2="512"
   y2="64"
   id="line8"
   style="fill:none;stroke:#a9ccdb;stroke-miterlimit:10" />
		<line
   stroke-miterlimit="10"
   x1="0"
   y1="96"
   x2="512"
   y2="96"
   id="line10"
   style="fill:none;stroke:#a9ccdb;stroke-miterlimit:10" />
		<line
   stroke-miterlimit="10"
   x1="0"
   y1="128"
   x2="512"
   y2="128"
   id="line12"
   style="fill:none;stroke:#a9ccdb;stroke-miterlimit:10" />
		<line
   stroke-miterlimit="10"
   x1="0"
   y1="160"
   x2="512"
   y2="160"
   id="line14"
   style="fill:none;stroke:#a9ccdb;stroke-miterlimit:10" />
		<line
   stroke-miterlimit="10"
   x1="0"
   y1="192"
   x2="512"
   y2="192"
   id="line16"
   style="fill:none;stroke:#a9ccdb;stroke-miterlimit:10" />
		<line
   stroke-miterlimit="10"
   x1="0"
   y1="224"
   x2="512"
   y2="224"
   id="line18"
   style="fill:none;stroke:#a9ccdb;stroke-miterlimit:10" />
		<line
   stroke-miterlimit="10"
   x1="0"
   y1="256"
   x2="512"
   y2="256"
   id="line20"
   style="fill:none;stroke:#a9ccdb;stroke-miterlimit:10" />
		<line
   stroke-miterlimit="10"
   x1="0"
   y1="288"
   x2="512"
   y2="288"
   id="line22"
   style="fill:none;stroke:#a9ccdb;stroke-miterlimit:10" />
		<line
   stroke-miterlimit="10"
   x1="0"
   y1="320"
   x2="512"
   y2="320"
   id="line24"
   style="fill:none;stroke:#a9ccdb;stroke-miterlimit:10" />
		<line
   stroke-miterlimit="10"
   x1="0"
   y1="352"
   x2="512"
   y2="352"
   id="line26"
   style="fill:none;stroke:#a9ccdb;stroke-miterlimit:10" />
		<line
   stroke-miterlimit="10"
   x1="0"
   y1="384"
   x2="512"
   y2="384"
   id="line28"
   style="fill:none;stroke:#a9ccdb;stroke-miterlimit:10" />
		<line
   stroke-miterlimit="10"
   x1="0"
   y1="416"
   x2="512"
   y2="416"
   id="line30"
   style="fill:none;stroke:#a9ccdb;stroke-miterlimit:10" />
		<line
   stroke-miterlimit="10"
   x1="0"
   y1="448"
   x2="512"
   y2="448"
   id="line32"
   style="fill:none;stroke:#ff0000;stroke-miterlimit:10" />
		<line
   stroke-miterlimit="10"
   x1="0"
   y1="480"
   x2="512"
   y2="480"
   id="line34"
   style="fill:none;stroke:#a9ccdb;stroke-miterlimit:10" />
		<line
   stroke-miterlimit="10"
   x1="32"
   y1="0"
   x2="32"
   y2="512"
   id="line36"
   style="fill:none;stroke:#a9ccdb;stroke-miterlimit:10" />
		<line
   stroke-miterlimit="10"
   x1="64"
   y1="0"
   x2="64"
   y2="512"
   id="line38"
   style="fill:none;stroke:#a9ccdb;stroke-miterlimit:10" />
		<line
   stroke-miterlimit="10"
   x1="96"
   y1="0"
   x2="96"
   y2="512"
   id="line40"
   style="fill:none;stroke:#a9ccdb;stroke-miterlimit:10" />
		<line
   stroke-miterlimit="10"
   x1="128"
   y1="0"
   x2="128"
   y2="512"
   id="line42"
   style="fill:none;stroke:#a9ccdb;stroke-miterlimit:10" />
		<line
   stroke-miterlimit="10"
   x1="160"
   y1="0"
   x2="160"
   y2="512"
   id="line44"
   style="fill:none;stroke:#a9ccdb;stroke-miterlimit:10" />
		<line
   stroke-miterlimit="10"
   x1="192"
   y1="0"
   x2="192"
   y2="512"
   id="line46"
   style="fill:none;stroke:#a9ccdb;stroke-miterlimit:10" />
		<line
   stroke-miterlimit="10"
   x1="224"
   y1="0"
   x2="224"
   y2="512"
   id="line48"
   style="fill:none;stroke:#a9ccdb;stroke-miterlimit:10" />
		<line
   stroke-miterlimit="10"
   x1="256"
   y1="0"
   x2="256"
   y2="512"
   id="line50"
   style="fill:none;stroke:#a9ccdb;stroke-miterlimit:10" />
		<line
   stroke-miterlimit="10"
   x1="288"
   y1="0"
   x2="288"
   y2="512"
   id="line52"
   style="fill:none;stroke:#a9ccdb;stroke-miterlimit:10" />
		<line
   stroke-miterlimit="10"
   x1="320"
   y1="0"
   x2="320"
   y2="512"
   id="line54"
   style="fill:none;stroke:#a9ccdb;stroke-miterlimit:10" />
		<line
   stroke-miterlimit="10"
   x1="352"
   y1="0"
   x2="352"
   y2="512"
   id="line56"
   style="fill:none;stroke:#a9ccdb;stroke-miterlimit:10" />
		<line
   stroke-miterlimit="10"
   x1="384"
   y1="0"
   x2="384"
   y2="512"
   id="line58"
   style="fill:none;stroke:#a9ccdb;stroke-miterlimit:10" />
		<line
   stroke-miterlimit="10"
   x1="416"
   y1="0"
   x2="416"
   y2="512"
   id="line60"
   style="fill:none;stroke:#a9ccdb;stroke-miterlimit:10" />
		<line
   stroke-miterlimit="10"
   x1="448"
   y1="0"
   x2="448"
   y2="512"
   id="line62"
   style="fill:none;stroke:#a9ccdb;stroke-miterlimit:10" />
		<line
   stroke-miterlimit="10"
   x1="480"
   y1="0"
   x2="480"
   y2="512"
   id="line64"
   style="fill:none;stroke:#a9ccdb;stroke-miterlimit:10" />
	</g>
	
<path
   style="fill:#090909"
   d="m 342.76497,155.95522 c 0,24.59903 -3.0504,53.14094 -3.84381,56.9138 -1.37896,6.5572 2.86364,6.85973 -7.89219,6.85973 -9.57223,1.12485 -15.13338,-5.15165 -22.79273,-8.78046 -19.4209,-11.65027 -37.43601,-33.54977 -51.13469,-50.16541 -8.00521,-9.72867 -15.48911,-19.79755 -23.22098,-29.52507 -11.8671,-14.93008 -24.31835,-29.05602 -40.1352,-39.91358 -7.03295,-0.80585 -19.04555,-9.74374 -29.9384,-17.4472 -9.38979,-6.64049 -17.94753,-12.36372 -21.76634,-11.17009 -12.69828,10.41636 -10.20759,29.41538 -10.11459,44.81065 0.76297,10.97577 11.74148,16.87202 19.55579,24.79365 17.17329,19.67442 28.82728,45.73468 41.17638,62.40085 4.48872,5.95375 8.97329,11.92141 13.46053,17.86583 31.94206,42.31476 76.82282,83.45093 111.48867,110.00139 4.01842,3.0463 8.54716,5.8068 12.80192,8.64878 1.57331,1.05089 1.87687,2.07799 3.52298,2.81328 0.77599,0.34663 2.99948,1.74727 3.89252,2.50211 0.58734,0.49644 0.7616,2.02003 1.27292,2.02003 l 0.80041,23.72139 c 1.54553,6.91717 -0.90878,16.00287 0.93276,21.13972 1.49239,2.85611 1.07397,3.77889 1.44851,6.65484 0.33235,0.21535 0.0905,1.8653 0.026,2.42648 -0.0459,0.31141 -0.0868,0.62346 -0.13041,0.9352 -0.26601,0.12401 -0.0185,0.1238 -0.0161,0.7491 -0.10318,1.07743 -0.0741,2.16623 0.003,3.24563 -0.0522,0.49017 -1.31173,1.26193 -0.0328,1.59579 0.34213,-0.26426 0.33258,0.89976 0.0972,1.25409 -1.33398,0.44912 -0.13849,0.89436 -0.50607,2.63476 -2.35556,11.15304 -0.39614,36.8456 -0.37143,40.94831 0.0799,13.25608 -0.82755,24.92201 1.16556,30.29754 0.87408,-0.34303 0.10387,0.41393 0.26153,0.57253 0.19481,0.19603 0.11657,0.29202 -0.0485,0.75251 -0.10109,0.28187 0.44633,0.71721 0.2374,1.21623 -0.56079,0.84889 -0.25478,1.61415 -0.21213,2.40622 0.14865,0.31379 -0.0775,0.71403 0.11218,0.93459 0.50378,0.58541 0.87829,0.58405 0.18626,0.59099 -1.32038,-0.14334 -0.32267,0.72825 -0.57582,1.08178 -0.58846,0.82124 -0.20727,2.70544 -0.68383,5.25397 -2.29649,8.51676 -1.35962,20.4722 -1.34088,27.43801 -0.024,4.50067 -4.6157,11.03645 -4.78587,13.46517 -7.82814,21.46134 -10.71081,52.74888 -25.56666,68.34312 -3.41943,3.58608 -6.85409,7.13289 -10.27904,10.658 -31.14573,32.05664 -61.48747,62.31909 -72.26572,104.01868 -3.02565,11.82554 -4.66363,22.89347 -4.71677,27.95468 0.67388,7.02026 -0.0161,12.3146 1.32071,16.19553 4.4127,8.24002 10.49123,9.49535 16.5409,7.64936 5.46935,-1.66895 10.91511,-5.87277 15.08487,-9.74186 5.90213,-5.5077 11.15346,-11.63363 16.37035,-14.77687 6.31115,-3.56403 10.68323,-7.33522 10.6944,-11.3993 0.0385,-13.99104 45.21326,-28.33823 47.22343,-39.335 4.35522,-2.47405 4.54005,-4.20105 5.704,-8.78046 13.27662,-8.58859 -7.63809,-16.80074 11.75951,-9.89462 1.15854,1.07451 4.19557,38.61638 3.50478,69.33343 -0.42096,18.71841 -9.04146,34.22806 -9.67287,40.81067 -2.95696,13.70835 -5.23967,17.27404 -11.57074,27.4168 -4.882,7.84756 -5.0997,16.93975 -14.57026,26.20033 -10.77381,11.39816 -3.4316,18.03707 -16.18059,21.09974 -12.62683,3.03331 -17.31366,3.30531 -31.46306,3.44438 -13.50434,0.0701 -29.37716,-0.36393 -41.31593,-5.3396 -18.58716,-7.87317 -42.79003,-20.83337 -54.20822,-21.7852 -6.46021,0.31623 -9.30588,0.60604 -10.55836,-1.12962 -0.9367,-1.29808 -0.98227,-3.72906 -0.98227,-8.1292 l 0,-55.49712 2.82988,-36.75766 -2.82988,-27.99827 c -0.25825,-3.92669 -2.99458,-9.02072 -6.58258,-14.21812 -5.31774,-4.39596 -11.12749,-14.67611 -15.85612,-23.17347 -2.4425,-5.93101 -6.43784,-10.56902 -10.44548,-15.11688 -4.535,-5.3693 -7.98113,-9.74854 -11.13045,-13.23538 -6.50941,-6.1933 -16.629915,-11.45352 -26.274567,-12.71523 -9.092424,-1.18946 -17.76192,1.17481 -22.584123,9.66128 -3.009971,4.02218 -4.985773,8.14099 -6.403357,12.42565 -2.444212,7.38765 -3.228905,15.26842 -4.793696,23.99739 -1.703695,23.10182 -2.920882,47.34201 -1.803842,68.92042 0.893451,15.18953 1.430597,32.69216 4.324568,46.80878 1.89592,9.24815 5.289184,17.96711 11.579216,25.76524 15.464292,19.73772 45.783021,49.01922 58.810761,49.1322 4.83693,6.83486 14.2601,17.01494 21.21418,21.12529 12.36808,15.86492 55.08139,30.61939 74.49971,34.19968 20.1986,3.68382 52.42135,6.11767 74.50471,3.52494 26.29288,-4.98223 53.70668,-24.04959 70.79817,-35.90943 24.28237,-20.20102 31.93987,-47.67738 41.60092,-73.92782 3.18885,-14.93307 6.82025,-32.55186 6.95264,-42.72105 0.0385,-14.12926 1.29987,-19.62186 5.54813,-21.01863 1.26501,-0.19185 1.29421,-1.11067 1.90277,-1.89981 0.55774,-0.7233 1.71531,-1.29464 2.36592,-2.00739 0.88837,-0.97322 1.99256,-1.09078 2.01949,-2.48158 0,-3.21951 1.96325,-0.62238 6.1948,-0.62238 21.94289,21.18687 66.05038,38.05134 84.8431,58.23354 9.81697,19.87511 20.91221,36.14245 36.41973,51.89215 l 24.30284,7.94273 c 6.6813,-2.01804 11.04956,-5.28123 14.62735,-9.37928 3.68334,-4.21896 6.52885,-9.32275 10.19781,-14.86368 -2.64737,-6.92594 -4.7148,-13.82188 -7.15638,-20.29812 -3.66643,-9.72521 -8.17655,-18.50403 -16.76104,-25.01682 -2.5815,-1.92877 -4.61681,-8.27004 -7.04001,-9.83492 -6.47307,-4.18021 -7.71343,-6.65598 -7.87244,-7.2337 -11.00483,-12.4778 -52.86582,-74.50159 -58.32197,-74.54095 -10.0357,-2.98713 -41.86058,-57.02067 -42.70029,-65.85349 -14.78966,-31.06961 -22.77304,-53.82063 -28.16897,-81.54104 -1.69264,-9.61894 -5.16012,-12.63492 -5.89276,-20.61289 -0.69446,-7.95078 -2.7321,-47.34189 -3.40545,-72.87168 -0.85943,-32.58549 -0.13226,-55.20346 -0.21766,-70.36924 -0.10155,-18.03532 -0.85532,-25.68924 0.14334,-29.23355 0.30648,-1.89574 0.7233,-5.54374 0.88348,-6.46145 0.58875,0 0.46744,-1.52416 0.31199,-1.99378 -0.37133,-1.12169 -0.32813,-0.81018 0.38408,-2.58651 0.3912,-0.97571 -0.65644,-3.0614 1.13208,-3.86847 0.62239,-0.28087 1.0733,-0.66615 1.17449,-1.23566 0.47215,-2.65789 2.3445,-2.75158 3.22876,-3.67037 0.33177,-0.34474 0.69348,-0.59799 1.08579,-0.78299 1.47597,-0.69603 2.18459,-1.90071 4.5636,-1.90071 15.85392,-14.36491 60.2317,-54.22045 81.08698,-84.59652 6.85471,-12.781 23.55464,-42.58376 30.2057,-59.48574 1.40404,-3.56803 5.03686,-8.3794 5.05574,-10.31071 18.30209,-23.97495 38.75536,-65.29772 38.76358,-85.76877 0.42908,-7.28793 -5.84932,-20.55151 -11.01289,-29.50049 -2.6762,-4.63813 -3.77951,-5.94416 -4.76773,-5.95358 -1.1533,0 -1.3199,-1.03533 -2.11673,-0.8836 -0.60508,0.11525 -1.87307,1.42762 -2.4775,1.42753 -1.68712,-2.4e-4 -3.0362,1.84856 -3.70816,5.25504 -7.78962,15.9909 -35.70776,31.9767 -52.77336,53.06358 -9.15822,7.66926 -21.48882,34.45767 -28.88253,47.55641 -1.47641,2.29682 -7.78392,10.25047 -9.9834,13.03724 -11.1805,14.16581 -28.9573,44.40483 -37.6638,45.04049 l -17.27451,-0.38061 c -2.15029,-22.08276 -3.23301,-46.98798 -5.86152,-64.85526 0.17772,-14.90671 0.75029,-29.76135 -9.05415,-76.98976 C 403.9387,37.48089 386.35823,16.7258 373.56372,16.7258 c -16.56686,18.23821 -24.61617,33.07054 -28.39119,60.98018 -5.51102,40.74412 -1.91272,43.35425 -2.40692,78.24924 z"
   id="path3790"
   inkscape:connector-curvature="0"
   sodipodi:nodetypes="cscccscsccccscsssccccccccccsscssccscsccccscccsccscccscccccscsccccccccccsccscccccccccsscccccscscscccccssccssscssccsccscsscccscccscscc" />
	 
</svg>