<?xml version="1.0" encoding="UTF-8" standalone="no"?>
<svg
   xmlns:dc="http://purl.org/dc/elements/1.1/"
   xmlns:cc="http://creativecommons.org/ns#"
   xmlns:rdf="http://www.w3.org/1999/02/22-rdf-syntax-ns#"
   xmlns:svg="http://www.w3.org/2000/svg"
   xmlns="http://www.w3.org/2000/svg"
   xmlns:sodipodi="http://sodipodi.sourceforge.net/DTD/sodipodi-0.dtd"
   xmlns:inkscape="http://www.inkscape.org/namespaces/inkscape"
   version="1.1"
   id="Layer_1"
   x="0px"
   y="0px"
   width="1000"
   height="1000"
   viewBox="0 0 1000 1000"
   enable-background="new 0 0 512 512"
   xml:space="preserve"
   inkscape:version="0.48.0 r9654"
   sodipodi:docname="uni2FC3-x2fc3.svg"><metadata
   id="metadata72"><rdf:RDF><cc:Work
       rdf:about=""><dc:format>image/svg+xml</dc:format><dc:type
         rdf:resource="http://purl.org/dc/dcmitype/StillImage" /></cc:Work></rdf:RDF></metadata><defs
   id="defs70" /><sodipodi:namedview
   pagecolor="#ffffff"
   bordercolor="#666666"
   borderopacity="1"
   objecttolerance="10"
   gridtolerance="10"
   guidetolerance="10"
   inkscape:pageopacity="0"
   inkscape:pageshadow="2"
   inkscape:window-width="1098"
   inkscape:window-height="689"
   id="namedview68"
   showgrid="false"
   inkscape:zoom="0.25"
   inkscape:cx="-119.36784"
   inkscape:cy="669.56327"
   inkscape:window-x="46"
   inkscape:window-y="46"
   inkscape:window-maximized="0"
   inkscape:current-layer="Layer_1" />
	<g
   id="Grid"
   transform="matrix(1.9559636,0,0,1.952167,0.48404577,0.01535327)">
		<rect
   x="0"
   stroke-miterlimit="10"
   width="512"
   height="512"
   id="rect4"
   y="0"
   style="fill:none;stroke:#a9ccdb;stroke-miterlimit:10" />
		<line
   stroke-miterlimit="10"
   x1="0"
   y1="32"
   x2="512"
   y2="32"
   id="line6"
   style="fill:none;stroke:#a9ccdb;stroke-miterlimit:10" />
		<line
   stroke-miterlimit="10"
   x1="0"
   y1="64"
   x2="512"
   y2="64"
   id="line8"
   style="fill:none;stroke:#a9ccdb;stroke-miterlimit:10" />
		<line
   stroke-miterlimit="10"
   x1="0"
   y1="96"
   x2="512"
   y2="96"
   id="line10"
   style="fill:none;stroke:#a9ccdb;stroke-miterlimit:10" />
		<line
   stroke-miterlimit="10"
   x1="0"
   y1="128"
   x2="512"
   y2="128"
   id="line12"
   style="fill:none;stroke:#a9ccdb;stroke-miterlimit:10" />
		<line
   stroke-miterlimit="10"
   x1="0"
   y1="160"
   x2="512"
   y2="160"
   id="line14"
   style="fill:none;stroke:#a9ccdb;stroke-miterlimit:10" />
		<line
   stroke-miterlimit="10"
   x1="0"
   y1="192"
   x2="512"
   y2="192"
   id="line16"
   style="fill:none;stroke:#a9ccdb;stroke-miterlimit:10" />
		<line
   stroke-miterlimit="10"
   x1="0"
   y1="224"
   x2="512"
   y2="224"
   id="line18"
   style="fill:none;stroke:#a9ccdb;stroke-miterlimit:10" />
		<line
   stroke-miterlimit="10"
   x1="0"
   y1="256"
   x2="512"
   y2="256"
   id="line20"
   style="fill:none;stroke:#a9ccdb;stroke-miterlimit:10" />
		<line
   stroke-miterlimit="10"
   x1="0"
   y1="288"
   x2="512"
   y2="288"
   id="line22"
   style="fill:none;stroke:#a9ccdb;stroke-miterlimit:10" />
		<line
   stroke-miterlimit="10"
   x1="0"
   y1="320"
   x2="512"
   y2="320"
   id="line24"
   style="fill:none;stroke:#a9ccdb;stroke-miterlimit:10" />
		<line
   stroke-miterlimit="10"
   x1="0"
   y1="352"
   x2="512"
   y2="352"
   id="line26"
   style="fill:none;stroke:#a9ccdb;stroke-miterlimit:10" />
		<line
   stroke-miterlimit="10"
   x1="0"
   y1="384"
   x2="512"
   y2="384"
   id="line28"
   style="fill:none;stroke:#a9ccdb;stroke-miterlimit:10" />
		<line
   stroke-miterlimit="10"
   x1="0"
   y1="416"
   x2="512"
   y2="416"
   id="line30"
   style="fill:none;stroke:#a9ccdb;stroke-miterlimit:10" />
		<line
   stroke-miterlimit="10"
   x1="0"
   y1="448"
   x2="512"
   y2="448"
   id="line32"
   style="fill:none;stroke:#ff0000;stroke-miterlimit:10" />
		<line
   stroke-miterlimit="10"
   x1="0"
   y1="480"
   x2="512"
   y2="480"
   id="line34"
   style="fill:none;stroke:#a9ccdb;stroke-miterlimit:10" />
		<line
   stroke-miterlimit="10"
   x1="32"
   y1="0"
   x2="32"
   y2="512"
   id="line36"
   style="fill:none;stroke:#a9ccdb;stroke-miterlimit:10" />
		<line
   stroke-miterlimit="10"
   x1="64"
   y1="0"
   x2="64"
   y2="512"
   id="line38"
   style="fill:none;stroke:#a9ccdb;stroke-miterlimit:10" />
		<line
   stroke-miterlimit="10"
   x1="96"
   y1="0"
   x2="96"
   y2="512"
   id="line40"
   style="fill:none;stroke:#a9ccdb;stroke-miterlimit:10" />
		<line
   stroke-miterlimit="10"
   x1="128"
   y1="0"
   x2="128"
   y2="512"
   id="line42"
   style="fill:none;stroke:#a9ccdb;stroke-miterlimit:10" />
		<line
   stroke-miterlimit="10"
   x1="160"
   y1="0"
   x2="160"
   y2="512"
   id="line44"
   style="fill:none;stroke:#a9ccdb;stroke-miterlimit:10" />
		<line
   stroke-miterlimit="10"
   x1="192"
   y1="0"
   x2="192"
   y2="512"
   id="line46"
   style="fill:none;stroke:#a9ccdb;stroke-miterlimit:10" />
		<line
   stroke-miterlimit="10"
   x1="224"
   y1="0"
   x2="224"
   y2="512"
   id="line48"
   style="fill:none;stroke:#a9ccdb;stroke-miterlimit:10" />
		<line
   stroke-miterlimit="10"
   x1="256"
   y1="0"
   x2="256"
   y2="512"
   id="line50"
   style="fill:none;stroke:#a9ccdb;stroke-miterlimit:10" />
		<line
   stroke-miterlimit="10"
   x1="288"
   y1="0"
   x2="288"
   y2="512"
   id="line52"
   style="fill:none;stroke:#a9ccdb;stroke-miterlimit:10" />
		<line
   stroke-miterlimit="10"
   x1="320"
   y1="0"
   x2="320"
   y2="512"
   id="line54"
   style="fill:none;stroke:#a9ccdb;stroke-miterlimit:10" />
		<line
   stroke-miterlimit="10"
   x1="352"
   y1="0"
   x2="352"
   y2="512"
   id="line56"
   style="fill:none;stroke:#a9ccdb;stroke-miterlimit:10" />
		<line
   stroke-miterlimit="10"
   x1="384"
   y1="0"
   x2="384"
   y2="512"
   id="line58"
   style="fill:none;stroke:#a9ccdb;stroke-miterlimit:10" />
		<line
   stroke-miterlimit="10"
   x1="416"
   y1="0"
   x2="416"
   y2="512"
   id="line60"
   style="fill:none;stroke:#a9ccdb;stroke-miterlimit:10" />
		<line
   stroke-miterlimit="10"
   x1="448"
   y1="0"
   x2="448"
   y2="512"
   id="line62"
   style="fill:none;stroke:#a9ccdb;stroke-miterlimit:10" />
		<line
   stroke-miterlimit="10"
   x1="480"
   y1="0"
   x2="480"
   y2="512"
   id="line64"
   style="fill:none;stroke:#a9ccdb;stroke-miterlimit:10" />
	</g>
<path
   d="m 230,123.3125 c -9.39064,0.0767 -18.63282,1.80425 -25.71875,5.21875 -7.54068,3.59205 -13.31115,7.05822 -19.71875,14.125 -12.2614,13.52277 -19.3088,34.59721 -20.84375,47.375 -1.78499,12.99104 0.59501,24.66041 5.125,35.53125 4.69589,11.26893 11.67758,21.67097 18.625,31.78125 9.68383,14.24568 19.83116,30.10394 23,40.28125 0.71118,3.0462 3.10963,11.96202 5.34375,19.8125 4.76697,16.75036 3.76857,38.47938 -2.5625,55.375 -2.1422,5.71683 -3.75,14.98726 -3.75,21.5625 l 0,11.53125 -22.53125,19.34375 c -5.64923,5.62927 -11.11326,11.06791 -16.28125,16.46875 -17.83073,18.63411 -32.11695,36.90374 -38.3125,61.75 -4.16369,21.99802 -6.48669,41.23897 -4.78125,62.03125 1.01842,20.4752 4.39449,45.16005 9.53125,62.84375 4.33555,14.01314 12.88381,32.2648 19.84375,43.71875 -1.32777,5.31925 -2.71375,10.50338 -4.21875,15.84375 -1.78106,6.32005 -3.74867,12.85794 -5.9375,20.0625 -2.08515,6.67343 -5.74167,13.01688 -6.03125,19.1875 -1.78847,9.63555 6.09017,12.29868 15.65625,11.59375 2.49011,-0.10092 4.80986,-0.58975 6.96875,-1.28125 1.05268,-0.44969 1.98341,-1.02122 2.90625,-1.625 8.35461,-5.44045 30.40835,-19.47849 34.46875,-20.21875 10.69486,0.50215 18.47076,-2.00738 35.59375,1.4375 12.38903,2.49248 34.33216,10.08707 43.4375,14.6875 8.54906,4.31939 11.10319,11.8138 13.6875,17.3125 2.73474,6.57007 -1.79114,17.65566 -2.34375,24.5625 -6.47315,19.46194 -22.42171,32.76603 -42.1875,43.34375 -18.66305,9.98758 -41.07214,16.49317 -63.4375,19.6875 -21.62397,3.08844 -43.70767,1.58069 -61.75,-1.375 -7.23883,-1.18586 -13.39983,-1.3439 -19.28125,-3.46875 -9.33277,-4.43348 -16.78363,-9.85425 -13.4375,-17.1875 6.78294,-8.95233 22.66026,-19.44349 33.78125,-25.84375 13.92651,-12.18683 13.95415,-16.56018 27.28125,-34.59375 0.59181,-3.54217 -5.26595,-5.61844 -8,-8.6875 -3.2913,-3.69457 -3.91729,-8.01121 -7.90625,-7.40625 -4.69834,0.71253 -7.08508,10.98145 -8.78125,11.5625 -10.65656,15.28429 -20.82389,25.35256 -33.3125,34.9375 -7.50483,5.75993 -17.61176,10.78455 -24.1875,18.21875 -4.725,5.21897 -9.8372,8.82855 -10.3125,15.46875 0.0817,2.45121 0.44128,4.77454 1.03125,6.6875 6.28484,9.89241 17.88488,20.37825 29.75,24.15625 11.85145,4.42756 23.74937,7.89111 35.6875,10.34375 10.0937,2.1053 20.05467,3.32528 29.875,3.78125 10.54329,0.48953 20.92798,0.0899 31.125,-0.96875 21.59195,-2.29064 42.94169,-7.55997 62.09375,-15.71875 12.54929,-4.00903 23.48291,-8.25479 31.65625,-12.4375 11.14787,6.35821 21.02118,13.37343 31.59375,18.0625 19.30905,8.55836 41.618,16.48158 62.21875,20.875 20.03751,4.2733 38.07536,5.10462 56.71875,1.5625 2.32555,-0.61903 4.61942,-1.24093 6.84375,-1.875 22.18726,-6.32477 39.44313,-13.54699 54.15625,-24.8125 19.17491,-17.46336 34.05547,-36.29655 45.375,-56.1875 8.70177,-15.29095 15.29565,-31.22802 20.125,-47.625 3.55206,-10.04457 5.35116,-21.53008 15.34375,-27.125 13.86878,-6.04157 30.2342,-9.53913 43.84375,-13.8125 40.19868,-13.62062 96.35733,-28.88565 129.09375,-52.59375 3.51085,-2.7054 3.54917,-3.10355 0.4375,-6.03125 -6.41722,-3.28407 -8.8575,-6.04931 -14.53125,-9.625 -40.23337,-20.28347 -75.9016,-43.40406 -114.9375,-58.46875 -5.58286,-2.15453 -11.25654,-2.89413 -17,-4.6875 -3.25764,-0.62503 -4.52845,2.11689 -5.90625,4.59375 -1.8373,3.30286 -3.09366,6.76519 -2.125,7.34375 7.57511,3.61986 15.17665,5.82125 22.96875,8.375 9.83555,2.53602 18.12414,7.83707 26.03125,12.3125 1.49181,4.19932 -1.48812,8.88212 5.71875,8.84375 5.98923,-0.0429 8.92729,0.9322 11.65625,3.84375 3.04217,3.24574 5.54128,3.875 15.1875,3.875 6.8813,0.8825 20.92855,8.5346 31.15625,14.9375 9.13392,5.71814 15.12682,9.60948 11.90625,13.6875 -28.91085,18.2482 -69.0643,31.2003 -102.4375,41.1875 -13.91101,3.22076 -28.48758,9.85452 -42.15625,10.5 -7.58367,-1.05363 -15.14356,-1.48952 -16.5625,2.6875 -3.38055,9.95166 -9.51709,26.03273 -14.75,38.90625 -12.08299,29.56351 -25.34405,59.59466 -49.09375,80.84375 -18.10589,14.05612 -36.09088,23.10497 -54.3125,27.9375 -21.27951,4.23901 -42.83,4.40809 -63.40625,0.78125 -21.70986,-3.82665 -42.31706,-11.85974 -60.40625,-23.8125 -7.17576,-4.72831 -12.77409,-9.44567 -19.625,-14.96875 l 3.9375,-12.40625 c 2.16173,-6.82514 5.7664,-17.17146 8,-23 2.56302,-6.68819 3.78412,-13.68957 3.34375,-19 -0.38378,-4.62785 -0.10852,-8.12095 0.59375,-7.75 1.23265,0.65106 1.90167,-1.48967 5.59375,-18.03125 0.94141,-4.21781 2.81222,-11.9074 4.15625,-17.0625 1.86306,-7.14584 1.89043,-10.37688 0.125,-13.625 -3.74962,-6.89866 -7.37331,-11.87087 -11.78125,-16.1875 -6.00466,-9.90248 -4.95034,-3.88824 1.28125,-13.96875 1.38904,-2.20996 1.60058,-4.10833 0.5,-4.6875 0.57639,-9.49979 5.13359,-16.31764 8.09375,-26 5.90322,-11.08467 9.40475,-17.70662 16,-29.03125 2.99956,-5.27603 3.91236,-9.26723 3.09375,-13.5625 -1.32384,-6.94628 2.56589,-14.75866 8.71875,-17.5625 4.98683,-2.27251 5.04545,-5.26229 0.21875,-8.78125 -4.50036,-3.28103 -4.22961,-15.47356 0.4375,-19.90625 2.633,-2.50076 2.54463,-3.52006 -0.78125,-8.8125 -2.06155,-3.28051 -3.84375,-3.75 -3.84375,-3.75 0,0 0.0599,-0.17664 -1.3125,-0.0312 -0.49086,0.0519 -2.30641,0.16678 -4.0625,0.46875 -1.5601,0.26833 -3.0867,0.60439 -3.59375,0.8125 -0.57452,0.23578 -0.97083,1.50073 -0.53125,1.875 1.89741,1.61561 -23.43334,15.45858 -26.875,14.6875 -0.69609,-0.15596 -1.16,0.64638 -1.0625,1.78125 0.0974,1.13484 -0.56268,4.84902 -1.4375,8.25 -1.15232,4.47966 -0.70942,7.61387 1.59375,11.40625 1.74858,2.87919 3.1875,7.04769 3.1875,9.25 0,2.20231 1.12402,5.0498 2.5,6.3125 2.0371,1.8694 1.87332,2.09169 -0.84375,1.28125 -1.93492,-0.57713 -3.79759,0.0487 -4.4375,1.46875 -0.60693,1.34675 -2.24572,2.46501 -3.65625,2.5 -1.41052,0.035 -4.81057,2.85513 -7.5625,6.25 l -5,6.15625 8,7.28125 c 4.40311,3.9945 9.79843,7.59737 12,8.03125 3.74874,0.73884 3.72146,0.81486 -0.3125,1 -4.80945,0.22071 -7.66529,5.3546 -11.5,20.625 -1.97052,7.8469 -3.24201,9.61265 -7.875,11 -3.88223,1.16253 -6.68041,1.04326 -9.40625,-0.40625 -2.13307,-1.13428 -5.91457,-2.05726 -8.40625,-2.0625 -8.9159,-0.0187 -19.30416,-3.49913 -20.5625,-6.875 -2.04881,-5.49651 0.78685,-9.83031 10.46875,-16.125 5.28568,-4.53668 15.31807,-11.47139 16.1875,-18.78125 -0.38794,-0.33032 -3.24601,-0.99048 -6.34375,-1.46875 -10.15749,-1.56835 -18.32811,-6.49425 -14.5,-12.09375 -0.16005,0.11535 -5.35669,3.8456 -10.84375,6.78125 -9.97725,5.33793 -15.96875,10.49552 -15.96875,13.75 -0.17658,1.45378 0.41707,3.11116 1.34375,4.6875 1.06055,1.80402 2.56149,3.51954 3.84375,4.75 2.23532,2.10311 2.63267,3.83508 1.3125,5.84375 -3.03471,4.61732 -20.92122,15.89303 -23.75,14.96875 -4.09444,-1.33784 -5.2402,-6.88776 -2.75,-13.3125 -3.32147,-13.18523 -8.77594,-12.89374 -14.6875,-8.375 -6.74465,5.15555 -14.10034,15.81526 -19.65625,18.21875 -4.99465,-4.57597 -9.54343,-11.8006 -13.625,-21.625 -8.54857,-20.57656 -10.85553,-50.09759 -12.375,-63.8125 -0.63948,-20.85696 -1.59935,-43.54648 5.375,-61.90625 6.76093,-17.41022 19.38739,-32.89889 32.46875,-47.90625 4.11426,-5.13764 7.26777,-9.07768 12.25,-13.1875 7.0249,-5.79483 15.20675,-9.95037 25.34375,-10.6875 2.71749,3.88665 4.67542,7.05226 6.65625,9.6875 3.81913,5.08083 7.73486,8.19998 17.375,10.78125 10.49022,2.65265 21.3677,3.30295 31.21875,2.3125 14.12047,-2.26222 24.21296,-5.28465 32.6875,-11.71875 5.39339,-4.09481 10.138,-9.59599 14.84375,-17.125 12.89699,-16.91763 1.36009,-34.61063 -9.28125,-41.3125 -3.71474,-2.32139 -8.5555,-6.58799 -10.96875,-8.875 -0.4586,-0.43461 -1.20209,-0.86112 -1.71875,-1.28125 -0.005,-0.004 0.005,-0.0272 0,-0.0312 -0.0337,-0.0465 -0.0945,-0.10367 -0.15625,-0.15625 -0.007,-0.006 -0.0246,0.006 -0.0312,0 -0.0548,-0.0732 -0.10077,-0.12166 -0.15625,-0.1875 -0.14985,-0.17783 -0.27602,-0.30386 -0.375,-0.40625 -0.0174,-0.0205 -0.0158,-0.0435 -0.0312,-0.0625 -0.0193,-0.0291 -0.0144,-0.0646 -0.0312,-0.0937 0.0183,-0.0567 -0.11121,-0.33343 -0.25,-0.65625 -0.0255,-0.1451 -0.0736,-0.31859 -0.0937,-0.5 -0.0109,-0.12742 -0.0324,-0.24666 -0.0312,-0.375 0.003,-0.31871 0.0309,-0.63842 0,-0.90625 -0.006,-0.0523 0.005,-0.10443 0,-0.15625 0.0759,-1.49275 0.60961,-3.05392 1.4375,-4.375 0.0379,-0.0455 0.0875,-0.0791 0.125,-0.125 0.1665,-0.20385 0.31042,-0.42331 0.46875,-0.625 0.0235,-0.0225 0.0403,-0.0414 0.0625,-0.0625 0.0285,-0.0363 0.0655,-0.058 0.0937,-0.0937 0.37202,-0.47219 0.73211,-0.90563 1.0625,-1.1875 -0.0963,0.0603 -0.0328,0.0103 0.0312,-0.0312 0.005,-0.004 -0.005,-0.0272 0,-0.0312 0.0322,-0.0109 0.0194,0.001 0.0312,0 -0.004,0.004 0.005,0.0273 0,0.0312 0.0111,-0.008 0.0201,-0.0231 0.0312,-0.0312 0.0102,-0.008 0.0268,-0.0281 0.0312,-0.0312 1.13853,-0.82264 2.68174,-1.52246 3.9375,-1.71875 0.0867,0.007 0.22228,-0.009 0.34375,-0.0312 0.46551,-0.12103 0.72607,-0.18015 0.84375,-0.25 0.01,-0.004 0.0215,-0.0274 0.0312,-0.0312 0.17876,-0.0707 0.37375,-0.13469 0.6875,-0.21875 18.98302,-5.08446 42.24056,-7.50895 58.4375,-8.4375 21.07397,-1.14346 43.57784,-0.69148 64.625,-0.4375 21.25847,0.26843 42.42852,0.81753 63.4375,1.53125 42.75112,1.45237 84.77539,3.6257 125.125,5.71875 20.77504,1.10469 41.34477,2.56522 61.84375,4.71875 21.35009,2.23559 42.05856,3.84783 62.625,7.1875 11.64133,1.89037 19.7418,5.83485 31.40625,7.75 -30.80927,19.11483 -35.39658,23.12647 -54.40625,35.0625 -6.28297,3.85779 4.60172,16.21774 11.0625,11.15625 25.45679,-14.59926 52.79285,-32.4807 73.75,-48.28125 -7.79852,-8.44928 -39.07141,-19.98991 -61.09375,-22.78125 -26.00031,-2.63769 -40.33801,-5.62329 -64.46875,-7.65625 -20.01972,-0.33201 -40.68518,-3.75674 -60.875,-4.84375 -43.72821,-1.50703 -85.59343,-4.83665 -126.40625,-5.8125 -21.32235,1.2471 -40.87346,-0.43912 -60.9375,-1.25 -20.5025,-0.8286 -43.67681,-1.63994 -63.65625,-0.5625 -21.31352,1.03282 -41.69062,5.50944 -60.75,9.0625 -8.95924,3.66425 -19.81964,8.19338 -23.375,15.5625 -2.44458,5.32958 -3.71637,12.40096 -3.625,12.75 0.006,0.0235 -0.0277,0.0434 -0.0625,0.0625 -0.80828,13.56584 18.79369,21.33923 25.90625,30.96875 2.72421,3.68825 3.63705,7.65164 0.84375,12.3125 -8.20953,10.99904 -26.58312,20.58385 -33.59375,21.3125 -12.83396,-0.0386 -27.74421,-5.45585 -34.53125,-12.5 -3.87782,-7.32532 -5.3285,-16.78528 -2.84375,-24.375 0.0686,-0.19334 0.16282,-0.51378 0.25,-0.6875 -0.0438,-0.0261 -0.0381,-0.0955 -0.0625,-0.15625 -0.0209,-0.0603 0.003,-0.12815 -0.0312,-0.15625 -0.008,-0.0104 -0.0242,-0.0202 -0.0312,-0.0312 -0.0263,-0.0896 -0.0869,-0.31165 -0.125,-0.46875 -0.0308,-0.19347 -0.0542,-0.39918 -0.125,-0.5625 0.0624,-0.10729 -1.37311,-9.92773 -2.1875,-12.75 -0.94874,-3.28787 -0.84383,-7.05891 -1.28125,-8.25 -0.17657,-0.48095 -0.61537,-1.03457 -0.65625,-1.53125 -0.13991,-1.69928 -0.18097,-3.34256 0.0312,-4.71875 0.30234,-1.95911 0.92241,-3.39893 0.90625,-3.8125 -0.0549,-1.4062 1.08041,-4.70993 2.96875,-7.21875 1.21505,-1.6143 0.3108,-3.582 0.28125,-4.34375 -0.18907,-4.87468 0.34518,-6.2894 0.0937,-9.40625 -0.21474,-2.66353 -0.60304,-3.11632 -0.6875,-6.4375 -0.14885,-2.5677 0.31311,-3.71597 0.625,-6.40625 0.23499,-2.02695 -0.55542,-1.45429 -1.09375,-2.90625 -1.67409,-4.51535 -0.40437,-10.32437 -1,-14.875 -0.84047,-6.42134 -3.43903,-11.59122 -6.40625,-17.96875 -7.09691,-15.56085 -14.79443,-30.27427 -19.21875,-41.875 -1.57862,-3.88169 -3.6319,-9.71288 -3.6875,-14.40625 -0.0381,-3.21824 0.85686,-5.91124 3.46875,-7.09375 7.72907,-3.27293 23.30672,-3.89697 29.96875,-4.1875 6.27243,-0.27215 12.26285,-0.49569 17.28125,-4.25 1.68597,-1.69743 0.22632,-3.37147 -0.78125,-4.6875 0.23961,-0.34825 -3.8061,-0.99524 -8.875,-1.125 3.60621,-0.0274 7.24209,0.16701 10.78125,0.59375 2.02229,0.1614 4.19024,-0.28198 6,-1.15625 3.02622,-1.7843 2.58657,-3.37847 2.03125,-4.78125 -0.68355,-1.72673 -2.1794,-3.08786 -5.3125,-3.53125 -4.06645,-0.59348 -12.65214,-1.73399 -16.3125,-1.78125 -12.8078,0.87782 -19.84706,0.42102 -31.5,-2.09375 -9.77551,-2.4217 -22.12206,-6.3168 -26.4375,-13.96875 -1.18169,-4.26155 -1.39429,-8.41672 -0.8125,-12.40625 4.44651,-13.58161 14.83554,-26.32462 27.34375,-33.53125 7.7444,-4.46196 16.30963,-6.80582 24.78125,-5.90625 14.72915,1.2206 12.37231,-11.99923 0.625,-16.5625 -4.14032,-0.63583 -8.45028,-0.94111 -12.71875,-0.90625 z m 56.125,248.625 c 0.003,-0.0425 -0.003,-0.0824 0,-0.125 -0.38286,0 -0.73105,0.16661 -1.125,0.4375 0.46013,-0.18058 0.96886,-0.22681 1.125,-0.3125 z M 242.9375,219.875 c -1.42239,0.29219 -2.72407,0.63673 -3.96875,0.90625 -1.76578,0.63898 -1.05033,0.13432 0.65625,-0.40625 1.09193,-0.19173 2.20188,-0.36245 3.3125,-0.5 z M 241.375,333 c 0.2253,0.0344 -0.31091,0.45991 -0.5,1.3125 0.11518,-0.82768 0.27437,-1.343 0.5,-1.3125 z m -0.59375,24.625 c 0.0327,0.0926 0.0575,0.18241 0.0937,0.21875 0.25287,0.25293 -0.0226,0.50342 -0.15625,0.8125 0.0197,-0.26859 0.0512,-0.67622 0.0625,-1.03125 z m 44.1875,14.65625 c -0.0397,0.0163 -0.0867,0.0131 -0.125,0.0312 -0.69427,0.33133 -1.21875,0.90625 -1.21875,0.90625 0.53179,-0.33945 0.9579,-0.6693 1.34375,-0.9375 z m -1.34375,0.9375 c -0.93428,0.59636 -2.12979,1.57559 -3.21875,2.5 0,0 3.66256,-2.84253 3.21875,-2.5 z m -46.71875,1.71875 c 0.0541,0.13122 0.13894,0.28882 0.15625,0.375 0.0436,0.21688 0.0991,0.45597 0.15625,0.6875 -0.11767,-0.33586 -0.22177,-0.69193 -0.3125,-1.0625 z m 239.8125,0.875 c -5.69378,-0.0215 -9.2821,2.69554 -6.59375,7.6875 2.23298,4.14635 15.26314,9.76697 20.59375,8.875 1.94275,-0.32508 4.518,-1.93898 5.71875,-3.5625 1.79594,-2.42833 1.00588,-3.79171 -4.5625,-7.75 -5.00151,-3.5553 -10.72775,-5.23331 -15.15625,-5.25 z m -237.78125,6.34375 c 0.13028,0.60555 0.23974,1.19808 0.28125,1.75 -0.0931,-0.61022 -0.18111,-1.1733 -0.28125,-1.75 z M 271.46875,383.5 c -1.65595,1.46413 -3.18009,2.50121 -4.375,3.25 1.50616,-0.9109 3.18241,-1.98843 4.375,-3.25 z M 411.75,387.03125 c -4.90737,0.0788 -9.49671,3.63584 -12,7.09375 -1.67677,2.3162 -2.63369,5.49211 -2.65625,9.625 0.30069,6.12748 2.9989,10.45619 6.875,12.78125 4.09454,2.4561 9.49432,2.68016 14.65625,0.4375 4.21661,-1.92873 7.41708,-5.77174 8.84375,-11.28125 0.94664,-6.43608 -1.55532,-11.82312 -5.71875,-15.125 -2.77585,-2.20145 -6.27812,-3.48499 -10,-3.53125 z m -146.90625,1.125 c -0.36787,0.22927 -0.74571,0.46763 -1.125,0.6875 0.14449,-0.0841 0.32084,-0.16778 0.46875,-0.25 0.23224,-0.15124 0.42391,-0.29197 0.65625,-0.4375 z m 122.09375,0.0625 c -2.35479,-0.041 -6.51119,2.08808 -12.4375,2.15625 -5.50172,-0.53963 -11.62589,0.77496 -17,0.9375 -7.96706,-0.1318 -14.67721,-0.62104 -9.6875,6.59375 2.20645,3.63872 5.00515,7.46061 5.03125,9.5 0.0586,4.56662 -9.76638,23.69364 -6.03125,28.15625 2.36806,2.62301 17.16247,-5.69527 27.40625,-10.875 3.9651,-2.00495 7.25794,-3.53647 8.875,-3.78125 4.4838,-0.72884 12.89035,-0.57024 9.03125,-5.96875 0.10723,-7.90706 -3.64063,-21.75219 -2.90625,-23.375 -0.1031,-2.49955 -0.86837,-3.31913 -2.28125,-3.34375 z m -131.34375,5.1875 c -0.49721,0.26543 -0.98192,0.50244 -1.46875,0.75 0.39359,-0.19421 0.79299,-0.39475 1.1875,-0.5625 0.0975,-0.0415 0.19044,-0.12088 0.28125,-0.1875 z M 249,396.46875 c -0.11565,0.0586 -0.16696,0.0675 -0.21875,0.0937 -0.18712,0.0951 -0.0886,0.0468 -0.40625,0.25 -0.10682,0.0786 -0.24516,0.16471 -0.40625,0.21875 0.10331,-0.0281 0.25047,-0.0752 0.40625,-0.1875 0.12933,-0.0932 0.26661,-0.16599 0.40625,-0.25 0.0713,-0.0429 0.14474,-0.0838 0.21875,-0.125 z m -1.03125,0.5625 c -0.0275,0.007 -0.0751,-0.009 -0.0937,0 -0.0895,0.0432 -0.16771,0.0709 -0.25,0.0937 0.0848,-0.0242 0.17041,-0.0378 0.25,-0.0625 0.0319,-0.01 0.0633,-0.0211 0.0937,-0.0312 z m -0.9375,0.28125 c -0.21498,0.0844 -0.34966,0.17711 -0.53125,0.28125 -0.13095,0.0751 -0.22149,0.14963 -0.34375,0.21875 0.10555,-0.0601 0.24719,-0.13069 0.34375,-0.1875 0.18464,-0.10865 0.35236,-0.22268 0.53125,-0.3125 z M 245.8125,398 c -0.11915,0.0556 -0.23029,0.091 -0.375,0.15625 -0.34489,0.15559 -0.7028,0.30981 -1.0625,0.4375 0.18209,-0.058 0.3751,-0.11712 0.53125,-0.1875 0.27588,-0.12435 0.65065,-0.24935 0.90625,-0.40625 z m 464.625,20 c -0.79774,0.0419 -1.42557,0.2143 -1.75,0.53125 -0.76862,0.75089 -3.93913,3.99997 -2.78125,6.90625 7.46548,5.58136 14.8153,11.50769 21.96875,17.625 16.40201,14.02631 31.76717,29.09464 44.9375,43.5 3.02729,5.87037 -2.20905,12.28195 -9.71875,13.28125 -4.38809,0.51757 -9.35229,-1.47997 -15.5625,-2.28125 -18.45473,-3.55288 -35.78919,-8.24518 -52.78125,-11.5 -17.61421,-3.37402 -34.83161,-5.3271 -51.0625,-9.28125 -13.28195,-3.45424 -29.27397,-8.96494 -42.15625,-11.625 -2.36524,0.279 -3.98507,1.14807 -4.96875,2.28125 -1.39393,1.60578 -1.54474,3.78201 -0.84375,5.8125 0.63804,1.84815 2.00666,3.55981 3.75,4.5625 12.76167,2.26388 25.13145,6.75225 36.90625,9 30.65215,5.68397 55.08075,10.09453 84.65625,17.46875 5.60063,1.38566 12.01844,2.53125 14.25,2.53125 2.23156,0 6.39478,1.56673 9.28125,3.5 3.7302,2.49842 13.85735,5.30853 21.34375,5.375 3.93309,0.20974 7.07512,0.005 9.6875,-0.5625 5.43398,-1.18041 8.57092,-3.86947 11.75,-7.40625 3.62124,-5.29098 3.61152,-13.87677 1.15625,-21.8125 -14.09025,-18.78528 -33.29039,-34.93221 -51.59375,-49.78125 -7.18887,-5.83213 -12.14316,-10.57151 -18.6875,-16.09375 -2.21149,-1.20663 -4.92706,-1.93149 -6.9375,-2.03125 -0.30157,-0.015 -0.57784,-0.014 -0.84375,0 z m 73.15625,25.09375 c -3.58844,-0.06 -6.94692,1.17502 -9.03125,4.15625 -4.67464,7.03171 -3.84828,11.74227 0.0312,14.0625 4.13983,2.47581 11.74323,2.23661 19.84375,-0.8125 7.75959,-3.14285 0.50292,-12.74343 -2.53125,-15.125 -2.5976,-1.4045 -5.52149,-2.23461 -8.3125,-2.28125 z M 441.90625,452.25 c -6.49465,0.0452 -11.01109,0.22069 -11.71875,0.59375 -0.88982,0.46826 -5.45013,1.3438 -10.125,1.9375 -15.1947,1.9297 -43.41241,15.60977 -61.75,29.9375 -2.35671,1.84138 -5.17598,3.34375 -6.28125,3.34375 -1.10529,0 -4.12645,1.89174 -6.71875,4.21875 -2.59228,2.32704 -5.81481,4.26507 -7.15625,4.28125 -1.34141,0.0168 -1.94025,1.16961 -1.3125,2.5625 0.74781,1.65934 -0.6509,3.1143 -4.0625,4.21875 -2.86387,0.92712 -5.21875,2.44393 -5.21875,3.375 0,0.93109 -1.32391,1.2562 -2.96875,0.71875 -1.64485,-0.53744 -2.41214,-1.81414 -1.6875,-2.8125 0.82623,-1.13833 0.0886,-1.40116 -2,-0.71875 -1.83174,0.59851 -3.34375,0.34537 -3.34375,-0.5625 0,-0.90787 0.95926,-1.65625 2.125,-1.65625 1.16576,0 1.59422,-0.70078 0.96875,-1.5625 -0.62548,-0.86174 0.24496,-2.71047 1.90625,-4.125 1.66127,-1.41457 3,-3.40202 3,-4.40625 0,-1.00424 0.96113,-1.64057 2.125,-1.40625 1.16388,0.23433 4.34318,-2.88265 7.0625,-6.9375 2.7193,-4.05481 3.78146,-6.7824 2.375,-6.0625 -2.06509,1.05707 -2.07175,0.80216 -0.0312,-1.34375 2.05945,-2.1661 1.96729,-3.06892 -0.5,-4.8125 -1.66474,-1.17638 -3,-1.45161 -3,-0.625 0,0.82659 -1.90201,2.51804 -4.21875,3.75 -2.31675,1.23194 -3.69049,1.47076 -3.03125,0.5625 0.65927,-0.90829 -0.29299,-2.12016 -2.125,-2.71875 -1.83203,-0.59862 -4.07201,-0.10952 -4.96875,1.09375 -1.2693,1.70333 -1.63241,1.72091 -1.65625,0.0625 -0.0164,-1.17161 -0.99051,-2.125 -2.15625,-2.125 -1.16574,0 -1.55531,0.75022 -0.875,1.6875 0.68034,0.93729 0.29075,1.71875 -0.875,1.71875 -1.16574,0 -2.13939,-0.98463 -2.15625,-2.15625 -0.0204,-1.42013 -0.67534,-1.26667 -1.96875,0.4375 -1.10361,1.4541 -1.95133,1.69107 -1.96875,0.5625 -0.0182,-1.21709 -3.69924,-0.39454 -9.53125,2.125 -12.62688,5.45502 -16.25226,5.28481 -18.8125,-0.96875 -1.15076,-2.81077 -2.91271,-4.67909 -3.90625,-4.15625 -0.99356,0.52285 -1.8125,-0.0169 -1.8125,-1.1875 0,-2.22369 -12.81326,8.11212 -13.25,10.6875 -0.13772,0.81137 -0.3624,2.62533 -0.5,4.03125 -0.13772,1.40594 -1.59884,2.53125 -3.25,2.53125 -1.65117,0 -3,0.78144 -3,1.71875 0,0.93728 -2.23909,1.6875 -4.96875,1.6875 -5.63254,0 -21.0625,4.87593 -21.0625,6.65625 0,1.74245 -6.33753,8.57025 -11.8125,12.71875 -2.64363,2.00315 -7.02142,5.33556 -9.71875,7.40625 -5.25817,4.03655 -8.09315,17.9581 -3.34375,16.40625 1.29212,-0.42218 2.86363,0.40042 3.5,1.8125 0.79291,1.7594 0.23178,2.25149 -1.78125,1.59375 -2.34409,-0.76593 -2.56236,-0.15244 -1.15625,3.0625 2.95431,6.75481 0.8819,11.03605 -9.71875,20.21875 -2.41302,2.09027 -1.78087,9.38001 1.125,13.15625 1.74291,2.26496 3.00418,6.17447 2.8125,8.6875 -0.76779,10.06741 -0.44794,10.51197 5.59375,7.9375 3.02714,-1.2899 10.89533,-6.61358 17.5,-11.8125 12.88532,-10.14283 18.12441,-11.44806 25.9375,-6.46875 4.52606,2.88447 4.56903,3.14895 1.375,8.09375 -1.81631,2.81187 -3.9655,5.37785 -4.78125,5.6875 -0.81576,0.30964 -0.10964,1.73254 1.5625,3.15625 2.4247,2.06461 3.65004,2.16064 6,0.5 4.50589,-3.18416 9.29218,1.05059 8.5625,7.5625 -0.17731,1.58303 0.2491,3.12147 -0.34375,4.125 0.25857,-0.42616 0.5684,-0.87108 1.03125,-1.3125 3.23544,-3.08571 12.87746,-8.17681 14.625,-11.3125 1.74753,-3.1357 4.0692,-6.14669 5.15625,-6.71875 1.08704,-0.57205 3.69256,-3.8925 5.78125,-7.34375 2.08867,-3.45123 6.69555,-8.77633 10.25,-11.84375 3.95653,-3.4144 5.06691,-5.10142 2.84375,-4.375 -2.87557,0.93957 -3.37439,0.54374 -2.3125,-1.8125 1.34367,-2.98155 -1.5752,-9.44583 -5.15625,-11.4375 -1.17455,-0.65322 -0.99001,-2.52289 0.46875,-4.84375 1.30361,-2.07406 2.83184,-3.36412 3.40625,-2.875 0.57442,0.48912 3.23135,-1.16976 5.875,-3.6875 2.64367,-2.51775 4.30786,-3.39139 3.71875,-1.9375 -0.9017,2.22534 1.01599,2.61362 12.0625,2.4375 11.96367,-0.19077 13.20793,0.13321 14.21875,3.5625 0.38903,0.95664 1.00881,1.36727 1.71875,1.5 2.02103,-0.12189 3.93151,-0.40955 5.90625,-0.46875 1.13542,-0.22624 1.72027,-0.47885 1.1875,-1.15625 0,-1.19634 1.3386,-2.64465 3,-3.1875 1.66136,-0.54284 2.78539,-1.59852 2.5,-2.375 -0.79323,-2.15762 5.02631,-14.03125 6.875,-14.03125 2.78148,0 9.625,-6.69387 9.625,-9.40625 0,-1.41756 4.80675,-5.18885 10.65625,-8.375 5.84954,-3.18616 12.93116,-8.33985 15.75,-11.46875 7.08035,-7.85919 21.47874,-11.82169 48.90625,-13.4375 12.2541,-0.72191 32.18051,-2.60084 44.28125,-4.1875 21.23592,-2.7845 53.88009,-0.75885 88.65625,3.15625 9.57405,1.07784 10.23807,-11.15012 0.65625,-14.3125 -22.00909,-3.87491 -47.10512,-4.76403 -71.21875,-6.1875 -9.85676,0.0125 -33.39503,-0.50066 -50.28125,-0.5625 -2.53293,-0.009 -4.92887,-0.0151 -7.09375,0 z m 143.8125,8.15625 c -0.44524,-0.006 -0.93833,0.0217 -1.4375,0.0937 -2.41602,0.65104 -4.14249,2.324 -5.09375,4.375 -1.10222,2.63413 -0.93351,5.1395 0.125,7.09375 1.12099,2.06959 3.23132,3.51813 5.90625,3.9375 3.87831,0.10453 6.56246,-1.83067 7.71875,-4.40625 1.09381,-2.4364 0.8414,-5.44225 -1.03125,-7.75 -1.23112,-1.48488 -3.07085,-3.29884 -6.1875,-3.34375 z m 1.65625,42.8125 c -6.23784,0.20668 -12.03763,5.32829 -11.625,12.03125 0.38448,4.32196 3.41233,8.42491 8.65625,10.125 4.2697,1.26994 8.9245,-0.46615 12.59375,-3.875 2.77928,-2.69092 3.74737,-6.65875 1.59375,-11.40625 -2.84934,-5.02494 -7.1346,-7.01032 -11.21875,-6.875 z M 276.53125,507.375 c 1.10077,0 2,1.6567 2,3.6875 0,2.03081 -0.89923,3.6875 -2,3.6875 -1.10078,0 -2,-1.65669 -2,-3.6875 0,-2.0308 0.89922,-3.6875 2,-3.6875 z m 212.25,42.625 c -19.81083,1.81836 -34.4433,5.49253 -46.5,12.375 -10.46647,5.97471 -18.99488,14.34978 -27.28125,26.0625 -5.23643,7.52088 -8.92823,15.63236 -10.375,24.5625 -1.01798,6.60807 -0.44179,12.73244 0.0312,19.625 3.28188,15.16653 9.19428,29.84465 18.8125,40.75 5.66492,5.64626 12.43985,10.42647 19.6875,14.5 9.82027,5.51948 20.53841,9.73271 30.625,13.09375 14.32713,4.71781 29.38409,7.72056 44.8125,9.15625 4.78097,-0.22875 11.61392,-0.49441 14.25,-3 3.59294,-3.41512 1.75199,-9.46172 -1.71875,-11.15625 -5.29476,-2.5425 -12.75516,-2.81403 -19,-3.9375 -6.43006,-1.1568 -11.64287,-3.14479 -17.71875,-4.40625 -7.30415,-2.64116 -14.96104,-4.91223 -22.21875,-7.5 -6.25747,-2.23113 -12.21341,-4.70093 -17.4375,-7.875 -5.69757,-3.49972 -10.81438,-7.66318 -16.25,-12 -9.41318,-9.07796 -13.19359,-18.62069 -14.0625,-27.25 -0.38118,-3.78556 -1.95869,-16.25312 2.09375,-27.125 2.19708,-5.89432 6.0757,-12.36084 10.125,-16.75 11.40462,-10.07191 24.92659,-18.95862 37.78125,-21.125 13.70786,-3.32801 49.19255,-2.09302 62.03125,-0.125 17.00446,2.66786 35.44191,12.57703 37.90625,8.65625 2.88471,-3.55054 7.01423,-9.53155 3.8125,-11 -8.53623,-3.9151 -17.82482,-6.99843 -27.03125,-9.34375 -20.32316,-4.76213 -42.71345,-6.14371 -62.375,-6.1875 z m -220.25,9 c 1.92464,-0.10002 3.81361,0.45938 4.4375,1.84375 2.57145,5.7058 -7.94914,12.10006 -11.625,7.0625 -0.95735,-1.312 -0.85612,-2.55067 0.25,-2.875 1.06549,-0.31244 1.9375,-1.56273 1.9375,-2.78125 0,-1.89852 2.52546,-3.1214 5,-3.25 z m 313.1875,28.875 c -0.54393,-0.0127 -1.10186,0.007 -1.6875,0.0312 -0.6693,0.0278 -1.36031,0.0828 -2.09375,0.15625 -3.31311,16.56397 -7.50146,33.6925 -10.65625,49.46875 -4.09157,20.53278 -7.4548,40.8949 -10.5,57.75 4.39554,1.75968 15.3125,-0.3125 15.3125,-0.3125 3.92463,-21.70358 8.3255,-40.72864 12.375,-60.15625 1.07366,-8.26738 10.37254,-44.2924 7.03125,-43.59375 -3.09956,-2.22601 -5.97376,-3.25503 -9.78125,-3.34375 z M 258.25,601.28125 c -0.0159,0.0275 -0.074,0.0634 -0.125,0.0937 0.0509,-0.028 0.10884,-0.0311 0.125,-0.0625 0.004,-0.008 -0.004,-0.0231 0,-0.0312 z m -1.3125,1.1875 c -0.27153,0.28201 -0.56585,0.58475 -0.59375,0.625 3.5e-4,-2.5e-4 0.0312,0 0.0312,0 0.008,-0.0284 0.29359,-0.34251 0.5625,-0.625 z M 506,615.40625 c -3.01077,-0.023 -6.0245,0.90002 -8.375,2.59375 -2.73437,2.03766 -4.49474,5.0448 -5.03125,8.5 -0.11201,3.05701 0.96414,5.65477 2.84375,7.625 2.55038,2.2652 5.61664,3.52799 8.75,3.78125 3.14958,0.25455 6.37245,-0.51048 9.125,-2.3125 2.959,-2.40423 4.46778,-5.28935 4.65625,-8.1875 0.18023,-2.77168 -0.84931,-5.57404 -2.96875,-8.0625 -1.4855,-1.68947 -3.4734,-2.98062 -6,-3.59375 -0.9722,-0.22461 -1.99641,-0.33608 -3,-0.34375 z M 182.21875,662.5625 c 1.30895,-0.006 2.79511,0.36233 4.46875,1.125 3.85855,1.75834 6.82576,1.85211 13.1875,0.40625 7.95027,-1.80688 8.39662,-1.66593 15.5625,4.375 2.60478,2.19585 4.82011,4.59678 5.875,6.3125 0.52745,0.61323 1.07604,1.32153 1.65625,1.9375 0.5577,0.90337 1.40053,0.97696 2.15625,1.28125 7.48402,1.79521 63.25,22.96293 63.25,23.71875 0,0.79515 27.45,23.08364 11.4375,23.40625 -6.98794,-1.83982 -11.75768,-6.18918 -16.6875,-7.96875 -18.92804,-6.83264 -26.72571,-10.32684 -44.9375,-12.59375 -25.23902,-4.006 -26.63416,-6.43948 -41.5625,0.5 -11.69728,5.43753 -25.6023,13.4984 -33.9375,10.8125 -3.72692,-2.79398 8.09264,-15.60608 11.90625,-28.28125 1.71309,-5.6937 2.75522,-12.8543 2.34375,-15.90625 -0.77807,-5.77118 1.35439,-9.10623 5.28125,-9.125 z m 35.1875,101.5625 c -5.49461,0 -14.44336,4.6174 -17.21875,8.875 -1.08123,2.76052 -2.25207,6.69794 -2.625,10.53125 -0.47338,4.86591 0.33429,9.57667 4.1875,11.40625 8.49268,3.87008 23.75,-6.73801 23.75,-16.5 0,-7.51052 -3.84067,-14.3125 -8.09375,-14.3125 z"
   id="path38"
   inkscape:connector-curvature="0" />
</svg>