<?xml version="1.0" encoding="UTF-8" standalone="no"?>
<svg
   xmlns:dc="http://purl.org/dc/elements/1.1/"
   xmlns:cc="http://creativecommons.org/ns#"
   xmlns:rdf="http://www.w3.org/1999/02/22-rdf-syntax-ns#"
   xmlns:svg="http://www.w3.org/2000/svg"
   xmlns="http://www.w3.org/2000/svg"
   xmlns:sodipodi="http://sodipodi.sourceforge.net/DTD/sodipodi-0.dtd"
   xmlns:inkscape="http://www.inkscape.org/namespaces/inkscape"
   version="1.1"
   id="Layer_1"
   x="0px"
   y="0px"
   width="900"
   height="1024"
   viewBox="0 0 900 1024"
   enable-background="new 0 0 512 512"
   xml:space="preserve"
   inkscape:version="0.48.0 r9654"
   sodipodi:docname="uni2F6F-x2f6f.svg"><metadata
   id="metadata72"><rdf:RDF><cc:Work
       rdf:about=""><dc:format>image/svg+xml</dc:format><dc:type
         rdf:resource="http://purl.org/dc/dcmitype/StillImage" /></cc:Work></rdf:RDF></metadata><defs
   id="defs70" /><sodipodi:namedview
   pagecolor="#ffffff"
   bordercolor="#666666"
   borderopacity="1"
   objecttolerance="10"
   gridtolerance="10"
   guidetolerance="10"
   inkscape:pageopacity="0"
   inkscape:pageshadow="2"
   inkscape:window-width="1136"
   inkscape:window-height="801"
   id="namedview68"
   showgrid="false"
   inkscape:zoom="0.090114683"
   inkscape:cx="-3249.88"
   inkscape:cy="135.4854"
   inkscape:window-x="0"
   inkscape:window-y="0"
   inkscape:window-maximized="0"
   inkscape:current-layer="Layer_1" />
	<g
   id="Grid"
   transform="matrix(1.99505,0,0,1.9896421,0.49752501,4.8084448)">
		<rect
   x="0"
   stroke-miterlimit="10"
   width="512"
   height="512"
   id="rect4"
   y="0"
   style="fill:none;stroke:#a9ccdb;stroke-miterlimit:10" />
		<line
   stroke-miterlimit="10"
   x1="0"
   y1="32"
   x2="512"
   y2="32"
   id="line6"
   style="fill:none;stroke:#a9ccdb;stroke-miterlimit:10" />
		<line
   stroke-miterlimit="10"
   x1="0"
   y1="64"
   x2="512"
   y2="64"
   id="line8"
   style="fill:none;stroke:#a9ccdb;stroke-miterlimit:10" />
		<line
   stroke-miterlimit="10"
   x1="0"
   y1="96"
   x2="512"
   y2="96"
   id="line10"
   style="fill:none;stroke:#a9ccdb;stroke-miterlimit:10" />
		<line
   stroke-miterlimit="10"
   x1="0"
   y1="128"
   x2="512"
   y2="128"
   id="line12"
   style="fill:none;stroke:#a9ccdb;stroke-miterlimit:10" />
		<line
   stroke-miterlimit="10"
   x1="0"
   y1="160"
   x2="512"
   y2="160"
   id="line14"
   style="fill:none;stroke:#a9ccdb;stroke-miterlimit:10" />
		<line
   stroke-miterlimit="10"
   x1="0"
   y1="192"
   x2="512"
   y2="192"
   id="line16"
   style="fill:none;stroke:#a9ccdb;stroke-miterlimit:10" />
		<line
   stroke-miterlimit="10"
   x1="0"
   y1="224"
   x2="512"
   y2="224"
   id="line18"
   style="fill:none;stroke:#a9ccdb;stroke-miterlimit:10" />
		<line
   stroke-miterlimit="10"
   x1="0"
   y1="256"
   x2="512"
   y2="256"
   id="line20"
   style="fill:none;stroke:#a9ccdb;stroke-miterlimit:10" />
		<line
   stroke-miterlimit="10"
   x1="0"
   y1="288"
   x2="512"
   y2="288"
   id="line22"
   style="fill:none;stroke:#a9ccdb;stroke-miterlimit:10" />
		<line
   stroke-miterlimit="10"
   x1="0"
   y1="320"
   x2="512"
   y2="320"
   id="line24"
   style="fill:none;stroke:#a9ccdb;stroke-miterlimit:10" />
		<line
   stroke-miterlimit="10"
   x1="0"
   y1="352"
   x2="512"
   y2="352"
   id="line26"
   style="fill:none;stroke:#a9ccdb;stroke-miterlimit:10" />
		<line
   stroke-miterlimit="10"
   x1="0"
   y1="384"
   x2="512"
   y2="384"
   id="line28"
   style="fill:none;stroke:#a9ccdb;stroke-miterlimit:10" />
		<line
   stroke-miterlimit="10"
   x1="0"
   y1="416"
   x2="512"
   y2="416"
   id="line30"
   style="fill:none;stroke:#a9ccdb;stroke-miterlimit:10" />
		<line
   stroke-miterlimit="10"
   x1="0"
   y1="448"
   x2="512"
   y2="448"
   id="line32"
   style="fill:none;stroke:#ff0000;stroke-miterlimit:10" />
		<line
   stroke-miterlimit="10"
   x1="0"
   y1="480"
   x2="512"
   y2="480"
   id="line34"
   style="fill:none;stroke:#a9ccdb;stroke-miterlimit:10" />
		<line
   stroke-miterlimit="10"
   x1="32"
   y1="0"
   x2="32"
   y2="512"
   id="line36"
   style="fill:none;stroke:#a9ccdb;stroke-miterlimit:10" />
		<line
   stroke-miterlimit="10"
   x1="64"
   y1="0"
   x2="64"
   y2="512"
   id="line38"
   style="fill:none;stroke:#a9ccdb;stroke-miterlimit:10" />
		<line
   stroke-miterlimit="10"
   x1="96"
   y1="0"
   x2="96"
   y2="512"
   id="line40"
   style="fill:none;stroke:#a9ccdb;stroke-miterlimit:10" />
		<line
   stroke-miterlimit="10"
   x1="128"
   y1="0"
   x2="128"
   y2="512"
   id="line42"
   style="fill:none;stroke:#a9ccdb;stroke-miterlimit:10" />
		<line
   stroke-miterlimit="10"
   x1="160"
   y1="0"
   x2="160"
   y2="512"
   id="line44"
   style="fill:none;stroke:#a9ccdb;stroke-miterlimit:10" />
		<line
   stroke-miterlimit="10"
   x1="192"
   y1="0"
   x2="192"
   y2="512"
   id="line46"
   style="fill:none;stroke:#a9ccdb;stroke-miterlimit:10" />
		<line
   stroke-miterlimit="10"
   x1="224"
   y1="0"
   x2="224"
   y2="512"
   id="line48"
   style="fill:none;stroke:#a9ccdb;stroke-miterlimit:10" />
		<line
   stroke-miterlimit="10"
   x1="256"
   y1="0"
   x2="256"
   y2="512"
   id="line50"
   style="fill:none;stroke:#a9ccdb;stroke-miterlimit:10" />
		<line
   stroke-miterlimit="10"
   x1="288"
   y1="0"
   x2="288"
   y2="512"
   id="line52"
   style="fill:none;stroke:#a9ccdb;stroke-miterlimit:10" />
		<line
   stroke-miterlimit="10"
   x1="320"
   y1="0"
   x2="320"
   y2="512"
   id="line54"
   style="fill:none;stroke:#a9ccdb;stroke-miterlimit:10" />
		<line
   stroke-miterlimit="10"
   x1="352"
   y1="0"
   x2="352"
   y2="512"
   id="line56"
   style="fill:none;stroke:#a9ccdb;stroke-miterlimit:10" />
		<line
   stroke-miterlimit="10"
   x1="384"
   y1="0"
   x2="384"
   y2="512"
   id="line58"
   style="fill:none;stroke:#a9ccdb;stroke-miterlimit:10" />
		<line
   stroke-miterlimit="10"
   x1="416"
   y1="0"
   x2="416"
   y2="512"
   id="line60"
   style="fill:none;stroke:#a9ccdb;stroke-miterlimit:10" />
		<line
   stroke-miterlimit="10"
   x1="448"
   y1="0"
   x2="448"
   y2="512"
   id="line62"
   style="fill:none;stroke:#a9ccdb;stroke-miterlimit:10" />
		<line
   stroke-miterlimit="10"
   x1="480"
   y1="0"
   x2="480"
   y2="512"
   id="line64"
   style="fill:none;stroke:#a9ccdb;stroke-miterlimit:10" />
	</g>
	
<path
   style="fill:#060606"
   d="m 137.45434,468.66022 c -2.74074,-7.96227 -2.13978,-6.25063 -2.15612,-17.63363 -0.0245,-15.93508 -0.86608,-51.25339 -0.73865,-64.16238 0.33169,-41.9934 -1.14438,-86.51152 -2.31718,-126.67559 -0.6029,-20.65515 -0.84659,-44.48193 -1.06064,-65.0574 -0.5596,-21.3965 -1.42367,-42.87143 -1.04299,-63.00914 0.21977,-11.63787 -0.59021,-15.20023 -0.51914,-26.22 0.0408,-8.062215 -0.84624,-27.849235 -1.28659,-36.345335 -4.09907,-1.56683 -16.9575,-0.66115 -30.995946,-0.55282 -13.963939,0.10446 -29.127668,-0.60195 -33.166286,0.38632 -0.877642,9.37645 0.133978,12.92173 0.162562,22.31511 -0.07348,11.468765 0.243011,28.799095 0.331031,40.434855 0.160935,21.35386 0.621814,43.2592 0.09979,62.5368 -0.612699,21.86842 0.140389,43.60337 -0.04914,63.89287 -0.389683,41.8038 0.461698,86.93618 -0.03419,129.36525 -0.241806,20.68759 0.508136,41.45801 0.0076,62.76251 0.154395,22.64985 0.22883,43.87033 0.06139,63.91143 -0.402752,21.56007 -0.05976,43.66074 0.328283,63.32902 0.408473,21.28541 0.105361,43.73021 -0.420724,63.72836 0.622515,20.36348 0.489988,42.10253 0.04868,63.17291 -0.531828,25.39479 -0.07525,48.16661 0.205044,63.99955 0.104193,29.40286 -0.727838,64.1034 0.184556,64.03904 21.090679,-0.0891 41.56978,-0.66492 62.64971,0.0353 22.00981,-10e-4 44.22243,-0.3826 64.50902,0.25537 23.20638,0.8555 37.74049,-1.32016 63.48248,-0.35279 22.35172,0.11694 41.76027,0.10593 63.31106,0.0624 15.58758,-0.0315 48.42307,0.16761 63.75516,0.14333 21.56702,-0.17778 43.67773,-0.70701 63.40467,-0.38646 22.20594,-0.3794 44.63998,0.49077 64.53585,0.29414 21.92876,-0.43396 38.55046,0.0133 57.16728,-0.0689 2.52059,-0.0154 5.41081,0.28137 6.28388,-0.38321 -18.90451,-21.95762 -39.69939,-46.15916 -59.42003,-64.81325 -21.80017,-22.67598 -46.52686,-45.67834 -67.27988,-63.8189 -22.71415,-19.81509 -41.55735,-34.69868 -63.72869,-53.90781 -57.8807,-48.33901 -124.78823,-95.29312 -185.32108,-135.568 -2.14424,-1.42683 -4.29474,-2.85314 -6.28737,-4.17785 -19.02059,-12.64544 -36.81462,-24.73423 -54.70341,-41.53106 z m -3.77983,176.13534 c 0.33969,-9.12212 -1.2522,-39.80122 -1.73139,-64.85627 -0.33097,-17.30533 -0.49381,-32.29038 2.35875,-34.15486 19.76228,10.35137 39.37515,21.80459 58.77997,34.04045 29.73695,18.75088 58.98529,39.3397 87.53391,60.61766 12.64676,9.42593 25.15621,18.9871 37.51,28.58364 15.15287,11.77089 30.07153,23.59498 44.72213,35.28799 6.74089,5.38006 13.42502,10.73237 20.04911,16.03898 10.41549,8.34393 20.68251,16.57487 30.78825,24.62303 13.8239,11.08576 27.83513,20.37302 30.9373,26.4875 -11.7496,1.32237 -39.1027,-5.8e-4 -61.79006,0.28627 -17.91778,0.22654 -34.56644,-0.53418 -47.51859,-0.84886 -24.42583,-0.59877 -43.18301,-0.1263 -65.91174,0.003 -21.84422,0.12395 -45.19742,0.29859 -65.98697,0.32666 -5.98188,-0.31263 -21.63559,0.0702 -36.41752,0.0546 -15.00775,-0.0234 -29.11695,0.92714 -31.29377,-1.08924 -1.85454,-19.65533 -0.17481,-44.22003 -0.80466,-62.96874 -0.52718,-22.62558 -1.87067,-43.81014 -1.22472,-62.43181 z M 487.00964,449.53207 c -3.92273,21.84918 -7.19351,43.72208 -10.10234,65.70012 -2.31346,17.54918 -4.41938,34.72939 -7.29199,51.03681 -2.32231,13.06594 -1.01162,28.71402 2.91255,34.7736 9.48851,14.65171 24.73677,6.5431 42.57047,-23.65706 12.59948,-21.33632 30.57641,-60.47337 30.73767,-80.58715 0.11355,-14.11789 0.37008,-19.27901 10.05334,-19.80371 17.18645,1.51812 35.23836,3.81461 53.23373,6.80935 22.46877,3.73922 44.84941,8.56681 65.34732,14.32676 l 59.43594,17.06063 c 2.20009,11.64326 -1.09299,19.26709 -1.1224,30.54328 -0.0654,23.56366 -3.68529,46.20244 -5.41606,67.4006 -1.29314,22.05296 3.48384,33.54199 9.65467,34.65906 11.71818,2.12123 23.894,-9.98863 35.61954,-33.27926 17.80499,-36.27204 27.19273,-68.74452 34.34828,-102.17692 10.32413,-64.0579 25.94231,-124.13148 18.43546,-184.28793 -2.27225,-17.25839 -7.32501,-33.29889 -17.88719,-45.39987 C 790.80632,263.98222 765.22844,252.10476 740.26547,241.91749 693.6259,223.4443 641.09644,214.6129 597.9908,226.09757 551.23251,243.78954 534.88153,277.33216 519.43395,318.755 503.0532,363.14013 493.92261,411.70881 487.00964,449.53207 z M 705.49783,315.9871 c 19.90399,7.9367 34.88208,24.19672 43.32565,41.88925 13.74541,28.80219 10.17318,61.40059 -17.65668,68.06656 -19.80702,4.74425 -117.91271,-14.18353 -144.86452,-27.94904 -22.66501,-26.47365 -14.03036,-52.83605 4.31058,-70.74507 14.03877,-13.70813 33.76427,-22.4636 49.49288,-22.52528 20.42961,0 49.85602,5.06858 65.39209,11.26358 z"
   id="path3790"
   inkscape:connector-curvature="0"
   sodipodi:nodetypes="cscscsccsccscssccccscccccsccccccccccccccsssssccscscsccccsccscsscsccsccccccccssssssss" />
	 
</svg>