<?xml version="1.0" encoding="UTF-8" standalone="no"?>
<svg
   xmlns:dc="http://purl.org/dc/elements/1.1/"
   xmlns:cc="http://creativecommons.org/ns#"
   xmlns:rdf="http://www.w3.org/1999/02/22-rdf-syntax-ns#"
   xmlns:svg="http://www.w3.org/2000/svg"
   xmlns="http://www.w3.org/2000/svg"
   xmlns:sodipodi="http://sodipodi.sourceforge.net/DTD/sodipodi-0.dtd"
   xmlns:inkscape="http://www.inkscape.org/namespaces/inkscape"
   version="1.1"
   id="Layer_1"
   x="0px"
   y="0px"
   width="1024"
   height="1024"
   viewBox="0 0 1024 1024"
   enable-background="new 0 0 512 512"
   xml:space="preserve"
   inkscape:version="0.48.0 r9654"
   sodipodi:docname="uni2F74-x2f74.svg"><metadata
   id="metadata72"><rdf:RDF><cc:Work
       rdf:about=""><dc:format>image/svg+xml</dc:format><dc:type
         rdf:resource="http://purl.org/dc/dcmitype/StillImage" /></cc:Work></rdf:RDF></metadata><defs
   id="defs70" /><sodipodi:namedview
   pagecolor="#ffffff"
   bordercolor="#666666"
   borderopacity="1"
   objecttolerance="10"
   gridtolerance="10"
   guidetolerance="10"
   inkscape:pageopacity="0"
   inkscape:pageshadow="2"
   inkscape:window-width="1136"
   inkscape:window-height="812"
   id="namedview68"
   showgrid="false"
   inkscape:zoom="0.36045873"
   inkscape:cx="647.6505"
   inkscape:cy="370.63658"
   inkscape:window-x="0"
   inkscape:window-y="0"
   inkscape:window-maximized="0"
   inkscape:current-layer="Layer_1" />
	<g
   id="Grid"
   transform="matrix(2.0004579,0,0,1.99505,0.50022895,2.0369)">
		<rect
   x="0"
   stroke-miterlimit="10"
   width="512"
   height="512"
   id="rect4"
   y="0"
   style="fill:none;stroke:#a9ccdb;stroke-miterlimit:10" />
		<line
   stroke-miterlimit="10"
   x1="0"
   y1="32"
   x2="512"
   y2="32"
   id="line6"
   style="fill:none;stroke:#a9ccdb;stroke-miterlimit:10" />
		<line
   stroke-miterlimit="10"
   x1="0"
   y1="64"
   x2="512"
   y2="64"
   id="line8"
   style="fill:none;stroke:#a9ccdb;stroke-miterlimit:10" />
		<line
   stroke-miterlimit="10"
   x1="0"
   y1="96"
   x2="512"
   y2="96"
   id="line10"
   style="fill:none;stroke:#a9ccdb;stroke-miterlimit:10" />
		<line
   stroke-miterlimit="10"
   x1="0"
   y1="128"
   x2="512"
   y2="128"
   id="line12"
   style="fill:none;stroke:#a9ccdb;stroke-miterlimit:10" />
		<line
   stroke-miterlimit="10"
   x1="0"
   y1="160"
   x2="512"
   y2="160"
   id="line14"
   style="fill:none;stroke:#a9ccdb;stroke-miterlimit:10" />
		<line
   stroke-miterlimit="10"
   x1="0"
   y1="192"
   x2="512"
   y2="192"
   id="line16"
   style="fill:none;stroke:#a9ccdb;stroke-miterlimit:10" />
		<line
   stroke-miterlimit="10"
   x1="0"
   y1="224"
   x2="512"
   y2="224"
   id="line18"
   style="fill:none;stroke:#a9ccdb;stroke-miterlimit:10" />
		<line
   stroke-miterlimit="10"
   x1="0"
   y1="256"
   x2="512"
   y2="256"
   id="line20"
   style="fill:none;stroke:#a9ccdb;stroke-miterlimit:10" />
		<line
   stroke-miterlimit="10"
   x1="0"
   y1="288"
   x2="512"
   y2="288"
   id="line22"
   style="fill:none;stroke:#a9ccdb;stroke-miterlimit:10" />
		<line
   stroke-miterlimit="10"
   x1="0"
   y1="320"
   x2="512"
   y2="320"
   id="line24"
   style="fill:none;stroke:#a9ccdb;stroke-miterlimit:10" />
		<line
   stroke-miterlimit="10"
   x1="0"
   y1="352"
   x2="512"
   y2="352"
   id="line26"
   style="fill:none;stroke:#a9ccdb;stroke-miterlimit:10" />
		<line
   stroke-miterlimit="10"
   x1="0"
   y1="384"
   x2="512"
   y2="384"
   id="line28"
   style="fill:none;stroke:#a9ccdb;stroke-miterlimit:10" />
		<line
   stroke-miterlimit="10"
   x1="0"
   y1="416"
   x2="512"
   y2="416"
   id="line30"
   style="fill:none;stroke:#a9ccdb;stroke-miterlimit:10" />
		<line
   stroke-miterlimit="10"
   x1="0"
   y1="448"
   x2="512"
   y2="448"
   id="line32"
   style="fill:none;stroke:#ff0000;stroke-miterlimit:10" />
		<line
   stroke-miterlimit="10"
   x1="0"
   y1="480"
   x2="512"
   y2="480"
   id="line34"
   style="fill:none;stroke:#a9ccdb;stroke-miterlimit:10" />
		<line
   stroke-miterlimit="10"
   x1="32"
   y1="0"
   x2="32"
   y2="512"
   id="line36"
   style="fill:none;stroke:#a9ccdb;stroke-miterlimit:10" />
		<line
   stroke-miterlimit="10"
   x1="64"
   y1="0"
   x2="64"
   y2="512"
   id="line38"
   style="fill:none;stroke:#a9ccdb;stroke-miterlimit:10" />
		<line
   stroke-miterlimit="10"
   x1="96"
   y1="0"
   x2="96"
   y2="512"
   id="line40"
   style="fill:none;stroke:#a9ccdb;stroke-miterlimit:10" />
		<line
   stroke-miterlimit="10"
   x1="128"
   y1="0"
   x2="128"
   y2="512"
   id="line42"
   style="fill:none;stroke:#a9ccdb;stroke-miterlimit:10" />
		<line
   stroke-miterlimit="10"
   x1="160"
   y1="0"
   x2="160"
   y2="512"
   id="line44"
   style="fill:none;stroke:#a9ccdb;stroke-miterlimit:10" />
		<line
   stroke-miterlimit="10"
   x1="192"
   y1="0"
   x2="192"
   y2="512"
   id="line46"
   style="fill:none;stroke:#a9ccdb;stroke-miterlimit:10" />
		<line
   stroke-miterlimit="10"
   x1="224"
   y1="0"
   x2="224"
   y2="512"
   id="line48"
   style="fill:none;stroke:#a9ccdb;stroke-miterlimit:10" />
		<line
   stroke-miterlimit="10"
   x1="256"
   y1="0"
   x2="256"
   y2="512"
   id="line50"
   style="fill:none;stroke:#a9ccdb;stroke-miterlimit:10" />
		<line
   stroke-miterlimit="10"
   x1="288"
   y1="0"
   x2="288"
   y2="512"
   id="line52"
   style="fill:none;stroke:#a9ccdb;stroke-miterlimit:10" />
		<line
   stroke-miterlimit="10"
   x1="320"
   y1="0"
   x2="320"
   y2="512"
   id="line54"
   style="fill:none;stroke:#a9ccdb;stroke-miterlimit:10" />
		<line
   stroke-miterlimit="10"
   x1="352"
   y1="0"
   x2="352"
   y2="512"
   id="line56"
   style="fill:none;stroke:#a9ccdb;stroke-miterlimit:10" />
		<line
   stroke-miterlimit="10"
   x1="384"
   y1="0"
   x2="384"
   y2="512"
   id="line58"
   style="fill:none;stroke:#a9ccdb;stroke-miterlimit:10" />
		<line
   stroke-miterlimit="10"
   x1="416"
   y1="0"
   x2="416"
   y2="512"
   id="line60"
   style="fill:none;stroke:#a9ccdb;stroke-miterlimit:10" />
		<line
   stroke-miterlimit="10"
   x1="448"
   y1="0"
   x2="448"
   y2="512"
   id="line62"
   style="fill:none;stroke:#a9ccdb;stroke-miterlimit:10" />
		<line
   stroke-miterlimit="10"
   x1="480"
   y1="0"
   x2="480"
   y2="512"
   id="line64"
   style="fill:none;stroke:#a9ccdb;stroke-miterlimit:10" />
	</g>
	
<path
   style="fill:#5c5c5c"
   d="m 243.02475,126.02111 c 20.49295,0.50998 33.34612,-1.9612 38.53788,1.64512 3.05695,24.5382 6.02489,41.83667 12.63148,67.03104 11.49282,43.8282 23.24798,88.30489 41.46106,130.26456 20.75117,46.35131 40.34472,87.05472 67.09882,124.05874 11.34716,15.69445 24.50526,28.76635 39.06316,43.2785 4.65514,4.59982 12.06238,10.58259 17.03152,13.63949 l 2.93559,3.75473 c 1.59797,8.85631 2.63739,17.8792 3.33778,26.823 0.90787,11.21216 1.14101,22.63769 1.08657,34.04237 -0.11635,24.34977 -1.54346,48.60458 -0.51377,70.4853 1.01025,20.96071 2.51407,41.78607 2.63286,61.62261 0.0916,15.29416 0.40561,30.97901 -2.01044,44.70635 -2.67634,2.16982 -14.27791,-20.23752 -25.46173,-34.4953 -25.54219,-32.56275 -71.76868,-79.22377 -124.94567,-156.49993 -5.1791,-7.52621 -10.03008,-14.15496 -14.53431,-19.92596 -16.07897,-20.60095 -17.37661,-21.24666 -23.77109,-21.79144 -7.44768,-0.63451 -48.67687,35.84625 -40.49924,57.11797 19.94528,22.86759 39.10007,46.13628 57.71557,69.32268 4.65263,5.79503 9.27157,11.58494 13.86073,17.36214 19.42239,24.45045 38.3116,48.67359 56.96489,72.09725 52.13772,64.01642 119.16332,124.63577 121.82885,135.90562 7.63696,32.28921 32.6151,37.75888 40.01216,0.0156 13.65121,-23.77658 24.17407,-37.90766 45.77406,-61.18029 40.58646,-43.7293 85.46271,-85.99868 132.07387,-122.46929 24.45544,-19.18396 54.57135,-47.73982 76.86314,-70.90281 13.93041,-14.532 29.15835,-33.53145 47.27975,-50.1646 11.23828,-15.1509 -0.16381,-29.12501 -4.75475,-33.15453 -6.77339,-5.94498 -27.80335,-6.9899 -37.91736,-1.07388 -23.85569,13.58115 -45.73661,29.5047 -66.34793,46.38227 -24.72754,20.2481 -47.62775,41.86931 -69.9183,62.46614 -28.44843,26.4126 -42.3601,42.37718 -65.7542,68.098 -9.77076,4.48617 -28.74058,40.89209 -34.2282,44.2755 1.46079,-15.31467 -0.54149,-30.76418 0.32729,-46.05327 1.2204,-21.47679 1.91587,-42.637 2.25258,-62.66212 0.56756,-35.02684 0.20673,-69.64426 0.60996,-101.82293 0.22209,-11.19801 1.11845,-21.06955 3.31611,-28.58194 0.63874,-2.17047 2.35062,-0.41911 3.03202,-3.76287 11.5433,-6.22919 13.09405,-13.50603 20.40693,-21.32619 46.3507,-44.72748 70.03458,-109.74476 86.90222,-163.06657 22.22947,-66.7426 42.42134,-121.48641 63.5532,-183.88712 1.4449,-3.85736 3.57989,-8.59302 5.39902,-12.23302 6.94382,-2.06817 15.21273,-2.13965 58.42842,-2.20511 62.95661,-0.0955 140.37046,5.75452 161.772,-0.60913 21.14041,-13.10694 9.8042,-43.488297 -7.40971,-49.267068 -28.61809,-8.620796 -69.75555,-5.691693 -96.8671,-5.749364 C 683.92622,67.172616 532.66742,67.60547 374.74167,66.603449 293.31971,68.433121 174.60751,66.239313 102.03145,67.68423 87.178151,65.672843 71.109159,72.302743 62.210215,80.886904 50.939728,106.55209 73.01229,121.71108 106.62443,125.17657 c 42.8062,4.41338 116.62184,0.73215 136.40032,0.84452 z m 414.06955,0.86661 c -4.41448,25.14721 -9.62884,38.05454 -15.79066,61.33309 -20.40688,71.20532 -38.96142,126.27574 -68.48774,189.40397 -16.68367,35.37778 -38.27323,75.3225 -60.10377,79.40497 -25.7631,2.15324 -49.86913,-36.55266 -72.55446,-75.77961 -22.57083,-44.62529 -34.38456,-73.33496 -54.28448,-123.81756 -14.5412,-35.48849 -27.39101,-85.46845 -32.37972,-119.57873 -1.47496,-5.42845 -1.41078,-8.89971 -0.24638,-11.04095 8.9485,-0.36055 18.11356,-0.65004 27.43777,-0.88045 67.59852,-1.6704 143.55981,-0.23474 205.98971,-0.23761 23.28452,0.21622 49.9803,0.72807 70.41973,1.19293 z"
   id="path3792"
   inkscape:connector-curvature="0"
   sodipodi:nodetypes="ccscsccccscscsssscsscscscccscscccsccccccccsccccccscccccccccsccc" />
	 
</svg>