<?xml version="1.0" encoding="UTF-8" standalone="no"?>
<svg
   xmlns:dc="http://purl.org/dc/elements/1.1/"
   xmlns:cc="http://creativecommons.org/ns#"
   xmlns:rdf="http://www.w3.org/1999/02/22-rdf-syntax-ns#"
   xmlns:svg="http://www.w3.org/2000/svg"
   xmlns="http://www.w3.org/2000/svg"
   xmlns:sodipodi="http://sodipodi.sourceforge.net/DTD/sodipodi-0.dtd"
   xmlns:inkscape="http://www.inkscape.org/namespaces/inkscape"
   version="1.1"
   id="Layer_1"
   x="0px"
   y="0px"
   width="1000"
   height="1000"
   viewBox="0 0 1000 1000"
   enable-background="new 0 0 512 512"
   xml:space="preserve"
   inkscape:version="0.48.0 r9654"
   sodipodi:docname="uni2EE5-x2ee5.svg"
   inkscape:export-filename="C:\Fonts\protohdzb\uni2EE5-x2ee5.png"
   inkscape:export-xdpi="90"
   inkscape:export-ydpi="90"><metadata
   id="metadata72"><rdf:RDF><cc:Work
       rdf:about=""><dc:format>image/svg+xml</dc:format><dc:type
         rdf:resource="http://purl.org/dc/dcmitype/StillImage" /></cc:Work></rdf:RDF></metadata><defs
   id="defs70" /><sodipodi:namedview
   pagecolor="#ffffff"
   bordercolor="#666666"
   borderopacity="1"
   objecttolerance="10"
   gridtolerance="10"
   guidetolerance="10"
   inkscape:pageopacity="0"
   inkscape:pageshadow="2"
   inkscape:window-width="970"
   inkscape:window-height="715"
   id="namedview68"
   showgrid="false"
   inkscape:zoom="0.25488281"
   inkscape:cx="345.1656"
   inkscape:cy="479.88749"
   inkscape:window-x="0"
   inkscape:window-y="0"
   inkscape:window-maximized="0"
   inkscape:current-layer="g3060" />
	<g
   id="Grid"
   transform="matrix(1.9559636,0,0,1.952167,0.48404577,0.01535327)">
		<rect
   x="0"
   stroke-miterlimit="10"
   width="512"
   height="512"
   id="rect4"
   y="0"
   style="fill:none;stroke:#a9ccdb;stroke-miterlimit:10" />
		<line
   stroke-miterlimit="10"
   x1="0"
   y1="32"
   x2="512"
   y2="32"
   id="line6"
   style="fill:none;stroke:#a9ccdb;stroke-miterlimit:10" />
		<line
   stroke-miterlimit="10"
   x1="0"
   y1="64"
   x2="512"
   y2="64"
   id="line8"
   style="fill:none;stroke:#a9ccdb;stroke-miterlimit:10" />
		<line
   stroke-miterlimit="10"
   x1="0"
   y1="96"
   x2="512"
   y2="96"
   id="line10"
   style="fill:none;stroke:#a9ccdb;stroke-miterlimit:10" />
		<line
   stroke-miterlimit="10"
   x1="0"
   y1="128"
   x2="512"
   y2="128"
   id="line12"
   style="fill:none;stroke:#a9ccdb;stroke-miterlimit:10" />
		<line
   stroke-miterlimit="10"
   x1="0"
   y1="160"
   x2="512"
   y2="160"
   id="line14"
   style="fill:none;stroke:#a9ccdb;stroke-miterlimit:10" />
		<line
   stroke-miterlimit="10"
   x1="0"
   y1="192"
   x2="512"
   y2="192"
   id="line16"
   style="fill:none;stroke:#a9ccdb;stroke-miterlimit:10" />
		<line
   stroke-miterlimit="10"
   x1="0"
   y1="224"
   x2="512"
   y2="224"
   id="line18"
   style="fill:none;stroke:#a9ccdb;stroke-miterlimit:10" />
		<line
   stroke-miterlimit="10"
   x1="0"
   y1="256"
   x2="512"
   y2="256"
   id="line20"
   style="fill:none;stroke:#a9ccdb;stroke-miterlimit:10" />
		<line
   stroke-miterlimit="10"
   x1="0"
   y1="288"
   x2="512"
   y2="288"
   id="line22"
   style="fill:none;stroke:#a9ccdb;stroke-miterlimit:10" />
		<line
   stroke-miterlimit="10"
   x1="0"
   y1="320"
   x2="512"
   y2="320"
   id="line24"
   style="fill:none;stroke:#a9ccdb;stroke-miterlimit:10" />
		<line
   stroke-miterlimit="10"
   x1="0"
   y1="352"
   x2="512"
   y2="352"
   id="line26"
   style="fill:none;stroke:#a9ccdb;stroke-miterlimit:10" />
		<line
   stroke-miterlimit="10"
   x1="0"
   y1="384"
   x2="512"
   y2="384"
   id="line28"
   style="fill:none;stroke:#a9ccdb;stroke-miterlimit:10" />
		<line
   stroke-miterlimit="10"
   x1="0"
   y1="416"
   x2="512"
   y2="416"
   id="line30"
   style="fill:none;stroke:#a9ccdb;stroke-miterlimit:10" />
		<line
   stroke-miterlimit="10"
   x1="0"
   y1="448"
   x2="512"
   y2="448"
   id="line32"
   style="fill:none;stroke:#ff0000;stroke-miterlimit:10" />
		<line
   stroke-miterlimit="10"
   x1="0"
   y1="480"
   x2="512"
   y2="480"
   id="line34"
   style="fill:none;stroke:#a9ccdb;stroke-miterlimit:10" />
		<line
   stroke-miterlimit="10"
   x1="32"
   y1="0"
   x2="32"
   y2="512"
   id="line36"
   style="fill:none;stroke:#a9ccdb;stroke-miterlimit:10" />
		<line
   stroke-miterlimit="10"
   x1="64"
   y1="0"
   x2="64"
   y2="512"
   id="line38"
   style="fill:none;stroke:#a9ccdb;stroke-miterlimit:10" />
		<line
   stroke-miterlimit="10"
   x1="96"
   y1="0"
   x2="96"
   y2="512"
   id="line40"
   style="fill:none;stroke:#a9ccdb;stroke-miterlimit:10" />
		<line
   stroke-miterlimit="10"
   x1="128"
   y1="0"
   x2="128"
   y2="512"
   id="line42"
   style="fill:none;stroke:#a9ccdb;stroke-miterlimit:10" />
		<line
   stroke-miterlimit="10"
   x1="160"
   y1="0"
   x2="160"
   y2="512"
   id="line44"
   style="fill:none;stroke:#a9ccdb;stroke-miterlimit:10" />
		<line
   stroke-miterlimit="10"
   x1="192"
   y1="0"
   x2="192"
   y2="512"
   id="line46"
   style="fill:none;stroke:#a9ccdb;stroke-miterlimit:10" />
		<line
   stroke-miterlimit="10"
   x1="224"
   y1="0"
   x2="224"
   y2="512"
   id="line48"
   style="fill:none;stroke:#a9ccdb;stroke-miterlimit:10" />
		<line
   stroke-miterlimit="10"
   x1="256"
   y1="0"
   x2="256"
   y2="512"
   id="line50"
   style="fill:none;stroke:#a9ccdb;stroke-miterlimit:10" />
		<line
   stroke-miterlimit="10"
   x1="288"
   y1="0"
   x2="288"
   y2="512"
   id="line52"
   style="fill:none;stroke:#a9ccdb;stroke-miterlimit:10" />
		<line
   stroke-miterlimit="10"
   x1="320"
   y1="0"
   x2="320"
   y2="512"
   id="line54"
   style="fill:none;stroke:#a9ccdb;stroke-miterlimit:10" />
		<line
   stroke-miterlimit="10"
   x1="352"
   y1="0"
   x2="352"
   y2="512"
   id="line56"
   style="fill:none;stroke:#a9ccdb;stroke-miterlimit:10" />
		<line
   stroke-miterlimit="10"
   x1="384"
   y1="0"
   x2="384"
   y2="512"
   id="line58"
   style="fill:none;stroke:#a9ccdb;stroke-miterlimit:10" />
		<line
   stroke-miterlimit="10"
   x1="416"
   y1="0"
   x2="416"
   y2="512"
   id="line60"
   style="fill:none;stroke:#a9ccdb;stroke-miterlimit:10" />
		<line
   stroke-miterlimit="10"
   x1="448"
   y1="0"
   x2="448"
   y2="512"
   id="line62"
   style="fill:none;stroke:#a9ccdb;stroke-miterlimit:10" />
		<line
   stroke-miterlimit="10"
   x1="480"
   y1="0"
   x2="480"
   y2="512"
   id="line64"
   style="fill:none;stroke:#a9ccdb;stroke-miterlimit:10" />
	</g>
	
<g
   id="g3060"
   transform="matrix(0.9114309,0,0,1.0986976,41.606883,-237.19735)"><path
     sodipodi:nodetypes="ccccsscscsccsscscscsscccscscscccssssscscccsccccsssssscsscscscsscccscsssscscsssscsscsscscsc"
     inkscape:connector-curvature="0"
     id="path3127"
     d="m 676.1269,891.45035 c 9.14951,-78.68239 70.5806,-74.61627 99.45265,-159.53171 36.23989,-105.13908 2.72216,-92.86767 50.42437,-199.18967 -11.33896,-42.65736 -30.58213,-60.59394 -48.26854,-83.66144 -5.20683,-8.11966 -14.32514,-22.16825 -25.8726,-39.12817 -16.67058,-24.4843 -51.31776,-62.17812 -73.65374,-89.71841 -20.15459,-24.85063 -27.886,-40.10728 -45.74528,-53.38316 -14.2911,-17.64886 -29.03751,17.58929 -44.09375,12.67949 -17.77508,-5.79641 -35.98198,-16.37317 -47.29827,-7.27505 -2.22296,13.43906 -10.69316,22.52969 -20.65225,30.72986 -11.41984,9.40294 -24.79737,17.63505 -32.95832,29.91 -14.14309,21.81347 -26.41088,46.88172 -35.56688,70.98889 -6.11334,24.37354 -15.19353,21.40118 -42.12878,30.15835 -30.91482,10.051 -88.86101,-28.47824 -123.97501,-33.70886 -42.37557,-6.31232 -47.32905,21.95438 -28.40338,35.38628 29.78838,16.12278 136.80357,55.63323 167.57143,82.16578 31.62124,27.26846 -217.12477,-21.95964 -189.25777,12.62485 6.16487,6.19572 36.98032,39.96209 88.40062,47.508 38.52075,5.6529 114.60542,-3.43466 133.17788,12.89042 0.69494,11.21838 23.09144,39.26783 -4.91711,53.75845 -26.77164,13.85067 -50.8056,25.44822 -52.62568,38.32816 -5.52561,39.10243 38.23915,59.69208 29.62737,74.57162 -28.071,10.79923 -32.26761,20.31517 -98.67922,4.77167 -24.24172,-15.03599 -80.03336,-41.74049 -94.00843,-33.25364 0.086,27.0707 -5.49157,56.6622 -9.37492,90.12039 -2.68453,23.12941 -7.73788,52.06173 3.46818,67.08641 11.63261,14.673 41.77665,23.97471 45.39933,36.1495 7.18161,24.13533 -29.18127,63.05862 -21.77981,86.77034 4.65231,35.0307 42.99616,36.5578 69.77258,42.034 38.01016,7.7735 83.4248,-9.5493 123.43852,-26.4599 27.03232,-11.7717 78.57767,-39.44742 93.34449,-46.95802 52.61266,-23.95622 135.94261,-70.92261 135.18232,-86.36443 z M 427.71155,686.5835 c 3.66374,-13.53898 29.65099,14.78718 59.24336,17.09307 28.47566,2.21887 78.39462,-39.44945 82.90649,-29.31783 8.06949,18.12041 -74.91182,85.16871 -91.9249,71.76206 -6.58429,-5.18859 -53.3168,-48.11166 -50.22495,-59.5373 z m 77.06488,-92.65213 c 18.90386,6.6975 73.80773,4.41243 76.24734,18.33442 4.32974,24.70823 -58.00761,66.3391 -77.12334,56.47987 -17.57238,-12.11895 -13.96562,-72.45862 0.876,-74.81429 z M 490.68429,416.32581 c 16.7859,16.9925 27.24725,31.10025 41.03651,40.69861 12.55849,8.74165 38.63891,19.09936 64.0098,19.13307 28.22888,0.14184 44.72791,-10.54868 77.3308,-23.63354 18.59872,-7.25721 40.32652,-30.95528 39.96631,-19.47339 8.67013,3.71821 51.28637,60.03251 52.83316,74.69897 1.38512,13.13351 15.73953,85.09044 -6.94725,157.42849 -5.56277,17.73724 -10.93539,57.28504 -33.08639,86.39655 -18.9458,24.89915 -54.0222,38.59439 -69.13874,64.13847 -15.92712,26.91381 -1.06979,50.43795 -18.51487,71.63695 -12.48834,15.17564 -37.4496,33.96673 -75.87308,52.39892 -14.2573,6.83939 -30.36813,13.62937 -48.38302,20.16689 -33.52336,12.16548 -60.8818,37.74048 -94.5777,46.8491 -9.38423,2.2201 -25.27901,-7.09572 -25.27901,-7.09572 -11.64424,8.46292 6.98286,10.43572 -4.04868,16.56052 -34.99796,19.4313 -105.20684,-0.8383 -109.79088,-10.103 0.1316,-17.35602 19.39227,-47.87169 26.83341,-62.67425 8.42545,-16.76064 21.20941,-17.64935 37.61112,-35.03869 -14.85968,-7.22255 -51.21599,-9.81115 -70.86469,-23.20314 -17.54229,-11.95632 -19.29663,-34.06097 -19.75496,-51.36812 0.90946,-32.98998 5.95337,-66.15343 13.59434,-68.48763 19.7307,-6.02744 50.44925,31.6394 88.48601,50.65074 13.83814,6.91651 61.31502,-12.59496 76.33761,-4.0696 46.81885,27.37249 15.95656,85.82581 50.11675,119.0158 8.81639,7.47299 32.94119,-47.91703 27.55239,-77.8143 -13.52049,-29.43986 -25.9099,-52.59249 -34.86294,-59.32038 -16.63383,-12.49971 72.25723,-29.95 73.75002,-41.56268 2.72159,-16.12066 31.26481,-36.51989 48.11332,-61.93093 14.54631,-21.93884 17.45489,-49.2268 22.28846,-61.50679 6.78246,-17.2312 38.36453,-8.21414 40.06042,-20.61728 1.96327,-14.35877 -39.27006,-27.82318 -42.0655,-28.39913 -47.78141,-9.84444 -72.37042,-23.59225 -97.83407,-29.25818 -24.98298,4.174 -44.32533,-3.76121 -57.50966,-20.88411 -20.86142,-27.09335 11.73687,-97.8045 28.61101,-113.33222 z m 41.37963,16.47883 c -38.17976,-29.02204 -45.43269,-59.7584 13.65926,-104.70649 8.3406,-6.34425 11.52656,-18.5138 22.58421,-15.2605 38.14874,11.22383 48.6206,-10.67562 59.53257,4.23356 7.99009,10.91697 29.08624,34.71964 46.88029,52.89487 38.04944,38.49665 25.38778,48.14762 -10.93389,58.88608 -11.25623,3.32789 -19.96986,12.74252 -35.49848,17.75963 -9.34155,3.01814 -26.64303,3.30555 -32.97462,2.92812 -10.6894,-0.82146 -21.02734,-6.944 -30.76963,-8.76427 -11.85529,-2.21507 -22.82853,-0.63473 -32.47971,-7.971 z m 100.94122,-43.07777 c 2.43308,-16.60664 -0.62417,-28.41476 -7.4889,-34.131 -7.93015,-6.60341 -20.94134,-5.07726 -36.43925,6.57236 -13.10445,9.97891 -13.53952,18.02824 -1.80558,33.40549 19.43574,25.47027 36.9959,11.97212 45.73373,-5.84685 z"
     style="fill:#000000;fill-opacity:1" /></g></svg>