<?xml version="1.0" encoding="UTF-8" standalone="no"?>
<svg
   xmlns:dc="http://purl.org/dc/elements/1.1/"
   xmlns:cc="http://creativecommons.org/ns#"
   xmlns:rdf="http://www.w3.org/1999/02/22-rdf-syntax-ns#"
   xmlns:svg="http://www.w3.org/2000/svg"
   xmlns="http://www.w3.org/2000/svg"
   xmlns:sodipodi="http://sodipodi.sourceforge.net/DTD/sodipodi-0.dtd"
   xmlns:inkscape="http://www.inkscape.org/namespaces/inkscape"
   version="1.1"
   id="Layer_1"
   x="0px"
   y="0px"
   width="1024"
   height="1024"
   viewBox="0 0 1024 1024"
   enable-background="new 0 0 512 512"
   xml:space="preserve"
   inkscape:version="0.48.0 r9654"
   sodipodi:docname="uni2F3C-x2f3c.svg"><metadata
   id="metadata72"><rdf:RDF><cc:Work
       rdf:about=""><dc:format>image/svg+xml</dc:format><dc:type
         rdf:resource="http://purl.org/dc/dcmitype/StillImage" /><dc:title /></cc:Work></rdf:RDF></metadata><defs
   id="defs70" /><sodipodi:namedview
   pagecolor="#ffffff"
   bordercolor="#666666"
   borderopacity="1"
   objecttolerance="10"
   gridtolerance="10"
   guidetolerance="10"
   inkscape:pageopacity="0"
   inkscape:pageshadow="2"
   inkscape:window-width="1109"
   inkscape:window-height="803"
   id="namedview68"
   showgrid="false"
   inkscape:zoom="0.25488281"
   inkscape:cx="587.1417"
   inkscape:cy="319.18017"
   inkscape:window-x="0"
   inkscape:window-y="0"
   inkscape:window-maximized="0"
   inkscape:current-layer="Layer_1" />
	<g
   id="Grid"
   transform="matrix(1.99505,0,0,-1.99505,0.49752501,1023.5025)">
		<rect
   x="0"
   stroke-miterlimit="10"
   width="512"
   height="512"
   id="rect4"
   y="0"
   style="fill:none;stroke:#a9ccdb;stroke-miterlimit:10" />
		<line
   stroke-miterlimit="10"
   x1="0"
   y1="32"
   x2="512"
   y2="32"
   id="line6"
   style="fill:none;stroke:#a9ccdb;stroke-miterlimit:10" />
		<line
   stroke-miterlimit="10"
   x1="0"
   y1="64"
   x2="512"
   y2="64"
   id="line8"
   style="fill:none;stroke:#a9ccdb;stroke-miterlimit:10" />
		<line
   stroke-miterlimit="10"
   x1="0"
   y1="96"
   x2="512"
   y2="96"
   id="line10"
   style="fill:none;stroke:#a9ccdb;stroke-miterlimit:10" />
		<line
   stroke-miterlimit="10"
   x1="0"
   y1="128"
   x2="512"
   y2="128"
   id="line12"
   style="fill:none;stroke:#a9ccdb;stroke-miterlimit:10" />
		<line
   stroke-miterlimit="10"
   x1="0"
   y1="160"
   x2="512"
   y2="160"
   id="line14"
   style="fill:none;stroke:#a9ccdb;stroke-miterlimit:10" />
		<line
   stroke-miterlimit="10"
   x1="0"
   y1="192"
   x2="512"
   y2="192"
   id="line16"
   style="fill:none;stroke:#a9ccdb;stroke-miterlimit:10" />
		<line
   stroke-miterlimit="10"
   x1="0"
   y1="224"
   x2="512"
   y2="224"
   id="line18"
   style="fill:none;stroke:#a9ccdb;stroke-miterlimit:10" />
		<line
   stroke-miterlimit="10"
   x1="0"
   y1="256"
   x2="512"
   y2="256"
   id="line20"
   style="fill:none;stroke:#a9ccdb;stroke-miterlimit:10" />
		<line
   stroke-miterlimit="10"
   x1="0"
   y1="288"
   x2="512"
   y2="288"
   id="line22"
   style="fill:none;stroke:#a9ccdb;stroke-miterlimit:10" />
		<line
   stroke-miterlimit="10"
   x1="0"
   y1="320"
   x2="512"
   y2="320"
   id="line24"
   style="fill:none;stroke:#a9ccdb;stroke-miterlimit:10" />
		<line
   stroke-miterlimit="10"
   x1="0"
   y1="352"
   x2="512"
   y2="352"
   id="line26"
   style="fill:none;stroke:#a9ccdb;stroke-miterlimit:10" />
		<line
   stroke-miterlimit="10"
   x1="0"
   y1="384"
   x2="512"
   y2="384"
   id="line28"
   style="fill:none;stroke:#a9ccdb;stroke-miterlimit:10" />
		<line
   stroke-miterlimit="10"
   x1="0"
   y1="416"
   x2="512"
   y2="416"
   id="line30"
   style="fill:none;stroke:#a9ccdb;stroke-miterlimit:10" />
		<line
   stroke-miterlimit="10"
   x1="0"
   y1="448"
   x2="512"
   y2="448"
   id="line32"
   style="fill:none;stroke:#ff0000;stroke-miterlimit:10" />
		<line
   stroke-miterlimit="10"
   x1="0"
   y1="480"
   x2="512"
   y2="480"
   id="line34"
   style="fill:none;stroke:#a9ccdb;stroke-miterlimit:10" />
		<line
   stroke-miterlimit="10"
   x1="32"
   y1="0"
   x2="32"
   y2="512"
   id="line36"
   style="fill:none;stroke:#a9ccdb;stroke-miterlimit:10" />
		<line
   stroke-miterlimit="10"
   x1="64"
   y1="0"
   x2="64"
   y2="512"
   id="line38"
   style="fill:none;stroke:#a9ccdb;stroke-miterlimit:10" />
		<line
   stroke-miterlimit="10"
   x1="96"
   y1="0"
   x2="96"
   y2="512"
   id="line40"
   style="fill:none;stroke:#a9ccdb;stroke-miterlimit:10" />
		<line
   stroke-miterlimit="10"
   x1="128"
   y1="0"
   x2="128"
   y2="512"
   id="line42"
   style="fill:none;stroke:#a9ccdb;stroke-miterlimit:10" />
		<line
   stroke-miterlimit="10"
   x1="160"
   y1="0"
   x2="160"
   y2="512"
   id="line44"
   style="fill:none;stroke:#a9ccdb;stroke-miterlimit:10" />
		<line
   stroke-miterlimit="10"
   x1="192"
   y1="0"
   x2="192"
   y2="512"
   id="line46"
   style="fill:none;stroke:#a9ccdb;stroke-miterlimit:10" />
		<line
   stroke-miterlimit="10"
   x1="224"
   y1="0"
   x2="224"
   y2="512"
   id="line48"
   style="fill:none;stroke:#a9ccdb;stroke-miterlimit:10" />
		<line
   stroke-miterlimit="10"
   x1="256"
   y1="0"
   x2="256"
   y2="512"
   id="line50"
   style="fill:none;stroke:#a9ccdb;stroke-miterlimit:10" />
		<line
   stroke-miterlimit="10"
   x1="288"
   y1="0"
   x2="288"
   y2="512"
   id="line52"
   style="fill:none;stroke:#a9ccdb;stroke-miterlimit:10" />
		<line
   stroke-miterlimit="10"
   x1="320"
   y1="0"
   x2="320"
   y2="512"
   id="line54"
   style="fill:none;stroke:#a9ccdb;stroke-miterlimit:10" />
		<line
   stroke-miterlimit="10"
   x1="352"
   y1="0"
   x2="352"
   y2="512"
   id="line56"
   style="fill:none;stroke:#a9ccdb;stroke-miterlimit:10" />
		<line
   stroke-miterlimit="10"
   x1="384"
   y1="0"
   x2="384"
   y2="512"
   id="line58"
   style="fill:none;stroke:#a9ccdb;stroke-miterlimit:10" />
		<line
   stroke-miterlimit="10"
   x1="416"
   y1="0"
   x2="416"
   y2="512"
   id="line60"
   style="fill:none;stroke:#a9ccdb;stroke-miterlimit:10" />
		<line
   stroke-miterlimit="10"
   x1="448"
   y1="0"
   x2="448"
   y2="512"
   id="line62"
   style="fill:none;stroke:#a9ccdb;stroke-miterlimit:10" />
		<line
   stroke-miterlimit="10"
   x1="480"
   y1="0"
   x2="480"
   y2="512"
   id="line64"
   style="fill:none;stroke:#a9ccdb;stroke-miterlimit:10" />
	</g>
	
<path
   style="fill:#923932"
   d="m 682.34456,947.84194 c -0.7101,-0.55898 -1.29109,-4.3322 -1.29109,-8.38488 0,-6.35214 0.53424,-7.36848 3.87323,-7.36848 2.53396,0 3.87323,-1.01635 3.87323,-2.93933 0,-2.41951 1.88375,-3.12462 10.65137,-3.98695 8.45047,-0.83115 10.65139,-1.61179 10.65139,-3.77794 0,-2.12025 2.16358,-2.96456 9.68307,-3.77868 8.56786,-0.92762 9.68308,-1.47085 9.68308,-4.7166 0,-2.89642 1.01865,-3.66823 4.84153,-3.66823 4.69879,0 4.84154,-0.31166 4.84154,-10.57034 0,-10.39801 0.0868,-10.57821 5.32569,-11.05274 4.8654,-0.44069 5.37628,-1.09999 5.91099,-7.62823 0.49368,-6.02737 1.2515,-7.22047 4.84154,-7.62257 3.01313,-0.33751 4.43521,-1.70118 4.86901,-4.66915 0.48131,-3.29291 1.62399,-4.19241 5.3257,-4.19241 3.73601,0 4.71291,-0.79001 4.71291,-3.8113 0,-3.55719 0.64552,-3.81128 9.68307,-3.81128 l 8.57027,-4.5684 1.1128,-6.86547 c 0.56896,-3.51019 -1.06734,-2.78131 -0.88254,-4.46845 0.39701,-3.62407 2.49395,-6.96541 5.72407,-6.96541 3.87323,0 4.84154,-0.76225 4.84154,-3.81128 0,-3.04904 0.96831,-3.81129 4.84154,-3.81129 l 4.84154,0 0,-16.00741 0,-16.00741 c 1.39637,-1.72284 -2.60909,-3.06169 -1.12797,-4.7198 1.40331,-1.481 1.10207,-0.80841 1.12797,-5.18954 0,-4.67519 0.59941,-5.3358 4.84153,-5.3358 3.45707,0 4.84154,-0.8242 4.84154,-2.88224 0,-3.65572 5.06318,-4.13947 36.31152,-3.46928 l 23.72352,0.50881 0,15.29521 0,15.29518 -4.84153,-0.72857 c -4.83485,-0.72758 -4.84154,-0.71189 -4.84154,11.35196 0,11.65295 -0.15414,12.06366 -4.35738,11.60359 -4.24492,-0.46465 -4.37163,-0.0736 -4.90927,15.14932 l -0.55192,15.62628 c 2.29934,1.30863 2.81768,7.59394 0.13556,7.62258 -8.93684,0 -9.68307,0.28268 -9.68307,3.66821 0,3.24576 -1.11522,3.78899 -9.68307,4.71662 -7.62825,0.82588 -9.68307,1.64354 -9.68307,3.85309 0,1.92639 -1.66779,2.95575 -5.3257,3.28709 -3.74154,0.3389 -5.50329,1.46379 -5.92274,3.78171 -0.48884,2.7012 -2.33204,3.48718 -10.16723,4.33548 -8.4529,0.91518 -9.57017,1.4644 -9.57017,4.70438 0,2.89643 -1.01866,3.66822 -4.84153,3.66822 -3.55046,0 -4.84154,0.81307 -4.84154,3.04904 0,2.23595 -1.29109,3.04902 -4.84155,3.04902 -3.83797,0 -4.84153,0.76902 -4.84153,3.71004 0,2.91399 -1.14266,3.81352 -5.32569,4.19242 -3.76242,0.34079 -5.50275,1.46172 -5.92893,3.81879 -0.37581,2.07855 -2.20113,3.51544 -4.84153,3.81129 -2.66498,0.29859 -4.4656,1.73368 -4.85063,3.86591 -0.50827,2.8147 -2.23629,3.56061 -10.16724,4.38882 -8.40601,0.8778 -9.55489,1.43243 -9.55489,4.61266 0,2.83954 -1.03844,3.61489 -4.84153,3.61489 -3.55045,0 -4.84154,0.81307 -4.84154,3.04903 0,2.504 -1.29819,3.05203 -7.2623,3.06581 -3.99427,0.009 -10.53034,0.44201 -14.52461,0.96173 -6.01065,0.78208 -7.26231,1.56744 -7.26231,4.55672 0,3.24382 -0.8552,3.61182 -8.39198,3.61182 -4.61562,0 -8.973,-0.45728 -9.68308,-1.01626 z m -92.31198,-72.92268 c 0,-3.04902 -0.9683,-3.81128 -4.84153,-3.81128 -4.51162,0 -4.84154,-0.51375 -4.84154,-7.53904 l 0,-7.53906 -9.18935,-0.46465 -9.18934,-0.46466 -1.67152,-7.24145 c -1.29805,-5.62337 -2.4902,-7.24144 -5.33528,-7.24144 -3.1054,0 -3.66373,-1.16164 -3.66373,-7.62258 0,-6.60623 0.51644,-7.62257 3.87323,-7.62257 2.84037,0 3.87324,-1.01635 3.87324,-3.81129 0,-2.7324 -1.04499,-3.81129 -3.6915,-3.81129 -2.96117,0 -3.955,-1.50808 -5.02327,-7.62257 -1.06828,-6.11449 -2.06211,-7.62258 -5.02327,-7.62258 -2.76233,0 -3.6915,-1.08722 -3.6915,-4.31945 0,-2.37572 -0.60934,-4.79914 -1.35408,-5.38539 -0.74475,-0.58627 -1.11465,-4.13077 -0.82203,-7.87667 0.46961,-6.01153 0.0604,-6.81072 -3.48746,-6.81072 -2.99638,0 -4.0195,-0.97012 -4.0195,-3.81129 0,-2.60456 -1.07304,-3.81866 -3.38908,-3.83463 -1.31403,-0.34297 -1.46478,-0.9881 -0.48415,-1.50118 2.42178,-1.23203 2.26071,-1.51112 -0.96831,-1.67801 -0.73632,0.1465 -1.44051,-0.6737 -0.48415,-0.89739 5.09391,-1.04792 4.07353,-3.52265 -1.45246,-3.52265 -3.74141,0 -4.84154,-0.78581 -4.84154,-3.45819 -1.72666,-1.97674 -2.36838,-3.15101 -2.46448,-4.11627 -0.1344,-1.35085 0.79973,-2.29236 1.32448,-4.45114 0.35757,-1.61825 0.61196,-3.94753 0.78622,-7.03084 0.54953,-9.72385 0.46747,-9.90935 -4.38463,-9.90935 -3.91042,0 -4.94466,-0.75547 -4.94466,-3.61182 0,-2.98931 -1.25165,-3.77467 -7.26231,-4.55676 -3.99426,-0.51972 -10.41631,-0.9525 -14.27122,-0.96172 -6.58736,-0.0159 -7.07945,-0.35896 -8.18171,-5.706 -1.7802,-8.63575 0.47422,-17.17851 4.53338,-17.17851 4.0673,0 6.31294,-8.44918 4.55098,-17.12307 -0.82974,-4.08473 -2.1385,-5.74465 -4.52939,-5.74465 -3.53839,0 -5.75261,-7.15543 -4.9961,-11.88999 0.56699,-1.3288 1.11931,-2.69441 1.81014,-3.94075 0.7131,-1.28652 1.57377,-2.44597 2.7505,-3.30664 2.07443,-1.71142 2.29969,-2.58294 2.74507,-3.04014 0.48618,-0.4991 1.23465,-0.50452 4.93697,-0.56985 l 8.23062,-0.12043 0,-16.64498 c 0,-9.15474 0.26666,-18.72409 0.91321,-20.05039 0.82505,-1.69256 3.97408,-1.41751 9.94537,-1.41751 l 8.50756,0 0,15.24515 c 0,15.02426 0.0664,15.24515 4.59204,15.24515 4.04081,0 4.74442,0.90425 5.8614,7.53272 0.9604,5.69922 2.21928,7.77007 5.17196,8.50779 2.7805,0.6947 3.56339,1.81639 2.72287,3.90114 -0.66024,1.63757 -0.26949,2.92608 0.88737,2.92608 1.13693,0 2.06712,1.71508 2.06712,3.81128 0,3.72659 0.32278,3.81129 14.52461,3.81129 14.20184,0 14.52461,0.0848 14.52461,3.81129 0,3.04902 0.96831,3.81128 4.84154,3.81128 3.87323,0 4.84153,0.76226 4.84153,3.81129 0,3.04903 0.96831,3.81128 4.84154,3.81128 4.73394,0 4.84153,0.25409 4.84153,11.43387 0,11.17977 -0.10767,11.43386 -4.84153,11.43386 -4.57746,0 -4.84154,0.45735 -4.84154,8.38483 0,7.92748 0.26408,8.38484 4.84154,8.38484 3.82755,0 4.84153,0.77094 4.84153,3.68102 0,3.55362 0.46861,3.67633 13.54159,3.5456 7.44787,-0.0744 13.93781,0.17651 14.42208,0.55775 0.48429,0.38122 1.29528,6.73659 1.80224,14.12301 0.50697,7.38645 1.27557,13.70842 1.70803,14.04887 0.43247,0.34043 4.85696,1.05821 9.83217,1.59502 8.79584,0.94905 9.04587,0.86496 9.04587,-3.04247 0,-4.39367 3.04155,-4.99052 21.05937,-4.13254 12.23087,0.58241 26.79033,-1.31739 23.32569,-3.04367 -2.33724,-1.16455 -2.31377,-1.39962 0.15706,-1.57303 1.59771,-0.11221 3.55853,-0.12257 4.35738,-0.0234 0.79886,0.0992 1.45247,-0.50549 1.45247,-1.34398 0,-1.91778 2.06965,-1.90947 5.80983,0.0234 2.58216,1.33438 2.58216,1.66798 0,3.00236 -2.15132,1.11173 -0.80469,1.50722 5.19101,1.52451 6.93213,0.02 8.18487,-0.46975 8.71476,-3.40681 0.40619,-2.25144 1.94983,-3.43016 4.49208,-3.43016 3.15596,0 4.05253,-1.27043 4.84154,-6.86032 0.79156,-5.60813 1.7419,-6.94701 5.2066,-7.3352 2.6404,-0.29584 4.46572,-1.73274 4.84154,-3.81128 0.38174,-2.11135 2.20319,-3.51528 4.96061,-3.82357 3.3867,-0.37864 4.35739,-1.48239 4.35739,-4.95468 0,-3.68321 0.80548,-4.46751 4.58815,-4.46751 3.79737,0 4.79502,-0.98531 5.78852,-5.71693 0.66021,-3.14432 1.20998,-8.28956 1.22169,-11.43387 0.0194,-4.99676 0.60072,-5.71693 4.62079,-5.71693 4.61476,0 5.06176,-0.93701 5.27038,-11.04756 0.0304,-1.47049 2.0105,-3.04911 4.42241,-3.52564 3.55001,-0.7014 4.21312,-1.6908 3.54283,-5.28598 -0.45356,-2.4327 -1.38397,-4.36658 -2.06758,-4.29753 -3.61879,0.36553 -5.28517,-0.50483 -5.55872,-2.90342 -2.9306,-9.79041 -4.26187,-15.12097 -9.58327,-17.53496 -1.58208,-0.71768 -3.51686,-1.17759 -5.9512,-1.42023 -3.70143,-0.33527 -5.50429,-1.4676 -5.91129,-3.71278 -0.43974,-2.42589 -2.61011,-3.57611 -8.71477,-4.61856 -5.90518,-1.00837 -8.05557,-2.10569 -7.86019,-4.01104 0.21044,-2.05211 -1.31108,-2.6229 -6.99201,-2.6229 -3.99353,0 -11.25835,-0.43131 -16.14401,-0.95846 -7.10166,-0.76627 -9.00059,-1.60699 -9.46921,-4.19241 -0.37433,-2.0651 -2.24215,-3.41839 -5.16779,-3.74425 -2.51987,-0.28065 -5.0136,-1.81075 -5.54161,-3.4002 -0.71101,-2.14034 -3.39055,-3.14371 -10.33072,-3.86845 l -9.37071,-0.97855 -0.5806,-7.05512 c -0.4844,-5.88641 -1.22217,-7.05512 -4.4538,-7.05512 -2.49619,0 -4.08551,-1.17299 -4.47029,-3.29931 -0.48884,-2.70121 -2.33203,-3.48719 -10.16723,-4.33548 -7.3945,-0.80058 -9.57017,-1.65347 -9.57017,-3.75156 0,-1.79751 -1.96391,-3.0246 -5.80984,-3.63011 -4.0238,-0.63352 -5.80985,-1.81054 -5.80985,-3.82876 0,-2.27881 -1.87321,-3.13517 -8.59323,-3.92846 -6.88834,-0.81316 -8.7134,-1.67927 -9.19892,-4.36552 -0.42882,-2.37255 -2.16081,-3.49196 -5.93137,-3.83348 -4.18304,-0.37888 -5.3257,-1.27841 -5.3257,-4.19242 0,-2.94101 -1.00355,-3.71002 -4.84153,-3.71002 -3.87323,0 -4.84154,-0.76226 -4.84154,-3.81129 0,-3.04903 -0.9683,-3.81129 -4.84153,-3.81129 -3.87323,0 -4.84154,-0.76225 -4.84154,-3.81129 0,-3.21841 -0.90376,-3.81128 -5.80985,-3.81128 -5.82713,0 -6.72241,-1.44768 -6.33871,-10.24983 0.0591,-1.35635 -0.91402,-1.44568 -3.56814,-0.3275 -2.83822,1.19574 -3.64945,1.01726 -3.64945,-0.8029 0,-1.28722 1.08935,-2.43777 2.42077,-2.55675 1.33143,-0.11891 -1.06514,-0.63349 -5.32569,-1.14338 -6.06285,-0.72557 -7.74646,-1.58973 -7.74646,-3.97608 0,-2.19292 -1.49534,-3.18447 -5.32569,-3.53141 -4.18303,-0.37889 -5.32568,-1.27841 -5.32568,-4.19242 0,-3.398 -2.6253,-4.61914 -8.31604,-3.86815 -0.84582,0.11159 -1.28156,-4.78087 -0.96831,-10.8722 l 0.56958,-11.07515 13.89504,-0.4456 c 13.20679,-0.42354 13.92621,-0.27252 14.5246,3.04903 0.44949,2.49503 2.11033,3.62939 5.8063,3.9657 4.32218,0.39331 5.03522,1.08539 4.31951,4.19242 -0.82408,3.57748 -0.44397,3.72135 9.83204,3.72135 10.11079,0 10.68925,0.20625 10.68925,3.81128 0,3.72659 0.32278,3.81129 14.52461,3.81129 14.20184,0 14.52461,0.0848 14.52461,3.81129 0,3.21842 0.90376,3.81128 5.80984,3.81128 4.90609,0 5.80985,0.59287 5.80985,3.81129 0,3.5572 0.64553,3.81129 9.68307,3.81129 9.03754,0 9.68307,0.25409 9.68307,3.81129 0,3.72658 0.32278,3.81128 14.52462,3.81128 14.20183,0 14.5246,0.0848 14.5246,3.8113 0,3.21841 0.90376,3.81128 5.80985,3.81128 4.90609,0 5.80984,0.59287 5.80984,3.81128 0,3.04904 0.96831,3.81129 4.84153,3.81129 3.87323,0 4.84155,0.76226 4.84155,3.81129 0,2.75131 1.04143,3.81129 3.74459,3.81129 2.60572,0 3.93096,1.22893 4.35738,4.04073 0.5394,3.55675 1.54062,4.0766 8.35925,4.3404 4.26055,0.16481 11.0145,-0.0261 15.00877,-0.42429 6.02314,-0.60043 7.2623,-1.32294 7.2623,-4.23437 0,-2.47973 -1.27935,-3.65344 -4.35738,-3.99757 -5.89314,-0.65886 -5.99001,-6.4023 -0.11911,-7.06009 2.6404,-0.29585 4.46572,-1.73274 4.84154,-3.81129 0.42478,-2.34936 1.89236,-3.3006 4.96061,-3.21537 4.30033,0.11952 4.35739,-0.13507 4.35739,-19.43756 l 2e-5,-19.55861 -4.84154,0 c -3.87323,0 -4.84153,-0.76227 -4.84153,-3.81129 0,-3.04903 -0.96831,-3.81129 -4.84154,-3.81129 -3.87323,0 -4.84154,-0.76225 -4.84154,-3.81129 0,-3.04903 -0.9683,-3.81128 -4.84154,-3.81128 -4.0884,0 -4.84153,-0.71145 -4.84153,-4.57355 0,-3.83145 -0.76632,-4.57354 -4.72288,-4.57354 -4.10401,0 -4.89198,-0.88781 -6.01353,-6.7753 -1.02343,-5.37248 -2.15069,-6.87181 -5.44435,-7.24144 -2.90492,-0.326 -4.33792,-1.72657 -4.76648,-4.65857 -0.43291,-2.96175 -1.712,-4.19242 -4.35738,-4.19242 -3.05749,0 -3.7446,-1.08398 -3.7446,-5.90749 0,-10.39591 -2.00034,-15.22678 -6.51492,-15.7336 -2.88673,-0.32407 -4.3216,-1.731 -4.74925,-4.65679 -0.4813,-3.29291 -1.62397,-4.19242 -5.32568,-4.19242 -4.36441,0 -4.71291,-0.56366 -4.71291,-7.62258 0,-7.1144 -0.32277,-7.62256 -4.84153,-7.62256 -4.51876,0 -4.84154,-0.50817 -4.84154,-7.62258 0,-7.11441 -0.32277,-7.62257 -4.84153,-7.62257 -4.51877,0 -4.84155,-0.50817 -4.84155,-7.62258 0,-7.11441 -0.32277,-7.62257 -4.84153,-7.62257 -3.87323,0 -4.84154,-0.76226 -4.84154,-3.81129 0,-3.00939 -0.98043,-3.81129 -4.6598,-3.81129 -4.12313,0 -4.81321,-0.8779 -5.99158,-7.62258 -1.17837,-6.74466 -1.86844,-7.62257 -5.99158,-7.62257 -3.67937,0 -4.6598,-0.80189 -4.6598,-3.81128 0,-3.04903 -0.96831,-3.8113 -4.84153,-3.8113 -3.87323,0 -4.84155,-0.76225 -4.84155,-3.81128 0,-3.04903 -0.9683,-3.81128 -4.84153,-3.81128 -3.87322,0 -4.84154,-0.76227 -4.84154,-3.8113 0,-3.04902 -0.9683,-3.81128 -4.84153,-3.81128 -3.87323,0 -4.84154,-0.76227 -4.84154,-3.81129 0,-3.04903 -0.9683,-3.81128 -4.84153,-3.81128 -3.83799,0 -4.84154,-0.76902 -4.84154,-3.71004 0,-2.914 -1.14267,-3.81352 -5.32569,-4.19242 -3.71668,-0.33664 -5.50392,-1.46618 -5.91558,-3.73862 -0.59497,-3.28425 -6.73788,-5.12859 -17.08172,-5.12859 -2.5297,0 -4.59946,-0.68604 -4.59946,-1.52451 -1.93347,1.3881 -6.84131,-0.24887 -9.04928,-0.77278 -4.9661,-1.17839 -7.9845,-3.78603 -15.91951,-3.80077 l -11.82688,0 0,6.86032 c 0,6.30132 -0.39449,6.86032 -4.84154,6.86032 -3.82065,0 -4.84153,0.77219 -4.84153,3.66213 0,2.69843 -1.52893,4.08174 -5.80985,5.25652 -3.19542,0.87689 -5.80984,2.68912 -5.80984,4.0272 0,2.04495 -2.23871,2.36145 -14.04046,1.98496 -12.76103,-0.40711 -14.09542,-0.75195 -14.64369,-3.78435 -0.37582,-2.07853 -2.20114,-3.51544 -4.84154,-3.81128 -3.8138,-0.4273 -4.29566,-1.50555 -4.81094,-10.76534 -0.5446,-9.78665 -0.80536,-10.29048 -5.32569,-10.29048 -4.01047,0 -4.75305,-0.7286 -4.75305,-4.66352 0,-2.56494 -0.79283,-4.27779 -1.76186,-3.80634 -0.969,0.47144 -3.14769,0.43854 -4.84153,-0.0732 -2.67235,-0.80723 -3.07968,-4.94143 -3.07968,-31.25747 l 0,-30.32719 -4.84154,0 c -4.7938,0 -4.84175,-0.13157 -4.86286,-13.33951 -0.0317,-19.90007 -1.4108,-24.77336 -7.01021,-24.77336 -4.41025,0 -4.58816,-0.43441 -4.58816,-11.20385 0,-6.16212 0.56362,-16.4526 1.2525,-22.86772 1.07218,-9.98503 1.76905,-11.66388 4.84153,-11.66388 3.19524,0 3.58905,-1.33822 3.58905,-12.19612 0,-11.17977 -0.32277,-12.19612 -3.87323,-12.19612 -3.52894,0 -3.87323,-1.01633 -3.87323,-11.43387 0,-10.41751 0.34429,-11.43386 3.87323,-11.43386 2.84038,0 3.87323,-1.01633 3.87323,-3.81128 -4.51241,-9.22722 -8.82822,-11.30193 6.03571,-11.43387 4.66517,0 5.58398,0.62713 5.58398,3.8113 0,3.04902 0.9683,3.81128 4.84153,3.81128 3.87324,0 4.84154,0.76225 4.84154,3.81129 0,3.74248 0.27509,3.81128 15.23967,3.81128 12.04614,-2.98554 5.91478,8.41423 10.0024,4.97758 7.04838,-5.9259 10.43578,-0.81106 12.35278,4.94379 1.06648,3.20152 1.67789,-3.72411 2.2114,12.48765 0.54356,16.51737 1.37065,30.33257 1.83795,30.70043 0.46731,0.36787 9.15382,1.01079 19.30333,1.42871 17.83694,0.73445 18.45367,0.88028 18.45367,4.3634 0,3.30794 0.79438,3.60355 9.68307,3.60355 8.39199,0 9.68308,0.40655 9.68308,3.04904 0,2.23595 -1.29109,3.04903 -4.84154,3.04903 -3.87323,0 -4.84154,0.76225 -4.84154,3.81129 0,3.21842 0.90376,3.81128 5.80984,3.81128 4.51876,0 5.80985,-0.67755 5.80985,-3.04903 0,-2.03267 1.29108,-3.04903 3.87322,-3.04903 2.49179,0 3.87324,1.01636 3.87324,2.84956 0,2.1085 1.88866,3.09532 7.2623,3.79452 -0.1619,-9.65985 3.56972,3.83617 12.38184,0.47716 8.65708,-3.29991 1.33797,0.59744 7.51285,3.38446 3.26482,-0.33487 -1.92448,0.24296 -0.19987,0.20559 8.48622,-0.1839 8.00541,2.09188 3.84496,4.44392 -3.48093,1.96789 0.19587,2.69349 0.18379,3.90123 0,3.04903 0.96831,3.81129 4.84153,3.81129 4.51876,0 4.84155,0.50818 4.84155,7.62257 l 0,7.62258 9.49671,0 9.49671,0 1.3698,15.82039 c 0.76789,10.70731 2.86456,13.11286 5.03336,15.28471 1.6961,1.69851 3.43631,3.2541 4.61955,8.52581 1.20435,5.61158 1.80465,6.10642 7.43392,6.12788 7.81314,0.0297 11.85671,2.04711 10.33998,5.15861 -0.67594,1.38662 -0.17063,2.51656 1.17025,2.61647 1.298,0.0967 3.23147,0.33524 4.29661,0.53006 1.06514,0.1948 2.9782,0.45868 4.25128,0.58641 1.33168,0.13354 2.56532,3.30746 2.90492,7.47364 0.50372,6.1796 1.22919,7.31288 4.94764,7.7286 6.38144,0.71346 5.95149,6.37316 -0.48415,6.37316 l -4.84154,0 0,16.00741 c 0,8.80408 0.65361,15.92616 1.45247,15.82687 7.52764,-0.93566 8.2306,0.0562 8.2306,11.6144 0,11.17977 0.10768,11.43386 4.84154,11.43386 4.51876,0 4.84154,0.50816 4.84154,7.62257 0,7.11441 0.32278,7.62258 4.84154,7.62258 3.87322,0 4.84153,0.76225 4.84153,3.81129 0,3.04903 0.96831,3.81128 4.84154,3.81128 4.2998,0 4.84392,0.63969 4.86286,5.71693 0.0414,11.14113 2.15863,17.1508 6.04191,17.1508 2.57008,0 3.61983,1.10527 3.61983,3.81128 0,3.04903 0.96832,3.8113 4.84155,3.8113 4.2998,0 4.84392,0.63968 4.86286,5.71693 0.0116,3.14431 0.54786,8.2235 1.19144,11.28709 1.09579,5.21639 1.70947,5.63384 9.66175,6.57261 4.67039,0.55132 8.60056,1.64642 8.73371,2.43352 0.13324,0.78711 0.351,2.28865 0.48415,3.33676 0.13324,1.0481 2.63864,2.12271 5.56776,2.38803 5.01446,0.45419 5.32569,0.92585 5.32569,8.07053 0,5.18614 0.76629,7.50981 2.42077,7.34068 6.3342,-0.64749 7.26231,0.29974 7.26231,7.41197 0,6.33537 0.53983,7.33015 4.09212,7.54079 2.25068,0.1334 4.33432,0.45097 4.63031,0.70556 1.01986,0.87717 2.70065,14.20135 2.79883,22.18723 0.0856,6.96153 0.60276,8.00371 3.97165,8.00371 3.35679,0 11.26062,3.6597 11.26062,10.26593 0,7.11441 -0.32277,7.62257 -4.84153,7.62257 -3.87323,0 3.21742,3.40561 3.21742,6.45465 0,3.04902 0.9683,3.81128 4.84153,3.81128 4.29981,0 -3.88662,2.2257 -3.86767,7.30294 0.0414,11.14113 -4.55719,10.27807 -0.6739,10.27807 2.57007,0 3.61983,1.10527 3.61983,3.81129 0,3.21842 0.90376,3.81129 5.80985,3.81129 4.90609,0 5.80985,0.59287 5.80985,3.81128 0,3.5572 0.64553,3.81129 9.68307,3.81129 l 9.68307,0 0,8.38484 c 0,7.2835 0.49372,8.38483 3.75893,8.38483 4.56925,0 5.69144,1.2806 6.25883,7.14235 -0.63785,6.95429 9.22243,1.59662 9.34839,5.56254 2.81748,3.49479 4.15868,6.21803 4.54006,8.4077 0.75942,4.36031 -2.2872,6.605 -5.06221,8.61365 -2.73605,1.84418 -3.37562,3.04439 -1.8374,3.44802 3.92596,1.458 2.81879,6.99811 0.3609,9.35858 -2.13785,2.0531 -5.433,1.05903 -5.61746,0.97925 -1.44646,-0.70373 -2.06697,12.06501 -2.06697,42.53302 l 0,43.53866 -4.76008,0 c -4.59756,0 -4.77937,0.40335 -5.32569,11.81499 -0.50985,10.65023 -0.94745,11.81499 -4.43884,11.81499 -3.15596,0 -4.05254,1.27042 -4.84153,6.86032 -0.7955,5.63607 -1.73367,6.94599 -5.25708,7.34039 -4.04503,0.4528 -4.32018,1.31921 -4.84154,15.24515 l -0.55276,14.76507 -8.97625,0.45751 c -8.2994,0.42299 -9.06605,0.81096 -10.16723,5.14524 -0.65504,2.57824 -1.20432,7.17459 -1.22063,10.21409 -0.0233,4.32388 -0.47758,5.02878 -2.08823,3.23959 -1.62375,-1.80374 -1.88959,-1.44586 -1.25853,1.69429 0.45046,2.24151 -0.11794,3.96847 -1.30084,3.95226 -1.1555,-0.0159 -5.24809,0.0793 -9.09465,0.21136 -6.35911,0.21836 -6.90976,0.58601 -6.06823,4.05144 0.91768,3.77908 0.80492,3.81219 -13.3407,3.91845 -9.87588,0.0743 -13.07426,0.51599 -10.39299,1.43567 3.79125,1.30041 3.78382,1.34971 -0.35021,2.32985 -10.7572,6.93737 -0.65546,8.56595 -8.64033,8.32344 -1.03925,0 -1.35093,0.68604 -0.69263,1.52451 0.65829,0.83849 -0.14526,1.52452 -1.78543,1.52452 -1.64027,0 -3.50899,1.65191 -4.15269,3.67089 -1.0996,3.44886 -2.03427,3.6779 -15.45125,3.78647 -11.60735,0.0939 -14.64706,-0.37923 -16.23714,-2.52751 -0.36499,-2.59712 -0.45022,0.17161 -2.54281,1.15699 -1.46153,0.68821 -5.13716,0.95647 -5.34112,-3.98673 0,-1.50378 -2.74952,-2.10011 -9.68308,-2.10011 -9.03755,0 -9.68307,0.25409 -9.68307,3.81129 0,2.9929 -0.9852,3.81129 -4.58815,3.81129 -3.79738,0 -4.79502,0.98531 -5.78853,5.71693 -0.66021,3.1443 -1.20997,10.00462 -1.22169,15.24515 -0.0194,8.39698 -0.46589,9.52821 -3.76592,9.52821 -2.64538,0 -3.92447,1.23067 -4.35739,4.19242 -0.57155,3.91027 -1.29701,4.22342 -10.78,4.65322 -8.58486,0.38908 -10.16723,0.92292 -10.16723,3.43016 0,2.15096 -1.33439,2.96935 -4.84154,2.96935 -3.87323,0 -4.84153,-0.76225 -4.84153,-3.81129 z m -259.27486,-20.2049 c 1.03384,-5.18002 -0.55868,-6.32358 -9.4304,-6.77171 -7.85005,-0.39652 -9.28968,-0.96762 -9.81778,-3.89481 -0.5462,-3.02753 -1.73963,-3.43016 -10.16722,-3.43016 -8.77271,0 -9.54838,-0.29554 -9.54838,-3.6382 0,-3.13026 -1.18821,-3.77845 -8.51084,-4.64288 -4.68095,-0.55257 -10.74337,-0.5636 -13.47202,-0.0245 -4.19829,0.82949 -5.15532,0.3713 -6.22372,-2.97968 -1.14408,-3.58833 -2.15128,-3.95985 -10.73566,-3.95985 -8.81359,0 -9.47313,-0.26534 -9.47313,-3.81129 0,-3.6034 -0.58098,-3.81129 -10.65137,-3.81129 -10.0704,0 -10.65138,-0.20788 -10.65138,-3.81128 0,-3.04903 -0.96832,-3.81129 -4.84154,-3.81129 -3.8502,0 -4.84153,-0.76671 -4.84153,-3.7445 0,-3.59081 -0.57626,-3.76288 -14.04047,-4.19241 -12.66283,-0.40397 -14.09847,-0.76828 -14.63181,-3.71296 -0.49341,-2.72426 -2.33779,-3.43682 -11.13554,-4.30212 -8.3678,-0.82301 -10.54417,-1.60258 -10.54417,-3.77692 0,-2.93709 -7.86457,-4.61439 -21.78691,-4.64654 -6.15512,-0.0138 -7.3025,-0.53975 -7.52603,-3.44694 l -0.26373,-3.43016 -0.83927,3.43016 c -0.5082,2.07705 -2.24685,3.43016 -4.40757,3.43016 -2.64833,0 -3.90266,-1.5578 -4.86507,-6.04212 -1.57608,-7.34361 -0.33037,-9.20304 6.16552,-9.20304 4.67772,0 4.90763,-0.3477 3.78026,-5.71693 -0.66022,-3.14431 -1.20999,-7.89882 -1.2217,-10.56557 -0.0174,-3.86128 -0.90865,-4.94785 -4.37871,-5.33581 -2.75742,-0.30828 -4.57887,-1.71223 -4.96062,-3.82357 -0.37582,-2.07854 -2.20114,-3.51544 -4.84154,-3.81129 -2.62325,-0.29391 -4.46581,-1.7321 -4.83537,-3.77419 -0.48882,-2.7012 -2.33201,-3.48718 -10.16722,-4.33548 l -9.570154,-1.03615 0,-15.10209 c 0,-15.09255 -0.0039,-15.10209 -4.841536,-15.10209 -3.873229,0 -4.841537,-0.76225 -4.841537,-3.81129 0,-3.04903 -0.968307,-3.81128 -4.841536,-3.81128 -4.518762,0 -4.841536,-0.50817 -4.841536,-7.62258 -0.604283,-9.21576 -4.901301,-5.21207 -5.472234,-10.32107 -0.376052,-3.36499 -0.0339,-10.90432 3.223534,-15.52733 2.426131,-3.44325 6.799725,-4.64281 11.931772,-4.6419 l 0,-19.05644 0,-19.05643 -4.841536,0 c -4.841536,0 -4.841536,0 -4.841536,-15.24515 0,-15.24515 0,-15.24515 4.841536,-15.24515 4.760838,0 4.841536,-0.20326 4.841536,-12.19612 0,-11.99285 0.08076,-12.19612 4.841537,-12.19612 l 4.841536,0 0,-26.67901 c 1.56248,-7.07602 0.322795,-15.91005 -0.637166,-24.05177 -0.615514,-5.22047 -1.116051,-10.15631 -0.689125,-14.16154 0.41736,-3.75507 1.326291,-8.20076 1.326291,-16.54453 0,-23.06458 0.683489,-25.91442 5.707513,-23.79779 3.117411,1.31336 3.483251,-0.20774 4.647951,-19.3254 0.69533,-11.41303 1.26423,-26.13074 1.26423,-32.70604 0,-10.93872 0.32927,-11.95508 3.87322,-11.95508 3.64317,0 3.87375,-1.01865 3.88204,-17.15079 0.005,-9.43293 0.57125,-24.83441 1.25866,-34.22551 1.15765,-15.81489 1.54996,-17.10845 5.31688,-17.53192 2.81346,-0.31628 4.2559,-1.74943 4.67982,-4.64963 0.43291,-2.96175 1.712,-4.19241 4.35738,-4.19241 2.45351,0 3.74459,-1.05126 3.74459,-3.04903 0,-2.03268 -1.29108,-3.04902 -3.87322,-3.04902 -2.84038,0 -3.87323,-1.01636 -3.87323,-3.8113 0,-2.71424 1.04829,-3.81128 3.6419,-3.81128 3.24555,0 3.79272,-1.74207 5.02789,-16.00741 1.3494,-15.58473 1.50892,-16.00741 6.04117,-16.00741 4.29515,0 4.65518,-0.58954 4.65518,-7.62257 0,-7.11441 0.32277,-7.62258 4.84153,-7.62258 4.73394,0 4.84154,-0.25409 4.84154,-11.43386 0,-11.17977 0.10768,-11.43386 4.84153,-11.43386 4.51876,0 4.84154,-0.50817 4.84154,-7.62258 0,-7.11438 0.32277,-7.62257 4.84154,-7.62257 4.57746,0 4.84154,-0.45736 4.84154,-8.38483 0,-7.92748 -0.26408,-8.38483 -4.84154,-8.38483 -4.73394,0 -4.84154,-0.25408 -4.84154,-11.43387 0,-11.17977 -0.10767,-11.43386 -4.84154,-11.43386 -3.87322,0 -4.84153,-0.76225 -4.84153,-3.81129 0,-3.04903 -0.96831,-3.81128 -4.84154,-3.81128 -3.84704,0 -4.84153,-0.76731 -4.84153,-3.73554 0,-2.05454 1.52509,-4.43478 3.38907,-5.28944 2.09133,-0.95889 2.41835,-1.57165 0.85401,-1.60027 -1.39428,-0.0255 -2.01998,-0.70242 -1.39042,-1.50429 0.62952,-0.80185 2.42392,-1.07148 3.9875,-0.59914 2.11013,0.63741 2.84291,-0.32008 2.84291,-3.71477 0,-4.48395 4.15503,-7.40932 7.92121,-5.57699 0.96904,0.47145 1.76186,-1.16518 1.76186,-3.63695 0,-2.61671 1.01128,-4.46456 2.42077,-4.42335 6.74056,0.19706 8.52864,-0.62181 8.38438,-3.83973 -0.10961,-2.44304 1.10017,-3.57033 4.20361,-3.91731 3.15381,-0.35258 4.35739,-1.5106 4.35739,-4.19242 0,-3.61522 0.37644,-3.70525 15.49292,-3.70525 15.2347,0 15.49292,-0.0635 15.49292,-3.81129 0,-3.04903 0.9683,-3.81128 4.84153,-3.81128 3.87322,0 4.84154,-0.76226 4.84154,-3.8113 0,-3.04902 0.9683,-3.81128 4.84153,-3.81128 3.87323,0 4.84154,-0.76226 4.84154,-3.81129 0,-3.74776 0.25821,-3.81128 15.49291,-3.81128 15.23471,0 15.49292,-0.0635 15.49292,-3.811295 0,-3.726577 0.32278,-3.811284 14.52461,-3.811284 7.98853,0 14.52461,0.629927 14.52461,1.399845 -6.35831,9.966214 -9.60846,-0.2766 -9.68308,16.984314 l 0,12.10614 -5.74907,0 c -4.32771,0 -5.47204,0.56828 -4.62859,2.29854 0.61626,1.26421 -0.26,3.95708 -1.94724,5.98418 -2.3026,2.76639 -2.47646,3.87414 -0.6971,4.44141 1.30384,0.41569 0.4098,0.80996 -1.98675,0.87615 -3.97208,0.10978 -4.35739,0.86181 -4.35739,8.50518 0,7.34161 0.47732,8.38484 3.83634,8.38484 2.47697,0 4.2669,1.35049 5.05149,3.81129 0.8724,2.73632 2.52148,3.81128 5.84673,3.81128 2.54736,0 4.63158,0.59091 4.63158,1.31311 0,0.72221 2.1787,0.98525 4.84155,0.58453 3.93085,-0.59152 4.84153,-0.12166 4.84153,2.4982 0,2.44033 1.20063,3.22674 4.92638,3.22674 4.87674,0 4.92064,0.11128 4.35739,11.05273 l -0.56901,11.05274 -18.78417,1.36494 c -16.96445,1.23269 -18.84057,1.67576 -19.36615,4.57355 -0.35994,1.9845 -2.24434,3.39445 -4.93935,3.69577 -3.84591,0.42997 -4.35738,1.36945 -4.35738,8.0037 0,6.50019 0.52371,7.51653 3.87322,7.51653 2.84038,0 3.87324,1.01635 3.87324,3.81129 0,3.00941 0.98043,3.81128 4.6598,3.81128 4.12313,0 4.8132,0.87793 5.99158,7.62258 1.17837,6.74467 1.86844,7.62257 5.99157,7.62257 3.67938,0 4.6598,0.8019 4.6598,3.81129 0,3.5572 0.64554,3.81129 9.68308,3.81129 9.50941,0 9.68307,0.0837 9.68307,4.66352 0,2.56494 0.79283,4.27779 1.76186,3.80633 3.35584,-1.63268 8.26053,1.0157 7.29025,3.93652 -0.84115,2.53208 0.2928,2.83878 10.49534,2.83878 8.87638,0 11.43839,0.51221 11.43839,2.28677 0,1.25773 1.08934,2.29728 2.42077,2.31011 1.61383,0.0155 1.45245,0.51596 -0.48416,1.50118 -2.37241,1.20693 -2.14414,1.4821 1.24526,1.50117 5.27029,0.0295 6.5012,2.65548 6.5012,13.86866 0,8.60756 0.22261,9.02241 4.84154,9.02241 4.0884,0 4.84153,0.71144 4.84153,4.57354 0,3.8621 -0.75313,4.57355 -4.84153,4.57355 -3.55046,0 -4.84154,0.81306 -4.84154,3.04903 0,3.42161 6.76101,4.34185 8.40049,1.14339 0.53723,-1.04812 1.04559,4.44014 1.12969,12.19611 0.15241,14.05763 0.13769,14.10176 -4.68864,14.10176 -4.44705,0 -4.84154,0.559 -4.84154,6.86032 0,6.30133 0.39449,6.86032 4.84154,6.86032 l 4.84153,0 0,16.00741 0,16.00741 -9.68307,0 c -9.03754,0 -9.68307,-0.25409 -9.68307,-3.8113 0,-3.6034 -0.58099,-3.81128 -10.65138,-3.81128 -10.0704,0 -10.65139,-0.20789 -10.65139,-3.81129 0,-2.98186 -0.9883,-3.81128 -4.54138,-3.81128 -5.65923,0 -12.48551,-5.30301 -8.64915,-6.71912 1.39653,-0.5155 0.57834,-0.65088 -1.81822,-0.30083 -3.82422,0.55856 -4.35739,10e-4 -4.35739,-4.55665 0,-4.52294 -0.62477,-5.19307 -4.84153,-5.19307 -4.43631,0 -4.84155,-0.56573 -4.84155,-6.75906 0,-6.24022 -0.4088,-6.79607 -5.32568,-7.24144 -3.81321,-0.3454 -5.50144,-1.45654 -5.94454,-3.91255 -0.38523,-2.13527 -1.96156,-3.43016 -4.17565,-3.43016 -2.79393,0 -3.83912,-1.61585 -4.87305,-7.5337 -1.0776,-6.16791 -2.07605,-7.61888 -5.50742,-8.0037 -2.57713,-0.289 -4.42111,-1.74059 -4.78824,-3.76933 -0.48884,-2.7012 -2.33203,-3.48718 -10.16723,-4.33548 l -9.57016,-1.03615 0,-7.47951 c 0,-6.96181 -0.33511,-7.47951 -4.84154,-7.47951 -3.55046,0 -4.84153,-0.81308 -4.84153,-3.04904 0,-2.63675 -1.29109,-3.04903 -9.54838,-3.04903 -8.42759,0 -9.62103,0.40264 -10.16724,3.43016 -0.39769,2.20439 -2.17596,3.60424 -4.97622,3.91732 -4.06375,0.45434 -4.35739,1.23618 -4.35739,11.60221 0,6.11328 -0.5542,14.29794 -1.23153,18.18815 -1.0702,6.14645 -1.83134,7.07309 -5.80984,7.07309 l -4.57831,0 0,19.81869 c 0,18.4049 -0.26063,19.81871 -3.65342,19.81871 -2.59673,0 -3.90564,1.3527 -4.52539,4.67684 -1.48825,7.98229 0.86212,74.59793 2.63201,74.59793 0.92045,0 1.67357,1.02905 1.67357,2.28677 0,1.25773 -0.75894,2.28678 -1.68656,2.28678 -0.92758,0 -2.29469,5.48825 -3.03801,12.19611 -1.28641,11.6092 -1.57805,12.19613 -6.0599,12.19613 -4.35907,0 -4.70845,0.56562 -4.70845,7.62256 0,7.11441 -0.32278,7.62258 -4.84154,7.62258 -4.51876,0 -4.84153,0.50817 -4.84153,7.62258 0.41894,3.78674 -3.36038,5.32216 -0.97476,8.09742 2.61418,3.04114 10.99257,7.14773 0.97476,7.14773 l 0,19.05643 0,19.05645 20.33445,0 20.33445,0 0,-3.8113 c 0,-3.01994 0.9773,-3.81128 4.70685,-3.81128 3.40674,0 4.87777,-0.94747 5.32569,-3.43016 0.58945,-3.26726 1.55565,-3.45074 20.34315,-3.86352 18.69399,-0.41073 19.75618,-0.60982 20.33445,-3.81129 0.55695,-3.0834 1.83434,-3.41698 14.65061,-3.82584 13.46419,-0.42954 14.04045,-0.60161 14.04045,-4.19242 0,-3.47705 0.69161,-3.7445 9.68307,-3.7445 l 9.68308,0 0,7.62258 c 0,7.11441 -0.32277,7.62257 -4.84153,7.62257 -3.87323,0 -4.84155,0.76226 -4.84155,3.81129 0,3.04903 -0.9683,3.81129 -4.84153,3.81129 -3.87322,0 -4.84154,0.76226 -4.84154,3.81128 0,3.0094 -0.98043,3.8113 -4.6598,3.8113 -4.12313,0 -4.8132,0.8779 -5.99158,7.62256 -1.06827,6.1145 -2.0621,7.62258 -5.02326,7.62258 -2.97086,0 -3.69567,1.11602 -3.71282,5.71694 -0.0404,10.84681 -2.1792,17.15078 -5.81877,17.15078 -2.66483,0 -3.68345,1.80666 -4.7275,8.38484 -1.20205,7.57358 -1.78575,8.38483 -6.033,8.38483 -3.41109,0 -4.70217,0.83717 -4.70217,3.04902 0,2.75337 -1.29108,3.04904 -13.31423,3.04904 -18.4704,0 -25.41807,1.27453 -25.41807,4.66285 0,1.86311 -1.70215,2.91362 -5.2491,3.23959 -3.73936,0.34365 -5.58664,1.57857 -6.42268,4.29368 -0.76829,2.49509 -2.30991,3.6547 -4.46403,3.3579 -2.31662,-0.31921 -3.63977,0.92157 -4.47077,4.19241 -0.91798,3.61316 -2.20266,4.64581 -5.77979,4.64581 -3.61502,0 -4.59946,0.81575 -4.59946,3.81128 0,3.04903 -0.96831,3.8113 -4.84154,3.8113 -4.73394,0 -4.84153,0.25409 -4.84153,11.43386 0,11.17976 -0.10767,11.43385 -4.84154,11.43385 -4.51876,0 -4.84153,0.50817 -4.84153,7.62258 0,7.11441 0.32277,7.62258 4.84153,7.62258 3.87323,0 4.84154,0.76225 4.84154,3.81128 0,3.04903 0.96831,3.81129 4.84153,3.81129 4.51876,0 4.84154,0.50817 4.84154,7.62258 0,7.54741 0.0622,7.62431 6.294,7.79843 11.33929,0.3168 12.09743,0.55093 12.70735,3.92435 0.42245,2.3366 2.16536,3.47997 5.80985,3.81129 4.1542,0.37769 5.08389,1.16652 4.60044,3.90349 -0.51478,2.9144 0.28598,3.43015 5.32568,3.43015 5.03594,0 5.93158,0.57549 5.93158,3.8113 0,3.04902 0.96832,3.81128 4.84154,3.81128 3.80192,0 4.84155,0.77555 4.84155,3.61182 0,4.3662 6.20906,5.49294 30.41065,5.51849 l 15.88603,0.0168 2.01685,5.71693 c 1.10925,3.14431 2.02171,6.66022 2.02763,7.81314 0.008,1.53389 1.63428,1.84061 6.06273,1.14339 3.32855,-0.52406 7.64777,-0.95283 9.59823,-0.95283 3.05892,0 3.62451,-1.51903 4.11531,-11.05273 0.50898,-9.88709 0.97748,-11.05273 4.44223,-11.05273 3.30706,0 3.95878,-1.16995 4.45858,-8.00371 0.56205,-7.685 0.38854,-8.0037 -4.35738,-8.0037 -4.64022,2e-5 -4.94275,-0.46653 -4.94275,-7.62256 0,-7.45319 -0.12916,-7.62257 -5.80984,-7.62257 -4.90608,0 -5.80984,-0.59287 -5.80984,-3.8113 0,-2.79493 -1.03286,-3.81128 -3.87323,-3.81128 -2.84037,0 -3.87323,-1.01635 -3.87323,-3.81128 0,-2.79495 1.03286,-3.81129 3.87323,-3.81129 3.35679,0 3.87323,-1.01635 3.87323,-7.62258 0,-6.60623 -0.51644,-7.62258 -3.87323,-7.62258 -3.40376,0 -3.87323,-1.01634 -3.87323,-8.38483 0,-7.17284 0.52324,-8.38483 3.61985,-8.38483 3.79289,0 5.99713,-5.97895 6.0419,-16.38853 0.0211,-4.90641 0.1129,-4.95467 9.4122,-4.95467 5.16499,0 16.05845,-0.44369 24.20768,-0.98597 l 14.8168,-0.98596 0,4.79725 c 0,4.02095 0.73749,4.79725 4.55737,4.79725 4.27915,0 4.63383,0.712 5.80984,11.66388 0.68887,6.41513 1.25249,18.42068 1.25249,26.67901 0,13.99878 0.26217,15.01513 3.87322,15.01513 3.56438,0 3.87323,1.01635 3.87323,12.7456 0,7.01007 0.55421,15.92848 1.23154,19.81869 1.07021,6.14645 1.83134,7.0731 5.80984,7.0731 3.21211,0 4.57831,0.86716 4.57831,2.90597 0,2.33104 1.91574,3.1134 9.68307,3.95435 l 9.68308,1.04838 0,30.34724 c 0.49515,11.3803 0.50307,21.95691 0.38008,32.55796 -0.10512,9.06846 -0.30628,18.1548 -0.38008,27.77739 0,19.75691 -0.44911,23.3699 -2.90493,23.3699 -1.5977,0 -2.90492,1.32584 -2.90492,2.94629 -1.29917,4.80906 -14.25387,6.07343 -23.95491,5.63188 -5.57798,-0.25387 -10.08024,-1.07172 -10.67266,-2.10406 z"
   id="hearth"
   inkscape:connector-curvature="0" />
	 
</svg>