<?xml version="1.0" encoding="UTF-8" standalone="no"?>
<svg
   xmlns:dc="http://purl.org/dc/elements/1.1/"
   xmlns:cc="http://creativecommons.org/ns#"
   xmlns:rdf="http://www.w3.org/1999/02/22-rdf-syntax-ns#"
   xmlns:svg="http://www.w3.org/2000/svg"
   xmlns="http://www.w3.org/2000/svg"
   xmlns:sodipodi="http://sodipodi.sourceforge.net/DTD/sodipodi-0.dtd"
   xmlns:inkscape="http://www.inkscape.org/namespaces/inkscape"
   version="1.1"
   id="Layer_1"
   x="0px"
   y="0px"
   width="1000"
   height="1000"
   viewBox="0 0 1000 1000"
   enable-background="new 0 0 512 512"
   xml:space="preserve"
   inkscape:version="0.48.0 r9654"
   sodipodi:docname="uni9B5A-x2fc2.svg"><metadata
   id="metadata72"><rdf:RDF><cc:Work
       rdf:about=""><dc:format>image/svg+xml</dc:format><dc:type
         rdf:resource="http://purl.org/dc/dcmitype/StillImage" /></cc:Work></rdf:RDF></metadata><defs
   id="defs70" /><sodipodi:namedview
   pagecolor="#ffffff"
   bordercolor="#666666"
   borderopacity="1"
   objecttolerance="10"
   gridtolerance="10"
   guidetolerance="10"
   inkscape:pageopacity="0"
   inkscape:pageshadow="2"
   inkscape:window-width="970"
   inkscape:window-height="715"
   id="namedview68"
   showgrid="false"
   inkscape:zoom="0.36045873"
   inkscape:cx="-26.418058"
   inkscape:cy="379.63606"
   inkscape:window-x="0"
   inkscape:window-y="0"
   inkscape:window-maximized="0"
   inkscape:current-layer="g3060" />
	<g
   id="Grid"
   transform="matrix(1.9559636,0,0,1.952167,0.48404577,0.01535327)">
		<rect
   x="0"
   stroke-miterlimit="10"
   width="512"
   height="512"
   id="rect4"
   y="0"
   style="fill:none;stroke:#a9ccdb;stroke-miterlimit:10" />
		<line
   stroke-miterlimit="10"
   x1="0"
   y1="32"
   x2="512"
   y2="32"
   id="line6"
   style="fill:none;stroke:#a9ccdb;stroke-miterlimit:10" />
		<line
   stroke-miterlimit="10"
   x1="0"
   y1="64"
   x2="512"
   y2="64"
   id="line8"
   style="fill:none;stroke:#a9ccdb;stroke-miterlimit:10" />
		<line
   stroke-miterlimit="10"
   x1="0"
   y1="96"
   x2="512"
   y2="96"
   id="line10"
   style="fill:none;stroke:#a9ccdb;stroke-miterlimit:10" />
		<line
   stroke-miterlimit="10"
   x1="0"
   y1="128"
   x2="512"
   y2="128"
   id="line12"
   style="fill:none;stroke:#a9ccdb;stroke-miterlimit:10" />
		<line
   stroke-miterlimit="10"
   x1="0"
   y1="160"
   x2="512"
   y2="160"
   id="line14"
   style="fill:none;stroke:#a9ccdb;stroke-miterlimit:10" />
		<line
   stroke-miterlimit="10"
   x1="0"
   y1="192"
   x2="512"
   y2="192"
   id="line16"
   style="fill:none;stroke:#a9ccdb;stroke-miterlimit:10" />
		<line
   stroke-miterlimit="10"
   x1="0"
   y1="224"
   x2="512"
   y2="224"
   id="line18"
   style="fill:none;stroke:#a9ccdb;stroke-miterlimit:10" />
		<line
   stroke-miterlimit="10"
   x1="0"
   y1="256"
   x2="512"
   y2="256"
   id="line20"
   style="fill:none;stroke:#a9ccdb;stroke-miterlimit:10" />
		<line
   stroke-miterlimit="10"
   x1="0"
   y1="288"
   x2="512"
   y2="288"
   id="line22"
   style="fill:none;stroke:#a9ccdb;stroke-miterlimit:10" />
		<line
   stroke-miterlimit="10"
   x1="0"
   y1="320"
   x2="512"
   y2="320"
   id="line24"
   style="fill:none;stroke:#a9ccdb;stroke-miterlimit:10" />
		<line
   stroke-miterlimit="10"
   x1="0"
   y1="352"
   x2="512"
   y2="352"
   id="line26"
   style="fill:none;stroke:#a9ccdb;stroke-miterlimit:10" />
		<line
   stroke-miterlimit="10"
   x1="0"
   y1="384"
   x2="512"
   y2="384"
   id="line28"
   style="fill:none;stroke:#a9ccdb;stroke-miterlimit:10" />
		<line
   stroke-miterlimit="10"
   x1="0"
   y1="416"
   x2="512"
   y2="416"
   id="line30"
   style="fill:none;stroke:#a9ccdb;stroke-miterlimit:10" />
		<line
   stroke-miterlimit="10"
   x1="0"
   y1="448"
   x2="512"
   y2="448"
   id="line32"
   style="fill:none;stroke:#ff0000;stroke-miterlimit:10" />
		<line
   stroke-miterlimit="10"
   x1="0"
   y1="480"
   x2="512"
   y2="480"
   id="line34"
   style="fill:none;stroke:#a9ccdb;stroke-miterlimit:10" />
		<line
   stroke-miterlimit="10"
   x1="32"
   y1="0"
   x2="32"
   y2="512"
   id="line36"
   style="fill:none;stroke:#a9ccdb;stroke-miterlimit:10" />
		<line
   stroke-miterlimit="10"
   x1="64"
   y1="0"
   x2="64"
   y2="512"
   id="line38"
   style="fill:none;stroke:#a9ccdb;stroke-miterlimit:10" />
		<line
   stroke-miterlimit="10"
   x1="96"
   y1="0"
   x2="96"
   y2="512"
   id="line40"
   style="fill:none;stroke:#a9ccdb;stroke-miterlimit:10" />
		<line
   stroke-miterlimit="10"
   x1="128"
   y1="0"
   x2="128"
   y2="512"
   id="line42"
   style="fill:none;stroke:#a9ccdb;stroke-miterlimit:10" />
		<line
   stroke-miterlimit="10"
   x1="160"
   y1="0"
   x2="160"
   y2="512"
   id="line44"
   style="fill:none;stroke:#a9ccdb;stroke-miterlimit:10" />
		<line
   stroke-miterlimit="10"
   x1="192"
   y1="0"
   x2="192"
   y2="512"
   id="line46"
   style="fill:none;stroke:#a9ccdb;stroke-miterlimit:10" />
		<line
   stroke-miterlimit="10"
   x1="224"
   y1="0"
   x2="224"
   y2="512"
   id="line48"
   style="fill:none;stroke:#a9ccdb;stroke-miterlimit:10" />
		<line
   stroke-miterlimit="10"
   x1="256"
   y1="0"
   x2="256"
   y2="512"
   id="line50"
   style="fill:none;stroke:#a9ccdb;stroke-miterlimit:10" />
		<line
   stroke-miterlimit="10"
   x1="288"
   y1="0"
   x2="288"
   y2="512"
   id="line52"
   style="fill:none;stroke:#a9ccdb;stroke-miterlimit:10" />
		<line
   stroke-miterlimit="10"
   x1="320"
   y1="0"
   x2="320"
   y2="512"
   id="line54"
   style="fill:none;stroke:#a9ccdb;stroke-miterlimit:10" />
		<line
   stroke-miterlimit="10"
   x1="352"
   y1="0"
   x2="352"
   y2="512"
   id="line56"
   style="fill:none;stroke:#a9ccdb;stroke-miterlimit:10" />
		<line
   stroke-miterlimit="10"
   x1="384"
   y1="0"
   x2="384"
   y2="512"
   id="line58"
   style="fill:none;stroke:#a9ccdb;stroke-miterlimit:10" />
		<line
   stroke-miterlimit="10"
   x1="416"
   y1="0"
   x2="416"
   y2="512"
   id="line60"
   style="fill:none;stroke:#a9ccdb;stroke-miterlimit:10" />
		<line
   stroke-miterlimit="10"
   x1="448"
   y1="0"
   x2="448"
   y2="512"
   id="line62"
   style="fill:none;stroke:#a9ccdb;stroke-miterlimit:10" />
		<line
   stroke-miterlimit="10"
   x1="480"
   y1="0"
   x2="480"
   y2="512"
   id="line64"
   style="fill:none;stroke:#a9ccdb;stroke-miterlimit:10" />
	</g>
	
<g
   id="g3060"
   transform="matrix(0.9114309,0,0,1.0986976,45.197809,-238.66818)"><path
     style="fill:#000000;fill-opacity:1"
     d="m 384.56869,860.87493 c 5.18475,-53.16169 3.32516,-59.69321 -14.99328,-52.66138 -11.50169,4.41504 -39.96536,8.02756 -63.25257,8.02756 -49.83688,-1.95164 -41.6696,21.07376 -43.7078,48.75412 -0.94997,5.95141 -0.96955,12.47142 -1.76691,18.73272 -0.76198,5.98332 -2.23421,11.73039 -5.90735,16.51926 -8.29751,-5.24052 -12.15027,-15.63542 -15.80888,-27.30599 -7.19017,-22.93585 -8.81228,-51.755 -8.20891,-62.7565 5.45059,-83.40148 32.15798,-142.63487 64.31179,-142.63487 10.06198,0 18.2945,-11.15186 18.2945,-24.78189 0,-26.79297 -4.15409,-28.31079 -46.45017,-16.97203 -15.32856,4.10929 -27.8701,14.56728 -27.8701,23.23995 0,8.67269 -10.92024,28.93206 -24.26716,45.02082 -11.72199,17.62078 -17.19976,27.54353 -20.61135,26.62362 -6.67073,-1.79869 -2.5904,-34.67622 -1.87159,-59.84483 l 5.5736,-42.84939 c 14.60539,-112.28509 30.65015,-170.07367 70.12471,-176.01616 13.34407,-2.0088 30.40522,-13.9877 37.91369,-26.61976 7.50845,-12.63206 28.98028,-39.70737 47.71518,-60.16735 20.74808,-22.65852 58.0621,-54.8146 58.0621,-76.65844 0,-41.22282 29.55472,-29.96121 95.20857,2.38913 24.72737,12.18418 68.828,43.93427 95.75782,89.53836 11.75603,19.90814 39.46334,44.78319 61.57181,55.27793 30.9825,14.70717 43.98375,31.90984 56.7151,75.04303 9.08485,30.77892 27.00401,61.57559 39.82036,68.43702 12.81636,6.86145 24.73083,20.17058 24.73083,30.15335 0,5.97557 18.1954,30.86399 14.50842,33.88687 -8.65262,7.09412 -45.53883,-14.66027 -58.48125,-26.51362 -23.16576,-21.21643 -103.7716,-25.06869 -119.60634,-5.98249 -12.27802,14.79916 -7.86372,25.1564 24.00635,56.32592 21.47792,21.0058 39.20583,50.07655 39.39536,64.60169 0.18952,14.52512 16.91159,48.31232 37.16013,75.0826 20.24856,26.77039 36.81554,53.25597 36.81554,58.85687 0,6.16591 -3.365,9.61701 -8.67537,10.81193 -14.80586,3.33156 -44.73413,-10.87536 -59.01668,-32.68073 -11.54691,-17.62883 -24.04272,-29.00302 -27.76846,-25.27591 -3.72574,3.72692 -22.08273,-1.1428 -40.79331,-10.82175 -18.71059,-9.67894 -36.78651,-14.82982 -40.16872,-11.44647 -7.36855,7.37115 13.79455,69.66664 43.47275,127.96627 25.4986,50.08927 27.44813,76.03509 6.71246,67.2188 -12.49423,-5.31225 -34.43766,-26.25469 -60.99908,-53.63381 -34.95033,-36.02624 -58.18895,-49.56363 -85.08173,-49.56363 -29.44195,0 -58.96654,46.08337 -85.05857,85.52464 -23.54254,39.18451 -53.62425,60.41361 -54.93503,34.72155 3.22608,-18.82667 12.73018,-41.93849 18.20227,-58.74543 7.72641,-25.71948 16.62961,-52.79031 19.22727,-78.82158 z M 561.2635,836.81638 c 0,-18.49645 -50.79527,-45.35728 -85.77312,-45.35728 -21.54643,1.8809 -72.7623,36.62482 -65.85042,55.33941 0.78914,18.57599 20.38979,20.44736 23.73408,12.52415 9.4524,-6.00576 13.41898,-13.60741 26.87496,-23.01913 16.30233,-10.18452 18.84857,-11.69143 36.43085,1.16954 29.73901,21.75304 64.58365,20.80787 64.58365,-0.65669 z M 350.68942,767.83735 c 0,-6.17703 -12.23888,-11.91074 -25.86426,-8.34641 -13.6254,3.56432 -40.04531,24.20133 -33.50022,32.80746 1.5246,2.00472 14.42059,4.75037 28.04599,4.75037 13.62538,0 31.31849,-23.03443 31.31849,-29.21142 z m 111.48041,-58.29197 c 0,-20.87662 -6.07675,-21.34183 -41.07113,-3.14433 -16.3292,8.49138 -28.96486,8.29464 -33.20862,13.73742 -5.52998,7.09243 0.9054,19.5773 8.67491,30.64677 l 17.26769,24.60186 25.25941,-20.11853 c 9.50465,-7.57024 16.04405,-19.53212 19.67248,-29.82534 2.27463,-6.45274 3.40526,-12.24971 3.40526,-15.89785 z m 97.07908,14.0135 c -1.977,-13.38074 -21.93615,-17.50431 -34.34542,-19.89494 -14.65614,-0.76845 -23.85949,2.1134 -28.51167,7.45843 -5.87859,6.75413 -4.49014,17.44134 2.34613,29.6665 11.13528,20.81356 35.39746,27.43244 51.84372,15.48671 8.31767,-6.04154 10.16885,-22.55348 8.66724,-32.7167 z m 88.72158,30.72748 c 0,-6.81502 -8.84657,-9.99352 -15.65927,-9.99352 -3.32403,0 -14.66336,-10.14529 -25.40498,-12.37812 -11.27359,-2.34343 -21.88883,3.29872 -21.88883,6.78855 0,3.85451 10.42186,19.00958 19.75941,26.19902 7.17189,5.522 11.02016,4.37864 25.35271,1.775 6.72146,-1.22101 17.84096,-5.5759 17.84096,-12.39093 z M 308.6262,708.07851 c -2.05485,-2.05556 -14.97052,-4.27413 -24.04619,4.04837 -9.10348,8.348 -16.54516,39.23726 -16.27582,45.7783 0.59439,14.43471 42.79997,-16.19272 46.75415,-26.0774 3.57815,-8.94469 -2.31614,-19.63187 -6.43217,-23.74927 z m 331.32096,-8.74155 c 0,-19.97516 -37.33151,-40.11089 -50.01621,-27.42186 -4.70111,4.70272 2.89624,18.41179 15.42068,31.31325 10.9791,11.30958 20.79537,17.48131 28.0889,17.48131 5.97851,0 6.50663,-10.93628 6.50663,-21.3727 z m -83.17691,-50.40971 c -8.93719,-23.29791 -58.86546,-20.94391 -66.79748,3.14933 -6.13496,18.63488 48.10571,41.98816 63.64545,27.40247 6.01412,-5.6449 7.43254,-19.3932 3.15203,-30.5518 z m -125.13142,11.00203 c 46.77597,-30.65921 37.63858,-45.29609 -22.11254,-35.4213 -62.21373,10.28174 -64.07315,11.51923 -54.56249,36.31199 9.45524,24.64846 38.22046,24.31432 76.67503,-0.89066 z m 154.39809,-79.84726 c 0,-6.4128 -22.29608,-11.65965 -49.54684,-11.65965 -59.27517,0 -66.54874,21.4463 -9.29003,27.39189 45.43633,4.71801 58.83687,1.13489 58.83687,-15.73224 z m -297.28106,0.73129 c 0,-6.81502 -11.14804,-12.39094 -24.77341,-12.39094 -13.62539,0 -24.77344,5.57592 -24.77344,12.39094 0,6.815 11.14805,12.39092 24.77344,12.39092 13.62537,0 24.77341,-5.57592 24.77341,-12.39092 z m 161.02724,0 c 0,-6.81502 -27.87009,-12.39094 -61.93355,-12.39094 -34.06346,0 -61.93354,5.57592 -61.93354,12.39094 0,6.815 27.87008,12.39092 61.93354,12.39092 34.06346,0 61.93355,-5.57592 61.93355,-12.39092 z m 230.68749,-44.03597 c -14.56627,-10.2061 -37.5153,-17.03213 -41.68693,-12.85908 -5.09713,5.09887 18.45461,28.85837 40.16169,40.88234 21.71401,12.02781 41.58523,12.31861 48.14502,8.26307 5.68501,-3.51471 -32.05349,-26.08022 -46.61978,-36.28633 z M 605.87278,482.1457 c 2.44246,-28.81825 -1.17111,-50.02361 -8.52443,-50.02361 -16.14629,0 -110.40511,75.21394 -110.40511,88.09789 0,8.45183 97.80482,21.42318 109.98847,14.58718 2.58577,-1.45082 6.60927,-25.14848 8.94107,-52.66146 z m -317.11692,17.39526 c 0,-20.44597 -19.57653,-23.90029 -30.96679,-5.46419 -10.10143,16.35002 4.70955,39.55272 19.43598,30.44817 6.34193,-3.92087 11.53081,-15.16364 11.53081,-24.98398 z m 148.64052,13.1222 c -13.94442,-18.97975 -88.40394,-45.31761 -96.93642,-41.90314 -8.24649,4.33091 -14.54395,14.78973 -14.54395,29.5122 0,28.45327 4.54179,30.97735 55.74018,30.97735 41.28904,0 55.74019,-4.81871 55.74019,-18.58641 z m 201.10119,-33.65057 c 0.33457,9.88991 6.6517,16.45763 13.98395,18.61295 4.05666,1.08301 8.30928,0.55099 12.18911,-1.0246 7.50465,-3.04762 13.61453,-9.99963 14.21354,-16.72026 -0.8565,-9.82932 -7.54194,-15.7359 -15.24239,-17.59639 -4.4403,-1.07281 -9.2181,-0.8003 -13.41042,0.84121 -6.08864,2.38399 -10.94236,7.65554 -11.73379,15.88709 z m -99.72358,-55.15355 c 34.98527,-31.67204 27.24217,-51.21012 -36.34735,-91.71476 -53.16959,-33.86748 -60.02999,-35.47158 -71.2236,-16.65358 -6.8127,11.4531 -25.32775,36.69046 -41.14455,56.08304 -30.95166,37.94899 -27.15287,60.54835 10.17778,60.54835 12.82125,0 27.10335,6.13767 31.738,13.63926 11.11618,17.9925 77.84844,4.30716 106.79972,-21.90231 z M 431.53862,407.88342 c -9.19142,-14.87713 3.04943,-62.59832 15.98253,-62.30811 4.6504,0.1041 16.81633,5.52154 27.03538,12.0382 14.10304,8.99347 15.38215,16.98073 5.3084,33.14783 -16.68572,26.77856 -37.74953,34.24149 -48.32631,17.12208 z"
     id="path3070"
     inkscape:connector-curvature="0"
     sodipodi:nodetypes="csccscscsssscscsssssssssssssssssssscssssssccccsccccssssssssssscsssscscssssssssscsssccssssssssscssccssssssssssssssssssssssssssssccsscccscsscsssssssscsss" /></g></svg>