<?xml version="1.0" encoding="UTF-8" standalone="no"?>
<svg
   xmlns:dc="http://purl.org/dc/elements/1.1/"
   xmlns:cc="http://creativecommons.org/ns#"
   xmlns:rdf="http://www.w3.org/1999/02/22-rdf-syntax-ns#"
   xmlns:svg="http://www.w3.org/2000/svg"
   xmlns="http://www.w3.org/2000/svg"
   xmlns:sodipodi="http://sodipodi.sourceforge.net/DTD/sodipodi-0.dtd"
   xmlns:inkscape="http://www.inkscape.org/namespaces/inkscape"
   version="1.1"
   id="Layer_1"
   x="0px"
   y="0px"
   width="1000"
   height="1000"
   viewBox="0 0 1000 1000"
   enable-background="new 0 0 512 512"
   xml:space="preserve"
   inkscape:version="0.48.0 r9654"
   sodipodi:docname="uni2FC3-x2fc3.svg"><metadata
   id="metadata72"><rdf:RDF><cc:Work
       rdf:about=""><dc:format>image/svg+xml</dc:format><dc:type
         rdf:resource="http://purl.org/dc/dcmitype/StillImage" /></cc:Work></rdf:RDF></metadata><defs
   id="defs70" /><sodipodi:namedview
   pagecolor="#ffffff"
   bordercolor="#666666"
   borderopacity="1"
   objecttolerance="10"
   gridtolerance="10"
   guidetolerance="10"
   inkscape:pageopacity="0"
   inkscape:pageshadow="2"
   inkscape:window-width="1152"
   inkscape:window-height="814"
   id="namedview68"
   showgrid="false"
   inkscape:zoom="0.35355339"
   inkscape:cx="202.58613"
   inkscape:cy="266.83837"
   inkscape:window-x="-8"
   inkscape:window-y="-8"
   inkscape:window-maximized="1"
   inkscape:current-layer="Layer_1" />
	<g
   id="Grid"
   transform="matrix(1.9559636,0,0,1.952167,0.48404577,0.01535327)">
		<rect
   x="0"
   stroke-miterlimit="10"
   width="512"
   height="512"
   id="rect4"
   y="0"
   style="fill:none;stroke:#a9ccdb;stroke-miterlimit:10" />
		<line
   stroke-miterlimit="10"
   x1="0"
   y1="32"
   x2="512"
   y2="32"
   id="line6"
   style="fill:none;stroke:#a9ccdb;stroke-miterlimit:10" />
		<line
   stroke-miterlimit="10"
   x1="0"
   y1="64"
   x2="512"
   y2="64"
   id="line8"
   style="fill:none;stroke:#a9ccdb;stroke-miterlimit:10" />
		<line
   stroke-miterlimit="10"
   x1="0"
   y1="96"
   x2="512"
   y2="96"
   id="line10"
   style="fill:none;stroke:#a9ccdb;stroke-miterlimit:10" />
		<line
   stroke-miterlimit="10"
   x1="0"
   y1="128"
   x2="512"
   y2="128"
   id="line12"
   style="fill:none;stroke:#a9ccdb;stroke-miterlimit:10" />
		<line
   stroke-miterlimit="10"
   x1="0"
   y1="160"
   x2="512"
   y2="160"
   id="line14"
   style="fill:none;stroke:#a9ccdb;stroke-miterlimit:10" />
		<line
   stroke-miterlimit="10"
   x1="0"
   y1="192"
   x2="512"
   y2="192"
   id="line16"
   style="fill:none;stroke:#a9ccdb;stroke-miterlimit:10" />
		<line
   stroke-miterlimit="10"
   x1="0"
   y1="224"
   x2="512"
   y2="224"
   id="line18"
   style="fill:none;stroke:#a9ccdb;stroke-miterlimit:10" />
		<line
   stroke-miterlimit="10"
   x1="0"
   y1="256"
   x2="512"
   y2="256"
   id="line20"
   style="fill:none;stroke:#a9ccdb;stroke-miterlimit:10" />
		<line
   stroke-miterlimit="10"
   x1="0"
   y1="288"
   x2="512"
   y2="288"
   id="line22"
   style="fill:none;stroke:#a9ccdb;stroke-miterlimit:10" />
		<line
   stroke-miterlimit="10"
   x1="0"
   y1="320"
   x2="512"
   y2="320"
   id="line24"
   style="fill:none;stroke:#a9ccdb;stroke-miterlimit:10" />
		<line
   stroke-miterlimit="10"
   x1="0"
   y1="352"
   x2="512"
   y2="352"
   id="line26"
   style="fill:none;stroke:#a9ccdb;stroke-miterlimit:10" />
		<line
   stroke-miterlimit="10"
   x1="0"
   y1="384"
   x2="512"
   y2="384"
   id="line28"
   style="fill:none;stroke:#a9ccdb;stroke-miterlimit:10" />
		<line
   stroke-miterlimit="10"
   x1="0"
   y1="416"
   x2="512"
   y2="416"
   id="line30"
   style="fill:none;stroke:#a9ccdb;stroke-miterlimit:10" />
		<line
   stroke-miterlimit="10"
   x1="0"
   y1="448"
   x2="512"
   y2="448"
   id="line32"
   style="fill:none;stroke:#ff0000;stroke-miterlimit:10" />
		<line
   stroke-miterlimit="10"
   x1="0"
   y1="480"
   x2="512"
   y2="480"
   id="line34"
   style="fill:none;stroke:#a9ccdb;stroke-miterlimit:10" />
		<line
   stroke-miterlimit="10"
   x1="32"
   y1="0"
   x2="32"
   y2="512"
   id="line36"
   style="fill:none;stroke:#a9ccdb;stroke-miterlimit:10" />
		<line
   stroke-miterlimit="10"
   x1="64"
   y1="0"
   x2="64"
   y2="512"
   id="line38"
   style="fill:none;stroke:#a9ccdb;stroke-miterlimit:10" />
		<line
   stroke-miterlimit="10"
   x1="96"
   y1="0"
   x2="96"
   y2="512"
   id="line40"
   style="fill:none;stroke:#a9ccdb;stroke-miterlimit:10" />
		<line
   stroke-miterlimit="10"
   x1="128"
   y1="0"
   x2="128"
   y2="512"
   id="line42"
   style="fill:none;stroke:#a9ccdb;stroke-miterlimit:10" />
		<line
   stroke-miterlimit="10"
   x1="160"
   y1="0"
   x2="160"
   y2="512"
   id="line44"
   style="fill:none;stroke:#a9ccdb;stroke-miterlimit:10" />
		<line
   stroke-miterlimit="10"
   x1="192"
   y1="0"
   x2="192"
   y2="512"
   id="line46"
   style="fill:none;stroke:#a9ccdb;stroke-miterlimit:10" />
		<line
   stroke-miterlimit="10"
   x1="224"
   y1="0"
   x2="224"
   y2="512"
   id="line48"
   style="fill:none;stroke:#a9ccdb;stroke-miterlimit:10" />
		<line
   stroke-miterlimit="10"
   x1="256"
   y1="0"
   x2="256"
   y2="512"
   id="line50"
   style="fill:none;stroke:#a9ccdb;stroke-miterlimit:10" />
		<line
   stroke-miterlimit="10"
   x1="288"
   y1="0"
   x2="288"
   y2="512"
   id="line52"
   style="fill:none;stroke:#a9ccdb;stroke-miterlimit:10" />
		<line
   stroke-miterlimit="10"
   x1="320"
   y1="0"
   x2="320"
   y2="512"
   id="line54"
   style="fill:none;stroke:#a9ccdb;stroke-miterlimit:10" />
		<line
   stroke-miterlimit="10"
   x1="352"
   y1="0"
   x2="352"
   y2="512"
   id="line56"
   style="fill:none;stroke:#a9ccdb;stroke-miterlimit:10" />
		<line
   stroke-miterlimit="10"
   x1="384"
   y1="0"
   x2="384"
   y2="512"
   id="line58"
   style="fill:none;stroke:#a9ccdb;stroke-miterlimit:10" />
		<line
   stroke-miterlimit="10"
   x1="416"
   y1="0"
   x2="416"
   y2="512"
   id="line60"
   style="fill:none;stroke:#a9ccdb;stroke-miterlimit:10" />
		<line
   stroke-miterlimit="10"
   x1="448"
   y1="0"
   x2="448"
   y2="512"
   id="line62"
   style="fill:none;stroke:#a9ccdb;stroke-miterlimit:10" />
		<line
   stroke-miterlimit="10"
   x1="480"
   y1="0"
   x2="480"
   y2="512"
   id="line64"
   style="fill:none;stroke:#a9ccdb;stroke-miterlimit:10" />
	</g>
	
<g
   id="g3060"
   transform="matrix(1.8386003,0,0,2.1403824,-179.13231,-833.76421)"><g
     id="g3059"
     transform="translate(992.28929,-108.57622)"><path
       style="fill:#534d38"
       d="m -820.49414,549.56415 c 3.44535,-5.28338 9.80646,-10.87204 16.31092,-12.88981 6.49697,-2.36469 13.01016,-4.22255 19.55465,-5.53247 6.07074,-1.21509 12.16843,-1.9587 18.3051,-2.19801 5.44167,-0.34999 10.63745,0.12075 15.61578,1.02853 6.77328,1.23509 13.14404,3.27917 19.1839,5.16592 6.60261,2.04852 14.69054,5.77883 21.13809,8.2471 7.2805,2.97426 6.77284,3.06172 10.58602,1.28503 5.67939,-3.3834 10.47793,-6.20011 15.02801,-8.62446 9.55596,-4.38897 20.10252,-8.50035 30.92657,-11.16495 12.18156,-2.99878 24.7146,-4.16512 36.58264,-1.83244 13.99144,3.62843 24.56254,7.63931 33.43689,14.25924 10.51169,9.32691 18.66835,19.38604 24.87372,30.00949 4.77031,8.16666 8.38748,16.66681 11.03493,25.42418 1.94724,5.36465 2.92291,11.49852 8.40085,14.48668 7.60287,3.22671 16.58477,5.1008 24.04553,7.38314 22.03693,7.27456 52.81513,15.42806 70.76125,28.09019 1.92465,1.44491 1.9399,1.65457 0.23408,3.21821 -3.51792,1.75397 -4.85056,3.23588 -7.96091,5.1456 -22.05595,10.83309 -41.61352,23.1785 -63.01301,31.22432 -3.06053,1.1507 -6.15873,1.54391 -9.3073,2.50172 -1.78584,0.33382 -2.48289,-1.13736 -3.2382,-2.46021 -1.00721,-1.76401 -1.69931,-3.61162 -1.16829,-3.92062 4.15268,-1.93331 8.31952,-3.09714 12.59115,-4.46106 5.39185,-1.35445 9.93485,-4.19473 14.26953,-6.58499 0.81781,-2.24279 -0.82141,-4.74418 3.1294,-4.72369 3.2833,0.0229 4.89237,-0.49287 6.38839,-2.04788 1.66772,-1.7335 3.05233,-2.07856 8.34039,-2.07856 3.77233,-0.47133 11.45839,-4.54892 17.06522,-7.96861 5.00722,-3.05397 8.30168,-5.13413 6.53616,-7.31214 -15.84894,-9.74608 -37.85878,-16.65957 -56.15398,-21.99358 -7.62602,-1.72016 -15.62734,-5.26221 -23.12051,-5.60695 -4.15737,0.56273 -8.29636,0.78434 -9.07422,-1.44654 -1.85322,-5.31503 -5.22314,-13.8993 -8.09182,-20.77485 -6.6239,-15.78941 -13.88206,-31.82989 -26.90165,-43.1787 -9.19067,-7.86867 -20.67774,-13.45265 -34.79283,-16.45023 -10.51552,-2.12425 -21.46505,-1.48765 -35.78619,2.1753 -12.52092,3.2838 -23.87919,8.73504 -32.56656,15.51623 l -5.26198,4.13288 2.15466,6.62762 c 1.18506,3.6452 3.15649,9.17458 4.38095,12.28751 1.40505,3.57206 2.08518,7.31758 1.84377,10.1538 -0.21039,2.47166 -0.0675,4.33184 0.31748,4.13372 0.67574,-0.34772 1.04035,0.79848 3.06435,9.63308 0.51608,2.25267 1.54117,6.34843 2.27797,9.10169 1.02133,3.81648 1.03801,5.54658 0.0702,7.28135 -2.05554,3.68447 -4.03754,6.33923 -6.45397,8.64468 -3.29176,5.28876 -2.70855,2.07173 0.70761,7.45557 0.76147,1.18031 0.8703,2.20554 0.26696,2.51487 0.31598,5.07369 2.82201,8.71457 4.44477,13.88577 3.23615,5.92015 5.15344,9.46099 8.76896,15.5093 1.64436,2.81785 2.1403,4.93822 1.69154,7.23226 -0.72573,3.7099 1.39779,7.88706 4.77079,9.38455 2.73378,1.21371 2.77902,2.80773 0.13302,4.68715 -2.4671,1.75235 -2.32239,8.27326 0.23612,10.64069 1.44341,1.33562 1.39518,1.86422 -0.42807,4.69083 -1.13014,1.75207 -2.10079,2.00798 -2.10079,2.00798 0,0 0.0206,0.10008 -0.73173,0.0225 -0.26909,-0.0277 -1.26119,-0.0932 -2.22388,-0.25448 -0.85525,-0.14331 -1.68658,-0.31422 -1.96455,-0.42537 -0.31495,-0.12593 -0.53401,-0.80834 -0.29303,-1.00823 1.04016,-0.86287 -12.84046,-8.25841 -14.72718,-7.84659 -0.3816,0.0833 -0.65006,-0.34446 -0.59661,-0.95058 0.0534,-0.6061 -0.29518,-2.58816 -0.77476,-4.40457 -0.6317,-2.39252 -0.39171,-4.07299 0.87089,-6.09844 0.95857,-1.53773 1.74287,-3.75824 1.74287,-4.93446 0,-1.17622 0.61716,-2.69036 1.37147,-3.36475 1.11674,-0.99842 1.03171,-1.12743 -0.45779,-0.69459 -1.06072,0.30824 -2.08341,-0.0178 -2.43421,-0.77621 -0.33272,-0.71928 -1.23761,-1.32306 -2.01086,-1.34175 -0.77325,-0.0187 -2.64023,-1.51745 -4.14884,-3.3306 l -2.74294,-3.29662 4.3887,-3.87892 c 2.41379,-2.1334 5.37616,-4.06852 6.58306,-4.30025 2.05506,-0.3946 2.04446,-0.42805 -0.16696,-0.52693 -2.63654,-0.11788 -4.20849,-2.86244 -6.31068,-11.01812 -1.08024,-4.19091 -1.77604,-5.13887 -4.31585,-5.87983 -2.12824,-0.62089 -3.65975,-0.5561 -5.15406,0.21806 -1.16935,0.6058 -3.24367,1.10373 -4.60961,1.10653 -4.8877,0.01 -10.58196,1.86092 -11.27178,3.66392 -1.12316,2.9356 0.42341,5.26315 5.73103,8.62505 2.89761,2.42297 8.40372,6.12462 8.88034,10.0287 -0.21267,0.17642 -1.77612,0.52979 -3.4743,0.78523 -5.58108,0.83955 -10.06075,3.47629 -7.92722,6.4754 0.0306,0.043 0.60334,0.59931 0.61808,0.64861 0.009,0.0288 0.15259,0.11764 0.27601,0.21211 0.0386,0.0295 0.12198,0.0578 0.13969,0.0913 0.0981,0.18579 0.18889,0.36033 0.30738,0.552 0.14299,0.23128 0.32014,0.46682 0.57813,0.70653 1.77367,1.64803 7.05248,4.36664 8.01048,6.04136 0.958,1.67473 2.22939,3.29494 2.82531,3.60047 0.59592,0.30552 2.02032,2.06362 3.16534,3.90688 1.14501,1.84325 3.67612,4.69177 5.62467,6.33003 2.16897,1.82358 2.77086,2.73292 1.55212,2.34495 -1.57639,-0.50181 -1.83772,-0.30294 -1.25559,0.95549 0.7366,1.5924 -0.86293,5.05626 -2.82606,6.11998 -0.64389,0.34887 -0.54654,1.34137 0.25315,2.58091 0.71464,1.10772 1.55699,1.80031 1.87188,1.53908 0.3149,-0.26123 1.75832,0.62524 3.20757,1.96993 1.44926,1.34469 2.37078,1.80956 2.04783,1.03306 -0.49431,-1.18852 0.55065,-1.39416 6.60635,-1.3001 6.55849,0.10189 7.2472,-0.0656 7.80133,-1.89713 0.21327,-0.51093 0.55283,-0.7328 0.94202,-0.80369 1.10793,0.0651 2.1515,0.20835 3.23405,0.23997 0.62244,0.12083 0.93763,0.26895 0.64557,0.63074 0,0.63895 0.74517,1.39894 1.65595,1.68887 0.91076,0.28992 1.52792,0.86643 1.37147,1.28114 -0.43485,1.15235 2.74689,7.48816 3.76034,7.48816 1.52481,0 5.28109,3.56859 5.28109,5.01723 0,0.7571 2.62368,2.76884 5.83038,4.47051 3.20672,1.70168 7.09472,4.46123 8.64001,6.13233 3.88145,4.19747 11.78299,6.31118 26.81876,7.17416 6.7177,0.38556 17.6415,1.39437 24.27513,2.24178 11.64154,1.48716 29.52677,0.41202 48.59107,-1.67897 5.2485,-0.57566 5.23104,3.96478 -0.0217,5.65378 -2.9925,0.96221 -24.6748,4.01667 -34.58834,5.18856 -6.12987,0.72462 -40.56446,0.79163 -41.9493,0.0816 -0.4878,-0.25009 -2.98374,-0.71415 -5.54651,-1.03124 -8.32974,-1.03062 -23.79718,-8.3366 -33.84985,-15.98882 -1.29195,-0.98345 -2.84475,-1.78809 -3.45066,-1.78809 -0.60592,0 -2.26437,-1.01687 -3.68547,-2.25969 -1.42109,-1.24284 -3.18547,-2.26678 -3.92085,-2.27542 -0.73536,-0.009 -1.05547,-0.62441 -0.71134,-1.36833 0.40995,-0.88623 -0.35854,-1.66303 -2.22878,-2.2529 -1.56997,-0.49516 -2.85448,-1.30715 -2.85448,-1.80442 0,-0.49728 -0.73776,-0.66928 -1.63946,-0.38224 -0.90171,0.28704 -1.31444,0.95815 -0.91719,1.49136 0.45294,0.60796 0.0415,0.75274 -1.10348,0.38828 -1.00416,-0.31966 -1.82575,-0.18447 -1.82575,0.30041 0,0.48488 0.52287,0.8816 1.16193,0.8816 0.63907,0 0.88139,0.37656 0.53851,0.83679 -0.34289,0.46024 0.1217,1.45493 1.03242,2.21041 0.91071,0.7555 1.65585,1.81246 1.65585,2.3488 0,0.53635 0.52203,0.87279 1.16006,0.74764 0.63804,-0.12515 2.37977,1.54434 3.8705,3.70997 1.49072,2.16561 2.07959,3.6229 1.30857,3.23841 -1.13208,-0.56456 -1.13532,-0.42598 -0.0168,0.72012 1.12899,1.15688 1.07828,1.63037 -0.27429,2.56159 -0.91261,0.62829 -1.6593,0.78117 -1.6593,0.33969 0,-0.44147 -1.03912,-1.34101 -2.30916,-1.99898 -1.27004,-0.65796 -2.01347,-0.7994 -1.65207,-0.31431 0.36141,0.4851 -0.16462,1.14357 -1.16893,1.46327 -1.00432,0.31971 -2.22825,0.0554 -2.71984,-0.58725 -0.69583,-0.90972 -0.89753,-0.91655 -0.9106,-0.0308 -0.009,0.62574 -0.53967,1.13771 -1.17873,1.13771 -0.63906,0 -0.85679,-0.40958 -0.48384,-0.91017 0.37296,-0.50059 0.15523,-0.91017 -0.48383,-0.91017 -0.63906,0 -1.16949,0.51197 -1.17873,1.13771 -0.0112,0.75847 -0.37133,0.68263 -1.08038,-0.22754 -0.605,-0.77661 -1.07082,-0.90838 -1.08037,-0.30563 -0.01,0.65003 -2.03128,0.21174 -5.22839,-1.13391 -6.92206,-2.91344 -8.9093,-2.81164 -10.31282,0.52829 -0.63085,1.50119 -1.59262,2.50095 -2.13728,2.22171 -0.54467,-0.27925 -0.9903,0.004 -0.9903,0.62895 0,1.18764 -7.02937,-4.32689 -7.26879,-5.70236 -0.0755,-0.43334 -0.19886,-1.40226 -0.27429,-2.15314 -0.0755,-0.75089 -0.87775,-1.36526 -1.78292,-1.36526 -0.90517,0 -1.64576,-0.40957 -1.64576,-0.91017 0,-0.50059 -1.22433,-0.91016 -2.72073,-0.91016 -3.08776,0 -11.54256,-2.60355 -11.54256,-3.55439 0,-0.93062 -3.47373,-4.57206 -6.47511,-6.78771 -1.44924,-1.06985 -3.84482,-2.85001 -5.3235,-3.95593 -2.88253,-2.15586 -4.44499,-9.59036 -1.84137,-8.76154 0.70834,0.22548 1.57332,-0.20707 1.92218,-0.96124 0.43467,-0.93967 0.12749,-1.20988 -0.97605,-0.85859 -1.28503,0.40907 -1.4152,0.0779 -0.64437,-1.63915 1.61955,-3.60764 0.49751,-5.88613 -5.31377,-10.79047 -1.32282,-1.11638 -0.98631,-5.01861 0.60669,-7.03544 0.95546,-1.20968 1.65125,-3.29757 1.54617,-4.63974 -0.4209,-5.37685 -0.25333,-5.60879 3.05873,-4.23381 1.65948,0.68892 5.97961,3.5244 9.60029,6.30106 7.06374,5.41713 9.93834,6.11577 14.22148,3.4564 2.48119,-1.54055 2.50595,-1.68236 0.75498,-4.3233 -0.9957,-1.50178 -2.17624,-2.86581 -2.62343,-3.03119 -0.4472,-0.16537 -0.0632,-0.9228 0.85347,-1.68318 1.32922,-1.10268 1.99348,-1.15742 3.28173,-0.2705 2.47013,1.70061 5.11051,-0.56626 4.7105,-4.04417 -0.0972,-0.84547 0.13326,-1.65239 -0.19174,-2.18836 -0.008,-0.0127 -0.20091,-0.36622 -0.31954,-0.56626 -0.0175,-0.0294 -0.10451,-0.0656 -0.13661,-0.0935 -0.11958,-0.10392 -0.24937,-0.18475 -0.27568,-0.21765 -0.0543,-0.0679 -0.60394,-0.61381 -0.61248,-0.64374 0,0 -2.9174,-2.05291 -5.97241,-3.64529 -5.46953,-2.85091 -8.75298,-5.6058 -8.75298,-7.34397 -0.0968,-0.77644 0.22815,-1.65542 0.73616,-2.49732 0.58139,-0.9635 1.4025,-1.87846 2.10544,-2.53563 1.2254,-1.12324 1.43788,-2.05342 0.71416,-3.12622 -1.66363,-2.46604 -11.47049,-8.48374 -13.02123,-7.9901 -2.24457,0.71452 -2.87281,3.67615 -1.50768,7.1075 -1.82083,7.04203 -4.80013,6.88438 -8.04085,4.47099 -3.69742,-2.7535 -7.73512,-8.44333 -10.78087,-9.727 -2.98065,-0.25364 -3.49939,2.17014 -5.0555,4.64295 -4.01935,9.67797 -6.62118,18.35434 -8.14667,26.83153 -1.55313,8.63078 -1.99055,17.05509 -1.67232,26.11975 0.4943,6.43464 2.60754,24.01564 5.22925,28.38464 5.9302,5.2875 18.15965,26.5879 21.4976,27.13564 0.81663,0 1.48864,0.30718 1.49334,0.68263 0.01,0.78214 5.28688,2.95804 7.17394,2.95804 1.70778,0 5.3532,-2.73783 6.92722,-5.20256 2.38643,-1.46596 4.9409,-2.804 7.56477,-3.98343 6.7775,-2.8604 14.35891,-4.81335 21.67422,-4.93286 5.41122,-0.0884 10.67684,0.82639 15.36377,3.11919 2.8597,1.54267 5.79815,3.27313 8.49656,5.17491 3.61473,2.54758 6.79871,5.4026 8.78563,8.52548 1.35566,2.41748 2.23458,5.06022 1.69218,7.90834 -1.60853,4.35367 -3.11018,7.63924 -6.38495,11.39831 -1.15048,0.98692 -2.79992,2.72753 -5.72484,4.50829 -2.03642,1.23982 -5.38425,2.4416 -6.70719,3.66306 -1.903,1.75702 -1.26662,3.99927 -0.82091,4.63584 0.52853,0.50069 0.77997,1.23709 1.1847,1.555 1.16095,0.91192 2.29388,0.77791 2.32309,0.65139 3.95868,0.7071 15.22365,4.09643 28.68183,5.16371 18.8324,1.49349 44.38194,0.17986 67.85773,-0.59826 23.28866,-0.75994 46.95647,-2.01953 68.66748,-3.07343 28.99782,-0.87289 58.32101,-2.21693 84.94662,-5.61776 3.72977,-0.44804 7.88094,0.11922 10.34091,-2.53498 -1.87383,-1.3669 -8.76442,-7.7871 -11.94817,-9.00133 -4.63245,-1.38857 -5.21171,-1.57578 -8.81215,-3.99335 -4.94383,-3.3196 -6.08374,-3.80188 -10.09183,-7.46943 -0.70963,-0.9149 -9.80131,-0.65576 -9.63006,-1.27434 0.42837,-0.68284 0.86837,-1.06049 1.52149,-1.18092 0.68658,-0.12661 3.49693,-0.92169 4.27875,-0.78853 1.61353,0.6993 0.98052,-3.66512 4.56523,-3.26473 5.83256,0.65148 14.66071,7.06471 17.74636,9.42635 7.04247,5.39002 21.68531,13.595 25.4859,17.85048 -4.27515,4.51263 -21.15628,9.08192 -33.22893,10.57273 -13.15698,1.67579 -26.48446,1.93341 -39.71294,3.01918 -8.81557,0.80506 -25.24194,1.2678 -33.84704,2.72583 -23.99409,1.26121 -51.48679,2.75049 -69.5083,2.59038 -13.56543,-0.90229 -32.28709,1.10958 -48.47277,1.70854 -6.70432,0.692 -13.6604,0.54385 -20.62964,-0.0713 -9.3139,-0.82206 -18.6513,-2.47812 -27.44265,-4.07743 -4.91146,-1.95702 -10.85748,-4.37862 -12.80653,-8.31435 -1.34012,-2.84645 -2.03787,-6.6142 -1.98778,-6.80062 0.0202,-0.0753 -0.40983,-0.0922 -0.73271,-0.24235 -0.3806,-0.17696 -0.66569,-0.48364 -0.66569,-0.48364 0.2433,0.18294 -1.77211,-1.33242 -1.77211,-1.33242 0,0 -0.66305,-0.55698 -1.27182,-1.05894 -0.46751,-0.38547 -0.92014,-0.72244 -0.98164,-0.7819 -0.11403,-0.11026 -0.23679,-0.23475 -0.46964,-0.42351 -0.56217,-0.45571 -1.23592,-1.00217 -1.76875,-1.46008 -0.14725,-0.12654 -0.22838,-0.22853 -0.33843,-0.34664 -0.82313,-0.88343 -2.10366,-1.62004 -3.08675,-2.18308 -0.77569,-0.526 -1.66518,-0.99571 -2.50512,-1.4474 -0.40744,-0.21911 -0.79666,-0.44485 -1.16813,-0.64991 -1.35432,-0.74767 -2.69953,-1.47144 -3.93986,-2.02498 -0.31847,-0.14213 -0.70778,-0.26083 -1.00739,-0.38654 -0.26106,-0.10953 -0.45155,-0.19397 -0.68442,-0.3092 -0.0634,-0.0313 -0.0868,-0.0493 -0.11519,-0.0633 -0.10258,-0.0508 -0.0444,-0.0249 -0.21856,-0.13341 -0.0697,-0.05 -0.16698,-0.0861 -0.27634,-0.11921 -0.10396,-0.0314 -0.21884,-0.0601 -0.33133,-0.0954 -0.0426,-0.0134 -0.0848,-0.0277 -0.12599,-0.0434 -0.11785,-0.0451 -0.19815,-0.10032 -0.2977,-0.15594 -0.14077,-0.0787 -0.29,-0.15815 -0.37858,-0.21114 -0.14012,-0.0838 -0.34672,-0.15932 -0.49796,-0.22573 -0.23468,-0.10306 -0.55168,-0.17894 -0.79273,-0.24088 -0.37736,0.0215 -0.60507,-0.071 -0.70235,-0.0504 -0.0379,0.008 -0.0297,0.0501 -0.045,0.0872 -0.039,0.0948 -0.0653,0.27509 -0.17737,0.64322 0.0342,0.0573 -0.73827,5.30643 -1.18472,6.81376 -0.5201,1.756 -0.46242,3.7703 -0.70221,4.40644 -0.0968,0.25687 -0.3435,0.55462 -0.36591,0.81989 -0.0767,0.90756 -0.0943,1.77726 0.0221,2.51226 0.16574,1.04633 0.50551,1.81966 0.49665,2.04054 -0.0301,0.75103 0.58451,2.50754 1.6197,3.84746 0.66609,0.86217 0.17875,1.91896 0.16255,2.3258 -0.10365,2.60349 0.18295,3.36187 0.0452,5.02653 -0.11772,1.42255 -0.33326,1.65616 -0.37956,3.42995 -0.0816,1.37137 0.16617,1.99731 0.33715,3.43415 0.12882,1.08256 -0.292,0.77421 -0.58711,1.54968 -0.91774,2.41158 -0.2197,5.50848 -0.54622,7.9389 -0.46075,3.42954 -1.89495,6.19565 -3.52158,9.60179 -3.89053,8.31081 -8.10963,16.17063 -10.53504,22.3664 -0.8654,2.07315 -1.98216,5.17754 -2.01264,7.6842 -0.0209,1.71881 0.46895,3.15659 1.90079,3.78815 4.23708,1.74802 12.76385,2.08304 16.41598,2.23821 3.43855,0.14535 6.72356,0.26965 9.47465,2.27477 0.92425,0.90657 0.12651,1.79807 -0.42584,2.50094 0.17514,0.248 -3.80845,0.79708 -7.7589,0.56774 -1.56955,-0.0911 -2.81627,-0.4904 -3.99145,-0.73832 -0.968,-0.34127 -0.56907,-0.0655 0.36648,0.22321 4.02747,0.68898 8.32077,0.71085 12.42412,0.22882 1.10862,-0.0862 2.30742,0.15041 3.29953,0.61734 1.65898,0.95297 1.40911,1.80287 1.10468,2.55207 -0.37472,0.92222 -1.18543,1.66253 -2.903,1.89934 -2.22923,0.31697 -5.0124,0.11095 -7.01901,0.13619 -7.02124,-0.46883 -14.71763,-0.2133 -21.10578,1.1298 -3.93281,0.82688 -6.83279,2.23247 -10.23493,4.87419 -3.42028,3.15723 -4.57581,7.61358 -3.53813,11.73973 2.29085,6.38619 5.82914,10.14991 10.21185,13.1319 3.29072,2.239 5.83547,5.25669 9.82647,6.85432 3.39486,0.58502 6.23374,-0.28446 9.28265,-0.65472 8.07453,-0.6519 7.87915,5.60309 1.43927,8.04026 -6.23862,2.1844 -13.44291,-0.41112 -18.69273,-2.44347 -2.51556,-2.09036 -5.75494,-4.64087 -8.97999,-7.40507 -6.12437,-5.24921 -12.19706,-11.26898 -13.16305,-16.37139 -1.7502,-9.11764 -3.88758,-14.17739 -3.33424,-20.02665 0.30274,-3.20025 1.41093,-6.63683 3.82865,-11.10362 2.48964,-4.04188 5.59382,-8.11603 8.96199,-12.9433 5.30868,-7.6084 10.86609,-16.07456 12.60325,-21.5101 0.38987,-1.62693 1.71093,-6.38854 2.93568,-10.58136 2.61325,-8.94611 2.05903,-20.56094 -1.41167,-29.58463 -1.17435,-3.05327 -2.0585,-7.99597 -2.0585,-11.5077 l 0,-6.15567 -12.34322,-10.33634 c -12.49928,-11.38294 -20.29967,-19.98976 -25.14203,-29.16186 -4.89992,-9.28112 -6.77107,-19.14104 -7.4171,-33.04175 -0.65595,-9.18297 0.49326,-18.24627 2.35851,-27.07184 2.19344,-10.37844 5.37704,-20.42812 7.77967,-29.95703 1.13022,-4.19098 2.98285,-8.73516 5.9645,-12.58682 -0.72788,-2.84093 -1.49004,-5.61285 -2.31508,-8.46506 -0.97638,-3.37544 -2.04082,-6.86333 -3.24074,-10.71117 -1.14308,-3.56418 -3.14729,-6.95481 -3.30604,-10.25044 -0.98044,-5.1462 3.34003,-6.56303 8.58416,-6.18654 1.36508,0.0539 2.63008,0.31846 3.81358,0.68778 0.57708,0.24017 1.0931,0.54473 1.599,0.8672 4.58,2.90566 16.6551,10.3919 18.88101,10.78726 5.86293,-0.26819 10.12688,1.07755 19.51371,-0.76231 6.79167,-1.33119 18.82912,-5.39352 23.82067,-7.85054 4.6866,-2.30692 6.08739,-6.29721 7.50411,-9.23398 1.49919,-3.50897 -0.98298,-9.44335 -1.28592,-13.13219 -0.39589,-4.82073 -3.46409,-9.86149 -5.64791,-13.49321 -1.02712,-1.30039 -2.86093,-2.36435 -4.07515,-2.36435 -4.22677,-3.81509 -9.37094,-7.27137 -14.41523,-9.87914 -5.91735,-3.05911 -11.84034,-5.06927 -18.11613,-6.89022 -6.47482,-2.00972 -12.96843,-4.09595 -19.59447,-4.76222 -7.1948,-0.72346 -14.52168,0.0874 -21.51267,0.78611 -6.66797,0.72087 -13.2096,2.95254 -18.9652,5.53714 -5.11623,2.36785 -9.20341,5.25556 -7.36906,9.17214 3.71841,4.7813 7.76359,7.72513 13.86012,11.14341 7.63452,6.5088 12.31712,11.50229 19.62304,21.13374 0.32443,1.89182 -2.89942,3.01259 -4.39823,4.65173 -1.80429,1.97321 -2.13411,4.27231 -4.32086,3.94921 -2.57563,-0.38055 -3.89141,-5.85991 -4.82125,-6.17024 -5.84193,-8.1631 -11.41827,-13.55365 -18.26453,-18.67282 -4.11415,-3.07629 -9.65922,-5.7521 -13.26404,-9.72259 -2.59025,-2.78737 -5.37732,-4.71734 -5.63788,-8.26377 0.0448,-1.30915 0.23893,-2.55325 0.56235,-3.57493 z m 62.44952,73.37453 c 0.93912,3.04092 1.52293,6.86257 1.29736,8.49257 -0.56872,4.10973 1.67519,5.90442 5.34515,4.27509 2.11526,-0.9391 3.72941,-0.98719 7.21692,-0.21498 4.35834,0.96503 4.61295,0.89555 8.54129,-2.33082 1.42794,-1.17277 2.63444,-2.46726 3.21273,-3.3836 0.28915,-0.32752 0.59457,-0.70679 0.91264,-1.03577 0.30573,-0.48248 0.76858,-0.51747 1.18287,-0.67999 4.10274,-0.95879 34.66536,-12.25796 34.66536,-12.66163 0,-0.42468 15.06217,-12.32545 6.28411,-12.49775 -3.83079,0.98262 -6.44557,3.30202 -9.1481,4.25246 -10.37636,3.64921 -14.65242,5.5192 -24.63613,6.72992 -13.83604,2.13954 -14.61339,3.43079 -22.79711,-0.27548 -6.41245,-2.9041 -14.03096,-7.20101 -18.60032,-5.76651 -2.0431,1.49222 4.43261,8.32688 6.52323,15.09649 z m 35.25276,173.83196 c 0.49077,0.29943 0.9417,1.05638 1.00205,1.68212 0.23372,2.42354 -0.46284,13.96941 0.35784,13.86134 0.12861,-0.0191 -0.19518,-0.24993 -0.28569,-0.74498 -0.0961,-0.52583 -0.0608,-1.3498 -0.13669,-2.5349 -0.23839,-3.7222 -0.21768,-9.61835 0.15725,-9.9837 0.16056,-0.15646 -0.0815,-0.30163 -0.12273,-0.50825 -0.234,-1.17143 -2.90246,-3.08924 -2.63587,-4.54896 0.30245,-1.65605 0.0152,-1.69811 0.37646,-3.55836 0.0286,-0.14708 0.25024,-0.54077 0.28495,-0.70909 0.30416,-1.47464 1.28118,-3.63786 1.19014,-5.09812 0.52801,-2.4757 -0.0622,-5.31223 1.54884,-7.3721 0.0186,-0.015 0.004,-0.0473 0.0153,-0.0795 0.0143,-0.0512 0.0145,-0.0705 -0.0163,0.0792 -0.10147,0.13117 -0.0794,0.39168 -0.15704,0.56614 -1.02981,2.31538 -1.22199,8.85577 -2.30959,11.07575 -1.10817,2.262 -0.66672,7.02237 0.73025,7.87465 z m 4.59347,-18.74915 c 0.0202,0.0136 0.18081,0.019 0.34077,0.0942 0.0493,0.0232 0.15829,0.0267 0.26639,0.1026 0.0709,0.0498 0.14464,0.0968 0.22119,0.14167 0.0391,0.0229 0.079,0.0453 0.11957,0.0673 0.21114,0.11408 0.44191,0.21567 0.69139,0.31748 0.31026,0.12662 0.64945,0.2536 1.01574,0.40538 0.53912,0.2234 1.15672,0.56612 1.75953,0.81584 0.11533,0.0478 0.2142,0.14724 0.33103,0.21055 0.54362,0.2946 1.24201,0.65927 1.83461,0.98518 0.35128,0.19319 0.75174,0.41215 1.15495,0.63099 0.32109,0.17427 0.64393,0.34846 0.94507,0.50951 0.22909,0.12252 0.39895,0.22481 0.5913,0.32898 0.3471,0.22022 0.71499,0.43138 0.99147,0.62112 0.71047,0.40017 1.83082,1.08028 3.08053,2.16876 0.13534,0.11787 0.18102,0.23863 0.32417,0.36153 0.54017,0.46378 1.18168,0.95817 1.75838,1.44378 0.17008,0.14321 0.33452,0.28566 0.48906,0.42633 0.314,0.28582 0.66571,0.52412 0.98968,0.78821 0.44463,0.36244 0.8597,0.74204 1.26037,1.0734 0.59697,0.49371 1.25645,1.00048 1.76862,1.31899 0.59855,0.37223 0.95324,0.76482 1.37301,0.76482 -0.95066,-2.99212 -0.14299,-3.45451 2.41484,-5.70598 1.75804,-0.73424 3.31048,-1.84183 4.80922,-2.95846 2.21399,-1.64952 4.31081,-3.31875 6.78015,-3.83331 3.55949,-0.64854 7.61779,-4.33332 7.61779,-6.91665 0,-2.46887 -4.69209,-4.66216 -8.81937,-4.12256 -2.50568,-0.94072 -2.48538,-2.79264 -4.36262,-4.49795 -3.60821,-3.24032 -8.13972,-6.22706 -12.18817,-6.5397 -7.03558,0.0206 -15.22093,2.91255 -18.94159,6.67472 -2.12582,3.91234 -2.91069,8.96328 -1.54855,13.01683 0.0376,0.10326 0.0842,0.2798 0.13199,0.37258 0,0 0.42763,0.061 0.45626,0.0557 0.0265,-0.005 0.23859,-0.002 0.24202,-0.007 0.17064,0.0363 0.34611,0.0877 0.52127,0.14823 0.19719,0.0682 0.39398,0.14807 0.58305,0.23117 0.23231,0.10211 0.40928,0.20392 0.56997,0.29603 0.10571,0.0606 0.20437,0.11698 0.30711,0.1665 z m 8.91638,-88.13664 c 0,1.80261 4.39727,2.4361 5.17902,0.74611 1.40967,-3.04738 -4.36875,-6.45388 -6.38386,-3.7634 -0.52482,0.70072 -0.46355,1.35743 0.14283,1.53065 0.5841,0.16687 1.06201,0.83585 1.06201,1.48664 z m 7.13165,29.3074 c 0.60344,0 1.09717,-0.88741 1.09717,-1.97203 0,-1.08462 -0.49373,-1.97204 -1.09717,-1.97204 -0.60345,0 -1.09718,0.88742 -1.09718,1.97204 0,1.08462 0.49373,1.97203 1.09718,1.97203 z m 19.42589,77.66771 c 1.78167,0 0.2983,0.44257 -0.89928,0.0105 -0.8834,-0.31874 -1.26758,-0.97722 -2.25899,-1.72151 -2.09843,-1.57536 -0.28851,-4.46118 -0.831,-4.01322 -0.10205,0.0843 0.87898,-1.0983 0.58571,-0.85502 -1.38212,1.14654 -0.91188,3.35988 0.17504,4.80367 0.73519,0.97657 2.18801,1.77558 3.22852,1.77558 z m -60.43284,-231.2437 c 4.65569,-2.06695 13.02896,3.59251 13.02896,8.80624 0,4.01125 -2.10786,7.63769 -4.4394,7.63769 -3.01215,0 -7.92444,-2.46386 -9.44591,-4.73778 -0.59273,-1.47435 -1.23008,-3.58315 -1.43452,-5.63046 -0.25951,-2.59881 0.17854,-5.09854 2.29087,-6.07569 z m 118.91401,211.75483 c -1.47423,0.62694 -3.37556,0.43415 -5.03997,-0.16246 -1.42803,-0.62407 -2.69582,-1.67792 -3.68454,-2.92201 -2.08946,-2.5649 -1.8114,-5.10844 -0.11134,-6.54638 2.30326,-1.94813 6.99184,-2.05336 9.83829,0.82423 2.53626,3.00972 2.39069,7.84783 -1.00244,8.80662 z m -7.67406,-125.07066 c 1.79913,-8.10021 5.04252,-15.94132 10.31523,-21.7657 3.10551,-3.01558 6.81217,-5.56615 10.78533,-7.74176 5.38348,-2.94787 11.25623,-5.20734 16.7857,-7.00242 7.85414,-2.51971 16.1105,-4.12204 24.56836,-4.88882 2.62093,0.12217 6.36811,0.26744 7.81321,1.60564 1.96965,1.82396 0.96803,5.05189 -0.93463,5.95691 -2.90259,1.35791 -6.99998,1.50593 -10.4234,2.10596 -3.52496,0.61783 -6.38119,1.67688 -9.71199,2.35061 -4.00414,1.4106 -8.19333,2.61739 -12.17201,3.99948 -3.43035,1.19161 -6.70421,2.51354 -9.56806,4.20876 -3.12341,1.86915 -5.93112,4.09472 -8.91093,6.41095 -5.16031,4.8484 -7.22,9.93989 -7.69634,14.54867 -0.20896,2.02181 -1.07382,8.68816 1.14773,14.49466 1.86842,4.88353 6.5881,8.88176 9.10339,11.74041 3.27807,3.60944 9.54221,7.3428 17.14814,8.48751 7.51465,1.77744 26.97548,1.12499 34.01366,0.0739 9.32185,-1.42486 19.42142,-6.72985 20.77237,-4.63582 1.5814,1.89629 3.84547,5.09165 2.09028,5.87593 -4.67956,2.09099 -9.76929,3.73551 -14.81626,4.98811 -11.14116,2.54338 -23.41941,3.29111 -34.19788,3.3145 -10.8603,-0.97116 -18.88192,-2.93014 -25.49141,-6.60596 -5.73772,-3.191 -10.41124,-7.67581 -14.95383,-13.93139 -2.87061,-4.01679 -4.89881,-8.33556 -5.69193,-13.10501 -0.55806,-3.52927 -0.23405,-6.80391 0.0253,-10.48512 z m -5.95768,127.59827 c 2.302,-2.75048 -0.27062,-12.23269 -0.66232,-13.10268 -2.3917,-1.6499 -2.66495,-1.04765 -5.20535,-1.4223 -3.17665,-0.46848 -18.42598,-10.04301 -20.22664,-8.09984 -2.0476,2.38341 3.67966,12.87041 3.64752,15.30937 -0.0226,1.71781 -4.68881,5.27227 -2.30019,7.60443 2.07486,2.02581 8.49056,0.37188 9.5664,1.21834 2.46279,1.93769 6.82741,1.40876 10.09319,0.79318 2.30978,-0.43538 3.33024,-0.52381 5.08739,-2.3005 z m 41.85315,5.45111 c 1.22412,-2.2145 8.36983,-5.2099 11.29207,-4.73351 1.06502,0.17362 2.47494,1.02511 3.13319,1.89221 0.98454,1.29693 0.53868,2.03232 -2.51391,4.14638 -6.26704,4.34019 -14.53136,3.4347 -11.91135,-1.30508 z m 23.66254,-134.6304 c 1.62212,1.28406 2.44895,2.8097 2.55227,4.35756 0.0988,1.48031 -0.46412,2.98092 -1.626,4.30997 -0.81435,0.90232 -1.90604,1.59192 -3.29112,1.91938 -2.13183,0.47984 -4.51621,0.005 -6.23427,-1.20132 -1.49898,-1.08828 -2.45562,-2.69061 -2.74974,-4.53598 -0.0614,-1.6327 0.52251,-3.01315 1.55291,-4.06542 1.39812,-1.20981 3.08943,-1.88547 4.80714,-2.02073 1.7266,-0.13595 3.47986,0.27411 4.98881,1.23654 z m 23.83669,-31.88777 c 2.40964,-0.93982 8.39452,0.17238 8.39452,0.17238 2.15148,11.59155 4.57212,21.75383 6.79206,32.12982 0.58858,4.41548 5.68044,23.6526 3.84874,23.27946 -2.21934,1.55282 -4.22124,1.99772 -7.43783,1.68371 -1.81625,-8.84656 -4.10493,-17.98806 -5.83439,-26.41391 -2.243,-10.96624 -4.09372,-21.8494 -5.7631,-30.85145 z m 22.23663,96.77766 c -0.28355,2.37106 -2.29408,4.58319 -5.72371,4.94915 -4.5131,0.13831 -6.71985,-1.81332 -7.12033,-4.13744 0.0212,-4.75716 3.33544,-6.73953 6.59414,-6.6625 3.30738,0.0782 6.5576,2.27774 6.2499,5.85079 z m -9.14556,25.92444 c -1.45731,-1.0643 -1.53896,-2.42588 -1.05411,-3.53602 0.38247,-0.88636 1.29125,-1.53095 2.29857,-1.88718 1.02826,-0.29434 2.0578,-0.22915 2.95106,0.0686 1.3518,0.4506 2.3915,1.43381 2.64235,2.50961 0.22599,1.15413 -0.57573,2.89464 -1.73105,3.47474 -1.5968,0.74685 -4.22007,0.30484 -5.10682,-0.62975 z m 76.9507,-20.69257 c 3.07027,-0.74006 6.58322,-1.34557 7.80656,-1.34557 1.22334,0 3.51891,-0.8448 5.10127,-1.87733 2.0449,-1.33437 7.59085,-2.83868 11.6949,-2.87418 2.15612,-0.11202 3.87908,0.004 5.31119,0.30677 2.97891,0.63044 4.69938,2.07166 6.44215,3.9606 1.98517,2.82583 1.98252,7.41222 0.63654,11.65057 -7.72428,10.03293 -18.25479,18.64515 -28.2887,26.57579 -3.94094,3.11485 -6.66383,5.65111 -10.25144,8.60045 -1.93975,1.03111 -4.59278,1.40521 -5.22514,0.80333 -0.42136,-0.40104 -2.14843,-2.14464 -1.51368,-3.69684 4.09258,-2.98092 8.12483,-6.14259 12.04635,-9.40975 8.99159,-7.49124 17.40107,-15.53716 24.62105,-23.23084 1.65956,-3.13527 -1.21257,-6.56184 -5.32939,-7.09555 -2.40555,-0.27643 -5.11992,0.79823 -8.52436,1.22618 -10.11689,1.89754 -19.61903,4.39469 -28.93408,6.13304 -9.65612,1.80201 -19.09703,2.84748 -27.99481,4.95933 -7.28117,1.84486 -15.85542,3.08395 -22.91749,4.50465 -1.98741,-0.47899 -3.32019,-1.54583 -3.73971,-2.47144 -0.65101,-1.43635 0.51837,-2.84686 1.92577,-3.62139 6.99595,-1.2091 14.26146,-2.56025 20.71641,-3.76074 16.80352,-3.03572 30.20331,-5.39862 46.41661,-9.33708 z m 40.24778,23.38868 c 4.25381,1.67855 0.27026,6.80299 -1.39307,8.07495 -3.31992,2.12825 -5.96908,1.50834 -8.7996,-0.0302 -3.33696,-4.29598 -2.99564,-7.13874 -0.69032,-8.48193 2.26946,-1.32229 6.44228,-1.1913 10.88299,0.43718 z"
       id="path3061"
       inkscape:connector-curvature="0"
       sodipodi:nodetypes="scscsccccsccsccccccscsccccscscccsccccccssscssscccccssssscssscccsssssccscscsssssscccssssssscsssscscsssccccscssssssssscsssscssssscssscssscccssssccscssscssssccsssssscssssssssssccsssssssscscsscsccsccccsccscscccsscscscccccsccscssccccccsccssscssssscscsssscsssssscsscsssssssscsssccsccccsccccsccsccsccccscscscsssccscsccsccccccsscsccscscccccsscscccsssssscccscscscssscsssssssccccscsscsssssssssssccsssssssccscsccccccscssscccsscccsccccscsccccccsccccccscsccscscsccssccccsccsccccsscsscsssscscscscccccscsccccccscccccccccssccccccscscccsccscccssccccccccc" /></g></g></svg>