<?xml version="1.0" encoding="UTF-8" standalone="no"?>
<svg
   xmlns:dc="http://purl.org/dc/elements/1.1/"
   xmlns:cc="http://creativecommons.org/ns#"
   xmlns:rdf="http://www.w3.org/1999/02/22-rdf-syntax-ns#"
   xmlns:svg="http://www.w3.org/2000/svg"
   xmlns="http://www.w3.org/2000/svg"
   xmlns:sodipodi="http://sodipodi.sourceforge.net/DTD/sodipodi-0.dtd"
   xmlns:inkscape="http://www.inkscape.org/namespaces/inkscape"
   version="1.1"
   id="Layer_1"
   x="0px"
   y="0px"
   width="1024"
   height="1024"
   viewBox="0 0 1024 1024"
   enable-background="new 0 0 512 512"
   xml:space="preserve"
   inkscape:version="0.48.0 r9654"
   sodipodi:docname="uni2F97-x2f97.svg"><metadata
   id="metadata72"><rdf:RDF><cc:Work
       rdf:about=""><dc:format>image/svg+xml</dc:format><dc:type
         rdf:resource="http://purl.org/dc/dcmitype/StillImage" /></cc:Work></rdf:RDF></metadata><defs
   id="defs70" /><sodipodi:namedview
   pagecolor="#ffffff"
   bordercolor="#666666"
   borderopacity="1"
   objecttolerance="10"
   gridtolerance="10"
   guidetolerance="10"
   inkscape:pageopacity="0"
   inkscape:pageshadow="2"
   inkscape:window-width="1152"
   inkscape:window-height="814"
   id="namedview68"
   showgrid="false"
   inkscape:zoom="0.25488281"
   inkscape:cx="-319.25775"
   inkscape:cy="650.17266"
   inkscape:window-x="-8"
   inkscape:window-y="-8"
   inkscape:window-maximized="1"
   inkscape:current-layer="Layer_1" />
	<g
   id="Grid"
   transform="matrix(2.0058658,0,0,2.0058658,0.50293289,-3.5061896)">
		<rect
   x="0"
   stroke-miterlimit="10"
   width="512"
   height="512"
   id="rect4"
   y="0"
   style="fill:none;stroke:#a9ccdb;stroke-miterlimit:10" />
		<line
   stroke-miterlimit="10"
   x1="0"
   y1="32"
   x2="512"
   y2="32"
   id="line6"
   style="fill:none;stroke:#a9ccdb;stroke-miterlimit:10" />
		<line
   stroke-miterlimit="10"
   x1="0"
   y1="64"
   x2="512"
   y2="64"
   id="line8"
   style="fill:none;stroke:#a9ccdb;stroke-miterlimit:10" />
		<line
   stroke-miterlimit="10"
   x1="0"
   y1="96"
   x2="512"
   y2="96"
   id="line10"
   style="fill:none;stroke:#a9ccdb;stroke-miterlimit:10" />
		<line
   stroke-miterlimit="10"
   x1="0"
   y1="128"
   x2="512"
   y2="128"
   id="line12"
   style="fill:none;stroke:#a9ccdb;stroke-miterlimit:10" />
		<line
   stroke-miterlimit="10"
   x1="0"
   y1="160"
   x2="512"
   y2="160"
   id="line14"
   style="fill:none;stroke:#a9ccdb;stroke-miterlimit:10" />
		<line
   stroke-miterlimit="10"
   x1="0"
   y1="192"
   x2="512"
   y2="192"
   id="line16"
   style="fill:none;stroke:#a9ccdb;stroke-miterlimit:10" />
		<line
   stroke-miterlimit="10"
   x1="0"
   y1="224"
   x2="512"
   y2="224"
   id="line18"
   style="fill:none;stroke:#a9ccdb;stroke-miterlimit:10" />
		<line
   stroke-miterlimit="10"
   x1="0"
   y1="256"
   x2="512"
   y2="256"
   id="line20"
   style="fill:none;stroke:#a9ccdb;stroke-miterlimit:10" />
		<line
   stroke-miterlimit="10"
   x1="0"
   y1="288"
   x2="512"
   y2="288"
   id="line22"
   style="fill:none;stroke:#a9ccdb;stroke-miterlimit:10" />
		<line
   stroke-miterlimit="10"
   x1="0"
   y1="320"
   x2="512"
   y2="320"
   id="line24"
   style="fill:none;stroke:#a9ccdb;stroke-miterlimit:10" />
		<line
   stroke-miterlimit="10"
   x1="0"
   y1="352"
   x2="512"
   y2="352"
   id="line26"
   style="fill:none;stroke:#a9ccdb;stroke-miterlimit:10" />
		<line
   stroke-miterlimit="10"
   x1="0"
   y1="384"
   x2="512"
   y2="384"
   id="line28"
   style="fill:none;stroke:#a9ccdb;stroke-miterlimit:10" />
		<line
   stroke-miterlimit="10"
   x1="0"
   y1="416"
   x2="512"
   y2="416"
   id="line30"
   style="fill:none;stroke:#a9ccdb;stroke-miterlimit:10" />
		<line
   stroke-miterlimit="10"
   x1="0"
   y1="448"
   x2="512"
   y2="448"
   id="line32"
   style="fill:none;stroke:#ff0000;stroke-miterlimit:10" />
		<line
   stroke-miterlimit="10"
   x1="0"
   y1="480"
   x2="512"
   y2="480"
   id="line34"
   style="fill:none;stroke:#a9ccdb;stroke-miterlimit:10" />
		<line
   stroke-miterlimit="10"
   x1="32"
   y1="0"
   x2="32"
   y2="512"
   id="line36"
   style="fill:none;stroke:#a9ccdb;stroke-miterlimit:10" />
		<line
   stroke-miterlimit="10"
   x1="64"
   y1="0"
   x2="64"
   y2="512"
   id="line38"
   style="fill:none;stroke:#a9ccdb;stroke-miterlimit:10" />
		<line
   stroke-miterlimit="10"
   x1="96"
   y1="0"
   x2="96"
   y2="512"
   id="line40"
   style="fill:none;stroke:#a9ccdb;stroke-miterlimit:10" />
		<line
   stroke-miterlimit="10"
   x1="128"
   y1="0"
   x2="128"
   y2="512"
   id="line42"
   style="fill:none;stroke:#a9ccdb;stroke-miterlimit:10" />
		<line
   stroke-miterlimit="10"
   x1="160"
   y1="0"
   x2="160"
   y2="512"
   id="line44"
   style="fill:none;stroke:#a9ccdb;stroke-miterlimit:10" />
		<line
   stroke-miterlimit="10"
   x1="192"
   y1="0"
   x2="192"
   y2="512"
   id="line46"
   style="fill:none;stroke:#a9ccdb;stroke-miterlimit:10" />
		<line
   stroke-miterlimit="10"
   x1="224"
   y1="0"
   x2="224"
   y2="512"
   id="line48"
   style="fill:none;stroke:#a9ccdb;stroke-miterlimit:10" />
		<line
   stroke-miterlimit="10"
   x1="256"
   y1="0"
   x2="256"
   y2="512"
   id="line50"
   style="fill:none;stroke:#a9ccdb;stroke-miterlimit:10" />
		<line
   stroke-miterlimit="10"
   x1="288"
   y1="0"
   x2="288"
   y2="512"
   id="line52"
   style="fill:none;stroke:#a9ccdb;stroke-miterlimit:10" />
		<line
   stroke-miterlimit="10"
   x1="320"
   y1="0"
   x2="320"
   y2="512"
   id="line54"
   style="fill:none;stroke:#a9ccdb;stroke-miterlimit:10" />
		<line
   stroke-miterlimit="10"
   x1="352"
   y1="0"
   x2="352"
   y2="512"
   id="line56"
   style="fill:none;stroke:#a9ccdb;stroke-miterlimit:10" />
		<line
   stroke-miterlimit="10"
   x1="384"
   y1="0"
   x2="384"
   y2="512"
   id="line58"
   style="fill:none;stroke:#a9ccdb;stroke-miterlimit:10" />
		<line
   stroke-miterlimit="10"
   x1="416"
   y1="0"
   x2="416"
   y2="512"
   id="line60"
   style="fill:none;stroke:#a9ccdb;stroke-miterlimit:10" />
		<line
   stroke-miterlimit="10"
   x1="448"
   y1="0"
   x2="448"
   y2="512"
   id="line62"
   style="fill:none;stroke:#a9ccdb;stroke-miterlimit:10" />
		<line
   stroke-miterlimit="10"
   x1="480"
   y1="0"
   x2="480"
   y2="512"
   id="line64"
   style="fill:none;stroke:#a9ccdb;stroke-miterlimit:10" />
	</g>
	
<path
   style="fill:#a1bc67"
   d="m 509.31446,161.91345 c -2.26273,15.74409 -19.06596,30.15454 -17.88043,42.36753 0.47217,5.25056 -42.68763,-14.06458 -70.655,-5.9343 -6.27675,1.32336 -17.68348,8.0037 -32.36323,17.09384 -14.43446,8.93828 -14.87606,20.28753 7.00323,21.70701 14.19708,1.76699 19.58666,-0.21397 22.7619,-3.25491 4.84669,-4.64163 4.53439,-11.75277 22.50997,-11.77417 12.33621,-0.62478 32.42862,2.67984 32.06085,3.67032 -17.334,13.30862 -12.11988,8.0383 -19.84228,16.82443 -26.32121,30.1808 -44.41089,51.41085 -45.86069,46.37082 -4.98377,-11.67234 -52.89813,-30.08076 -57.42482,-39.05562 -10.75463,-21.32269 -4.82282,-20.01761 -19.22314,-20.84685 -50.59623,-2.91366 -53.37625,17.0231 -36.09729,50.61229 16.12057,19.92898 100.87645,68.06853 100.46075,73.98791 -2.32164,22.64846 -37.67097,57.08991 -52.04692,61.62548 -44.64201,0.65801 -95.7849,9.12638 -128.6277,21.94749 -15.52052,6.0589 -26.62926,14.31234 -39.37057,21.95045 -25.94626,14.29795 -44.08624,26.36786 -66.4036,54.68186 -42.036296,53.33146 -45.555843,138.57948 -23.298746,178.90551 21.528386,39.00573 54.671226,24.85013 42.323056,-18.07645 -7.02392,-24.41719 -12.08183,-87.76541 31.59651,-134.67916 37.87657,-28.75391 120.58543,-94.18275 181.13498,-73.75115 25.06082,10.44217 1.49724,22.00504 8.56451,44.75885 9.82909,20.5626 26.92811,45.18259 35.1501,63.51689 3.48073,11.23899 21.54188,31.13771 19.988,38.92221 -5.8933,11.06768 -31.60536,10.13948 -32.3407,25.05273 -0.72176,14.63856 7.74045,47.35815 2.23094,57.88301 -12.06612,23.05017 -18.30499,47.40614 -20.71318,72.17484 -1.13327,25.35608 -0.76759,26.52052 1.25025,63.56625 1.21905,22.38073 1.11822,54.14683 11.60814,66.8785 6.31649,6.74058 12.97223,11.00914 18.68138,11.03968 18.16796,0.0972 31.22605,-29.29512 30.32666,-47.32002 -0.69727,-10.82964 -0.51259,-21.29306 -1.40238,-31.57918 -0.9298,-10.74849 -3.03285,-21.30337 -8.54145,-31.88019 -4.25546,-8.17072 -15.17251,-73.50572 16.49893,-91.93757 5.319,-3.09552 40.29204,20.49783 66.11099,36.8378 15.07482,9.54037 15.39568,3.0296 16.50488,0.86878 5.02441,-9.78819 -3.4308,-17.75551 -13.32475,-27.60163 -23.68293,-23.56842 -70.89343,-46.43346 -71.59304,-47.97569 -3.39384,-7.95456 11.97843,-19.78261 25.5213,-30.59143 5.51156,-4.37602 23.13715,-21.54895 24.13594,-26.11986 -0.29928,-23.71522 -27.24229,-22.50273 -32.10089,-38.79369 -4.67266,-13.64901 -26.15397,-45.57217 -33.44009,-65.62066 -5.87344,-16.16139 -3.3632,-19.72488 2.87933,-27.56769 17.36689,5.88821 30.06337,10.66903 43.8635,18.37187 26.76067,14.93705 51.02029,28.0906 63.14175,51.02298 19.37282,30.37603 27.36982,60.01677 26.85833,88.73171 -0.48471,17.55225 -6.35208,41.64384 -6.0985,62.29561 0.19208,15.64267 3.89592,29.31181 16.11065,36.67078 12.54082,5.39289 22.02767,4.65613 29.16923,-0.009 9.64828,-6.30262 15.01673,-19.77475 17.85398,-34.98771 4.57195,-24.51415 2.57138,-53.54856 1.31491,-64.38875 -3.96002,-19.5408 -8.71761,-61.74343 -19.19107,-77.10389 -10.26627,-16.86326 -22.11958,-37.40458 -32.97574,-52.62471 -8.23971,-11.55192 -19.07136,-21.03525 -30.99566,-29.4789 -21.36131,-15.00612 -44.71881,-22.6735 -68.92153,-32.89226 -7.78852,-3.28843 -18.74202,-6.40145 -25.72743,-10.68216 -17.00577,-11.04279 18.65782,-48.32653 33.08484,-52.26362 15.59169,2.51305 19.75354,10.29639 32.52995,17.80181 23.16697,12.21682 35.65878,35.88625 57.2142,46.6522 6.92039,-1.38522 20.84509,-2.18074 34.77848,-3.21221 17.45112,-1.29188 58.14123,5.8294 63.93331,1.34598 8.11094,-7.77325 -31.61713,-31.79166 -75.32951,-59.26607 -14.97218,-9.41042 -85.49016,-51.54888 -85.38965,-56.13562 28.31381,-30.6593 32.26037,-56.14985 56.02422,-84.00658 2.67081,-3.07752 44.39028,21.74112 47.43385,18.2758 2.74736,-3.12805 19.24557,-5.69548 7.28785,-11.99184 -12.14692,-6.39605 -39.8657,-19.45685 -42.05436,-25.94023 19.44164,-16.25749 16.99196,-14.25201 28.99346,-38.50234 1.58966,-16.90779 -27.54167,-47.24617 -33.40677,-62.62952 -6.04325,-15.85066 1.48495,-24.5045 -3.23879,-32.10699 -3.24194,-5.21765 -26.5857,-20.73459 -37.60835,-25.45989 -14.36238,-6.47607 -52.02448,-14.4295 -47.05208,15.24966 2.44692,13.49647 21.41133,22.56182 29.03787,32.77062 5.01943,10.48802 23.26854,38.51776 22.60736,45.60938 z"
   id="hand"
   inkscape:connector-curvature="0"
   sodipodi:nodetypes="cccscsccccsscccscssscccccsscscscssssssccccscsccscssccscsccccscsccssccssccccc" />
	 
	 
</svg>