<?xml version="1.0" encoding="UTF-8" standalone="no"?>
<svg
   xmlns:dc="http://purl.org/dc/elements/1.1/"
   xmlns:cc="http://creativecommons.org/ns#"
   xmlns:rdf="http://www.w3.org/1999/02/22-rdf-syntax-ns#"
   xmlns:svg="http://www.w3.org/2000/svg"
   xmlns="http://www.w3.org/2000/svg"
   xmlns:sodipodi="http://sodipodi.sourceforge.net/DTD/sodipodi-0.dtd"
   xmlns:inkscape="http://www.inkscape.org/namespaces/inkscape"
   version="1.1"
   id="Layer_1"
   x="0px"
   y="0px"
   width="1024"
   height="1024"
   viewBox="0 0 1024 1024"
   enable-background="new 0 0 512 512"
   xml:space="preserve"
   inkscape:version="0.48.0 r9654"
   sodipodi:docname="uni2F5D-x2f5d.svg"><metadata
   id="metadata72"><rdf:RDF><cc:Work
       rdf:about=""><dc:format>image/svg+xml</dc:format><dc:type
         rdf:resource="http://purl.org/dc/dcmitype/StillImage" /><dc:title /></cc:Work></rdf:RDF></metadata><defs
   id="defs70" /><sodipodi:namedview
   pagecolor="#ffffff"
   bordercolor="#666666"
   borderopacity="1"
   objecttolerance="10"
   gridtolerance="10"
   guidetolerance="10"
   inkscape:pageopacity="0"
   inkscape:pageshadow="2"
   inkscape:window-width="1027"
   inkscape:window-height="785"
   id="namedview68"
   showgrid="false"
   inkscape:zoom="0.36045873"
   inkscape:cx="29.834821"
   inkscape:cy="325.6039"
   inkscape:window-x="0"
   inkscape:window-y="0"
   inkscape:window-maximized="0"
   inkscape:current-layer="Layer_1" />
	<g
   id="Grid"
   transform="matrix(1.9896421,0,0,1.9842343,0.49482107,7.5799459)">
		<rect
   x="0"
   stroke-miterlimit="10"
   width="512"
   height="512"
   id="rect4"
   y="0"
   style="fill:none;stroke:#a9ccdb;stroke-miterlimit:10" />
		<line
   stroke-miterlimit="10"
   x1="0"
   y1="32"
   x2="512"
   y2="32"
   id="line6"
   style="fill:none;stroke:#a9ccdb;stroke-miterlimit:10" />
		<line
   stroke-miterlimit="10"
   x1="0"
   y1="64"
   x2="512"
   y2="64"
   id="line8"
   style="fill:none;stroke:#a9ccdb;stroke-miterlimit:10" />
		<line
   stroke-miterlimit="10"
   x1="0"
   y1="96"
   x2="512"
   y2="96"
   id="line10"
   style="fill:none;stroke:#a9ccdb;stroke-miterlimit:10" />
		<line
   stroke-miterlimit="10"
   x1="0"
   y1="128"
   x2="512"
   y2="128"
   id="line12"
   style="fill:none;stroke:#a9ccdb;stroke-miterlimit:10" />
		<line
   stroke-miterlimit="10"
   x1="0"
   y1="160"
   x2="512"
   y2="160"
   id="line14"
   style="fill:none;stroke:#a9ccdb;stroke-miterlimit:10" />
		<line
   stroke-miterlimit="10"
   x1="0"
   y1="192"
   x2="512"
   y2="192"
   id="line16"
   style="fill:none;stroke:#a9ccdb;stroke-miterlimit:10" />
		<line
   stroke-miterlimit="10"
   x1="0"
   y1="224"
   x2="512"
   y2="224"
   id="line18"
   style="fill:none;stroke:#a9ccdb;stroke-miterlimit:10" />
		<line
   stroke-miterlimit="10"
   x1="0"
   y1="256"
   x2="512"
   y2="256"
   id="line20"
   style="fill:none;stroke:#a9ccdb;stroke-miterlimit:10" />
		<line
   stroke-miterlimit="10"
   x1="0"
   y1="288"
   x2="512"
   y2="288"
   id="line22"
   style="fill:none;stroke:#a9ccdb;stroke-miterlimit:10" />
		<line
   stroke-miterlimit="10"
   x1="0"
   y1="320"
   x2="512"
   y2="320"
   id="line24"
   style="fill:none;stroke:#a9ccdb;stroke-miterlimit:10" />
		<line
   stroke-miterlimit="10"
   x1="0"
   y1="352"
   x2="512"
   y2="352"
   id="line26"
   style="fill:none;stroke:#a9ccdb;stroke-miterlimit:10" />
		<line
   stroke-miterlimit="10"
   x1="0"
   y1="384"
   x2="512"
   y2="384"
   id="line28"
   style="fill:none;stroke:#a9ccdb;stroke-miterlimit:10" />
		<line
   stroke-miterlimit="10"
   x1="0"
   y1="416"
   x2="512"
   y2="416"
   id="line30"
   style="fill:none;stroke:#a9ccdb;stroke-miterlimit:10" />
		<line
   stroke-miterlimit="10"
   x1="0"
   y1="448"
   x2="512"
   y2="448"
   id="line32"
   style="fill:none;stroke:#ff0000;stroke-miterlimit:10" />
		<line
   stroke-miterlimit="10"
   x1="0"
   y1="480"
   x2="512"
   y2="480"
   id="line34"
   style="fill:none;stroke:#a9ccdb;stroke-miterlimit:10" />
		<line
   stroke-miterlimit="10"
   x1="32"
   y1="0"
   x2="32"
   y2="512"
   id="line36"
   style="fill:none;stroke:#a9ccdb;stroke-miterlimit:10" />
		<line
   stroke-miterlimit="10"
   x1="64"
   y1="0"
   x2="64"
   y2="512"
   id="line38"
   style="fill:none;stroke:#a9ccdb;stroke-miterlimit:10" />
		<line
   stroke-miterlimit="10"
   x1="96"
   y1="0"
   x2="96"
   y2="512"
   id="line40"
   style="fill:none;stroke:#a9ccdb;stroke-miterlimit:10" />
		<line
   stroke-miterlimit="10"
   x1="128"
   y1="0"
   x2="128"
   y2="512"
   id="line42"
   style="fill:none;stroke:#a9ccdb;stroke-miterlimit:10" />
		<line
   stroke-miterlimit="10"
   x1="160"
   y1="0"
   x2="160"
   y2="512"
   id="line44"
   style="fill:none;stroke:#a9ccdb;stroke-miterlimit:10" />
		<line
   stroke-miterlimit="10"
   x1="192"
   y1="0"
   x2="192"
   y2="512"
   id="line46"
   style="fill:none;stroke:#a9ccdb;stroke-miterlimit:10" />
		<line
   stroke-miterlimit="10"
   x1="224"
   y1="0"
   x2="224"
   y2="512"
   id="line48"
   style="fill:none;stroke:#a9ccdb;stroke-miterlimit:10" />
		<line
   stroke-miterlimit="10"
   x1="256"
   y1="0"
   x2="256"
   y2="512"
   id="line50"
   style="fill:none;stroke:#a9ccdb;stroke-miterlimit:10" />
		<line
   stroke-miterlimit="10"
   x1="288"
   y1="0"
   x2="288"
   y2="512"
   id="line52"
   style="fill:none;stroke:#a9ccdb;stroke-miterlimit:10" />
		<line
   stroke-miterlimit="10"
   x1="320"
   y1="0"
   x2="320"
   y2="512"
   id="line54"
   style="fill:none;stroke:#a9ccdb;stroke-miterlimit:10" />
		<line
   stroke-miterlimit="10"
   x1="352"
   y1="0"
   x2="352"
   y2="512"
   id="line56"
   style="fill:none;stroke:#a9ccdb;stroke-miterlimit:10" />
		<line
   stroke-miterlimit="10"
   x1="384"
   y1="0"
   x2="384"
   y2="512"
   id="line58"
   style="fill:none;stroke:#a9ccdb;stroke-miterlimit:10" />
		<line
   stroke-miterlimit="10"
   x1="416"
   y1="0"
   x2="416"
   y2="512"
   id="line60"
   style="fill:none;stroke:#a9ccdb;stroke-miterlimit:10" />
		<line
   stroke-miterlimit="10"
   x1="448"
   y1="0"
   x2="448"
   y2="512"
   id="line62"
   style="fill:none;stroke:#a9ccdb;stroke-miterlimit:10" />
		<line
   stroke-miterlimit="10"
   x1="480"
   y1="0"
   x2="480"
   y2="512"
   id="line64"
   style="fill:none;stroke:#a9ccdb;stroke-miterlimit:10" />
	</g>
	
<path
   style="fill:#15110e"
   d="m 683.02143,57.524947 c -20.0993,25.0827 -20.08037,73.929863 0.0451,116.675573 19.45187,41.31482 22.50227,55.26144 30.15961,137.89127 3.81015,41.11539 8.66203,85.38146 10.78199,98.36905 2.89154,17.71504 2.8318,24.4025 -0.23915,26.77113 -2.25156,1.73655 -26.54103,4.33994 -53.9766,5.78532 -35.01279,1.84457 -61.93914,6.07962 -90.32668,14.20682 -45.55368,13.04177 -58.98995,12.73266 -99.38684,-2.28643 L 452.78758,444.79107 430.2959,407.04142 c -31.45196,-52.7884 -35.40063,-71.58289 -32.36203,-154.03457 1.29027,-35.01135 3.23597,-69.71975 4.32371,-77.12985 1.53108,-10.42973 -0.12512,-16.5917 -7.33249,-27.2809 -17.74554,-26.31835 -51.14723,-21.42076 -55.89361,8.19553 -1.22575,7.64817 -2.24904,72.4143 -2.27397,143.92475 -0.0413,117.96565 -0.70339,132.66356 -7.14329,158.54633 -3.90383,15.69002 -9.18921,30.50717 -11.74528,32.927 -2.83096,2.68014 -5.32753,17.62687 -6.38777,38.24324 -2.5241,49.08347 -8.72874,55.29048 -37.98164,37.99621 -8.70422,-5.14596 -21.30605,-12.55758 -28.00408,-16.47031 -7.65821,-4.47363 -12.93098,-11.1864 -14.20629,-18.08613 -2.54525,-13.76991 -12.07587,-15.13098 -76.48344,-10.92291 -36.00196,2.3522 -46.5983,4.41627 -46.5983,9.07693 0,3.31787 -3.95646,9.2676 -8.79214,13.22165 -4.83566,3.95406 -8.792121,9.35636 -8.792121,12.00517 0,2.64879 -3.942009,9.82784 -8.759994,15.95335 -19.989692,25.41449 -25.903979,35.58444 -28.164972,48.43088 -2.94617,16.73968 2.748365,26.3444 15.619302,26.3444 5.631677,0 17.243374,7.27486 28.583395,17.90789 26.53456,24.88023 35.95212,30.36919 52.10517,30.36919 20.83652,0 32.05528,6.61803 32.05528,18.90965 0,14.15778 2.02806,15.69561 15.64475,11.86314 19.1344,-5.38554 21.36138,-0.79871 20.65244,42.53701 -0.58293,35.62757 2.79453,31.63527 -5.57327,39.96185 -17.14777,17.24436 -13.82327,23.21754 -13.08591,42.69656 0.072,34.97667 2.68441,39.23585 23.10466,37.66873 19.83257,-1.52199 26.76295,-6.34659 34.9153,-24.30637 3.3772,-7.43998 11.47443,-19.84518 17.99395,-27.56716 9.44759,-11.19017 11.85358,-17.4594 11.85358,-30.88678 0,-14.44351 2.53665,-19.9538 17.78131,-38.62597 9.77975,-11.97852 23.23032,-31.98618 29.89027,-44.46141 10.8631,-20.34861 14.50726,-23.67827 35.41941,-32.36285 15.9751,-6.63429 30.84819,-9.48719 47.26379,-9.06615 13.17434,0.33796 38.40345,-3.40227 56.06481,-8.31169 77.27002,-21.47906 237.04295,-30.14033 274.43624,-14.87713 12.9656,5.29238 27.218,6.66118 56.93045,5.46773 35.16891,-1.41258 41.98238,-3.02823 60.46756,-14.33862 11.48857,-7.02934 28.44577,-22.70759 37.80617,-34.95465 14.94594,-19.55508 16.97357,-24.48341 16.97357,-41.25553 0,-14.40562 2.49713,-22.9956 10.2468,-35.2482 5.63576,-8.9104 18.87083,-34.09234 29.41131,-55.95985 l 19.16449,-39.75905 -3.05567,-65.57277 c -2.86095,-61.39505 -4.47273,-71.86407 -25.29803,-164.32133 l -22.24236,-98.74854 -21.49834,-0.78378 c -21.01042,-0.766 -21.65986,-0.44227 -28.61267,14.26369 -3.91284,8.27608 -8.75024,15.04744 -10.74971,15.04744 -2.17368,0 -3.63548,12.99758 -3.63548,32.32432 0,26.33154 1.38809,34.52658 7.48732,44.20294 16.6524,26.41906 35.48258,137.17556 29.7758,175.13744 -2.07774,13.82155 -3.74776,16.05369 -12.0108,16.05369 -8.63815,0 -11.29003,-4.27746 -26.52937,-42.79106 -21.88569,-55.31066 -31.8013,-75.07166 -71.02154,-141.53965 -17.80403,-30.17319 -33.52269,-59.56229 -34.93036,-65.3091 -1.40767,-5.74683 -0.57625,-22.11097 1.84763,-36.36466 3.27432,-19.2548 3.40696,-28.655093 0.51609,-36.573033 -4.4002,-12.05175 -31.43625,-30.66103 -53.55605,-36.863302 -13.16893,-3.692461 -15.65837,-3.042063 -22.88801,5.980122 z"
   id="path3785"
   inkscape:connector-curvature="0"
   sodipodi:nodetypes="sssscssscssssssssssssssssssssssssccsssssssssssssssscsscssssssssssssss" />
	   	   
</svg>