<?xml version="1.0" encoding="UTF-8" standalone="no"?>
<svg
   xmlns:dc="http://purl.org/dc/elements/1.1/"
   xmlns:cc="http://creativecommons.org/ns#"
   xmlns:rdf="http://www.w3.org/1999/02/22-rdf-syntax-ns#"
   xmlns:svg="http://www.w3.org/2000/svg"
   xmlns="http://www.w3.org/2000/svg"
   xmlns:sodipodi="http://sodipodi.sourceforge.net/DTD/sodipodi-0.dtd"
   xmlns:inkscape="http://www.inkscape.org/namespaces/inkscape"
   version="1.1"
   id="Layer_1"
   x="0px"
   y="0px"
   width="512px"
   height="512px"
   viewBox="0 0 512 512"
   enable-background="new 0 0 512 512"
   xml:space="preserve"
   inkscape:version="0.48.0 r9654"
   sodipodi:docname="uni2FE0-x2fe0.svg"><metadata
   id="metadata72"><rdf:RDF><cc:Work
       rdf:about=""><dc:format>image/svg+xml</dc:format><dc:type
         rdf:resource="http://purl.org/dc/dcmitype/StillImage" /></cc:Work></rdf:RDF></metadata><defs
   id="defs70" /><sodipodi:namedview
   pagecolor="#ffffff"
   bordercolor="#666666"
   borderopacity="1"
   objecttolerance="10"
   gridtolerance="10"
   guidetolerance="10"
   inkscape:pageopacity="0"
   inkscape:pageshadow="2"
   inkscape:window-width="1152"
   inkscape:window-height="814"
   id="namedview68"
   showgrid="false"
   inkscape:zoom="1.0195312"
   inkscape:cx="115.18998"
   inkscape:cy="257.41641"
   inkscape:window-x="-8"
   inkscape:window-y="-8"
   inkscape:window-maximized="1"
   inkscape:current-layer="Layer_1" />
	<g
   id="Grid">
		<rect
   x="0"
   fill="none"
   stroke="#A9CCDB"
   stroke-miterlimit="10"
   width="512"
   height="512"
   id="rect4" />
		<line
   fill="none"
   stroke="#A9CCDB"
   stroke-miterlimit="10"
   x1="0"
   y1="32"
   x2="512"
   y2="32"
   id="line6" />
		<line
   fill="none"
   stroke="#A9CCDB"
   stroke-miterlimit="10"
   x1="0"
   y1="64"
   x2="512"
   y2="64"
   id="line8" />
		<line
   fill="none"
   stroke="#A9CCDB"
   stroke-miterlimit="10"
   x1="0"
   y1="96"
   x2="512"
   y2="96"
   id="line10" />
		<line
   fill="none"
   stroke="#A9CCDB"
   stroke-miterlimit="10"
   x1="0"
   y1="128"
   x2="512"
   y2="128"
   id="line12" />
		<line
   fill="none"
   stroke="#A9CCDB"
   stroke-miterlimit="10"
   x1="0"
   y1="160"
   x2="512"
   y2="160"
   id="line14" />
		<line
   fill="none"
   stroke="#A9CCDB"
   stroke-miterlimit="10"
   x1="0"
   y1="192"
   x2="512"
   y2="192"
   id="line16" />
		<line
   fill="none"
   stroke="#A9CCDB"
   stroke-miterlimit="10"
   x1="0"
   y1="224"
   x2="512"
   y2="224"
   id="line18" />
		<line
   fill="none"
   stroke="#A9CCDB"
   stroke-miterlimit="10"
   x1="0"
   y1="256"
   x2="512"
   y2="256"
   id="line20" />
		<line
   fill="none"
   stroke="#A9CCDB"
   stroke-miterlimit="10"
   x1="0"
   y1="288"
   x2="512"
   y2="288"
   id="line22" />
		<line
   fill="none"
   stroke="#A9CCDB"
   stroke-miterlimit="10"
   x1="0"
   y1="320"
   x2="512"
   y2="320"
   id="line24" />
		<line
   fill="none"
   stroke="#A9CCDB"
   stroke-miterlimit="10"
   x1="0"
   y1="352"
   x2="512"
   y2="352"
   id="line26" />
		<line
   fill="none"
   stroke="#A9CCDB"
   stroke-miterlimit="10"
   x1="0"
   y1="384"
   x2="512"
   y2="384"
   id="line28" />
		<line
   fill="none"
   stroke="#A9CCDB"
   stroke-miterlimit="10"
   x1="0"
   y1="416"
   x2="512"
   y2="416"
   id="line30" />
		<line
   fill="none"
   stroke="#FF0000"
   stroke-miterlimit="10"
   x1="0"
   y1="448"
   x2="512"
   y2="448"
   id="line32" />
		<line
   fill="none"
   stroke="#A9CCDB"
   stroke-miterlimit="10"
   x1="0"
   y1="480"
   x2="512"
   y2="480"
   id="line34" />
		<line
   fill="none"
   stroke="#A9CCDB"
   stroke-miterlimit="10"
   x1="32"
   y1="0"
   x2="32"
   y2="512"
   id="line36" />
		<line
   fill="none"
   stroke="#A9CCDB"
   stroke-miterlimit="10"
   x1="64"
   y1="0"
   x2="64"
   y2="512"
   id="line38" />
		<line
   fill="none"
   stroke="#A9CCDB"
   stroke-miterlimit="10"
   x1="96"
   y1="0"
   x2="96"
   y2="512"
   id="line40" />
		<line
   fill="none"
   stroke="#A9CCDB"
   stroke-miterlimit="10"
   x1="128"
   y1="0"
   x2="128"
   y2="512"
   id="line42" />
		<line
   fill="none"
   stroke="#A9CCDB"
   stroke-miterlimit="10"
   x1="160"
   y1="0"
   x2="160"
   y2="512"
   id="line44" />
		<line
   fill="none"
   stroke="#A9CCDB"
   stroke-miterlimit="10"
   x1="192"
   y1="0"
   x2="192"
   y2="512"
   id="line46" />
		<line
   fill="none"
   stroke="#A9CCDB"
   stroke-miterlimit="10"
   x1="224"
   y1="0"
   x2="224"
   y2="512"
   id="line48" />
		<line
   fill="none"
   stroke="#A9CCDB"
   stroke-miterlimit="10"
   x1="256"
   y1="0"
   x2="256"
   y2="512"
   id="line50" />
		<line
   fill="none"
   stroke="#A9CCDB"
   stroke-miterlimit="10"
   x1="288"
   y1="0"
   x2="288"
   y2="512"
   id="line52" />
		<line
   fill="none"
   stroke="#A9CCDB"
   stroke-miterlimit="10"
   x1="320"
   y1="0"
   x2="320"
   y2="512"
   id="line54" />
		<line
   fill="none"
   stroke="#A9CCDB"
   stroke-miterlimit="10"
   x1="352"
   y1="0"
   x2="352"
   y2="512"
   id="line56" />
		<line
   fill="none"
   stroke="#A9CCDB"
   stroke-miterlimit="10"
   x1="384"
   y1="0"
   x2="384"
   y2="512"
   id="line58" />
		<line
   fill="none"
   stroke="#A9CCDB"
   stroke-miterlimit="10"
   x1="416"
   y1="0"
   x2="416"
   y2="512"
   id="line60" />
		<line
   fill="none"
   stroke="#A9CCDB"
   stroke-miterlimit="10"
   x1="448"
   y1="0"
   x2="448"
   y2="512"
   id="line62" />
		<line
   fill="none"
   stroke="#A9CCDB"
   stroke-miterlimit="10"
   x1="480"
   y1="0"
   x2="480"
   y2="512"
   id="line64" />
	</g>
	<path
   d="m 94.585418,144.43264 c -1.291622,1.72196 -2.394487,3.84804 -3.294348,6.21959 -3.065843,8.08002 -3.775043,19.00923 -1.563659,26.51113 0.925115,2.78927 0.794113,3.67373 -0.400535,2.70427 -1.201377,-0.97494 -1.167425,0.25049 0.105147,3.79098 8.397804,6.47461 3.691324,7.63498 6.979103,11.1758 2.649741,3.62151 1.166597,3.10411 1.701177,4.57715 0.23158,1.20488 1.51185,2.02969 1.912587,2.64717 1.09583,1.68844 1.80697,1.8264 3.71072,3.94522 1.81417,2.03963 3.29848,4.87233 3.29848,6.29496 0,1.42262 0.81578,2.94362 1.81284,3.38003 1.89439,0.82914 2.84106,10.24733 2.06089,16.90753 -0.28303,1.03789 -0.21698,1.83638 -0.22802,2.71594 -0.0127,1.03356 -0.059,2.13336 0.18312,3.19074 0.0626,1.60161 -0.31726,3.35937 -0.0111,4.72046 1.59815,3.25534 1.13021,4.15543 1.39272,5.72241 0.0975,0.58266 0.29624,1.25751 0.73959,2.17995 0.58078,0.14571 0.75791,0.80828 1.61683,0.81574 1.14803,0.008 2.11338,-0.19962 2.64603,-0.32528 1.10671,-0.26101 1.44454,-1.01924 1.31347,-2.03707 -0.12005,-0.932 -0.61758,-2.10112 -1.60372,-2.90138 -2.93239,-2.37967 -1.80414,-9.42159 1.74662,-10.90132 1.8825,-0.78453 3.86161,-0.8502 4.39796,-0.14599 0.81782,2.54878 2.38965,2.58323 3.67125,4.38157 2.48938,3.49306 5.01976,8.00137 6.76252,10.99904 3.06084,5.26491 5.37,11.73002 7.1793,18.73718 1.23904,4.66712 2.09661,7.82773 5.09763,7.82773 0.51793,-0.17502 1.01642,-0.84588 1.64979,-1.27099 0.74062,-0.49708 1.59478,-0.76831 1.80547,-1.1857 0.85281,-1.68947 -0.95237,-3.34292 -1.41435,-4.89996 -0.85277,-2.8741 -3.12058,-6.55077 -4.24455,-7.83546 -1.95468,-2.07834 -2.21218,-5.96301 -2.40813,-8.83978 -0.9278,-1.99777 -4.03156,-3.87328 -5.18414,-6.28757 -1.56967,-3.28803 -3.31967,-6.6322 -5.17339,-9.13349 -2.03054,-2.72452 -4.23244,-5.32881 -5.3918,-8.98165 -1.07728,-3.86955 -1.92623,-3.71684 -2.06437,0.37132 -2.56602,-5.9348 -2.9281,-12.76578 -2.68096,-18.77168 0.53912,-9.69099 1.26539,-19.63908 0.90511,-28.22339 -0.3076,-7.15579 -0.78534,-13.76763 -1.47028,-15.34078 -0.76284,-0.35486 -1.8215,-3.91369 -2.35254,-7.90849 -2.63299,-7.43003 -5.40488,-12.76307 -8.78185,-15.57252 -3.8121,-3.17147 -8.3953,-3.12713 -14.420234,0.74662 z m 15.158082,9.09591 c 2.8565,5.80515 4.85293,13.96353 5.84701,20.61697 0.48691,2.75275 0.87428,5.63192 1.14652,8.47147 0.4572,4.76923 0.58956,9.42668 0.3229,13.18529 -0.43879,1.42252 -0.32766,3.73886 -1.84463,5.64916 -0.81063,1.02083 -1.40784,6.16304 -2.57558,6.75361 -1.51946,0.76849 -3.62625,-3.2325 -4.54813,-3.96531 -4.30274,-4.28185 -9.436085,-19.00093 -10.655277,-22.6042 -1.155964,-3.94255 -2.362685,-8.08446 -2.71027,-12.0272 -0.282347,-3.2031 0.188017,-6.21712 0.220765,-9.34908 -0.04505,-2.72111 0.747571,-5.97257 1.938842,-7.9424 0.936888,-1.54917 2.068265,-2.047 3.58661,-2.62762 3.13459,-1.07789 6.64692,0.54718 9.27117,3.83918 z m -55.367536,15.02581 c 2.968683,-2.3444 5.21024,0.76924 5.653112,8.51963 0.149545,2.61708 -4.255981,9.68697 -4.134734,12.6951 -0.582437,4.78471 -5.623665,8.17618 -8.037525,12.56834 -4.6683,8.49425 -8.061937,17.88056 -10.317179,28.34407 3.854811,8.65366 23.653049,5.1439 13.697059,20.29636 -5.446781,8.10154 -8.782277,9.4157 -15.739744,6.2014 -1.231752,-0.0676 -2.366757,0.0587 -3.386964,0.33435 -1.560806,0.42175 -2.85292,1.19324 -3.811704,2.15557 -1.881654,1.88862 -2.479466,4.51226 -1.304829,6.66981 1.501165,1.21357 3.096518,1.79315 5.10093,2.17754 3.665594,0.70297 7.36608,-0.2886 9.132149,-0.6678 4.786246,-2.01687 10.961804,-1.36567 14.204801,-5.27867 2.250738,-2.82678 2.417252,-7.94345 4.468636,-11.72386 1.23067,-2.20986 1.922892,-5.09479 1.538242,-6.41087 -0.384604,-1.3161 -0.563418,-4.61938 1.438645,-6.92633 1.606809,-0.81577 3.475993,0.0703 4.825575,-0.5919 4.457875,-2.18746 7.306836,-6.15034 10.714372,-16.02236 0.836462,-3.68707 2.989841,-8.74375 3.509012,-13.27226 0.451907,-3.94179 -0.586481,-7.39937 -1.60854,-10.27209 -1.858026,-3.91082 -10.312403,-5.6035 -13.945067,-6.29554 -1.375179,1.31563 -3.314511,2.74445 -3.390251,3.96528 -0.17064,2.75002 4.643465,5.13531 6.057137,7.69843 2.015746,2.87205 2.381034,6.84022 2.746036,9.41285 1.342249,6.68975 -0.680344,9.25276 -3.448445,12.56522 -1.978444,2.36752 -3.304897,4.91819 -6.303709,5.5791 -9.128756,2.01189 -20.418681,-4.44754 -24.676206,-0.22519 -0.420303,2.03156 -7.93485,8.07262 -9.742319,12.10701 0.321357,2.90723 0.05271,6.48376 -0.495064,9.40465 -0.433824,2.31327 1.172481,2.95834 0.459557,4.48354 -0.707556,1.5137 -0.951315,7.03615 -3.683522,7.33018 -2.877139,0.24848 -11.355507,-2.9241 -9.561847,-9.66946 3.174651,-9.91938 -5.7524836,-12.14373 -2.469539,-19.70119 1.732562,-5.4952 12.67238,-9.55571 15.21453,-14.4074 4.489261,-8.56776 6.975263,-13.76278 10.669237,-21.57621 2.382964,-5.04041 12.823626,-26.40038 16.628158,-29.4673 z m 354.211886,19.49917 c -1.05692,3.04561 -2.54465,5.53749 -3.30607,5.53749 -0.76153,0 -1.38448,1.94899 -1.38448,4.33109 0,2.38208 -0.65672,4.33107 -1.45927,4.33107 -1.94057,7.35215 -3.82873,15.36652 -5.25047,23.45048 -1.26045,7.16709 -2.15429,14.38888 -2.39286,21.25231 -0.25007,7.85274 0.36453,15.51505 1.67093,22.76438 0.85497,5.45133 -0.656,8.42175 -11.72154,3.66115 -1.84333,-0.80016 -3.15818,-1.42484 -5.42378,1.22508 -1.12717,0.87419 -2.05446,3.31076 -4.46021,2.86803 -2.38966,-0.43978 -5.48431,-3.919 -8.10954,-5.44332 -3.7514,-2.17815 -6.74552,-2.61223 -7.06899,-3.63321 -0.57516,-2.3066 2.39767,-8.92463 1.06327,-9.76684 -2.69416,-1.70045 -9.27137,3.17118 -11.60865,7.31331 -1.75863,3.46871 -13.95744,2.30575 -16.94366,-1.61528 -2.40569,-3.15882 -2.88578,-3.13669 -5.6542,0.26045 -2.06272,2.53119 -2.67411,3.38285 -1.81548,4.6671 0.36242,0.54207 0.98676,1.16122 1.87439,2.01632 2.20904,2.82014 3.01911,5.89175 5.33639,7.85906 0.46057,0.77349 0.60624,2.48855 3.33516,10.43373 1.78091,8.71911 1.1306,12.30198 -2.23288,12.30198 -0.63817,-0.29182 -1.27923,-0.60201 -1.92279,-0.9289 -11.45821,-5.82009 -23.71271,-16.93363 -34.77224,-23.84088 -5.31041,-3.31662 -10.34526,-5.66342 -14.88419,-5.98878 -3.9108,0.34806 -5.76298,4.49152 -6.72254,9.3168 -0.64421,4.43429 -0.79677,8.36713 -0.47886,12.02757 0.40846,4.70306 1.59356,8.95651 3.51029,13.24625 3.09893,6.8813 2.15248,3.97984 2.31845,4.97522 1.3051,2.55457 2.57198,5.35218 3.98398,7.86391 3.50639,6.23732 7.4088,11.9501 11.36454,16.85921 2.27025,2.80269 4.5639,5.41562 6.72024,7.79231 3.48473,3.66995 6.33263,5.75296 9.38713,6.09672 3.53738,0.0672 5.04692,-2.16538 4.98469,-4.4228 -0.0443,-1.61204 -1.3732,-0.95953 -2.85459,-1.76828 -2.07868,-1.66598 -3.9498,-3.23393 -5.65659,-5.03098 -2.6749,-3.05912 -7.57208,-5.7753 -12.61754,-14.76164 -0.69319,-1.2346 -5.34096,-7.4041 -6.01777,-8.6713 -2.82619,-8.92294 -14.42013,-38.65846 -1.67621,-34.98558 2.09978,1.56986 5.06016,3.81975 8.39283,6.42864 11.61631,9.0934 27.75626,22.54813 27.7451,26.76851 -1.21476,2.58078 14.09636,0.70771 16.13897,-1.97436 7.38938,-6.67045 3.08946,-20.41822 1.33761,-28.24197 -0.98299,-2.26698 -1.73079,-3.43632 -0.20383,-5.57038 0.84459,-0.6854 5.16348,-1.3535 9.5975,-1.48467 6.08227,-0.17999 9.75355,1.16373 14.95108,5.47189 3.60533,2.40095 5.52888,4.32395 6.47985,6.87054 0.5639,3.03582 1.34976,5.95861 2.054,8.90962 0.90656,5.20674 1.28294,10.12867 2.63612,14.15002 1.24304,3.694 3.31034,6.62808 7.36999,8.32492 5.88068,1.10912 10.03394,1.6392 13.02276,0.13797 3.10024,-2.96427 5.09649,-7.16179 6.4509,-11.80186 1.61294,-5.52545 2.31577,-11.67849 2.88916,-17.124 0.42849,-4.68112 0.21987,-9.29466 -1.16496,-13.87551 -0.99686,-3.28014 -2.16071,-6.88548 -2.94298,-12.84052 0.0819,-5.6617 -0.0886,-10.9895 -0.14054,-16.14761 -0.0819,-8.14768 0.13165,-15.87192 2.10376,-23.81995 0.93995,-3.76805 1.9815,-7.40674 2.59131,-11.18055 2.049,-12.6806 3.7182,-22.19242 12.96787,-21.60809 4.63633,0.68643 8.0785,8.11334 7.20347,16.08674 -0.10687,0.89328 0.62631,1.62416 1.63042,1.62416 1.00413,0 1.39853,1.46173 0.87637,3.24829 -0.52217,1.78659 -0.28482,3.24831 0.52729,3.24831 0.81209,0 1.75339,-1.70536 2.09165,-3.78969 0.42839,-2.63911 0.89352,-2.00156 1.53196,2.1 -4.29525,2.73169 3.63633,8.95163 2.57796,13.149 -1.59734,5.46575 10.83523,4.33537 17.48478,-1.5897 3.67664,-3.27616 5.53851,-4.07735 4.97225,-2.13962 -0.58632,2.00644 0.17375,3.08605 2.15738,3.06457 1.70516,-0.0165 2.33169,-0.7383 1.41334,-1.62417 -3.13265,-3.02199 -2.42793,-6.91715 2.43236,-13.44579 5.76274,-7.74055 9.53605,-8.21031 15.60454,-1.94255 1.62084,3.76897 3.50934,2.59685 4.00588,4.10984 1.87447,5.71223 -3.29494,2.04242 1.03553,5.21793 1.83358,1.7305 3.75473,5.3287 2.9561,6.37729 -0.56147,0.73734 -0.15498,1.34059 0.9032,1.34059 1.05826,0 1.92403,-1.46174 1.92403,-3.24831 0,-1.78655 0.74227,-3.24831 1.64925,-3.24831 2.67286,0 1.78113,-9.38137 -1.33793,-14.07599 -4.13185,-6.21911 -12.49069,-11.91048 -17.4928,-11.91048 -5.34247,0 -9.09231,2.90226 -18.85657,14.5943 -4.21673,5.04925 -8.80059,9.19083 -10.18642,9.20352 -3.34772,0.0307 -8.60033,-8.20286 -7.17072,-11.24022 0.68266,-1.45033 0.37625,-1.788 -0.77488,-0.8539 -1.12821,0.91558 -1.90399,0.16949 -1.90399,-1.83094 0,-1.85688 -0.8288,-3.37613 -1.8416,-3.37613 -1.01292,0 -1.48384,-1.79646 -1.04655,-3.99212 0.48184,-2.41957 -0.4421,-5.00661 -2.34551,-6.56745 -1.72733,-1.41641 -2.80673,-3.2847 -2.39863,-4.1517 0.40811,-0.86703 -3.27043,-1.86531 -8.17461,-2.21838 -8.18376,-0.58921 -9.07459,-0.18689 -10.83812,4.89554 z m -25.86677,104.58806 c -1.06966,-5.4529 0.0387,-10.7558 5.29137,-9.00186 6.45246,4.98358 7.28565,8.31205 6.45077,12.93411 -0.76439,4.55216 -5.15842,9.6715 -8.4662,6.12096 -1.50909,-1.76768 -2.57348,-6.79121 -3.27594,-10.05321 z m -234.98814,-78.5527 c -1.39193,1.82769 -3.44098,3.32306 -4.55345,3.32306 -1.26869,0 -0.89679,1.6335 0.99771,4.38227 2.30714,3.34742 3.33516,3.73096 4.35345,1.62415 1.20757,-2.4984 2.05191,-0.83527 1.59366,3.13909 -0.0991,0.8614 2.03927,0.98321 4.75239,0.27068 3.07213,-0.80676 4.93299,-0.40206 4.93299,1.07282 0,1.30255 -1.29877,1.83205 -2.88615,1.17666 -2.46434,-1.01743 -2.41829,-0.69099 0.31522,2.23353 1.76077,1.88378 3.84549,3.42506 4.63275,3.42506 0.78723,0 0.97266,0.97451 0.41205,2.16555 -0.56059,1.19104 -0.33067,2.16555 0.51095,2.16555 2.13742,5.66559 0.96978,7.93686 0.14546,9.37052 -1.91162,3.32503 -1.89548,2.12146 -3.9469,7.97091 -1.29315,10.93148 -2.58525,17.53257 -5.82829,20.19367 -0.84382,0.69243 -2.45629,0.64405 -3.48212,0.89662 -2.98998,1.02667 -3.24584,2.26129 -2.25909,10.90125 0.0405,4.21386 -0.3185,7.39312 1.57749,8.87411 0.95663,0.74724 2.79268,2.9573 4.92448,0.80696 1.76333,-1.26467 1.28352,-4.69093 1.45512,-11.93142 0.67576,-2.49931 3.01815,-5.3747 4.32377,-8.0725 1.78236,-3.68283 2.57606,-7.03462 3.24718,-8.64679 1.34779,-2.53631 1.93923,-5.44657 2.15931,-9.24934 0.24864,-4.4059 5.28918,-12.50099 7.7327,-12.41868 0.54153,0.0166 2.09781,1.07726 3.45843,2.35338 1.98724,1.86382 1.74347,2.11003 -1.23919,1.25159 -2.04218,-0.58777 -3.29715,-0.18524 -2.78883,0.8949 0.50832,1.07998 1.84457,1.96357 2.96942,1.96357 2.54405,0 6.40334,13.44611 5.11983,17.83794 -0.6811,2.3306 0.11894,3.16722 2.85633,2.98617 3.34407,-0.22119 3.90745,-1.62214 4.67291,-11.62056 0.47873,-6.25298 0.31648,-11.36909 -0.36055,-11.36909 -0.67703,0 -0.75704,-1.62158 -0.17776,-3.60354 0.70813,-2.42299 0.42101,-3.09057 -0.87636,-2.03774 -1.06124,0.86122 -1.92951,0.69851 -1.92951,-0.36157 0,-1.0601 1.83009,-3.21347 4.06686,-4.78532 3.28366,-2.30749 4.55066,-2.33071 6.57881,-0.12082 1.38156,1.50555 2.10522,3.60142 1.60813,4.6575 -0.49709,1.0561 -0.074,1.92016 0.94012,1.92016 1.01416,0 1.38521,0.9745 0.82459,2.16554 -0.56057,1.19105 -0.24744,2.16555 0.69588,2.16555 0.94334,0 2.17955,2.4295 2.74713,5.39888 0.58396,3.05509 1.79324,4.7811 2.78556,3.97581 1.08698,-0.88208 1.36548,-0.0951 0.73268,2.07023 -0.71686,2.45292 -0.30916,3.13465 1.36899,2.28909 1.49479,-0.75319 2.38985,0.14044 2.38985,2.38633 0,3.59428 11.03237,11.26061 12.82241,8.91021 0.50669,-0.66531 0.22121,-1.20963 -0.63414,-1.20963 -2.50569,0 -0.58013,-16.89291 2.07826,-18.23239 1.34898,-0.67969 1.95342,-0.26515 1.38239,0.94818 -0.55818,1.18581 0.0988,2.71704 1.45942,3.40272 1.36086,0.68567 2.07063,2.6278 1.57733,4.31577 -0.49333,1.68799 -0.12704,3.06909 0.81404,3.06909 0.94106,0 1.96577,2.19261 2.27716,4.87248 0.3114,2.67985 1.47625,4.62882 2.58856,4.33107 1.11231,-0.29776 2.03376,1.16398 2.04767,3.24832 0.02,3.14369 0.28353,3.25356 1.54039,0.64476 0.83336,-1.72968 1.07135,-4.08791 0.52883,-5.24046 -0.54628,-1.16061 0.11545,-1.54041 1.48321,-0.85125 1.35824,0.68439 2.54351,0.11917 2.63393,-1.25615 0.0902,-1.37523 0.48285,-7.49213 0.87206,-13.59311 1.01354,-15.88771 2.24924,-17.49447 7.94444,-10.33001 3.02726,3.80819 4.10939,6.5385 2.96088,7.47055 -1.03499,0.8399 0.0227,2.07277 2.46979,2.87928 2.3539,0.77573 4.27979,2.79609 4.27979,4.4897 0,1.69356 0.85686,3.77455 1.90407,4.62438 1.11188,0.90231 1.45891,0.59941 0.83411,-0.72804 -0.58849,-1.2503 0.22453,-2.96715 1.80671,-3.81533 2.6346,-1.41234 2.59908,-1.69202 -0.42178,-3.32301 -3.19331,-1.72413 -3.19637,-1.78577 -0.0972,-1.93313 3.09074,-0.14681 3.09628,-0.25299 0.16039,-3.072 -1.67255,-1.60585 -2.51276,-4.04209 -1.86712,-5.41383 0.70103,-1.48919 0.0989,-2.49406 -1.49453,-2.49406 -1.4677,0 -2.20984,-0.97449 -1.64922,-2.16554 0.5606,-1.19103 0.20226,-2.16554 -0.79625,-2.16554 -2.48189,0 -7.49045,-6.65074 -8.92387,-11.84976 -0.98665,-3.5785 -1.42613,-3.75391 -2.71265,-1.08277 -1.1509,2.38955 -1.54161,2.47116 -1.56055,0.32599 -0.02,-2.20383 -0.59386,-2.11493 -2.4991,0.38673 -1.36063,1.78657 -2.47386,4.34991 -2.47386,5.69634 0,1.34639 -0.65807,1.91398 -1.46236,1.2613 -0.80431,-0.65272 -2.47418,0.45133 -3.71079,2.45341 -1.5464,2.50358 -1.60473,3.13239 -0.1869,2.01389 2.87076,-2.2646 2.58484,1.96393 -0.39758,5.88001 -1.86385,2.44736 -1.96367,3.49184 -0.41231,4.31482 1.12575,0.59718 0.33315,1.16274 -1.76132,1.25677 -2.39546,0.10753 -3.38772,-0.72216 -2.67485,-2.23668 0.62327,-1.32419 0.13005,-3.22174 -1.09608,-4.21678 -1.34083,-1.08808 -2.72957,-0.77582 -3.48451,0.78352 -0.86344,1.78342 -1.26308,1.46612 -1.28047,-1.01662 -0.0127,-1.98506 0.90244,-4.10076 2.03629,-4.70149 1.13386,-0.60075 0.54012,-1.16921 -1.31939,-1.26325 -1.85951,-0.094 -4.24009,-1.29906 -5.29013,-2.67783 -1.4461,-1.89879 -2.54316,-1.81598 -4.52284,0.34134 -1.81327,1.97602 -2.0872,3.53943 -0.89451,5.10552 0.94552,1.2415 1.70777,3.28052 1.69389,4.53112 -0.0127,1.2506 -0.7447,0.81207 -1.62398,-0.9745 -1.09253,-2.2197 -1.60676,-2.38025 -1.62402,-0.50699 -0.0159,1.69211 -1.87526,2.55625 -4.85887,2.25773 -2.65848,-0.26599 -4.46258,-1.27186 -4.00913,-2.23527 0.45347,-0.96342 1.50686,-1.19788 2.34084,-0.52107 0.83672,0.67898 1.0496,-0.51854 0.47496,-2.67162 -1.28652,-4.82021 -8.04242,-13.64709 -10.44522,-13.64709 -0.97515,0 -2.18483,-1.40927 -2.68821,-3.13172 -0.70008,-2.39545 -2.04496,-1.61424 -5.7206,3.32298 -2.64293,3.55009 -4.80535,7.39557 -4.80535,8.54556 0,2.4842 -3.32393,2.6917 -6.09283,0.38029 -2.63741,-2.20166 -5.81445,-20.79279 -3.71751,-21.75389 0.87157,-0.3995 1.18523,-1.57506 0.69699,-2.61235 -0.48825,-1.03732 -1.97718,-1.33706 -3.30875,-0.66615 -1.33157,0.67096 -2.42104,0.24554 -2.42104,-0.94562 0,-1.19107 -1.1518,-2.74589 -2.55953,-3.45521 -1.46769,-0.73951 -2.1297,-0.37649 -1.55189,0.85108 0.5603,1.19042 -0.8049,2.14073 -3.0754,2.14073 -2.24566,0 -4.45734,-1.2181 -4.91486,-2.70692 -0.61426,-1.9989 -0.86588,-1.92953 -0.96203,0.26515 -0.10053,2.29383 -0.6549,2.40033 -2.42936,0.46662 -1.77098,-1.92993 -2.88047,-1.7421 -4.82989,0.81759 z m 59.0801,42.30275 c -0.5606,1.19104 -1.34658,2.16554 -1.74656,2.16554 -0.4,0 -0.7273,-0.9745 -0.7273,-2.16554 0,-1.19104 0.78596,-2.16555 1.74658,-2.16555 0.96064,0 1.2879,0.97451 0.72728,2.16555 z m 3.56614,4.87247 c -0.45752,1.48881 -0.83186,0.27068 -0.83186,-2.70693 0,-2.97761 0.37434,-4.19572 0.83186,-2.70693 0.45751,1.48881 0.45751,3.92504 0,5.41386 z m 7.15394,-4.94044 c 0,1.15367 -1.11325,1.53665 -2.47386,0.85108 -1.36063,-0.68558 -2.47385,-1.62946 -2.47385,-2.09757 0,-0.46807 1.11322,-0.85109 2.47385,-0.85109 1.36061,0 2.47386,0.94392 2.47386,2.09758 z M 81.265938,220.84146 c 0,0.68751 1.930553,2.08719 4.448431,5.72322 3.558354,5.13853 8.153538,12.88428 8.95035,13.28577 1.360634,0.6856 2.473863,2.73881 2.473863,4.56278 0,1.82393 0.821549,3.31626 1.825707,3.31626 2.139811,3.74007 4.433381,5.63739 5.420031,10.4659 0.67139,3.18952 2.20808,7.12301 2.99877,12.40802 1.63577,6.96968 2.14108,13.21458 2.94943,20.43682 0,4.6519 4.7952,6.15722 5.17377,1.62417 -1.62487,-10.20315 3.21368,-29.99216 2.77665,-38.91717 -0.53566,-0.58475 -1.26451,0.22228 -2.33364,-0.0819 -0.25097,-0.0712 -1.36126,0.22839 -1.59107,0.18166 -1.19262,-0.24248 -1.50064,-1.32842 -1.87068,-0.61836 -0.0995,0.93024 -0.35963,6.59469 -0.41105,9.53141 -0.004,1.62672 -1.96158,-7.53538 -2.06305,-5.91355 -0.63097,-0.48326 -1.70918,-5.22612 -2.2364,-5.7116 -5.70946,-5.25755 -5.69983,-10.61746 -7.875367,-15.48905 -1.462792,-3.27556 -3.515736,-6.67213 -8.113824,-10.39494 -1.296234,-1.03075 -5.047303,-7.43115 -6.252239,-8.2767 -1.474736,-1.03482 -3.803662,-2.49259 -4.438518,-1.61287 -0.789952,1.0946 0.294227,4.78606 0.168857,5.47999 z m 105.537432,59.29496 c 0.17466,-3.79545 -2.2951,-2.18413 -4.42012,-2.42998 l 0,0 c -1.57248,-0.28702 -3.20291,-0.005 -3.27924,0.82922 -0.35191,7.15949 7.02274,7.6902 7.69936,1.60076 z"
   id="path66"
   inkscape:connector-curvature="0"
   sodipodi:nodetypes="cscscccccsccccccccccsccsscccssccscccccccsccccscscccccsccccscscccsscscccccccscccccssccsscccssccsscsccccsccscsssccccssccsccsccccccsccsccccscccsccccccccsccsssccccscccccccsssssscccssccssccccccccsssccscsscccccccsccscccsscssssscssscsscsscsssssccccssscccccssccssssscccssssscsscscscsscscscssccccsccsssssscscsccsscscccssscssssssssscssscccccccccccsscccccccccc" />
</svg>