<?xml version="1.0" encoding="UTF-8" standalone="no"?>
<svg
   xmlns:dc="http://purl.org/dc/elements/1.1/"
   xmlns:cc="http://creativecommons.org/ns#"
   xmlns:rdf="http://www.w3.org/1999/02/22-rdf-syntax-ns#"
   xmlns:svg="http://www.w3.org/2000/svg"
   xmlns="http://www.w3.org/2000/svg"
   xmlns:sodipodi="http://sodipodi.sourceforge.net/DTD/sodipodi-0.dtd"
   xmlns:inkscape="http://www.inkscape.org/namespaces/inkscape"
   version="1.1"
   id="Layer_1"
   x="0px"
   y="0px"
   width="1000"
   height="1024"
   viewBox="0 0 1000 1024"
   enable-background="new 0 0 512 512"
   xml:space="preserve"
   inkscape:version="0.48.0 r9654"
   sodipodi:docname="uni2F6B-x2f6b.svg"><metadata
   id="metadata72"><rdf:RDF><cc:Work
       rdf:about=""><dc:format>image/svg+xml</dc:format><dc:type
         rdf:resource="http://purl.org/dc/dcmitype/StillImage" /></cc:Work></rdf:RDF></metadata><defs
   id="defs70" /><sodipodi:namedview
   pagecolor="#ffffff"
   bordercolor="#666666"
   borderopacity="1"
   objecttolerance="10"
   gridtolerance="10"
   guidetolerance="10"
   inkscape:pageopacity="0"
   inkscape:pageshadow="2"
   inkscape:window-width="1152"
   inkscape:window-height="814"
   id="namedview68"
   showgrid="false"
   inkscape:zoom="0.36045873"
   inkscape:cx="301.8627"
   inkscape:cy="269.86207"
   inkscape:window-x="-8"
   inkscape:window-y="-8"
   inkscape:window-maximized="1"
   inkscape:current-layer="Layer_1" />
	<g
   id="Grid"
   transform="matrix(2.0815761,0,0,2.0004579,0.54078806,-0.7346448)">
		<rect
   x="0"
   stroke-miterlimit="10"
   width="512"
   height="512"
   id="rect4"
   y="0"
   style="fill:none;stroke:#a9ccdb;stroke-miterlimit:10" />
		<line
   stroke-miterlimit="10"
   x1="0"
   y1="32"
   x2="512"
   y2="32"
   id="line6"
   style="fill:none;stroke:#a9ccdb;stroke-miterlimit:10" />
		<line
   stroke-miterlimit="10"
   x1="0"
   y1="64"
   x2="512"
   y2="64"
   id="line8"
   style="fill:none;stroke:#a9ccdb;stroke-miterlimit:10" />
		<line
   stroke-miterlimit="10"
   x1="0"
   y1="96"
   x2="512"
   y2="96"
   id="line10"
   style="fill:none;stroke:#a9ccdb;stroke-miterlimit:10" />
		<line
   stroke-miterlimit="10"
   x1="0"
   y1="128"
   x2="512"
   y2="128"
   id="line12"
   style="fill:none;stroke:#a9ccdb;stroke-miterlimit:10" />
		<line
   stroke-miterlimit="10"
   x1="0"
   y1="160"
   x2="512"
   y2="160"
   id="line14"
   style="fill:none;stroke:#a9ccdb;stroke-miterlimit:10" />
		<line
   stroke-miterlimit="10"
   x1="0"
   y1="192"
   x2="512"
   y2="192"
   id="line16"
   style="fill:none;stroke:#a9ccdb;stroke-miterlimit:10" />
		<line
   stroke-miterlimit="10"
   x1="0"
   y1="224"
   x2="512"
   y2="224"
   id="line18"
   style="fill:none;stroke:#a9ccdb;stroke-miterlimit:10" />
		<line
   stroke-miterlimit="10"
   x1="0"
   y1="256"
   x2="512"
   y2="256"
   id="line20"
   style="fill:none;stroke:#a9ccdb;stroke-miterlimit:10" />
		<line
   stroke-miterlimit="10"
   x1="0"
   y1="288"
   x2="512"
   y2="288"
   id="line22"
   style="fill:none;stroke:#a9ccdb;stroke-miterlimit:10" />
		<line
   stroke-miterlimit="10"
   x1="0"
   y1="320"
   x2="512"
   y2="320"
   id="line24"
   style="fill:none;stroke:#a9ccdb;stroke-miterlimit:10" />
		<line
   stroke-miterlimit="10"
   x1="0"
   y1="352"
   x2="512"
   y2="352"
   id="line26"
   style="fill:none;stroke:#a9ccdb;stroke-miterlimit:10" />
		<line
   stroke-miterlimit="10"
   x1="0"
   y1="384"
   x2="512"
   y2="384"
   id="line28"
   style="fill:none;stroke:#a9ccdb;stroke-miterlimit:10" />
		<line
   stroke-miterlimit="10"
   x1="0"
   y1="416"
   x2="512"
   y2="416"
   id="line30"
   style="fill:none;stroke:#a9ccdb;stroke-miterlimit:10" />
		<line
   stroke-miterlimit="10"
   x1="0"
   y1="448"
   x2="512"
   y2="448"
   id="line32"
   style="fill:none;stroke:#ff0000;stroke-miterlimit:10" />
		<line
   stroke-miterlimit="10"
   x1="0"
   y1="480"
   x2="512"
   y2="480"
   id="line34"
   style="fill:none;stroke:#a9ccdb;stroke-miterlimit:10" />
		<line
   stroke-miterlimit="10"
   x1="32"
   y1="0"
   x2="32"
   y2="512"
   id="line36"
   style="fill:none;stroke:#a9ccdb;stroke-miterlimit:10" />
		<line
   stroke-miterlimit="10"
   x1="64"
   y1="0"
   x2="64"
   y2="512"
   id="line38"
   style="fill:none;stroke:#a9ccdb;stroke-miterlimit:10" />
		<line
   stroke-miterlimit="10"
   x1="96"
   y1="0"
   x2="96"
   y2="512"
   id="line40"
   style="fill:none;stroke:#a9ccdb;stroke-miterlimit:10" />
		<line
   stroke-miterlimit="10"
   x1="128"
   y1="0"
   x2="128"
   y2="512"
   id="line42"
   style="fill:none;stroke:#a9ccdb;stroke-miterlimit:10" />
		<line
   stroke-miterlimit="10"
   x1="160"
   y1="0"
   x2="160"
   y2="512"
   id="line44"
   style="fill:none;stroke:#a9ccdb;stroke-miterlimit:10" />
		<line
   stroke-miterlimit="10"
   x1="192"
   y1="0"
   x2="192"
   y2="512"
   id="line46"
   style="fill:none;stroke:#a9ccdb;stroke-miterlimit:10" />
		<line
   stroke-miterlimit="10"
   x1="224"
   y1="0"
   x2="224"
   y2="512"
   id="line48"
   style="fill:none;stroke:#a9ccdb;stroke-miterlimit:10" />
		<line
   stroke-miterlimit="10"
   x1="256"
   y1="0"
   x2="256"
   y2="512"
   id="line50"
   style="fill:none;stroke:#a9ccdb;stroke-miterlimit:10" />
		<line
   stroke-miterlimit="10"
   x1="288"
   y1="0"
   x2="288"
   y2="512"
   id="line52"
   style="fill:none;stroke:#a9ccdb;stroke-miterlimit:10" />
		<line
   stroke-miterlimit="10"
   x1="320"
   y1="0"
   x2="320"
   y2="512"
   id="line54"
   style="fill:none;stroke:#a9ccdb;stroke-miterlimit:10" />
		<line
   stroke-miterlimit="10"
   x1="352"
   y1="0"
   x2="352"
   y2="512"
   id="line56"
   style="fill:none;stroke:#a9ccdb;stroke-miterlimit:10" />
		<line
   stroke-miterlimit="10"
   x1="384"
   y1="0"
   x2="384"
   y2="512"
   id="line58"
   style="fill:none;stroke:#a9ccdb;stroke-miterlimit:10" />
		<line
   stroke-miterlimit="10"
   x1="416"
   y1="0"
   x2="416"
   y2="512"
   id="line60"
   style="fill:none;stroke:#a9ccdb;stroke-miterlimit:10" />
		<line
   stroke-miterlimit="10"
   x1="448"
   y1="0"
   x2="448"
   y2="512"
   id="line62"
   style="fill:none;stroke:#a9ccdb;stroke-miterlimit:10" />
		<line
   stroke-miterlimit="10"
   x1="480"
   y1="0"
   x2="480"
   y2="512"
   id="line64"
   style="fill:none;stroke:#a9ccdb;stroke-miterlimit:10" />
	</g>
	
<path
   style="fill:#3ecde9;fill-opacity:0.70869565"
   d="m 171.52833,216.2606 c 14.40031,22.72156 32.88731,27.48446 52.15193,27.54665 46.21978,-0.10905 62.06806,-19.70605 77.06178,-7.43852 10.35211,12.29327 16.90227,27.02716 21.97894,41.87273 4.1212,17.87909 12.31654,37.28523 18.79853,56.17573 6.31052,18.39032 10.99762,36.29195 8.72189,51.8202 -2.88977,7.04331 -6.29314,12.60026 -10.53636,18.85331 -5.49638,7.85525 -14.88927,11.4981 -21.48998,17.17741 -20.87089,13.08502 -41.72353,26.9813 -62.20154,40.84422 -22.54882,15.85493 -45.67783,31.2656 -68.69957,46.29541 -26.27164,18.92037 -61.62462,38.84543 -92.130448,59.47894 -32.331933,21.8687 -59.219168,44.53321 -64.078963,67.64081 0.395326,8.74306 4.01824,13.63404 8.935242,16.22434 10.214196,2.37242 20.776675,1.26532 30.262471,-1.21586 17.228515,-4.50648 30.905508,-13.54575 32.493748,-14.50343 28.29694,-17.05152 56.24256,-34.69444 83.84431,-52.34974 35.62495,-22.78712 70.6774,-45.59485 105.17405,-67.17814 32.7798,-20.36794 79.44281,-31.88406 115.03786,-42.51293 82.63292,-16.26164 197.01476,-18.01683 285.5752,-6.59246 76.1935,14.16454 141.57109,43.0511 198.02494,69.19561 35.3822,18.51534 58.98411,8.08575 68.95676,-9.75611 8.73273,-20.02827 -4.01518,-34.13969 -14.95721,-45.68443 -16.26487,-17.16093 -42.82169,-30.74777 -52.71604,-34.69875 -16.87322,-8.57801 -35.21292,-15.01663 -54.14209,-20.4847 -48.37897,-13.97524 -102.02988,-16.92516 -143.47025,-37.73332 -9.91961,-5.06526 -10.40551,-9.94131 -11.72595,-23.49917 8.64759,-26.10875 11.71235,-53.83311 13.80957,-81.58796 1.37412,-18.1835 2.33286,-36.38008 4.17418,-54.144 2.49316,-24.05152 14.33017,-39.02909 23.28068,-60.38811 21.38299,-0.49498 42.71221,-1.04006 63.90019,-1.55604 36.35529,-0.88533 72.29419,-1.68498 107.37281,-1.99884 13.48175,-1.30148 22.1808,-10.30277 26.72851,-21.75779 4.67582,-16.21937 4.21325,-31.01042 -1.96949,-41.89394 -6.14276,-10.812885 -17.93184,-17.768815 -35.93761,-18.436525 -22.28454,-0.70191 -72.79924,1.75599 -97.70689,5.03539 9.13617,-4.98959 29.53432,-24.98304 21.19363,-24.88756 0.15392,-2.59653 -8.37158,-0.29093 -21.1877,-0.58217 -17.51228,-0.39796 -43.03623,-2.59803 -65.37593,-0.77889 -23.89347,1.94567 -44.14437,4.47012 -47.0542,6.09864 -16.11411,9.85298 -1.78217,28.98801 -17.8191,30.90678 -21.4946,0.969875 -42.88213,1.768735 -63.72992,2.544055 -21.14372,0.78634 -41.73231,1.5485 -61.31484,2.44039 -24.54489,1.21242 -55.22638,5.23685 -79.17546,6.85845 -19.43699,1.31609 -38.93774,3.36362 -58.92371,7.11112 -7.94316,1.6377 -15.92106,4.03669 -25.3168,7.26426 -17.17423,6.47648 -6.28214,5.49226 -21.19934,15.61457 -1.36773,0.88405 -1.13205,-10.30777 -0.59823,-24.35201 0.3821,-10.05136 0.20667,-25.663515 0.41552,-35.255795 0.62704,-11.00362 -6.6071,-17.54949 -17.77311,-19.72714 -6.02581,-1.13752 -12.56409,-1.2841 -18.16359,1.4728 -6.31294,3.10809 -7.3933,8.43688 -8.01636,17.49095 -0.87065,13.36117 3.22878,25.546315 4.08051,35.953605 0.24382,2.97995 5.54519,20.79815 5.03974,22.83479 -14.69096,28.8787 -44.74478,-66.289185 -57.52542,-81.572585 -2.90076,-3.44978 -6.03304,-6.49914 -8.51125,-7.44213 -5.05163,-1.77371 -14.91544,-1.66088 -22.49584,-0.98803 -5.16133,0.56595 -11.32718,1.37946 -11.68928,6.90147 -0.95879,14.62078 9.58108,37.57078 19.83118,56.933385 10.24836,19.35985 20.20715,35.1333 18.09279,35.40883 -26.1373,2.4666 -58.64425,7.70482 -74.66293,26.2832 -8.7707,10.56979 -10.17953,24.1239 -2.64156,40.71903 z m 445.07489,141.751 c -4.23823,30.97171 -1.24353,26.72375 -27.71261,28.08236 -16.60943,-1.02579 -43.01737,-0.10885 -64.3273,-0.17648 -27.20559,-0.0863 -55.18463,-5.07443 -66.42254,-18.80708 -25.49488,-47.55602 -51.12761,-95.32036 -63.41293,-145.63957 -2.88669,-13.43847 -1.08345,-13.60867 6.35075,-17.17372 13.32874,-6.39178 40.48112,-9.026 60.75466,-14.3276 21.07337,-6.0147 39.05337,-3.80231 61.1871,-6.92812 38.60993,-5.45267 81.96762,-5.33456 119.80392,-4.63508 -0.73959,16.54734 -2.39099,32.62893 -4.57762,48.40854 -2.55211,19.0557 -6.17403,38.1759 -9.77329,56.94714 -4.94013,25.76353 -9.8378,50.86972 -11.87014,74.24961 z"
   id="path3755"
   inkscape:connector-curvature="0"
   sodipodi:nodetypes="ccccscccccsccscscccccscsccsscsccscccssccscscccsccscsccccsscccccsccscsccsc" />
	 
</svg>