<?xml version="1.0" encoding="UTF-8" standalone="no"?>
<svg
   xmlns:dc="http://purl.org/dc/elements/1.1/"
   xmlns:cc="http://creativecommons.org/ns#"
   xmlns:rdf="http://www.w3.org/1999/02/22-rdf-syntax-ns#"
   xmlns:svg="http://www.w3.org/2000/svg"
   xmlns="http://www.w3.org/2000/svg"
   xmlns:sodipodi="http://sodipodi.sourceforge.net/DTD/sodipodi-0.dtd"
   xmlns:inkscape="http://www.inkscape.org/namespaces/inkscape"
   version="1.1"
   id="Layer_1"
   x="0px"
   y="0px"
   width="1024"
   height="1024"
   viewBox="0 0 1024 1024"
   enable-background="new 0 0 512 512"
   xml:space="preserve"
   inkscape:version="0.48.0 r9654"
   sodipodi:docname="uni2F5D-x2f5d.svg"><metadata
   id="metadata72"><rdf:RDF><cc:Work
       rdf:about=""><dc:format>image/svg+xml</dc:format><dc:type
         rdf:resource="http://purl.org/dc/dcmitype/StillImage" /><dc:title /></cc:Work></rdf:RDF></metadata><defs
   id="defs70" /><sodipodi:namedview
   pagecolor="#ffffff"
   bordercolor="#666666"
   borderopacity="1"
   objecttolerance="10"
   gridtolerance="10"
   guidetolerance="10"
   inkscape:pageopacity="0"
   inkscape:pageshadow="2"
   inkscape:window-width="1027"
   inkscape:window-height="785"
   id="namedview68"
   showgrid="false"
   inkscape:zoom="0.36045873"
   inkscape:cx="259.58123"
   inkscape:cy="378.06932"
   inkscape:window-x="0"
   inkscape:window-y="0"
   inkscape:window-maximized="0"
   inkscape:current-layer="Layer_1" />
	<g
   id="Grid"
   transform="matrix(1.9896421,0,0,1.9842343,0.49482107,7.5799384)">
		<rect
   x="0"
   stroke-miterlimit="10"
   width="512"
   height="512"
   id="rect4"
   y="0"
   style="fill:none;stroke:#a9ccdb;stroke-miterlimit:10" />
		<line
   stroke-miterlimit="10"
   x1="0"
   y1="32"
   x2="512"
   y2="32"
   id="line6"
   style="fill:none;stroke:#a9ccdb;stroke-miterlimit:10" />
		<line
   stroke-miterlimit="10"
   x1="0"
   y1="64"
   x2="512"
   y2="64"
   id="line8"
   style="fill:none;stroke:#a9ccdb;stroke-miterlimit:10" />
		<line
   stroke-miterlimit="10"
   x1="0"
   y1="96"
   x2="512"
   y2="96"
   id="line10"
   style="fill:none;stroke:#a9ccdb;stroke-miterlimit:10" />
		<line
   stroke-miterlimit="10"
   x1="0"
   y1="128"
   x2="512"
   y2="128"
   id="line12"
   style="fill:none;stroke:#a9ccdb;stroke-miterlimit:10" />
		<line
   stroke-miterlimit="10"
   x1="0"
   y1="160"
   x2="512"
   y2="160"
   id="line14"
   style="fill:none;stroke:#a9ccdb;stroke-miterlimit:10" />
		<line
   stroke-miterlimit="10"
   x1="0"
   y1="192"
   x2="512"
   y2="192"
   id="line16"
   style="fill:none;stroke:#a9ccdb;stroke-miterlimit:10" />
		<line
   stroke-miterlimit="10"
   x1="0"
   y1="224"
   x2="512"
   y2="224"
   id="line18"
   style="fill:none;stroke:#a9ccdb;stroke-miterlimit:10" />
		<line
   stroke-miterlimit="10"
   x1="0"
   y1="256"
   x2="512"
   y2="256"
   id="line20"
   style="fill:none;stroke:#a9ccdb;stroke-miterlimit:10" />
		<line
   stroke-miterlimit="10"
   x1="0"
   y1="288"
   x2="512"
   y2="288"
   id="line22"
   style="fill:none;stroke:#a9ccdb;stroke-miterlimit:10" />
		<line
   stroke-miterlimit="10"
   x1="0"
   y1="320"
   x2="512"
   y2="320"
   id="line24"
   style="fill:none;stroke:#a9ccdb;stroke-miterlimit:10" />
		<line
   stroke-miterlimit="10"
   x1="0"
   y1="352"
   x2="512"
   y2="352"
   id="line26"
   style="fill:none;stroke:#a9ccdb;stroke-miterlimit:10" />
		<line
   stroke-miterlimit="10"
   x1="0"
   y1="384"
   x2="512"
   y2="384"
   id="line28"
   style="fill:none;stroke:#a9ccdb;stroke-miterlimit:10" />
		<line
   stroke-miterlimit="10"
   x1="0"
   y1="416"
   x2="512"
   y2="416"
   id="line30"
   style="fill:none;stroke:#a9ccdb;stroke-miterlimit:10" />
		<line
   stroke-miterlimit="10"
   x1="0"
   y1="448"
   x2="512"
   y2="448"
   id="line32"
   style="fill:none;stroke:#ff0000;stroke-miterlimit:10" />
		<line
   stroke-miterlimit="10"
   x1="0"
   y1="480"
   x2="512"
   y2="480"
   id="line34"
   style="fill:none;stroke:#a9ccdb;stroke-miterlimit:10" />
		<line
   stroke-miterlimit="10"
   x1="32"
   y1="0"
   x2="32"
   y2="512"
   id="line36"
   style="fill:none;stroke:#a9ccdb;stroke-miterlimit:10" />
		<line
   stroke-miterlimit="10"
   x1="64"
   y1="0"
   x2="64"
   y2="512"
   id="line38"
   style="fill:none;stroke:#a9ccdb;stroke-miterlimit:10" />
		<line
   stroke-miterlimit="10"
   x1="96"
   y1="0"
   x2="96"
   y2="512"
   id="line40"
   style="fill:none;stroke:#a9ccdb;stroke-miterlimit:10" />
		<line
   stroke-miterlimit="10"
   x1="128"
   y1="0"
   x2="128"
   y2="512"
   id="line42"
   style="fill:none;stroke:#a9ccdb;stroke-miterlimit:10" />
		<line
   stroke-miterlimit="10"
   x1="160"
   y1="0"
   x2="160"
   y2="512"
   id="line44"
   style="fill:none;stroke:#a9ccdb;stroke-miterlimit:10" />
		<line
   stroke-miterlimit="10"
   x1="192"
   y1="0"
   x2="192"
   y2="512"
   id="line46"
   style="fill:none;stroke:#a9ccdb;stroke-miterlimit:10" />
		<line
   stroke-miterlimit="10"
   x1="224"
   y1="0"
   x2="224"
   y2="512"
   id="line48"
   style="fill:none;stroke:#a9ccdb;stroke-miterlimit:10" />
		<line
   stroke-miterlimit="10"
   x1="256"
   y1="0"
   x2="256"
   y2="512"
   id="line50"
   style="fill:none;stroke:#a9ccdb;stroke-miterlimit:10" />
		<line
   stroke-miterlimit="10"
   x1="288"
   y1="0"
   x2="288"
   y2="512"
   id="line52"
   style="fill:none;stroke:#a9ccdb;stroke-miterlimit:10" />
		<line
   stroke-miterlimit="10"
   x1="320"
   y1="0"
   x2="320"
   y2="512"
   id="line54"
   style="fill:none;stroke:#a9ccdb;stroke-miterlimit:10" />
		<line
   stroke-miterlimit="10"
   x1="352"
   y1="0"
   x2="352"
   y2="512"
   id="line56"
   style="fill:none;stroke:#a9ccdb;stroke-miterlimit:10" />
		<line
   stroke-miterlimit="10"
   x1="384"
   y1="0"
   x2="384"
   y2="512"
   id="line58"
   style="fill:none;stroke:#a9ccdb;stroke-miterlimit:10" />
		<line
   stroke-miterlimit="10"
   x1="416"
   y1="0"
   x2="416"
   y2="512"
   id="line60"
   style="fill:none;stroke:#a9ccdb;stroke-miterlimit:10" />
		<line
   stroke-miterlimit="10"
   x1="448"
   y1="0"
   x2="448"
   y2="512"
   id="line62"
   style="fill:none;stroke:#a9ccdb;stroke-miterlimit:10" />
		<line
   stroke-miterlimit="10"
   x1="480"
   y1="0"
   x2="480"
   y2="512"
   id="line64"
   style="fill:none;stroke:#a9ccdb;stroke-miterlimit:10" />
	</g>
	
<path
   style="fill:#15110e"
   d="m 592.31006,76.276238 c -16.85169,20.924256 -16.83581,61.673052 0.0378,97.331972 16.30886,34.46525 18.86638,46.09966 25.28646,115.03032 3.19451,34.29888 7.26243,71.22609 9.03983,82.06048 2.42433,14.77807 2.37425,20.35682 -0.2005,22.33275 -1.88776,1.44866 -22.25255,3.62042 -45.25512,4.82618 -29.35545,1.53875 -51.93106,5.07167 -75.73178,11.85146 -38.19316,10.87959 -49.45842,10.62173 -83.32801,-1.90736 l -22.88158,-8.4644 -18.85751,-31.49115 c -26.36998,-44.03663 -29.68063,-59.71519 -27.133,-128.49722 1.08179,-29.20684 2.7131,-58.16094 3.62509,-64.34252 1.28369,-8.70059 -0.1049,-13.84097 -6.14771,-22.75801 -14.87824,-21.95503 -42.88292,-17.86943 -46.86238,6.83679 -1.0277,6.38019 -1.88565,60.40876 -1.90655,120.06352 -0.0347,98.40816 -0.58973,110.6693 -5.98908,132.26097 -3.27305,13.08879 -7.70443,25.44941 -9.84749,27.46805 -2.37353,2.23581 -4.46672,14.70452 -5.35564,31.9029 -2.11627,40.94595 -7.31836,46.1239 -31.84461,31.69684 -7.2978,-4.29281 -17.86343,-10.47566 -23.4792,-13.73969 -6.42081,-3.73197 -10.84161,-9.33183 -11.91086,-15.08765 -2.13399,-11.487 -10.12466,-12.62241 -64.12532,-9.11199 -30.18479,1.96222 -39.06901,3.68408 -39.06901,7.57206 0,2.7678 -3.31717,7.73113 -7.37151,11.02964 -4.054312,3.2985 -7.371492,7.80516 -7.371492,10.01483 0,2.20965 -3.305062,8.19848 -7.344562,13.30846 -16.759778,21.20101 -21.718441,29.68489 -23.614105,40.40154 -2.47013,13.9644 2.304287,21.97676 13.095551,21.97676 4.721716,0 14.457207,6.06876 23.964918,14.93894 22.24713,20.75534 30.14302,25.3343 43.68607,25.3343 17.46978,0 26.87582,5.52082 26.87582,15.77462 0,11.81056 1.70036,13.09344 13.11689,9.89635 16.04269,-4.49267 17.90982,-0.66629 17.31544,35.48482 -0.48873,29.72088 2.343,26.39047 -4.67275,33.33658 -14.37705,14.38543 -11.58971,19.36832 -10.9715,35.61792 0.0603,29.17789 2.25067,32.73095 19.37143,31.42364 16.62805,-1.26966 22.43862,-5.29438 29.27372,-20.27662 2.83152,-6.20651 9.62041,-16.55505 15.08651,-22.99682 7.92105,-9.33495 9.9383,-14.5648 9.9383,-25.76606 0,-12.04893 2.12677,-16.64566 14.90822,-32.22218 8.19954,-9.99262 19.47679,-26.6832 25.06063,-37.09017 9.10785,-16.97502 12.16319,-19.75265 29.69637,-26.99743 13.39387,-5.53439 25.86378,-7.9143 39.62696,-7.56308 11.04564,0.28194 32.19827,-2.8382 47.00591,-6.93369 64.78481,-17.91805 198.7418,-25.14337 230.09311,-12.41066 10.87063,4.41496 22.82015,5.55684 47.73169,4.56124 29.48635,-1.17839 35.19891,-2.52618 50.69727,-11.96143 9.63226,-5.86395 23.84954,-18.94291 31.6975,-29.15952 12.53099,-16.31305 14.23099,-20.42432 14.23099,-34.4158 0,-12.01732 2.09364,-19.18316 8.59113,-29.4044 10.04968,-18.99237 18.99065,-35.58572 28.91354,-52.77477 8.48461,-17.46584 21.47609,-32.48198 34.49307,-45.97318 6.79046,-7.03786 13.58784,-13.66072 19.756,-19.99989 7.73389,-0.76222 26.87759,14.32926 35.85713,20.82415 11.26371,9.58728 26.91523,19.60057 35.25399,31.52825 6.0849,8.70378 8.2759,18.42694 2.02667,29.7478 -2.50094,4.44099 -5.36224,8.35265 -7.09732,11.40502 -5.02082,8.8587 -11.29325,20.60948 -14.64594,25.968 -6.25498,9.97231 -12.75259,19.37233 -16.1897,29.91107 -2.27059,7.08712 -4.18011,14.90779 -6.84301,24.6021 3.09709,14.4772 26.56585,30.11384 33.69218,23.10998 12.85597,-13.86854 32.70377,-40.48988 37.16362,-47.41846 11.96419,-18.14131 32.75358,-35.08328 31.39038,-56.65208 0.3975,-13.62125 -10.034,-41.22675 -25.79206,-71.59647 -25.67038,-49.47315 -65.47619,-106.28182 -95.63046,-121.92168 -27.08361,-14.05724 -38.35162,20.87608 -48.91868,39.68764 -4.22087,7.48209 -8.77155,14.97716 -14.88751,22.56758 -11.63293,14.11827 -23.43147,26.92568 -34.82039,39.1846 -14.05563,15.09281 -27.96026,32.65441 -32.06802,32.65441 -7.24241,0 -5.71601,-25.29791 -18.49299,-57.42633 -18.34943,-46.14073 -26.66287,-62.62556 -59.54594,-118.07384 -14.92728,-25.17078 -28.10614,-49.68749 -29.28636,-54.48154 -1.18022,-4.79405 -0.48314,-18.4452 1.54909,-30.33577 2.74526,-16.06255 2.85647,-23.90437 0.4327,-30.50961 -3.68921,-10.053683 -26.35681,-25.577744 -44.90252,-30.751741 -11.0411,-3.080275 -13.12831,-2.537719 -19.18978,4.988679 z"
   id="path3785"
   inkscape:connector-curvature="0"
   sodipodi:nodetypes="cssscssscssssssssssssssssssssssssccssssssssssssssccsccsccccccccsccccssssssssc" />
</svg>