<?xml version="1.0" encoding="UTF-8" standalone="no"?>
<svg
   xmlns:dc="http://purl.org/dc/elements/1.1/"
   xmlns:cc="http://creativecommons.org/ns#"
   xmlns:rdf="http://www.w3.org/1999/02/22-rdf-syntax-ns#"
   xmlns:svg="http://www.w3.org/2000/svg"
   xmlns="http://www.w3.org/2000/svg"
   xmlns:sodipodi="http://sodipodi.sourceforge.net/DTD/sodipodi-0.dtd"
   xmlns:inkscape="http://www.inkscape.org/namespaces/inkscape"
   version="1.1"
   id="Layer_1"
   x="0px"
   y="0px"
   width="820"
   height="1024"
   viewBox="0 0 820 1024"
   enable-background="new 0 0 512 512"
   xml:space="preserve"
   inkscape:version="0.48.0 r9654"
   sodipodi:docname="uni319D-x319d.svg"><metadata
   id="metadata72"><rdf:RDF><cc:Work
       rdf:about=""><dc:format>image/svg+xml</dc:format><dc:type
         rdf:resource="http://purl.org/dc/dcmitype/StillImage" /><dc:title /></cc:Work></rdf:RDF></metadata><defs
   id="defs70" /><sodipodi:namedview
   pagecolor="#ffffff"
   bordercolor="#666666"
   borderopacity="1"
   objecttolerance="10"
   gridtolerance="10"
   guidetolerance="10"
   inkscape:pageopacity="0"
   inkscape:pageshadow="2"
   inkscape:window-width="1136"
   inkscape:window-height="798"
   id="namedview68"
   showgrid="false"
   inkscape:zoom="0.36045873"
   inkscape:cx="152.55261"
   inkscape:cy="322.37984"
   inkscape:window-x="0"
   inkscape:window-y="0"
   inkscape:window-maximized="0"
   inkscape:current-layer="Layer_1" />
	<g
   id="Grid"
   transform="matrix(1.9896421,0,0,1.9842343,0.49482107,7.5799384)">
		<rect
   x="0"
   stroke-miterlimit="10"
   width="512"
   height="512"
   id="rect4"
   y="0"
   style="fill:none;stroke:#a9ccdb;stroke-miterlimit:10" />
		<line
   stroke-miterlimit="10"
   x1="0"
   y1="32"
   x2="512"
   y2="32"
   id="line6"
   style="fill:none;stroke:#a9ccdb;stroke-miterlimit:10" />
		<line
   stroke-miterlimit="10"
   x1="0"
   y1="64"
   x2="512"
   y2="64"
   id="line8"
   style="fill:none;stroke:#a9ccdb;stroke-miterlimit:10" />
		<line
   stroke-miterlimit="10"
   x1="0"
   y1="96"
   x2="512"
   y2="96"
   id="line10"
   style="fill:none;stroke:#a9ccdb;stroke-miterlimit:10" />
		<line
   stroke-miterlimit="10"
   x1="0"
   y1="128"
   x2="512"
   y2="128"
   id="line12"
   style="fill:none;stroke:#a9ccdb;stroke-miterlimit:10" />
		<line
   stroke-miterlimit="10"
   x1="0"
   y1="160"
   x2="512"
   y2="160"
   id="line14"
   style="fill:none;stroke:#a9ccdb;stroke-miterlimit:10" />
		<line
   stroke-miterlimit="10"
   x1="0"
   y1="192"
   x2="512"
   y2="192"
   id="line16"
   style="fill:none;stroke:#a9ccdb;stroke-miterlimit:10" />
		<line
   stroke-miterlimit="10"
   x1="0"
   y1="224"
   x2="512"
   y2="224"
   id="line18"
   style="fill:none;stroke:#a9ccdb;stroke-miterlimit:10" />
		<line
   stroke-miterlimit="10"
   x1="0"
   y1="256"
   x2="512"
   y2="256"
   id="line20"
   style="fill:none;stroke:#a9ccdb;stroke-miterlimit:10" />
		<line
   stroke-miterlimit="10"
   x1="0"
   y1="288"
   x2="512"
   y2="288"
   id="line22"
   style="fill:none;stroke:#a9ccdb;stroke-miterlimit:10" />
		<line
   stroke-miterlimit="10"
   x1="0"
   y1="320"
   x2="512"
   y2="320"
   id="line24"
   style="fill:none;stroke:#a9ccdb;stroke-miterlimit:10" />
		<line
   stroke-miterlimit="10"
   x1="0"
   y1="352"
   x2="512"
   y2="352"
   id="line26"
   style="fill:none;stroke:#a9ccdb;stroke-miterlimit:10" />
		<line
   stroke-miterlimit="10"
   x1="0"
   y1="384"
   x2="512"
   y2="384"
   id="line28"
   style="fill:none;stroke:#a9ccdb;stroke-miterlimit:10" />
		<line
   stroke-miterlimit="10"
   x1="0"
   y1="416"
   x2="512"
   y2="416"
   id="line30"
   style="fill:none;stroke:#a9ccdb;stroke-miterlimit:10" />
		<line
   stroke-miterlimit="10"
   x1="0"
   y1="448"
   x2="512"
   y2="448"
   id="line32"
   style="fill:none;stroke:#ff0000;stroke-miterlimit:10" />
		<line
   stroke-miterlimit="10"
   x1="0"
   y1="480"
   x2="512"
   y2="480"
   id="line34"
   style="fill:none;stroke:#a9ccdb;stroke-miterlimit:10" />
		<line
   stroke-miterlimit="10"
   x1="32"
   y1="0"
   x2="32"
   y2="512"
   id="line36"
   style="fill:none;stroke:#a9ccdb;stroke-miterlimit:10" />
		<line
   stroke-miterlimit="10"
   x1="64"
   y1="0"
   x2="64"
   y2="512"
   id="line38"
   style="fill:none;stroke:#a9ccdb;stroke-miterlimit:10" />
		<line
   stroke-miterlimit="10"
   x1="96"
   y1="0"
   x2="96"
   y2="512"
   id="line40"
   style="fill:none;stroke:#a9ccdb;stroke-miterlimit:10" />
		<line
   stroke-miterlimit="10"
   x1="128"
   y1="0"
   x2="128"
   y2="512"
   id="line42"
   style="fill:none;stroke:#a9ccdb;stroke-miterlimit:10" />
		<line
   stroke-miterlimit="10"
   x1="160"
   y1="0"
   x2="160"
   y2="512"
   id="line44"
   style="fill:none;stroke:#a9ccdb;stroke-miterlimit:10" />
		<line
   stroke-miterlimit="10"
   x1="192"
   y1="0"
   x2="192"
   y2="512"
   id="line46"
   style="fill:none;stroke:#a9ccdb;stroke-miterlimit:10" />
		<line
   stroke-miterlimit="10"
   x1="224"
   y1="0"
   x2="224"
   y2="512"
   id="line48"
   style="fill:none;stroke:#a9ccdb;stroke-miterlimit:10" />
		<line
   stroke-miterlimit="10"
   x1="256"
   y1="0"
   x2="256"
   y2="512"
   id="line50"
   style="fill:none;stroke:#a9ccdb;stroke-miterlimit:10" />
		<line
   stroke-miterlimit="10"
   x1="288"
   y1="0"
   x2="288"
   y2="512"
   id="line52"
   style="fill:none;stroke:#a9ccdb;stroke-miterlimit:10" />
		<line
   stroke-miterlimit="10"
   x1="320"
   y1="0"
   x2="320"
   y2="512"
   id="line54"
   style="fill:none;stroke:#a9ccdb;stroke-miterlimit:10" />
		<line
   stroke-miterlimit="10"
   x1="352"
   y1="0"
   x2="352"
   y2="512"
   id="line56"
   style="fill:none;stroke:#a9ccdb;stroke-miterlimit:10" />
		<line
   stroke-miterlimit="10"
   x1="384"
   y1="0"
   x2="384"
   y2="512"
   id="line58"
   style="fill:none;stroke:#a9ccdb;stroke-miterlimit:10" />
		<line
   stroke-miterlimit="10"
   x1="416"
   y1="0"
   x2="416"
   y2="512"
   id="line60"
   style="fill:none;stroke:#a9ccdb;stroke-miterlimit:10" />
		<line
   stroke-miterlimit="10"
   x1="448"
   y1="0"
   x2="448"
   y2="512"
   id="line62"
   style="fill:none;stroke:#a9ccdb;stroke-miterlimit:10" />
		<line
   stroke-miterlimit="10"
   x1="480"
   y1="0"
   x2="480"
   y2="512"
   id="line64"
   style="fill:none;stroke:#a9ccdb;stroke-miterlimit:10" />
	</g>
	
<path
   style="fill:#000000"
   d="m 425.18359,363.96998 c -8.58413,6.93762 -12.92579,11.11318 -20.52358,12.98679 -12.19834,3.00811 -20.84202,-7.17691 -28.71386,-14.13179 C 292.3659,274.87257 172.39911,79.394615 110.62442,78.477355 c -51.064768,1.32565 -12.683628,2.06566 -25.964352,3.96939 -5.773179,0.82757 -12.559867,2.86137 -15.081544,4.51956 -13.788428,9.06691 -5.244399,32.214345 13.8513,37.525855 74.724526,34.16526 115.304896,94.02101 162.083066,144.85084 32.27054,33.53459 50.37036,77.33363 82.1516,114.198 10.1289,10.53929 17.92121,16.88722 37.17862,30.28708 l 4.32686,3.01076 c 5.1467,27.36039 1.97977,52.24788 3.05771,78.08075 1.68566,40.60175 6.11884,86.48437 0.30238,102.76763 -29.10504,-19.76287 -56.42697,-43.46554 -82.08401,-67.20994 -18.57313,-17.51702 -35.29665,-32.56905 -37.16341,-33.44899 -4.74386,-2.23608 -11.45535,1.1976 -22.89773,11.71478 -11.08588,10.1895 -15.41449,15.61627 -15.41449,19.32507 0,5.23667 17.71603,23.36493 62.10822,63.5534 43.11465,39.0319 67.15293,64.66974 82.44868,82.72595 4.8202,5.69013 7.68136,11.05458 8.51858,15.97178 1.24507,7.3126 -0.38343,48.7007 -1.97123,50.09917 -1.88173,1.65729 -88.08644,-3.26361 -161.62252,-9.22603 -43.42255,-3.5208 -91.27894,-6.63503 -106.347558,-6.92056 l -27.397503,-0.51915 -3.134465,8.0855 c -1.723977,4.447 -3.702231,11.56655 -4.396135,15.82117 -1.188686,7.28842 -0.902191,8.05225 4.955153,13.2111 10.660712,9.38943 29.88354,12.94127 83.993138,15.51959 19.6916,0.93831 47.37003,3.11867 61.5076,4.84526 14.13756,1.72661 39.75043,4.57264 56.91749,6.32453 17.16706,1.7519 44.84548,4.66356 61.50761,6.47031 16.66213,1.80678 30.86893,3.28854 31.57065,3.2928 0.70172,0.004 1.52795,15.60198 1.83606,34.66161 0.52183,32.28286 0.82457,34.96592 4.4242,39.21466 6.69043,7.89685 14.06216,10.58341 29.27703,10.66977 16.69973,0.0948 21.10205,-1.78554 27.16998,-11.60481 6.23232,-10.08533 8.51025,-23.83694 8.5269,-51.47612 0.0119,-22.56143 0.095,-23.02749 4.145,-23.75936 2.2721,-0.4106 19.82932,-2.29781 39.01601,-4.19381 49.09078,-4.85106 75.74595,-8.31442 161.57225,-20.99346 41.40287,-6.11641 82.08247,-11.9757 90.39908,-13.02066 14.13137,-1.77558 15.54893,-2.31703 21.65785,-8.2725 9.45235,-9.21497 10.67436,-12.32492 7.83858,-19.94866 -1.91138,-5.13852 -4.40905,-7.49459 -12.40783,-11.70438 -5.50808,-2.89895 -12.37094,-5.27078 -15.25083,-5.27078 -15.90061,0 -196.00149,21.57802 -230.1122,27.56992 -14.10677,2.47799 -24.19097,3.14684 -42.22913,2.8009 l -23.69688,-0.4545 -1.26536,-12.93679 c -0.69595,-7.11524 -0.79091,-21.84635 -0.21105,-32.7358 l 1.05433,-19.79902 28.6698,-23.15593 c 41.89012,-33.83372 57.78844,-49.30225 103.2127,-82.77219 22.21619,-16.36954 41.39958,-30.89563 42.62974,-32.28025 4.77865,-5.37861 2.56582,-15.20553 -6.29129,-27.93869 -3.41209,-4.9053 -6.05924,-6.49599 -14.33766,-8.6156 -9.76381,-2.49994 -10.45037,-2.4698 -17.91292,0.7863 -4.26798,1.86222 -23.87129,15.82715 -43.5629,31.03316 -67.48427,52.11186 -92.8532,66.32523 -97.02931,66.32523 -1.02922,0 -1.30044,-36.66361 -0.79922,-106.22237 -0.0928,-27.26802 2.72614,-46.44949 3.48312,-74.9202 l 13.4624,-10.95712 c 69.48185,-70.57546 115.77989,-153.55419 187.88108,-211.98306 39.94527,-35.61285 119.776,-68.75683 127.57623,-91.9548 3.86058,-12.627365 -1.77023,-25.341895 -12.45831,-28.131295 -18.13735,-4.73353 41.84505,-0.59698 -27.63204,-1.71319 C 564.62976,137.57092 533.40941,264.76537 425.18359,363.96998 z"
   id="path4558"
   inkscape:connector-curvature="0"
   sodipodi:nodetypes="csccsscccsccccsssssscsscsssssssssssscsssssssssscsscsssssssscccccscc" />
	 
</svg>