<?xml version="1.0" encoding="UTF-8" standalone="no"?>
<svg
   xmlns:dc="http://purl.org/dc/elements/1.1/"
   xmlns:cc="http://creativecommons.org/ns#"
   xmlns:rdf="http://www.w3.org/1999/02/22-rdf-syntax-ns#"
   xmlns:svg="http://www.w3.org/2000/svg"
   xmlns="http://www.w3.org/2000/svg"
   xmlns:sodipodi="http://sodipodi.sourceforge.net/DTD/sodipodi-0.dtd"
   xmlns:inkscape="http://www.inkscape.org/namespaces/inkscape"
   version="1.1"
   id="Layer_1"
   x="0px"
   y="0px"
   width="1024"
   height="1024"
   viewBox="0 0 1024 1024"
   enable-background="new 0 0 512 512"
   xml:space="preserve"
   inkscape:version="0.48.0 r9654"
   sodipodi:docname="uni5200-x2f11.svg"><metadata
   id="metadata72"><rdf:RDF><cc:Work
       rdf:about=""><dc:format>image/svg+xml</dc:format><dc:type
         rdf:resource="http://purl.org/dc/dcmitype/StillImage" /></cc:Work></rdf:RDF></metadata><defs
   id="defs70" /><sodipodi:namedview
   pagecolor="#ffffff"
   bordercolor="#666666"
   borderopacity="1"
   objecttolerance="10"
   gridtolerance="10"
   guidetolerance="10"
   inkscape:pageopacity="0"
   inkscape:pageshadow="2"
   inkscape:window-width="1071"
   inkscape:window-height="760"
   id="namedview68"
   showgrid="false"
   inkscape:zoom="0.36045874"
   inkscape:cx="184.96105"
   inkscape:cy="401.22096"
   inkscape:window-x="68"
   inkscape:window-y="41"
   inkscape:window-maximized="0"
   inkscape:current-layer="Layer_1" />
	<g
   id="Grid"
   transform="matrix(1.9980507,0,0,1.9942267,0.49902534,2.4588296)">
		<rect
   x="0"
   stroke-miterlimit="10"
   width="512"
   height="512"
   id="rect4"
   y="0"
   style="fill:none;stroke:#a9ccdb;stroke-miterlimit:10" />
		<line
   stroke-miterlimit="10"
   x1="0"
   y1="32"
   x2="512"
   y2="32"
   id="line6"
   style="fill:none;stroke:#a9ccdb;stroke-miterlimit:10" />
		<line
   stroke-miterlimit="10"
   x1="0"
   y1="64"
   x2="512"
   y2="64"
   id="line8"
   style="fill:none;stroke:#a9ccdb;stroke-miterlimit:10" />
		<line
   stroke-miterlimit="10"
   x1="0"
   y1="96"
   x2="512"
   y2="96"
   id="line10"
   style="fill:none;stroke:#a9ccdb;stroke-miterlimit:10" />
		<line
   stroke-miterlimit="10"
   x1="0"
   y1="128"
   x2="512"
   y2="128"
   id="line12"
   style="fill:none;stroke:#a9ccdb;stroke-miterlimit:10" />
		<line
   stroke-miterlimit="10"
   x1="0"
   y1="160"
   x2="512"
   y2="160"
   id="line14"
   style="fill:none;stroke:#a9ccdb;stroke-miterlimit:10" />
		<line
   stroke-miterlimit="10"
   x1="0"
   y1="192"
   x2="512"
   y2="192"
   id="line16"
   style="fill:none;stroke:#a9ccdb;stroke-miterlimit:10" />
		<line
   stroke-miterlimit="10"
   x1="0"
   y1="224"
   x2="512"
   y2="224"
   id="line18"
   style="fill:none;stroke:#a9ccdb;stroke-miterlimit:10" />
		<line
   stroke-miterlimit="10"
   x1="0"
   y1="256"
   x2="512"
   y2="256"
   id="line20"
   style="fill:none;stroke:#a9ccdb;stroke-miterlimit:10" />
		<line
   stroke-miterlimit="10"
   x1="0"
   y1="288"
   x2="512"
   y2="288"
   id="line22"
   style="fill:none;stroke:#a9ccdb;stroke-miterlimit:10" />
		<line
   stroke-miterlimit="10"
   x1="0"
   y1="320"
   x2="512"
   y2="320"
   id="line24"
   style="fill:none;stroke:#a9ccdb;stroke-miterlimit:10" />
		<line
   stroke-miterlimit="10"
   x1="0"
   y1="352"
   x2="512"
   y2="352"
   id="line26"
   style="fill:none;stroke:#a9ccdb;stroke-miterlimit:10" />
		<line
   stroke-miterlimit="10"
   x1="0"
   y1="384"
   x2="512"
   y2="384"
   id="line28"
   style="fill:none;stroke:#a9ccdb;stroke-miterlimit:10" />
		<line
   stroke-miterlimit="10"
   x1="0"
   y1="416"
   x2="512"
   y2="416"
   id="line30"
   style="fill:none;stroke:#a9ccdb;stroke-miterlimit:10" />
		<line
   stroke-miterlimit="10"
   x1="0"
   y1="448"
   x2="512"
   y2="448"
   id="line32"
   style="fill:none;stroke:#ff0000;stroke-miterlimit:10" />
		<line
   stroke-miterlimit="10"
   x1="0"
   y1="480"
   x2="512"
   y2="480"
   id="line34"
   style="fill:none;stroke:#a9ccdb;stroke-miterlimit:10" />
		<line
   stroke-miterlimit="10"
   x1="32"
   y1="0"
   x2="32"
   y2="512"
   id="line36"
   style="fill:none;stroke:#a9ccdb;stroke-miterlimit:10" />
		<line
   stroke-miterlimit="10"
   x1="64"
   y1="0"
   x2="64"
   y2="512"
   id="line38"
   style="fill:none;stroke:#a9ccdb;stroke-miterlimit:10" />
		<line
   stroke-miterlimit="10"
   x1="96"
   y1="0"
   x2="96"
   y2="512"
   id="line40"
   style="fill:none;stroke:#a9ccdb;stroke-miterlimit:10" />
		<line
   stroke-miterlimit="10"
   x1="128"
   y1="0"
   x2="128"
   y2="512"
   id="line42"
   style="fill:none;stroke:#a9ccdb;stroke-miterlimit:10" />
		<line
   stroke-miterlimit="10"
   x1="160"
   y1="0"
   x2="160"
   y2="512"
   id="line44"
   style="fill:none;stroke:#a9ccdb;stroke-miterlimit:10" />
		<line
   stroke-miterlimit="10"
   x1="192"
   y1="0"
   x2="192"
   y2="512"
   id="line46"
   style="fill:none;stroke:#a9ccdb;stroke-miterlimit:10" />
		<line
   stroke-miterlimit="10"
   x1="224"
   y1="0"
   x2="224"
   y2="512"
   id="line48"
   style="fill:none;stroke:#a9ccdb;stroke-miterlimit:10" />
		<line
   stroke-miterlimit="10"
   x1="256"
   y1="0"
   x2="256"
   y2="512"
   id="line50"
   style="fill:none;stroke:#a9ccdb;stroke-miterlimit:10" />
		<line
   stroke-miterlimit="10"
   x1="288"
   y1="0"
   x2="288"
   y2="512"
   id="line52"
   style="fill:none;stroke:#a9ccdb;stroke-miterlimit:10" />
		<line
   stroke-miterlimit="10"
   x1="320"
   y1="0"
   x2="320"
   y2="512"
   id="line54"
   style="fill:none;stroke:#a9ccdb;stroke-miterlimit:10" />
		<line
   stroke-miterlimit="10"
   x1="352"
   y1="0"
   x2="352"
   y2="512"
   id="line56"
   style="fill:none;stroke:#a9ccdb;stroke-miterlimit:10" />
		<line
   stroke-miterlimit="10"
   x1="384"
   y1="0"
   x2="384"
   y2="512"
   id="line58"
   style="fill:none;stroke:#a9ccdb;stroke-miterlimit:10" />
		<line
   stroke-miterlimit="10"
   x1="416"
   y1="0"
   x2="416"
   y2="512"
   id="line60"
   style="fill:none;stroke:#a9ccdb;stroke-miterlimit:10" />
		<line
   stroke-miterlimit="10"
   x1="448"
   y1="0"
   x2="448"
   y2="512"
   id="line62"
   style="fill:none;stroke:#a9ccdb;stroke-miterlimit:10" />
		<line
   stroke-miterlimit="10"
   x1="480"
   y1="0"
   x2="480"
   y2="512"
   id="line64"
   style="fill:none;stroke:#a9ccdb;stroke-miterlimit:10" />
	</g>
<path
   style="fill:#161715"
   d="m 235.53442,103.33618 c 11.60898,8.5535 22.94201,17.8772 34.01448,27.4535 21.85184,18.8992 42.6889,38.7824 62.62959,55.6713 3.0226,2.5574 6.04673,5.1075 9.07006,7.6531 19.04475,16.0355 38.0593,31.895 56.47616,48.3025 5.55487,4.9488 11.05536,9.9474 16.48591,15.0158 20.99241,19.67904 45.58539,41.83536 67.48861,63.10918 15.70888,15.12441 31.41287,31.42309 42.3379,48.62092 16.18181,29.41627 20.57657,49.87516 19.4478,80.1824 -0.7097,18.05947 -4.15561,27.82072 -20.65003,30.78009 -20.01075,2.85722 -42.87689,-3.55214 -63.38698,-12.20644 -11.87181,-5.07019 -22.97636,-11.75498 -33.51238,-18.89721 -10.73473,-7.27693 -20.87927,-15.0287 -30.64378,-22.03144 -20.78828,-14.895 -41.70477,-29.1671 -62.49413,-43.23315 -20.79541,-14.03198 -41.51259,-28.09769 -61.60191,-41.78914 -10.74764,-7.32482 -21.31557,-14.54253 -31.61964,-21.59064 -12.61173,-8.62867 -25.11853,-17.23062 -37.48949,-25.84458 -18.85852,-10.87594 -40.62342,-26.37239 -61.98722,-33.60049 -20.57853,-6.0347 -34.56815,-5.55 -49.499781,7.3782 -6.0076,4.83539 -15.41496,26.94501 -16.66266,35.03991 -0.7454,4.8362 -0.064,9.6212 2.7355,13.5987 12.06178,16.99641 42.834411,19.27483 62.388601,26.77665 6.71378,2.57569 12.43213,4.62251 16.16824,6.16155 16.50421,10.28379 34.22938,16.24561 50.35731,26.33587 4.24944,2.65862 8.4843,5.31496 12.70377,7.97135 16.87672,10.62482 33.5072,21.25045 49.83997,32.02634 46.31606,31.16544 88.29735,63.47778 127.77366,95.66167 20.31548,16.54453 41.16214,31.36476 64.12751,40.92253 10.36551,3.68289 42.69815,15.34053 34.4551,20.92228 -11.274,12.47048 -23.8173,31.49321 -32.0213,45.2391 -2.29341,5.49247 -6.44392,12.51213 -11.73227,20.71346 -11.03814,17.11827 -27.03347,39.38466 -41.44556,63.65721 -5.59326,9.42004 -10.94805,19.14224 -15.68207,28.98295 -4.7424,10.60855 -10.13203,23.7806 -9.31055,34.71604 0.82029,10.91957 7.84575,19.605 11.29563,26.81349 8.29595,12.44027 23.15847,26.26192 32.39007,36.10763 64.53724,68.53694 169.06749,120.4445 250.79275,118.29325 16.9832,-4.11371 20.37899,-15.22853 1.04459,-28.85719 -15.2381,-10.7412 -28.102,-21.53653 -28.5864,-23.98963 -39.80541,-11.16346 -90.36337,-36.21208 -125.42427,-64.89458 -11.73948,-9.6038 -19.46215,-14.37519 -28.06251,-23.38149 -10.76712,-9.61854 -26.09862,-25.56657 -27.82877,-37.32911 -1.24637,-8.47352 6.12873,-17.29444 9.69096,-26.16176 5.78025,-13.63692 16.47426,-25.07563 24.01376,-38.21868 6.85801,-11.95507 13.97524,-23.59876 20.49921,-34.73629 6.48206,-11.06735 12.92825,-22.12531 18.91569,-32.91814 3.14532,-5.20349 6.99943,-13.29495 11.21589,-21.17894 5.91554,-11.06094 12.54429,-21.7135 18.92955,-23.4097 31.89708,-19.24348 44.59562,-49.79062 50.99126,-82.34207 9.29077,-48.16933 -1.41413,-93.79665 -22.18706,-141.61415 -9.0419,-20.66745 -22.2624,-37.79545 -39.543,-55.69466 -36.91334,-47.79479 -77.67813,-85.98449 -118.92751,-122.25529 -16.00235,-14.071 -32.07762,-27.8532 -48.02926,-41.7954 -8.3359,-7.2709 -16.76542,-14.351 -25.38711,-21.0424 -12.28606,-9.5355 -24.96233,-18.2818 -38.31394,-25.6663 -10.20211,-6.1347 -20.61201,-11.6021 -31.13292,-16.2246 -10.96649,-4.8184 -22.05359,-8.7188 -33.15169,-11.5005 -21.36196,-5.3382 -42.66138,-6.3887 -63.06239,-7.934 -6.72911,-0.8207 -13.47083,-0.5721 -14.85598,0.9315 4.71439,3.6246 9.5337,7.3382 14.35813,11.0397 10.16635,7.8003 22.3171,17.5092 31.5949,24.2598 z"
   id="path3790"
   inkscape:connector-curvature="0"
   sodipodi:nodetypes="cscssccccccsccsccccscscsscccccsscscccscscscsccsccccscscscccsc" />
	 
</svg>