<?xml version="1.0" encoding="UTF-8" standalone="no"?>
<svg
   xmlns:dc="http://purl.org/dc/elements/1.1/"
   xmlns:cc="http://creativecommons.org/ns#"
   xmlns:rdf="http://www.w3.org/1999/02/22-rdf-syntax-ns#"
   xmlns:svg="http://www.w3.org/2000/svg"
   xmlns="http://www.w3.org/2000/svg"
   xmlns:sodipodi="http://sodipodi.sourceforge.net/DTD/sodipodi-0.dtd"
   xmlns:inkscape="http://www.inkscape.org/namespaces/inkscape"
   version="1.1"
   id="Layer_1"
   x="0px"
   y="0px"
   width="1000"
   height="1000"
   viewBox="0 0 1000 1000"
   enable-background="new 0 0 512 512"
   xml:space="preserve"
   inkscape:version="0.48.0 r9654"
   sodipodi:docname="uni5750-x5750.svg"><metadata
   id="metadata41"><rdf:RDF><cc:Work
       rdf:about=""><dc:format>image/svg+xml</dc:format><dc:type
         rdf:resource="http://purl.org/dc/dcmitype/StillImage" /><dc:title></dc:title><cc:license
         rdf:resource="http://scripts.sil.org/OFL" /><dc:language>chinese</dc:language><dc:publisher><cc:Agent><dc:title>beitdina.net</dc:title></cc:Agent></dc:publisher></cc:Work><cc:License
       rdf:about="http://scripts.sil.org/OFL"><cc:permits
         rdf:resource="http://scripts.sil.org/pub/OFL/Reproduction" /><cc:permits
         rdf:resource="http://scripts.sil.org/pub/OFL/Distribution" /><cc:permits
         rdf:resource="http://scripts.sil.org/pub/OFL/Embedding" /><cc:permits
         rdf:resource="http://scripts.sil.org/pub/OFL/DerivativeWorks" /><cc:requires
         rdf:resource="http://scripts.sil.org/pub/OFL/Notice" /><cc:requires
         rdf:resource="http://scripts.sil.org/pub/OFL/Attribution" /><cc:requires
         rdf:resource="http://scripts.sil.org/pub/OFL/ShareAlike" /><cc:requires
         rdf:resource="http://scripts.sil.org/pub/OFL/DerivativeRenaming" /><cc:requires
         rdf:resource="http://scripts.sil.org/pub/OFL/BundlingWhenSelling" /></cc:License></rdf:RDF></metadata><defs
   id="defs39" /><sodipodi:namedview
   pagecolor="#ffffff"
   bordercolor="#666666"
   borderopacity="1"
   objecttolerance="10"
   gridtolerance="10"
   guidetolerance="10"
   inkscape:pageopacity="0"
   inkscape:pageshadow="2"
   inkscape:window-width="1152"
   inkscape:window-height="814"
   id="namedview37"
   showgrid="false"
   inkscape:zoom="0.50976562"
   inkscape:cx="323.96894"
   inkscape:cy="426.59493"
   inkscape:window-x="-8"
   inkscape:window-y="-8"
   inkscape:window-maximized="1"
   inkscape:current-layer="Layer_1" />
	<g
   id="Grid"
   transform="matrix(1.952166,0,0,1.9521605,0.4753831,0.01703369)">
		<rect
   x="0"
   stroke-miterlimit="10"
   width="512"
   height="512"
   id="rect4"
   y="0"
   style="fill:none;stroke:#a9ccdb;stroke-miterlimit:10" />
		<line
   stroke-miterlimit="10"
   x1="0"
   y1="32"
   x2="512"
   y2="32"
   id="line6"
   style="fill:none;stroke:#a9ccdb;stroke-miterlimit:10" />
		<line
   stroke-miterlimit="10"
   x1="0"
   y1="64"
   x2="512"
   y2="64"
   id="line8"
   style="fill:none;stroke:#a9ccdb;stroke-miterlimit:10" />
		<line
   stroke-miterlimit="10"
   x1="0"
   y1="96"
   x2="512"
   y2="96"
   id="line10"
   style="fill:none;stroke:#a9ccdb;stroke-miterlimit:10" />
		<line
   stroke-miterlimit="10"
   x1="0"
   y1="128"
   x2="512"
   y2="128"
   id="line12"
   style="fill:none;stroke:#a9ccdb;stroke-miterlimit:10" />
		<line
   stroke-miterlimit="10"
   x1="0"
   y1="160"
   x2="512"
   y2="160"
   id="line14"
   style="fill:none;stroke:#a9ccdb;stroke-miterlimit:10" />
		<line
   stroke-miterlimit="10"
   x1="0"
   y1="192"
   x2="512"
   y2="192"
   id="line16"
   style="fill:none;stroke:#a9ccdb;stroke-miterlimit:10" />
		<line
   stroke-miterlimit="10"
   x1="0"
   y1="224"
   x2="512"
   y2="224"
   id="line18"
   style="fill:none;stroke:#a9ccdb;stroke-miterlimit:10" />
		<line
   stroke-miterlimit="10"
   x1="0"
   y1="256"
   x2="512"
   y2="256"
   id="line20"
   style="fill:none;stroke:#a9ccdb;stroke-miterlimit:10" />
		<line
   stroke-miterlimit="10"
   x1="0"
   y1="288"
   x2="512"
   y2="288"
   id="line22"
   style="fill:none;stroke:#a9ccdb;stroke-miterlimit:10" />
		<line
   stroke-miterlimit="10"
   x1="0"
   y1="320"
   x2="512"
   y2="320"
   id="line24"
   style="fill:none;stroke:#a9ccdb;stroke-miterlimit:10" />
		<line
   stroke-miterlimit="10"
   x1="0"
   y1="352"
   x2="512"
   y2="352"
   id="line26"
   style="fill:none;stroke:#a9ccdb;stroke-miterlimit:10" />
		<line
   stroke-miterlimit="10"
   x1="0"
   y1="384"
   x2="512"
   y2="384"
   id="line28"
   style="fill:none;stroke:#a9ccdb;stroke-miterlimit:10" />
		<line
   stroke-miterlimit="10"
   x1="0"
   y1="416"
   x2="512"
   y2="416"
   id="line30"
   style="fill:none;stroke:#a9ccdb;stroke-miterlimit:10" />
		<line
   stroke-miterlimit="10"
   x1="0"
   y1="448"
   x2="512"
   y2="448"
   id="line32"
   style="fill:none;stroke:#ff0000;stroke-miterlimit:10" />
		<line
   stroke-miterlimit="10"
   x1="0"
   y1="480"
   x2="512"
   y2="480"
   id="line34"
   style="fill:none;stroke:#a9ccdb;stroke-miterlimit:10" />
		<line
   stroke-miterlimit="10"
   x1="32"
   y1="0"
   x2="32"
   y2="512"
   id="line36"
   style="fill:none;stroke:#a9ccdb;stroke-miterlimit:10" />
		<line
   stroke-miterlimit="10"
   x1="64"
   y1="0"
   x2="64"
   y2="512"
   id="line38"
   style="fill:none;stroke:#a9ccdb;stroke-miterlimit:10" />
		<line
   stroke-miterlimit="10"
   x1="96"
   y1="0"
   x2="96"
   y2="512"
   id="line40"
   style="fill:none;stroke:#a9ccdb;stroke-miterlimit:10" />
		<line
   stroke-miterlimit="10"
   x1="128"
   y1="0"
   x2="128"
   y2="512"
   id="line42"
   style="fill:none;stroke:#a9ccdb;stroke-miterlimit:10" />
		<line
   stroke-miterlimit="10"
   x1="160"
   y1="0"
   x2="160"
   y2="512"
   id="line44"
   style="fill:none;stroke:#a9ccdb;stroke-miterlimit:10" />
		<line
   stroke-miterlimit="10"
   x1="192"
   y1="0"
   x2="192"
   y2="512"
   id="line46"
   style="fill:none;stroke:#a9ccdb;stroke-miterlimit:10" />
		<line
   stroke-miterlimit="10"
   x1="224"
   y1="0"
   x2="224"
   y2="512"
   id="line48"
   style="fill:none;stroke:#a9ccdb;stroke-miterlimit:10" />
		<line
   stroke-miterlimit="10"
   x1="256"
   y1="0"
   x2="256"
   y2="512"
   id="line50"
   style="fill:none;stroke:#a9ccdb;stroke-miterlimit:10" />
		<line
   stroke-miterlimit="10"
   x1="288"
   y1="0"
   x2="288"
   y2="512"
   id="line52"
   style="fill:none;stroke:#a9ccdb;stroke-miterlimit:10" />
		<line
   stroke-miterlimit="10"
   x1="320"
   y1="0"
   x2="320"
   y2="512"
   id="line54"
   style="fill:none;stroke:#a9ccdb;stroke-miterlimit:10" />
		<line
   stroke-miterlimit="10"
   x1="352"
   y1="0"
   x2="352"
   y2="512"
   id="line56"
   style="fill:none;stroke:#a9ccdb;stroke-miterlimit:10" />
		<line
   stroke-miterlimit="10"
   x1="384"
   y1="0"
   x2="384"
   y2="512"
   id="line58"
   style="fill:none;stroke:#a9ccdb;stroke-miterlimit:10" />
		<line
   stroke-miterlimit="10"
   x1="416"
   y1="0"
   x2="416"
   y2="512"
   id="line60"
   style="fill:none;stroke:#a9ccdb;stroke-miterlimit:10" />
		<line
   stroke-miterlimit="10"
   x1="448"
   y1="0"
   x2="448"
   y2="512"
   id="line62"
   style="fill:none;stroke:#a9ccdb;stroke-miterlimit:10" />
		<line
   stroke-miterlimit="10"
   x1="480"
   y1="0"
   x2="480"
   y2="512"
   id="line64"
   style="fill:none;stroke:#a9ccdb;stroke-miterlimit:10" />
	</g>
	
<path
   d="m 457.01135,695.95787 c -10.28098,14.67243 -19.16802,29.38291 -29.303,42.93573 -10.84126,14.49727 -29.32197,41.77773 -46.5864,65.10403 -21.83261,23.69005 -40.48542,44.39835 -59.58352,69.08132 -4.31621,4.35708 -8.05019,7.97178 -12.03749,11.02792 -3.85406,2.95399 -7.94474,5.38618 -13.02661,7.46266 -6.5268,2.08145 -13.41009,3.41477 -19.18128,1.99803 -6.3666,-1.56289 -13.26694,-6.09862 -14.95506,-17.04269 -1.13716,-9.06097 4.06629,-16.37918 9.04316,-24.53556 17.92424,-23.39437 37.31445,-41.55007 54.40114,-65.4389 10.05737,-14.06114 26.4877,-33.41014 35.87574,-45.60091 16.97716,-22.59358 34.19353,-47.28219 50.1829,-69.7097 12.36679,-18.60869 26.58261,-34.45433 39.98093,-52.87343 1.30682,-6.85926 13.10534,-29.88344 14.40765,-60.35413 1.48351,-34.71011 -3.73683,-80.94296 -4.09466,-111.31372 -33.24012,-44.21427 -92.53543,-112.09084 -134.29179,-165.44217 -25.33934,-28.17232 -35.10315,-43.53354 -58.52049,-64.40189 -5.17226,10.36937 -9.26004,22.40628 -12.66548,34.30608 -2.91606,10.18967 -5.33179,20.2788 -7.49976,29.13437 -2.33568,12.61669 -8.57531,30.41755 -12.19781,42.87062 -9.6239,30.4983 -19.90493,66.12329 -30.68084,94.88987 -6.0698,12.87012 -13.05059,31.3692 -25.25418,38.19683 -13.66702,7.03242 -29.14005,-2.24489 -30.28525,-15.12878 -1.17307,-7.8905 -0.57222,-15.12888 0.98418,-22.08328 2.86457,-12.7996 8.96597,-24.63719 13.2019,-37.80787 8.25607,-26.72923 24.24241,-84.04406 29.51371,-102.35474 7.17791,-17.60324 12.71409,-35.64775 17.62786,-53.79875 7.72892,-28.54983 13.91804,-57.36314 22.53407,-85.13712 7.87389,-25.60987 23.32691,-16.22718 34.96793,-5.81579 42.07248,42.33443 75.15086,78.58762 115.24077,129.52547 6.36822,9.35437 35.42785,42.58774 54.2137,68.1649 9.85514,13.41788 26.9734,38.4 32.21113,45.40749 -0.27094,-31.51895 0.32851,-85.50903 -1.51441,-111.35003 -1.70042,-23.60566 -1.62173,-45.00221 -2.47134,-65.19678 -1.22697,-29.16564 0.12135,-41.61324 -0.30575,-68.79838 0.80375,-26.02664 5.30982,-62.955327 28.78396,-66.300437 23.76205,-2.72872 30.78538,50.367557 32.44576,65.783747 1.13564,31.36429 0.81552,42.62883 1.4207,70.04236 0.49017,22.20576 0.76197,44.21083 0.74353,67.79001 1.92365,8.52852 1.0906,53.07997 1.43163,79.97307 0.1784,14.06323 0.3337,25.95653 0.66836,30.78441 10.26369,-12.19747 20.32431,-24.08682 30.18423,-35.78566 9.09501,-10.79128 18.01925,-21.42045 26.77458,-31.97985 12.39511,-14.94915 24.45169,-29.75843 36.17501,-44.68978 5.19627,-6.61821 10.32708,-13.26041 15.39287,-19.94939 15.91169,-21.09898 29.55637,-40.44269 43.9931,-61.77047 17.52441,-25.91142 15.79196,-25.42845 21.66414,-33.29378 3.61144,-4.83724 8.05424,-10.227 17.60604,-21.74029 6.99047,-8.46809 14.57415,-11.22035 22.0898,1.70196 17.4677,47.83633 32.43903,91.92122 46.76655,135.38985 14.13173,42.87457 28.08191,88.85181 42.73862,133.53594 4.64851,20.99501 8.221,20.13524 0.37381,49.20574 -10.76561,5.9865 -18.82569,12.63999 -29.36789,1.42714 -11.47748,-8.90406 -12.87039,-31.04139 -18.85245,-48.15223 -10.38754,-29.66521 -14.75949,-44.25765 -22.11926,-67.97314 -6.02679,-21.11537 -15.38695,-47.20931 -21.02968,-67.62135 -5.93904,-21.48381 -12.99025,-39.58654 -22.06426,-60.68669 -13.38624,19.91633 -23.64314,36.30847 -34.05469,51.99722 -12.71531,16.96146 -25.29442,34.39207 -37.85985,51.56517 -8.66198,11.83828 -17.31747,23.55419 -26.0066,34.90969 -8.1771,10.68635 -16.384,21.05351 -24.65414,30.90309 -11.80132,13.83068 -24.49197,27.16292 -36.94359,39.68128 -10.85989,10.91811 -17.6146,19.25543 -27.36228,28.72609 -4.19703,39.34007 -8.14614,69.9747 -7.3912,111.90998 1.45549,16.79546 4.2226,44.10793 8.50766,58.15949 13.48484,22.50383 29.59634,42.55035 46.59242,61.38622 23.54526,26.094 48.78818,49.86465 71.09719,74.6266 8.76421,9.72861 17.43585,19.33155 26.21378,28.62993 8.92198,11.24651 31.44092,32.77643 46.52716,53.48502 11.91051,16.34933 16.04299,31.43874 8.33926,41.2995 -3.59387,3.63543 -9.45401,5.59871 -15.63751,4.61516 -21.66459,-8.24357 -45.86273,-39.46631 -66.55374,-58.69755 -14.67247,-12.02195 -27.90495,-28.14849 -40.21038,-39.76166 -13.33517,-12.5542 -26.90794,-28.88895 -39.37017,-40.58982 -15.42084,-14.51375 -31.30168,-33.72553 -41.66573,-46.47251 0.76514,11.59457 0.61113,31.33248 0.16113,42.9877 -2.69864,44.04425 -1.64998,92.10263 -5.70557,135.4171 -2.47048,27.90344 -6.25524,51.37516 -11.21495,68.80196 -8.64107,9.22116 -13.61286,17.63416 -21.62993,16.43392 -6.59837,-0.98785 -18.36435,-8.19821 -23.50998,-17.88248 -6.70507,-20.92907 -7.26648,-41.94486 -7.28963,-67.37913 -1.21944,-45.33892 -1.54502,-95.05281 -2.9439,-135.44189 -0.52406,-14.00744 -1.4484,-27.72487 -3.1856,-40.92188 z m 10.77644,-23.05784 c -15.39011,16.65843 -35.25531,45.39482 -49.68668,65.29723 -18.15252,24.95861 -37.39983,44.99648 -56.65569,68.79203 -12.70064,17.11708 -22.5697,28.03601 -34.53298,41.28556 -4.47517,7.37918 -16.06871,25.24869 -27.77334,34.05109 -11.57223,6.35988 -22.91284,5.44797 -26.98863,-2.50534 -2.16936,-6.02212 -1.73947,-11.36659 0.11363,-16.14504 3.71457,-9.57878 13.14777,-16.88323 18.82595,-22.81299 11.47166,-12.15273 26.35022,-25.8415 32.83653,-34.02715 18.86411,-23.819 38.56337,-45.31755 54.90013,-69.05523 23.74697,-31.5597 41.45071,-57.4565 59.88821,-83.32845 11.44048,-12.81356 23.51895,-28.5252 26.88876,-38.20914 1.43493,-4.44592 2.71917,-8.84837 3.86993,-13.21855 5.83677,-22.16587 8.23913,-43.501 9.44569,-65.45856 1.23419,-22.80825 1.08634,-45.89601 -0.27874,-69.46455 -0.38054,-6.57035 -0.85568,-13.17805 -1.42186,-19.82745 -22.55634,-28.83367 -28.19191,-33.72226 -39.32564,-50.07535 -14.21735,-18.81099 -27.55363,-35.83867 -40.52168,-51.98316 -19.05985,-23.72852 -37.32414,-45.54924 -56.42091,-68.32015 -26.49539,-31.50333 -52.3648,-60.74962 -76.56154,-85.52411 -1.24721,1.14049 -15.00257,49.65506 -27.19453,91.22979 -15.02867,51.24784 -22.72493,84.02901 -39.74691,132.42278 -3.66051,11.28735 -8.09141,19.8413 -12.43518,25.66495 -12.43384,15.22449 -24.54192,8.9037 -24.63926,-6.58584 -0.002,-8.16133 3.29983,-18.6021 5.28744,-24.84099 17.92103,-47.76475 31.75228,-90.46307 43.03446,-129.69104 6.96095,-24.20311 16.47674,-42.72438 21.85876,-71.49036 2.73921,-14.40955 6.1834,-28.63942 11.68318,-42.72408 8.56285,-27.81302 6.88454,-27.07771 27.7356,-11.08175 22.20764,25.96198 44.75384,47.61564 67.71898,72.07441 18.9773,20.2116 25.77702,34.42899 45.3717,52.70025 11.47901,10.04462 88.14283,115.68217 98.75104,121.68663 3.92732,-45.09425 1.98548,-90.05937 0.98895,-131.93956 -1.12685,-46.79014 -2.99325,-94.02871 -3.50622,-137.63144 -1.08499,-19.92818 0.43046,-43.043927 17.28659,-45.041997 20.7068,3.33921 19.51606,27.648997 19.96489,45.779597 0.85997,46.77057 1.37978,92.28186 2.51488,136.89995 0.0811,45.13693 -0.0503,84.96841 4.95324,130.54418 30.35343,-26.83882 46.95126,-43.30023 65.90651,-64.82378 6.53683,-7.42253 13.35403,-15.4471 21.11243,-24.7069 13.41746,-16.03831 45.44553,-59.76014 57.07871,-76.05658 20.43956,-30.41413 36.24449,-51.04572 55.19285,-80.1893 11.92035,-23.63312 11.92436,-15.16463 19.42613,1.14683 4.57359,9.95039 16.2554,39.06533 17.8333,44.06948 9.76018,30.95329 11.00189,32.85489 23.23051,68.6959 6.5097,19.07938 17.16183,50.46764 22.31793,67.05614 7.76806,24.99177 15.50152,47.07375 21.03519,68.64721 0.3216,8.68345 7.28132,23.6266 6.53786,30.6378 -0.97224,9.16858 -11.84324,12.45258 -15.06122,12.8472 -4.72742,0.57972 -14.46241,-26.58291 -19.84598,-41.54828 -11.46899,-38.03606 -18.87701,-63.67772 -21.27635,-71.77689 -6.91126,-23.2262 -13.55421,-40.80493 -21.34224,-65.66794 -8.42671,-26.902 -17.08134,-51.17574 -22.70592,-65.37971 -4.56058,-11.51702 -6.00859,-17.09866 -8.05025,-16.8679 -10.05304,14.71563 -39.45198,63.59396 -51.52189,80.31302 -20.50305,25.32451 -23.32231,30.96902 -50.75564,68.01391 -4.89366,5.7731 -7.61601,11.07167 -12.53657,16.84564 -16.19618,19.00534 -33.35406,37.22243 -46.0581,51.83325 -14.79643,15.8788 -31.48465,29.92489 -44.76397,46.35959 -0.65229,6.8328 -1.21489,13.65854 -1.6845,20.46864 -1.56726,22.72769 -2.09878,45.28089 -1.47212,67.3401 0.52401,21.50302 2.7324,44.83929 7.80556,64.60854 1.18511,4.61814 2.52654,9.04161 4.03936,13.2016 7.46576,10.3171 10.88007,21.36053 17.12575,32.57625 22.20271,29.4512 41.17315,54.24356 64.43031,76.24743 16.84764,15.94241 37.65941,38.31744 53.84161,54.78319 20.55282,24.30603 39.1508,37.53275 55.16047,58.07555 4.28603,5.49961 8.38653,11.52356 12.28937,18.42482 1.61959,10.53731 -5.02502,14.91661 -9.49675,15.34463 -14.68702,1.40586 -49.03156,-39.81205 -54.07546,-45.46891 -13.86726,-15.65544 -26.71145,-31.74928 -36.89317,-42.13579 -38.3412,-38.85933 -78.77753,-86.30063 -106.78234,-112.02372 -1.51374,50.0724 -3.2785,96.68784 -4.93522,134.1284 -1.17772,26.61466 -4.07526,69.29351 -8.40935,115.98567 -2.79103,10.31125 -2.54176,13.62991 -6.55996,18.51992 -6.13161,7.01511 -20.0279,4.49756 -23.23012,-1.8899 -3.57341,-7.12792 -3.06369,-11.4122 -4.07686,-16.36774 -1.02584,-31.31889 0.60224,-64.72651 -1.89542,-115.65559 -2.47983,-50.56515 -0.77611,-75.79929 -7.16306,-133.05795 z"
   id="path38"
   inkscape:connector-curvature="0"
   sodipodi:nodetypes="csccscsccscccscccscccccsccscccsccscccscscsssccsccscccccsccsscscccsccscccccccccscccccccccccscccccscsccsccsccccscccsccccccccsccccssscssccsscccsccscsccccscscccsccscscc" />
</svg>