<?xml version="1.0" encoding="UTF-8" standalone="no"?>
<svg
   xmlns:dc="http://purl.org/dc/elements/1.1/"
   xmlns:cc="http://creativecommons.org/ns#"
   xmlns:rdf="http://www.w3.org/1999/02/22-rdf-syntax-ns#"
   xmlns:svg="http://www.w3.org/2000/svg"
   xmlns="http://www.w3.org/2000/svg"
   xmlns:sodipodi="http://sodipodi.sourceforge.net/DTD/sodipodi-0.dtd"
   xmlns:inkscape="http://www.inkscape.org/namespaces/inkscape"
   version="1.1"
   id="Layer_1"
   x="0px"
   y="0px"
   width="512px"
   height="512px"
   viewBox="0 0 512 512"
   enable-background="new 0 0 512 512"
   xml:space="preserve"
   inkscape:version="0.48.0 r9654"
   sodipodi:docname="uni7384-x7384.svg"><metadata
   id="metadata72"><rdf:RDF><cc:Work
       rdf:about=""><dc:format>image/svg+xml</dc:format><dc:type
         rdf:resource="http://purl.org/dc/dcmitype/StillImage" /></cc:Work></rdf:RDF></metadata><defs
   id="defs70" /><sodipodi:namedview
   pagecolor="#ffffff"
   bordercolor="#666666"
   borderopacity="1"
   objecttolerance="10"
   gridtolerance="10"
   guidetolerance="10"
   inkscape:pageopacity="0"
   inkscape:pageshadow="2"
   inkscape:window-width="1076"
   inkscape:window-height="806"
   id="namedview68"
   showgrid="false"
   inkscape:zoom="0.50976562"
   inkscape:cx="256"
   inkscape:cy="256"
   inkscape:window-x="0"
   inkscape:window-y="0"
   inkscape:window-maximized="0"
   inkscape:current-layer="Layer_1" />
	<g
   id="Grid"
   transform="matrix(1,0,0,-1,0,512)">
		<rect
   x="0"
   stroke-miterlimit="10"
   width="512"
   height="512"
   id="rect4"
   y="0"
   style="fill:none;stroke:#a9ccdb;stroke-miterlimit:10" />
		<line
   stroke-miterlimit="10"
   x1="0"
   y1="32"
   x2="512"
   y2="32"
   id="line6"
   style="fill:none;stroke:#a9ccdb;stroke-miterlimit:10" />
		<line
   stroke-miterlimit="10"
   x1="0"
   y1="64"
   x2="512"
   y2="64"
   id="line8"
   style="fill:none;stroke:#a9ccdb;stroke-miterlimit:10" />
		<line
   stroke-miterlimit="10"
   x1="0"
   y1="96"
   x2="512"
   y2="96"
   id="line10"
   style="fill:none;stroke:#a9ccdb;stroke-miterlimit:10" />
		<line
   stroke-miterlimit="10"
   x1="0"
   y1="128"
   x2="512"
   y2="128"
   id="line12"
   style="fill:none;stroke:#a9ccdb;stroke-miterlimit:10" />
		<line
   stroke-miterlimit="10"
   x1="0"
   y1="160"
   x2="512"
   y2="160"
   id="line14"
   style="fill:none;stroke:#a9ccdb;stroke-miterlimit:10" />
		<line
   stroke-miterlimit="10"
   x1="0"
   y1="192"
   x2="512"
   y2="192"
   id="line16"
   style="fill:none;stroke:#a9ccdb;stroke-miterlimit:10" />
		<line
   stroke-miterlimit="10"
   x1="0"
   y1="224"
   x2="512"
   y2="224"
   id="line18"
   style="fill:none;stroke:#a9ccdb;stroke-miterlimit:10" />
		<line
   stroke-miterlimit="10"
   x1="0"
   y1="256"
   x2="512"
   y2="256"
   id="line20"
   style="fill:none;stroke:#a9ccdb;stroke-miterlimit:10" />
		<line
   stroke-miterlimit="10"
   x1="0"
   y1="288"
   x2="512"
   y2="288"
   id="line22"
   style="fill:none;stroke:#a9ccdb;stroke-miterlimit:10" />
		<line
   stroke-miterlimit="10"
   x1="0"
   y1="320"
   x2="512"
   y2="320"
   id="line24"
   style="fill:none;stroke:#a9ccdb;stroke-miterlimit:10" />
		<line
   stroke-miterlimit="10"
   x1="0"
   y1="352"
   x2="512"
   y2="352"
   id="line26"
   style="fill:none;stroke:#a9ccdb;stroke-miterlimit:10" />
		<line
   stroke-miterlimit="10"
   x1="0"
   y1="384"
   x2="512"
   y2="384"
   id="line28"
   style="fill:none;stroke:#a9ccdb;stroke-miterlimit:10" />
		<line
   stroke-miterlimit="10"
   x1="0"
   y1="416"
   x2="512"
   y2="416"
   id="line30"
   style="fill:none;stroke:#a9ccdb;stroke-miterlimit:10" />
		<line
   stroke-miterlimit="10"
   x1="0"
   y1="448"
   x2="512"
   y2="448"
   id="line32"
   style="fill:none;stroke:#ff0000;stroke-miterlimit:10" />
		<line
   stroke-miterlimit="10"
   x1="0"
   y1="480"
   x2="512"
   y2="480"
   id="line34"
   style="fill:none;stroke:#a9ccdb;stroke-miterlimit:10" />
		<line
   stroke-miterlimit="10"
   x1="32"
   y1="0"
   x2="32"
   y2="512"
   id="line36"
   style="fill:none;stroke:#a9ccdb;stroke-miterlimit:10" />
		<line
   stroke-miterlimit="10"
   x1="64"
   y1="0"
   x2="64"
   y2="512"
   id="line38"
   style="fill:none;stroke:#a9ccdb;stroke-miterlimit:10" />
		<line
   stroke-miterlimit="10"
   x1="96"
   y1="0"
   x2="96"
   y2="512"
   id="line40"
   style="fill:none;stroke:#a9ccdb;stroke-miterlimit:10" />
		<line
   stroke-miterlimit="10"
   x1="128"
   y1="0"
   x2="128"
   y2="512"
   id="line42"
   style="fill:none;stroke:#a9ccdb;stroke-miterlimit:10" />
		<line
   stroke-miterlimit="10"
   x1="160"
   y1="0"
   x2="160"
   y2="512"
   id="line44"
   style="fill:none;stroke:#a9ccdb;stroke-miterlimit:10" />
		<line
   stroke-miterlimit="10"
   x1="192"
   y1="0"
   x2="192"
   y2="512"
   id="line46"
   style="fill:none;stroke:#a9ccdb;stroke-miterlimit:10" />
		<line
   stroke-miterlimit="10"
   x1="224"
   y1="0"
   x2="224"
   y2="512"
   id="line48"
   style="fill:none;stroke:#a9ccdb;stroke-miterlimit:10" />
		<line
   stroke-miterlimit="10"
   x1="256"
   y1="0"
   x2="256"
   y2="512"
   id="line50"
   style="fill:none;stroke:#a9ccdb;stroke-miterlimit:10" />
		<line
   stroke-miterlimit="10"
   x1="288"
   y1="0"
   x2="288"
   y2="512"
   id="line52"
   style="fill:none;stroke:#a9ccdb;stroke-miterlimit:10" />
		<line
   stroke-miterlimit="10"
   x1="320"
   y1="0"
   x2="320"
   y2="512"
   id="line54"
   style="fill:none;stroke:#a9ccdb;stroke-miterlimit:10" />
		<line
   stroke-miterlimit="10"
   x1="352"
   y1="0"
   x2="352"
   y2="512"
   id="line56"
   style="fill:none;stroke:#a9ccdb;stroke-miterlimit:10" />
		<line
   stroke-miterlimit="10"
   x1="384"
   y1="0"
   x2="384"
   y2="512"
   id="line58"
   style="fill:none;stroke:#a9ccdb;stroke-miterlimit:10" />
		<line
   stroke-miterlimit="10"
   x1="416"
   y1="0"
   x2="416"
   y2="512"
   id="line60"
   style="fill:none;stroke:#a9ccdb;stroke-miterlimit:10" />
		<line
   stroke-miterlimit="10"
   x1="448"
   y1="0"
   x2="448"
   y2="512"
   id="line62"
   style="fill:none;stroke:#a9ccdb;stroke-miterlimit:10" />
		<line
   stroke-miterlimit="10"
   x1="480"
   y1="0"
   x2="480"
   y2="512"
   id="line64"
   style="fill:none;stroke:#a9ccdb;stroke-miterlimit:10" />
	</g>
	<path
   d="m 611.38697,348.49808 q -12,1 -24.5,9 -12.5,8 -19,26.5 -6.5,18.5 -6,33.5 0.5,15 1.5,23 -1,4 0,11.5 1,7.5 7.5,17.5 6.5,10 14.5,15.5 8,5.5 14,7.5 25,1 62,1.5 37,0.5 86,0 49,-0.5 86,-1 37,-0.5 62,-0.5 9,-1 22.5,0.5 13.5,1.5 32,2 18.5,0.5 33,-5 14.5,-5.5 24.50003,-13.5 6,-7 10.5,-18.5 4.5,-11.5 5,-27.5 0.5,-16 0,-27.5 -0.5,-11.5 0.5,-18.5 -3,-4 -7,-10 -4,-6 -10,-12.5 -6,-6.5 -12.00003,-9.5 -6,-3 -11,-4 -15,-2 -37,-3 -22,-1 -51,-0.5 -29,0.5 -51,0.5 -22,0 -37,-1 v -24 h 37 q 22,0 51,-0.5 29,-0.5 51,-1.5 22,-1 37,-2 13,-4 24.50003,-14.5 11.5,-10.5 14.5,-29.5 3,-19 0.5,-33.5 -2.5,-14.5 -3.5,-22.5 -2,-12 -10.5,-24 -8.5,-12 -26.50003,-17.5 -18,-5.5 -32.5,-4.5 -14.5,1 -22.5,2 h -120 v -5 -6.5 -5.5 -3 -44 q 13,1 33,3 20,2 47,5.5 27,3.5 47,6.5 20,3 33,5 4,0 11,1.5 7,1.5 17,2.5 10.00003,1 17.00003,-1.5 7,-2.5 11,-6.5 v -8 l -8,-8 q -17.00003,-3 -43.00003,-7 -26,-3.999996 -61,-8.499996 -35,-4.5 -61,-7.5 -26,-3 -43,-5 v -7.5 -10.5 -10.5 -7.5 l -2,-4 q -1,-2 -2,-3.5 -1,-1.5 -2,-2.5 l -2,-2 h -5 q -3,0 -6.5,0.5 -3.5,0.5 -5.5,1.5 -2,1 -3,2 v 44 q -18,2 -44.5,5.5 -26.5,3.5 -61,8 -34.5,4.5 -60,6.999996 -25.5,2.5 -42.5,3.5 l -8,8 v 8 l 4,12 h 0.5 1.5 1.5 0.5 q 17,-1 42.5,-3.5 25.5,-2.5 60,-6.5 34.5,-4 61,-6.5 26.5,-2.5 44.5,-3.5 v 60 h -14.5 -19 -18 -12.5 q -12,2 -34,0 -22,-2 -51,0.5 -29,2.5 -45,17.5 -16,15 -22,34 v 8 12.5 13.5 10 q 0,9 5.5,21.5 5.5,12.5 20,22.5 14.5,10 27,10.5 12.5,0.5 19.5,-2.5 h 120 5 7 7 5 v 5 7.5 8.5 7 q -14,-1 -35,-1.5 -21,-0.5 -49,0 -28,0.5 -49,1 -21,0.5 -35,0.5 z m 124,116 h -64 q -6,-1 -15.5,-0.5 -9.5,0.5 -22.5,0.5 -13,0 -22.5,-3.5 -9.5,-3.5 -15.5,-8.5 l -4,-4 q 1,-3 1.5,-7.5 0.5,-4.5 0,-10 -0.5,-5.5 -1,-9 -0.5,-3.5 -0.5,-5.5 -2,-11 2.5,-22 4.5,-11 20,-16 15.5,-5 29,-4 13.5,1 20.5,2 h 268 q 4,0 10.5,-1 6.5,-1 16,-1.5 9.5,-0.5 17,1.5 7.5,2 12.5,5 0,1 0.5,2.5 0.5,1.5 2,3.5 1.5,2 3,3.5 l 2.5,2.5 -4,56 -2.5,2.5 q -1.5,1.5 -3.5,4 -2,2.5 -3.5,5 -1.5,2.5 -2.5,4.5 -20,0 -50.5,-0.5 -30.5,-0.5 -71.5,-1 -41,-0.5 -71.5,0 -30.5,0.5 -50.5,1.5 z m -124,-260 h 44 5 7 7 5 88 3 5.5 6.5 5 80 7.5 10.5 10.5 7.5 60 q 2,-1 5,-1.5 3,-0.5 7,0.5 4,1 7,2.5 l 5,2.5 q 1,1 2,2.5 1,1.5 2,3.5 1,2 2,3.5 1,1.5 2,2.5 -1,6 -0.5,17.5 0.5,11.5 -1.5,26 -2,14.5 -9.5,21 -7.5,6.5 -16.5,7.5 h -56 -47.5 -66.5 -66.5 -47.5 q -7,-2 -18,-1.5 -11,0.5 -26.5,1 -15.5,0.5 -27.5,-4 -12,-4.5 -20,-11.5 1,-6 0,-16 -1,-10 -0.5,-23 0.5,-13 6.5,-21 6,-8 14,-12 z"
   id="path66"
   inkscape:connector-curvature="0" />
</svg>