<?xml version="1.0" encoding="UTF-8" standalone="no"?>
<svg
   xmlns:dc="http://purl.org/dc/elements/1.1/"
   xmlns:cc="http://creativecommons.org/ns#"
   xmlns:rdf="http://www.w3.org/1999/02/22-rdf-syntax-ns#"
   xmlns:svg="http://www.w3.org/2000/svg"
   xmlns="http://www.w3.org/2000/svg"
   xmlns:sodipodi="http://sodipodi.sourceforge.net/DTD/sodipodi-0.dtd"
   xmlns:inkscape="http://www.inkscape.org/namespaces/inkscape"
   version="1.1"
   id="Layer_1"
   x="0px"
   y="0px"
   width="1000"
   height="1024"
   viewBox="0 0 1000 1024"
   enable-background="new 0 0 512 512"
   xml:space="preserve"
   inkscape:version="0.48.0 r9654"
   sodipodi:docname="uni7F8A-x2f7a.svg"><metadata
   id="metadata72"><rdf:RDF><cc:Work
       rdf:about=""><dc:format>image/svg+xml</dc:format><dc:type
         rdf:resource="http://purl.org/dc/dcmitype/StillImage" /></cc:Work></rdf:RDF></metadata><defs
   id="defs70" /><sodipodi:namedview
   pagecolor="#ffffff"
   bordercolor="#666666"
   borderopacity="1"
   objecttolerance="10"
   gridtolerance="10"
   guidetolerance="10"
   inkscape:pageopacity="0"
   inkscape:pageshadow="2"
   inkscape:window-width="983"
   inkscape:window-height="666"
   id="namedview68"
   showgrid="false"
   inkscape:zoom="0.18022937"
   inkscape:cx="461.64709"
   inkscape:cy="543.92659"
   inkscape:window-x="138"
   inkscape:window-y="138"
   inkscape:window-maximized="0"
   inkscape:current-layer="Layer_1" />
	<g
   id="Grid"
   transform="matrix(1.9521633,0,0,1.9942267,0.47608165,2.4588296)">
		<rect
   x="0"
   stroke-miterlimit="10"
   width="512"
   height="512"
   id="rect4"
   y="0"
   style="fill:none;stroke:#a9ccdb;stroke-miterlimit:10" />
		<line
   stroke-miterlimit="10"
   x1="0"
   y1="32"
   x2="512"
   y2="32"
   id="line6"
   style="fill:none;stroke:#a9ccdb;stroke-miterlimit:10" />
		<line
   stroke-miterlimit="10"
   x1="0"
   y1="64"
   x2="512"
   y2="64"
   id="line8"
   style="fill:none;stroke:#a9ccdb;stroke-miterlimit:10" />
		<line
   stroke-miterlimit="10"
   x1="0"
   y1="96"
   x2="512"
   y2="96"
   id="line10"
   style="fill:none;stroke:#a9ccdb;stroke-miterlimit:10" />
		<line
   stroke-miterlimit="10"
   x1="0"
   y1="128"
   x2="512"
   y2="128"
   id="line12"
   style="fill:none;stroke:#a9ccdb;stroke-miterlimit:10" />
		<line
   stroke-miterlimit="10"
   x1="0"
   y1="160"
   x2="512"
   y2="160"
   id="line14"
   style="fill:none;stroke:#a9ccdb;stroke-miterlimit:10" />
		<line
   stroke-miterlimit="10"
   x1="0"
   y1="192"
   x2="512"
   y2="192"
   id="line16"
   style="fill:none;stroke:#a9ccdb;stroke-miterlimit:10" />
		<line
   stroke-miterlimit="10"
   x1="0"
   y1="224"
   x2="512"
   y2="224"
   id="line18"
   style="fill:none;stroke:#a9ccdb;stroke-miterlimit:10" />
		<line
   stroke-miterlimit="10"
   x1="0"
   y1="256"
   x2="512"
   y2="256"
   id="line20"
   style="fill:none;stroke:#a9ccdb;stroke-miterlimit:10" />
		<line
   stroke-miterlimit="10"
   x1="0"
   y1="288"
   x2="512"
   y2="288"
   id="line22"
   style="fill:none;stroke:#a9ccdb;stroke-miterlimit:10" />
		<line
   stroke-miterlimit="10"
   x1="0"
   y1="320"
   x2="512"
   y2="320"
   id="line24"
   style="fill:none;stroke:#a9ccdb;stroke-miterlimit:10" />
		<line
   stroke-miterlimit="10"
   x1="0"
   y1="352"
   x2="512"
   y2="352"
   id="line26"
   style="fill:none;stroke:#a9ccdb;stroke-miterlimit:10" />
		<line
   stroke-miterlimit="10"
   x1="0"
   y1="384"
   x2="512"
   y2="384"
   id="line28"
   style="fill:none;stroke:#a9ccdb;stroke-miterlimit:10" />
		<line
   stroke-miterlimit="10"
   x1="0"
   y1="416"
   x2="512"
   y2="416"
   id="line30"
   style="fill:none;stroke:#a9ccdb;stroke-miterlimit:10" />
		<line
   stroke-miterlimit="10"
   x1="0"
   y1="448"
   x2="512"
   y2="448"
   id="line32"
   style="fill:none;stroke:#ff0000;stroke-miterlimit:10" />
		<line
   stroke-miterlimit="10"
   x1="0"
   y1="480"
   x2="512"
   y2="480"
   id="line34"
   style="fill:none;stroke:#a9ccdb;stroke-miterlimit:10" />
		<line
   stroke-miterlimit="10"
   x1="32"
   y1="0"
   x2="32"
   y2="512"
   id="line36"
   style="fill:none;stroke:#a9ccdb;stroke-miterlimit:10" />
		<line
   stroke-miterlimit="10"
   x1="64"
   y1="0"
   x2="64"
   y2="512"
   id="line38"
   style="fill:none;stroke:#a9ccdb;stroke-miterlimit:10" />
		<line
   stroke-miterlimit="10"
   x1="96"
   y1="0"
   x2="96"
   y2="512"
   id="line40"
   style="fill:none;stroke:#a9ccdb;stroke-miterlimit:10" />
		<line
   stroke-miterlimit="10"
   x1="128"
   y1="0"
   x2="128"
   y2="512"
   id="line42"
   style="fill:none;stroke:#a9ccdb;stroke-miterlimit:10" />
		<line
   stroke-miterlimit="10"
   x1="160"
   y1="0"
   x2="160"
   y2="512"
   id="line44"
   style="fill:none;stroke:#a9ccdb;stroke-miterlimit:10" />
		<line
   stroke-miterlimit="10"
   x1="192"
   y1="0"
   x2="192"
   y2="512"
   id="line46"
   style="fill:none;stroke:#a9ccdb;stroke-miterlimit:10" />
		<line
   stroke-miterlimit="10"
   x1="224"
   y1="0"
   x2="224"
   y2="512"
   id="line48"
   style="fill:none;stroke:#a9ccdb;stroke-miterlimit:10" />
		<line
   stroke-miterlimit="10"
   x1="256"
   y1="0"
   x2="256"
   y2="512"
   id="line50"
   style="fill:none;stroke:#a9ccdb;stroke-miterlimit:10" />
		<line
   stroke-miterlimit="10"
   x1="288"
   y1="0"
   x2="288"
   y2="512"
   id="line52"
   style="fill:none;stroke:#a9ccdb;stroke-miterlimit:10" />
		<line
   stroke-miterlimit="10"
   x1="320"
   y1="0"
   x2="320"
   y2="512"
   id="line54"
   style="fill:none;stroke:#a9ccdb;stroke-miterlimit:10" />
		<line
   stroke-miterlimit="10"
   x1="352"
   y1="0"
   x2="352"
   y2="512"
   id="line56"
   style="fill:none;stroke:#a9ccdb;stroke-miterlimit:10" />
		<line
   stroke-miterlimit="10"
   x1="384"
   y1="0"
   x2="384"
   y2="512"
   id="line58"
   style="fill:none;stroke:#a9ccdb;stroke-miterlimit:10" />
		<line
   stroke-miterlimit="10"
   x1="416"
   y1="0"
   x2="416"
   y2="512"
   id="line60"
   style="fill:none;stroke:#a9ccdb;stroke-miterlimit:10" />
		<line
   stroke-miterlimit="10"
   x1="448"
   y1="0"
   x2="448"
   y2="512"
   id="line62"
   style="fill:none;stroke:#a9ccdb;stroke-miterlimit:10" />
		<line
   stroke-miterlimit="10"
   x1="480"
   y1="0"
   x2="480"
   y2="512"
   id="line64"
   style="fill:none;stroke:#a9ccdb;stroke-miterlimit:10" />
	</g>

<path
   style="fill:#080808"
   d="m 316.33311,142.42433 c -27.05882,22.37941 -52.91412,49.02769 -77.7559,69.06867 -23.83406,26.52926 -63.09003,51.91931 -96.54814,79.55205 -28.64465,23.65734 -53.039637,48.95849 -59.869202,78.02563 -2.569296,13.81802 3.386488,27.45661 30.515602,27.42393 18.60694,2.04575 81.86481,0.28902 131.50658,2.9059 32.14645,1.6946 46.68205,-3.31826 70.56733,-0.61378 27.63844,3.12945 41.914,-1.62813 44.96791,9.04014 7.01581,24.14433 1.42332,53.39781 3.89921,77.34977 5.70001,55.14271 2.15908,103.19396 2.22526,160.48288 l -49.86539,68.79577 c -25.96254,35.81871 -56.71996,59.96951 -65.09777,59.96951 -8.37782,0 -32.03664,-26.51372 -57.37209,-45.97417 -14.15224,-11.91243 -24.10388,-20.801 -43.97985,-37.5046 -8.82015,-7.41238 -17.86371,-15.5852 -24.01908,-23.51093 21.50029,-41.72538 53.64995,-90.86084 74.85841,-123.9026 15.2557,-18.49467 5.56423,-37.35597 -5.13813,-42.10611 -11.04942,-4.90418 -31.41386,3.00222 -43.78461,13.51916 -9.40325,10.32842 -14.69551,21.17129 -19.50959,32.11798 -5.13241,11.67051 -9.72135,23.45902 -18.16896,34.86793 -9.51361,12.97546 -17.129429,26.07113 -27.712373,37.23375 -6.613483,6.97572 -14.385697,13.19655 -24.503924,18.16138 -20.479288,8.11371 -13.216623,38.37599 12.006793,50.03032 17.989966,10.44565 36.175684,25.38032 52.830244,40.15746 7.52039,6.67265 14.72859,13.31318 21.46558,19.4938 22.93134,21.69654 49.44441,40.04251 69.31471,64.13792 19.86994,24.49417 50.8434,25.10453 69.89903,1.37741 33.67163,-41.92623 106.75944,-103.84094 122.58002,-103.84094 9.8371,0 24.00391,10.39092 31.48182,23.09092 7.78973,6.53394 17.35591,16.35492 27.32682,27.32604 10.58784,11.64992 21.63204,24.59669 31.4902,36.28176 16.58487,19.65835 28.34513,35.74567 46.8925,36.0791 9.17759,-0.2055 41.0003,-19.83864 70.71713,-43.62911 29.71681,-23.79047 71.59052,-56.08075 93.05266,-71.75615 25.60795,-18.7034 39.93091,-40.58807 39.36573,-55.94224 -2.77433,-5.65574 -6.01914,-10.99439 -9.33144,-16.02675 -19.44962,-27.00324 -19.06719,-35.99834 -40.86022,-57.52954 -16.57183,-14.39033 -30.47079,-38.90529 -42.5731,-56.12245 -7.54334,-10.73143 -15.15108,-21.37086 -23.98576,-31.11912 -7.19125,-7.82992 -19.9564,-8.20493 -27.65183,-9.84931 -7.74227,-1.65438 -11.98241,4.93033 -19.01638,16.79026 -7.0709,13.93086 -4.97824,21.00522 0.90459,26.90309 4.75229,4.76445 11.97798,8.76114 18.84434,14.98441 10.30255,9.36416 22.58594,27.33675 31.86046,37.96948 8.16756,9.36363 15.52354,18.51101 21.34058,26.19486 12.69637,17.7051 33.39887,30.66502 29.69731,48.17485 -4.80911,19.72085 -38.52403,40.22 -59.06588,59.06001 -16.01695,14.68998 -25.95877,24.36324 -43.26292,37.18578 -17.41971,16.56215 -28.08761,20.69344 -39.00068,15.80326 -16.37604,-7.33815 -28.88533,-31.0156 -47.90898,-47.58242 -18.02837,-15.52155 -42.69246,-57.90692 -56.71517,-74.07178 -12.049,-49.07009 -6.53452,-113.2314 -7.16116,-163.67607 l 0.90077,-76.63326 c 23.16884,-4.07334 38.07424,-7.67353 60.53777,-8.28938 28.14493,-0.77162 57.24666,-0.97074 86.16011,0.51259 30.07961,1.54316 61.91783,4.76197 90.30057,3.40055 18.62222,-0.94968 41.45445,3.93466 55.78084,-4.80746 -14.69185,-19.80766 -32.30538,-41.40733 -51.51151,-63.60418 -5.10202,-5.89648 -10.31643,-11.83511 -15.61831,-17.79348 -23.95102,-26.91672 -49.68715,-54.23638 -74.9115,-79.89403 -34.38619,-34.97691 -67.82132,-66.86528 -94.48668,-90.43405 -36.37355,-30.0366 -58.13755,-71.58535 -90.49776,-69.2917 -24.30124,1.72243 -58.85669,39.71572 -86.40659,62.03729 z m 131.16263,38.05762 c 0,5.55173 10.80604,17.5297 24.01359,26.61763 12.13928,8.35287 16.21595,7.66293 16.90339,24.14871 0.76758,18.4074 4.67513,46.81187 -6.85896,51.38157 -6.60375,2.61634 -6.11968,16.90309 -6.11968,31.74826 0,11.30585 3.11215,29.88461 -1.51196,37.76633 -11.07693,8.16804 -32.94682,11.15149 -38.91367,8.00291 -18.29932,-9.65621 -2.48571,-62.14932 -2.45153,-79.44015 1.22321,-14.53153 -0.92626,-23.17102 -1.81679,-33.54549 -0.90093,-10.49541 -0.55942,-22.72511 -2.16837,-37.40008 -1.57813,-14.39389 -5.15969,-42.66555 -0.32044,-56.33612 5.2691,-12.92907 16.95203,-9.60303 19.24442,27.05643 z m -99.03177,27.24508 c 8.62729,7.28557 12.28395,41.93082 13.98897,69.71646 2.63938,28.87363 4.94759,54.54213 -7.31403,66.05851 -8.29399,7.7899 -23.2543,9.1046 -49.28765,0.55609 -15.31443,-5.9959 -12.4815,-13.31245 -12.4815,-36.44158 0,-20.71377 -7.36543,-51.78344 -13.96916,-51.78344 -20.99415,0 -11.44129,-30.77323 10.96746,-39.14021 27.83787,-10.39398 39.69251,-24.50712 58.09591,-8.96583 z m -93.98574,93.49292 c 4.41703,15.67885 8.29646,37.851 2.43538,45.88272 -12.21509,6.74036 -6.37087,9.04052 -26.86343,10.51552 -23.59365,1.69822 -73.79292,1.72797 -89.46442,-3.31218 -13.45416,-5.42085 7.93641,-27.6418 32.71603,-42.01752 13.20749,-7.66222 24.0136,-18.58992 24.0136,-24.2838 0,-5.78513 12.66381,-10.35263 28.70338,-10.35263 24.16057,0 23.70939,-0.72749 28.45946,23.56789 z m 363.80639,40.75231 c 10.46575,5.77025 28.23913,16.09514 28.23913,19.39263 0,6.29016 -16.90485,0.20141 -58.51996,-1.41672 -34.45821,2.60896 -72.7784,8.65595 -72.62458,-17.73358 -4.05663,-19.11138 1.27764,-58.46115 0.66589,-82.71543 -9.59737,-63.14954 44.73217,14.93936 51.40055,42.80299 2.94634,34.09963 25.49654,25.80903 50.83897,39.67011 z"
   id="path3801"
   inkscape:connector-curvature="0"
   sodipodi:nodetypes="ccsccsscscsscsccscscsccsccsscsscsscccscscscsccscsccccssccssscsccsssscscssccscscssssccscsssccsccccc" />
	 
</svg>