<?xml version="1.0" encoding="UTF-8" standalone="no"?>
<svg
   xmlns:dc="http://purl.org/dc/elements/1.1/"
   xmlns:cc="http://creativecommons.org/ns#"
   xmlns:rdf="http://www.w3.org/1999/02/22-rdf-syntax-ns#"
   xmlns:svg="http://www.w3.org/2000/svg"
   xmlns="http://www.w3.org/2000/svg"
   xmlns:sodipodi="http://sodipodi.sourceforge.net/DTD/sodipodi-0.dtd"
   xmlns:inkscape="http://www.inkscape.org/namespaces/inkscape"
   version="1.1"
   id="Layer_1"
   x="0px"
   y="0px"
   width="1024"
   height="1024"
   viewBox="0 0 1024 1024"
   enable-background="new 0 0 512 512"
   xml:space="preserve"
   inkscape:version="0.48.0 r9654"
   sodipodi:docname="uni9580-x2fa8.svg"><metadata
   id="metadata72"><rdf:RDF><cc:Work
       rdf:about=""><dc:format>image/svg+xml</dc:format><dc:type
         rdf:resource="http://purl.org/dc/dcmitype/StillImage" /></cc:Work></rdf:RDF></metadata><defs
   id="defs70" /><sodipodi:namedview
   pagecolor="#ffffff"
   bordercolor="#666666"
   borderopacity="1"
   objecttolerance="10"
   gridtolerance="10"
   guidetolerance="10"
   inkscape:pageopacity="0"
   inkscape:pageshadow="2"
   inkscape:window-width="1152"
   inkscape:window-height="814"
   id="namedview68"
   showgrid="false"
   inkscape:zoom="0.36045873"
   inkscape:cx="-282.97317"
   inkscape:cy="484.59818"
   inkscape:window-x="-8"
   inkscape:window-y="-8"
   inkscape:window-maximized="1"
   inkscape:current-layer="Layer_1" />
	<g
   id="Grid"
   transform="matrix(2.0004579,0,0,1.9896421,0.50022895,4.8084004)">
		<rect
   x="0"
   stroke-miterlimit="10"
   width="512"
   height="512"
   id="rect4"
   y="0"
   style="fill:none;stroke:#a9ccdb;stroke-miterlimit:10" />
		<line
   stroke-miterlimit="10"
   x1="0"
   y1="32"
   x2="512"
   y2="32"
   id="line6"
   style="fill:none;stroke:#a9ccdb;stroke-miterlimit:10" />
		<line
   stroke-miterlimit="10"
   x1="0"
   y1="64"
   x2="512"
   y2="64"
   id="line8"
   style="fill:none;stroke:#a9ccdb;stroke-miterlimit:10" />
		<line
   stroke-miterlimit="10"
   x1="0"
   y1="96"
   x2="512"
   y2="96"
   id="line10"
   style="fill:none;stroke:#a9ccdb;stroke-miterlimit:10" />
		<line
   stroke-miterlimit="10"
   x1="0"
   y1="128"
   x2="512"
   y2="128"
   id="line12"
   style="fill:none;stroke:#a9ccdb;stroke-miterlimit:10" />
		<line
   stroke-miterlimit="10"
   x1="0"
   y1="160"
   x2="512"
   y2="160"
   id="line14"
   style="fill:none;stroke:#a9ccdb;stroke-miterlimit:10" />
		<line
   stroke-miterlimit="10"
   x1="0"
   y1="192"
   x2="512"
   y2="192"
   id="line16"
   style="fill:none;stroke:#a9ccdb;stroke-miterlimit:10" />
		<line
   stroke-miterlimit="10"
   x1="0"
   y1="224"
   x2="512"
   y2="224"
   id="line18"
   style="fill:none;stroke:#a9ccdb;stroke-miterlimit:10" />
		<line
   stroke-miterlimit="10"
   x1="0"
   y1="256"
   x2="512"
   y2="256"
   id="line20"
   style="fill:none;stroke:#a9ccdb;stroke-miterlimit:10" />
		<line
   stroke-miterlimit="10"
   x1="0"
   y1="288"
   x2="512"
   y2="288"
   id="line22"
   style="fill:none;stroke:#a9ccdb;stroke-miterlimit:10" />
		<line
   stroke-miterlimit="10"
   x1="0"
   y1="320"
   x2="512"
   y2="320"
   id="line24"
   style="fill:none;stroke:#a9ccdb;stroke-miterlimit:10" />
		<line
   stroke-miterlimit="10"
   x1="0"
   y1="352"
   x2="512"
   y2="352"
   id="line26"
   style="fill:none;stroke:#a9ccdb;stroke-miterlimit:10" />
		<line
   stroke-miterlimit="10"
   x1="0"
   y1="384"
   x2="512"
   y2="384"
   id="line28"
   style="fill:none;stroke:#a9ccdb;stroke-miterlimit:10" />
		<line
   stroke-miterlimit="10"
   x1="0"
   y1="416"
   x2="512"
   y2="416"
   id="line30"
   style="fill:none;stroke:#a9ccdb;stroke-miterlimit:10" />
		<line
   stroke-miterlimit="10"
   x1="0"
   y1="448"
   x2="512"
   y2="448"
   id="line32"
   style="fill:none;stroke:#ff0000;stroke-miterlimit:10" />
		<line
   stroke-miterlimit="10"
   x1="0"
   y1="480"
   x2="512"
   y2="480"
   id="line34"
   style="fill:none;stroke:#a9ccdb;stroke-miterlimit:10" />
		<line
   stroke-miterlimit="10"
   x1="32"
   y1="0"
   x2="32"
   y2="512"
   id="line36"
   style="fill:none;stroke:#a9ccdb;stroke-miterlimit:10" />
		<line
   stroke-miterlimit="10"
   x1="64"
   y1="0"
   x2="64"
   y2="512"
   id="line38"
   style="fill:none;stroke:#a9ccdb;stroke-miterlimit:10" />
		<line
   stroke-miterlimit="10"
   x1="96"
   y1="0"
   x2="96"
   y2="512"
   id="line40"
   style="fill:none;stroke:#a9ccdb;stroke-miterlimit:10" />
		<line
   stroke-miterlimit="10"
   x1="128"
   y1="0"
   x2="128"
   y2="512"
   id="line42"
   style="fill:none;stroke:#a9ccdb;stroke-miterlimit:10" />
		<line
   stroke-miterlimit="10"
   x1="160"
   y1="0"
   x2="160"
   y2="512"
   id="line44"
   style="fill:none;stroke:#a9ccdb;stroke-miterlimit:10" />
		<line
   stroke-miterlimit="10"
   x1="192"
   y1="0"
   x2="192"
   y2="512"
   id="line46"
   style="fill:none;stroke:#a9ccdb;stroke-miterlimit:10" />
		<line
   stroke-miterlimit="10"
   x1="224"
   y1="0"
   x2="224"
   y2="512"
   id="line48"
   style="fill:none;stroke:#a9ccdb;stroke-miterlimit:10" />
		<line
   stroke-miterlimit="10"
   x1="256"
   y1="0"
   x2="256"
   y2="512"
   id="line50"
   style="fill:none;stroke:#a9ccdb;stroke-miterlimit:10" />
		<line
   stroke-miterlimit="10"
   x1="288"
   y1="0"
   x2="288"
   y2="512"
   id="line52"
   style="fill:none;stroke:#a9ccdb;stroke-miterlimit:10" />
		<line
   stroke-miterlimit="10"
   x1="320"
   y1="0"
   x2="320"
   y2="512"
   id="line54"
   style="fill:none;stroke:#a9ccdb;stroke-miterlimit:10" />
		<line
   stroke-miterlimit="10"
   x1="352"
   y1="0"
   x2="352"
   y2="512"
   id="line56"
   style="fill:none;stroke:#a9ccdb;stroke-miterlimit:10" />
		<line
   stroke-miterlimit="10"
   x1="384"
   y1="0"
   x2="384"
   y2="512"
   id="line58"
   style="fill:none;stroke:#a9ccdb;stroke-miterlimit:10" />
		<line
   stroke-miterlimit="10"
   x1="416"
   y1="0"
   x2="416"
   y2="512"
   id="line60"
   style="fill:none;stroke:#a9ccdb;stroke-miterlimit:10" />
		<line
   stroke-miterlimit="10"
   x1="448"
   y1="0"
   x2="448"
   y2="512"
   id="line62"
   style="fill:none;stroke:#a9ccdb;stroke-miterlimit:10" />
		<line
   stroke-miterlimit="10"
   x1="480"
   y1="0"
   x2="480"
   y2="512"
   id="line64"
   style="fill:none;stroke:#a9ccdb;stroke-miterlimit:10" />
	</g>
	
<path
   style="fill:#171717"
   d="m 697.67419,293.63437 c -18.55795,7.64645 -38.6783,4.15805 -61.90369,9.096 -15.11028,2.88019 -51.34269,6.68566 -61.59576,-0.50059 -15.74541,-6.77826 -24.50039,0.56596 -28.21702,16.01512 -1.25998,14.45091 -0.1412,35.98142 0.0696,50.28583 0.26306,24.39214 1.93199,50.49625 1.83746,73.87169 0.40192,18.53441 -1.41708,40.7355 0.77542,59.47105 1.39954,16.22564 12.52676,36.87501 4.37858,51.59507 -14.48411,22.3068 -6.62548,44.02394 15.59086,54.79107 20.22286,5.20803 41.67907,9.26905 62.89448,12.99365 22.2003,3.8975 44.13691,7.42663 64.12067,11.51619 11.57939,2.37153 22.7859,5.25227 35.88785,10.44359 10.33876,4.09647 16.35985,8.48964 22.99937,13.07494 3.18864,2.16341 4.87677,4.40391 5.70329,6.86762 0.28006,4.67555 0.29904,13.70889 -0.0641,22.68979 -0.12804,5.83115 0.52637,13.82349 -0.29902,19.62815 -0.44054,3.86653 -2.54658,3.4456 -5.50819,3.5264 -19.62584,0.48435 -39.83114,-0.35654 -56.91738,-0.33108 -47.21319,0.22075 -93.32732,-1.03152 -135.16514,-0.35004 -17.08706,0.009 -33.27857,-0.0234 -48.94397,-0.0685 -17.50074,-0.0506 -34.34487,-0.12026 -51.04748,-0.17945 -16.98272,-0.0602 -33.81909,-0.10979 -51.05065,-0.11757 -16.40999,-0.009 -33.17835,0.0228 -50.77272,0.11777 -6.0631,-0.29654 -31.16519,-0.26609 -52.39259,-0.48363 -17.29033,-0.17738 -37.29875,1.28723 -38.9543,-1.39083 -1.98771,-22.26236 -0.25212,-42.65402 -0.0812,-62.91416 0.10324,-12.32563 1.08253,-25.22836 0.92991,-37.31489 17.89199,0.97154 36.60557,1.86846 55.5065,2.61484 19.28265,0.76142 38.76031,1.36614 57.75948,1.73352 26.6857,0.51602 52.42745,0.56378 75.3591,-0.08 35.98601,-7.02764 38.67131,-11.95289 40.88557,-42.74503 1.66803,-23.47186 -0.25489,-42.58895 0.0525,-63.97753 0.36637,-21.94519 1.02007,-41.23046 0.62233,-61.13465 -1.62264,-23.52486 -0.49844,-49.73803 -0.70252,-71.04468 -0.22936,-20.31772 -3.14824,-32.35582 -11.81384,-42.27468 -9.76255,-9.87832 -21.63174,-11.54134 -32.25589,-13.92045 -21.07818,-4.69813 -42.40756,-14.87579 -62.33862,-18.60163 -20.6326,-3.857 -44.50842,-7.44436 -63.54532,-14.92033 -18.25202,-7.18717 -32.70767,-14.17542 -44.01049,-14.92985 -26.91272,-6.62756 -19.22765,-41.86776 -18.05611,-62.59873 0.44113,-8.1138 -0.58446,-16.23651 -0.87879,-23.83184 -0.39024,-10.0704 -0.51319,-19.21368 -4.19513,-26.17961 -4.14204,-7.30044 -11.71637,-11.8881 -20.30507,-14.41998 -10.76252,-0.66503 -25.17428,-6.77376 -33.76633,0.57758 -12.8933,17.01342 -9.28382,44.47389 -8.71059,62.41913 1.82659,67.65345 -0.23083,126.07673 1.17623,189.79047 0.91415,41.39229 0.16365,83.69154 0.0929,124.61268 -0.0269,19.62326 -1.17432,41.89142 -0.64666,61.58387 1.17943,42.86977 2.41716,88.37651 0.66207,128.47301 -17.10028,1.08414 -38.65459,0.64532 -53.62664,0.18211 -16.40972,-0.50968 -40.03786,1.25773 -57.319454,1.78822 -25.665217,0.78785 -33.503024,3.58044 -44.32238,13.47289 -4.940829,5.94495 -5.211296,12.14792 -2.928023,17.99704 1.799282,4.60925 5.184364,8.99877 9.119502,12.86911 12.335019,6.19468 25.544455,8.54312 38.961345,9.20596 20.20885,0.99837 40.8884,-1.82738 59.75958,-1.09401 9.18193,0.49312 43.21132,-2.40906 51.03005,0.7335 -0.97051,24.6264 0.2205,41.95521 0.18023,66.07303 0.33321,26.91461 -2.69948,75.53888 18.27224,80.87118 8.54648,1.33717 19.98961,1.65586 29.20875,-0.0123 25.4438,-15.73949 20.30793,-55.19648 20.14325,-79.88768 -0.0705,-10.45746 1.49914,-16.75939 0.86835,-26.07709 l -2.76645,-40.86986 c 29.20205,-0.491 64.9791,-1.12865 95.14046,-1.08475 119.33934,0.48404 231.97262,2.11311 335.56027,0.88179 33.61593,-0.33069 57.16487,-1.61625 59.16167,1.49123 1.48594,13.49171 3.13474,29.35606 -0.48578,43.97028 -7.83832,16.28638 -2.8993,34.52759 0.84779,47.51847 1.98691,21.49832 15.78583,73.97472 5.44066,90.02512 -17.8652,17.18279 17.80269,37.05604 43.14925,27.70117 3.53935,-2.18026 7.18487,-5.54838 9.64567,-9.41155 3.18869,-5.00587 4.38826,-10.843 0.79044,-16.00431 -1.94452,-2.67316 -4.30908,-2.59183 -4.25933,-6.26639 2.435,-28.43845 0.10479,-58.98979 7.5979,-84.39905 6.36887,-15.87744 3.0578,-33.72327 0.55569,-49.5572 -1.33392,-15.34996 1.32937,-35.06486 3.1688,-43.78822 14.67705,-6.13214 45.59871,10.17905 56.06883,4.44775 12.24943,-9.6261 13.8834,-17.57535 17.53156,-7.15006 2.6329,7.52397 14.60124,13.67998 26.59622,13.67998 15.56409,0 23.47378,-11.51106 23.47378,-30.66388 0,-15.36053 -5.74291,-26.57514 -23.27582,-32.42456 -19.27863,-2.20565 -25.98601,-1.53923 -42.5184,-2.00921 -14.42141,-0.40996 -36.88619,0.96049 -54.64066,0.27636 -2.57877,-7.1815 -1.77908,-12.77233 -4.41294,-19.93891 -0.70689,-5.81111 -0.78663,-11.58562 -0.67339,-17.22907 0.15069,-7.50966 3.90882,-19.62866 3.71981,-26.4514 -0.20072,-5.50678 -1.13125,-14.2288 1.32809,-17.62515 5.73949,-7.26034 4.84577,-22.54887 -0.0676,-30.19549 0.80722,-51.45415 0.44578,-101.78001 -0.21274,-151.42796 -0.77366,-72.30075 -2.27901,-141.8845 -2.13394,-204.63328 0.19718,-85.06209 0.70755,-145.644502 -2.59728,-150.787642 -29.13786,-33.191433 -54.64432,-4.050307 -62.82426,19.374222 -3.36068,22.14278 -2.79955,44.43427 -1.82221,66.09629 1.0363,22.96932 2.54061,45.23084 0.33351,65.85676 -12.32489,25.46844 -37.52975,41.47991 -59.9319,50.99746 z m -368.80998,47.37318 c 8.30504,1.41893 19.4409,-1.06848 29.83763,1.96165 62.3902,18.20985 88.7716,33.45414 92.77114,62.13453 0.32545,38.0244 -6.50462,47.94555 -36.29034,41.30906 -16.3653,-1.66173 -26.31664,-7.05368 -29.53826,-12.06727 -3.86782,-6.01921 -26.38626,-10.94402 -47.76012,-10.94402 -25.24322,0 -49.99618,-4.25834 -61.50788,-19.40289 -10.49183,-14.67196 -14.07607,-30.98113 -14.26894,-48.20776 -0.0116,-22.63606 12.24549,-32.06866 27.35222,-32.06866 13.65901,0.12761 27.32288,14.87837 39.40455,17.28536 z m 433.26306,112.97302 c -22.85296,0.76421 -40.94327,0.11185 -63.15201,-0.18579 -20.90828,-0.28024 -45.46161,-0.64716 -65.4118,-0.37774 -11.99014,0.17246 -11.75843,-0.17782 -25.05668,0.25504 -0.96598,-18.72139 -0.49046,-42.16684 -1.23331,-60.3577 -0.94922,-14.58655 1.52266,-21.85344 6.89079,-25.51437 6.0194,-4.10512 7.61991,-5.09684 20.18244,-5.36984 10.95167,0.64162 29.06111,-0.0598 38.93478,-3.0424 9.96443,-3.00999 14.37673,-6.89632 24.73188,-9.7028 19.13805,-1.91832 48.62439,-3.13538 58.85095,5.98112 8.03505,8.22594 6.9258,20.9424 7.10522,36.79596 0.20499,20.95018 -2.11222,43.5838 -1.84226,61.51852 z m -311.99321,49.74586 c 1.26421,4.37268 1.73066,8.68692 1.52308,12.8678 -0.63288,12.74932 -7.53307,24.2586 -17.18987,32.40358 -13.84598,10.72231 -29.00076,13.31551 -44.76788,14.97842 -22.04622,2.18582 -44.57341,-0.36853 -64.54626,-2.89203 -17.04081,-2.18778 -33.92799,-5.53599 -40.13296,-11.11958 -10.50315,-18.98764 -6.63348,-27.08093 -7.87162,-45.10254 1.78135,-43.42875 21.18225,-29.10818 43.00863,-27.52413 23.39216,0.75918 42.18475,2.60874 62.74046,5.55348 25.33099,3.63487 62.96907,9.75335 67.23642,20.835 z m 307.92737,2.51748 c 5.21537,2.68458 4.68846,6.05327 6.61626,11.18211 0.86296,4.91935 -0.0224,12.97925 -0.14314,23.02752 -0.18595,15.47682 -0.40156,33.72101 -3.96873,37.29847 -2.82903,2.43108 -6.61324,6.51058 -11.6981,8.37 -15.42943,4.6878 -35.35071,2.43748 -53.16704,-0.98122 -18.82413,-5.13301 -40.55421,-7.75427 -58.55652,-13.56529 -26.40712,-7.41299 -35.55114,-30.50873 -27.81086,-51.92838 23.51346,-25.87691 53.53838,-17.93556 81.55626,-16.6695 22.1857,3.39661 48.04351,-5.13919 67.17187,3.26629 z"
   id="path3757"
   inkscape:connector-curvature="0"
   sodipodi:nodetypes="cccccccccscscccccccssscscccsscccccccscccsccccsccccscscsccccccsccccccccsccccccssscsccscccccccscccsscccccccscccscsccccsccccccccccccccccccccc" />
</svg>